<?xml version="1.0" encoding="utf-8"?>
<!-- Generator: Adobe Illustrator 16.0.0, SVG Export Plug-In . SVG Version: 6.00 Build 0)  -->
<!DOCTYPE svg PUBLIC "-//W3C//DTD SVG 1.1//EN" "http://www.w3.org/Graphics/SVG/1.1/DTD/svg11.dtd">
<svg version="1.1" id="Layer_1" xmlns="http://www.w3.org/2000/svg" xmlns:xlink="http://www.w3.org/1999/xlink" x="0px" y="0px"
	 width="514.333px" height="334.59px" viewBox="188.794 208.586 514.333 334.59"
	 enable-background="new 188.794 208.586 514.333 334.59" xml:space="preserve">
<g>
	<g enable-background="new    ">
		<path fill="#D6D6D6" d="M624.156,303.96l-0.207,4.285l-38.79,13.422l0.204-4.284L624.156,303.96z M232.423,368.882l0.21-4.285
			c0.358-7.433,2.021-14.856,5.02-22.184c11.872-29.016,43.21-53.01,88.23-67.56c9.675-3.126,19.917-5.745,30.425-7.78
			c84.283-16.32,180.504,4.678,229.057,50.31l-0.205,4.284c-48.557-45.633-144.776-66.63-229.06-50.31
			c-10.507,2.035-20.75,4.653-30.423,7.778c-45.021,14.55-76.36,38.545-88.232,67.562
			C234.448,354.024,232.785,361.447,232.423,368.882L232.423,368.882z"/>
		<path fill="#EFEFEF" d="M250.05,418.83c-12.465-15.968-18.443-32.974-17.627-49.938l0.21-4.284
			c-0.708,14.661,3.66,29.35,12.9,43.374c-0.016,0.355-0.032,0.709-0.051,1.063c0.019-0.354,0.035-0.708,0.051-1.063
			c4.63,7.021,10.479,13.877,17.523,20.478c54.1,50.69,161.895,74.208,256.326,55.92c11.77-2.28,23.217-5.203,34.05-8.7
			c65.577-21.191,102.376-59.648,104.317-100.51l-0.207,4.284c-1.94,40.862-38.738,79.316-104.318,100.51
			c-10.832,3.497-22.28,6.422-34.05,8.7c-94.431,18.287-202.227-5.23-256.325-55.92c-4.833-4.53-9.103-9.177-12.8-13.915
			c-0.213-0.433-0.44-0.854-0.658-1.28c0.218,0.426,0.445,0.848,0.658,1.28V418.83z M249.435,417.59l-0.022-0.044l-0.025-0.045
			l-0.025-0.048l-0.022-0.048l-0.028-0.049l-0.024-0.051l-0.023-0.05l-0.025-0.048l-0.023-0.048l-0.025-0.05l-0.021-0.045
			l-0.021-0.045l-0.02-0.039l-0.021-0.043l-0.02-0.037l-0.016-0.035l0.017,0.035l0.017,0.037l0.021,0.041l0.02,0.043l0.021,0.045
			l0.023,0.045l0.026,0.051l0.022,0.047l0.024,0.05l0.023,0.048l0.024,0.051l0.027,0.05l0.021,0.047l0.025,0.05l0.025,0.044
			l0.022,0.044 M249.032,416.628v0.025l0.005,0.016v0.016l0.004,0.018l0.004,0.017l0.002,0.019l0.002,0.02l0.006,0.018l0.002,0.02
			l0.002,0.018l0.004,0.015v0.017l0.002,0.016l0.002,0.013v0.013v-0.013l-0.002-0.013l-0.002-0.016v-0.017l-0.004-0.017l-0.002-0.02
			l-0.002-0.018l-0.006-0.019l-0.002-0.021l-0.002-0.017l-0.004-0.019l-0.004-0.018v-0.016l-0.004-0.016v-0.025 M249.033,416.621
			l-0.099-0.218l-0.104-0.227l-0.105-0.232l-0.112-0.24l-0.109-0.245l-0.112-0.248l-0.115-0.252l-0.111-0.254l-0.113-0.256
			l-0.113-0.255l-0.112-0.254l-0.114-0.25l-0.107-0.246l-0.109-0.24l-0.104-0.236l-0.102-0.228l0.102,0.227l0.104,0.235l0.109,0.24
			l0.106,0.248l0.113,0.25l0.111,0.252l0.113,0.254l0.113,0.257l0.112,0.254l0.116,0.252l0.113,0.248l0.107,0.245l0.11,0.24
			l0.106,0.232l0.104,0.227l0.099,0.218 M247.286,412.744l-0.074-0.168l-0.086-0.183l-0.092-0.195l-0.101-0.209l-0.106-0.219
			l-0.113-0.229l-0.115-0.238l-0.123-0.243l-0.123-0.25l-0.13-0.258l-0.13-0.258l-0.132-0.262l-0.13-0.26l-0.132-0.263l-0.131-0.26
			l-0.13-0.254l0.13,0.256l0.131,0.26l0.13,0.261l0.132,0.26l0.133,0.263l0.13,0.257l0.13,0.258l0.122,0.25l0.123,0.243l0.115,0.24
			l0.113,0.228l0.106,0.221l0.101,0.207l0.092,0.195l0.086,0.182l0.074,0.166"/>
		<path fill="#D6D6D6" d="M658.955,375.37l-0.21,4.283c-1.984,41.102-38.986,79.68-104.83,100.955
			c-10.894,3.517-22.423,6.465-34.26,8.757c-95.015,18.399-203.479-5.268-257.904-56.268c-21.257-19.92-31.7-42.132-30.63-64.28
			l0.21-4.283c-1.073,22.147,9.372,44.36,30.63,64.28c54.424,51,162.887,74.665,257.905,56.265
			c11.834-2.292,23.363-5.238,34.256-8.756C619.967,455.05,656.967,416.471,658.955,375.37L658.955,375.37z M624.552,302.94
			c66.065,61.91,34.31,139.542-70.431,173.384c-10.893,3.518-22.422,6.464-34.256,8.756c-95.02,18.4-203.481-5.266-257.905-56.266
			c-28.44-26.648-37.525-57.403-25.576-86.612c11.943-29.2,43.494-53.352,88.812-67.996c9.744-3.145,20.045-5.783,30.63-7.832
			c84.663-16.396,181.296,4.61,230.04,49.947L624.552,302.94L624.552,302.94z M553.432,475.68
			c103.941-33.59,135.585-110.548,70.726-171.72l-38.793,13.423c-48.553-45.632-144.772-66.63-229.057-50.31
			c-10.508,2.035-20.75,4.654-30.424,7.78c-45.021,14.55-76.36,38.544-88.232,67.56c-11.864,29.016-2.85,59.574,25.406,86.046
			c54.1,50.69,161.895,74.208,256.326,55.92c11.77-2.28,23.217-5.203,34.05-8.7"/>
		<path fill="#D6D6D6" d="M657.75,375.229l-0.209,4.285c1.156-23.923-9.633-48.675-33.592-71.27l0.207-4.286
			c23.96,22.598,34.75,47.35,33.592,71.271H657.75z"/>
		<path fill="#FFFFFF" d="M356.308,267.073c84.283-16.322,180.504,4.678,228.758,49.875l39.092-12.988
			c64.857,61.172,33.218,138.13-70.725,171.72c-10.832,3.497-22.28,6.42-34.05,8.7c-94.431,18.288-202.227-5.229-256.325-55.92
			c-28.256-26.472-37.27-57.03-25.408-86.047c11.875-29.017,43.213-53.01,88.236-67.56
			C335.558,271.728,345.8,269.108,356.308,267.073L356.308,267.073z"/>
	</g>
	<ellipse fill="#EAEAEA" cx="508.747" cy="517.209" rx="11.917" ry="3.968"/>
	<g>
		<path fill="#C2C2C4" d="M501.789,479.956c4.91,3.547,8.437,3.547,14.125,0c2.187,2.77,2.935,5.897,3.496,9.317
			c0.217,1.306,0.58,4.373,0.518,5.696c-0.152,3.13-0.811,3.23-1.635,3.798c-0.353,0.24-0.521,0.83-0.584,1.283
			c-0.53,3.743-1.271,7.48-1.455,11.24c-0.283,5.704-6.551,7.585-10.36,6.02c-2.606-1.069-4.194-2.88-4.497-5.827
			c-0.393-3.809-0.96-7.601-1.525-11.387c-0.085-0.565-0.052-1.377-0.853-1.609c0,0-1.56-0.639-1.56-3.354
			c-0.08-4.916,0.716-9.689,3.354-13.984c0.18-0.293,0.8-1.037,0.98-1.19L501.789,479.956z M517.074,472.368
			c-0.069,4.5-3.864,8.197-8.373,8.16c-4.553-0.035-8.233-3.86-8.184-8.497c0.05-4.519,3.805-8.157,8.373-8.113
			C513.504,463.961,517.148,467.728,517.074,472.368L517.074,472.368z"/>
	</g>
	<ellipse fill="#EAEAEA" cx="280.72" cy="363.209" rx="11.916" ry="3.968"/>
	<g opacity="0.1">
		<path fill="#FFFFFF" d="M273.76,325.956c4.91,3.547,8.435,3.547,14.126,0c2.186,2.77,2.934,5.898,3.496,9.317
			c0.215,1.306,0.58,4.374,0.516,5.697c-0.149,3.13-0.81,3.23-1.635,3.798c-0.354,0.24-0.52,0.83-0.584,1.283
			c-0.53,3.743-1.27,7.48-1.456,11.24c-0.283,5.704-6.55,7.585-10.36,6.02c-2.605-1.07-4.193-2.88-4.496-5.828
			c-0.391-3.808-0.961-7.6-1.525-11.386c-0.084-0.566-0.053-1.377-0.855-1.61c0,0-1.557-0.638-1.56-3.354
			c-0.08-4.916,0.72-9.69,3.355-13.985c0.181-0.293,0.799-1.037,0.979-1.19V325.956z M289.046,318.368
			c-0.07,4.5-3.865,8.197-8.373,8.16c-4.553-0.035-8.234-3.86-8.185-8.497c0.049-4.518,3.803-8.157,8.372-8.113
			C285.471,309.961,289.119,313.728,289.046,318.368L289.046,318.368z"/>
	</g>
	<ellipse fill="#EAEAEA" cx="200.711" cy="358.209" rx="11.917" ry="3.968"/>
	<g>
		<path fill="#C2C2C4" d="M193.75,320.956c4.913,3.547,8.439,3.547,14.128,0c2.186,2.77,2.934,5.898,3.496,9.317
			c0.215,1.306,0.578,4.374,0.516,5.697c-0.152,3.13-0.81,3.23-1.635,3.798c-0.354,0.24-0.521,0.83-0.584,1.283
			c-0.528,3.743-1.271,7.48-1.456,11.24c-0.28,5.704-6.55,7.585-10.357,6.02c-2.606-1.07-4.194-2.88-4.498-5.828
			c-0.392-3.808-0.962-7.6-1.527-11.386c-0.084-0.566-0.05-1.377-0.853-1.61c0,0-1.56-0.638-1.56-3.354
			c-0.08-4.916,0.716-9.69,3.355-13.985c0.179-0.293,0.798-1.037,0.976-1.19L193.75,320.956z M209.038,313.368
			c-0.072,4.5-3.867,8.197-8.375,8.16c-4.551-0.035-8.234-3.86-8.183-8.497c0.05-4.518,3.807-8.157,8.372-8.113
			C205.467,304.961,209.111,308.728,209.038,313.368L209.038,313.368z"/>
	</g>
	<ellipse fill="#EAEAEA" cx="242.579" cy="482.024" rx="13.131" ry="4.372"/>
	<g>
		<path fill="#C2C2C4" d="M234.91,440.974c5.409,3.91,9.296,3.91,15.566,0.002c2.406,3.053,3.232,6.498,3.851,10.267
			c0.237,1.439,0.64,4.82,0.565,6.276c-0.166,3.45-0.89,3.561-1.8,4.186c-0.388,0.266-0.57,0.915-0.644,1.415
			c-0.586,4.123-1.4,8.24-1.605,12.386c-0.312,6.283-7.217,8.355-11.414,6.632c-2.872-1.18-4.622-3.176-4.956-6.423
			c-0.432-4.195-1.06-8.372-1.682-12.545c-0.092-0.624-0.058-1.518-0.94-1.775c0,0-1.718-0.701-1.718-3.694
			c-0.088-5.417,0.79-10.681,3.7-15.412C234.03,441.964,234.712,441.144,234.91,440.974L234.91,440.974z M251.753,432.614
			c-0.078,4.956-4.26,9.032-9.228,8.992c-5.016-0.04-9.073-4.255-9.016-9.365c0.053-4.979,4.19-8.988,9.225-8.938
			C247.817,423.351,251.835,427.5,251.753,432.614L251.753,432.614z"/>
	</g>
	<ellipse fill="#EAEAEA" cx="242.579" cy="482.024" rx="13.131" ry="4.372"/>
	<g>
		<path fill="#C2C2C4" d="M234.91,440.974c5.409,3.91,9.296,3.91,15.566,0.002c2.406,3.053,3.232,6.498,3.851,10.267
			c0.237,1.439,0.64,4.82,0.565,6.276c-0.166,3.45-0.89,3.561-1.8,4.186c-0.388,0.266-0.57,0.915-0.644,1.415
			c-0.586,4.123-1.4,8.24-1.605,12.386c-0.312,6.283-7.217,8.355-11.414,6.632c-2.872-1.18-4.622-3.176-4.956-6.423
			c-0.432-4.195-1.06-8.372-1.682-12.545c-0.092-0.624-0.058-1.518-0.94-1.775c0,0-1.718-0.701-1.718-3.694
			c-0.088-5.417,0.79-10.681,3.7-15.412C234.03,441.964,234.712,441.144,234.91,440.974L234.91,440.974z M251.753,432.614
			c-0.078,4.956-4.26,9.032-9.228,8.992c-5.016-0.04-9.073-4.255-9.016-9.365c0.053-4.979,4.19-8.988,9.225-8.938
			C247.817,423.351,251.835,427.5,251.753,432.614L251.753,432.614z"/>
	</g>
	<ellipse fill="#EAEAEA" cx="643.66" cy="488.805" rx="13.131" ry="4.372"/>
	<g>
		<path fill="#C2C2C4" d="M635.99,447.755c5.413,3.908,9.298,3.908,15.567,0c2.408,3.052,3.234,6.5,3.854,10.268
			c0.237,1.439,0.641,4.819,0.57,6.277c-0.17,3.45-0.894,3.562-1.804,4.187c-0.391,0.265-0.574,0.914-0.646,1.413
			c-0.58,4.122-1.395,8.239-1.6,12.385c-0.313,6.285-7.22,8.356-11.42,6.634c-2.87-1.182-4.618-3.177-4.952-6.424
			c-0.432-4.196-1.06-8.374-1.682-12.547c-0.095-0.625-0.061-1.519-0.94-1.775c0,0-1.718-0.702-1.72-3.696
			c-0.086-5.418,0.79-10.678,3.696-15.409c0.2-0.325,0.884-1.146,1.078-1.315L635.99,447.755z M652.835,439.394
			c-0.076,4.958-4.259,9.033-9.226,8.993c-5.018-0.04-9.074-4.253-9.02-9.363c0.057-4.98,4.192-8.99,9.227-8.94
			C648.899,430.129,652.916,434.279,652.835,439.394L652.835,439.394z"/>
	</g>
	<ellipse fill="#EAEAEA" cx="322.66" cy="437.805" rx="13.132" ry="4.372"/>
	<g opacity="0.1">
		<path fill="#FFFFFF" d="M314.99,396.755c5.413,3.908,9.298,3.908,15.567,0c2.408,3.053,3.233,6.5,3.854,10.268
			c0.237,1.439,0.641,4.819,0.57,6.277c-0.17,3.45-0.894,3.562-1.804,4.186c-0.391,0.266-0.574,0.914-0.646,1.414
			c-0.58,4.122-1.395,8.239-1.6,12.385c-0.313,6.285-7.22,8.356-11.42,6.634c-2.87-1.182-4.618-3.177-4.952-6.424
			c-0.432-4.196-1.06-8.374-1.682-12.548c-0.095-0.625-0.061-1.518-0.94-1.774c0,0-1.718-0.702-1.72-3.696
			c-0.086-5.418,0.79-10.678,3.696-15.41c0.2-0.324,0.884-1.145,1.078-1.314L314.99,396.755z M331.835,388.394
			c-0.076,4.959-4.259,9.033-9.226,8.994c-5.018-0.041-9.074-4.254-9.02-9.365c0.057-4.979,4.192-8.989,9.227-8.939
			C327.899,379.129,331.916,383.278,331.835,388.394L331.835,388.394z"/>
	</g>
	<ellipse fill="#EAEAEA" cx="592.66" cy="382.805" rx="13.131" ry="4.372"/>
	<g>
		<path fill="#00ACD0" d="M584.99,341.755c5.413,3.908,9.298,3.908,15.567,0c2.408,3.052,3.234,6.5,3.854,10.267
			c0.237,1.44,0.641,4.82,0.57,6.278c-0.17,3.45-0.894,3.562-1.804,4.186c-0.391,0.265-0.574,0.914-0.646,1.413
			c-0.58,4.123-1.395,8.241-1.6,12.385c-0.313,6.285-7.22,8.357-11.42,6.634c-2.87-1.183-4.618-3.177-4.952-6.424
			c-0.432-4.196-1.06-8.374-1.682-12.547c-0.095-0.625-0.061-1.518-0.94-1.775c0,0-1.718-0.702-1.72-3.696
			c-0.086-5.418,0.79-10.678,3.696-15.41c0.2-0.325,0.884-1.145,1.078-1.315L584.99,341.755z M601.835,333.394
			c-0.076,4.958-4.259,9.033-9.226,8.993c-5.018-0.04-9.074-4.253-9.02-9.364c0.057-4.98,4.192-8.99,9.227-8.94
			C597.899,324.129,601.916,328.279,601.835,333.394L601.835,333.394z"/>
	</g>
	<ellipse fill="#EAEAEA" cx="451.611" cy="538.805" rx="13.13" ry="4.372"/>
	<g>
		<path fill="#C2C2C4" d="M443.944,497.755c5.41,3.908,9.295,3.908,15.564,0c2.407,3.052,3.233,6.5,3.852,10.268
			c0.238,1.439,0.641,4.819,0.568,6.277c-0.168,3.45-0.891,3.562-1.8,4.187c-0.391,0.265-0.573,0.914-0.645,1.413
			c-0.588,4.122-1.399,8.239-1.606,12.385c-0.311,6.285-7.218,8.356-11.414,6.634c-2.873-1.182-4.62-3.177-4.955-6.424
			c-0.433-4.196-1.061-8.374-1.683-12.547c-0.092-0.625-0.057-1.519-0.939-1.775c0,0-1.718-0.702-1.718-3.696
			c-0.089-5.418,0.789-10.678,3.696-15.409c0.198-0.325,0.882-1.146,1.08-1.315L443.944,497.755z M460.787,489.394
			c-0.082,4.958-4.262,9.033-9.229,8.993c-5.018-0.04-9.07-4.253-9.015-9.363c0.053-4.98,4.189-8.99,9.223-8.94
			C456.851,480.129,460.867,484.279,460.787,489.394L460.787,489.394z"/>
	</g>
	<ellipse fill="#EAEAEA" cx="292.626" cy="251.018" rx="9.487" ry="3.159"/>
	<g>
		<path fill="#C2C2C4" d="M287.087,221.357c3.91,2.825,6.715,2.825,11.245,0c1.738,2.206,2.335,4.696,2.783,7.42
			c0.17,1.038,0.46,3.48,0.41,4.534c-0.12,2.494-0.643,2.574-1.3,3.024c-0.282,0.19-0.415,0.662-0.468,1.023
			c-0.422,2.98-1.011,5.953-1.158,8.948c-0.225,4.54-5.215,6.038-8.248,4.792c-2.076-0.852-3.338-2.294-3.58-4.64
			c-0.312-3.032-0.766-6.05-1.215-9.065c-0.067-0.45-0.04-1.097-0.68-1.282c0,0-1.242-0.508-1.242-2.67
			c-0.062-3.915,0.57-7.716,2.672-11.136C286.45,222.075,286.942,221.48,287.087,221.357L287.087,221.357z M299.255,215.316
			c-0.056,3.582-3.076,6.526-6.666,6.497c-3.626-0.027-6.556-3.072-6.518-6.766c0.04-3.598,3.03-6.495,6.666-6.46
			c3.671,0.035,6.573,3.033,6.516,6.73L299.255,215.316z"/>
	</g>
	<ellipse fill="#EAEAEA" cx="304.02" cy="320.018" rx="9.487" ry="3.159"/>
	<g>
		<path fill="#00ACD0" d="M298.48,290.357c3.91,2.825,6.714,2.825,11.245,0c1.74,2.206,2.336,4.696,2.783,7.42
			c0.17,1.038,0.46,3.48,0.41,4.534c-0.12,2.494-0.646,2.574-1.301,3.024c-0.281,0.19-0.415,0.662-0.466,1.023
			c-0.422,2.98-1.01,5.953-1.16,8.948c-0.225,4.54-5.215,6.038-8.248,4.792c-2.073-0.852-3.338-2.294-3.58-4.64
			c-0.31-3.032-0.764-6.05-1.214-9.065c-0.07-0.45-0.042-1.097-0.681-1.282c0,0-1.24-0.508-1.243-2.67
			c-0.062-3.915,0.572-7.716,2.673-11.136c0.143-0.229,0.637-0.825,0.779-0.947L298.48,290.357z M310.65,284.316
			c-0.058,3.582-3.08,6.526-6.67,6.497c-3.622-0.027-6.554-3.072-6.515-6.766c0.04-3.598,3.029-6.495,6.666-6.46
			C307.805,277.622,310.706,280.62,310.65,284.316L310.65,284.316z"/>
	</g>
	<ellipse fill="#EAEAEA" cx="238.607" cy="300.018" rx="9.487" ry="3.159"/>
	<g>
		<path fill="#C2C2C4" d="M233.067,270.357c3.91,2.825,6.718,2.825,11.246,0c1.74,2.206,2.338,4.696,2.783,7.42
			c0.172,1.038,0.463,3.48,0.41,4.534c-0.12,2.494-0.644,2.574-1.3,3.024c-0.282,0.19-0.413,0.662-0.466,1.023
			c-0.423,2.98-1.011,5.953-1.16,8.948c-0.226,4.54-5.213,6.038-8.248,4.792c-2.074-0.852-3.338-2.294-3.58-4.64
			c-0.311-3.032-0.767-6.05-1.215-9.065c-0.066-0.45-0.04-1.097-0.681-1.282c0,0-1.239-0.508-1.239-2.67
			c-0.064-3.915,0.569-7.716,2.672-11.136C232.432,271.075,232.924,270.48,233.067,270.357L233.067,270.357z M245.237,264.316
			c-0.057,3.582-3.077,6.526-6.666,6.497c-3.626-0.027-6.554-3.072-6.515-6.766c0.04-3.598,3.03-6.495,6.666-6.46
			c3.674,0.035,6.576,3.033,6.517,6.73L245.237,264.316z"/>
	</g>
	<ellipse fill="#EAEAEA" cx="546.607" cy="267.018" rx="9.487" ry="3.159"/>
	<g>
		<path fill="#C2C2C4" d="M541.067,237.357c3.91,2.825,6.717,2.825,11.246,0c1.74,2.206,2.338,4.696,2.783,7.42
			c0.172,1.038,0.463,3.48,0.41,4.534c-0.12,2.494-0.644,2.574-1.301,3.024c-0.281,0.19-0.412,0.662-0.466,1.023
			c-0.422,2.98-1.01,5.953-1.16,8.948c-0.225,4.54-5.213,6.038-8.247,4.792c-2.074-0.852-3.339-2.294-3.58-4.64
			c-0.311-3.032-0.767-6.05-1.216-9.065c-0.065-0.45-0.04-1.097-0.68-1.282c0,0-1.24-0.508-1.24-2.67
			c-0.063-3.915,0.57-7.716,2.672-11.136C540.432,238.075,540.924,237.48,541.067,237.357L541.067,237.357z M553.237,231.316
			c-0.057,3.582-3.078,6.526-6.666,6.497c-3.626-0.027-6.554-3.072-6.515-6.766c0.04-3.598,3.03-6.495,6.666-6.46
			c3.674,0.035,6.576,3.033,6.517,6.73L553.237,231.316z"/>
	</g>
	<ellipse fill="#EAEAEA" cx="670.985" cy="326.018" rx="9.488" ry="3.159"/>
	<g>
		<path fill="#C2C2C4" d="M665.444,296.357c3.91,2.825,6.717,2.825,11.246,0c1.742,2.206,2.336,4.696,2.785,7.42
			c0.17,1.038,0.46,3.48,0.41,4.534c-0.12,2.494-0.646,2.574-1.304,3.024c-0.279,0.19-0.411,0.662-0.465,1.023
			c-0.422,2.98-1.01,5.953-1.16,8.948c-0.225,4.54-5.213,6.038-8.245,4.792c-2.075-0.852-3.341-2.294-3.58-4.64
			c-0.311-3.032-0.766-6.05-1.217-9.065c-0.063-0.45-0.04-1.097-0.678-1.282c0,0-1.242-0.508-1.242-2.67
			c-0.062-3.915,0.57-7.716,2.672-11.136C664.811,297.075,665.305,296.48,665.444,296.357L665.444,296.357z M677.614,290.316
			c-0.055,3.582-3.078,6.526-6.668,6.497c-3.623-0.027-6.555-3.072-6.512-6.766c0.037-3.598,3.027-6.495,6.664-6.46
			C674.771,283.622,677.673,286.62,677.614,290.316L677.614,290.316z"/>
	</g>
	<ellipse fill="#EAEAEA" cx="327.747" cy="360.209" rx="11.917" ry="3.968"/>
	<g opacity="0.1">
		<path fill="#FFFFFF" d="M320.789,322.956c4.91,3.547,8.437,3.547,14.125,0c2.187,2.77,2.935,5.898,3.496,9.317
			c0.217,1.306,0.58,4.374,0.518,5.697c-0.152,3.13-0.811,3.23-1.635,3.798c-0.353,0.24-0.521,0.83-0.584,1.283
			c-0.53,3.743-1.271,7.48-1.455,11.24c-0.283,5.704-6.551,7.585-10.36,6.02c-2.606-1.07-4.194-2.88-4.497-5.828
			c-0.393-3.808-0.96-7.6-1.525-11.386c-0.085-0.566-0.052-1.377-0.853-1.61c0,0-1.56-0.638-1.56-3.354
			c-0.08-4.916,0.716-9.69,3.354-13.985c0.18-0.293,0.8-1.037,0.98-1.19L320.789,322.956z M336.074,315.368
			c-0.069,4.5-3.864,8.197-8.373,8.16c-4.553-0.035-8.233-3.86-8.184-8.497c0.05-4.518,3.805-8.157,8.373-8.113
			C332.504,306.961,336.148,310.728,336.074,315.368L336.074,315.368z"/>
	</g>
	<ellipse fill="#EAEAEA" cx="622.31" cy="408.805" rx="13.131" ry="4.372"/>
	<g opacity="0.1">
		<path fill="#FFFFFF" d="M614.642,367.755c5.41,3.908,9.295,3.908,15.563,0c2.408,3.052,3.232,6.5,3.853,10.268
			c0.238,1.439,0.64,4.819,0.568,6.277c-0.166,3.45-0.891,3.562-1.801,4.186c-0.39,0.266-0.574,0.914-0.644,1.414
			c-0.586,4.123-1.398,8.24-1.604,12.385c-0.312,6.285-7.22,8.357-11.416,6.634c-2.872-1.183-4.619-3.177-4.956-6.424
			c-0.433-4.196-1.058-8.374-1.681-12.548c-0.094-0.625-0.06-1.518-0.939-1.774c0,0-1.721-0.702-1.721-3.696
			c-0.088-5.418,0.79-10.678,3.7-15.41c0.198-0.325,0.877-1.145,1.077-1.315V367.755z M631.483,359.394
			c-0.076,4.958-4.258,9.033-9.225,8.993c-5.019-0.04-9.074-4.253-9.021-9.364c0.058-4.98,4.193-8.99,9.228-8.94
			C627.548,350.129,631.565,354.279,631.483,359.394L631.483,359.394z"/>
	</g>
	<path fill="none" stroke="#FFFFFF" stroke-miterlimit="10" d="M418.808,474.677"/>
	<path fill="#EAEAEA" stroke="#030606" stroke-miterlimit="10" stroke-dasharray="4,3" d="M412.562,325.593
		c39.506-9.206,84.605,2.638,107.223,28.128l18.322-7.324c30.4,34.5,15.57,77.904-33.149,96.847
		c-5.076,1.974-10.44,3.622-15.961,4.907c-44.26,10.313-94.783-2.948-120.144-31.537c-13.242-14.93-17.47-32.165-11.908-48.53
		c5.566-16.364,20.254-29.895,41.357-38.103C402.835,328.219,407.636,326.741,412.562,325.593L412.562,325.593z"/>
	<ellipse fill="#EAEAEA" cx="363.31" cy="457.805" rx="13.131" ry="4.372"/>
	<g opacity="0.1">
		<path fill="#FFFFFF" d="M355.642,416.755c5.41,3.908,9.295,3.908,15.563,0c2.408,3.053,3.232,6.5,3.853,10.268
			c0.238,1.439,0.64,4.819,0.567,6.277c-0.165,3.45-0.89,3.562-1.8,4.187c-0.39,0.265-0.575,0.914-0.644,1.413
			c-0.586,4.122-1.398,8.239-1.604,12.385c-0.312,6.285-7.22,8.356-11.416,6.634c-2.873-1.182-4.62-3.177-4.957-6.424
			c-0.432-4.196-1.057-8.374-1.68-12.547c-0.094-0.625-0.06-1.519-0.939-1.775c0,0-1.721-0.702-1.721-3.696
			c-0.088-5.418,0.79-10.678,3.7-15.41c0.198-0.324,0.877-1.145,1.077-1.314V416.755z M372.483,408.394
			c-0.076,4.959-4.258,9.033-9.225,8.994c-5.019-0.041-9.074-4.254-9.021-9.365c0.058-4.979,4.193-8.989,9.228-8.939
			C368.548,399.129,372.565,403.278,372.483,408.394L372.483,408.394z"/>
	</g>
	<ellipse fill="#EAEAEA" cx="567.573" cy="432.805" rx="13.131" ry="4.372"/>
	<g opacity="0.1">
		<path fill="#FFFFFF" d="M559.905,391.755c5.412,3.908,9.295,3.908,15.564,0c2.407,3.053,3.229,6.5,3.853,10.268
			c0.236,1.439,0.641,4.819,0.568,6.277c-0.167,3.45-0.89,3.562-1.8,4.186c-0.391,0.266-0.574,0.914-0.646,1.414
			c-0.584,4.123-1.399,8.239-1.604,12.385c-0.311,6.285-7.217,8.356-11.412,6.634c-2.873-1.182-4.623-3.177-4.957-6.424
			c-0.43-4.196-1.058-8.374-1.68-12.548c-0.096-0.625-0.061-1.518-0.94-1.774c0,0-1.72-0.702-1.72-3.696
			c-0.087-5.418,0.79-10.678,3.7-15.41c0.195-0.324,0.88-1.145,1.074-1.314L559.905,391.755z M576.75,383.394
			c-0.08,4.959-4.261,9.033-9.23,8.994c-5.014-0.041-9.072-4.254-9.016-9.365c0.055-4.979,4.192-8.989,9.225-8.939
			c5.082,0.046,9.1,4.195,9.02,9.311H576.75z"/>
	</g>
	<path fill="none" stroke="#969696" stroke-miterlimit="10" stroke-dasharray="4,3" d="M430.808,323.677l43.886,126.368
		 M361.808,357.343L549.14,404.01 M500.808,339.177l-119,88.5"/>
	<path fill="none" stroke="#969696" stroke-miterlimit="10" d="M333.505,484.033l-42.38,31.47"/>
	<path fill="#969696" d="M329.043,482.734l3.47,2.035l0.944,3.91l4.841-8.206L329.043,482.734z"/>
	<ellipse fill="#EAEAEA" cx="433.31" cy="435.805" rx="13.131" ry="4.372"/>
	<g>
		<path fill="#FFA800" d="M425.642,394.755c5.41,3.908,9.295,3.908,15.563,0c2.408,3.053,3.232,6.5,3.853,10.268
			c0.238,1.439,0.64,4.819,0.567,6.277c-0.165,3.45-0.89,3.562-1.8,4.186c-0.39,0.266-0.575,0.914-0.644,1.414
			c-0.586,4.123-1.398,8.239-1.604,12.385c-0.312,6.285-7.22,8.356-11.416,6.634c-2.873-1.182-4.62-3.177-4.957-6.424
			c-0.432-4.196-1.057-8.374-1.68-12.548c-0.094-0.625-0.06-1.518-0.939-1.774c0,0-1.721-0.702-1.721-3.696
			c-0.088-5.418,0.79-10.678,3.7-15.41c0.198-0.324,0.877-1.145,1.077-1.314V394.755z M442.483,386.394
			c-0.076,4.959-4.258,9.033-9.225,8.994c-5.019-0.041-9.074-4.254-9.021-9.365c0.058-4.979,4.193-8.989,9.228-8.939
			C438.548,377.129,442.565,381.278,442.483,386.394L442.483,386.394z"/>
	</g>
	<ellipse fill="#EAEAEA" cx="497.15" cy="435.805" rx="13.13" ry="4.372"/>
	<g>
		<path fill="#00ACD0" d="M489.483,394.755c5.41,3.908,9.293,3.908,15.564,0c2.407,3.053,3.231,6.5,3.852,10.268
			c0.235,1.439,0.636,4.819,0.565,6.277c-0.164,3.45-0.891,3.562-1.801,4.186c-0.39,0.266-0.572,0.914-0.644,1.414
			c-0.583,4.123-1.395,8.239-1.604,12.385c-0.31,6.285-7.217,8.356-11.413,6.634c-2.873-1.182-4.62-3.177-4.955-6.424
			c-0.433-4.196-1.061-8.374-1.683-12.548c-0.092-0.625-0.057-1.518-0.939-1.774c0,0-1.719-0.702-1.721-3.696
			c-0.088-5.418,0.793-10.678,3.697-15.41c0.2-0.324,0.882-1.145,1.08-1.314L489.483,394.755z M506.324,386.394
			c-0.078,4.959-4.26,9.033-9.227,8.994c-5.019-0.041-9.072-4.254-9.019-9.365c0.056-4.979,4.19-8.989,9.228-8.939
			C502.387,377.129,506.406,381.278,506.324,386.394L506.324,386.394z"/>
	</g>
	<ellipse fill="#EAEAEA" cx="484.857" cy="258.018" rx="9.487" ry="3.159"/>
	<g>
		<path fill="#C2C2C4" d="M479.32,228.357c3.907,2.825,6.712,2.825,11.245,0c1.738,2.206,2.334,4.696,2.783,7.42
			c0.17,1.038,0.46,3.48,0.408,4.534c-0.12,2.494-0.644,2.574-1.301,3.024c-0.281,0.19-0.412,0.662-0.466,1.023
			c-0.422,2.98-1.01,5.953-1.158,8.948c-0.227,4.54-5.217,6.038-8.247,4.792c-2.076-0.852-3.341-2.294-3.58-4.64
			c-0.312-3.032-0.767-6.05-1.218-9.065c-0.063-0.45-0.04-1.097-0.68-1.282c0,0-1.24-0.508-1.242-2.67
			c-0.062-3.915,0.572-7.716,2.674-11.136C478.682,229.075,479.174,228.48,479.32,228.357L479.32,228.357z M491.487,222.316
			c-0.055,3.582-3.078,6.526-6.666,6.497c-3.624-0.027-6.554-3.072-6.515-6.766c0.04-3.598,3.026-6.495,6.666-6.46
			c3.674,0.035,6.576,3.033,6.517,6.73L491.487,222.316z"/>
	</g>
	<path fill="none" stroke="#030606" stroke-miterlimit="10" stroke-dasharray="4,3" d="M515.808,439.677l103.36,76"/>
	<ellipse fill="#EAEAEA" cx="504.752" cy="311.731" rx="9.486" ry="3.158"/>
	<g opacity="0.1">
		<path fill="#FFFFFF" d="M499.21,282.07c3.909,2.825,6.717,2.825,11.247,0c1.738,2.206,2.337,4.696,2.783,7.42
			c0.173,1.04,0.462,3.48,0.41,4.535c-0.12,2.493-0.644,2.573-1.3,3.023c-0.28,0.192-0.414,0.66-0.465,1.022
			c-0.424,2.979-1.013,5.953-1.16,8.95c-0.226,4.54-5.215,6.036-8.248,4.79c-2.074-0.852-3.34-2.293-3.58-4.64
			c-0.312-3.032-0.766-6.05-1.215-9.064c-0.066-0.45-0.04-1.097-0.68-1.282c0,0-1.242-0.508-1.242-2.672
			c-0.064-3.913,0.569-7.715,2.674-11.135C498.574,282.787,499.07,282.194,499.21,282.07L499.21,282.07z M511.38,276.03
			c-0.056,3.582-3.076,6.526-6.666,6.498c-3.623-0.03-6.558-3.074-6.517-6.768c0.04-3.598,3.03-6.494,6.666-6.46
			C508.535,269.337,511.44,272.335,511.38,276.03z"/>
	</g>
	<ellipse fill="#EAEAEA" cx="339.607" cy="281.018" rx="9.487" ry="3.159"/>
	<g opacity="0.1">
		<path fill="#FFFFFF" d="M334.067,251.357c3.91,2.825,6.717,2.825,11.246,0c1.74,2.206,2.338,4.696,2.783,7.42
			c0.172,1.038,0.463,3.48,0.41,4.534c-0.12,2.494-0.644,2.574-1.301,3.024c-0.281,0.19-0.412,0.662-0.466,1.023
			c-0.422,2.98-1.01,5.953-1.16,8.948c-0.225,4.54-5.213,6.038-8.248,4.792c-2.073-0.852-3.338-2.294-3.579-4.64
			c-0.311-3.032-0.767-6.05-1.216-9.065c-0.065-0.45-0.04-1.097-0.68-1.282c0,0-1.24-0.508-1.24-2.67
			c-0.063-3.915,0.57-7.716,2.672-11.136C333.432,252.075,333.924,251.48,334.067,251.357L334.067,251.357z M346.237,245.316
			c-0.057,3.582-3.078,6.526-6.666,6.497c-3.626-0.027-6.554-3.072-6.515-6.766c0.04-3.598,3.03-6.495,6.666-6.46
			c3.674,0.035,6.576,3.033,6.517,6.73L346.237,245.316z"/>
	</g>
	<ellipse fill="#EAEAEA" cx="450.985" cy="286.018" rx="9.488" ry="3.159"/>
	<g>
		<path fill="#00ACD0" d="M445.444,256.357c3.91,2.825,6.717,2.825,11.246,0c1.742,2.206,2.336,4.696,2.785,7.42
			c0.17,1.038,0.46,3.48,0.41,4.534c-0.12,2.494-0.646,2.574-1.304,3.024c-0.279,0.19-0.411,0.662-0.465,1.023
			c-0.422,2.98-1.01,5.953-1.16,8.948c-0.225,4.54-5.213,6.038-8.245,4.792c-2.075-0.852-3.341-2.294-3.58-4.64
			c-0.311-3.032-0.766-6.05-1.217-9.065c-0.063-0.45-0.039-1.097-0.678-1.282c0,0-1.242-0.508-1.242-2.67
			c-0.062-3.915,0.57-7.716,2.672-11.136C444.811,257.075,445.305,256.48,445.444,256.357L445.444,256.357z M457.614,250.316
			c-0.055,3.582-3.078,6.526-6.668,6.497c-3.623-0.027-6.555-3.072-6.512-6.766c0.037-3.598,3.027-6.495,6.664-6.46
			C454.771,243.622,457.673,246.62,457.614,250.316L457.614,250.316z"/>
	</g>
	<g opacity="0.1">
		<path fill="#FFFFFF" d="M584.99,341.755c5.413,3.908,9.298,3.908,15.567,0c2.408,3.052,3.234,6.5,3.854,10.267
			c0.237,1.44,0.641,4.82,0.57,6.278c-0.17,3.45-0.894,3.562-1.804,4.186c-0.391,0.265-0.574,0.914-0.646,1.413
			c-0.58,4.123-1.395,8.241-1.6,12.385c-0.313,6.285-7.22,8.357-11.42,6.634c-2.87-1.183-4.618-3.177-4.952-6.424
			c-0.432-4.196-1.06-8.374-1.682-12.547c-0.095-0.625-0.061-1.518-0.94-1.775c0,0-1.718-0.702-1.72-3.696
			c-0.086-5.418,0.79-10.678,3.696-15.41c0.2-0.325,0.884-1.145,1.078-1.315L584.99,341.755z M601.835,333.394
			c-0.076,4.958-4.259,9.033-9.226,8.993c-5.018-0.04-9.074-4.253-9.02-9.364c0.057-4.98,4.192-8.99,9.227-8.94
			C597.899,324.129,601.916,328.279,601.835,333.394L601.835,333.394z"/>
	</g>
	<g opacity="0.1">
		<path fill="#FFFFFF" d="M298.48,290.357c3.91,2.825,6.714,2.825,11.245,0c1.74,2.206,2.336,4.696,2.783,7.42
			c0.17,1.038,0.46,3.48,0.41,4.534c-0.12,2.494-0.646,2.574-1.301,3.024c-0.281,0.19-0.415,0.662-0.466,1.023
			c-0.422,2.98-1.01,5.953-1.16,8.948c-0.225,4.54-5.215,6.038-8.248,4.792c-2.073-0.852-3.338-2.294-3.58-4.64
			c-0.31-3.032-0.764-6.05-1.214-9.065c-0.07-0.45-0.042-1.097-0.681-1.282c0,0-1.24-0.508-1.243-2.67
			c-0.062-3.915,0.572-7.716,2.673-11.136c0.143-0.229,0.637-0.825,0.779-0.947L298.48,290.357z M310.65,284.316
			c-0.058,3.582-3.08,6.526-6.67,6.497c-3.622-0.027-6.554-3.072-6.515-6.766c0.04-3.598,3.029-6.495,6.666-6.46
			C307.805,277.622,310.706,280.62,310.65,284.316L310.65,284.316z"/>
	</g>
	<g opacity="0.1">
		<path fill="#FFFFFF" d="M445.444,256.357c3.91,2.825,6.717,2.825,11.246,0c1.742,2.206,2.336,4.696,2.785,7.42
			c0.17,1.038,0.46,3.48,0.41,4.534c-0.12,2.494-0.646,2.574-1.304,3.024c-0.279,0.19-0.411,0.662-0.465,1.023
			c-0.422,2.98-1.01,5.953-1.16,8.948c-0.225,4.54-5.213,6.038-8.245,4.792c-2.075-0.852-3.341-2.294-3.58-4.64
			c-0.311-3.032-0.766-6.05-1.217-9.065c-0.063-0.45-0.039-1.097-0.678-1.282c0,0-1.242-0.508-1.242-2.67
			c-0.062-3.915,0.57-7.716,2.672-11.136C444.811,257.075,445.305,256.48,445.444,256.357L445.444,256.357z M457.614,250.316
			c-0.055,3.582-3.078,6.526-6.668,6.497c-3.623-0.027-6.555-3.072-6.512-6.766c0.037-3.598,3.027-6.495,6.664-6.46
			C454.771,243.622,457.673,246.62,457.614,250.316L457.614,250.316z"/>
	</g>
	<ellipse fill="#EAEAEA" cx="375.02" cy="294.018" rx="9.487" ry="3.159"/>
	<g>
		<path fill="#80529B" d="M369.48,264.357c3.91,2.825,6.714,2.825,11.245,0c1.74,2.206,2.336,4.696,2.783,7.42
			c0.17,1.038,0.46,3.48,0.41,4.534c-0.12,2.494-0.646,2.574-1.301,3.024c-0.281,0.19-0.415,0.662-0.466,1.023
			c-0.422,2.98-1.01,5.953-1.16,8.948c-0.225,4.54-5.215,6.038-8.248,4.792c-2.073-0.852-3.338-2.294-3.58-4.64
			c-0.31-3.032-0.764-6.05-1.215-9.065c-0.069-0.45-0.042-1.097-0.68-1.282c0,0-1.24-0.508-1.243-2.67
			c-0.062-3.915,0.572-7.716,2.672-11.136c0.144-0.229,0.638-0.825,0.78-0.947L369.48,264.357z M381.65,258.316
			c-0.058,3.582-3.08,6.526-6.67,6.497c-3.622-0.027-6.554-3.072-6.515-6.766c0.04-3.598,3.029-6.495,6.666-6.46
			C378.805,251.622,381.706,254.62,381.65,258.316L381.65,258.316z"/>
	</g>
	<g>
		<path fill="#E95A78" d="M273.76,325.956c4.91,3.547,8.435,3.547,14.126,0c2.186,2.77,2.934,5.898,3.496,9.317
			c0.215,1.306,0.58,4.374,0.516,5.697c-0.149,3.13-0.81,3.23-1.635,3.798c-0.354,0.24-0.52,0.83-0.584,1.283
			c-0.53,3.743-1.27,7.48-1.456,11.24c-0.283,5.704-6.55,7.585-10.36,6.02c-2.605-1.07-4.193-2.88-4.496-5.828
			c-0.391-3.808-0.961-7.6-1.525-11.386c-0.084-0.566-0.053-1.377-0.855-1.61c0,0-1.557-0.638-1.56-3.354
			c-0.08-4.916,0.72-9.69,3.355-13.985c0.181-0.293,0.799-1.037,0.979-1.19V325.956z M289.046,318.368
			c-0.07,4.5-3.865,8.197-8.373,8.16c-4.553-0.035-8.234-3.86-8.185-8.497c0.049-4.518,3.803-8.157,8.372-8.113
			C285.471,309.961,289.119,313.728,289.046,318.368L289.046,318.368z"/>
	</g>
	<g>
		<path fill="#00D096" d="M314.99,396.755c5.413,3.908,9.298,3.908,15.567,0c2.408,3.053,3.233,6.5,3.854,10.268
			c0.237,1.439,0.641,4.819,0.57,6.277c-0.17,3.45-0.894,3.562-1.804,4.186c-0.391,0.266-0.574,0.914-0.646,1.414
			c-0.58,4.122-1.395,8.239-1.6,12.385c-0.313,6.285-7.22,8.356-11.42,6.634c-2.87-1.182-4.618-3.177-4.952-6.424
			c-0.432-4.196-1.06-8.374-1.682-12.548c-0.095-0.625-0.061-1.518-0.94-1.774c0,0-1.718-0.702-1.72-3.696
			c-0.086-5.418,0.79-10.678,3.696-15.41c0.2-0.324,0.884-1.145,1.078-1.314L314.99,396.755z M331.835,388.394
			c-0.076,4.959-4.259,9.033-9.226,8.994c-5.018-0.041-9.074-4.254-9.02-9.365c0.057-4.979,4.192-8.989,9.227-8.939
			C327.899,379.129,331.916,383.278,331.835,388.394L331.835,388.394z"/>
	</g>
	<g>
		<path fill="#FFA800" d="M320.789,322.956c4.91,3.547,8.437,3.547,14.125,0c2.187,2.77,2.935,5.898,3.496,9.317
			c0.217,1.306,0.58,4.374,0.518,5.697c-0.152,3.13-0.811,3.23-1.635,3.798c-0.353,0.24-0.521,0.83-0.584,1.283
			c-0.53,3.743-1.271,7.48-1.455,11.24c-0.283,5.704-6.551,7.585-10.36,6.02c-2.606-1.07-4.194-2.88-4.497-5.828
			c-0.393-3.808-0.96-7.6-1.525-11.386c-0.085-0.566-0.052-1.377-0.853-1.61c0,0-1.56-0.638-1.56-3.354
			c-0.08-4.916,0.716-9.69,3.354-13.985c0.18-0.293,0.8-1.037,0.98-1.19L320.789,322.956z M336.074,315.368
			c-0.069,4.5-3.864,8.197-8.373,8.16c-4.553-0.035-8.233-3.86-8.184-8.497c0.05-4.518,3.805-8.157,8.373-8.113
			C332.504,306.961,336.148,310.728,336.074,315.368L336.074,315.368z"/>
	</g>
	<g>
		<path fill="#E95A78" d="M355.642,416.755c5.41,3.908,9.295,3.908,15.563,0c2.408,3.053,3.232,6.5,3.853,10.268
			c0.238,1.439,0.64,4.819,0.567,6.277c-0.165,3.45-0.89,3.562-1.8,4.187c-0.39,0.265-0.575,0.914-0.644,1.413
			c-0.586,4.122-1.398,8.239-1.604,12.385c-0.312,6.285-7.22,8.356-11.416,6.634c-2.873-1.182-4.62-3.177-4.957-6.424
			c-0.432-4.196-1.057-8.374-1.68-12.547c-0.094-0.625-0.06-1.519-0.939-1.775c0,0-1.721-0.702-1.721-3.696
			c-0.088-5.418,0.79-10.678,3.7-15.41c0.198-0.324,0.877-1.145,1.077-1.314V416.755z M372.483,408.394
			c-0.076,4.959-4.258,9.033-9.225,8.994c-5.019-0.041-9.074-4.254-9.021-9.365c0.058-4.979,4.193-8.989,9.228-8.939
			C368.548,399.129,372.565,403.278,372.483,408.394L372.483,408.394z"/>
	</g>
	<g>
		<path fill="#FFA800" d="M559.905,391.755c5.412,3.908,9.295,3.908,15.564,0c2.407,3.053,3.229,6.5,3.853,10.268
			c0.236,1.439,0.641,4.819,0.568,6.277c-0.167,3.45-0.89,3.562-1.8,4.186c-0.391,0.266-0.574,0.914-0.646,1.414
			c-0.584,4.123-1.399,8.239-1.604,12.385c-0.311,6.285-7.217,8.356-11.412,6.634c-2.873-1.182-4.623-3.177-4.957-6.424
			c-0.43-4.196-1.058-8.374-1.68-12.548c-0.096-0.625-0.061-1.518-0.94-1.774c0,0-1.72-0.702-1.72-3.696
			c-0.087-5.418,0.79-10.678,3.7-15.41c0.195-0.324,0.88-1.145,1.074-1.314L559.905,391.755z M576.75,383.394
			c-0.08,4.959-4.261,9.033-9.23,8.994c-5.014-0.041-9.072-4.254-9.016-9.365c0.055-4.979,4.192-8.989,9.225-8.939
			c5.082,0.046,9.1,4.195,9.02,9.311H576.75z"/>
	</g>
	<g>
		<path fill="#00D096" d="M499.21,282.07c3.909,2.825,6.717,2.825,11.247,0c1.738,2.206,2.337,4.696,2.783,7.42
			c0.173,1.04,0.462,3.48,0.41,4.535c-0.12,2.493-0.644,2.573-1.3,3.023c-0.28,0.192-0.414,0.66-0.465,1.022
			c-0.424,2.979-1.013,5.953-1.16,8.95c-0.226,4.54-5.215,6.036-8.248,4.79c-2.074-0.852-3.34-2.293-3.58-4.64
			c-0.312-3.032-0.766-6.05-1.215-9.064c-0.066-0.45-0.04-1.097-0.68-1.282c0,0-1.242-0.508-1.242-2.672
			c-0.064-3.913,0.569-7.715,2.674-11.135C498.574,282.787,499.07,282.194,499.21,282.07L499.21,282.07z M511.38,276.03
			c-0.056,3.582-3.076,6.526-6.666,6.498c-3.623-0.03-6.558-3.074-6.517-6.768c0.04-3.598,3.03-6.494,6.666-6.46
			C508.535,269.337,511.44,272.335,511.38,276.03z"/>
	</g>
	<g>
		<path fill="#808080" d="M334.067,251.357c3.91,2.825,6.717,2.825,11.246,0c1.74,2.206,2.338,4.696,2.783,7.42
			c0.172,1.038,0.463,3.48,0.41,4.534c-0.12,2.494-0.644,2.574-1.301,3.024c-0.281,0.19-0.412,0.662-0.466,1.023
			c-0.422,2.98-1.01,5.953-1.16,8.948c-0.225,4.54-5.213,6.038-8.248,4.792c-2.073-0.852-3.338-2.294-3.579-4.64
			c-0.311-3.032-0.767-6.05-1.216-9.065c-0.065-0.45-0.04-1.097-0.68-1.282c0,0-1.24-0.508-1.24-2.67
			c-0.063-3.915,0.57-7.716,2.672-11.136C333.432,252.075,333.924,251.48,334.067,251.357L334.067,251.357z M346.237,245.316
			c-0.057,3.582-3.078,6.526-6.666,6.497c-3.626-0.027-6.554-3.072-6.515-6.766c0.04-3.598,3.03-6.495,6.666-6.46
			c3.674,0.035,6.576,3.033,6.517,6.73L346.237,245.316z"/>
	</g>
	<g>
		<path fill="#00ACD0" d="M584.99,341.755c5.413,3.908,9.298,3.908,15.567,0c2.408,3.052,3.234,6.5,3.854,10.267
			c0.237,1.44,0.641,4.82,0.57,6.278c-0.17,3.45-0.894,3.562-1.804,4.186c-0.391,0.265-0.574,0.914-0.646,1.413
			c-0.58,4.123-1.395,8.241-1.6,12.385c-0.313,6.285-7.22,8.357-11.42,6.634c-2.87-1.183-4.618-3.177-4.952-6.424
			c-0.432-4.196-1.06-8.374-1.682-12.547c-0.095-0.625-0.061-1.518-0.94-1.775c0,0-1.718-0.702-1.72-3.696
			c-0.086-5.418,0.79-10.678,3.696-15.41c0.2-0.325,0.884-1.145,1.078-1.315L584.99,341.755z M601.835,333.394
			c-0.076,4.958-4.259,9.033-9.226,8.993c-5.018-0.04-9.074-4.253-9.02-9.364c0.057-4.98,4.192-8.99,9.227-8.94
			C597.899,324.129,601.916,328.279,601.835,333.394L601.835,333.394z"/>
	</g>
	<g>
		<path fill="#00ACD0" d="M298.48,290.357c3.91,2.825,6.714,2.825,11.245,0c1.74,2.206,2.336,4.696,2.783,7.42
			c0.17,1.038,0.46,3.48,0.41,4.534c-0.12,2.494-0.646,2.574-1.301,3.024c-0.281,0.19-0.415,0.662-0.466,1.023
			c-0.422,2.98-1.01,5.953-1.16,8.948c-0.225,4.54-5.215,6.038-8.248,4.792c-2.073-0.852-3.338-2.294-3.58-4.64
			c-0.31-3.032-0.764-6.05-1.214-9.065c-0.07-0.45-0.042-1.097-0.681-1.282c0,0-1.24-0.508-1.243-2.67
			c-0.062-3.915,0.572-7.716,2.673-11.136c0.143-0.229,0.637-0.825,0.779-0.947L298.48,290.357z M310.65,284.316
			c-0.058,3.582-3.08,6.526-6.67,6.497c-3.622-0.027-6.554-3.072-6.515-6.766c0.04-3.598,3.029-6.495,6.666-6.46
			C307.805,277.622,310.706,280.62,310.65,284.316L310.65,284.316z"/>
	</g>
	<g>
		<path fill="#00ACD0" d="M445.444,256.357c3.91,2.825,6.717,2.825,11.246,0c1.742,2.206,2.336,4.696,2.785,7.42
			c0.17,1.038,0.46,3.48,0.41,4.534c-0.12,2.494-0.646,2.574-1.304,3.024c-0.279,0.19-0.411,0.662-0.465,1.023
			c-0.422,2.98-1.01,5.953-1.16,8.948c-0.225,4.54-5.213,6.038-8.245,4.792c-2.075-0.852-3.341-2.294-3.58-4.64
			c-0.311-3.032-0.766-6.05-1.217-9.065c-0.063-0.45-0.039-1.097-0.678-1.282c0,0-1.242-0.508-1.242-2.67
			c-0.062-3.915,0.57-7.716,2.672-11.136C444.811,257.075,445.305,256.48,445.444,256.357L445.444,256.357z M457.614,250.316
			c-0.055,3.582-3.078,6.526-6.668,6.497c-3.623-0.027-6.555-3.072-6.512-6.766c0.037-3.598,3.027-6.495,6.664-6.46
			C454.771,243.622,457.673,246.62,457.614,250.316L457.614,250.316z"/>
	</g>
	<g>
		<path fill="#80529B" d="M369.48,264.357c3.91,2.825,6.714,2.825,11.245,0c1.74,2.206,2.336,4.696,2.783,7.42
			c0.17,1.038,0.46,3.48,0.41,4.534c-0.12,2.494-0.646,2.574-1.301,3.024c-0.281,0.19-0.415,0.662-0.466,1.023
			c-0.422,2.98-1.01,5.953-1.16,8.948c-0.225,4.54-5.215,6.038-8.248,4.792c-2.073-0.852-3.338-2.294-3.58-4.64
			c-0.31-3.032-0.764-6.05-1.215-9.065c-0.069-0.45-0.042-1.097-0.68-1.282c0,0-1.24-0.508-1.243-2.67
			c-0.062-3.915,0.572-7.716,2.672-11.136c0.144-0.229,0.638-0.825,0.78-0.947L369.48,264.357z M381.65,258.316
			c-0.058,3.582-3.08,6.526-6.67,6.497c-3.622-0.027-6.554-3.072-6.515-6.766c0.04-3.598,3.029-6.495,6.666-6.46
			C378.805,251.622,381.706,254.62,381.65,258.316L381.65,258.316z"/>
	</g>
	<g opacity="0.1">
		<path fill="#FFFFFF" d="M273.76,325.956c4.91,3.547,8.435,3.547,14.126,0c2.186,2.77,2.934,5.898,3.496,9.317
			c0.215,1.306,0.58,4.374,0.516,5.697c-0.149,3.13-0.81,3.23-1.635,3.798c-0.354,0.24-0.52,0.83-0.584,1.283
			c-0.53,3.743-1.27,7.48-1.456,11.24c-0.283,5.704-6.55,7.585-10.36,6.02c-2.605-1.07-4.193-2.88-4.496-5.828
			c-0.391-3.808-0.961-7.6-1.525-11.386c-0.084-0.566-0.053-1.377-0.855-1.61c0,0-1.557-0.638-1.56-3.354
			c-0.08-4.916,0.72-9.69,3.355-13.985c0.181-0.293,0.799-1.037,0.979-1.19V325.956z M289.046,318.368
			c-0.07,4.5-3.865,8.197-8.373,8.16c-4.553-0.035-8.234-3.86-8.185-8.497c0.049-4.518,3.803-8.157,8.372-8.113
			C285.471,309.961,289.119,313.728,289.046,318.368L289.046,318.368z"/>
	</g>
	<g opacity="0.1">
		<path fill="#FFFFFF" d="M314.99,396.755c5.413,3.908,9.298,3.908,15.567,0c2.408,3.053,3.233,6.5,3.854,10.268
			c0.237,1.439,0.641,4.819,0.57,6.277c-0.17,3.45-0.894,3.562-1.804,4.186c-0.391,0.266-0.574,0.914-0.646,1.414
			c-0.58,4.122-1.395,8.239-1.6,12.385c-0.313,6.285-7.22,8.356-11.42,6.634c-2.87-1.182-4.618-3.177-4.952-6.424
			c-0.432-4.196-1.06-8.374-1.682-12.548c-0.095-0.625-0.061-1.518-0.94-1.774c0,0-1.718-0.702-1.72-3.696
			c-0.086-5.418,0.79-10.678,3.696-15.41c0.2-0.324,0.884-1.145,1.078-1.314L314.99,396.755z M331.835,388.394
			c-0.076,4.959-4.259,9.033-9.226,8.994c-5.018-0.041-9.074-4.254-9.02-9.365c0.057-4.979,4.192-8.989,9.227-8.939
			C327.899,379.129,331.916,383.278,331.835,388.394L331.835,388.394z"/>
	</g>
	<g opacity="0.1">
		<path fill="#FFFFFF" d="M320.789,322.956c4.91,3.547,8.437,3.547,14.125,0c2.187,2.77,2.935,5.898,3.496,9.317
			c0.217,1.306,0.58,4.374,0.518,5.697c-0.152,3.13-0.811,3.23-1.635,3.798c-0.353,0.24-0.521,0.83-0.584,1.283
			c-0.53,3.743-1.271,7.48-1.455,11.24c-0.283,5.704-6.551,7.585-10.36,6.02c-2.606-1.07-4.194-2.88-4.497-5.828
			c-0.393-3.808-0.96-7.6-1.525-11.386c-0.085-0.566-0.052-1.377-0.853-1.61c0,0-1.56-0.638-1.56-3.354
			c-0.08-4.916,0.716-9.69,3.354-13.985c0.18-0.293,0.8-1.037,0.98-1.19L320.789,322.956z M336.074,315.368
			c-0.069,4.5-3.864,8.197-8.373,8.16c-4.553-0.035-8.233-3.86-8.184-8.497c0.05-4.518,3.805-8.157,8.373-8.113
			C332.504,306.961,336.148,310.728,336.074,315.368L336.074,315.368z"/>
	</g>
	<g opacity="0.1">
		<path fill="#FFFFFF" d="M559.905,391.755c5.412,3.908,9.295,3.908,15.564,0c2.407,3.053,3.229,6.5,3.853,10.268
			c0.236,1.439,0.641,4.819,0.568,6.277c-0.167,3.45-0.89,3.562-1.8,4.186c-0.391,0.266-0.574,0.914-0.646,1.414
			c-0.584,4.123-1.399,8.239-1.604,12.385c-0.311,6.285-7.217,8.356-11.412,6.634c-2.873-1.182-4.623-3.177-4.957-6.424
			c-0.43-4.196-1.058-8.374-1.68-12.548c-0.096-0.625-0.061-1.518-0.94-1.774c0,0-1.72-0.702-1.72-3.696
			c-0.087-5.418,0.79-10.678,3.7-15.41c0.195-0.324,0.88-1.145,1.074-1.314L559.905,391.755z M576.75,383.394
			c-0.08,4.959-4.261,9.033-9.23,8.994c-5.014-0.041-9.072-4.254-9.016-9.365c0.055-4.979,4.192-8.989,9.225-8.939
			c5.082,0.046,9.1,4.195,9.02,9.311H576.75z"/>
	</g>
	<g opacity="0.1">
		<path fill="#FFFFFF" d="M499.21,282.07c3.909,2.825,6.717,2.825,11.247,0c1.738,2.206,2.337,4.696,2.783,7.42
			c0.173,1.04,0.462,3.48,0.41,4.535c-0.12,2.493-0.644,2.573-1.3,3.023c-0.28,0.192-0.414,0.66-0.465,1.022
			c-0.424,2.979-1.013,5.953-1.16,8.95c-0.226,4.54-5.215,6.036-8.248,4.79c-2.074-0.852-3.34-2.293-3.58-4.64
			c-0.312-3.032-0.766-6.05-1.215-9.064c-0.066-0.45-0.04-1.097-0.68-1.282c0,0-1.242-0.508-1.242-2.672
			c-0.064-3.913,0.569-7.715,2.674-11.135C498.574,282.787,499.07,282.194,499.21,282.07L499.21,282.07z M511.38,276.03
			c-0.056,3.582-3.076,6.526-6.666,6.498c-3.623-0.03-6.558-3.074-6.517-6.768c0.04-3.598,3.03-6.494,6.666-6.46
			C508.535,269.337,511.44,272.335,511.38,276.03z"/>
	</g>
	<g opacity="0.1">
		<path fill="#FFFFFF" d="M334.067,251.357c3.91,2.825,6.717,2.825,11.246,0c1.74,2.206,2.338,4.696,2.783,7.42
			c0.172,1.038,0.463,3.48,0.41,4.534c-0.12,2.494-0.644,2.574-1.301,3.024c-0.281,0.19-0.412,0.662-0.466,1.023
			c-0.422,2.98-1.01,5.953-1.16,8.948c-0.225,4.54-5.213,6.038-8.248,4.792c-2.073-0.852-3.338-2.294-3.579-4.64
			c-0.311-3.032-0.767-6.05-1.216-9.065c-0.065-0.45-0.04-1.097-0.68-1.282c0,0-1.24-0.508-1.24-2.67
			c-0.063-3.915,0.57-7.716,2.672-11.136C333.432,252.075,333.924,251.48,334.067,251.357L334.067,251.357z M346.237,245.316
			c-0.057,3.582-3.078,6.526-6.666,6.497c-3.626-0.027-6.554-3.072-6.515-6.766c0.04-3.598,3.03-6.495,6.666-6.46
			c3.674,0.035,6.576,3.033,6.517,6.73L346.237,245.316z"/>
	</g>
	<g opacity="0.1">
		<path fill="#FFFFFF" d="M584.99,341.755c5.413,3.908,9.298,3.908,15.567,0c2.408,3.052,3.234,6.5,3.854,10.267
			c0.237,1.44,0.641,4.82,0.57,6.278c-0.17,3.45-0.894,3.562-1.804,4.186c-0.391,0.265-0.574,0.914-0.646,1.413
			c-0.58,4.123-1.395,8.241-1.6,12.385c-0.313,6.285-7.22,8.357-11.42,6.634c-2.87-1.183-4.618-3.177-4.952-6.424
			c-0.432-4.196-1.06-8.374-1.682-12.547c-0.095-0.625-0.061-1.518-0.94-1.775c0,0-1.718-0.702-1.72-3.696
			c-0.086-5.418,0.79-10.678,3.696-15.41c0.2-0.325,0.884-1.145,1.078-1.315L584.99,341.755z M601.835,333.394
			c-0.076,4.958-4.259,9.033-9.226,8.993c-5.018-0.04-9.074-4.253-9.02-9.364c0.057-4.98,4.192-8.99,9.227-8.94
			C597.899,324.129,601.916,328.279,601.835,333.394L601.835,333.394z"/>
	</g>
	<g opacity="0.1">
		<path fill="#FFFFFF" d="M298.48,290.357c3.91,2.825,6.714,2.825,11.245,0c1.74,2.206,2.336,4.696,2.783,7.42
			c0.17,1.038,0.46,3.48,0.41,4.534c-0.12,2.494-0.646,2.574-1.301,3.024c-0.281,0.19-0.415,0.662-0.466,1.023
			c-0.422,2.98-1.01,5.953-1.16,8.948c-0.225,4.54-5.215,6.038-8.248,4.792c-2.073-0.852-3.338-2.294-3.58-4.64
			c-0.31-3.032-0.764-6.05-1.214-9.065c-0.07-0.45-0.042-1.097-0.681-1.282c0,0-1.24-0.508-1.243-2.67
			c-0.062-3.915,0.572-7.716,2.673-11.136c0.143-0.229,0.637-0.825,0.779-0.947L298.48,290.357z M310.65,284.316
			c-0.058,3.582-3.08,6.526-6.67,6.497c-3.622-0.027-6.554-3.072-6.515-6.766c0.04-3.598,3.029-6.495,6.666-6.46
			C307.805,277.622,310.706,280.62,310.65,284.316L310.65,284.316z"/>
	</g>
	<g opacity="0.1">
		<path fill="#FFFFFF" d="M445.444,256.357c3.91,2.825,6.717,2.825,11.246,0c1.742,2.206,2.336,4.696,2.785,7.42
			c0.17,1.038,0.46,3.48,0.41,4.534c-0.12,2.494-0.646,2.574-1.304,3.024c-0.279,0.19-0.411,0.662-0.465,1.023
			c-0.422,2.98-1.01,5.953-1.16,8.948c-0.225,4.54-5.213,6.038-8.245,4.792c-2.075-0.852-3.341-2.294-3.58-4.64
			c-0.311-3.032-0.766-6.05-1.217-9.065c-0.063-0.45-0.039-1.097-0.678-1.282c0,0-1.242-0.508-1.242-2.67
			c-0.062-3.915,0.57-7.716,2.672-11.136C444.811,257.075,445.305,256.48,445.444,256.357L445.444,256.357z M457.614,250.316
			c-0.055,3.582-3.078,6.526-6.668,6.497c-3.623-0.027-6.555-3.072-6.512-6.766c0.037-3.598,3.027-6.495,6.664-6.46
			C454.771,243.622,457.673,246.62,457.614,250.316L457.614,250.316z"/>
	</g>
	<g opacity="0.4">
		<path fill="#FFFFFF" d="M355.642,416.755c5.41,3.908,9.295,3.908,15.563,0c2.408,3.053,3.232,6.5,3.853,10.268
			c0.238,1.439,0.64,4.819,0.567,6.277c-0.165,3.45-0.89,3.562-1.8,4.187c-0.39,0.265-0.575,0.914-0.644,1.413
			c-0.586,4.122-1.398,8.239-1.604,12.385c-0.312,6.285-7.22,8.356-11.416,6.634c-2.873-1.182-4.62-3.177-4.957-6.424
			c-0.432-4.196-1.057-8.374-1.68-12.547c-0.094-0.625-0.06-1.519-0.939-1.775c0,0-1.721-0.702-1.721-3.696
			c-0.088-5.418,0.79-10.678,3.7-15.41c0.198-0.324,0.877-1.145,1.077-1.314V416.755z M372.483,408.394
			c-0.076,4.959-4.258,9.033-9.225,8.994c-5.019-0.041-9.074-4.254-9.021-9.365c0.058-4.979,4.193-8.989,9.228-8.939
			C368.548,399.129,372.565,403.278,372.483,408.394L372.483,408.394z"/>
	</g>
	<g opacity="0.4">
		<path fill="#FFFFFF" d="M273.76,325.956c4.91,3.547,8.435,3.547,14.126,0c2.186,2.77,2.934,5.898,3.496,9.317
			c0.215,1.306,0.58,4.374,0.516,5.697c-0.149,3.13-0.81,3.23-1.635,3.798c-0.354,0.24-0.52,0.83-0.584,1.283
			c-0.53,3.743-1.27,7.48-1.456,11.24c-0.283,5.704-6.55,7.585-10.36,6.02c-2.605-1.07-4.193-2.88-4.496-5.828
			c-0.391-3.808-0.961-7.6-1.525-11.386c-0.084-0.566-0.053-1.377-0.855-1.61c0,0-1.557-0.638-1.56-3.354
			c-0.08-4.916,0.72-9.69,3.355-13.985c0.181-0.293,0.799-1.037,0.979-1.19V325.956z M289.046,318.368
			c-0.07,4.5-3.865,8.197-8.373,8.16c-4.553-0.035-8.234-3.86-8.185-8.497c0.049-4.518,3.803-8.157,8.372-8.113
			C285.471,309.961,289.119,313.728,289.046,318.368L289.046,318.368z"/>
	</g>
	<g opacity="0.4">
		<path fill="#FFFFFF" d="M314.99,396.755c5.413,3.908,9.298,3.908,15.567,0c2.408,3.053,3.233,6.5,3.854,10.268
			c0.237,1.439,0.641,4.819,0.57,6.277c-0.17,3.45-0.894,3.562-1.804,4.186c-0.391,0.266-0.574,0.914-0.646,1.414
			c-0.58,4.122-1.395,8.239-1.6,12.385c-0.313,6.285-7.22,8.356-11.42,6.634c-2.87-1.182-4.618-3.177-4.952-6.424
			c-0.432-4.196-1.06-8.374-1.682-12.548c-0.095-0.625-0.061-1.518-0.94-1.774c0,0-1.718-0.702-1.72-3.696
			c-0.086-5.418,0.79-10.678,3.696-15.41c0.2-0.324,0.884-1.145,1.078-1.314L314.99,396.755z M331.835,388.394
			c-0.076,4.959-4.259,9.033-9.226,8.994c-5.018-0.041-9.074-4.254-9.02-9.365c0.057-4.979,4.192-8.989,9.227-8.939
			C327.899,379.129,331.916,383.278,331.835,388.394L331.835,388.394z"/>
	</g>
	<g opacity="0.4">
		<path fill="#FFFFFF" d="M320.789,322.956c4.91,3.547,8.437,3.547,14.125,0c2.187,2.77,2.935,5.898,3.496,9.317
			c0.217,1.306,0.58,4.374,0.518,5.697c-0.152,3.13-0.811,3.23-1.635,3.798c-0.353,0.24-0.521,0.83-0.584,1.283
			c-0.53,3.743-1.271,7.48-1.455,11.24c-0.283,5.704-6.551,7.585-10.36,6.02c-2.606-1.07-4.194-2.88-4.497-5.828
			c-0.393-3.808-0.96-7.6-1.525-11.386c-0.085-0.566-0.052-1.377-0.853-1.61c0,0-1.56-0.638-1.56-3.354
			c-0.08-4.916,0.716-9.69,3.354-13.985c0.18-0.293,0.8-1.037,0.98-1.19L320.789,322.956z M336.074,315.368
			c-0.069,4.5-3.864,8.197-8.373,8.16c-4.553-0.035-8.233-3.86-8.184-8.497c0.05-4.518,3.805-8.157,8.373-8.113
			C332.504,306.961,336.148,310.728,336.074,315.368L336.074,315.368z"/>
	</g>
	<g opacity="0.4">
		<path fill="#FFFFFF" d="M559.905,391.755c5.412,3.908,9.295,3.908,15.564,0c2.407,3.053,3.229,6.5,3.853,10.268
			c0.236,1.439,0.641,4.819,0.568,6.277c-0.167,3.45-0.89,3.562-1.8,4.186c-0.391,0.266-0.574,0.914-0.646,1.414
			c-0.584,4.123-1.399,8.239-1.604,12.385c-0.311,6.285-7.217,8.356-11.412,6.634c-2.873-1.182-4.623-3.177-4.957-6.424
			c-0.43-4.196-1.058-8.374-1.68-12.548c-0.096-0.625-0.061-1.518-0.94-1.774c0,0-1.72-0.702-1.72-3.696
			c-0.087-5.418,0.79-10.678,3.7-15.41c0.195-0.324,0.88-1.145,1.074-1.314L559.905,391.755z M576.75,383.394
			c-0.08,4.959-4.261,9.033-9.23,8.994c-5.014-0.041-9.072-4.254-9.016-9.365c0.055-4.979,4.192-8.989,9.225-8.939
			c5.082,0.046,9.1,4.195,9.02,9.311H576.75z"/>
	</g>
	<g opacity="0.4">
		<path fill="#FFFFFF" d="M499.21,282.07c3.909,2.825,6.717,2.825,11.247,0c1.738,2.206,2.337,4.696,2.783,7.42
			c0.173,1.04,0.462,3.48,0.41,4.535c-0.12,2.493-0.644,2.573-1.3,3.023c-0.28,0.192-0.414,0.66-0.465,1.022
			c-0.424,2.979-1.013,5.953-1.16,8.95c-0.226,4.54-5.215,6.036-8.248,4.79c-2.074-0.852-3.34-2.293-3.58-4.64
			c-0.312-3.032-0.766-6.05-1.215-9.064c-0.066-0.45-0.04-1.097-0.68-1.282c0,0-1.242-0.508-1.242-2.672
			c-0.064-3.913,0.569-7.715,2.674-11.135C498.574,282.787,499.07,282.194,499.21,282.07L499.21,282.07z M511.38,276.03
			c-0.056,3.582-3.076,6.526-6.666,6.498c-3.623-0.03-6.558-3.074-6.517-6.768c0.04-3.598,3.03-6.494,6.666-6.46
			C508.535,269.337,511.44,272.335,511.38,276.03z"/>
	</g>
	<g opacity="0.4">
		<path fill="#FFFFFF" d="M584.99,341.755c5.413,3.908,9.298,3.908,15.567,0c2.408,3.052,3.234,6.5,3.854,10.267
			c0.237,1.44,0.641,4.82,0.57,6.278c-0.17,3.45-0.894,3.562-1.804,4.186c-0.391,0.265-0.574,0.914-0.646,1.413
			c-0.58,4.123-1.395,8.241-1.6,12.385c-0.313,6.285-7.22,8.357-11.42,6.634c-2.87-1.183-4.618-3.177-4.952-6.424
			c-0.432-4.196-1.06-8.374-1.682-12.547c-0.095-0.625-0.061-1.518-0.94-1.775c0,0-1.718-0.702-1.72-3.696
			c-0.086-5.418,0.79-10.678,3.696-15.41c0.2-0.325,0.884-1.145,1.078-1.315L584.99,341.755z M601.835,333.394
			c-0.076,4.958-4.259,9.033-9.226,8.993c-5.018-0.04-9.074-4.253-9.02-9.364c0.057-4.98,4.192-8.99,9.227-8.94
			C597.899,324.129,601.916,328.279,601.835,333.394L601.835,333.394z"/>
	</g>
	<g opacity="0.4">
		<path fill="#FFFFFF" d="M298.48,290.357c3.91,2.825,6.714,2.825,11.245,0c1.74,2.206,2.336,4.696,2.783,7.42
			c0.17,1.038,0.46,3.48,0.41,4.534c-0.12,2.494-0.646,2.574-1.301,3.024c-0.281,0.19-0.415,0.662-0.466,1.023
			c-0.422,2.98-1.01,5.953-1.16,8.948c-0.225,4.54-5.215,6.038-8.248,4.792c-2.073-0.852-3.338-2.294-3.58-4.64
			c-0.31-3.032-0.764-6.05-1.214-9.065c-0.07-0.45-0.042-1.097-0.681-1.282c0,0-1.24-0.508-1.243-2.67
			c-0.062-3.915,0.572-7.716,2.673-11.136c0.143-0.229,0.637-0.825,0.779-0.947L298.48,290.357z M310.65,284.316
			c-0.058,3.582-3.08,6.526-6.67,6.497c-3.622-0.027-6.554-3.072-6.515-6.766c0.04-3.598,3.029-6.495,6.666-6.46
			C307.805,277.622,310.706,280.62,310.65,284.316L310.65,284.316z"/>
	</g>
	<g opacity="0.4">
		<path fill="#FFFFFF" d="M445.444,256.357c3.91,2.825,6.717,2.825,11.246,0c1.742,2.206,2.336,4.696,2.785,7.42
			c0.17,1.038,0.46,3.48,0.41,4.534c-0.12,2.494-0.646,2.574-1.304,3.024c-0.279,0.19-0.411,0.662-0.465,1.023
			c-0.422,2.98-1.01,5.953-1.16,8.948c-0.225,4.54-5.213,6.038-8.245,4.792c-2.075-0.852-3.341-2.294-3.58-4.64
			c-0.311-3.032-0.766-6.05-1.217-9.065c-0.063-0.45-0.039-1.097-0.678-1.282c0,0-1.242-0.508-1.242-2.67
			c-0.062-3.915,0.57-7.716,2.672-11.136C444.811,257.075,445.305,256.48,445.444,256.357L445.444,256.357z M457.614,250.316
			c-0.055,3.582-3.078,6.526-6.668,6.497c-3.623-0.027-6.555-3.072-6.512-6.766c0.037-3.598,3.027-6.495,6.664-6.46
			C454.771,243.622,457.673,246.62,457.614,250.316L457.614,250.316z"/>
	</g>
	<g opacity="0.4">
		<path fill="#FFFFFF" d="M369.48,264.357c3.91,2.825,6.714,2.825,11.245,0c1.74,2.206,2.336,4.696,2.783,7.42
			c0.17,1.038,0.46,3.48,0.41,4.534c-0.12,2.494-0.646,2.574-1.301,3.024c-0.281,0.19-0.415,0.662-0.466,1.023
			c-0.422,2.98-1.01,5.953-1.16,8.948c-0.225,4.54-5.215,6.038-8.248,4.792c-2.073-0.852-3.338-2.294-3.58-4.64
			c-0.31-3.032-0.764-6.05-1.215-9.065c-0.069-0.45-0.042-1.097-0.68-1.282c0,0-1.24-0.508-1.243-2.67
			c-0.062-3.915,0.572-7.716,2.672-11.136c0.144-0.229,0.638-0.825,0.78-0.947L369.48,264.357z M381.65,258.316
			c-0.058,3.582-3.08,6.526-6.67,6.497c-3.622-0.027-6.554-3.072-6.515-6.766c0.04-3.598,3.029-6.495,6.666-6.46
			C378.805,251.622,381.706,254.62,381.65,258.316L381.65,258.316z"/>
	</g>
	<ellipse fill="#EAEAEA" cx="468.114" cy="337.209" rx="11.916" ry="3.968"/>
	<g>
		<path fill="#E95A78" d="M461.155,299.956c4.91,3.547,8.437,3.547,14.125,0c2.187,2.77,2.937,5.898,3.496,9.317
			c0.215,1.306,0.58,4.374,0.516,5.697c-0.149,3.13-0.81,3.23-1.635,3.798c-0.352,0.24-0.52,0.83-0.584,1.283
			c-0.529,3.743-1.27,7.48-1.455,11.24c-0.282,5.704-6.55,7.585-10.359,6.02c-2.606-1.07-4.194-2.88-4.497-5.828
			c-0.391-3.808-0.96-7.6-1.524-11.386c-0.086-0.566-0.053-1.377-0.854-1.61c0,0-1.561-0.638-1.561-3.354
			c-0.08-4.916,0.716-9.69,3.354-13.985c0.18-0.293,0.802-1.037,0.979-1.19L461.155,299.956z M476.44,292.368
			c-0.07,4.5-3.865,8.197-8.373,8.16c-4.553-0.035-8.234-3.86-8.184-8.497c0.05-4.518,3.805-8.157,8.37-8.113
			C472.867,283.961,476.513,287.728,476.44,292.368L476.44,292.368z"/>
	</g>
	<ellipse fill="#EAEAEA" cx="384.711" cy="396.209" rx="11.917" ry="3.968"/>
	<g>
		<path fill="#030606" d="M377.75,358.956c4.912,3.547,8.439,3.547,14.128,0c2.186,2.77,2.934,5.898,3.495,9.317
			c0.216,1.306,0.578,4.375,0.517,5.697c-0.152,3.131-0.811,3.23-1.635,3.799c-0.354,0.239-0.521,0.83-0.584,1.282
			c-0.528,3.743-1.271,7.479-1.456,11.24c-0.28,5.704-6.551,7.585-10.357,6.021c-2.607-1.07-4.195-2.881-4.498-5.828
			c-0.392-3.809-0.962-7.601-1.528-11.387c-0.084-0.566-0.05-1.377-0.852-1.609c0,0-1.56-0.639-1.56-3.354
			c-0.08-4.916,0.716-9.69,3.355-13.985c0.178-0.293,0.797-1.037,0.975-1.19V358.956z M393.037,351.368
			c-0.071,4.5-3.866,8.197-8.375,8.16c-4.55-0.035-8.233-3.86-8.182-8.497c0.05-4.518,3.806-8.157,8.372-8.113
			C389.467,342.961,393.111,346.728,393.037,351.368L393.037,351.368z"/>
	</g>
	<path fill="none" stroke="#000000" stroke-miterlimit="10" d="M661.808,218.677L454.594,373.11"/>
	<path d="M454.633,368.462l0.952,3.91l3.474,2.027l-9.252,2.277L454.633,368.462z"/>
	<ellipse fill="#EAEAEA" cx="405.97" cy="339.593" rx="11.916" ry="3.968"/>
	<g>
		<path fill="#00D096" d="M399.01,302.34c4.91,3.548,8.437,3.548,14.128,0c2.184,2.77,2.934,5.898,3.494,9.317
			c0.215,1.307,0.58,4.375,0.516,5.697c-0.152,3.13-0.81,3.232-1.635,3.798c-0.353,0.24-0.519,0.83-0.584,1.284
			c-0.532,3.742-1.271,7.478-1.456,11.24c-0.283,5.702-6.55,7.583-10.36,6.02c-2.605-1.072-4.193-2.883-4.497-5.83
			c-0.39-3.807-0.96-7.598-1.524-11.385c-0.084-0.565-0.054-1.376-0.854-1.61c0,0-1.56-0.637-1.56-3.354
			c-0.08-4.916,0.716-9.69,3.355-13.986C398.211,303.241,398.829,302.495,399.01,302.34L399.01,302.34z M414.296,294.753
			c-0.07,4.498-3.865,8.197-8.373,8.16c-4.554-0.035-8.234-3.86-8.185-8.498c0.048-4.52,3.805-8.158,8.372-8.113
			C410.723,286.345,414.368,290.11,414.296,294.753L414.296,294.753z"/>
	</g>
	<path fill="none" stroke="#030606" stroke-miterlimit="10" d="M631.789,389.133l38.019,28.544"/>
	<path fill="none" stroke="#030606" stroke-miterlimit="10" d="M680.14,304.61l22.668,18.786"/>
	<ellipse fill="#EAEAEA" cx="517.276" cy="378.209" rx="11.916" ry="3.968"/>
	<g>
		<path fill="#80529B" d="M510.32,340.956c4.91,3.547,8.434,3.547,14.124,0c2.187,2.77,2.935,5.898,3.494,9.317
			c0.217,1.306,0.58,4.374,0.516,5.697c-0.149,3.13-0.807,3.23-1.633,3.798c-0.353,0.24-0.52,0.83-0.583,1.283
			c-0.53,3.743-1.27,7.48-1.457,11.24c-0.282,5.704-6.55,7.585-10.359,6.021c-2.606-1.07-4.192-2.881-4.497-5.828
			c-0.391-3.809-0.96-7.601-1.525-11.386c-0.084-0.566-0.05-1.377-0.854-1.61c0,0-1.561-0.638-1.561-3.354
			c-0.08-4.916,0.718-9.69,3.356-13.985c0.18-0.293,0.8-1.037,0.979-1.19L510.32,340.956z M525.604,333.368
			c-0.072,4.5-3.867,8.197-8.375,8.16c-4.554-0.035-8.233-3.86-8.183-8.497c0.05-4.518,3.803-8.157,8.37-8.113
			C522.029,324.961,525.676,328.728,525.604,333.368L525.604,333.368z"/>
	</g>
	<g>
		<path fill="#00D096" d="M614.49,367.255c5.413,3.908,9.298,3.908,15.567,0c2.408,3.052,3.234,6.5,3.854,10.268
			c0.237,1.439,0.641,4.819,0.57,6.277c-0.17,3.45-0.894,3.562-1.804,4.186c-0.391,0.266-0.574,0.914-0.646,1.414
			c-0.58,4.123-1.395,8.24-1.6,12.385c-0.313,6.285-7.22,8.357-11.42,6.634c-2.87-1.183-4.618-3.177-4.952-6.424
			c-0.432-4.196-1.06-8.374-1.682-12.548c-0.095-0.625-0.061-1.518-0.94-1.774c0,0-1.718-0.702-1.72-3.696
			c-0.086-5.418,0.79-10.678,3.696-15.41c0.2-0.325,0.884-1.145,1.078-1.315L614.49,367.255z M631.335,358.894
			c-0.076,4.958-4.259,9.033-9.226,8.993c-5.018-0.04-9.074-4.253-9.02-9.364c0.057-4.98,4.192-8.99,9.227-8.94
			C627.399,349.629,631.416,353.779,631.335,358.894L631.335,358.894z"/>
	</g>
	<g opacity="0.1">
		<path fill="#FFFFFF" d="M614.49,367.255c5.413,3.908,9.298,3.908,15.567,0c2.408,3.052,3.234,6.5,3.854,10.268
			c0.237,1.439,0.641,4.819,0.57,6.277c-0.17,3.45-0.894,3.562-1.804,4.186c-0.391,0.266-0.574,0.914-0.646,1.414
			c-0.58,4.123-1.395,8.24-1.6,12.385c-0.313,6.285-7.22,8.357-11.42,6.634c-2.87-1.183-4.618-3.177-4.952-6.424
			c-0.432-4.196-1.06-8.374-1.682-12.548c-0.095-0.625-0.061-1.518-0.94-1.774c0,0-1.718-0.702-1.72-3.696
			c-0.086-5.418,0.79-10.678,3.696-15.41c0.2-0.325,0.884-1.145,1.078-1.315L614.49,367.255z M631.335,358.894
			c-0.076,4.958-4.259,9.033-9.226,8.993c-5.018-0.04-9.074-4.253-9.02-9.364c0.057-4.98,4.192-8.99,9.227-8.94
			C627.399,349.629,631.416,353.779,631.335,358.894L631.335,358.894z"/>
	</g>
	<g opacity="0.4">
		<path fill="#FFFFFF" d="M614.49,367.255c5.413,3.908,9.298,3.908,15.567,0c2.408,3.052,3.234,6.5,3.854,10.268
			c0.237,1.439,0.641,4.819,0.57,6.277c-0.17,3.45-0.894,3.562-1.804,4.186c-0.391,0.266-0.574,0.914-0.646,1.414
			c-0.58,4.123-1.395,8.24-1.6,12.385c-0.313,6.285-7.22,8.357-11.42,6.634c-2.87-1.183-4.618-3.177-4.952-6.424
			c-0.432-4.196-1.06-8.374-1.682-12.548c-0.095-0.625-0.061-1.518-0.94-1.774c0,0-1.718-0.702-1.72-3.696
			c-0.086-5.418,0.79-10.678,3.696-15.41c0.2-0.325,0.884-1.145,1.078-1.315L614.49,367.255z M631.335,358.894
			c-0.076,4.958-4.259,9.033-9.226,8.993c-5.018-0.04-9.074-4.253-9.02-9.364c0.057-4.98,4.192-8.99,9.227-8.94
			C627.399,349.629,631.416,353.779,631.335,358.894L631.335,358.894z"/>
	</g>
</g>
</svg>
