<?xml version="1.0" encoding="utf-8"?>
<!-- Generator: Adobe Illustrator 16.0.0, SVG Export Plug-In . SVG Version: 6.00 Build 0)  -->
<!DOCTYPE svg PUBLIC "-//W3C//DTD SVG 1.1//EN" "http://www.w3.org/Graphics/SVG/1.1/DTD/svg11.dtd">
<svg version="1.1" id="Layer_1" xmlns="http://www.w3.org/2000/svg" xmlns:xlink="http://www.w3.org/1999/xlink" x="0px" y="0px"
	 width="113.328px" height="108.52px" viewBox="0 0 113.328 108.52" enable-background="new 0 0 113.328 108.52"
	 xml:space="preserve">
<circle fill="#46BB90" cx="71.844" cy="100.975" r="7.545"/>
<circle fill="#E85B79" cx="41.487" cy="100.975" r="7.545"/>
<circle fill="#FAA819" cx="16.927" cy="83.131" r="7.545"/>
<path fill="#81539B" d="M9.876,61.434c-3.96,1.291-8.22-0.879-9.505-4.844c-1.287-3.962,0.883-8.22,4.842-9.507
	c3.966-1.29,8.226,0.883,9.513,4.843C16.011,55.889,13.841,60.145,9.876,61.434L9.876,61.434z"/>
<path fill="#46BB90" d="M14.597,32.561c-3.961-1.286-6.134-5.544-4.845-9.506c1.287-3.962,5.545-6.13,9.506-4.843
	c3.966,1.286,6.136,5.547,4.849,9.51C22.816,31.682,18.562,33.852,14.597,32.561L14.597,32.561z"/>
<circle fill="#E85B79" cx="41.487" cy="7.544" r="7.544"/>
<circle fill="#FAA819" cx="71.845" cy="7.545" r="7.544"/>
<circle fill="#02ACD0" cx="96.405" cy="25.388" r="7.544"/>
<circle fill="#504F4F" cx="105.784" cy="54.259" r="7.544"/>
<circle fill="#81539B" cx="96.404" cy="83.131" r="7.544"/>
<circle fill="#46BB90" cx="71.844" cy="100.975" r="7.545"/>
<circle fill="#E85B79" cx="41.487" cy="100.975" r="7.545"/>
<g>
	<path fill="#B0B0B0" d="M59.25,38.577c2.28,3.72,4.094,7.764,3.553,12.44c-0.143,1.24-0.784,2.506-1.473,3.583
		c-1.396,2.183-2.981,4.243-4.504,6.377c-3.256-1.875-5.22-6.741-3.785-10.696c0.863-2.375,2.377-4.514,3.588-6.764
		C57.485,41.923,58.325,40.32,59.25,38.577L59.25,38.577z M63.672,46.049c3,2.584,4.23,8.643,2.429,11.391
		c-0.724,1.104-2.021,1.943-3.226,2.584c-1.069,0.567-2.376,0.69-3.89,1.097c0.215-0.894,0.285-1.585,0.55-2.19
		c0.282-0.64,0.69-1.254,1.15-1.783c2.67-3.069,4.409-6.41,2.985-11.1L63.672,46.049z M54.899,60.98
		c-3.068,0.017-5.115-1.502-5.891-4.125c-0.68-2.311,0.341-5.104,2.61-6.749c-0.476,4.152-0.834,8.186,3.28,10.875V60.98z
		 M59.174,62.881c2.103-0.508,4.19-1.094,6.318-1.453c0.434-0.072,1.01,0.717,1.521,1.11c-0.358,0.382-0.646,0.91-1.086,1.12
		c-2.273,1.076-4.507,0.73-6.683-0.28C59.223,63.213,59.199,63.048,59.174,62.881L59.174,62.881z M50.701,66.406
		c0.002,0.05-0.01,0.098-0.016,0.146c-0.351,0.12-0.688,0.265-1.016,0.425c-0.37,0.117-0.71,0.293-1.012,0.521
		c-0.197,0.106-0.396,0.213-0.598,0.315c-0.28,0.144-0.328,0.401-0.248,0.627c-0.045,0.144-0.051,0.295,0.043,0.44
		c0.08,0.126,0.189,0.224,0.293,0.327c0.035,0.393,0.307,0.811,0.924,1.23c0.11,0.076,0.229,0.129,0.346,0.199
		c0.177-0.048,0.328-0.142,0.455-0.27c0.228-0.07,0.437-0.16,0.625-0.27c0.967-0.258,1.992-0.898,2.758-1.443
		c0.055-0.036,0.091-0.08,0.124-0.129c0.756-0.409,0.898-0.432,1.826-0.937C53.179,66.816,52.332,65.229,50.701,66.406
		L50.701,66.406z M66.459,68.701c0.811-0.84,1.265-1.79,0.584-2.615c-0.004-0.005-0.004-0.01-0.01-0.016
		c-0.57-0.137-1.146-0.264-1.73-0.295c-0.104,0.002-0.225-0.01-0.369-0.047c-0.268-0.068-0.431-0.246-0.516-0.455
		c-2.326-0.614-4.684-1.287-7.076-1.797c-2.184-0.467-4.416-0.696-6.63-1.018c-1.16-0.168-1.343,0.7-1.5,1.518
		c-0.197,1.032,0.526,1.104,1.28,1.223c1.344,0.213,2.688,0.455,4.01,0.77c3.03,0.721,6.04,1.477,8.994,2.207
		c0.827,0.545,2.032,0.854,2.963,0.522V68.701z"/>
</g>
</svg>
