<?xml version="1.0" encoding="utf-8"?>
<!-- Generator: Adobe Illustrator 16.0.0, SVG Export Plug-In . SVG Version: 6.00 Build 0)  -->
<!DOCTYPE svg PUBLIC "-//W3C//DTD SVG 1.1//EN" "http://www.w3.org/Graphics/SVG/1.1/DTD/svg11.dtd">
<svg version="1.1" id="Layer_1" xmlns="http://www.w3.org/2000/svg" xmlns:xlink="http://www.w3.org/1999/xlink" x="0px" y="0px"
	 width="475.901px" height="167.479px" viewBox="0 0 475.901 167.479" enable-background="new 0 0 475.901 167.479"
	 xml:space="preserve">
<g>
	<path fill="#969696" d="M467.201,76.64V71.28h0.516l2.38,2.277c0.663,0.641,1.171,1.091,1.522,1.349s0.688,0.446,1.008,0.567
		s0.656,0.183,1.008,0.183c0.513,0,0.929-0.168,1.248-0.504c0.32-0.336,0.48-0.771,0.48-1.308c0-0.715-0.26-1.397-0.78-2.05
		l0.405-0.317c0.602,0.716,0.901,1.509,0.901,2.381c0,0.744-0.199,1.332-0.598,1.76s-0.947,0.642-1.646,0.642
		c-0.565,0-1.114-0.144-1.645-0.43s-1.182-0.813-1.96-1.574l-2.255-2.197h-0.022v4.582h-0.562L467.201,76.64z M471.507,83.947
		c-1.504,0-2.616-0.23-3.34-0.688c-0.723-0.458-1.084-1.152-1.084-2.083c0-0.895,0.37-1.574,1.115-2.04s1.848-0.695,3.31-0.695
		c1.49,0,2.598,0.226,3.315,0.677s1.078,1.138,1.078,2.06c0,0.902-0.373,1.59-1.117,2.062
		C474.04,83.711,472.948,83.947,471.507,83.947L471.507,83.947z M471.507,79.072c-1.328,0-2.31,0.174-2.944,0.52
		c-0.636,0.346-0.95,0.876-0.95,1.583c0,0.738,0.327,1.276,0.982,1.614c0.656,0.338,1.627,0.507,2.912,0.507
		c1.267,0,2.228-0.17,2.883-0.507c0.656-0.337,0.984-0.876,0.984-1.614s-0.33-1.272-0.985-1.604
		C473.734,79.238,472.772,79.072,471.507,79.072L471.507,79.072z M467.201,88.912v-0.575h6.24c0.565,0,1.153,0.023,1.764,0.07
		c-0.06-0.061-0.115-0.12-0.17-0.183c-0.055-0.062-0.53-0.666-1.424-1.81l0.416-0.335l1.74,2.326v0.504h-8.566V88.912z
		 M472.352,95.212c0,0.914-0.221,1.634-0.662,2.16c-0.442,0.526-1.051,0.787-1.822,0.787c-0.88,0-1.562-0.273-2.05-0.82
		c-0.488-0.547-0.733-1.3-0.733-2.262c0-0.426,0.04-0.83,0.124-1.213s0.205-0.703,0.36-0.96h0.604
		c-0.216,0.42-0.366,0.796-0.45,1.124s-0.125,0.678-0.125,1.05c0,0.75,0.197,1.35,0.595,1.804c0.396,0.454,0.933,0.68,1.607,0.68
		c0.638,0,1.138-0.22,1.5-0.661c0.363-0.442,0.545-1.04,0.545-1.801c0-0.507-0.075-1.038-0.229-1.593l0.229-0.352l3.92,0.34v4.125
		h-0.562v-3.574l-3.022-0.264c0.11,0.609,0.169,1.086,0.169,1.43H472.352z"/>
</g>
<path fill="none" stroke="#C2C2C4" stroke-miterlimit="10" d="M198.516,84.482h24"/>
<path fill="#C2C2C4" d="M219.502,87.927l1.574-3.703l-1.573-3.703l8.78,3.702L219.502,87.927z"/>
<path fill="#FFFFFF" d="M373.266,140.597c-33.354,6.088-65.349-16.033-71.433-49.37c-5.754-31.522,15.152-61.752,46.676-67.504
	c29.806-5.438,58.357,14.305,63.793,44.086v0.004l13.226-2.803C431.97,100.317,408.574,134.156,373.266,140.597L373.266,140.597z"/>
<path fill="none" d="M363.9,57.907"/>
<path fill="#D7D6D6" d="M352.029,83.882l-0.683-0.732l3.61-3.356l-3.61-3.356l0.683-0.732l4.397,4.09L352.029,83.882z
	 M353.635,92.145l-0.279-0.96l4.731-1.38l-1.722-4.62l0.938-0.35l2.098,5.628L353.635,92.145z"/>
<path fill="none" d="M360.48,91.002"/>
<path fill="#504F4F" d="M354.465,80.289c3.206-1.042,6.657,0.716,7.7,3.927c1.045,3.21-0.713,6.66-3.924,7.702
	c-3.213,1.045-6.664-0.714-7.705-3.923C349.493,84.785,351.252,81.335,354.465,80.289L354.465,80.289z"/>
<path fill="none" stroke="#E85B79" stroke-miterlimit="10" d="M297.436,137.36l43.59-63.511"/>
<path fill="#81539B" stroke="#E85B79" stroke-miterlimit="10" d="M305.089,136.75l-0.317-1.425l-7.017,1.572l-1.056-7.113
	l-1.44,0.217l1.28,8.664L305.089,136.75z M343.208,81.202l-1.439,0.22l-1.061-7.11l-7.015,1.57l-0.313-1.424l8.54-1.915
	L343.208,81.202z"/>
<path fill="none" stroke="#46BB90" stroke-miterlimit="10" d="M279.111,98.512l69.504-33.207"/>
<path fill="#81539B" stroke="#46BB90" stroke-miterlimit="10" d="M286.045,101.812l0.436-1.394l-6.86-2.147l2.64-6.687l-1.354-0.534
	l-3.22,8.145L286.045,101.812z M346.829,72.765l-1.356-0.531l2.637-6.683l-6.858-2.15l0.44-1.39l8.35,2.61L346.829,72.765z"/>
<path fill="none" stroke="#FAA819" stroke-miterlimit="10" d="M282.985,55.941l75.78,5.916"/>
<path fill="#81539B" stroke="#FAA819" stroke-miterlimit="10" d="M287.021,62.032l1.071-0.99l-4.866-5.29l5.632-4.47l-0.908-1.138
	l-6.862,5.441L287.021,62.032z M354.186,67.27l-0.91-1.14l5.627-4.47l-4.866-5.293l1.076-0.982l5.927,6.44L354.186,67.27z"/>
<path fill="none" stroke="#434343" stroke-miterlimit="10" d="M307.146,20.414l63.51,43.59"/>
<path fill="#81539B" stroke="#434343" stroke-miterlimit="10" d="M307.755,28.066l1.424-0.316l-1.571-7.02l7.112-1.052l-0.217-1.44
	l-8.664,1.283L307.755,28.066z M363.302,66.188l-0.22-1.441l7.11-1.059l-1.566-7.016l1.42-0.316l1.915,8.543L363.302,66.188z"/>
<path fill="none" stroke="#02ACD0" stroke-miterlimit="10" d="M345.992,2.088l33.207,69.506"/>
<path fill="#81539B" stroke="#02ACD0" stroke-miterlimit="10" d="M342.693,9.022l1.392,0.438l2.15-6.863l6.686,2.642l0.533-1.356
	l-8.146-3.22L342.693,9.022z M371.74,69.809l0.53-1.358l6.686,2.64l2.152-6.859l1.387,0.436l-2.613,8.355L371.74,69.809z"/>
<path fill="none" stroke="#81539B" stroke-miterlimit="10" d="M389.111,5.454l-5.996,76.834"/>
<path fill="#81539B" stroke="#81539B" stroke-miterlimit="10" d="M382.476,9.999l0.986,1.073l5.29-4.87l4.47,5.632l1.141-0.907
	l-5.445-6.862L382.476,9.999z M377.235,77.162l1.14-0.91l4.47,5.628l5.293-4.865l0.982,1.074l-6.44,5.93L377.235,77.162z"/>
<path fill="none" stroke="#E85B79" stroke-miterlimit="10" d="M424.091,30.122l-43.592,63.51"/>
<path fill="#81539B" stroke="#E85B79" stroke-miterlimit="10" d="M416.439,30.734l0.313,1.424l7.019-1.57l1.055,7.109l1.442-0.215
	l-1.283-8.664L416.439,30.734z M378.318,86.279l1.442-0.216l1.058,7.106l7.015-1.566l0.315,1.423l-8.543,1.914L378.318,86.279z"/>
<path fill="none" stroke="#46BB90" stroke-miterlimit="10" d="M442.415,68.968l-69.505,33.21"/>
<path fill="#81539B" stroke="#46BB90" stroke-miterlimit="10" d="M435.485,65.672l-0.44,1.393l6.863,2.146l-2.646,6.688l1.357,0.533
	l3.22-8.146L435.485,65.672z M374.697,94.716l1.356,0.534l-2.638,6.685l6.858,2.15l-0.437,1.39l-8.356-2.615L374.697,94.716z"/>
<path fill="none" stroke="#FAA819" stroke-miterlimit="10" d="M438.465,112.552l-75.781-5.914"/>
<path fill="#81539B" stroke="#FAA819" stroke-miterlimit="10" d="M434.507,105.452l-1.075,0.988l4.869,5.29l-5.632,4.47l0.908,1.14
	l6.86-5.443L434.507,105.452z"/>
<path fill="#81539B" d="M367.345,100.212l0.908,1.143l-5.63,4.467l4.867,5.292l-1.073,0.985l-5.93-6.444L367.345,100.212z"/>
<path fill="none" stroke="#434343" stroke-miterlimit="10" d="M414.382,147.068l-63.512-43.591"/>
<path fill="#81539B" stroke="#434343" stroke-miterlimit="10" d="M413.771,139.417l-1.427,0.316l1.572,7.016l-7.11,1.057
	l0.217,1.442l8.664-1.286L413.771,139.417z M358.229,101.295l0.215,1.444l-7.11,1.055l1.57,7.015l-1.423,0.318l-1.914-8.545
	L358.229,101.295z"/>
<path fill="none" stroke="#02ACD0" stroke-miterlimit="10" d="M375.535,165.392l-33.208-69.506"/>
<path fill="#81539B" stroke="#02ACD0" stroke-miterlimit="10" d="M378.831,158.462l-1.392-0.439l-2.146,6.862l-6.688-2.64
	l-0.533,1.355l8.143,3.216L378.831,158.462z"/>
<path fill="#81539B" d="M349.79,97.676l-0.535,1.357l-6.683-2.641l-2.15,6.86l-1.39-0.435l2.614-8.358L349.79,97.676z"/>
<path fill="none" stroke="#81539B" stroke-miterlimit="10" d="M332.417,161.988l5.998-76.834"/>
<path fill="#81539B" stroke="#81539B" stroke-miterlimit="10" d="M339.052,157.484l-0.987-1.074l-5.288,4.87l-4.47-5.632
	l-1.145,0.907l5.446,6.857L339.052,157.484z M344.292,90.322l-1.14,0.91l-4.471-5.633l-5.289,4.87l-0.986-1.074l6.443-5.93
	L344.292,90.322z"/>
<g>
	<defs>
		<rect id="SVGID_1_" x="328.16" y="51.652" width="65.82" height="62.192"/>
	</defs>
	<clipPath id="SVGID_2_">
		<use xlink:href="#SVGID_1_"  overflow="visible"/>
	</clipPath>
	<path clip-path="url(#SVGID_2_)" fill="#010101" d="M366.057,113.318c-17.464,3.187-34.215-8.396-37.399-25.851
		c-3.01-16.504,7.935-32.333,24.439-35.345c15.604-2.846,30.554,7.49,33.398,23.086l6.925-1.468
		C396.793,92.229,384.543,109.946,366.057,113.318L366.057,113.318z"/>
</g>
<path fill="#FFFFFF" d="M338.858,80.804c0.058-0.455,0.151-0.877,0.285-1.262c0.132-0.384,0.303-0.71,0.513-0.98
	c0.21-0.266,0.457-0.43,0.74-0.489c0.27-0.058,0.503-0.002,0.693,0.167c0.19,0.167,0.324,0.43,0.4,0.79
	c0.076,0.37,0.068,0.72-0.025,1.05c-0.095,0.327-0.256,0.628-0.484,0.899c-0.23,0.272-0.519,0.506-0.864,0.696
	c-0.346,0.193-0.734,0.335-1.164,0.426l-0.152,0.032c-0.02-0.432,0-0.874,0.061-1.33L338.858,80.804z M338.004,86.707
	c0.415,0.225,0.874,0.36,1.374,0.41s1.017,0.016,1.548-0.099c0.595-0.127,1.095-0.3,1.5-0.52s0.729-0.457,0.967-0.713
	c0.239-0.257,0.401-0.517,0.487-0.778c0.088-0.262,0.11-0.498,0.064-0.71c-0.03-0.146-0.08-0.285-0.147-0.41
	c-0.066-0.125-0.144-0.225-0.229-0.296c-0.087,0.204-0.2,0.408-0.336,0.612c-0.139,0.206-0.302,0.396-0.49,0.577
	c-0.19,0.18-0.404,0.338-0.642,0.475c-0.238,0.137-0.497,0.235-0.78,0.294c-0.633,0.135-1.146,0.052-1.535-0.25
	c-0.39-0.3-0.657-0.79-0.8-1.47c-0.021-0.096-0.04-0.203-0.061-0.32c-0.021-0.117-0.037-0.233-0.044-0.353
	c0.11-0.01,0.221-0.03,0.334-0.055l0.314-0.065c0.746-0.158,1.416-0.4,2.01-0.73s1.083-0.703,1.474-1.128
	c0.39-0.427,0.67-0.885,0.84-1.37c0.168-0.489,0.204-0.97,0.104-1.441c-0.135-0.65-0.47-1.107-1.003-1.372
	c-0.533-0.266-1.216-0.311-2.047-0.132c-0.64,0.136-1.21,0.35-1.713,0.644c-0.503,0.295-0.94,0.643-1.311,1.04
	c-0.372,0.402-0.68,0.84-0.926,1.32c-0.245,0.476-0.432,0.965-0.56,1.466c-0.13,0.5-0.2,1-0.215,1.495
	c-0.016,0.497,0.022,0.962,0.113,1.395c0.126,0.61,0.34,1.12,0.638,1.53c0.3,0.41,0.656,0.727,1.071,0.95V86.707z M352.305,91.802
	c-0.029,0.418-0.093,0.828-0.186,1.23c-0.093,0.404-0.22,0.771-0.376,1.104c-0.16,0.33-0.354,0.61-0.588,0.838
	c-0.232,0.23-0.504,0.375-0.815,0.44c-0.136,0.03-0.27,0.042-0.403,0.037s-0.259-0.019-0.375-0.04
	c-0.117-0.023-0.225-0.057-0.32-0.101c-0.098-0.04-0.24-0.079-0.302-0.122l0.006-3.276c0-2.722,1.366-4.05,1.899-4.13
	c0.184-0.028,0.344-0.018,0.487,0.064c0.145,0.082,0.271,0.204,0.378,0.367c0.107,0.16,0.2,0.351,0.28,0.57
	c0.076,0.22,0.14,0.446,0.189,0.686c0.068,0.33,0.114,0.697,0.138,1.101c0.022,0.403,0.018,0.814-0.013,1.229V91.802z
	 M354.31,87.467c-0.204-0.368-0.443-0.662-0.721-0.884c-0.276-0.22-0.587-0.365-0.93-0.436c-0.342-0.07-0.703-0.064-1.08,0.016
	c-0.432,0.09-0.794,0.229-1.092,0.423c-0.296,0.19-0.55,0.425-0.757,0.7s-0.385,0.592-0.528,0.943c-0.146,0.352-0.28,0.729-0.4,1.14
	l-0.111-2.414l-3.786,0.804v0.98l0.354-0.084c0.164-0.035,0.307-0.057,0.425-0.063c0.119-0.007,0.223,0.005,0.307,0.042
	c0.085,0.035,0.154,0.101,0.208,0.188c0.054,0.09,0.098,0.215,0.13,0.375c0.006,0.021,0.01,0.06,0.016,0.109
	c0.006,0.056,0.011,0.118,0.015,0.19l0.01,0.235c0,0.083,0.002,0.161,0,0.239v11.087l3.704-0.795v-0.752
	c0,0-0.325,0.058-0.444,0.063c-0.12,0.01-0.222-0.006-0.306-0.042c-0.084-0.033-0.153-0.098-0.208-0.188
	c-0.054-0.09-0.099-0.216-0.13-0.373c-0.006-0.022-0.011-0.062-0.017-0.112c-0.006-0.054-0.01-0.116-0.014-0.19
	s-0.006-0.15-0.01-0.234c-0.002-0.083-0.002-0.161,0-0.239v-1.74c0.252,0.078,0.497,0.134,0.813,0.14
	c0.317,0.011,0.65-0.024,1.002-0.1c0.601-0.127,1.128-0.351,1.584-0.663c0.457-0.314,0.851-0.687,1.181-1.116s0.596-0.899,0.8-1.414
	c0.202-0.514,0.352-1.033,0.447-1.563c0.097-0.53,0.144-1.047,0.14-1.557c-0.002-0.51-0.05-0.975-0.137-1.396
	C354.667,88.275,354.512,87.834,354.31,87.467L354.31,87.467z M375.729,85.736c0.002,0.486-0.044,0.979-0.141,1.476
	c-0.096,0.496-0.22,0.95-0.384,1.36c-0.16,0.415-0.354,0.76-0.58,1.04c-0.225,0.279-0.464,0.446-0.72,0.5
	c-0.135,0.029-0.268,0.026-0.396-0.011c-0.128-0.033-0.248-0.111-0.359-0.234c-0.11-0.12-0.213-0.29-0.311-0.51
	c-0.096-0.217-0.178-0.494-0.25-0.83c-0.066-0.325-0.112-0.69-0.14-1.097c-0.027-0.405-0.021-0.821,0.01-1.252
	c0.03-0.43,0.094-0.85,0.188-1.264c0.094-0.412,0.223-0.79,0.387-1.136c0.164-0.345,0.367-0.635,0.61-0.87
	c0.242-0.236,0.533-0.391,0.874-0.462c0.226-0.05,0.446-0.055,0.665-0.018c0.218,0.037,0.397,0.124,0.547,0.268l-0.003,3.037
	L375.729,85.736z M379.694,88.792c-0.136,0.103-0.285,0.17-0.45,0.206c-0.18,0.04-0.342,0-0.484-0.12
	c-0.144-0.117-0.244-0.322-0.306-0.613c-0.024-0.114-0.042-0.257-0.055-0.432c-0.014-0.17-0.021-0.35-0.028-0.537
	c-0.006-0.185-0.01-0.363-0.01-0.53c0.002-0.166,0.003-0.3,0.006-0.401v-5.726c0,0-0.956,0.083-1.75,0.832
	c0,0-0.32-0.086-0.524-0.116c-0.206-0.029-0.42-0.052-0.647-0.062c-0.227-0.012-0.46-0.01-0.703,0.002
	c-0.244,0.012-0.48,0.042-0.704,0.09c-0.59,0.126-1.11,0.34-1.567,0.641c-0.457,0.304-0.854,0.662-1.189,1.08
	c-0.336,0.416-0.61,0.875-0.827,1.38c-0.216,0.505-0.378,1.02-0.486,1.55c-0.106,0.527-0.162,1.053-0.162,1.574
	c0,0.52,0.048,1.01,0.143,1.466c0.096,0.455,0.235,0.867,0.423,1.233c0.186,0.37,0.412,0.676,0.678,0.916
	c0.267,0.24,0.572,0.41,0.917,0.506c0.344,0.097,0.725,0.1,1.138,0.014c0.424-0.09,0.783-0.227,1.079-0.404
	c0.298-0.178,0.551-0.405,0.769-0.672c0.83-1.016,1.055-2.184,1.055-2.184s0.034,0.439,0.055,0.616
	c0.02,0.181,0.048,0.357,0.086,0.54c0.095,0.456,0.321,0.771,0.683,0.94s0.797,0.2,1.31,0.09c0.313-0.063,0.597-0.158,0.851-0.28
	c0.255-0.123,0.485-0.26,0.693-0.411c0.207-0.15,0.393-0.311,0.554-0.471c0.159-0.16,0.304-0.314,0.427-0.46l-0.528-0.62
	c-0.165,0.141-0.312,0.261-0.447,0.365L379.694,88.792z M357.019,82.989c0.1,0.124,0.22,0.216,0.359,0.279
	c0.141,0.067,0.298,0.105,0.47,0.112c0.173,0.007,0.356-0.01,0.549-0.05c0.21-0.045,0.407-0.117,0.595-0.217
	c0.186-0.101,0.344-0.224,0.476-0.372s0.227-0.323,0.28-0.522c0.057-0.2,0.06-0.42,0.01-0.66c-0.04-0.191-0.114-0.35-0.22-0.474
	s-0.23-0.218-0.377-0.28c-0.146-0.063-0.308-0.1-0.482-0.104c-0.174-0.004-0.354,0.013-0.542,0.05
	c-0.215,0.047-0.415,0.12-0.602,0.215c-0.188,0.097-0.342,0.218-0.464,0.365c-0.123,0.147-0.21,0.322-0.26,0.52
	c-0.051,0.198-0.051,0.427,0.005,0.684c0.038,0.182,0.106,0.334,0.206,0.454L357.019,82.989z M344.123,93.802
	c-0.144-0.246-0.327-0.463-0.553-0.649c-0.226-0.188-0.493-0.349-0.805-0.48c-0.312-0.134-0.673-0.245-1.08-0.338
	c-0.372-0.082-0.694-0.157-0.971-0.228c-0.272-0.07-0.505-0.15-0.691-0.24c-0.188-0.09-0.334-0.2-0.44-0.327
	c-0.104-0.126-0.18-0.287-0.22-0.48c-0.035-0.17-0.035-0.338,0.002-0.5c0.036-0.163,0.107-0.312,0.212-0.449
	c0.104-0.141,0.238-0.261,0.402-0.362c0.164-0.104,0.359-0.18,0.586-0.23c0.25-0.052,0.47-0.035,0.665,0.049
	c0.194,0.084,0.365,0.212,0.514,0.382c0.146,0.172,0.27,0.37,0.363,0.597c0.095,0.228,0.166,0.457,0.215,0.69
	c0.617-0.131,1.08-0.341,1.393-0.625c0.313-0.285,0.42-0.663,0.323-1.131c-0.044-0.21-0.142-0.405-0.294-0.579
	c-0.152-0.179-0.37-0.314-0.654-0.412c-0.284-0.099-0.636-0.15-1.06-0.155c-0.424-0.004-0.926,0.055-1.51,0.178
	c-0.61,0.13-1.145,0.311-1.601,0.54c-0.457,0.23-0.83,0.505-1.118,0.82c-0.29,0.312-0.487,0.66-0.597,1.04
	c-0.11,0.38-0.12,0.784-0.03,1.212c0.07,0.342,0.188,0.64,0.351,0.89s0.361,0.469,0.602,0.65c0.238,0.18,0.514,0.334,0.826,0.457
	c0.312,0.125,0.655,0.229,1.027,0.317c0.374,0.095,0.697,0.181,0.97,0.259c0.273,0.08,0.506,0.168,0.694,0.268
	c0.19,0.103,0.339,0.22,0.446,0.358c0.108,0.136,0.185,0.306,0.227,0.504c0.044,0.212,0.04,0.407-0.011,0.588
	c-0.05,0.181-0.14,0.342-0.263,0.483c-0.125,0.144-0.282,0.266-0.474,0.367c-0.19,0.105-0.405,0.183-0.644,0.23
	c-0.315,0.07-0.597,0.062-0.84-0.021c-0.247-0.082-0.46-0.22-0.64-0.409c-0.184-0.19-0.335-0.421-0.456-0.692
	c-0.122-0.27-0.216-0.564-0.28-0.878c-0.232,0.05-0.455,0.124-0.667,0.226c-0.212,0.103-0.392,0.23-0.54,0.384
	c-0.148,0.151-0.256,0.335-0.324,0.546c-0.067,0.211-0.073,0.451-0.017,0.726c0.062,0.303,0.196,0.558,0.401,0.764
	s0.469,0.36,0.788,0.467c0.32,0.104,0.69,0.156,1.113,0.155c0.423,0,0.882-0.053,1.38-0.157c0.695-0.148,1.292-0.351,1.79-0.601
	c0.495-0.25,0.896-0.544,1.196-0.883c0.3-0.338,0.5-0.712,0.6-1.127c0.101-0.414,0.101-0.857,0.002-1.33
	c-0.065-0.328-0.17-0.614-0.313-0.86L344.123,93.802z M356.131,83.035l-0.416-0.71c-0.054,0.045-0.104,0.086-0.151,0.12
	c-0.137,0.1-0.294,0.17-0.476,0.21c-0.197,0.04-0.362,0.005-0.497-0.11c-0.133-0.114-0.273-0.31-0.327-0.567
	c-0.051-0.244-0.091-0.539-0.104-0.826c-0.013-0.286-0.02-0.599-0.018-0.931v-1.956c-0.006-0.159-0.007-0.327-0.006-0.508
	c0-0.18,0-0.354-0.006-0.534c-0.005-0.178-0.015-0.353-0.029-0.523c-0.016-0.173-0.038-0.333-0.07-0.48
	c-0.055-0.27-0.143-0.517-0.26-0.744c-0.12-0.228-0.274-0.417-0.471-0.569c-0.193-0.15-0.428-0.255-0.701-0.311
	c-0.274-0.055-0.597-0.044-0.964,0.034c-0.384,0.082-0.728,0.195-1.029,0.349c-1.397,0.705-2.037,2.437-2.037,2.437l-0.099-1.93
	l-3.958,0.835v0.978l0.355-0.08c0.164-0.032,0.306-0.055,0.426-0.062c0.12-0.006,0.222,0.007,0.306,0.043
	c0.084,0.035,0.153,0.097,0.209,0.188c0.055,0.09,0.098,0.213,0.13,0.373c0.006,0.023,0.01,0.061,0.016,0.114
	c0.005,0.052,0.01,0.115,0.013,0.19c0.005,0.071,0.008,0.149,0.011,0.231c0.003,0.083,0.004,0.163,0.002,0.24l-0.002,7.277
	l2.604-0.553v-4.337c0-2.618,1.048-3.883,1.332-4.146c0.177-0.164,0.35-0.282,0.548-0.324c0.152-0.032,0.282-0.026,0.391,0.016
	c0.104,0.043,0.194,0.106,0.27,0.19c0.074,0.087,0.133,0.189,0.18,0.304c0.043,0.115,0.077,0.229,0.101,0.336
	c0.029,0.143,0.05,0.307,0.062,0.49c0.013,0.186,0.021,0.37,0.022,0.558l0.006,0.538c0,0.173,0,0.318,0.002,0.438l0.01,1.444
	c0,0.929,0.052,1.644,0.156,2.146c0.118,0.562,0.388,0.966,0.81,1.207c0.423,0.24,0.969,0.29,1.637,0.147
	c0.315-0.066,0.6-0.162,0.852-0.286c0.252-0.125,0.475-0.269,0.668-0.429C355.818,83.391,355.986,83.219,356.131,83.035
	L356.131,83.035z M360.905,92.766c-0.138,0.101-0.298,0.173-0.48,0.21c-0.189,0.04-0.354,0.003-0.486-0.109
	c-0.134-0.116-0.229-0.302-0.28-0.559c-0.052-0.243-0.083-0.51-0.096-0.797c-0.014-0.286-0.021-0.597-0.019-0.93l0.016-5.948
	l-4.123,0.875v0.98l0.354-0.082c0.164-0.035,0.307-0.057,0.426-0.063c0.12-0.01,0.221,0.005,0.306,0.042
	c0.085,0.035,0.153,0.101,0.21,0.188c0.053,0.09,0.097,0.215,0.13,0.374c0.005,0.021,0.01,0.06,0.014,0.109
	c0.006,0.056,0.01,0.118,0.015,0.19l0.01,0.235c0.002,0.083,0.003,0.163,0,0.241l0.004,3.4c-0.004,0.465,0.008,0.876,0.035,1.233
	c0.026,0.355,0.066,0.659,0.12,0.911c0.117,0.563,0.39,0.968,0.81,1.207c0.424,0.24,0.97,0.29,1.636,0.148
	c0.317-0.067,0.601-0.162,0.851-0.287c0.248-0.124,0.47-0.268,0.668-0.428c0.194-0.16,0.365-0.333,0.512-0.517
	c0.145-0.18,0.27-0.359,0.375-0.536l-0.54-0.503c-0.172,0.177-0.327,0.313-0.465,0.414V92.766z M369.809,83.562
	c-0.5-1.425-2.631-1.55-3.822,0.198c-0.792,1.16-0.767,2.181-0.767,2.181l-0.072-2.49l-3.905,0.826l0.006,0.977l0.35-0.078
	c0.33-0.07,0.573-0.072,0.734-0.007c0.16,0.062,0.265,0.203,0.311,0.42c0.025,0.125,0.043,0.271,0.05,0.436
	c0.01,0.165,0.016,0.298,0.02,0.399v7.347l2.614-0.556l0.03-3.165c0.032-2.886,0.536-5.413,1.784-5.7
	c0.978-0.225,1.21,1.546,1.21,1.546c1.46-0.346,1.663-1.745,1.46-2.329L369.809,83.562z M385.428,87.258
	c-0.17,0.174-0.324,0.311-0.463,0.412c-0.138,0.1-0.298,0.17-0.479,0.21c-0.19,0.04-0.354,0.002-0.487-0.112s-0.227-0.3-0.28-0.557
	c-0.05-0.246-0.083-0.512-0.096-0.798c-0.012-0.285-0.018-0.595-0.017-0.93v-9.66l-4.138,0.878v0.977l0.396-0.098
	c0.162-0.036,0.306-0.058,0.428-0.065s0.226,0.006,0.31,0.04c0.086,0.038,0.154,0.101,0.209,0.19
	c0.055,0.088,0.098,0.214,0.13,0.374c0.006,0.02,0.01,0.06,0.017,0.112c0.005,0.05,0.01,0.113,0.013,0.188
	c0.005,0.072,0.007,0.15,0.005,0.234c0,0.084,0,0.164-0.002,0.241l-0.01,7.128c0,0.931,0.053,1.646,0.157,2.146
	c0.118,0.564,0.388,0.967,0.81,1.207c0.424,0.24,0.969,0.29,1.637,0.15c0.316-0.068,0.602-0.164,0.853-0.29
	c0.25-0.125,0.476-0.268,0.67-0.428c0.19-0.159,0.36-0.332,0.507-0.515c0.146-0.183,0.271-0.362,0.374-0.538l-0.54-0.5
	L385.428,87.258z M88.378,160.418c-40.729,7.432-79.79-19.577-87.215-60.277c-7.024-38.49,18.498-75.399,56.988-82.424
	c36.39-6.64,71.252,17.467,77.89,53.828v0.005l16.146-3.423C160.056,111.235,131.486,152.55,88.378,160.418L88.378,160.418z"/>
<path opacity="0.2" fill="#E85B79" enable-background="new    " d="M131.312,115.582c0,11.335-9.19,20.525-20.53,20.525
	c-11.335,0-20.524-9.19-20.524-20.526c0-11.338,9.19-20.528,20.525-20.528c11.34,0,20.53,9.19,20.53,20.527L131.312,115.582z"/>
<path opacity="0.2" fill="#46BB90" enable-background="new    " d="M79.031,131.298c0,10.982-8.899,19.884-19.883,19.884
	c-10.984,0-19.887-8.899-19.887-19.884s8.901-19.887,19.887-19.887C70.13,111.411,79.031,120.311,79.031,131.298L79.031,131.298z"/>
<path fill="#E85B79" d="M108.305,110.452c0,3.622-2.937,6.56-6.556,6.56c-3.623,0-6.56-2.938-6.56-6.56s2.937-6.561,6.56-6.561
	c3.62,0,6.558,2.938,6.558,6.561H108.305z M124.665,106.604c0,3.619-2.939,6.56-6.56,6.56c-3.622,0-6.561-2.938-6.561-6.56
	c0-3.623,2.938-6.561,6.561-6.561C121.726,100.044,124.665,102.98,124.665,106.604z M117.775,126.295
	c-0.777,3.537-4.28,5.773-7.812,4.996c-3.54-0.78-5.774-4.28-4.998-7.815c0.78-3.54,4.28-5.775,7.816-4.997
	C116.316,119.256,118.554,122.755,117.775,126.295L117.775,126.295z"/>
<path opacity="0.2" fill="#FAA819" enable-background="new    " d="M43.604,107.664c-8.912,7.006-21.816,5.458-28.82-3.456
	c-7.004-8.913-5.457-21.817,3.46-28.822c8.91-7.004,21.813-5.456,28.82,3.457C54.066,87.758,52.52,100.663,43.604,107.664
	L43.604,107.664z"/>
<path fill="#FAA819" d="M33.426,86.408c-2.851,2.24-6.976,1.742-9.21-1.104c-2.24-2.85-1.745-6.974,1.103-9.21
	c2.848-2.235,6.975-1.745,9.213,1.105C36.768,80.045,36.271,84.17,33.426,86.408L33.426,86.408z"/>
<circle fill="#FAA819" cx="42.505" cy="91.735" r="6.559"/>
<path fill="#FAA819" d="M26.818,103.642c-3.262,1.574-7.184,0.205-8.758-3.056c-1.572-3.263-0.205-7.185,3.06-8.76
	c3.26-1.57,7.184-0.202,8.76,3.06C31.45,98.146,30.08,102.068,26.818,103.642z"/>
<circle opacity="0.2" fill="#02ACD0" enable-background="new    " cx="94.428" cy="52.076" r="20.526"/>
<circle fill="#02ACD0" cx="84.884" cy="56.188" r="6.558"/>
<path fill="#02ACD0" d="M95.646,35.592c2.884,2.186,3.456,6.301,1.271,9.188c-2.188,2.887-6.3,3.457-9.189,1.272
	c-2.887-2.188-3.458-6.3-1.272-9.188C88.638,33.977,92.753,33.404,95.646,35.592L95.646,35.592z"/>
<circle fill="#02ACD0" cx="102.2" cy="57.223" r="6.559"/>
<path fill="#46BB90" d="M63.896,125.332c-0.78,3.537-4.282,5.774-7.815,4.996c-3.54-0.778-5.774-4.278-4.998-7.814
	c0.78-3.54,4.277-5.775,7.814-4.997C62.433,118.295,64.673,121.795,63.896,125.332L63.896,125.332z"/>
<circle opacity="0.2" fill="#81539B" enable-background="new    " cx="51.45" cy="42.454" r="13.79"/>
<circle fill="#81539B" cx="49.789" cy="41.173" r="6.559"/>
<path fill="#D7D6D6" d="M28.781,57.979c-0.78,3.539-4.28,5.774-7.813,4.998c-3.537-0.781-5.773-4.281-4.996-7.815
	c0.779-3.54,4.276-5.776,7.815-4.998c3.533,0.774,5.771,4.276,4.994,7.813V57.979z M119.699,82.032
	c-0.777,3.538-4.277,5.774-7.814,4.998c-3.534-0.778-5.77-4.28-4.996-7.815c0.78-3.538,4.28-5.774,7.814-4.996
	C118.24,74.995,120.479,78.495,119.699,82.032L119.699,82.032z M144.421,87.057c-0.774,3.537-4.276,5.775-7.812,4.998
	c-3.537-0.779-5.775-4.279-4.998-7.814c0.78-3.538,4.28-5.775,7.815-4.998C142.964,80.021,145.203,83.521,144.421,87.057z
	 M98.533,147.462c-0.78,3.538-4.28,5.775-7.814,4.996c-3.54-0.777-5.774-4.277-5-7.814c0.78-3.536,4.28-5.774,7.82-4.996
	C97.072,140.425,99.31,143.927,98.533,147.462L98.533,147.462z"/>
<circle fill="#D7D6D6" cx="29.11" cy="127.086" r="6.558"/>
<path fill="#46BB90" d="M66.777,141.69c-0.775,3.535-4.277,5.772-7.812,4.994c-3.535-0.777-5.775-4.276-4.996-7.813
	c0.779-3.54,4.279-5.776,7.813-4.998C65.32,134.651,67.559,138.151,66.777,141.69L66.777,141.69z"/>
<g>
	<defs>
		<rect id="SVGID_3_" x="57.288" y="72.312" width="34.853" height="32.934"/>
	</defs>
	<clipPath id="SVGID_4_">
		<use xlink:href="#SVGID_3_"  overflow="visible"/>
	</clipPath>
	<path clip-path="url(#SVGID_4_)" fill="#010101" d="M77.355,104.965c-9.246,1.688-18.116-4.445-19.803-13.688
		c-1.595-8.74,4.199-17.12,12.939-18.716c8.262-1.508,16.18,3.967,17.685,12.225l3.667-0.777
		C93.629,93.799,87.145,103.179,77.355,104.965L77.355,104.965z"/>
</g>
<path fill="#FFFFFF" d="M62.953,87.748c0.03-0.24,0.082-0.464,0.15-0.668c0.07-0.203,0.162-0.376,0.271-0.521
	c0.11-0.14,0.24-0.228,0.393-0.26c0.144-0.03,0.266,0,0.368,0.09c0.1,0.088,0.17,0.228,0.21,0.417
	c0.042,0.196,0.038,0.38-0.013,0.557c-0.05,0.175-0.135,0.334-0.257,0.479c-0.12,0.144-0.271,0.268-0.456,0.368
	c-0.184,0.101-0.39,0.177-0.617,0.225l-0.079,0.019c-0.011-0.229,0-0.463,0.029-0.704V87.748z M62.501,90.874
	c0.221,0.12,0.464,0.19,0.729,0.217c0.266,0.024,0.538,0.008,0.82-0.052c0.312-0.067,0.579-0.16,0.794-0.275
	c0.214-0.114,0.385-0.241,0.512-0.378c0.127-0.136,0.213-0.271,0.26-0.412c0.045-0.14,0.058-0.264,0.032-0.376
	c-0.016-0.077-0.042-0.149-0.077-0.217c-0.036-0.065-0.076-0.12-0.122-0.156c-0.047,0.107-0.105,0.217-0.18,0.324
	c-0.074,0.108-0.158,0.21-0.26,0.306c-0.101,0.096-0.214,0.18-0.339,0.252c-0.126,0.071-0.264,0.125-0.412,0.155
	c-0.337,0.072-0.606,0.028-0.813-0.13s-0.35-0.42-0.424-0.78l-0.033-0.17c0,0-0.02-0.123-0.021-0.186
	c0.06-0.006,0.117-0.016,0.178-0.028l0.166-0.035c0.396-0.083,0.75-0.212,1.063-0.386s0.574-0.372,0.78-0.598
	c0.206-0.227,0.354-0.468,0.444-0.727c0.09-0.26,0.106-0.513,0.056-0.763c-0.072-0.345-0.25-0.587-0.532-0.727
	c-0.282-0.141-0.644-0.164-1.084-0.07c-0.338,0.072-0.64,0.186-0.906,0.34c-0.267,0.157-0.497,0.34-0.693,0.553
	s-0.36,0.444-0.49,0.697s-0.228,0.512-0.297,0.777c-0.067,0.265-0.105,0.527-0.113,0.792c-0.008,0.262,0.014,0.508,0.061,0.736
	c0.067,0.323,0.182,0.594,0.34,0.811C62.093,90.587,62.282,90.756,62.501,90.874L62.501,90.874z M70.075,93.572
	c-0.018,0.22-0.05,0.437-0.1,0.649c-0.05,0.215-0.115,0.41-0.2,0.585c-0.083,0.176-0.188,0.323-0.31,0.443
	c-0.123,0.12-0.269,0.2-0.433,0.234c-0.072,0.016-0.144,0.02-0.214,0.02c-0.07-0.003-0.138-0.01-0.2-0.021
	c-0.06-0.014-0.118-0.03-0.17-0.054c-0.05-0.02-0.126-0.043-0.16-0.063l0.004-1.735c0-1.441,0.726-2.146,1.008-2.188
	c0.097-0.016,0.182-0.011,0.26,0.033c0.075,0.044,0.142,0.108,0.2,0.195c0.056,0.084,0.104,0.186,0.146,0.3
	c0.042,0.116,0.076,0.237,0.104,0.364c0.035,0.175,0.06,0.368,0.071,0.582c0.013,0.214,0.011,0.433-0.006,0.653V93.572z
	 M71.135,91.276c-0.107-0.195-0.234-0.351-0.382-0.469c-0.146-0.117-0.31-0.193-0.491-0.229c-0.181-0.038-0.372-0.035-0.572,0.007
	c-0.229,0.05-0.42,0.123-0.577,0.225c-0.157,0.103-0.29,0.226-0.4,0.37c-0.109,0.147-0.203,0.313-0.279,0.5
	c-0.077,0.188-0.148,0.389-0.213,0.604l-0.061-1.278l-2.004,0.426v0.521l0.188-0.045c0.087-0.021,0.161-0.03,0.226-0.033
	c0.062-0.005,0.116,0.003,0.16,0.02c0.046,0.021,0.083,0.055,0.11,0.103c0.029,0.047,0.053,0.113,0.069,0.198
	c0.003,0.012,0.005,0.029,0.008,0.06c0.003,0.027,0.006,0.06,0.008,0.1l0.004,0.125c0,0.044,0.002,0.085,0,0.128v5.869l1.962-0.42
	v-0.399c0,0-0.173,0.029-0.235,0.035c-0.062,0.003-0.116-0.005-0.16-0.023c-0.045-0.021-0.082-0.052-0.109-0.1
	c-0.03-0.049-0.054-0.114-0.07-0.197c-0.002-0.013-0.005-0.032-0.007-0.061c-0.003-0.027-0.005-0.062-0.007-0.1
	c-0.003-0.04-0.004-0.08-0.007-0.126v-1.048c0.134,0.04,0.264,0.069,0.433,0.074c0.168,0.004,0.345-0.016,0.53-0.055
	c0.316-0.066,0.597-0.185,0.84-0.35s0.449-0.364,0.623-0.592c0.175-0.229,0.315-0.479,0.423-0.75
	c0.106-0.271,0.188-0.547,0.236-0.827c0.053-0.28,0.076-0.555,0.074-0.824s-0.026-0.516-0.073-0.738
	c-0.057-0.272-0.14-0.506-0.248-0.699H71.135z M82.478,90.36c0,0.258-0.023,0.52-0.073,0.779c-0.052,0.265-0.12,0.504-0.205,0.723
	c-0.085,0.22-0.188,0.401-0.307,0.55c-0.12,0.147-0.247,0.237-0.381,0.266c-0.072,0.017-0.143,0.015-0.21-0.005
	c-0.066-0.019-0.133-0.06-0.189-0.124c-0.058-0.063-0.114-0.154-0.165-0.27c-0.05-0.115-0.095-0.264-0.132-0.44
	c-0.036-0.172-0.061-0.365-0.073-0.58c-0.014-0.215-0.013-0.435,0.004-0.662c0.017-0.227,0.05-0.449,0.1-0.67
	c0.051-0.22,0.12-0.418,0.206-0.6c0.086-0.183,0.195-0.337,0.324-0.463c0.128-0.123,0.282-0.205,0.462-0.243
	c0.12-0.025,0.237-0.028,0.354-0.01c0.115,0.021,0.21,0.066,0.29,0.143l-0.003,1.608L82.478,90.36z M84.577,91.978
	c-0.07,0.056-0.15,0.091-0.237,0.11c-0.096,0.021-0.182,0-0.258-0.062c-0.076-0.063-0.13-0.173-0.162-0.326
	c-0.012-0.061-0.02-0.136-0.027-0.229c-0.008-0.092-0.013-0.188-0.017-0.286c-0.002-0.1-0.004-0.191-0.003-0.279
	c0-0.088,0-0.16,0.002-0.214v-3.03c0,0-0.507,0.043-0.927,0.439c0,0-0.17-0.047-0.278-0.062c-0.107-0.017-0.223-0.028-0.343-0.034
	s-0.244-0.006-0.372,0c-0.13,0.008-0.253,0.023-0.373,0.05c-0.31,0.065-0.588,0.181-0.83,0.338c-0.24,0.16-0.45,0.354-0.628,0.572
	c-0.18,0.22-0.324,0.464-0.439,0.73c-0.113,0.268-0.2,0.54-0.258,0.819c-0.057,0.28-0.086,0.561-0.086,0.835
	c0,0.275,0.025,0.534,0.075,0.775c0.05,0.24,0.125,0.46,0.225,0.654s0.22,0.355,0.359,0.483c0.141,0.127,0.302,0.218,0.484,0.269
	c0.183,0.052,0.384,0.054,0.602,0.008c0.226-0.048,0.415-0.12,0.572-0.214c0.157-0.095,0.29-0.215,0.406-0.355
	c0.439-0.538,0.56-1.155,0.56-1.155s0.019,0.233,0.027,0.326c0.01,0.096,0.024,0.19,0.046,0.287c0.05,0.24,0.17,0.406,0.362,0.497
	c0.189,0.092,0.422,0.107,0.693,0.05c0.164-0.034,0.313-0.085,0.448-0.149c0.136-0.064,0.258-0.139,0.368-0.218
	c0.11-0.08,0.207-0.163,0.293-0.248c0.084-0.086,0.16-0.167,0.225-0.244l-0.279-0.328c-0.084,0.074-0.162,0.14-0.233,0.194
	L84.577,91.978z M72.57,88.905c0.053,0.064,0.115,0.114,0.189,0.149c0.074,0.033,0.157,0.055,0.25,0.059
	c0.091,0.006,0.188-0.004,0.29-0.025c0.11-0.022,0.214-0.062,0.312-0.114c0.1-0.05,0.183-0.116,0.252-0.195s0.118-0.17,0.146-0.276
	c0.03-0.106,0.03-0.223,0.006-0.35c-0.021-0.104-0.061-0.187-0.116-0.25c-0.057-0.067-0.122-0.116-0.2-0.15
	c-0.077-0.033-0.162-0.053-0.255-0.055s-0.188,0.007-0.286,0.026c-0.114,0.024-0.22,0.062-0.32,0.113
	c-0.1,0.051-0.18,0.115-0.244,0.193c-0.064,0.08-0.109,0.17-0.138,0.274c-0.028,0.105-0.024,0.228,0.003,0.362
	c0.021,0.097,0.058,0.178,0.11,0.24V88.905z M65.742,94.632c-0.076-0.13-0.174-0.246-0.293-0.346
	c-0.12-0.101-0.26-0.185-0.426-0.255c-0.165-0.07-0.355-0.13-0.572-0.181c-0.197-0.043-0.368-0.083-0.513-0.119
	c-0.146-0.036-0.271-0.08-0.367-0.129c-0.1-0.048-0.177-0.104-0.233-0.172c-0.056-0.066-0.095-0.151-0.115-0.255
	c-0.021-0.09-0.021-0.18,0-0.265c0.02-0.085,0.058-0.166,0.112-0.24c0.056-0.072,0.126-0.136,0.214-0.189
	c0.087-0.055,0.189-0.096,0.31-0.12c0.133-0.028,0.25-0.021,0.353,0.023c0.104,0.044,0.194,0.112,0.272,0.202
	s0.143,0.196,0.192,0.316s0.09,0.239,0.113,0.364c0.326-0.069,0.572-0.18,0.737-0.329c0.165-0.15,0.224-0.354,0.172-0.601
	c-0.022-0.11-0.075-0.215-0.156-0.308c-0.08-0.095-0.194-0.167-0.346-0.221c-0.15-0.05-0.337-0.077-0.56-0.08
	c-0.227-0.003-0.49,0.028-0.801,0.095c-0.323,0.067-0.605,0.164-0.85,0.286c-0.24,0.122-0.437,0.267-0.59,0.433
	c-0.153,0.167-0.26,0.35-0.316,0.552c-0.06,0.2-0.062,0.415-0.017,0.643c0.038,0.18,0.1,0.34,0.185,0.472
	c0.086,0.132,0.192,0.246,0.318,0.343c0.127,0.097,0.271,0.177,0.438,0.242c0.165,0.066,0.348,0.122,0.545,0.168
	c0.196,0.05,0.369,0.096,0.514,0.137c0.145,0.043,0.268,0.09,0.367,0.143c0.1,0.054,0.18,0.116,0.235,0.189
	c0.058,0.07,0.098,0.16,0.12,0.268c0.022,0.109,0.021,0.215-0.007,0.31c-0.026,0.096-0.073,0.18-0.14,0.256
	c-0.064,0.076-0.147,0.143-0.25,0.195c-0.101,0.056-0.214,0.097-0.34,0.123c-0.167,0.036-0.315,0.032-0.445-0.012
	c-0.13-0.042-0.242-0.115-0.34-0.217c-0.096-0.1-0.177-0.223-0.24-0.366c-0.063-0.145-0.113-0.301-0.148-0.465
	c-0.122,0.025-0.239,0.065-0.353,0.119c-0.113,0.055-0.207,0.122-0.286,0.202c-0.077,0.08-0.134,0.179-0.17,0.29
	c-0.036,0.11-0.04,0.24-0.01,0.384c0.033,0.16,0.104,0.296,0.214,0.404c0.108,0.109,0.248,0.19,0.418,0.247
	c0.17,0.055,0.365,0.082,0.59,0.082s0.467-0.028,0.73-0.084c0.367-0.078,0.684-0.185,0.945-0.317
	c0.263-0.132,0.476-0.286,0.635-0.467c0.16-0.18,0.267-0.377,0.318-0.597s0.054-0.454,0-0.705c-0.033-0.17-0.088-0.32-0.163-0.45
	L65.742,94.632z M72.101,88.93l-0.221-0.376l-0.08,0.064c-0.072,0.053-0.156,0.09-0.253,0.109c-0.104,0.021-0.191,0.004-0.263-0.06
	c-0.07-0.06-0.147-0.163-0.175-0.3c-0.027-0.13-0.048-0.285-0.056-0.438c-0.007-0.149-0.01-0.314-0.01-0.491v-1.035
	c-0.002-0.084-0.003-0.174-0.002-0.269c0-0.096,0-0.188-0.003-0.283s-0.008-0.188-0.016-0.277c-0.011-0.092-0.022-0.177-0.038-0.255
	c-0.03-0.144-0.075-0.273-0.141-0.395c-0.06-0.12-0.145-0.22-0.247-0.303c-0.104-0.08-0.228-0.135-0.37-0.164
	c-0.147-0.03-0.316-0.022-0.51,0.02c-0.205,0.043-0.389,0.104-0.548,0.185c-0.739,0.374-1.079,1.29-1.079,1.29L68.04,84.93
	l-2.097,0.442v0.518l0.188-0.042c0.087-0.018,0.161-0.029,0.226-0.032c0.062-0.005,0.117,0.004,0.16,0.021
	c0.046,0.02,0.083,0.052,0.109,0.1c0.027,0.049,0.054,0.112,0.07,0.197c0.003,0.013,0.005,0.032,0.008,0.061
	c0.003,0.027,0.005,0.062,0.008,0.102l0.004,0.123c0,0.044,0.002,0.087,0,0.128v3.853l1.38-0.291v-2.298
	c0-1.388,0.554-2.058,0.704-2.195c0.094-0.087,0.185-0.15,0.29-0.172c0.08-0.019,0.149-0.016,0.205,0.008
	c0.057,0.021,0.104,0.057,0.144,0.102c0.04,0.046,0.07,0.101,0.095,0.16c0.023,0.062,0.04,0.12,0.055,0.178
	c0.016,0.075,0.025,0.162,0.032,0.261c0.005,0.1,0.011,0.195,0.011,0.295c0.003,0.1,0.004,0.193,0.005,0.284v0.23l0.006,0.767
	c0,0.49,0.028,0.87,0.084,1.137c0.062,0.298,0.205,0.512,0.43,0.64c0.223,0.127,0.512,0.153,0.865,0.078
	c0.166-0.035,0.315-0.086,0.45-0.15c0.133-0.066,0.25-0.143,0.354-0.228c0.104-0.085,0.194-0.178,0.271-0.274H72.101z
	 M74.627,94.082c-0.073,0.054-0.158,0.09-0.254,0.11c-0.102,0.021-0.188,0.002-0.26-0.061c-0.072-0.062-0.12-0.157-0.147-0.293
	c-0.024-0.13-0.042-0.27-0.05-0.422s-0.01-0.315-0.01-0.492l0.01-3.149l-2.184,0.464v0.52l0.188-0.044
	c0.087-0.02,0.162-0.03,0.227-0.034c0.062-0.005,0.116,0.002,0.16,0.021c0.046,0.02,0.082,0.054,0.109,0.1
	c0.03,0.05,0.053,0.115,0.07,0.2c0.003,0.01,0.005,0.03,0.008,0.06l0.007,0.101l0.005,0.124c0,0,0.002,0.086,0,0.128l0.002,1.8
	c-0.002,0.247,0.005,0.464,0.021,0.653c0.015,0.188,0.035,0.35,0.062,0.481c0.063,0.3,0.206,0.514,0.431,0.641
	c0.224,0.127,0.513,0.152,0.864,0.08c0.167-0.037,0.316-0.087,0.448-0.153c0.132-0.065,0.25-0.143,0.354-0.228
	c0.104-0.085,0.193-0.176,0.27-0.271c0.078-0.097,0.146-0.192,0.2-0.285l-0.286-0.267C74.783,93.956,74.701,94.028,74.627,94.082
	L74.627,94.082z M79.341,89.21c-0.264-0.756-1.392-0.822-2.022,0.104c-0.42,0.613-0.406,1.153-0.406,1.153l-0.038-1.317l-2.07,0.438
	l0.005,0.519l0.185-0.043c0.173-0.035,0.303-0.036,0.388-0.003c0.085,0.032,0.141,0.107,0.164,0.224
	c0.015,0.065,0.022,0.144,0.026,0.229l0.01,0.212v3.891l1.385-0.293l0.017-1.679c0.017-1.527,0.282-2.865,0.943-3.02
	c0.519-0.118,0.641,0.82,0.641,0.82c0.771-0.186,0.88-0.927,0.771-1.234L79.341,89.21z M87.613,91.166
	c-0.09,0.092-0.172,0.164-0.245,0.218c-0.073,0.053-0.158,0.09-0.254,0.11c-0.104,0.02-0.19,0.002-0.26-0.061
	c-0.07-0.06-0.12-0.157-0.148-0.294c-0.027-0.13-0.044-0.27-0.05-0.422c-0.007-0.149-0.01-0.313-0.01-0.49V85.11l-2.19,0.466v0.518
	l0.21-0.052c0.087-0.02,0.163-0.03,0.229-0.034c0.064-0.004,0.119,0.003,0.164,0.021c0.045,0.02,0.079,0.054,0.109,0.1
	c0.028,0.05,0.05,0.115,0.068,0.2l0.01,0.06c0,0.027,0.003,0.061,0.006,0.101c0,0.038,0.003,0.08,0.002,0.125v0.13l-0.006,3.772
	c0,0.49,0.027,0.87,0.083,1.137c0.062,0.298,0.205,0.51,0.43,0.64c0.224,0.126,0.511,0.152,0.864,0.077
	c0.17-0.035,0.32-0.086,0.452-0.152c0.132-0.065,0.25-0.142,0.354-0.227c0.103-0.085,0.19-0.176,0.271-0.272
	c0.08-0.096,0.142-0.191,0.197-0.285L87.613,91.166L87.613,91.166z"/>
<path fill="none" stroke="#D7D6D6" stroke-miterlimit="10" stroke-dasharray="4,3" d="M56.262,54l8.655,19.885 M65.997,39.4
	l10.07,2.649 M109.992,66.434l5.832,29.154 M87.369,100.187l4.492,4.49 M57.223,89.922l-5.13-0.642 M42.79,53.038l-6.735,16.998
	 M41.184,109.166l5.729,7.625 M128.425,104.676l8.07-17.04 M92.501,84.148l22.262-2.343 M17.455,76.452l2.492-18.397
	 M24.508,111.732l4.385,16.189 M72.619,146.372l20.4,1.15 M108.54,136.749l-11.546,5.771 M78.07,106.189l10.072,34.454
	 M113.947,79.389l22,7.333 M22.613,53.389l14.668-8"/>
</svg>
