<?xml version="1.0" encoding="utf-8"?>
<!-- Generator: Adobe Illustrator 16.0.0, SVG Export Plug-In . SVG Version: 6.00 Build 0)  -->
<!DOCTYPE svg PUBLIC "-//W3C//DTD SVG 1.1//EN" "http://www.w3.org/Graphics/SVG/1.1/DTD/svg11.dtd">
<svg version="1.1" id="Layer_1" xmlns="http://www.w3.org/2000/svg" xmlns:xlink="http://www.w3.org/1999/xlink" x="0px" y="0px"
	 width="491.679px" height="348.328px" viewBox="188.526 194.848 491.679 348.328"
	 enable-background="new 188.526 194.848 491.679 348.328" xml:space="preserve">
<g>
	<g enable-background="new    ">
		<path fill="#D6D6D6" d="M623.89,303.96l-0.208,4.284l-38.79,13.422l0.205-4.284L623.89,303.96z M232.155,368.88l0.208-4.284
			c0.36-7.433,2.023-14.856,5.021-22.184c11.874-29.016,43.21-53.01,88.231-67.56c9.674-3.126,19.916-5.745,30.424-7.78
			c84.282-16.32,180.503,4.678,229.058,50.31l-0.206,4.284c-48.556-45.633-144.776-66.63-229.058-50.31
			c-10.509,2.035-20.75,4.653-30.425,7.778c-45.02,14.55-76.357,38.545-88.229,67.562
			C234.18,354.023,232.516,361.446,232.155,368.88L232.155,368.88z"/>
		<path fill="#EFEFEF" d="M249.78,418.828c-12.463-15.968-18.441-32.972-17.625-49.937l0.208-4.283
			c-0.707,14.661,3.66,29.35,12.903,43.374l-0.05,1.064l0.05-1.062c4.628,7.021,10.479,13.877,17.522,20.478
			c54.1,50.69,161.895,74.21,256.325,55.92c11.771-2.278,23.217-5.202,34.048-8.7c65.58-21.189,102.378-59.646,104.32-100.51
			l-0.207,4.285c-1.942,40.861-38.74,79.317-104.32,100.51c-10.831,3.497-22.279,6.422-34.05,8.7
			c-94.43,18.287-202.225-5.23-256.323-55.92c-4.832-4.53-9.101-9.177-12.8-13.915c-0.213-0.43-0.438-0.854-0.658-1.28
			c0.22,0.427,0.445,0.851,0.66,1.28L249.78,418.828z M249.165,417.588l-0.022-0.043l-0.024-0.045l-0.024-0.05l-0.024-0.047
			l-0.025-0.049l-0.025-0.051l-0.024-0.05l-0.025-0.048l-0.023-0.048l-0.023-0.048l-0.023-0.045l-0.02-0.045l-0.022-0.043
			l-0.02-0.039l-0.019-0.041l-0.016-0.033l0.016,0.035l0.019,0.037l0.02,0.039l0.021,0.043l0.021,0.045l0.023,0.045l0.023,0.049
			l0.023,0.048l0.025,0.05l0.023,0.049l0.024,0.049l0.025,0.051l0.024,0.047l0.024,0.05l0.024,0.045l0.022,0.044 M248.767,416.623
			v0.024l0.002,0.016v0.016l0.004,0.019l0.004,0.018l0.002,0.019l0.004,0.02l0.004,0.018l0.003,0.02l0.002,0.018l0.003,0.017v0.017
			l0.003,0.016l0.002,0.014v0.012v-0.027l-0.003-0.015l-0.002-0.016l-0.003-0.017l-0.002-0.018l-0.004-0.02l-0.006-0.018
			l-0.003-0.02l-0.002-0.018l-0.004-0.018l-0.003-0.018v-0.015l-0.004-0.017v-0.026 M248.764,416.62l-0.1-0.217l-0.104-0.227
			l-0.104-0.232l-0.11-0.24l-0.108-0.245l-0.113-0.25l-0.114-0.25l-0.114-0.255l-0.112-0.256l-0.113-0.256l-0.113-0.254l-0.11-0.248
			l-0.109-0.248l-0.108-0.239l-0.104-0.236l-0.101-0.227l0.101,0.228l0.104,0.236l0.11,0.24l0.106,0.248l0.11,0.25l0.114,0.252
			l0.112,0.255l0.113,0.255l0.114,0.254l0.114,0.25l0.113,0.25l0.11,0.244l0.11,0.24l0.104,0.232l0.104,0.227L248.764,416.62
			 M247.019,412.745l-0.075-0.168l-0.086-0.182l-0.093-0.194l-0.098-0.21l-0.107-0.219l-0.113-0.229l-0.115-0.237l-0.122-0.244
			l-0.124-0.25l-0.13-0.258l-0.13-0.258l-0.131-0.262l-0.13-0.26l-0.133-0.262l-0.13-0.261l-0.13-0.255l0.13,0.256l0.13,0.26
			l0.132,0.26l0.13,0.261l0.131,0.263l0.13,0.258l0.13,0.258l0.124,0.25l0.122,0.244l0.115,0.239l0.113,0.228l0.107,0.221l0.1,0.208
			l0.092,0.194l0.085,0.182l0.074,0.168"/>
		<path fill="#D6D6D6" d="M658.688,375.37l-0.208,4.281c-1.987,41.103-38.99,79.681-104.832,100.956
			c-10.894,3.517-22.423,6.465-34.258,8.757c-95.019,18.399-203.48-5.268-257.907-56.268c-21.258-19.92-31.7-42.132-30.63-64.28
			l0.208-4.283c-1.07,22.146,9.374,44.359,30.632,64.28c54.424,51,162.888,74.666,257.906,56.265
			c11.834-2.293,23.362-5.24,34.256-8.757c65.843-21.274,102.844-59.854,104.834-100.954L658.688,375.37z M624.282,302.94
			c66.066,61.91,34.311,139.541-70.43,173.383c-10.893,3.518-22.422,6.464-34.256,8.756
			c-95.021,18.399-203.482-5.267-257.906-56.267c-28.439-26.648-37.524-57.403-25.573-86.612
			c11.943-29.2,43.493-53.35,88.812-67.995c9.744-3.145,20.045-5.783,30.63-7.832c84.663-16.396,181.296,4.61,230.04,49.947
			L624.282,302.94L624.282,302.94z M553.162,475.68c103.943-33.59,135.586-110.55,70.728-171.72l-38.793,13.422
			c-48.554-45.632-144.774-66.63-229.058-50.31c-10.511,2.035-20.75,4.654-30.426,7.78c-45.02,14.55-76.357,38.544-88.231,67.56
			c-11.864,29.016-2.85,59.575,25.406,86.046c54.1,50.69,161.894,74.21,256.324,55.92c11.771-2.278,23.218-5.202,34.048-8.7"/>
		<path fill="#D6D6D6" d="M657.48,375.229l-0.207,4.285c1.157-23.924-9.633-48.676-33.592-71.271l0.21-4.286
			C647.849,326.558,658.641,351.308,657.48,375.229L657.48,375.229z"/>
		<path fill="#FFFFFF" d="M356.039,267.072c84.282-16.322,180.504,4.678,228.759,49.875l39.092-12.988
			c64.855,61.17,33.217,138.13-70.728,171.718c-10.83,3.498-22.277,6.422-34.048,8.7c-94.432,18.29-202.226-5.229-256.325-55.92
			c-28.256-26.47-37.272-57.03-25.408-86.046c11.875-29.017,43.212-53.01,88.234-67.56c9.672-3.125,19.914-5.745,30.422-7.78
			L356.039,267.072z"/>
	</g>
	<ellipse fill="#EAEAEA" cx="405.701" cy="339.592" rx="11.917" ry="3.968"/>
	<g>
		<path fill="#E95A78" d="M398.741,302.338c4.91,3.55,8.437,3.55,14.127,0.002c2.184,2.77,2.934,5.897,3.493,9.316
			c0.216,1.307,0.58,4.375,0.517,5.697c-0.152,3.13-0.811,3.232-1.637,3.798c-0.352,0.242-0.518,0.832-0.583,1.285
			c-0.529,3.742-1.27,7.478-1.455,11.24c-0.282,5.702-6.55,7.583-10.359,6.02c-2.605-1.072-4.193-2.883-4.497-5.83
			c-0.39-3.807-0.96-7.598-1.525-11.385c-0.084-0.566-0.052-1.377-0.854-1.61c0,0-1.561-0.638-1.561-3.355
			c-0.08-4.916,0.717-9.69,3.355-13.986c0.18-0.292,0.798-1.037,0.977-1.192H398.741z M414.027,294.752
			c-0.07,4.498-3.865,8.197-8.373,8.16c-4.552-0.035-8.233-3.86-8.183-8.498c0.05-4.52,3.805-8.158,8.373-8.113
			C410.455,286.345,414.104,290.111,414.027,294.752L414.027,294.752z"/>
	</g>
	<ellipse fill="#EAEAEA" cx="508.48" cy="517.208" rx="11.917" ry="3.968"/>
	<g>
		<path fill="#00D096" d="M501.52,479.955c4.912,3.547,8.437,3.547,14.126,0c2.186,2.77,2.934,5.897,3.496,9.316
			c0.215,1.307,0.58,4.374,0.516,5.697c-0.149,3.13-0.808,3.23-1.635,3.797c-0.352,0.24-0.521,0.83-0.584,1.283
			c-0.53,3.742-1.271,7.48-1.456,11.24c-0.283,5.703-6.55,7.584-10.36,6.02c-2.605-1.069-4.192-2.882-4.497-5.83
			c-0.392-3.807-0.96-7.598-1.524-11.385c-0.085-0.565-0.053-1.377-0.854-1.609c0,0-1.56-0.639-1.56-3.354
			c-0.08-4.915,0.717-9.688,3.354-13.984C500.722,480.854,501.342,480.109,501.52,479.955L501.52,479.955z M516.807,472.367
			c-0.07,4.5-3.865,8.197-8.373,8.16c-4.553-0.035-8.234-3.86-8.184-8.497c0.05-4.521,3.805-8.158,8.371-8.114
			C513.234,463.959,516.88,467.726,516.807,472.367L516.807,472.367z"/>
	</g>
	<ellipse fill="#EAEAEA" cx="384.443" cy="396.208" rx="11.917" ry="3.968"/>
	<g>
		<path fill="#4F4E4E" d="M377.483,358.955c4.91,3.547,8.438,3.547,14.126,0c2.186,2.77,2.934,5.898,3.495,9.317
			c0.215,1.306,0.58,4.374,0.516,5.697c-0.149,3.13-0.808,3.23-1.634,3.798c-0.353,0.239-0.52,0.829-0.584,1.282
			c-0.53,3.742-1.27,7.479-1.457,11.24c-0.282,5.703-6.55,7.584-10.356,6.021c-2.607-1.07-4.195-2.883-4.498-5.83
			c-0.391-3.808-0.96-7.599-1.526-11.386c-0.084-0.565-0.052-1.377-0.853-1.61c0,0-1.561-0.638-1.561-3.354
			c-0.08-4.915,0.717-9.688,3.357-13.984C376.688,359.854,377.308,359.109,377.483,358.955L377.483,358.955z M392.77,351.367
			c-0.07,4.5-3.866,8.197-8.375,8.16c-4.55-0.035-8.233-3.86-8.182-8.497c0.05-4.52,3.805-8.158,8.369-8.114
			C389.197,342.959,392.843,346.726,392.77,351.367L392.77,351.367z"/>
	</g>
	<ellipse fill="#EAEAEA" cx="200.443" cy="358.208" rx="11.917" ry="3.968"/>
	<g>
		<path fill="#4F4E4E" d="M193.483,320.955c4.91,3.547,8.438,3.547,14.126,0c2.186,2.77,2.934,5.898,3.495,9.317
			c0.215,1.306,0.58,4.374,0.517,5.697c-0.15,3.13-0.809,3.23-1.635,3.797c-0.353,0.24-0.52,0.83-0.584,1.283
			c-0.529,3.742-1.27,7.48-1.457,11.24c-0.281,5.703-6.55,7.584-10.356,6.02c-2.607-1.07-4.195-2.882-4.498-5.83
			c-0.39-3.807-0.96-7.598-1.526-11.385c-0.084-0.566-0.052-1.377-0.853-1.61c0,0-1.561-0.638-1.561-3.354
			c-0.08-4.915,0.718-9.688,3.357-13.984C192.688,321.854,193.308,321.109,193.483,320.955L193.483,320.955z M208.77,313.367
			c-0.069,4.5-3.866,8.197-8.375,8.16c-4.55-0.035-8.232-3.86-8.182-8.497c0.05-4.521,3.805-8.158,8.37-8.114
			C205.197,304.959,208.843,308.726,208.77,313.367L208.77,313.367z"/>
	</g>
	<ellipse fill="#EAEAEA" cx="242.311" cy="482.023" rx="13.131" ry="4.372"/>
	<g>
		<path fill="#E95A78" d="M234.642,440.973c5.412,3.91,9.296,3.91,15.567,0.002c2.404,3.053,3.229,6.498,3.85,10.267
			c0.237,1.439,0.638,4.819,0.566,6.277c-0.166,3.45-0.891,3.562-1.8,4.187c-0.391,0.266-0.57,0.915-0.645,1.415
			c-0.585,4.122-1.397,8.238-1.604,12.385c-0.312,6.283-7.218,8.355-11.415,6.632c-2.872-1.18-4.62-3.176-4.956-6.423
			c-0.431-4.195-1.059-8.372-1.681-12.545c-0.093-0.625-0.058-1.52-0.939-1.776c0,0-1.72-0.701-1.72-3.694
			c-0.089-5.418,0.789-10.681,3.699-15.413c0.196-0.323,0.877-1.144,1.075-1.314L234.642,440.973z M251.484,432.613
			c-0.076,4.956-4.26,9.031-9.226,8.992c-5.017-0.04-9.074-4.255-9.017-9.365c0.055-4.98,4.191-8.99,9.226-8.94
			C247.55,423.35,251.567,427.498,251.484,432.613L251.484,432.613z"/>
	</g>
	<ellipse fill="#EAEAEA" cx="433.04" cy="435.804" rx="13.132" ry="4.372"/>
	<g>
		<path fill="#FFA800" d="M425.372,394.754c5.41,3.908,9.297,3.908,15.565,0c2.408,3.052,3.232,6.5,3.85,10.267
			c0.24,1.44,0.643,4.82,0.57,6.28c-0.167,3.45-0.89,3.56-1.802,4.185c-0.388,0.266-0.573,0.914-0.645,1.414
			c-0.584,4.123-1.396,8.239-1.603,12.386c-0.313,6.285-7.22,8.356-11.417,6.634c-2.873-1.18-4.62-3.176-4.956-6.423
			c-0.432-4.196-1.058-8.374-1.68-12.547c-0.096-0.624-0.061-1.517-0.94-1.774c0,0-1.72-0.701-1.72-3.695
			c-0.088-5.418,0.79-10.678,3.698-15.41C424.493,395.745,425.174,394.925,425.372,394.754L425.372,394.754z M442.216,386.394
			c-0.077,4.957-4.261,9.032-9.227,8.992c-5.018-0.039-9.074-4.253-9.02-9.363c0.057-4.98,4.192-8.99,9.227-8.94
			c5.083,0.046,9.101,4.196,9.021,9.31L442.216,386.394z"/>
	</g>
	<ellipse fill="#EAEAEA" cx="496.882" cy="435.804" rx="13.13" ry="4.372"/>
	<g>
		<path fill="#00ACD0" d="M489.215,394.754c5.41,3.908,9.293,3.908,15.563,0c2.407,3.052,3.23,6.5,3.851,10.267
			c0.236,1.44,0.64,4.82,0.567,6.28c-0.165,3.45-0.89,3.56-1.8,4.185c-0.39,0.266-0.573,0.914-0.645,1.414
			c-0.584,4.123-1.396,8.239-1.604,12.386c-0.312,6.285-7.22,8.356-11.416,6.634c-2.873-1.18-4.62-3.176-4.955-6.423
			c-0.432-4.196-1.06-8.374-1.683-12.547c-0.092-0.624-0.058-1.517-0.94-1.774c0,0-1.718-0.701-1.72-3.695
			c-0.087-5.418,0.793-10.678,3.698-15.41c0.199-0.324,0.882-1.145,1.08-1.314L489.215,394.754z M506.057,386.394
			c-0.078,4.957-4.26,9.032-9.228,8.992c-5.018-0.039-9.071-4.253-9.018-9.363c0.055-4.98,4.19-8.99,9.226-8.94
			c5.08,0.046,9.101,4.196,9.021,9.31L506.057,386.394z"/>
	</g>
	<ellipse fill="#EAEAEA" cx="643.393" cy="488.804" rx="13.13" ry="4.372"/>
	<g>
		<path fill="#FFA800" d="M635.724,447.754c5.412,3.908,9.297,3.908,15.564,0c2.407,3.052,3.234,6.5,3.854,10.268
			c0.236,1.439,0.64,4.819,0.568,6.279c-0.167,3.45-0.893,3.561-1.803,4.186c-0.388,0.265-0.572,0.914-0.644,1.413
			c-0.583,4.124-1.397,8.239-1.604,12.386c-0.31,6.285-7.218,8.356-11.416,6.634c-2.872-1.18-4.619-3.176-4.953-6.423
			c-0.433-4.196-1.061-8.374-1.683-12.547c-0.094-0.624-0.058-1.518-0.939-1.774c0,0-1.719-0.702-1.721-3.696
			c-0.086-5.417,0.79-10.677,3.698-15.409C634.847,448.745,635.529,447.925,635.724,447.754L635.724,447.754z M652.567,439.393
			c-0.077,4.958-4.26,9.033-9.226,8.993c-5.018-0.04-9.073-4.253-9.019-9.363c0.057-4.98,4.192-8.99,9.227-8.94
			c5.084,0.046,9.1,4.196,9.02,9.31L652.567,439.393z"/>
	</g>
	<ellipse fill="#EAEAEA" cx="451.343" cy="538.804" rx="13.13" ry="4.372"/>
	<g>
		<path fill="#80529B" d="M443.676,497.754c5.41,3.908,9.295,3.908,15.563,0c2.408,3.052,3.234,6.5,3.853,10.268
			c0.237,1.439,0.64,4.819,0.567,6.279c-0.167,3.45-0.89,3.561-1.8,4.186c-0.39,0.265-0.573,0.914-0.644,1.413
			c-0.587,4.124-1.4,8.239-1.606,12.386c-0.31,6.285-7.217,8.356-11.414,6.634c-2.874-1.18-4.62-3.176-4.956-6.423
			c-0.43-4.196-1.06-8.374-1.68-12.547c-0.094-0.624-0.06-1.518-0.94-1.774c0,0-1.72-0.702-1.72-3.695
			c-0.088-5.417,0.79-10.678,3.697-15.41C442.795,498.745,443.479,497.925,443.676,497.754L443.676,497.754z M460.52,489.393
			c-0.08,4.958-4.26,9.033-9.23,8.993c-5.017-0.04-9.069-4.253-9.015-9.363c0.053-4.98,4.19-8.99,9.224-8.94
			C456.58,480.128,460.599,484.278,460.52,489.393L460.52,489.393z"/>
	</g>
	<ellipse fill="#EAEAEA" cx="292.358" cy="251.017" rx="9.488" ry="3.159"/>
	<g>
		<path fill="#00ACD0" d="M286.818,221.356c3.91,2.825,6.717,2.825,11.246,0c1.74,2.206,2.335,4.696,2.783,7.42
			c0.17,1.038,0.462,3.48,0.41,4.534c-0.12,2.493-0.644,2.573-1.303,3.023c-0.279,0.19-0.413,0.662-0.465,1.023
			c-0.422,2.98-1.01,5.953-1.158,8.948c-0.226,4.54-5.215,6.038-8.247,4.792c-2.076-0.852-3.34-2.294-3.58-4.64
			c-0.313-3.032-0.767-6.05-1.216-9.065c-0.067-0.45-0.042-1.096-0.681-1.28c0,0-1.239-0.51-1.241-2.672
			c-0.062-3.914,0.569-7.715,2.672-11.135C286.183,222.074,286.675,221.48,286.818,221.356L286.818,221.356z M298.987,215.315
			c-0.056,3.582-3.076,6.526-6.666,6.497c-3.624-0.027-6.555-3.072-6.515-6.766c0.04-3.598,3.03-6.495,6.665-6.46
			C296.145,208.621,299.047,211.619,298.987,215.315L298.987,215.315z"/>
	</g>
	<ellipse fill="#EAEAEA" cx="484.59" cy="258.017" rx="9.486" ry="3.159"/>
	<g>
		<path fill="#80529B" d="M479.05,228.356c3.91,2.825,6.715,2.825,11.247,0c1.739,2.206,2.335,4.696,2.782,7.42
			c0.171,1.038,0.46,3.48,0.41,4.534c-0.12,2.493-0.644,2.573-1.302,3.023c-0.28,0.19-0.413,0.662-0.466,1.023
			c-0.42,2.98-1.01,5.953-1.158,8.948c-0.226,4.54-5.216,6.038-8.248,4.792c-2.076-0.852-3.34-2.294-3.58-4.64
			c-0.312-3.032-0.766-6.05-1.216-9.065c-0.066-0.45-0.04-1.096-0.68-1.28c0,0-1.24-0.51-1.242-2.672
			c-0.063-3.914,0.572-7.715,2.673-11.135C478.413,229.074,478.907,228.48,479.05,228.356L479.05,228.356z M491.22,222.315
			c-0.058,3.582-3.078,6.526-6.667,6.497c-3.625-0.027-6.556-3.072-6.517-6.766c0.04-3.598,3.028-6.495,6.666-6.46
			C488.372,215.621,491.278,218.619,491.22,222.315L491.22,222.315z"/>
	</g>
	<ellipse fill="#EAEAEA" cx="339.34" cy="281.017" rx="9.486" ry="3.159"/>
	<g>
		<path fill="#E95A78" d="M333.8,251.356c3.91,2.825,6.716,2.825,11.246,0c1.739,2.206,2.337,4.696,2.781,7.42
			c0.173,1.038,0.464,3.48,0.41,4.534c-0.12,2.493-0.643,2.573-1.3,3.023c-0.28,0.19-0.413,0.662-0.465,1.023
			c-0.423,2.98-1.01,5.953-1.16,8.948c-0.225,4.54-5.214,6.038-8.248,4.792c-2.075-0.852-3.34-2.294-3.58-4.64
			c-0.312-3.032-0.766-6.05-1.215-9.065c-0.067-0.45-0.04-1.096-0.68-1.28c0,0-1.24-0.51-1.24-2.672
			c-0.065-3.914,0.57-7.715,2.67-11.135C333.164,252.074,333.656,251.48,333.8,251.356L333.8,251.356z M345.97,245.315
			c-0.059,3.582-3.078,6.526-6.667,6.497c-3.626-0.027-6.557-3.072-6.517-6.766c0.04-3.598,3.03-6.495,6.666-6.46
			C343.125,238.621,346.028,241.619,345.97,245.315L345.97,245.315z"/>
	</g>
	<ellipse fill="#EAEAEA" cx="238.34" cy="300.017" rx="9.487" ry="3.159"/>
	<g>
		<path fill="#00D096" d="M232.8,270.356c3.91,2.825,6.716,2.825,11.246,0c1.74,2.206,2.337,4.696,2.782,7.42
			c0.172,1.038,0.463,3.48,0.409,4.534c-0.119,2.493-0.643,2.573-1.3,3.023c-0.279,0.19-0.413,0.662-0.465,1.023
			c-0.423,2.98-1.01,5.953-1.16,8.948c-0.225,4.54-5.214,6.038-8.248,4.792c-2.074-0.852-3.34-2.294-3.58-4.64
			c-0.312-3.032-0.766-6.05-1.215-9.065c-0.066-0.45-0.04-1.096-0.68-1.28c0,0-1.24-0.51-1.24-2.672
			c-0.064-3.914,0.57-7.715,2.67-11.135C232.164,271.074,232.656,270.48,232.8,270.356L232.8,270.356z M244.97,264.315
			c-0.058,3.582-3.078,6.526-6.667,6.497c-3.626-0.027-6.556-3.072-6.516-6.766c0.04-3.598,3.029-6.495,6.666-6.46
			C242.125,257.621,245.028,260.619,244.97,264.315L244.97,264.315z"/>
	</g>
	<ellipse fill="#EAEAEA" cx="546.34" cy="267.017" rx="9.486" ry="3.159"/>
	<g>
		<path fill="#FFA800" d="M540.8,237.356c3.909,2.825,6.716,2.825,11.246,0c1.739,2.206,2.337,4.696,2.781,7.42
			c0.172,1.038,0.463,3.48,0.41,4.534c-0.12,2.493-0.643,2.573-1.3,3.023c-0.28,0.19-0.413,0.662-0.465,1.023
			c-0.423,2.98-1.01,5.953-1.16,8.948c-0.225,4.54-5.214,6.038-8.248,4.792c-2.075-0.852-3.34-2.294-3.58-4.64
			c-0.312-3.032-0.766-6.05-1.215-9.065c-0.067-0.45-0.04-1.096-0.68-1.28c0,0-1.24-0.51-1.24-2.672
			c-0.065-3.914,0.57-7.715,2.67-11.135C540.163,238.074,540.656,237.48,540.8,237.356L540.8,237.356z M552.97,231.315
			c-0.059,3.582-3.078,6.526-6.667,6.497c-3.626-0.027-6.557-3.072-6.517-6.766c0.04-3.598,3.03-6.495,6.666-6.46
			C550.125,224.621,553.028,227.619,552.97,231.315L552.97,231.315z"/>
	</g>
	<ellipse fill="#EAEAEA" cx="670.717" cy="327.017" rx="9.487" ry="3.159"/>
	<g>
		<path fill="#4F4E4E" d="M665.176,297.356c3.91,2.825,6.718,2.825,11.247,0c1.739,2.206,2.336,4.696,2.784,7.42
			c0.17,1.038,0.46,3.48,0.409,4.534c-0.12,2.493-0.644,2.573-1.302,3.023c-0.28,0.19-0.413,0.662-0.465,1.023
			c-0.422,2.98-1.01,5.953-1.16,8.948c-0.225,4.54-5.214,6.038-8.246,4.792c-2.076-0.852-3.34-2.294-3.58-4.64
			c-0.312-3.032-0.767-6.05-1.217-9.065c-0.066-0.45-0.04-1.096-0.68-1.28c0,0-1.24-0.51-1.24-2.672
			c-0.062-3.914,0.57-7.715,2.672-11.135C664.539,298.074,665.033,297.48,665.176,297.356L665.176,297.356z M677.347,291.315
			c-0.058,3.582-3.078,6.526-6.668,6.497c-3.624-0.027-6.558-3.072-6.516-6.766c0.038-3.598,3.028-6.495,6.665-6.46
			C674.501,284.621,677.404,287.619,677.347,291.315L677.347,291.315z"/>
	</g>
	<ellipse opacity="0.2" fill="#FFA800" enable-background="new    " cx="305.538" cy="342.831" rx="57" ry="34.845"/>
	
		<ellipse transform="matrix(0.1231 -0.9924 0.9924 0.1231 108.6331 744.9543)" opacity="0.2" fill="#00ACD0" enable-background="new    " cx="475.832" cy="311.01" rx="34.061" ry="51.715"/>
	
		<ellipse transform="matrix(0.2161 -0.9764 0.9764 0.2161 -160.8311 681.5614)" opacity="0.2" fill="#00D096" enable-background="new    " cx="344.034" cy="440.94" rx="25.49" ry="48.481"/>
	
		<ellipse transform="matrix(0.027 -0.9996 0.9996 0.027 71.1502 660.0295)" opacity="0.2" fill="#80529B" enable-background="new    " cx="374.624" cy="293.466" rx="11.339" ry="19.985"/>
	
		<ellipse transform="matrix(0.027 -0.9996 0.9996 0.027 71.1502 660.0295)" fill="none" cx="374.624" cy="293.466" rx="11.339" ry="19.985"/>
	
		<ellipse transform="matrix(-0.5391 -0.8422 0.8422 -0.5391 567.8624 1126.9736)" opacity="0.2" fill="#E95A78" enable-background="new    " cx="592.27" cy="408.12" rx="33.177" ry="60.882"/>
	<ellipse fill="#EAEAEA" cx="280.451" cy="363.208" rx="11.916" ry="3.968"/>
	<g>
		<path fill="#C2C2C4" d="M273.493,325.955c4.909,3.547,8.434,3.547,14.125,0c2.186,2.77,2.934,5.898,3.495,9.317
			c0.215,1.306,0.58,4.374,0.516,5.697c-0.15,3.13-0.811,3.23-1.635,3.797c-0.354,0.24-0.521,0.83-0.585,1.283
			c-0.53,3.742-1.269,7.48-1.455,11.24c-0.283,5.703-6.551,7.584-10.36,6.02c-2.605-1.07-4.193-2.882-4.496-5.83
			c-0.393-3.807-0.963-7.598-1.527-11.385c-0.084-0.566-0.052-1.377-0.854-1.61c0,0-1.56-0.638-1.56-3.354
			c-0.08-4.915,0.718-9.688,3.354-13.984c0.178-0.292,0.798-1.037,0.979-1.19L273.493,325.955z M288.777,318.367
			c-0.069,4.5-3.864,8.197-8.373,8.16c-4.553-0.035-8.232-3.86-8.184-8.497c0.05-4.521,3.804-8.158,8.373-8.114
			C285.203,309.959,288.853,313.726,288.777,318.367L288.777,318.367z"/>
	</g>
	<ellipse fill="#EAEAEA" cx="303.751" cy="320.017" rx="9.486" ry="3.159"/>
	<g>
		<path fill="#C2C2C4" d="M298.21,290.356c3.909,2.825,6.717,2.825,11.246,0c1.74,2.206,2.338,4.696,2.784,7.42
			c0.17,1.038,0.462,3.48,0.41,4.534c-0.12,2.493-0.644,2.573-1.3,3.023c-0.28,0.19-0.415,0.662-0.466,1.023
			c-0.422,2.98-1.01,5.953-1.16,8.948c-0.225,4.54-5.214,6.038-8.248,4.792c-2.074-0.852-3.338-2.294-3.58-4.64
			c-0.31-3.032-0.764-6.05-1.215-9.065c-0.065-0.45-0.04-1.096-0.68-1.28c0,0-1.24-0.51-1.24-2.672
			c-0.062-3.914,0.57-7.715,2.672-11.135c0.144-0.229,0.637-0.824,0.78-0.947L298.21,290.356z M310.38,284.315
			c-0.057,3.582-3.077,6.526-6.666,6.497c-3.624-0.027-6.556-3.072-6.516-6.766c0.039-3.598,3.029-6.495,6.665-6.46
			C307.535,277.621,310.438,280.619,310.38,284.315L310.38,284.315z"/>
	</g>
	<ellipse fill="#EAEAEA" cx="327.48" cy="360.208" rx="11.917" ry="3.968"/>
	<g>
		<path fill="#C2C2C4" d="M320.52,322.955c4.912,3.547,8.437,3.547,14.126,0c2.186,2.77,2.934,5.898,3.496,9.317
			c0.215,1.306,0.58,4.374,0.516,5.697c-0.149,3.13-0.808,3.23-1.635,3.797c-0.352,0.24-0.52,0.83-0.584,1.283
			c-0.53,3.742-1.27,7.48-1.456,11.24c-0.283,5.703-6.55,7.584-10.36,6.02c-2.605-1.07-4.192-2.882-4.497-5.83
			c-0.392-3.807-0.96-7.598-1.524-11.385c-0.085-0.566-0.053-1.377-0.854-1.61c0,0-1.56-0.638-1.56-3.354
			c-0.08-4.915,0.717-9.688,3.354-13.984C319.722,323.854,320.342,323.109,320.52,322.955L320.52,322.955z M335.807,315.367
			c-0.07,4.5-3.865,8.197-8.373,8.16c-4.553-0.035-8.234-3.86-8.184-8.497c0.05-4.521,3.805-8.158,8.371-8.114
			C332.234,306.959,335.88,310.726,335.807,315.367L335.807,315.367z"/>
	</g>
	<g opacity="0.7">
		<ellipse fill="#FFA800" cx="280.451" cy="363.208" rx="11.916" ry="3.968"/>
		<g>
			<path fill="#FFA800" d="M273.493,325.955c4.909,3.547,8.434,3.547,14.125,0c2.186,2.77,2.934,5.898,3.495,9.317
				c0.215,1.306,0.58,4.374,0.516,5.697c-0.15,3.13-0.811,3.23-1.635,3.797c-0.354,0.24-0.521,0.83-0.585,1.283
				c-0.53,3.742-1.269,7.48-1.455,11.24c-0.283,5.703-6.551,7.584-10.36,6.02c-2.605-1.07-4.193-2.882-4.496-5.83
				c-0.393-3.807-0.963-7.598-1.527-11.385c-0.084-0.566-0.052-1.377-0.854-1.61c0,0-1.56-0.638-1.56-3.354
				c-0.08-4.915,0.718-9.688,3.354-13.984c0.178-0.292,0.798-1.037,0.979-1.19L273.493,325.955z M288.777,318.367
				c-0.069,4.5-3.864,8.197-8.373,8.16c-4.553-0.035-8.232-3.86-8.184-8.497c0.05-4.521,3.804-8.158,8.373-8.114
				C285.203,309.959,288.853,313.726,288.777,318.367L288.777,318.367z"/>
		</g>
	</g>
	<g opacity="0.7">
		<ellipse fill="#FFA800" cx="303.751" cy="320.017" rx="9.486" ry="3.159"/>
		<g>
			<path fill="#FFA800" d="M298.21,290.356c3.909,2.825,6.717,2.825,11.246,0c1.74,2.206,2.338,4.696,2.784,7.42
				c0.17,1.038,0.462,3.48,0.41,4.534c-0.12,2.493-0.644,2.573-1.3,3.023c-0.28,0.19-0.415,0.662-0.466,1.023
				c-0.422,2.98-1.01,5.953-1.16,8.948c-0.225,4.54-5.214,6.038-8.248,4.792c-2.074-0.852-3.338-2.294-3.58-4.64
				c-0.31-3.032-0.764-6.05-1.215-9.065c-0.065-0.45-0.04-1.096-0.68-1.28c0,0-1.24-0.51-1.24-2.672
				c-0.062-3.914,0.57-7.715,2.672-11.135c0.144-0.229,0.637-0.824,0.78-0.947L298.21,290.356z M310.38,284.315
				c-0.057,3.582-3.077,6.526-6.666,6.497c-3.624-0.027-6.556-3.072-6.516-6.766c0.039-3.598,3.029-6.495,6.665-6.46
				C307.535,277.621,310.438,280.619,310.38,284.315L310.38,284.315z"/>
		</g>
	</g>
	<g opacity="0.7">
		<ellipse fill="#FFA800" cx="327.48" cy="360.208" rx="11.917" ry="3.968"/>
		<g>
			<path fill="#FFA800" d="M320.52,322.955c4.912,3.547,8.437,3.547,14.126,0c2.186,2.77,2.934,5.898,3.496,9.317
				c0.215,1.306,0.58,4.374,0.516,5.697c-0.149,3.13-0.808,3.23-1.635,3.797c-0.352,0.24-0.52,0.83-0.584,1.283
				c-0.53,3.742-1.27,7.48-1.456,11.24c-0.283,5.703-6.55,7.584-10.36,6.02c-2.605-1.07-4.192-2.882-4.497-5.83
				c-0.392-3.807-0.96-7.598-1.524-11.385c-0.085-0.566-0.053-1.377-0.854-1.61c0,0-1.56-0.638-1.56-3.354
				c-0.08-4.915,0.717-9.688,3.354-13.984C319.722,323.854,320.342,323.109,320.52,322.955L320.52,322.955z M335.807,315.367
				c-0.07,4.5-3.865,8.197-8.373,8.16c-4.553-0.035-8.234-3.86-8.184-8.497c0.05-4.521,3.805-8.158,8.371-8.114
				C332.234,306.959,335.88,310.726,335.807,315.367L335.807,315.367z"/>
		</g>
	</g>
	<ellipse fill="#EAEAEA" cx="363.04" cy="457.804" rx="13.132" ry="4.372"/>
	<g>
		<path fill="#C2C2C4" d="M355.372,416.754c5.41,3.908,9.297,3.908,15.565,0c2.408,3.052,3.232,6.5,3.85,10.268
			c0.24,1.439,0.643,4.819,0.57,6.279c-0.167,3.45-0.89,3.561-1.802,4.186c-0.388,0.265-0.573,0.914-0.645,1.413
			c-0.584,4.124-1.396,8.239-1.603,12.386c-0.313,6.285-7.22,8.356-11.417,6.634c-2.873-1.18-4.62-3.176-4.956-6.423
			c-0.432-4.196-1.058-8.374-1.68-12.547c-0.096-0.624-0.061-1.518-0.94-1.774c0,0-1.72-0.702-1.72-3.696
			c-0.088-5.417,0.79-10.677,3.698-15.409C354.493,417.745,355.174,416.925,355.372,416.754L355.372,416.754z M372.216,408.394
			c-0.077,4.957-4.261,9.032-9.227,8.992c-5.018-0.039-9.074-4.253-9.02-9.363c0.057-4.98,4.192-8.99,9.227-8.94
			c5.083,0.046,9.101,4.196,9.021,9.31L372.216,408.394z"/>
	</g>
	<ellipse fill="#EAEAEA" cx="322.393" cy="437.804" rx="13.13" ry="4.372"/>
	<g>
		<path fill="#C2C2C4" d="M314.724,396.754c5.412,3.908,9.297,3.908,15.564,0c2.407,3.052,3.234,6.5,3.854,10.267
			c0.236,1.44,0.64,4.82,0.568,6.28c-0.167,3.45-0.893,3.56-1.803,4.185c-0.388,0.266-0.572,0.914-0.644,1.414
			c-0.583,4.124-1.397,8.239-1.604,12.386c-0.31,6.285-7.218,8.356-11.416,6.634c-2.872-1.18-4.619-3.176-4.954-6.423
			c-0.432-4.196-1.06-8.374-1.682-12.547c-0.094-0.624-0.058-1.517-0.939-1.774c0,0-1.719-0.701-1.721-3.695
			c-0.086-5.418,0.79-10.678,3.698-15.41C313.847,397.745,314.529,396.925,314.724,396.754L314.724,396.754z M331.567,388.394
			c-0.077,4.957-4.26,9.032-9.226,8.992c-5.018-0.039-9.073-4.253-9.019-9.363c0.057-4.98,4.192-8.99,9.227-8.94
			c5.084,0.046,9.1,4.196,9.02,9.31L331.567,388.394z"/>
	</g>
	<g opacity="0.6">
		<ellipse fill="#00D096" cx="363.04" cy="457.804" rx="13.132" ry="4.372"/>
		<g>
			<path fill="#00D096" d="M355.372,416.754c5.41,3.908,9.297,3.908,15.565,0c2.408,3.052,3.232,6.5,3.85,10.268
				c0.24,1.439,0.643,4.819,0.57,6.279c-0.167,3.45-0.89,3.561-1.802,4.186c-0.388,0.265-0.573,0.914-0.645,1.413
				c-0.584,4.124-1.396,8.239-1.603,12.386c-0.313,6.285-7.22,8.356-11.417,6.634c-2.873-1.18-4.62-3.176-4.956-6.423
				c-0.432-4.196-1.058-8.374-1.68-12.547c-0.096-0.624-0.061-1.518-0.94-1.774c0,0-1.72-0.702-1.72-3.696
				c-0.088-5.417,0.79-10.677,3.698-15.409C354.493,417.745,355.174,416.925,355.372,416.754L355.372,416.754z M372.216,408.394
				c-0.077,4.957-4.261,9.032-9.227,8.992c-5.018-0.039-9.074-4.253-9.02-9.363c0.057-4.98,4.192-8.99,9.227-8.94
				c5.083,0.046,9.101,4.196,9.021,9.31L372.216,408.394z"/>
		</g>
	</g>
	<g opacity="0.6">
		<ellipse fill="#00D096" cx="322.393" cy="437.804" rx="13.13" ry="4.372"/>
		<g>
			<path fill="#00D096" d="M314.724,396.754c5.412,3.908,9.297,3.908,15.564,0c2.407,3.052,3.234,6.5,3.854,10.267
				c0.236,1.44,0.64,4.82,0.568,6.28c-0.167,3.45-0.893,3.56-1.803,4.185c-0.388,0.266-0.572,0.914-0.644,1.414
				c-0.583,4.124-1.397,8.239-1.604,12.386c-0.31,6.285-7.218,8.356-11.416,6.634c-2.872-1.18-4.619-3.176-4.954-6.423
				c-0.432-4.196-1.06-8.374-1.682-12.547c-0.094-0.624-0.058-1.517-0.939-1.774c0,0-1.719-0.701-1.721-3.695
				c-0.086-5.418,0.79-10.678,3.698-15.41C313.847,397.745,314.529,396.925,314.724,396.754L314.724,396.754z M331.567,388.394
				c-0.077,4.957-4.26,9.032-9.226,8.992c-5.018-0.039-9.073-4.253-9.019-9.363c0.057-4.98,4.192-8.99,9.227-8.94
				c5.084,0.046,9.1,4.196,9.02,9.31L331.567,388.394z"/>
		</g>
	</g>
	<ellipse fill="#EAEAEA" cx="592.393" cy="382.804" rx="13.13" ry="4.372"/>
	<g>
		<path fill="#C2C2C4" d="M584.724,341.754c5.412,3.908,9.297,3.908,15.564,0c2.407,3.052,3.234,6.5,3.854,10.267
			c0.236,1.44,0.64,4.82,0.568,6.28c-0.167,3.45-0.893,3.56-1.803,4.185c-0.388,0.265-0.572,0.914-0.644,1.413
			c-0.583,4.124-1.397,8.241-1.604,12.386c-0.31,6.284-7.218,8.356-11.416,6.634c-2.872-1.18-4.619-3.176-4.953-6.423
			c-0.433-4.196-1.061-8.374-1.683-12.547c-0.094-0.624-0.058-1.517-0.939-1.774c0,0-1.719-0.702-1.721-3.696
			c-0.086-5.417,0.79-10.677,3.698-15.41C583.847,342.745,584.529,341.925,584.724,341.754L584.724,341.754z M601.567,333.393
			c-0.077,4.958-4.26,9.033-9.226,8.993c-5.018-0.04-9.073-4.253-9.019-9.364c0.057-4.98,4.192-8.99,9.227-8.94
			c5.084,0.046,9.1,4.196,9.02,9.31L601.567,333.393z"/>
	</g>
	<ellipse fill="#EAEAEA" cx="567.305" cy="432.804" rx="13.13" ry="4.372"/>
	<g>
		<path fill="#C2C2C4" d="M559.637,391.754c5.412,3.908,9.296,3.908,15.564,0c2.408,3.052,3.232,6.5,3.854,10.267
			c0.236,1.44,0.64,4.82,0.568,6.28c-0.171,3.45-0.891,3.56-1.801,4.185c-0.39,0.266-0.573,0.914-0.646,1.414
			c-0.584,4.123-1.4,8.239-1.604,12.386c-0.312,6.285-7.217,8.356-11.413,6.634c-2.873-1.18-4.623-3.176-4.957-6.423
			c-0.43-4.196-1.06-8.374-1.682-12.547c-0.092-0.624-0.057-1.517-0.94-1.774c0,0-1.717-0.701-1.718-3.695
			c-0.087-5.418,0.79-10.678,3.7-15.41C558.759,392.745,559.443,391.925,559.637,391.754L559.637,391.754z M576.48,383.394
			c-0.078,4.957-4.26,9.032-9.229,8.992c-5.014-0.039-9.07-4.253-9.016-9.363c0.054-4.98,4.193-8.99,9.225-8.94
			c5.084,0.046,9.103,4.196,9.021,9.31V383.394z"/>
	</g>
	<ellipse fill="#EAEAEA" cx="622.041" cy="408.804" rx="13.131" ry="4.372"/>
	<g>
		<path fill="#C2C2C4" d="M614.372,367.754c5.41,3.908,9.297,3.908,15.565,0c2.408,3.052,3.232,6.5,3.85,10.267
			c0.24,1.44,0.643,4.82,0.57,6.28c-0.167,3.45-0.89,3.56-1.802,4.185c-0.388,0.266-0.573,0.914-0.645,1.414
			c-0.584,4.123-1.396,8.24-1.603,12.386c-0.313,6.284-7.22,8.356-11.417,6.634c-2.873-1.18-4.62-3.176-4.956-6.423
			c-0.432-4.196-1.058-8.374-1.68-12.547c-0.096-0.624-0.061-1.517-0.94-1.774c0,0-1.72-0.701-1.72-3.695
			c-0.088-5.418,0.79-10.678,3.698-15.411C613.493,368.745,614.174,367.925,614.372,367.754L614.372,367.754z M631.216,359.393
			c-0.077,4.958-4.261,9.033-9.227,8.993c-5.018-0.04-9.073-4.253-9.02-9.364c0.057-4.98,4.192-8.99,9.227-8.94
			C627.28,350.128,631.297,354.278,631.216,359.393L631.216,359.393z"/>
	</g>
	<g opacity="0.6">
		<ellipse fill="#E95A78" cx="592.393" cy="382.804" rx="13.13" ry="4.372"/>
		<g>
			<path fill="#E95A78" d="M584.724,341.754c5.412,3.908,9.297,3.908,15.564,0c2.407,3.052,3.234,6.5,3.854,10.267
				c0.236,1.44,0.64,4.82,0.568,6.28c-0.167,3.45-0.893,3.56-1.803,4.185c-0.388,0.265-0.572,0.914-0.644,1.413
				c-0.583,4.124-1.397,8.241-1.604,12.386c-0.31,6.284-7.218,8.356-11.416,6.634c-2.872-1.18-4.619-3.176-4.953-6.423
				c-0.433-4.196-1.061-8.374-1.683-12.547c-0.094-0.624-0.058-1.517-0.939-1.774c0,0-1.719-0.702-1.721-3.696
				c-0.086-5.417,0.79-10.677,3.698-15.41C583.847,342.745,584.529,341.925,584.724,341.754L584.724,341.754z M601.567,333.393
				c-0.077,4.958-4.26,9.033-9.226,8.993c-5.018-0.04-9.073-4.253-9.019-9.364c0.057-4.98,4.192-8.99,9.227-8.94
				c5.084,0.046,9.1,4.196,9.02,9.31L601.567,333.393z"/>
		</g>
	</g>
	<g opacity="0.6">
		<ellipse fill="#E95A78" cx="567.305" cy="432.804" rx="13.13" ry="4.372"/>
		<g>
			<path fill="#E95A78" d="M559.637,391.754c5.412,3.908,9.296,3.908,15.564,0c2.408,3.052,3.232,6.5,3.854,10.267
				c0.236,1.44,0.64,4.82,0.568,6.28c-0.171,3.45-0.891,3.56-1.801,4.185c-0.39,0.266-0.573,0.914-0.646,1.414
				c-0.584,4.123-1.4,8.239-1.604,12.386c-0.312,6.285-7.217,8.356-11.413,6.634c-2.873-1.18-4.623-3.176-4.957-6.423
				c-0.43-4.196-1.06-8.374-1.682-12.547c-0.092-0.624-0.057-1.517-0.94-1.774c0,0-1.717-0.701-1.718-3.695
				c-0.087-5.418,0.79-10.678,3.7-15.41C558.759,392.745,559.443,391.925,559.637,391.754L559.637,391.754z M576.48,383.394
				c-0.078,4.957-4.26,9.032-9.229,8.992c-5.014-0.039-9.07-4.253-9.016-9.363c0.054-4.98,4.193-8.99,9.225-8.94
				c5.084,0.046,9.103,4.196,9.021,9.31V383.394z"/>
		</g>
	</g>
	<g opacity="0.6">
		<ellipse fill="#E95A78" cx="622.041" cy="408.804" rx="13.131" ry="4.372"/>
		<g>
			<path fill="#E95A78" d="M614.372,367.754c5.41,3.908,9.297,3.908,15.565,0c2.408,3.052,3.232,6.5,3.85,10.267
				c0.24,1.44,0.643,4.82,0.57,6.28c-0.167,3.45-0.89,3.56-1.802,4.185c-0.388,0.266-0.573,0.914-0.645,1.414
				c-0.584,4.123-1.396,8.24-1.603,12.386c-0.313,6.284-7.22,8.356-11.417,6.634c-2.873-1.18-4.62-3.176-4.956-6.423
				c-0.432-4.196-1.058-8.374-1.68-12.547c-0.096-0.624-0.061-1.517-0.94-1.774c0,0-1.72-0.701-1.72-3.695
				c-0.088-5.418,0.79-10.678,3.698-15.411C613.493,368.745,614.174,367.925,614.372,367.754L614.372,367.754z M631.216,359.393
				c-0.077,4.958-4.261,9.033-9.227,8.993c-5.018-0.04-9.073-4.253-9.02-9.364c0.057-4.98,4.192-8.99,9.227-8.94
				C627.28,350.128,631.297,354.278,631.216,359.393L631.216,359.393z"/>
		</g>
	</g>
	<ellipse fill="#EAEAEA" cx="467.846" cy="337.208" rx="11.916" ry="3.968"/>
	<g>
		<path fill="#C2C2C4" d="M460.887,299.955c4.91,3.547,8.436,3.547,14.125,0c2.186,2.77,2.936,5.898,3.497,9.317
			c0.213,1.306,0.578,4.374,0.515,5.697c-0.152,3.13-0.81,3.23-1.636,3.797c-0.354,0.24-0.521,0.83-0.585,1.283
			c-0.53,3.742-1.271,7.48-1.455,11.24c-0.283,5.703-6.55,7.584-10.36,6.02c-2.605-1.07-4.192-2.882-4.496-5.83
			c-0.392-3.807-0.96-7.598-1.525-11.385c-0.085-0.566-0.054-1.377-0.854-1.61c0,0-1.56-0.638-1.56-3.354
			c-0.08-4.915,0.717-9.688,3.354-13.984c0.181-0.292,0.801-1.037,0.978-1.19L460.887,299.955z M476.172,292.367
			c-0.07,4.5-3.865,8.197-8.373,8.16c-4.555-0.035-8.235-3.86-8.186-8.497c0.05-4.521,3.806-8.158,8.372-8.114
			C472.599,283.959,476.243,287.726,476.172,292.367L476.172,292.367z"/>
	</g>
	<ellipse fill="#EAEAEA" cx="504.484" cy="311.73" rx="9.488" ry="3.158"/>
	<g>
		<path fill="#C2C2C4" d="M498.942,282.07c3.91,2.824,6.717,2.824,11.248,0c1.738,2.205,2.335,4.695,2.782,7.418
			c0.172,1.04,0.46,3.481,0.41,4.536c-0.12,2.493-0.645,2.573-1.303,3.023c-0.279,0.192-0.411,0.66-0.464,1.022
			c-0.423,2.978-1.01,5.952-1.16,8.948c-0.225,4.54-5.214,6.037-8.247,4.792c-2.075-0.853-3.34-2.294-3.581-4.642
			c-0.312-3.03-0.766-6.05-1.216-9.063c-0.065-0.45-0.04-1.097-0.68-1.282c0,0-1.24-0.508-1.24-2.672
			c-0.064-3.912,0.57-7.714,2.67-11.134C498.307,282.786,498.8,282.193,498.942,282.07L498.942,282.07z M511.112,276.03
			c-0.056,3.58-3.077,6.525-6.666,6.497c-3.624-0.03-6.557-3.074-6.516-6.768c0.04-3.6,3.028-6.495,6.666-6.46
			C508.269,269.335,511.172,272.333,511.112,276.03L511.112,276.03z"/>
	</g>
	<ellipse fill="#EAEAEA" cx="450.717" cy="286.017" rx="9.487" ry="3.159"/>
	<g>
		<path fill="#C2C2C4" d="M445.176,256.356c3.91,2.825,6.718,2.825,11.247,0c1.739,2.206,2.336,4.696,2.783,7.42
			c0.171,1.038,0.46,3.48,0.41,4.534c-0.12,2.493-0.644,2.573-1.302,3.023c-0.28,0.19-0.413,0.662-0.465,1.023
			c-0.422,2.98-1.01,5.953-1.16,8.948c-0.225,4.54-5.214,6.038-8.246,4.792c-2.076-0.852-3.34-2.294-3.58-4.64
			c-0.312-3.032-0.767-6.05-1.217-9.065c-0.066-0.45-0.04-1.096-0.68-1.28c0,0-1.24-0.51-1.24-2.672
			c-0.063-3.914,0.57-7.715,2.672-11.135C444.538,257.074,445.033,256.48,445.176,256.356L445.176,256.356z M457.347,250.315
			c-0.058,3.582-3.078,6.526-6.668,6.497c-3.624-0.027-6.558-3.072-6.516-6.766c0.038-3.598,3.028-6.495,6.665-6.46
			C454.502,243.621,457.404,246.619,457.347,250.315L457.347,250.315z"/>
	</g>
	<g opacity="0.6">
		<ellipse fill="#00ACD0" cx="467.846" cy="337.208" rx="11.916" ry="3.968"/>
		<g>
			<path fill="#00ACD0" d="M460.887,299.955c4.91,3.547,8.436,3.547,14.125,0c2.186,2.77,2.936,5.898,3.497,9.317
				c0.213,1.306,0.578,4.374,0.515,5.697c-0.152,3.13-0.81,3.23-1.636,3.797c-0.354,0.24-0.521,0.83-0.585,1.283
				c-0.53,3.742-1.271,7.48-1.455,11.24c-0.283,5.703-6.55,7.584-10.36,6.02c-2.605-1.07-4.192-2.882-4.496-5.83
				c-0.392-3.807-0.96-7.598-1.525-11.385c-0.085-0.566-0.054-1.377-0.854-1.61c0,0-1.56-0.638-1.56-3.354
				c-0.08-4.915,0.717-9.688,3.354-13.984c0.181-0.292,0.801-1.037,0.978-1.19L460.887,299.955z M476.172,292.367
				c-0.07,4.5-3.865,8.197-8.373,8.16c-4.555-0.035-8.235-3.86-8.186-8.497c0.05-4.521,3.806-8.158,8.372-8.114
				C472.599,283.959,476.243,287.726,476.172,292.367L476.172,292.367z"/>
		</g>
	</g>
	<g opacity="0.6">
		<ellipse fill="#00ACD0" cx="504.484" cy="311.73" rx="9.488" ry="3.158"/>
		<g>
			<path fill="#00ACD0" d="M498.942,282.07c3.91,2.824,6.717,2.824,11.248,0c1.738,2.205,2.335,4.695,2.782,7.418
				c0.172,1.04,0.46,3.481,0.41,4.536c-0.12,2.493-0.645,2.573-1.303,3.023c-0.279,0.192-0.411,0.66-0.464,1.022
				c-0.423,2.978-1.01,5.952-1.16,8.948c-0.225,4.54-5.214,6.037-8.247,4.792c-2.075-0.853-3.34-2.294-3.581-4.642
				c-0.312-3.03-0.766-6.05-1.216-9.063c-0.065-0.45-0.04-1.097-0.68-1.282c0,0-1.24-0.508-1.24-2.672
				c-0.064-3.912,0.57-7.714,2.67-11.134C498.307,282.786,498.8,282.193,498.942,282.07L498.942,282.07z M511.112,276.03
				c-0.056,3.58-3.077,6.525-6.666,6.497c-3.624-0.03-6.557-3.074-6.516-6.768c0.04-3.6,3.028-6.495,6.666-6.46
				C508.269,269.335,511.172,272.333,511.112,276.03L511.112,276.03z"/>
		</g>
	</g>
	<g opacity="0.6">
		<ellipse fill="#00ACD0" cx="450.717" cy="286.017" rx="9.487" ry="3.159"/>
		<g>
			<path fill="#00ACD0" d="M445.176,256.356c3.91,2.825,6.718,2.825,11.247,0c1.739,2.206,2.336,4.696,2.783,7.42
				c0.171,1.038,0.46,3.48,0.41,4.534c-0.12,2.493-0.644,2.573-1.302,3.023c-0.28,0.19-0.413,0.662-0.465,1.023
				c-0.422,2.98-1.01,5.953-1.16,8.948c-0.225,4.54-5.214,6.038-8.246,4.792c-2.076-0.852-3.34-2.294-3.58-4.64
				c-0.312-3.032-0.767-6.05-1.217-9.065c-0.066-0.45-0.04-1.096-0.68-1.28c0,0-1.24-0.51-1.24-2.672
				c-0.063-3.914,0.57-7.715,2.672-11.135C444.538,257.074,445.033,256.48,445.176,256.356L445.176,256.356z M457.347,250.315
				c-0.058,3.582-3.078,6.526-6.668,6.497c-3.624-0.027-6.558-3.072-6.516-6.766c0.038-3.598,3.028-6.495,6.665-6.46
				C454.502,243.621,457.404,246.619,457.347,250.315L457.347,250.315z"/>
		</g>
	</g>
	<ellipse fill="#EAEAEA" cx="517.009" cy="378.208" rx="11.916" ry="3.968"/>
	<g>
		<path fill="#80529B" d="M510.05,340.955c4.909,3.547,8.436,3.547,14.126,0c2.186,2.77,2.935,5.898,3.495,9.317
			c0.217,1.306,0.579,4.374,0.517,5.697c-0.15,3.13-0.808,3.23-1.634,3.797c-0.354,0.24-0.521,0.83-0.584,1.283
			c-0.532,3.742-1.271,7.48-1.458,11.24c-0.282,5.703-6.55,7.584-10.36,6.021c-2.605-1.07-4.191-2.883-4.496-5.83
			c-0.392-3.808-0.96-7.599-1.524-11.386c-0.083-0.566-0.051-1.377-0.854-1.61c0,0-1.56-0.638-1.56-3.354
			c-0.08-4.915,0.717-9.688,3.354-13.984c0.181-0.292,0.801-1.037,0.98-1.19L510.05,340.955z M525.336,333.367
			c-0.072,4.5-3.866,8.197-8.374,8.16c-4.555-0.035-8.233-3.86-8.184-8.497c0.048-4.52,3.803-8.158,8.37-8.114
			c4.613,0.043,8.26,3.81,8.186,8.45L525.336,333.367z"/>
	</g>
	<ellipse fill="#EAEAEA" cx="374.751" cy="294.017" rx="9.486" ry="3.159"/>
	<g>
		<path fill="#C2C2C4" d="M369.21,264.356c3.909,2.825,6.717,2.825,11.246,0c1.74,2.206,2.338,4.696,2.784,7.42
			c0.17,1.038,0.462,3.48,0.41,4.534c-0.12,2.493-0.644,2.573-1.3,3.023c-0.28,0.19-0.415,0.662-0.466,1.023
			c-0.422,2.98-1.01,5.953-1.16,8.948c-0.225,4.54-5.214,6.038-8.248,4.792c-2.074-0.852-3.338-2.294-3.58-4.64
			c-0.31-3.032-0.764-6.05-1.215-9.065c-0.066-0.45-0.04-1.096-0.68-1.28c0,0-1.24-0.51-1.24-2.672
			c-0.063-3.914,0.57-7.715,2.672-11.135c0.143-0.229,0.637-0.824,0.78-0.947L369.21,264.356z M381.38,258.315
			c-0.057,3.582-3.077,6.526-6.666,6.497c-3.624-0.027-6.557-3.072-6.517-6.766c0.04-3.598,3.03-6.495,6.666-6.46
			C378.535,251.621,381.438,254.619,381.38,258.315L381.38,258.315z"/>
	</g>
	<g opacity="0.6">
		<ellipse fill="#80529B" cx="374.751" cy="294.017" rx="9.486" ry="3.159"/>
		<g>
			<path fill="#80529B" d="M369.21,264.356c3.909,2.825,6.717,2.825,11.246,0c1.74,2.206,2.338,4.696,2.784,7.42
				c0.17,1.038,0.462,3.48,0.41,4.534c-0.12,2.493-0.644,2.573-1.3,3.023c-0.28,0.19-0.415,0.662-0.466,1.023
				c-0.422,2.98-1.01,5.953-1.16,8.948c-0.225,4.54-5.214,6.038-8.248,4.792c-2.074-0.852-3.338-2.294-3.58-4.64
				c-0.31-3.032-0.764-6.05-1.215-9.065c-0.066-0.45-0.04-1.096-0.68-1.28c0,0-1.24-0.51-1.24-2.672
				c-0.063-3.914,0.57-7.715,2.672-11.135c0.143-0.229,0.637-0.824,0.78-0.947L369.21,264.356z M381.38,258.315
				c-0.057,3.582-3.077,6.526-6.666,6.497c-3.624-0.027-6.557-3.072-6.517-6.766c0.04-3.598,3.03-6.495,6.666-6.46
				C378.535,251.621,381.438,254.619,381.38,258.315L381.38,258.315z"/>
		</g>
	</g>
	<path fill="none" stroke="#C2C2C4" stroke-miterlimit="10" stroke-dasharray="4,3" d="M433.115,376.676c0,0,30-57,75.75,86.5"/>
	<g>
		<path fill="none" stroke="#C2C2C4" stroke-miterlimit="10" stroke-dasharray="4,3" d="M303.449,277.01
			c-40.333-70-64.333-20.668-64.333-20.668 M328.115,306.01c0,0,31-31,56,36.666 M339.115,238.01
			c11.25-42.5,26.667-29.334,35.667,13.666 M280.116,309.676c0,0,19.243-40,41.666,69.334 M200.45,303.676
			c5.666-22.334,52.666-39,79.666,6 M450.865,242.926c0,0,37.5-136,115.75,130.75 M496.115,376.926
			c0.25,0-55.756-81.583-132.332,21.417 M517.365,324.176c0,0,38-70,74.5-0.75 M242.783,422.676c0,0,17.333-69.666,78.332-44
			 M643.115,429.926c0,0-97.5-37-191.666,50.083 M621.865,349.426c22.75-116.5,48.496-67.24,49-65 M292.45,208.01
			c0,0,16.664-43.334,46.665,30.333 M405.782,286.01c0,0,34.832-42.834,90.582,90.916 M363.782,399.01
			c0,0,29.666-18.334,87.666,80.666 M504.365,268.676c0,0,21.75-83.25,41.75-44.25"/>
	</g>
</g>
</svg>
