<?xml version="1.0" encoding="utf-8"?>
<!-- Generator: Adobe Illustrator 16.0.0, SVG Export Plug-In . SVG Version: 6.00 Build 0)  -->
<!DOCTYPE svg PUBLIC "-//W3C//DTD SVG 1.1//EN" "http://www.w3.org/Graphics/SVG/1.1/DTD/svg11.dtd">
<svg version="1.1" id="Layer_1" xmlns="http://www.w3.org/2000/svg" xmlns:xlink="http://www.w3.org/1999/xlink" x="0px" y="0px"
	 width="459.203px" height="160.514px" viewBox="0 0 459.203 160.514" enable-background="new 0 0 459.203 160.514"
	 xml:space="preserve">
<path fill="#C2C2C4" d="M24,105.663h54v3H24V105.663z"/>
<path fill="#969696" d="M129.159,59.663H0.598C0.375,59.663,0,58.723,0,58.942v74.04c0,0.223,0.375,0.681,0.598,0.681H53v7H37v7h55
	v-7H75v-7h54.159c0.224,0-0.159-0.458-0.159-0.681v-74.04C129,58.723,129.383,59.663,129.159,59.663z"/>
<g>
	<path fill="#969696" d="M271.25,55.348h-81.79c-0.108-1.45-0.284-2.73-0.286-4.014c-0.021-14.2-0.03-28.403-0.011-42.604
		c0.009-6.408,2.12-8.692,8.367-8.705c21.896-0.043,43.79-0.029,65.686,0.042c5.764,0.021,8.014,2.38,8.024,8.15
		c0.03,15.525,0.01,31.05,0.01,47.133V55.348z M172.71,58.785h114.989c1.255,4.762,0.761,5.47-5.18,6.126
		c-3.34,0.366-6.772,0.365-10.165,0.369c-28.523,0.03-57.05,0.035-85.572,0.017c-2.95,0-5.936-0.028-8.842-0.355
		c-5.95-0.67-6.403-1.294-5.229-6.158L172.71,58.785z"/>
</g>
<g>
	<path fill="#969696" d="M458.774,132.982c0,0.221,0.601,0.42,0.38,0.42h-54.38v7h17v7h-55v-7h16v-7h-52.189
		c-0.221,0-0.811-0.199-0.811-0.42v-74.04c0-0.228,0.59,0.46,0.811,0.46h128.189V132.982z M454.774,127.402v-64h-120v64H454.774z
		 M458.774,58.942c0-0.228,0.601,0.46,0.38,0.46h-0.38V58.942z"/>
	<path fill="#46BB90" d="M334.774,63.402h120v64h-120V63.402z"/>
	<path fill="#81539B" d="M266.774,4.902v46.051h-73.439V4.902H266.774z"/>
	<path fill="#FAA819" d="M4.774,63.402h120v64h-120V63.402z"/>
</g>
<path fill="none" stroke="#FAA819" stroke-width="2" stroke-miterlimit="10" stroke-dasharray="4,2" d="M179.779,21.849
	c0,0-44.347,1.562-80,26.554"/>
<path fill="none" stroke="#81539B" stroke-width="2" stroke-miterlimit="10" stroke-dasharray="4,2" d="M274.449,33.068"/>
<g>
	<circle id="a" fill="#F3F3F3" cx="26.115" cy="96.736" r="11"/>
</g>
<g>
	<defs>
		<circle id="SVGID_1_" cx="26.115" cy="96.736" r="11"/>
	</defs>
	<clipPath id="SVGID_2_">
		<use xlink:href="#SVGID_1_"  overflow="visible"/>
	</clipPath>
	<g clip-path="url(#SVGID_2_)">
		<ellipse fill="#EAEAEA" cx="25.988" cy="124.997" rx="7.562" ry="2.518"/>
		<g>
			<path fill="#81539B" d="M21.637,100.938c3.117,2.25,5.354,2.25,8.965,0c1.387,1.758,1.86,3.743,2.217,5.913
				c0.139,0.827,0.368,2.774,0.327,3.614c-0.096,1.987-0.512,2.05-1.037,2.41c-0.225,0.151-0.33,0.526-0.37,0.813
				c-0.337,2.375-0.806,4.746-0.925,7.134c-0.18,3.62-4.155,4.812-6.574,3.82c-1.652-0.68-2.659-1.83-2.853-3.7
				c-0.248-2.416-0.61-4.821-0.97-7.226c-0.053-0.36-0.032-0.873-0.54-1.021c0,0-0.99-0.405-0.99-2.13
				c-0.05-3.12,0.455-6.149,2.13-8.875C21.131,101.509,21.522,101.035,21.637,100.938L21.637,100.938z M31.338,96.123
				c-0.047,2.854-2.455,5.201-5.314,5.18c-2.89-0.023-5.225-2.45-5.192-5.395c0.031-2.866,2.415-5.178,5.312-5.149
				C29.07,90.787,31.384,93.179,31.338,96.123L31.338,96.123z"/>
		</g>
	</g>
</g>
<g>
	<circle id="a_1_" fill="none" stroke="#C2C2C4" stroke-miterlimit="10" cx="26.115" cy="96.736" r="11"/>
</g>
<g>
	<circle id="c" fill="#F3F3F3" cx="208.114" cy="25.736" r="9"/>
</g>
<g>
	<defs>
		<circle id="SVGID_3_" cx="208.114" cy="25.736" r="9"/>
	</defs>
	<clipPath id="SVGID_4_">
		<use xlink:href="#SVGID_3_"  overflow="visible"/>
	</clipPath>
	<g clip-path="url(#SVGID_4_)">
		<ellipse fill="#EAEAEA" cx="208.012" cy="48.86" rx="6.188" ry="2.06"/>
		<g>
			<path fill="#E85B79" d="M204.449,29.175c2.553,1.84,4.38,1.84,7.335,0c1.136,1.438,1.523,3.062,1.814,4.838
				c0.112,0.678,0.3,2.27,0.27,2.958c-0.08,1.626-0.42,1.678-0.85,1.972c-0.185,0.125-0.271,0.433-0.304,0.666
				c-0.275,1.943-0.658,3.884-0.756,5.837c-0.148,2.96-3.4,3.938-5.381,3.125c-1.353-0.556-2.177-1.496-2.335-3.025
				c-0.203-1.978-0.5-3.945-0.793-5.912c-0.043-0.294-0.024-0.714-0.442-0.836c0,0-0.811-0.33-0.811-1.74
				c-0.04-2.555,0.373-5.033,1.742-7.263C204.034,29.642,204.356,29.254,204.449,29.175L204.449,29.175z M212.39,25.234
				c-0.04,2.336-2.01,4.257-4.351,4.237c-2.363-0.021-4.273-2.005-4.25-4.413c0.026-2.346,1.977-4.236,4.351-4.213
				C210.532,20.867,212.426,22.823,212.39,25.234L212.39,25.234z"/>
		</g>
	</g>
</g>
<g>
	<circle id="c_1_" fill="none" stroke="#C2C2C4" stroke-miterlimit="10" cx="208.114" cy="25.736" r="9"/>
</g>
<g>
	<circle id="e" fill="#F3F3F3" cx="230.114" cy="25.736" r="9"/>
</g>
<g>
	<defs>
		<circle id="SVGID_5_" cx="230.114" cy="25.736" r="9"/>
	</defs>
	<clipPath id="SVGID_6_">
		<use xlink:href="#SVGID_5_"  overflow="visible"/>
	</clipPath>
	<g clip-path="url(#SVGID_6_)">
		<ellipse fill="#EAEAEA" cx="230.012" cy="48.86" rx="6.188" ry="2.06"/>
		<g>
			<path fill="#504F4F" d="M226.449,29.175c2.553,1.84,4.38,1.84,7.335,0c1.136,1.438,1.523,3.062,1.814,4.838
				c0.112,0.678,0.3,2.27,0.27,2.958c-0.08,1.626-0.42,1.678-0.85,1.972c-0.185,0.125-0.271,0.433-0.304,0.666
				c-0.275,1.943-0.658,3.884-0.756,5.837c-0.148,2.96-3.4,3.938-5.381,3.125c-1.353-0.556-2.177-1.496-2.335-3.025
				c-0.203-1.978-0.5-3.945-0.793-5.912c-0.043-0.294-0.024-0.714-0.442-0.836c0,0-0.811-0.33-0.811-1.74
				c-0.04-2.555,0.373-5.033,1.742-7.263C226.034,29.642,226.356,29.254,226.449,29.175L226.449,29.175z M234.39,25.234
				c-0.04,2.336-2.01,4.257-4.351,4.237c-2.363-0.021-4.273-2.005-4.25-4.413c0.026-2.346,1.977-4.236,4.351-4.213
				C232.532,20.867,234.426,22.823,234.39,25.234L234.39,25.234z"/>
		</g>
	</g>
</g>
<g>
	<circle id="e_1_" fill="none" stroke="#C2C2C4" stroke-miterlimit="10" cx="230.114" cy="25.736" r="9"/>
</g>
<g>
	<circle id="g" fill="#F3F3F3" cx="252.114" cy="25.736" r="9"/>
</g>
<g>
	<defs>
		<circle id="SVGID_7_" cx="252.114" cy="25.736" r="9"/>
	</defs>
	<clipPath id="SVGID_8_">
		<use xlink:href="#SVGID_7_"  overflow="visible"/>
	</clipPath>
	<g clip-path="url(#SVGID_8_)">
		<ellipse fill="#EAEAEA" cx="252.012" cy="48.86" rx="6.188" ry="2.06"/>
		<g>
			<path fill="#02ACD0" d="M248.449,29.175c2.553,1.84,4.38,1.84,7.335,0c1.136,1.438,1.523,3.062,1.814,4.838
				c0.112,0.678,0.3,2.27,0.27,2.958c-0.08,1.626-0.42,1.678-0.85,1.972c-0.185,0.125-0.271,0.433-0.304,0.666
				c-0.275,1.943-0.658,3.884-0.756,5.837c-0.148,2.96-3.4,3.938-5.381,3.125c-1.353-0.556-2.177-1.496-2.335-3.025
				c-0.203-1.978-0.5-3.945-0.793-5.912c-0.043-0.294-0.024-0.714-0.442-0.836c0,0-0.811-0.33-0.811-1.74
				c-0.04-2.555,0.373-5.033,1.742-7.263C248.034,29.642,248.356,29.254,248.449,29.175L248.449,29.175z M256.39,25.234
				c-0.04,2.336-2.01,4.257-4.351,4.237c-2.363-0.021-4.273-2.005-4.25-4.413c0.026-2.346,1.977-4.236,4.351-4.213
				C254.532,20.867,256.426,22.823,256.39,25.234L256.39,25.234z"/>
		</g>
	</g>
</g>
<g>
	<circle id="g_1_" fill="none" stroke="#C2C2C4" stroke-miterlimit="10" cx="252.114" cy="25.736" r="9"/>
</g>
<g>
	<circle id="i" fill="#F3F3F3" cx="434.114" cy="95.736" r="11"/>
</g>
<g>
	<defs>
		<circle id="SVGID_9_" cx="434.114" cy="95.736" r="11"/>
	</defs>
	<clipPath id="SVGID_10_">
		<use xlink:href="#SVGID_9_"  overflow="visible"/>
	</clipPath>
	<g clip-path="url(#SVGID_10_)">
		<ellipse fill="#EAEAEA" cx="433.988" cy="123.997" rx="7.562" ry="2.518"/>
		<g>
			<path fill="#FAA819" d="M429.637,100.438c3.117,2.25,5.354,2.25,8.965,0c1.387,1.758,1.86,3.743,2.217,5.913
				c0.139,0.827,0.368,2.774,0.327,3.614c-0.096,1.987-0.512,2.05-1.037,2.41c-0.225,0.151-0.33,0.526-0.37,0.813
				c-0.337,2.375-0.806,4.746-0.925,7.134c-0.18,3.62-4.156,4.812-6.574,3.82c-1.652-0.68-2.659-1.83-2.853-3.7
				c-0.248-2.416-0.61-4.821-0.97-7.226c-0.053-0.36-0.032-0.873-0.54-1.021c0,0-0.99-0.405-0.99-2.13
				c-0.05-3.12,0.455-6.149,2.13-8.875C429.131,101.009,429.522,100.535,429.637,100.438L429.637,100.438z M439.338,95.623
				c-0.047,2.854-2.455,5.201-5.314,5.18c-2.89-0.023-5.225-2.45-5.193-5.395c0.032-2.866,2.415-5.178,5.313-5.149
				C437.07,90.287,439.384,92.679,439.338,95.623L439.338,95.623z"/>
		</g>
	</g>
</g>
<g>
	<circle id="i_1_" fill="none" stroke="#C2C2C4" stroke-miterlimit="10" cx="434.114" cy="95.736" r="11"/>
</g>
<g>
	<path fill="#F3F3F3" stroke="#C2C2C4" stroke-miterlimit="10" d="M111.5,105.163h-67v-5.261l-4-4.5l4-4v-4.239h67V105.163z"/>
	<path fill="#C2C2C4" d="M51,91.663h36v3H51V91.663z M51,97.663h20v3H51V97.663z"/>
</g>
<g>
	<path fill="#F3F3F3" stroke="#C2C2C4" stroke-miterlimit="10" d="M346.5,105.163h67v-5.261l4-4.5l-4-4v-4.239h-67V105.163z"/>
	<path fill="#C2C2C4" d="M353,91.663h54v3h-54V91.663z M353,97.663h29v3h-29V97.663z"/>
</g>
<path fill="none" stroke="#46BB90" stroke-width="2" stroke-miterlimit="10" stroke-dasharray="4,2" d="M136.779,140.402
	c97.67,43,188,0,188,0"/>
<path fill="none" stroke="#81539B" stroke-width="2" stroke-miterlimit="10" stroke-dasharray="4,2" d="M280.779,21.068
	c0,0,44.351,1.562,80,26.555"/>
</svg>
