<svg xmlns="http://www.w3.org/2000/svg" xmlns:xlink="http://www.w3.org/1999/xlink" width="889" height="742.939" viewBox="0 0 889 742.939"><g><path d="M326.246 674.132c0 1.396-.505 2.492-1.515 3.287s-2.4 1.19-4.178 1.19-3.23-.274-4.36-.826v-2.428c.715.337 1.476.602 2.28.795s1.558.29 2.252.29c1.017 0 1.767-.192 2.25-.58s.726-.905.726-1.557c0-.587-.222-1.085-.666-1.493s-1.36-.892-2.75-1.45c-1.433-.58-2.442-1.242-3.03-1.987s-.88-1.64-.88-2.686c0-1.31.466-2.342 1.396-3.094s2.18-1.128 3.75-1.128c1.503 0 3 .33 4.49.988l-.817 2.095c-1.396-.587-2.643-.88-3.738-.88-.83 0-1.46.18-1.89.542-.43.36-.646.84-.646 1.434 0 .408.085.758.257 1.047.172.292.455.565.85.823s1.102.598 2.126 1.02c1.153.48 1.998.93 2.535 1.344s.93.885 1.182 1.407c.25.523.376 1.14.376 1.848zM335.044 678.61c-1.504 0-2.67-.54-3.502-1.62h-.15c.1 1.002.15 1.61.15 1.825v4.866h-2.524v-17.165h2.04c.06.222.177.752.355 1.59h.13c.787-1.203 1.97-1.805 3.544-1.805 1.482 0 2.637.537 3.464 1.61s1.242 2.583 1.242 4.523-.42 3.455-1.263 4.544c-.842 1.09-2.004 1.634-3.486 1.634zm-.612-10.247c-1.003 0-1.735.294-2.197.88s-.692 1.526-.692 2.815v.376c0 1.446.23 2.494.688 3.142.46.648 1.208.973 2.246.973.874 0 1.547-.36 2.02-1.075s.71-1.736.71-3.062c0-1.332-.235-2.34-.705-3.024-.47-.685-1.16-1.027-2.068-1.027zM350.158 678.396l-.505-1.654h-.086c-.573.724-1.15 1.216-1.73 1.477-.58.26-1.324.392-2.233.392-1.167 0-2.08-.315-2.734-.945s-.982-1.52-.982-2.675c0-1.225.455-2.148 1.364-2.77s2.295-.964 4.157-1.022l2.05-.064v-.634c0-.76-.177-1.327-.53-1.702-.355-.377-.904-.564-1.65-.564-.607 0-1.19.09-1.75.27s-1.096.39-1.61.633l-.817-1.806c.645-.337 1.35-.593 2.116-.768.766-.176 1.488-.264 2.17-.264 1.51 0 2.65.33 3.42.988.77.66 1.155 1.693 1.155 3.104v8.003h-1.807zm-3.76-1.718c.917 0 1.652-.256 2.207-.768.556-.513.833-1.23.833-2.154v-1.03l-1.525.063c-1.188.042-2.054.24-2.595.595-.54.355-.81.897-.81 1.628 0 .53.156.94.472 1.23.316.29.79.435 1.418.435zM360.277 678.61c-1.798 0-3.164-.523-4.1-1.573-.934-1.05-1.4-2.555-1.4-4.517 0-1.998.488-3.534 1.466-4.608s2.39-1.61 4.238-1.61c1.254 0 2.382.23 3.385.697l-.763 2.03c-1.067-.416-1.948-.624-2.643-.624-2.057 0-3.084 1.364-3.084 4.093 0 1.33.256 2.332.768 3.002.513.67 1.263 1.004 2.25 1.004 1.125 0 2.19-.28 3.19-.838v2.202c-.45.265-.932.455-1.444.57-.51.114-1.132.17-1.863.17zM371.567 678.61c-1.848 0-3.293-.538-4.335-1.616-1.042-1.077-1.562-2.562-1.562-4.452 0-1.94.483-3.466 1.45-4.576s2.295-1.665 3.985-1.665c1.568 0 2.808.478 3.717 1.43s1.364 2.263 1.364 3.932v1.364h-7.917c.035 1.153.347 2.04.934 2.658.587.62 1.414.93 2.48.93.703 0 1.356-.066 1.96-.2.606-.13 1.257-.352 1.95-.66v2.053c-.615.294-1.238.5-1.868.623s-1.35.18-2.16.18zm-.462-10.397c-.802 0-1.445.254-1.93.763s-.77 1.25-.863 2.224h5.393c-.015-.98-.25-1.725-.71-2.23-.457-.505-1.088-.757-1.89-.757zM387.036 675.013c0 1.16-.423 2.05-1.268 2.67-.845.62-2.056.93-3.63.93-1.584 0-2.855-.24-3.814-.72v-2.182c1.396.646 2.696.968 3.9.968 1.553 0 2.33-.47 2.33-1.407 0-.3-.086-.55-.258-.75s-.455-.41-.85-.624-.94-.458-1.643-.73c-1.368-.53-2.294-1.06-2.777-1.59s-.725-1.218-.725-2.062c0-1.017.41-1.807 1.23-2.368.82-.562 1.936-.844 3.347-.844 1.396 0 2.718.283 3.964.85l-.815 1.9c-1.282-.53-2.36-.795-3.233-.795-1.332 0-1.998.38-1.998 1.14 0 .37.174.687.52.944.35.26 1.106.613 2.273 1.064.98.38 1.693.727 2.138 1.042s.773.68.988 1.09c.216.41.323.903.323 1.477zM401.44 668.428h-2.9v9.97h-2.534v-9.97h-1.955v-1.182l1.956-.773v-.773c0-1.403.33-2.443.988-3.12.66-.677 1.665-1.016 3.02-1.016.887 0 1.76.146 2.62.44l-.666 1.912c-.623-.2-1.218-.3-1.783-.3-.573 0-.99.177-1.252.53-.26.355-.392.887-.392 1.596v.773h2.9v1.913zM414 672.435c0 1.94-.5 3.455-1.494 4.544s-2.38 1.632-4.157 1.632c-1.11 0-2.092-.25-2.944-.752s-1.508-1.22-1.966-2.16-.688-2.025-.688-3.265c0-1.927.494-3.43 1.482-4.512s2.38-1.622 4.18-1.622c1.718 0 3.078.554 4.08 1.66 1.003 1.106 1.505 2.6 1.505 4.475zm-8.648 0c0 2.743 1.014 4.114 3.04 4.114 2.005 0 3.008-1.372 3.008-4.115 0-2.714-1.01-4.07-3.03-4.07-1.06 0-1.827.35-2.304 1.052-.476.7-.714 1.707-.714 3.018zM422.926 666.3c.51 0 .928.037 1.257.108l-.247 2.353c-.358-.085-.73-.128-1.117-.128-1.01 0-1.83.33-2.456.988-.626.66-.94 1.515-.94 2.567v6.21h-2.523v-11.882h1.978l.333 2.095h.13c.394-.71.907-1.27 1.54-1.687s1.315-.622 2.046-.622zM439.05 664.668c-1.476 0-2.636.522-3.48 1.568s-1.268 2.488-1.268 4.33c0 1.926.406 3.383 1.22 4.37.812.99 1.988 1.483 3.528 1.483.666 0 1.31-.067 1.934-.2.623-.132 1.27-.302 1.944-.51v2.202c-1.232.466-2.628.698-4.19.698-2.298 0-4.063-.696-5.295-2.09-1.23-1.393-1.848-3.385-1.848-5.978 0-1.633.3-3.062.896-4.286.6-1.225 1.464-2.163 2.596-2.814s2.46-.978 3.985-.978c1.605 0 3.087.337 4.448 1.01l-.924 2.138c-.53-.25-1.09-.47-1.682-.66-.59-.19-1.21-.284-1.862-.284zM456.58 672.435c0 1.94-.497 3.455-1.492 4.544s-2.38 1.632-4.157 1.632c-1.11 0-2.09-.25-2.942-.752s-1.508-1.22-1.966-2.16-.688-2.025-.688-3.265c0-1.927.494-3.43 1.482-4.512s2.38-1.622 4.18-1.622c1.718 0 3.078.554 4.08 1.66 1.003 1.106 1.505 2.6 1.505 4.475zm-8.646 0c0 2.743 1.014 4.114 3.04 4.114 2.005 0 3.008-1.372 3.008-4.115 0-2.714-1.01-4.07-3.03-4.07-1.06 0-1.827.35-2.304 1.052-.476.7-.714 1.707-.714 3.018zM462.006 678.396h-2.524V661.68h2.524v16.716zM468.14 678.396h-2.524V661.68h2.524v16.716zM479.183 678.396l-.505-1.654h-.086c-.573.724-1.15 1.216-1.73 1.477-.58.26-1.324.392-2.233.392-1.168 0-2.08-.315-2.735-.945s-.982-1.52-.982-2.675c0-1.225.455-2.148 1.364-2.77s2.295-.964 4.157-1.022l2.052-.064v-.634c0-.76-.178-1.327-.532-1.702-.354-.377-.903-.564-1.648-.564-.608 0-1.192.09-1.75.27s-1.097.39-1.612.633l-.816-1.806c.645-.337 1.35-.593 2.116-.768.767-.176 1.49-.264 2.17-.264 1.51 0 2.65.33 3.42.988.772.66 1.156 1.693 1.156 3.104v8.003h-1.807zm-3.76-1.718c.917 0 1.652-.256 2.207-.768.556-.513.833-1.23.833-2.154v-1.03l-1.525.063c-1.188.042-2.054.24-2.595.595-.54.355-.81.897-.81 1.628 0 .53.156.94.472 1.23.315.29.788.435 1.418.435zM490.58 666.3c1.482 0 2.637.538 3.464 1.612s1.24 2.582 1.24 4.522c0 1.948-.418 3.464-1.256 4.55-.838 1.084-2.002 1.627-3.49 1.627-1.505 0-2.672-.54-3.503-1.62h-.172l-.462 1.406h-1.89V661.68h2.524v3.976c0 .294-.015.73-.043 1.31s-.05.95-.063 1.107h.107c.803-1.18 1.985-1.772 3.546-1.772zm-.655 2.063c-1.017 0-1.75.3-2.197.896-.447.598-.678 1.6-.692 3.002v.172c0 1.446.23 2.494.688 3.142.458.648 1.207.973 2.245.973.895 0 1.572-.355 2.034-1.064s.693-1.733.693-3.072c0-2.7-.925-4.05-2.772-4.05zM508.756 672.435c0 1.94-.498 3.455-1.493 4.544s-2.38 1.632-4.157 1.632c-1.11 0-2.09-.25-2.943-.752s-1.508-1.22-1.966-2.16-.688-2.025-.688-3.265c0-1.927.493-3.43 1.48-4.512s2.382-1.622 4.18-1.622c1.72 0 3.08.554 4.082 1.66 1.002 1.106 1.504 2.6 1.504 4.475zm-8.648 0c0 2.743 1.014 4.114 3.04 4.114 2.005 0 3.008-1.372 3.008-4.115 0-2.714-1.01-4.07-3.03-4.07-1.06 0-1.827.35-2.304 1.052-.475.7-.714 1.707-.714 3.018zM517.683 666.3c.51 0 .928.037 1.257.108l-.247 2.353c-.358-.085-.73-.128-1.117-.128-1.01 0-1.828.33-2.455.988-.625.66-.938 1.515-.938 2.567v6.21h-2.524v-11.882h1.977l.333 2.095h.13c.393-.71.906-1.27 1.54-1.687s1.314-.622 2.045-.622zM528.575 678.396l-.505-1.654h-.086c-.573.724-1.15 1.216-1.73 1.477-.58.26-1.324.392-2.233.392-1.166 0-2.078-.315-2.733-.945s-.982-1.52-.982-2.675c0-1.225.455-2.148 1.364-2.77s2.294-.964 4.156-1.022l2.052-.064v-.634c0-.76-.178-1.327-.532-1.702-.354-.377-.903-.564-1.648-.564-.608 0-1.192.09-1.75.27s-1.097.39-1.612.633l-.816-1.806c.645-.337 1.35-.593 2.116-.768.767-.176 1.49-.264 2.17-.264 1.51 0 2.65.33 3.42.988.772.66 1.156 1.693 1.156 3.104v8.003h-1.807zm-3.76-1.718c.917 0 1.652-.256 2.207-.768.556-.513.833-1.23.833-2.154v-1.03l-1.525.063c-1.188.042-2.054.24-2.595.595-.54.355-.81.897-.81 1.628 0 .53.156.94.472 1.23.316.29.79.435 1.418.435zM538.33 676.57c.615 0 1.23-.097 1.847-.29v1.9c-.28.123-.64.225-1.08.308-.44.082-.896.123-1.37.123-2.39 0-3.587-1.26-3.587-3.78v-6.402h-1.622v-1.117l1.74-.923.86-2.514h1.557v2.643h3.384v1.912h-3.385v6.36c0 .607.152 1.058.456 1.347.306.29.705.435 1.2.435zM542.4 663.368c0-.45.123-.8.37-1.042s.6-.365 1.06-.365c.443 0 .788.123 1.035.366s.37.59.37 1.042c0 .43-.123.77-.37 1.015-.247.248-.592.37-1.036.37-.46 0-.813-.122-1.06-.37-.247-.246-.37-.585-.37-1.015zm2.675 15.028h-2.524v-11.88h2.525v11.88zM559.223 672.435c0 1.94-.498 3.455-1.493 4.544s-2.38 1.632-4.157 1.632c-1.11 0-2.09-.25-2.943-.752s-1.508-1.22-1.966-2.16-.688-2.025-.688-3.265c0-1.927.494-3.43 1.482-4.512s2.38-1.622 4.18-1.622c1.718 0 3.078.554 4.08 1.66 1.003 1.106 1.505 2.6 1.505 4.475zm-8.648 0c0 2.743 1.014 4.114 3.04 4.114 2.005 0 3.008-1.372 3.008-4.115 0-2.714-1.01-4.07-3.03-4.07-1.06 0-1.827.35-2.304 1.052-.477.7-.715 1.707-.715 3.018zM572.575 678.396h-2.535v-7.305c0-.916-.185-1.6-.554-2.05-.368-.452-.954-.678-1.756-.678-1.067 0-1.848.315-2.342.945s-.74 1.687-.74 3.17v5.918h-2.525v-11.88h1.977l.354 1.557h.13c.357-.565.865-1.003 1.524-1.31s1.39-.463 2.19-.463c2.85 0 4.276 1.45 4.276 4.35v7.746z"/><path fill="none" stroke="#424242" stroke-width="4" stroke-miterlimit="10" d="M430 709.94h29"/><path fill-rule="evenodd" clip-rule="evenodd" fill="#C2C2C4" d="M239 531.94h54v3h-54z"/><circle fill="#E95A78" cx="214.284" cy="170.858" r="6.87"/><circle fill="#00D096" cx="214.284" cy="198.257" r="6.87"/><circle fill="#FFA800" cx="214.284" cy="225.653" r="6.87"/><circle fill="#80529B" cx="214.284" cy="253.051" r="6.87"/><circle fill="#FFA800" cx="293.712" cy="170.858" r="6.87"/><circle fill="#4F4E4E" cx="293.712" cy="198.257" r="6.87"/><circle fill="#E95A78" cx="293.712" cy="225.653" r="6.87"/><circle fill="#00ACD0" cx="293.712" cy="253.051" r="6.87"/><circle fill="#00D096" cx="333.743" cy="170.858" r="6.87"/><circle fill="#00D096" cx="600.748" cy="257.684" r="7.545"/><circle fill="#E95A78" cx="570.391" cy="257.684" r="7.545"/><circle fill="#FFA800" cx="545.831" cy="239.84" r="7.545"/><path fill="#80529B" d="M538.78 218.143c-3.96 1.29-8.22-.88-9.505-4.844-1.287-3.962.883-8.22 4.842-9.507 3.965-1.29 8.225.883 9.512 4.843 1.286 3.962-.884 8.218-4.85 9.507z"/><path fill="#00D096" d="M543.5 189.27c-3.96-1.286-6.133-5.544-4.844-9.506 1.287-3.962 5.545-6.13 9.506-4.843 3.965 1.286 6.135 5.547 4.848 9.51-1.29 3.96-5.545 6.13-9.51 4.84z"/><circle fill="#E95A78" cx="570.391" cy="164.253" r="7.544"/><circle fill="#FFA800" cx="600.749" cy="164.254" r="7.544"/><circle fill="#00ACD0" cx="625.309" cy="182.097" r="7.544"/><circle fill="#4F4E4E" cx="634.688" cy="210.968" r="7.544"/><circle fill="#80529B" cx="625.308" cy="239.84" r="7.544"/><circle fill="#00D096" cx="600.748" cy="257.683" r="7.545"/><circle fill="#E95A78" cx="570.391" cy="257.683" r="7.545"/><circle fill="#80529B" cx="333.743" cy="198.257" r="6.87"/><circle fill="#00ACD0" cx="333.743" cy="225.653" r="6.87"/><circle fill="#4F4E4E" cx="333.743" cy="253.051" r="6.87"/><path fill="#4F4E4E" d="M422.307 170.858c0 3.794-3.074 6.87-6.87 6.87-3.794 0-6.868-3.076-6.868-6.87s3.073-6.87 6.866-6.87c3.796 0 6.87 3.076 6.87 6.87z"/><path fill="#FFA800" d="M422.307 198.257c0 3.794-3.074 6.87-6.87 6.87-3.794 0-6.868-3.076-6.868-6.87 0-3.795 3.073-6.87 6.866-6.87 3.796 0 6.87 3.075 6.87 6.87z"/><path fill="#80529B" d="M422.307 225.653c0 3.794-3.074 6.87-6.87 6.87-3.794 0-6.868-3.076-6.868-6.87s3.073-6.87 6.866-6.87c3.796 0 6.87 3.076 6.87 6.87z"/><path fill="#E95A78" d="M422.307 253.05c0 3.796-3.074 6.872-6.87 6.872-3.794 0-6.868-3.076-6.868-6.87 0-3.795 3.073-6.87 6.866-6.87 3.796 0 6.87 3.075 6.87 6.87z"/><path fill="#fff" stroke="#D6D6D6" stroke-miterlimit="10" d="M231.5 156.44h44v109h-44zM352.5 156.44h45v112h-45z"/><g fill="#969696"><path d="M422.61 384.007c0 1.37-.347 2.45-1.04 3.234s-1.657 1.18-2.892 1.18c-1.262 0-2.235-.387-2.92-1.158s-1.03-1.86-1.03-3.267c0-1.395.345-2.476 1.032-3.243s1.664-1.15 2.93-1.15c1.23 0 2.19.39 2.883 1.17s1.037 1.86 1.037 3.235zm-6.826 0c0 1.16.247 2.04.74 2.64s1.213.9 2.154.9c.95 0 1.666-.3 2.15-.897s.727-1.48.727-2.643c0-1.152-.24-2.026-.724-2.622s-1.195-.894-2.14-.894c-.95 0-1.672.3-2.166.9s-.74 1.472-.74 2.617zM432.412 388.302h-1.137l-4.682-7.19h-.047c.062.845.094 1.618.094 2.32v4.87h-.92v-8.566h1.125l4.67 7.16h.047c-.008-.105-.025-.444-.053-1.017s-.038-.982-.03-1.23v-4.915h.932v8.567zM435.968 388.302v-8.566h.996v7.664h3.78v.902h-4.776zM443.396 388.302v-8.566h.996v8.566h-.996zM454.633 388.302h-1.137l-4.682-7.19h-.047c.062.845.094 1.618.094 2.32v4.87h-.92v-8.566h1.126l4.67 7.16h.047c-.008-.105-.025-.444-.053-1.017s-.037-.982-.03-1.23v-4.915h.933v8.567zM462.964 388.302h-4.775v-8.566h4.774v.885h-3.78v2.76h3.552v.88h-3.55v3.152h3.778v.89z"/></g><path d="M264.78 314.342h-6.58V302.92h6.58v1.984h-4.157v2.508h3.867v1.984h-3.867v2.945h4.156v2.002zM275.438 314.342h-2.383v-5.102c0-.63-.112-1.103-.336-1.418s-.582-.473-1.07-.473c-.668 0-1.15.222-1.446.667s-.445 1.184-.445 2.215v4.11h-2.384v-8.735h1.82l.32 1.117h.133c.265-.422.63-.74 1.097-.957s.996-.324 1.59-.324c1.016 0 1.786.274 2.312.824s.788 1.343.788 2.38v5.695zM284.384 311.748c0 .896-.312 1.578-.934 2.047s-1.554.703-2.793.703c-.636 0-1.177-.043-1.625-.13s-.867-.21-1.258-.378v-1.97c.442.21.94.384 1.496.524s1.043.21 1.465.21c.864 0 1.297-.25 1.297-.75 0-.187-.058-.34-.172-.456s-.312-.25-.594-.398-.656-.32-1.125-.52c-.67-.28-1.164-.542-1.48-.78s-.543-.516-.687-.825-.215-.69-.215-1.145c0-.776.3-1.376.902-1.8s1.454-.638 2.56-.638c1.05 0 2.074.23 3.07.688l-.72 1.72c-.438-.19-.847-.342-1.227-.462s-.77-.18-1.164-.18c-.704 0-1.056.19-1.056.57 0 .214.113.398.34.555s.723.388 1.488.695c.683.276 1.183.534 1.5.773s.552.517.703.83.23.685.23 1.118zM291.44 314.498c-1.026 0-1.83-.372-2.414-1.117h-.125c.084.73.126 1.152.126 1.267v3.54h-2.383v-12.58h1.938l.337 1.134h.11c.557-.863 1.382-1.296 2.476-1.296 1.03 0 1.84.398 2.422 1.195s.875 1.902.875 3.32c0 .932-.137 1.74-.41 2.43s-.663 1.21-1.168 1.57-1.1.538-1.782.538zm-.703-7.148c-.59 0-1.02.18-1.29.543s-.41.96-.42 1.793v.258c0 .938.14 1.61.417 2.016s.72.61 1.324.61c1.067 0 1.602-.88 1.602-2.642 0-.86-.132-1.504-.395-1.934s-.675-.644-1.238-.644zM297.066 303.35c0-.776.433-1.164 1.297-1.164s1.297.388 1.297 1.164c0 .37-.108.657-.324.863s-.54.31-.973.31c-.864-.002-1.297-.392-1.297-1.173zm2.485 10.992h-2.382v-8.734h2.383v8.734zM307.326 305.443c.323 0 .59.023.805.07l-.18 2.234c-.19-.052-.426-.078-.702-.078-.76 0-1.353.194-1.777.585s-.636.938-.636 1.64v4.446h-2.383v-8.733h1.806l.352 1.47h.117c.27-.49.637-.885 1.098-1.185s.96-.45 1.503-.45zM315.664 314.342l-.46-1.188h-.063c-.4.505-.812.855-1.237 1.05s-.978.294-1.66.294c-.84 0-1.5-.24-1.98-.72s-.723-1.16-.723-2.046c0-.927.324-1.61.973-2.05s1.626-.685 2.934-.73l1.516-.048v-.383c0-.885-.453-1.327-1.36-1.327-.697 0-1.518.21-2.46.633l-.79-1.61c1.006-.525 2.12-.788 3.345-.788 1.172 0 2.07.255 2.695.766s.938 1.286.938 2.328v5.82h-1.666zm-.703-4.047l-.92.03c-.693.022-1.21.147-1.548.376s-.508.58-.508 1.048c0 .672.386 1.008 1.156 1.008.552 0 .993-.16 1.324-.477s.496-.74.496-1.267v-.718zM322.563 314.342h-2.383v-12.156h2.383v12.156zM336.95 311.17c0 1.03-.372 1.844-1.114 2.438s-1.774.89-3.098.89c-1.22 0-2.297-.228-3.234-.687v-2.25c.77.345 1.423.587 1.957.728s1.023.21 1.466.21c.53 0 .938-.1 1.223-.304s.425-.505.425-.906c0-.224-.062-.423-.188-.598s-.31-.343-.55-.504-.736-.42-1.48-.773c-.7-.328-1.223-.644-1.57-.945s-.63-.653-.837-1.055-.312-.87-.312-1.406c0-1.01.343-1.805 1.027-2.383s1.632-.867 2.84-.867c.594 0 1.16.07 1.7.21s1.102.34 1.69.595l-.78 1.883c-.61-.25-1.114-.425-1.513-.523s-.79-.148-1.176-.148c-.458 0-.81.106-1.055.32s-.366.492-.366.836c0 .214.05.4.148.56s.257.31.473.46.728.415 1.535.8c1.067.512 1.8 1.023 2.195 1.536s.594 1.14.594 1.884zM344.03 314.498c-1.027 0-1.832-.372-2.415-1.117h-.125c.083.73.125 1.152.125 1.267v3.54h-2.383v-12.58h1.938l.336 1.134h.11c.557-.863 1.382-1.296 2.476-1.296 1.03 0 1.84.398 2.422 1.195s.875 1.902.875 3.32c0 .932-.138 1.74-.41 2.43s-.664 1.21-1.17 1.57-1.098.538-1.78.538zm-.704-7.148c-.59 0-1.02.18-1.29.543s-.41.96-.42 1.793v.258c0 .938.14 1.61.417 2.016s.72.61 1.324.61c1.067 0 1.602-.88 1.602-2.642 0-.86-.133-1.504-.396-1.934s-.675-.644-1.238-.644zM355.305 314.342l-.46-1.188h-.063c-.4.505-.813.855-1.238 1.05s-.978.294-1.66.294c-.84 0-1.5-.24-1.98-.72s-.723-1.16-.723-2.046c0-.927.325-1.61.974-2.05s1.626-.685 2.934-.73l1.516-.048v-.383c0-.885-.453-1.327-1.36-1.327-.697 0-1.518.21-2.46.633l-.79-1.61c1.006-.525 2.12-.788 3.345-.788 1.17 0 2.07.255 2.694.766s.938 1.286.938 2.328v5.82h-1.667zm-.703-4.047l-.922.03c-.692.022-1.208.147-1.547.376s-.508.58-.508 1.048c0 .672.386 1.008 1.156 1.008.553 0 .994-.16 1.325-.477s.496-.74.496-1.267v-.718zM363.368 314.498c-2.72 0-4.078-1.492-4.078-4.477 0-1.483.37-2.617 1.11-3.4s1.8-1.177 3.18-1.177c1.01 0 1.916.198 2.718.594l-.703 1.844c-.375-.15-.724-.273-1.047-.37s-.646-.145-.97-.145c-1.238 0-1.858.88-1.858 2.64 0 1.71.62 2.563 1.86 2.563.457 0 .882-.062 1.272-.184s.78-.313 1.172-.574v2.04c-.386.244-.774.413-1.168.507s-.89.14-1.488.14zM372.4 314.498c-1.405 0-2.504-.388-3.296-1.164s-1.188-1.875-1.188-3.297c0-1.464.366-2.595 1.098-3.395s1.743-1.2 3.035-1.2c1.233 0 2.194.353 2.882 1.056s1.03 1.675 1.03 2.914v1.156h-5.632c.026.677.227 1.206.602 1.586s.9.57 1.578.57c.526 0 1.023-.055 1.492-.164s.958-.284 1.47-.523v1.844c-.418.21-.863.364-1.337.466s-1.05.152-1.734.152zm-.335-7.36c-.505 0-.9.16-1.188.48s-.45.775-.492 1.364h3.344c-.012-.59-.165-1.043-.462-1.363s-.698-.48-1.203-.48zM266.746 326.19c-1.074 0-1.92.345-2.537 1.032s-.927 1.63-.927 2.824c0 1.223.29 2.172.873 2.848s1.414 1.014 2.496 1.014c.72 0 1.38-.092 1.98-.275v.527c-.566.2-1.273.3-2.12.3-1.204 0-2.15-.39-2.843-1.167s-1.038-1.863-1.038-3.258c0-.87.165-1.64.495-2.303s.805-1.177 1.424-1.538 1.34-.542 2.16-.542c.836 0 1.584.156 2.244.47l-.24.538c-.624-.312-1.28-.47-1.968-.47zM278.645 330.047c0 1.36-.34 2.435-1.02 3.226s-1.617 1.187-2.812 1.187c-1.19 0-2.127-.396-2.807-1.187s-1.02-1.87-1.02-3.237c0-1.363.343-2.437 1.028-3.22s1.622-1.175 2.81-1.175c1.195 0 2.13.395 2.807 1.182s1.015 1.862 1.015 3.225zm-7.008 0c0 1.227.273 2.175.82 2.845s1.332 1.005 2.355 1.005c1.03 0 1.82-.332 2.364-.996s.817-1.614.817-2.853c0-1.234-.272-2.18-.817-2.84s-1.33-.986-2.353-.986c-1.02 0-1.806.333-2.358.997s-.828 1.607-.828 2.83zM288.34 334.342h-.493l-1.88-6.61c-.157-.542-.274-.987-.353-1.335-.062.34-.15.73-.267 1.172s-.745 2.698-1.89 6.772h-.504l-2.355-8.566h.627l1.5 5.52c.06.223.113.43.164.618s.096.367.137.533.078.326.11.48.064.31.092.466c.093-.53.292-1.338.597-2.42l1.465-5.197h.662l1.717 5.965c.2.69.343 1.243.43 1.665.05-.28.115-.58.195-.896s.683-2.562 1.808-6.733h.604l-2.368 8.565zM300.32 330.047c0 1.36-.34 2.435-1.02 3.226s-1.618 1.187-2.813 1.187c-1.19 0-2.127-.396-2.807-1.187s-1.02-1.87-1.02-3.237c0-1.363.343-2.437 1.028-3.22s1.622-1.175 2.81-1.175c1.195 0 2.13.395 2.807 1.182s1.014 1.862 1.014 3.225zm-7.008 0c0 1.227.273 2.175.82 2.845s1.332 1.005 2.355 1.005c1.03 0 1.82-.332 2.364-.996s.818-1.614.818-2.853c0-1.234-.272-2.18-.817-2.84s-1.328-.986-2.352-.986c-1.02 0-1.806.333-2.358.997s-.828 1.607-.828 2.83zM303.785 330.61v3.73h-.598v-8.565h2.04c1.06 0 1.847.196 2.354.59s.763.982.763 1.77c0 .575-.15 1.06-.454 1.454s-.764.677-1.38.85l2.325 3.9h-.715l-2.21-3.73h-2.125zm0-.516h1.635c.723 0 1.283-.16 1.682-.483s.598-.797.598-1.426c0-.652-.195-1.127-.586-1.424s-1.027-.445-1.91-.445h-1.418v3.78zM316.98 334.342h-.733l-3.287-4.523-1.143 1.007v3.516h-.598v-8.566h.597v4.453l.95-.95 3.356-3.503h.762l-3.51 3.62 3.604 4.945zM319.092 334.342v-8.566h.598v8.566h-.598zM329.243 334.342h-.604l-5.075-7.605h-.047c.047.906.07 1.59.07 2.05v5.556h-.574v-8.566h.598l5.068 7.594h.035c-.035-.702-.053-1.37-.053-2.003v-5.59h.58v8.565zM335.938 330.023h3.158v3.908c-.828.353-1.76.528-2.795.528-1.35 0-2.387-.382-3.107-1.146s-1.08-1.845-1.08-3.243c0-.872.178-1.645.535-2.318s.87-1.194 1.535-1.562 1.43-.55 2.294-.55c.934 0 1.77.17 2.514.515l-.24.54c-.74-.345-1.51-.517-2.308-.517-1.13 0-2.024.35-2.687 1.046s-.993 1.638-.993 2.82c0 1.29.314 2.26.943 2.91s1.553.976 2.77.976c.79 0 1.46-.11 2.01-.334v-3.012h-2.548v-.56zM352.37 334.342h-.605v-4.213h-5.004v4.212h-.597v-8.566h.598v3.803h5.005v-3.804h.604v8.566zM361.994 325.775v5.543c0 .984-.285 1.754-.855 2.31s-1.366.83-2.386.83c-.992 0-1.767-.277-2.323-.834s-.834-1.333-.834-2.33v-5.52h.604v5.544c0 .824.23 1.466.686 1.925s1.104.688 1.94.688c.815 0 1.448-.225 1.897-.676s.674-1.077.674-1.878v-5.602h.597zM365.226 325.775h2.35c1.06 0 1.836.18 2.332.54s.744.9.744 1.628c0 .496-.15.91-.454 1.24s-.745.54-1.327.635v.035c.685.102 1.188.317 1.51.647s.483.79.483 1.38c0 .79-.262 1.396-.785 1.822s-1.266.64-2.227.64h-2.624v-8.567zm.597 3.815h1.887c.805 0 1.39-.134 1.755-.4s.548-.688.548-1.258-.206-.984-.618-1.242-1.026-.387-1.843-.387h-1.73v3.287zm0 .527v3.697h2.016c1.585 0 2.378-.645 2.378-1.934 0-1.176-.836-1.764-2.508-1.764h-1.887zM521.71 314.342h-6.58V302.92h6.58v1.984h-4.157v2.508h3.867v1.984h-3.867v2.945h4.156v2.002zM532.367 314.342h-2.383v-5.102c0-.63-.112-1.103-.336-1.418s-.58-.473-1.07-.473c-.667 0-1.148.222-1.445.667s-.445 1.184-.445 2.215v4.11h-2.383v-8.735h1.82l.32 1.117h.133c.266-.422.632-.74 1.098-.957s.996-.324 1.59-.324c1.016 0 1.786.274 2.312.824s.79 1.343.79 2.38v5.695zM541.313 311.748c0 .896-.312 1.578-.934 2.047s-1.555.703-2.794.703c-.636 0-1.177-.043-1.625-.13s-.866-.21-1.257-.378v-1.97c.442.21.94.384 1.496.524s1.042.21 1.464.21c.864 0 1.297-.25 1.297-.75 0-.187-.057-.34-.17-.456s-.313-.25-.595-.398-.656-.32-1.125-.52c-.672-.28-1.165-.542-1.48-.78s-.544-.516-.688-.825-.215-.69-.215-1.145c0-.776.3-1.376.902-1.8s1.453-.638 2.558-.638c1.052 0 2.075.23 3.07.688l-.72 1.72c-.437-.19-.846-.342-1.226-.462s-.77-.18-1.164-.18c-.703 0-1.055.19-1.055.57 0 .214.113.398.34.555s.723.388 1.488.695c.684.276 1.184.534 1.5.773s.553.517.704.83.23.685.23 1.118zM548.37 314.498c-1.026 0-1.83-.372-2.414-1.117h-.125c.084.73.126 1.152.126 1.267v3.54h-2.383v-12.58h1.938l.337 1.134h.11c.557-.863 1.382-1.296 2.476-1.296 1.03 0 1.84.398 2.422 1.195s.875 1.902.875 3.32c0 .932-.137 1.74-.41 2.43s-.663 1.21-1.168 1.57-1.1.538-1.782.538zm-.703-7.148c-.59 0-1.02.18-1.29.543s-.41.96-.42 1.793v.258c0 .938.14 1.61.417 2.016s.72.61 1.324.61c1.067 0 1.602-.88 1.602-2.642 0-.86-.132-1.504-.395-1.934s-.676-.644-1.238-.644zM553.996 303.35c0-.776.433-1.164 1.297-1.164s1.297.388 1.297 1.164c0 .37-.108.657-.324.863s-.54.31-.973.31c-.864-.002-1.297-.392-1.297-1.173zm2.484 10.992h-2.383v-8.734h2.383v8.734zM564.256 305.443c.323 0 .59.023.805.07l-.18 2.234c-.19-.052-.426-.078-.702-.078-.76 0-1.353.194-1.777.585s-.636.938-.636 1.64v4.446h-2.383v-8.733h1.806l.352 1.47h.117c.27-.49.637-.885 1.098-1.185s.96-.45 1.503-.45zM572.594 314.342l-.46-1.188h-.063c-.4.505-.812.855-1.237 1.05s-.978.294-1.66.294c-.84 0-1.5-.24-1.98-.72s-.723-1.16-.723-2.046c0-.927.324-1.61.973-2.05s1.626-.685 2.934-.73l1.516-.048v-.383c0-.885-.453-1.327-1.36-1.327-.697 0-1.518.21-2.46.633l-.79-1.61c1.006-.525 2.12-.788 3.345-.788 1.172 0 2.07.255 2.695.766s.938 1.286.938 2.328v5.82h-1.666zm-.703-4.047l-.92.03c-.693.022-1.21.147-1.548.376s-.508.58-.508 1.048c0 .672.386 1.008 1.156 1.008.552 0 .993-.16 1.324-.477s.496-.74.496-1.267v-.718zM579.493 314.342h-2.383v-12.156h2.383v12.156zM589.56 309.96v4.382h-2.423V302.92h3.328c1.552 0 2.7.282 3.445.848s1.117 1.423 1.117 2.574c0 .672-.185 1.27-.555 1.793s-.894.934-1.57 1.23c1.72 2.567 2.84 4.227 3.36 4.977h-2.69l-2.726-4.383h-1.287zm0-1.97h.78c.766 0 1.33-.128 1.695-.383s.547-.656.547-1.203c0-.542-.187-.927-.56-1.156s-.948-.344-1.73-.344h-.733v3.086zM601.865 314.498c-1.406 0-2.505-.388-3.297-1.164s-1.188-1.875-1.188-3.297c0-1.464.366-2.595 1.098-3.395s1.743-1.2 3.035-1.2c1.234 0 2.195.353 2.883 1.056s1.03 1.675 1.03 2.914v1.156h-5.632c.026.677.227 1.206.602 1.586s.9.57 1.578.57c.526 0 1.023-.055 1.492-.164s.958-.284 1.47-.523v1.844c-.418.21-.863.364-1.337.466s-1.052.152-1.735.152zm-.336-7.36c-.506 0-.902.16-1.19.48s-.45.775-.49 1.364h3.343c-.01-.59-.164-1.043-.46-1.363s-.7-.48-1.204-.48zM611.445 312.6c.417 0 .917-.09 1.5-.273v1.773c-.594.266-1.323.398-2.188.398-.953 0-1.647-.24-2.082-.723s-.652-1.204-.652-2.168v-4.21h-1.14v-1.01l1.31-.796.69-1.843h1.522v1.86h2.445v1.788h-2.445v4.21c0 .34.095.59.285.75s.443.245.755.245zM619.985 305.443c.323 0 .59.023.805.07l-.18 2.234c-.192-.052-.427-.078-.703-.078-.76 0-1.353.194-1.777.585s-.637.938-.637 1.64v4.446h-2.383v-8.733h1.805l.352 1.47h.117c.27-.49.637-.885 1.098-1.185s.96-.45 1.503-.45zM626.73 314.498c-1.407 0-2.506-.388-3.298-1.164s-1.188-1.875-1.188-3.297c0-1.464.366-2.595 1.098-3.395s1.743-1.2 3.035-1.2c1.234 0 2.195.353 2.883 1.056s1.03 1.675 1.03 2.914v1.156h-5.632c.026.677.227 1.206.602 1.586s.9.57 1.578.57c.526 0 1.023-.055 1.492-.164s.958-.284 1.47-.523v1.844c-.418.21-.863.364-1.337.466s-1.05.152-1.734.152zm-.336-7.36c-.505 0-.9.16-1.188.48s-.45.775-.492 1.364h3.344c-.01-.59-.164-1.043-.46-1.363s-.7-.48-1.204-.48zM638.176 314.342l-.46-1.188h-.063c-.4.505-.813.855-1.238 1.05s-.978.294-1.66.294c-.84 0-1.5-.24-1.98-.72s-.723-1.16-.723-2.046c0-.927.324-1.61.973-2.05s1.626-.685 2.934-.73l1.515-.048v-.383c0-.885-.453-1.327-1.36-1.327-.697 0-1.518.21-2.46.633l-.79-1.61c1.006-.525 2.12-.788 3.345-.788 1.172 0 2.07.255 2.695.766s.938 1.286.938 2.328v5.82h-1.667zm-.703-4.047l-.922.03c-.69.022-1.207.147-1.546.376s-.508.58-.508 1.048c0 .672.386 1.008 1.156 1.008.552 0 .993-.16 1.324-.477s.496-.74.496-1.267v-.718zM646.373 312.6c.417 0 .917-.09 1.5-.273v1.773c-.594.266-1.323.398-2.188.398-.953 0-1.647-.24-2.082-.723s-.652-1.204-.652-2.168v-4.21h-1.14v-1.01l1.312-.796.688-1.843h1.523v1.86h2.445v1.788h-2.445v4.21c0 .34.095.59.285.75s.443.245.755.245zM532.91 334.342h-4.682v-8.566h4.682v.55h-4.084v3.24h3.855v.552h-3.854v3.674h4.084v.55zM540.812 325.775h.65l-3.205 8.566h-.527l-3.193-8.565h.64l2.155 5.83c.328.88.55 1.54.662 1.98.078-.293.232-.748.463-1.365l2.355-6.445zM548.257 334.342h-4.682v-8.566h4.682v.55h-4.084v3.24h3.855v.552h-3.855v3.674h4.084v.55zM551.694 330.61v3.73h-.598v-8.565h2.04c1.06 0 1.847.196 2.354.59s.762.982.762 1.77c0 .575-.15 1.06-.454 1.454s-.763.677-1.38.85l2.326 3.9h-.715l-2.21-3.73h-2.126zm0-.516h1.635c.722 0 1.282-.16 1.68-.483s.6-.797.6-1.426c0-.652-.196-1.127-.587-1.424s-1.027-.445-1.91-.445h-1.418v3.78zM561.096 330.463l2.508-4.688h.645l-2.855 5.256v3.312h-.615v-3.264l-2.865-5.303h.686l2.496 4.688zM569.934 330.69c0-1.112.15-2.05.454-2.81s.732-1.322 1.29-1.69 1.227-.55 2.012-.55c.367 0 .703.045 1.008.135v.516c-.285-.104-.63-.157-1.03-.157-.966 0-1.717.348-2.254 1.043s-.84 1.707-.905 3.035h.075c.297-.382.637-.67 1.02-.866s.787-.293 1.213-.293c.8 0 1.427.23 1.878.687s.677 1.088.677 1.893c0 .875-.237 1.565-.712 2.07s-1.113.76-1.918.76c-.867 0-1.552-.33-2.054-.993s-.754-1.588-.754-2.776zm2.806 3.253c.64 0 1.14-.2 1.494-.604s.533-.978.533-1.724c0-.656-.176-1.168-.527-1.535s-.83-.55-1.436-.55c-.398 0-.77.088-1.11.264s-.614.41-.817.7-.305.59-.305.894c0 .434.097.85.29 1.25s.455.72.785.953.695.353 1.093.353zM585.913 334.342l-3.193-7.91h-.047c.03.484.047.98.047 1.488v6.422h-.574v-8.566h.926l3.035 7.535h.035l3.035-7.534h.902v8.566h-.605v-6.492c0-.453.023-.922.07-1.406h-.047l-3.205 7.898h-.38zM600.6 330.047c0 1.36-.34 2.435-1.02 3.226s-1.617 1.187-2.812 1.187c-1.19 0-2.127-.396-2.807-1.187s-1.02-1.87-1.02-3.237c0-1.363.344-2.437 1.03-3.22s1.62-1.175 2.81-1.175c1.194 0 2.13.395 2.806 1.182s1.014 1.862 1.014 3.225zm-7.008 0c0 1.227.273 2.175.82 2.845s1.332 1.005 2.355 1.005c1.03 0 1.82-.332 2.364-.996s.818-1.614.818-2.853c0-1.234-.272-2.18-.817-2.84s-1.328-.986-2.352-.986c-1.02 0-1.806.333-2.358.997s-.828 1.607-.828 2.83zM609.697 334.342h-.604l-5.074-7.605h-.048c.047.906.07 1.59.07 2.05v5.556h-.574v-8.566h.598l5.068 7.594h.035c-.036-.702-.054-1.37-.054-2.003v-5.59h.58v8.565zM615.256 334.342h-.604v-8.004h-2.783v-.562h6.17v.562h-2.784v8.004zM626.415 334.342h-.604v-4.213h-5.003v4.212h-.598v-8.566h.597v3.803h5.004v-3.804h.605v8.566zM634.47 332.133c0 .715-.263 1.28-.788 1.7s-1.224.626-2.095.626c-1.047 0-1.85-.116-2.408-.347v-.598c.616.262 1.403.393 2.36.393.703 0 1.26-.16 1.673-.483s.618-.745.618-1.27c0-.323-.067-.592-.204-.805s-.36-.407-.668-.583-.762-.365-1.36-.568c-.874-.302-1.478-.627-1.812-.977s-.5-.815-.5-1.397c0-.64.25-1.163.752-1.567s1.147-.607 1.937-.607c.805 0 1.56.152 2.268.457l-.217.516c-.71-.297-1.39-.445-2.04-.445-.632 0-1.136.147-1.51.44s-.563.69-.563 1.195c0 .316.058.576.173.78s.304.385.565.547.712.356 1.35.583c.667.23 1.17.454 1.505.67s.58.464.735.74.23.607.23.998z"/><path fill="none" stroke="#D6D6D6" stroke-miterlimit="10" d="M200 384.44h195M478 384.44h195"/><g fill="#969696"><path d="M418.746 108.007c0 1.37-.347 2.45-1.04 3.234s-1.657 1.18-2.892 1.18c-1.262 0-2.235-.387-2.92-1.158s-1.03-1.86-1.03-3.267c0-1.395.345-2.476 1.032-3.243s1.664-1.15 2.93-1.15c1.23 0 2.19.39 2.883 1.17s1.036 1.86 1.036 3.235zm-6.826 0c0 1.16.247 2.04.74 2.64s1.213.9 2.154.9c.95 0 1.666-.3 2.15-.897s.727-1.48.727-2.643c0-1.152-.24-2.026-.723-2.622s-1.196-.894-2.142-.894c-.95 0-1.67.3-2.165.9s-.74 1.472-.74 2.617zM422.853 112.302h-.996v-8.566h4.775v.885h-3.78v3.136h3.552v.885h-3.55v3.662zM430.246 112.302h-.996v-8.566h4.775v.885h-3.78v3.136h3.552v.885h-3.55v3.662zM436.643 112.302v-8.566h.996v7.664h3.778v.902h-4.775zM444.07 112.302v-8.566h.997v8.566h-.996zM455.31 112.302h-1.138l-4.682-7.19h-.047c.062.845.094 1.618.094 2.32v4.87h-.92v-8.566h1.125l4.67 7.16h.047c-.01-.105-.026-.444-.054-1.017s-.037-.982-.03-1.23v-4.915h.933v8.567zM463.64 112.302h-4.775v-8.566h4.775v.885h-3.78v2.76h3.552v.88h-3.55v3.152h3.778v.89z"/></g><path fill="none" stroke="#D6D6D6" stroke-miterlimit="10" d="M200 110.44h195M478 110.44h195"/><path fill="none" stroke="#C2C2C4" stroke-width="2" stroke-miterlimit="10" d="M260 163.94v15M247 163.94v15M260 189.94v14M247 189.94v14M260 218.94v15M247 218.94v15M260 244.94v14M247 244.94v14M382 163.94v15M369 163.94v15M382 189.94v14M369 189.94v14M382 218.94v15M369 218.94v15M382 244.94v14M369 244.94v14"/><g fill-rule="evenodd" clip-rule="evenodd" fill="#AFAFAF"><path d="M588.154 195.286c2.28 3.72 4.094 7.764 3.553 12.44-.143 1.24-.785 2.506-1.473 3.583-1.396 2.182-2.982 4.243-4.504 6.376-3.256-1.874-5.22-6.74-3.785-10.696.863-2.375 2.377-4.514 3.588-6.764.856-1.593 1.696-3.196 2.62-4.94zM592.576 202.758c3 2.584 4.23 8.643 2.428 11.39-.723 1.105-2.02 1.944-3.225 2.585-1.07.567-2.376.69-3.89 1.096.215-.894.285-1.585.55-2.19.282-.64.69-1.254 1.15-1.783 2.67-3.07 4.41-6.41 2.986-11.1zM583.803 217.69c-3.068.016-5.115-1.503-5.89-4.126-.68-2.31.34-5.104 2.61-6.748-.476 4.152-.834 8.186 3.28 10.875zM588.078 219.59c2.102-.508 4.19-1.094 6.318-1.453.434-.072 1.01.717 1.52 1.11-.358.382-.645.91-1.085 1.12-2.274 1.076-4.507.73-6.683-.28-.022-.165-.045-.33-.07-.498zM579.605 223.115c.002.05-.01.098-.016.146-.35.12-.687.265-1.015.425-.37.117-.71.293-1.012.52-.197.107-.396.213-.598.315-.28.144-.328.402-.248.628-.045.143-.05.295.043.44.08.126.19.223.293.327.035.393.307.81.924 1.23.11.076.23.13.346.2.176-.048.328-.142.455-.27.227-.07.436-.16.625-.27.967-.257 1.992-.898 2.758-1.443.054-.036.09-.08.124-.128.756-.41.898-.432 1.826-.937-2.028-.772-2.874-2.36-4.505-1.182zM595.363 225.41c.81-.84 1.264-1.79.584-2.615-.004-.005-.004-.01-.01-.016-.57-.136-1.145-.263-1.73-.295-.105.002-.225-.01-.37-.047-.267-.068-.43-.245-.515-.454-2.326-.615-4.684-1.288-7.076-1.798-2.184-.466-4.416-.696-6.63-1.017-1.16-.168-1.343.7-1.5 1.518-.198 1.032.526 1.104 1.28 1.222 1.344.213 2.688.455 4.01.77 3.03.72 6.04 1.476 8.994 2.207.827.545 2.032.854 2.963.522z"/></g><path fill="#969696" d="M344.16 485.94H215.598c-.223 0-.598-.94-.598-.72v74.04c0 .222.375.68.598.68H268v7h-16v7h55v-7h-17v-7h54.16c.223 0-.16-.458-.16-.68v-74.04c0-.22.383.72.16.72z"/><g fill-rule="evenodd" clip-rule="evenodd" fill="#969696"><path d="M486.25 481.625h-81.79c-.108-1.45-.284-2.73-.286-4.014-.02-14.2-.03-28.403-.01-42.604.008-6.408 2.12-8.693 8.367-8.705 21.896-.043 43.79-.03 65.685.042 5.764.02 8.014 2.38 8.025 8.15.03 15.526.01 31.05.01 47.133zM387.71 485.062H502.7c1.255 4.762.76 5.47-5.18 6.126-3.34.367-6.772.366-10.165.37-28.523.03-57.05.035-85.572.016-2.95 0-5.936-.028-8.842-.355-5.95-.67-6.403-1.294-5.23-6.158z"/></g><g><path fill="#969696" d="M673.775 559.26c0 .22.6.42.38.42h-54.38v7h17v7h-55v-7h16v-7h-52.19c-.22 0-.81-.2-.81-.42v-74.04c0-.228.59.46.81.46h128.19v73.58zm-4-5.58v-64h-120v64h120zM673.775 485.22c0-.228.6.46.38.46h-.38v-.46z"/><path fill="#00D096" d="M549.775 489.68h120v64h-120z"/><path fill="#80529B" d="M481.775 431.18v46.05h-73.44v-46.05h73.44z"/><path fill="#FFA800" d="M219.775 489.68h120v64h-120z"/></g><path fill="none" stroke="#FFA800" stroke-width="2" stroke-miterlimit="10" stroke-dasharray="4,2" d="M394.78 448.126s-44.347 1.562-80 26.554"/><path fill="none" stroke="#80529B" stroke-width="2" stroke-miterlimit="10" stroke-dasharray="4,2" d="M538.78 525.346M489.45 459.346"/><defs><circle id="a" cx="241.115" cy="523.014" r="11"/></defs><use xlink:href="#a" overflow="visible" fill-rule="evenodd" clip-rule="evenodd" fill="#F2F2F2"/><clipPath id="b"><use xlink:href="#a" overflow="visible"/></clipPath><g clip-path="url(#b)"><ellipse fill-rule="evenodd" clip-rule="evenodd" fill="#EAEAEA" cx="240.989" cy="551.274" rx="7.562" ry="2.518"/><g fill-rule="evenodd" clip-rule="evenodd" fill="#80529B"><path d="M236.637 527.216c3.117 2.25 5.354 2.25 8.965 0 1.387 1.758 1.86 3.743 2.217 5.913.138.827.368 2.774.327 3.614-.096 1.987-.512 2.05-1.037 2.41-.225.152-.33.527-.37.814-.337 2.375-.806 4.746-.925 7.134-.18 3.62-4.156 4.812-6.574 3.82-1.653-.68-2.66-1.83-2.853-3.7-.248-2.416-.61-4.822-.97-7.226-.052-.36-.032-.873-.54-1.02 0 0-.99-.406-.99-2.13-.05-3.12.455-6.15 2.13-8.875.114-.184.506-.657.62-.754zM246.338 522.4c-.047 2.855-2.455 5.202-5.314 5.18-2.89-.023-5.225-2.45-5.193-5.394.032-2.867 2.415-5.178 5.313-5.15 2.927.028 5.24 2.42 5.195 5.364z"/></g></g><use xlink:href="#a" overflow="visible" fill-rule="evenodd" clip-rule="evenodd" fill="none" stroke="#C2C2C4" stroke-miterlimit="10"/><defs><circle id="c" cx="423.115" cy="452.014" r="9"/></defs><use xlink:href="#c" overflow="visible" fill-rule="evenodd" clip-rule="evenodd" fill="#F2F2F2"/><clipPath id="d"><use xlink:href="#c" overflow="visible"/></clipPath><g clip-path="url(#d)"><ellipse fill-rule="evenodd" clip-rule="evenodd" fill="#EAEAEA" cx="423.012" cy="475.137" rx="6.188" ry="2.06"/><g fill-rule="evenodd" clip-rule="evenodd" fill="#E95A78"><path d="M419.45 455.452c2.552 1.84 4.38 1.84 7.335 0 1.135 1.438 1.523 3.062 1.814 4.838.112.678.3 2.27.27 2.958-.08 1.626-.42 1.678-.85 1.972-.185.125-.27.432-.304.666-.275 1.943-.658 3.884-.756 5.837-.148 2.96-3.4 3.938-5.38 3.125-1.353-.556-2.177-1.496-2.335-3.026-.203-1.977-.5-3.945-.793-5.912-.043-.294-.025-.714-.443-.836 0 0-.81-.33-.81-1.74-.04-2.555.373-5.033 1.742-7.263.095-.152.417-.54.51-.618zM427.39 451.512c-.04 2.336-2.01 4.257-4.35 4.237-2.364-.02-4.274-2.005-4.25-4.413.026-2.346 1.976-4.236 4.35-4.213 2.393.022 4.286 1.978 4.25 4.388z"/></g></g><use xlink:href="#c" overflow="visible" fill-rule="evenodd" clip-rule="evenodd" fill="none" stroke="#C2C2C4" stroke-miterlimit="10"/><defs><circle id="e" cx="445.115" cy="452.014" r="9"/></defs><use xlink:href="#e" overflow="visible" fill-rule="evenodd" clip-rule="evenodd" fill="#F2F2F2"/><clipPath id="f"><use xlink:href="#e" overflow="visible"/></clipPath><g clip-path="url(#f)"><ellipse fill-rule="evenodd" clip-rule="evenodd" fill="#EAEAEA" cx="445.012" cy="475.137" rx="6.188" ry="2.06"/><g fill-rule="evenodd" clip-rule="evenodd" fill="#4F4E4E"><path d="M441.45 455.452c2.552 1.84 4.38 1.84 7.335 0 1.135 1.438 1.523 3.062 1.814 4.838.112.678.3 2.27.27 2.958-.08 1.626-.42 1.678-.85 1.972-.185.125-.27.432-.304.666-.275 1.943-.658 3.884-.756 5.837-.148 2.96-3.4 3.938-5.38 3.125-1.353-.556-2.177-1.496-2.335-3.026-.203-1.977-.5-3.945-.793-5.912-.043-.294-.025-.714-.443-.836 0 0-.81-.33-.81-1.74-.04-2.555.373-5.033 1.742-7.263.095-.152.417-.54.51-.618zM449.39 451.512c-.04 2.336-2.01 4.257-4.35 4.237-2.364-.02-4.274-2.005-4.25-4.413.026-2.346 1.976-4.236 4.35-4.213 2.393.022 4.286 1.978 4.25 4.388z"/></g></g><use xlink:href="#e" overflow="visible" fill-rule="evenodd" clip-rule="evenodd" fill="none" stroke="#C2C2C4" stroke-miterlimit="10"/><defs><circle id="g" cx="467.115" cy="452.014" r="9"/></defs><use xlink:href="#g" overflow="visible" fill-rule="evenodd" clip-rule="evenodd" fill="#F2F2F2"/><clipPath id="h"><use xlink:href="#g" overflow="visible"/></clipPath><g clip-path="url(#h)"><ellipse fill-rule="evenodd" clip-rule="evenodd" fill="#EAEAEA" cx="467.012" cy="475.137" rx="6.188" ry="2.06"/><g fill-rule="evenodd" clip-rule="evenodd" fill="#00ACD0"><path d="M463.45 455.452c2.552 1.84 4.38 1.84 7.335 0 1.135 1.438 1.523 3.062 1.814 4.838.112.678.3 2.27.27 2.958-.08 1.626-.42 1.678-.85 1.972-.185.125-.27.432-.304.666-.275 1.943-.658 3.884-.756 5.837-.148 2.96-3.4 3.938-5.38 3.125-1.353-.556-2.177-1.496-2.335-3.026-.203-1.977-.5-3.945-.793-5.912-.043-.294-.025-.714-.443-.836 0 0-.81-.33-.81-1.74-.04-2.555.373-5.033 1.742-7.263.095-.152.417-.54.51-.618zM471.39 451.512c-.04 2.336-2.01 4.257-4.35 4.237-2.364-.02-4.274-2.005-4.25-4.413.026-2.346 1.976-4.236 4.35-4.213 2.393.022 4.286 1.978 4.25 4.388z"/></g></g><use xlink:href="#g" overflow="visible" fill-rule="evenodd" clip-rule="evenodd" fill="none" stroke="#C2C2C4" stroke-miterlimit="10"/><defs><circle id="i" cx="649.115" cy="522.014" r="11"/></defs><use xlink:href="#i" overflow="visible" fill-rule="evenodd" clip-rule="evenodd" fill="#F2F2F2"/><clipPath id="j"><use xlink:href="#i" overflow="visible"/></clipPath><g clip-path="url(#j)"><ellipse fill-rule="evenodd" clip-rule="evenodd" fill="#EAEAEA" cx="648.989" cy="550.274" rx="7.562" ry="2.518"/><g fill-rule="evenodd" clip-rule="evenodd" fill="#FFA800"><path d="M644.637 526.716c3.117 2.25 5.354 2.25 8.965 0 1.387 1.758 1.86 3.743 2.217 5.913.138.827.368 2.774.327 3.614-.096 1.987-.512 2.05-1.037 2.41-.225.152-.33.527-.37.814-.337 2.375-.806 4.746-.925 7.134-.18 3.62-4.156 4.812-6.574 3.82-1.653-.68-2.66-1.83-2.853-3.7-.248-2.416-.61-4.822-.97-7.226-.052-.36-.032-.873-.54-1.02 0 0-.99-.406-.99-2.13-.05-3.12.455-6.15 2.13-8.875.114-.184.506-.657.62-.754zM654.338 521.9c-.047 2.855-2.455 5.202-5.314 5.18-2.89-.023-5.225-2.45-5.193-5.394.032-2.867 2.415-5.178 5.313-5.15 2.927.028 5.24 2.42 5.195 5.364z"/></g></g><use xlink:href="#i" overflow="visible" fill-rule="evenodd" clip-rule="evenodd" fill="none" stroke="#C2C2C4" stroke-miterlimit="10"/><g fill-rule="evenodd" clip-rule="evenodd"><path fill="#F2F2F2" stroke="#C2C2C4" stroke-miterlimit="10" d="M326.5 531.44h-67v-5.26l-4-4.5 4-4v-4.24h67z"/><path fill="#C2C2C4" d="M266 517.94h36v3h-36zM266 523.94h20v3h-20z"/></g><g fill-rule="evenodd" clip-rule="evenodd"><path fill="#F2F2F2" stroke="#C2C2C4" stroke-miterlimit="10" d="M561.5 531.44h67v-5.26l4-4.5-4-4v-4.24h-67z"/><path fill="#C2C2C4" d="M568 517.94h54v3h-54zM568 523.94h29v3h-29z"/></g><path fill="none" stroke="#00D096" stroke-width="2" stroke-miterlimit="10" stroke-dasharray="4,2" d="M351.78 566.68c97.67 43 188 0 188 0"/><path fill="none" stroke="#80529B" stroke-width="2" stroke-miterlimit="10" stroke-dasharray="4,2" d="M495.78 447.346s44.35 1.562 80 26.554"/></g></svg>