<?xml version="1.0" encoding="utf-8"?>
<!-- Generator: Adobe Illustrator 16.0.0, SVG Export Plug-In . SVG Version: 6.00 Build 0)  -->
<!DOCTYPE svg PUBLIC "-//W3C//DTD SVG 1.1//EN" "http://www.w3.org/Graphics/SVG/1.1/DTD/svg11.dtd">
<svg version="1.1" id="Layer_1" xmlns="http://www.w3.org/2000/svg" xmlns:xlink="http://www.w3.org/1999/xlink" x="0px" y="0px"
	 width="501.723px" height="489.375px" viewBox="188.565 53.81 501.723 489.375"
	 enable-background="new 188.565 53.81 501.723 489.375" xml:space="preserve">
<g>
	<g enable-background="new    ">
		<path fill="#D6D6D6" d="M623.93,303.97l-0.21,4.284l-38.79,13.422l0.206-4.284L623.93,303.97z M232.194,368.89l0.208-4.284
			c0.36-7.433,2.023-14.856,5.021-22.184c11.874-29.016,43.21-53.01,88.231-67.56c9.674-3.126,19.916-5.745,30.424-7.78
			c84.283-16.32,180.505,4.678,229.059,50.31l-0.206,4.284c-48.558-45.633-144.777-66.63-229.061-50.31
			c-10.507,2.035-20.75,4.653-30.423,7.778c-45.02,14.55-76.357,38.545-88.229,67.562
			C234.219,354.033,232.555,361.456,232.194,368.89L232.194,368.89z"/>
		<path fill="#EFEFEF" d="M249.82,418.838c-12.464-15.967-18.442-32.972-17.626-49.937l0.208-4.283
			c-0.707,14.66,3.66,29.35,12.903,43.374l-0.05,1.063l0.05-1.062c4.628,7.021,10.479,13.877,17.522,20.478
			c54.1,50.69,161.895,74.21,256.325,55.92c11.771-2.277,23.217-5.201,34.048-8.699c65.58-21.19,102.38-59.647,104.32-100.511
			l-0.206,4.285c-1.942,40.862-38.74,79.317-104.32,100.51c-10.832,3.497-22.279,6.423-34.05,8.7
			c-94.43,18.287-202.225-5.229-256.323-55.92c-4.833-4.53-9.103-9.177-12.801-13.915c-0.213-0.43-0.439-0.854-0.659-1.279
			c0.22,0.426,0.446,0.85,0.659,1.279L249.82,418.838z M249.204,417.599l-0.022-0.043l-0.024-0.046l-0.024-0.05l-0.024-0.046
			l-0.026-0.05l-0.025-0.051l-0.023-0.049l-0.025-0.049l-0.024-0.048l-0.023-0.048l-0.023-0.045l-0.021-0.045l-0.021-0.042
			l-0.02-0.04l-0.021-0.04l-0.015-0.034l0.016,0.035l0.018,0.037l0.02,0.039l0.021,0.043l0.021,0.046l0.022,0.045l0.023,0.048
			l0.023,0.048l0.023,0.05l0.024,0.049l0.025,0.05l0.025,0.05l0.023,0.047l0.023,0.05l0.025,0.046l0.021,0.043 M248.801,416.633
			v0.025l0.003,0.015l0.002,0.016l0.003,0.019l0.004,0.019v0.018l0.004,0.02l0.004,0.018l0.005,0.02l0.002,0.018l0.003,0.017v0.017
			l0.003,0.017v0.024v-0.026l-0.002-0.015v-0.017l-0.004-0.017l-0.002-0.018l-0.005-0.02l-0.004-0.018l-0.003-0.02v-0.018
			l-0.005-0.018l-0.003-0.018v-0.015l-0.004-0.016L248.801,416.633 M248.802,416.63l-0.1-0.216l-0.104-0.228l-0.104-0.232
			l-0.11-0.24l-0.11-0.244l-0.112-0.25l-0.114-0.25l-0.114-0.256l-0.114-0.256l-0.112-0.255l-0.113-0.254l-0.112-0.248l-0.107-0.248
			l-0.11-0.24l-0.103-0.235l-0.101-0.228l0.101,0.228l0.104,0.236l0.11,0.24l0.107,0.248l0.112,0.25l0.113,0.253l0.112,0.254
			l0.113,0.255l0.113,0.254l0.114,0.25l0.113,0.25l0.11,0.244l0.11,0.24l0.104,0.232l0.104,0.228L248.802,416.63 M247.056,412.755
			l-0.075-0.168l-0.085-0.182l-0.093-0.194l-0.1-0.21l-0.106-0.218l-0.113-0.229l-0.114-0.238l-0.122-0.244l-0.124-0.25l-0.13-0.26
			l-0.131-0.256l-0.13-0.263l-0.132-0.26l-0.132-0.263l-0.13-0.26l-0.13-0.255l0.13,0.257l0.13,0.26l0.132,0.26l0.13,0.26
			l0.132,0.264l0.131,0.258l0.13,0.256l0.123,0.253l0.122,0.243l0.115,0.24l0.114,0.228l0.107,0.22l0.1,0.208l0.093,0.195
			l0.085,0.182l0.075,0.17"/>
		<path fill="#D6D6D6" d="M658.727,375.38l-0.208,4.282c-1.988,41.103-38.99,79.68-104.833,100.955
			c-10.895,3.517-22.423,6.465-34.258,8.757c-95.021,18.4-203.482-5.267-257.908-56.267c-21.258-19.921-31.7-42.132-30.63-64.28
			l0.208-4.283c-1.07,22.146,9.373,44.359,30.63,64.28c54.425,51,162.89,74.666,257.907,56.265
			c11.834-2.293,23.362-5.24,34.256-8.757c65.843-21.274,102.844-59.854,104.834-100.954L658.727,375.38z M624.322,302.95
			c66.066,61.91,34.311,139.54-70.43,173.383c-10.894,3.518-22.422,6.464-34.256,8.756c-95.021,18.4-203.482-5.267-257.906-56.267
			c-28.439-26.648-37.525-57.403-25.574-86.612c11.942-29.2,43.493-53.35,88.812-67.995c9.744-3.145,20.045-5.783,30.63-7.832
			c84.663-16.396,181.296,4.61,230.04,49.947L624.322,302.95z M553.201,475.688c103.943-33.591,135.585-110.548,70.728-171.721
			l-38.794,13.423c-48.555-45.63-144.774-66.63-229.059-50.31c-10.508,2.036-20.75,4.655-30.424,7.78
			c-45.02,14.55-76.357,38.545-88.231,67.56c-11.864,29.017-2.851,59.576,25.406,86.047c54.1,50.69,161.895,74.21,256.325,55.92
			C530.923,482.11,542.369,479.188,553.201,475.688"/>
		<path fill="#D6D6D6" d="M657.52,375.24l-0.207,4.284c1.157-23.923-9.633-48.675-33.592-71.271l0.21-4.286
			C647.888,326.566,658.679,351.318,657.52,375.24L657.52,375.24z"/>
		<path fill="#FFFFFF" d="M356.077,267.082c84.283-16.322,180.505,4.678,228.761,49.875l39.09-12.988
			c64.856,61.17,33.218,138.13-70.727,171.719c-10.83,3.497-22.277,6.422-34.048,8.699c-94.432,18.29-202.226-5.229-256.325-55.92
			c-28.255-26.47-37.271-57.03-25.407-86.046c11.876-29.017,43.213-53.01,88.235-67.56
			C335.328,271.735,345.571,269.116,356.077,267.082L356.077,267.082z"/>
	</g>
	<path fill="#FFFFFF" stroke="#D6D6D6" stroke-miterlimit="10" d="M569.5,140.255c0,6.313-5.393,12.185-12.15,12.185H324.825
		c-6.758,0-12.325-5.87-12.325-12.185V90.723c0-6.312,5.567-10.283,12.325-10.283H557.35c6.76,0,12.15,3.97,12.15,10.283V140.255z"
		/>
	<path fill="#4F4E4E" d="M354.369,123.46c-1.113,0-2.204-0.206-3.229-0.61c-1.135-0.45-2.148-1.118-3.017-1.99
		c-1.646-1.656-2.55-3.857-2.55-6.195c0-2.586,1.13-5.03,3.101-6.705c2.489-2.115,6.125-2.664,9.115-1.4
		c3.267,1.382,5.373,4.562,5.373,8.105c0,1.134-0.213,2.238-0.63,3.28C361.186,121.293,357.983,123.459,354.369,123.46
		L354.369,123.46z M354.369,110.816c-0.928,0-1.788,0.316-2.489,0.912c-0.864,0.734-1.358,1.804-1.358,2.936
		c0,1.023,0.395,1.986,1.112,2.71c0.384,0.384,0.826,0.677,1.319,0.872c0.45,0.178,0.926,0.266,1.415,0.266
		c1.58,0,2.983-0.947,3.57-2.414c0.185-0.455,0.275-0.938,0.275-1.434c0-1.55-0.92-2.943-2.351-3.55
		c-0.47-0.197-0.972-0.298-1.496-0.298H354.369z"/>
	<g>
		<path fill="#4F4E4E" d="M366.825,108.557c0.69-0.146,1.777-0.256,2.884-0.256c1.576,0,2.596,0.274,3.355,0.89
			c0.637,0.473,1.018,1.2,1.018,2.16c0,1.18-0.779,2.213-2.069,2.686v0.036c1.162,0.29,2.521,1.253,2.521,3.066
			c0,1.052-0.416,1.85-1.032,2.45c-0.853,0.78-2.23,1.143-4.229,1.143c-1.09,0-1.922-0.07-2.448-0.145v-12.028V108.557z
			 M368.406,113.562h1.431c1.67,0,2.649-0.87,2.649-2.05c0-1.434-1.09-1.995-2.686-1.995c-0.728,0-1.144,0.054-1.396,0.108
			L368.406,113.562L368.406,113.562z M368.406,119.424c0.306,0.054,0.76,0.073,1.322,0.073c1.633,0,3.14-0.6,3.14-2.377
			c0-1.67-1.437-2.36-3.16-2.36h-1.302V119.424z M380.05,108.393v7.24c0,2.738,1.218,3.9,2.85,3.9c1.813,0,2.977-1.197,2.977-3.9
			v-7.24h1.596v7.13c0,3.756-1.98,5.3-4.625,5.3c-2.505,0-4.391-1.435-4.391-5.227v-7.203H380.05L380.05,108.393z M392.023,108.557
			c0.96-0.146,2.105-0.256,3.357-0.256c2.267,0,3.882,0.528,4.949,1.526c1.091,0.998,1.727,2.414,1.727,4.39
			c0,1.996-0.616,3.63-1.76,4.755c-1.145,1.145-3.03,1.76-5.406,1.76c-1.128,0-2.07-0.054-2.867-0.145v-12.028V108.557z
			 M393.603,119.371c0.4,0.072,0.978,0.09,1.597,0.09c3.373,0,5.206-1.888,5.206-5.188c0.021-2.885-1.612-4.718-4.952-4.718
			c-0.816,0-1.433,0.072-1.85,0.163L393.603,119.371L393.603,119.371z M415.225,120.077c-0.703,0.255-2.103,0.673-3.754,0.673
			c-1.851,0-3.372-0.474-4.57-1.617c-1.053-1.016-1.704-2.648-1.704-4.553c0.019-3.648,2.521-6.314,6.622-6.314
			c1.415,0,2.521,0.31,3.046,0.562l-0.38,1.287c-0.652-0.29-1.468-0.525-2.704-0.525c-2.975,0-4.916,1.85-4.916,4.917
			c0,3.103,1.868,4.936,4.717,4.936c1.036,0,1.745-0.146,2.105-0.327v-3.646h-2.487v-1.27h4.025V120.077L415.225,120.077z
			 M425.784,114.887h-4.754v4.41h5.3v1.324h-6.88v-12.228h6.606v1.324h-5.025v3.865h4.755v1.307L425.784,114.887z M432.495,109.735
			h-3.72v-1.343h9.053v1.343h-3.735v10.886h-1.599L432.495,109.735L432.495,109.735z"/>
	</g>
	<path fill="#4F4E4E" d="M340.352,123.186c-2.675,0-5.238-1.223-6.94-3.42c-0.68-0.88-1.18-1.863-1.486-2.924
		c-0.345-1.18-0.435-2.393-0.273-3.607c0.303-2.318,1.492-4.38,3.344-5.81c2.043-1.58,4.668-2.18,7.2-1.646l-1.023,4.84
		c-1.11-0.237-2.259,0.027-3.152,0.72c-0.81,0.625-1.328,1.526-1.46,2.54c-0.072,0.536-0.03,1.065,0.116,1.58
		c0.135,0.46,0.354,0.892,0.653,1.277c0.969,1.253,2.577,1.78,4.097,1.35l1.352,4.76
		C341.971,123.073,341.155,123.186,340.352,123.186z M341.428,115.753c-0.756,0.583-1.842,0.444-2.427-0.312
		c-0.582-0.755-0.443-1.84,0.312-2.425c0.755-0.584,1.842-0.446,2.427,0.31C342.324,114.083,342.186,115.169,341.428,115.753"/>
	<path fill="#4F4E4E" d="M354.35,123.466c-2.676,0-5.24-1.224-6.94-3.423c-0.677-0.873-1.177-1.857-1.487-2.92
		c-0.341-1.18-0.431-2.39-0.274-3.608c0.307-2.316,1.492-4.38,3.346-5.81c2.044-1.582,4.675-2.183,7.2-1.645l-1.021,4.84
		c-1.115-0.236-2.261,0.028-3.154,0.72c-0.81,0.625-1.33,1.526-1.463,2.54c-0.072,0.537-0.03,1.067,0.12,1.58
		c0.133,0.46,0.354,0.893,0.649,1.275c0.971,1.255,2.58,1.785,4.098,1.35l1.353,4.762
		C355.967,123.355,355.153,123.467,354.35,123.466L354.35,123.466z M355.426,116.033c-0.754,0.582-1.842,0.444-2.424-0.31
		c-0.587-0.757-0.45-1.843,0.31-2.43c0.756-0.583,1.842-0.444,2.425,0.313C356.323,114.361,356.182,115.449,355.426,116.033"/>
	<path fill="#4F4E4E" d="M340.371,123.18c-1.105,0-2.191-0.205-3.22-0.61c-1.142-0.446-2.153-1.115-3.02-1.983l3.502-3.495
		c0.385,0.386,0.828,0.68,1.326,0.875c0.949,0.374,2.024,0.353,2.949-0.055l1.986,4.532
		C342.781,122.934,341.596,123.181,340.371,123.18L340.371,123.18z M334.13,120.582c-1.647-1.66-2.557-3.86-2.557-6.197
		c0-2.585,1.13-5.03,3.103-6.705c2.492-2.117,6.125-2.666,9.12-1.4l-1.927,4.557c-1.302-0.55-2.896-0.313-3.987,0.613
		c-0.864,0.734-1.36,1.805-1.36,2.936c0,1.021,0.396,1.984,1.117,2.708L334.13,120.582L334.13,120.582z"/>
	<path fill="#80529B" d="M509.957,96.686L480.718,65.33c8.14-7.59,18.109-11.52,29.239-11.52V96.686z"/>
	<path fill="#00ACD0" d="M509.957,96.686l-40.539,13.96c-5.665-16.456-1.431-33.446,11.3-45.316L509.957,96.686L509.957,96.686z"/>
	<path fill="#00D096" d="M509.957,96.686l-3.735,42.713c-17.34-1.52-31.137-12.3-36.803-28.755l40.537-13.96L509.957,96.686z"/>
	<path fill="#404040" d="M509.957,96.686l16.062,39.754c-6.455,2.607-12.863,3.564-19.798,2.96L509.957,96.686L509.957,96.686z"/>
	<path fill="#E95A78" d="M509.957,96.686l37.5,20.787c-5.062,9.133-11.757,15.055-21.439,18.967L509.957,96.686L509.957,96.686z"/>
	<path fill="#FFA800" d="M509.957,96.686l33.786-26.396c10.716,13.715,12.15,31.96,3.714,47.184L509.957,96.686L509.957,96.686z"/>
	<path fill="#C2C2C4" d="M509.957,96.686V53.81c13.925,0,25.215,5.51,33.786,16.48L509.957,96.686L509.957,96.686z"/>
	<circle fill="#FFFFFF" cx="511.578" cy="96.686" r="24"/>
	<path d="M529.23,96.353c0,9.48-7.69,17.167-17.17,17.167c-9.48,0-17.166-7.686-17.166-17.167s7.688-17.167,17.166-17.167
		C521.539,79.186,529.23,86.871,529.23,96.353z"/>
	<path fill="#FFFFFF" d="M511.19,89.035v-1.15h1.675v1.123c0.396,0.1,0.771,0.172,1.134,0.293c1.36,0.456,2.152,1.5,2.229,2.93
		c0.02,0.384,0.003,0.767,0.003,1.16h-3.677c0-0.172,0.008-0.342,0-0.51c-0.021-0.384-0.027-0.768-0.072-1.147
		c-0.04-0.328-0.196-0.46-0.51-0.496c-0.303-0.033-0.553,0.094-0.646,0.383c-0.184,0.562-0.166,1.128,0.104,1.66
		c0.077,0.15,0.22,0.283,0.359,0.378c0.736,0.49,1.482,0.963,2.226,1.444c0.346,0.225,0.686,0.455,1.026,0.683
		c0.742,0.496,1.188,1.204,1.408,2.05c0.288,1.094,0.277,2.2-0.037,3.287c-0.396,1.372-1.352,2.183-2.703,2.556
		c-0.268,0.073-0.539,0.122-0.831,0.188v1.347h-1.679v-1.39c-0.25-0.05-0.484-0.082-0.715-0.145c-0.899-0.24-1.68-0.682-2.24-1.44
		c-0.348-0.47-0.503-1.021-0.604-1.587c-0.123-0.69-0.117-1.388-0.107-2.102h3.652c0.002,0.058,0.008,0.118,0.008,0.18l0.042,2.097
		c0.003,0.096,0.021,0.19,0.032,0.285c0.048,0.303,0.178,0.45,0.438,0.5c0.309,0.06,0.599-0.043,0.726-0.285
		c0.072-0.143,0.133-0.31,0.14-0.47c0.032-0.59,0.008-1.182-0.1-1.768c-0.062-0.337-0.242-0.604-0.497-0.815
		c-0.23-0.19-0.473-0.367-0.72-0.534c-0.694-0.472-1.414-0.917-2.097-1.41c-0.899-0.65-1.394-1.57-1.597-2.645
		c-0.15-0.786-0.127-1.575,0.135-2.34c0.36-1.046,1.127-1.67,2.148-2.004c0.362-0.12,0.744-0.18,1.117-0.266
		C511.03,89.059,511.105,89.051,511.19,89.035L511.19,89.035z"/>
	<ellipse fill="#EAEAEA" cx="384.482" cy="396.218" rx="11.917" ry="3.968"/>
	<g>
		<path fill="#C2C2C4" d="M377.522,358.965c4.91,3.547,8.438,3.547,14.126,0c2.187,2.77,2.934,5.898,3.496,9.317
			c0.215,1.306,0.58,4.373,0.516,5.697c-0.151,3.129-0.81,3.229-1.635,3.797c-0.353,0.24-0.52,0.83-0.584,1.283
			c-0.53,3.741-1.27,7.479-1.456,11.239c-0.282,5.703-6.55,7.584-10.356,6.021c-2.607-1.07-4.195-2.883-4.498-5.83
			c-0.393-3.807-0.962-7.598-1.527-11.385c-0.084-0.566-0.052-1.377-0.853-1.61c0,0-1.561-0.638-1.561-3.354
			c-0.08-4.915,0.716-9.688,3.356-13.984C376.726,359.863,377.346,359.119,377.522,358.965L377.522,358.965z M392.81,351.377
			c-0.072,4.5-3.867,8.197-8.376,8.16c-4.55-0.035-8.233-3.86-8.182-8.497c0.05-4.52,3.805-8.158,8.369-8.114
			C389.236,342.969,392.882,346.736,392.81,351.377L392.81,351.377z"/>
	</g>
	<g opacity="0.35">
		<ellipse fill="#EAEAEA" cx="242.35" cy="482.033" rx="13.131" ry="4.372"/>
		<g>
			<path fill="#C2C2C4" d="M234.68,440.982c5.413,3.909,9.297,3.909,15.568,0.002c2.405,3.052,3.231,6.498,3.85,10.266
				c0.238,1.44,0.64,4.82,0.567,6.277c-0.166,3.449-0.891,3.562-1.801,4.186c-0.39,0.266-0.569,0.915-0.644,1.415
				c-0.584,4.123-1.396,8.24-1.603,12.386c-0.312,6.283-7.218,8.355-11.415,6.633c-2.872-1.181-4.62-3.177-4.956-6.424
				c-0.431-4.194-1.059-8.372-1.681-12.545c-0.093-0.624-0.058-1.518-0.939-1.774c0,0-1.72-0.702-1.72-3.695
				c-0.089-5.417,0.789-10.68,3.699-15.412c0.196-0.322,0.877-1.143,1.075-1.313H234.68z M251.523,432.623
				c-0.077,4.956-4.26,9.032-9.226,8.992c-5.018-0.04-9.074-4.254-9.018-9.365c0.055-4.98,4.19-8.99,9.226-8.94
				C247.588,423.358,251.605,427.508,251.523,432.623L251.523,432.623z"/>
		</g>
	</g>
	<g opacity="0.35">
		<ellipse fill="#EAEAEA" cx="643.432" cy="488.813" rx="13.13" ry="4.372"/>
		<g>
			<path fill="#C2C2C4" d="M635.763,447.764c5.412,3.908,9.297,3.908,15.564,0c2.408,3.053,3.235,6.5,3.854,10.268
				c0.236,1.439,0.64,4.819,0.568,6.279c-0.169,3.45-0.894,3.561-1.804,4.186c-0.388,0.265-0.573,0.914-0.644,1.413
				c-0.583,4.124-1.397,8.24-1.604,12.386c-0.312,6.285-7.22,8.357-11.417,6.634c-2.872-1.18-4.62-3.176-4.954-6.423
				c-0.433-4.196-1.06-8.374-1.683-12.547c-0.094-0.624-0.058-1.517-0.94-1.774c0,0-1.718-0.701-1.72-3.695
				c-0.086-5.417,0.79-10.678,3.698-15.41C634.884,448.755,635.566,447.935,635.763,447.764L635.763,447.764z M652.606,439.402
				c-0.077,4.958-4.26,9.032-9.226,8.992c-5.019-0.039-9.074-4.253-9.021-9.363c0.057-4.979,4.193-8.988,9.228-8.94
				C648.671,430.139,652.687,434.289,652.606,439.402L652.606,439.402z"/>
		</g>
	</g>
	<g>
		<path fill="#F2F2F2" d="M515.35,513.97c0.378-0.772,0.623-1.658,0.674-2.67c0.188-3.76,0.925-7.497,1.455-11.24
			c0.062-0.451,0.23-1.042,0.583-1.281c0.827-0.566,1.483-0.667,1.635-3.799c0.064-1.322-0.3-4.392-0.516-5.696
			c-0.562-3.42-1.311-6.548-3.496-9.317c-5.69,3.547-9.214,3.547-14.125,0c-0.18,0.154-0.797,0.898-0.977,1.19
			c-2.641,4.296-3.437,9.069-3.356,13.984c0,2.719,1.56,3.355,1.56,3.355c0.803,0.232,0.771,1.044,0.855,1.609
			c0.565,3.787,1.134,7.578,1.525,11.387c0.096,0.927,0.332,1.729,0.672,2.441c-3.16,0.715-5.236,1.918-5.236,3.285
			c0,2.192,5.337,3.968,11.917,3.968c6.582,0,11.917-1.774,11.917-3.968C520.437,515.875,518.422,514.688,515.35,513.97
			L515.35,513.97z M508.473,480.538c4.508,0.036,8.303-3.662,8.373-8.16c0.073-4.643-3.572-8.41-8.186-8.452
			c-4.565-0.044-8.319,3.597-8.369,8.114C500.239,476.678,503.921,480.502,508.473,480.538L508.473,480.538z M458.906,535.233
			c0.418-0.853,0.688-1.826,0.743-2.94c0.206-4.145,1.021-8.262,1.605-12.386c0.069-0.5,0.254-1.148,0.643-1.413
			c0.91-0.624,1.634-0.735,1.8-4.187c0.07-1.458-0.33-4.84-0.566-6.277c-0.616-3.768-1.442-7.215-3.851-10.268
			c-6.27,3.908-10.153,3.908-15.564,0c-0.197,0.17-0.88,0.99-1.078,1.312c-2.908,4.732-3.785,9.993-3.697,15.41
			c0,2.993,1.72,3.695,1.72,3.695c0.883,0.261,0.848,1.15,0.94,1.775c0.62,4.173,1.25,8.35,1.68,12.547
			c0.105,1.021,0.365,1.903,0.74,2.69c-3.48,0.784-5.768,2.112-5.768,3.619c0,2.414,5.878,4.37,13.13,4.37s13.13-1.956,13.13-4.37
			C464.512,537.333,462.292,536.025,458.906,535.233L458.906,535.233z M451.329,498.396c4.969,0.039,9.147-4.035,9.23-8.993
			c0.08-5.114-3.94-9.266-9.022-9.312c-5.032-0.047-9.17,3.964-9.224,8.942C442.258,494.143,446.312,498.357,451.329,498.396
			L451.329,498.396z"/>
	</g>
	<g opacity="0.35">
		<ellipse fill="#EAEAEA" cx="508.519" cy="517.218" rx="11.917" ry="3.968"/>
		<g>
			<path fill="#C2C2C4" d="M501.56,479.965c4.912,3.547,8.437,3.547,14.126,0c2.186,2.771,2.934,5.898,3.496,9.317
				c0.215,1.306,0.58,4.374,0.516,5.696c-0.149,3.131-0.808,3.23-1.635,3.798c-0.352,0.239-0.521,0.829-0.584,1.282
				c-0.53,3.742-1.271,7.48-1.456,11.24c-0.283,5.703-6.55,7.584-10.36,6.021c-2.605-1.07-4.192-2.883-4.497-5.83
				c-0.392-3.808-0.96-7.599-1.524-11.386c-0.085-0.565-0.053-1.377-0.854-1.609c0,0-1.56-0.638-1.56-3.354
				c-0.08-4.915,0.717-9.688,3.354-13.983C500.762,480.863,501.38,480.119,501.56,479.965L501.56,479.965z M516.846,472.377
				c-0.07,4.5-3.865,8.197-8.373,8.16c-4.553-0.035-8.234-3.86-8.185-8.497c0.051-4.521,3.805-8.158,8.37-8.114
				C513.272,463.969,516.919,467.736,516.846,472.377L516.846,472.377z"/>
		</g>
	</g>
	<g opacity="0.35">
		<ellipse fill="#EAEAEA" cx="451.382" cy="538.813" rx="13.13" ry="4.372"/>
		<g>
			<path fill="#C2C2C4" d="M443.715,497.764c5.41,3.908,9.295,3.908,15.563,0c2.407,3.053,3.233,6.5,3.851,10.268
				c0.239,1.439,0.64,4.819,0.569,6.279c-0.168,3.45-0.89,3.561-1.802,4.186c-0.39,0.265-0.572,0.914-0.643,1.413
				c-0.588,4.124-1.4,8.24-1.606,12.386c-0.312,6.285-7.218,8.357-11.415,6.634c-2.874-1.18-4.62-3.176-4.956-6.423
				c-0.432-4.195-1.06-8.374-1.682-12.547c-0.093-0.624-0.059-1.517-0.94-1.773c0,0-1.72-0.702-1.72-3.696
				c-0.087-5.417,0.79-10.677,3.698-15.41c0.197-0.324,0.882-1.144,1.08-1.314L443.715,497.764z M460.56,489.402
				c-0.082,4.958-4.262,9.032-9.23,8.992c-5.018-0.039-9.071-4.253-9.016-9.363c0.053-4.979,4.19-8.988,9.224-8.94
				c5.083,0.048,9.101,4.198,9.021,9.312L460.56,489.402z"/>
		</g>
	</g>
	<g opacity="0.35">
		<ellipse fill="#EAEAEA" cx="292.397" cy="251.026" rx="9.488" ry="3.159"/>
		<g>
			<path fill="#C2C2C4" d="M286.857,221.366c3.91,2.825,6.716,2.825,11.246,0c1.74,2.206,2.335,4.696,2.783,7.42
				c0.17,1.038,0.462,3.48,0.41,4.534c-0.12,2.493-0.644,2.573-1.303,3.023c-0.279,0.19-0.413,0.662-0.465,1.023
				c-0.423,2.979-1.01,5.953-1.16,8.948c-0.225,4.54-5.215,6.038-8.246,4.792c-2.076-0.852-3.341-2.294-3.58-4.64
				c-0.313-3.032-0.767-6.05-1.216-9.065c-0.067-0.45-0.042-1.096-0.681-1.28c0,0-1.24-0.51-1.242-2.672
				c-0.062-3.914,0.57-7.715,2.673-11.135C286.221,222.084,286.713,221.489,286.857,221.366L286.857,221.366z M299.026,215.325
				c-0.056,3.582-3.076,6.526-6.666,6.497c-3.625-0.027-6.556-3.072-6.516-6.766c0.04-3.598,3.03-6.495,6.665-6.46
				C296.182,208.631,299.084,211.629,299.026,215.325L299.026,215.325z"/>
		</g>
	</g>
	<g opacity="0.35">
		<ellipse fill="#EAEAEA" cx="484.629" cy="258.026" rx="9.486" ry="3.159"/>
		<g>
			<path fill="#C2C2C4" d="M479.09,228.366c3.907,2.825,6.714,2.825,11.246,0c1.739,2.206,2.335,4.696,2.782,7.42
				c0.17,1.038,0.46,3.48,0.408,4.534c-0.12,2.493-0.643,2.573-1.3,3.023c-0.282,0.19-0.414,0.662-0.467,1.023
				c-0.42,2.979-1.008,5.953-1.157,8.948c-0.226,4.54-5.216,6.038-8.248,4.792c-2.076-0.852-3.34-2.294-3.58-4.64
				c-0.312-3.032-0.766-6.05-1.216-9.065c-0.067-0.45-0.042-1.096-0.682-1.28c0,0-1.24-0.51-1.24-2.672
				c-0.064-3.914,0.569-7.715,2.672-11.135C478.45,229.084,478.945,228.489,479.09,228.366L479.09,228.366z M491.258,222.325
				c-0.057,3.582-3.077,6.526-6.666,6.497c-3.625-0.027-6.556-3.072-6.517-6.766c0.04-3.598,3.028-6.495,6.666-6.46
				C488.411,215.631,491.317,218.629,491.258,222.325L491.258,222.325z"/>
		</g>
	</g>
	<g opacity="0.35">
		<ellipse fill="#EAEAEA" cx="238.379" cy="300.026" rx="9.487" ry="3.159"/>
		<g>
			<path fill="#C2C2C4" d="M232.84,270.366c3.908,2.825,6.715,2.825,11.245,0c1.74,2.206,2.337,4.696,2.782,7.42
				c0.172,1.038,0.463,3.48,0.409,4.534c-0.119,2.493-0.643,2.573-1.3,3.023c-0.28,0.19-0.413,0.662-0.465,1.023
				c-0.423,2.98-1.01,5.953-1.16,8.948c-0.225,4.54-5.214,6.038-8.248,4.792c-2.075-0.852-3.34-2.294-3.58-4.64
				c-0.312-3.032-0.766-6.05-1.215-9.065c-0.067-0.45-0.042-1.096-0.68-1.28c0,0-1.242-0.51-1.242-2.672
				c-0.064-3.914,0.57-7.715,2.672-11.135C232.202,271.084,232.694,270.489,232.84,270.366L232.84,270.366z M245.01,264.325
				c-0.06,3.582-3.08,6.526-6.668,6.497c-3.626-0.027-6.556-3.072-6.516-6.766c0.04-3.598,3.029-6.495,6.666-6.46
				C242.164,257.631,245.067,260.629,245.01,264.325L245.01,264.325z"/>
		</g>
	</g>
	<ellipse fill="#EAEAEA" cx="327.519" cy="360.218" rx="11.917" ry="3.968"/>
	<g>
		<path fill="#C2C2C4" d="M320.56,322.965c4.912,3.547,8.437,3.547,14.126,0c2.186,2.77,2.934,5.898,3.496,9.317
			c0.215,1.306,0.58,4.374,0.516,5.697c-0.149,3.13-0.808,3.23-1.635,3.797c-0.352,0.24-0.52,0.83-0.584,1.283
			c-0.53,3.742-1.27,7.48-1.456,11.24c-0.283,5.703-6.55,7.584-10.36,6.02c-2.605-1.07-4.192-2.882-4.497-5.83
			c-0.392-3.807-0.96-7.598-1.524-11.385c-0.085-0.566-0.053-1.377-0.854-1.61c0,0-1.56-0.638-1.56-3.354
			c-0.08-4.915,0.717-9.688,3.354-13.984C319.762,323.863,320.38,323.119,320.56,322.965L320.56,322.965z M335.846,315.377
			c-0.07,4.5-3.865,8.197-8.373,8.16c-4.553-0.035-8.234-3.86-8.185-8.497c0.051-4.52,3.805-8.158,8.37-8.114
			C332.272,306.969,335.919,310.736,335.846,315.377L335.846,315.377z"/>
	</g>
	<g opacity="0.7">
		<ellipse fill="#FFA800" cx="327.519" cy="360.218" rx="11.917" ry="3.968"/>
		<g>
			<path fill="#FFA800" d="M320.56,322.965c4.912,3.547,8.437,3.547,14.126,0c2.186,2.77,2.934,5.898,3.496,9.317
				c0.215,1.306,0.58,4.374,0.516,5.697c-0.149,3.13-0.808,3.23-1.635,3.797c-0.352,0.24-0.52,0.83-0.584,1.283
				c-0.53,3.742-1.27,7.48-1.456,11.24c-0.283,5.703-6.55,7.584-10.36,6.02c-2.605-1.07-4.192-2.882-4.497-5.83
				c-0.392-3.807-0.96-7.598-1.524-11.385c-0.085-0.566-0.053-1.377-0.854-1.61c0,0-1.56-0.638-1.56-3.354
				c-0.08-4.915,0.717-9.688,3.354-13.984C319.762,323.863,320.38,323.119,320.56,322.965L320.56,322.965z M335.846,315.377
				c-0.07,4.5-3.865,8.197-8.373,8.16c-4.553-0.035-8.234-3.86-8.185-8.497c0.051-4.52,3.805-8.158,8.37-8.114
				C332.272,306.969,335.919,310.736,335.846,315.377L335.846,315.377z"/>
		</g>
	</g>
	<path fill="none" d="M296.578,281.686"/>
	<ellipse fill="#EAEAEA" cx="433.079" cy="435.813" rx="13.132" ry="4.372"/>
	<g>
		<path fill="#80529B" d="M425.411,394.765c5.41,3.907,9.296,3.907,15.565,0c2.408,3.051,3.232,6.5,3.85,10.267
			c0.24,1.44,0.643,4.819,0.57,6.28c-0.167,3.449-0.89,3.56-1.802,4.185c-0.389,0.265-0.573,0.914-0.645,1.413
			c-0.583,4.124-1.396,8.24-1.602,12.386c-0.312,6.285-7.22,8.357-11.416,6.634c-2.873-1.18-4.62-3.176-4.956-6.423
			c-0.432-4.196-1.058-8.374-1.68-12.547c-0.096-0.624-0.061-1.517-0.94-1.774c0,0-1.72-0.701-1.72-3.695
			c-0.088-5.418,0.79-10.678,3.698-15.41C424.534,395.755,425.215,394.935,425.411,394.765L425.411,394.765z M442.255,386.401
			c-0.077,4.959-4.261,9.033-9.227,8.994c-5.02-0.041-9.075-4.254-9.02-9.364c0.056-4.978,4.191-8.988,9.226-8.94
			c5.083,0.049,9.101,4.198,9.021,9.312V386.401z"/>
	</g>
	<g transform="matrix(.995 .097 -.097 .995 34.635 -63.356)">
		
			<ellipse transform="matrix(2.618233e-05 1 -1 2.618233e-05 995.2262 -344.9182)" fill="#EAEAEA" cx="670.077" cy="325.167" rx="11.918" ry="19.53"/>
		
			<ellipse transform="matrix(2.618233e-05 1 -1 2.618233e-05 995.2262 -344.9182)" fill="none" stroke="#000000" stroke-width="2" stroke-miterlimit="10" stroke-dasharray="3.9304,1.9652" cx="670.077" cy="325.167" rx="11.918" ry="19.53"/>
	</g>
	<g transform="matrix(.986 -.168 .168 .986 -65.982 89.785)">
		
			<ellipse transform="matrix(-1.763105e-05 1 -1 -1.763105e-05 933.2537 -62.9031)" fill="#EAEAEA" cx="498.078" cy="435.167" rx="14.284" ry="23.407"/>
		
			<ellipse transform="matrix(-1.763105e-05 1 -1 -1.763105e-05 933.2537 -62.9031)" fill="none" stroke="#000000" stroke-width="2" stroke-miterlimit="10" stroke-dasharray="4.004,2.002" cx="498.078" cy="435.167" rx="14.284" ry="23.407"/>
	</g>
	<g opacity="0.35">
		<ellipse fill="#EAEAEA" cx="200.482" cy="358.218" rx="11.917" ry="3.968"/>
		<g>
			<path fill="#C2C2C4" d="M193.522,320.965c4.91,3.547,8.438,3.547,14.126,0c2.187,2.77,2.935,5.898,3.496,9.317
				c0.215,1.306,0.58,4.374,0.517,5.697c-0.152,3.13-0.811,3.23-1.636,3.797c-0.353,0.24-0.52,0.83-0.584,1.283
				c-0.529,3.742-1.27,7.48-1.456,11.24c-0.281,5.703-6.55,7.584-10.356,6.02c-2.607-1.07-4.195-2.882-4.498-5.83
				c-0.393-3.807-0.962-7.598-1.527-11.385c-0.084-0.566-0.052-1.377-0.853-1.61c0,0-1.561-0.638-1.561-3.354
				c-0.08-4.915,0.717-9.688,3.356-13.984C192.726,321.863,193.346,321.119,193.522,320.965L193.522,320.965z M208.81,313.377
				c-0.072,4.5-3.867,8.197-8.376,8.16c-4.55-0.035-8.232-3.86-8.182-8.497c0.05-4.52,3.805-8.158,8.37-8.114
				C205.236,304.969,208.882,308.736,208.81,313.377L208.81,313.377z"/>
		</g>
	</g>
	<ellipse fill="#EAEAEA" cx="339.379" cy="281.026" rx="9.486" ry="3.159"/>
	<g>
		<path fill="#C2C2C4" d="M333.84,251.366c3.907,2.825,6.715,2.825,11.245,0c1.739,2.206,2.337,4.696,2.781,7.42
			c0.172,1.038,0.463,3.48,0.41,4.534c-0.12,2.493-0.643,2.573-1.3,3.023c-0.28,0.19-0.413,0.662-0.465,1.023
			c-0.423,2.98-1.01,5.953-1.16,8.948c-0.225,4.54-5.214,6.038-8.248,4.792c-2.075-0.852-3.34-2.294-3.58-4.64
			c-0.312-3.032-0.766-6.05-1.215-9.065c-0.068-0.45-0.042-1.096-0.68-1.28c0,0-1.242-0.51-1.242-2.672
			c-0.064-3.914,0.57-7.715,2.672-11.135C333.201,252.084,333.694,251.489,333.84,251.366L333.84,251.366z M346.01,245.325
			c-0.061,3.582-3.08,6.526-6.668,6.497c-3.626-0.027-6.557-3.072-6.517-6.766c0.04-3.598,3.03-6.495,6.666-6.46
			C343.163,238.631,346.067,241.629,346.01,245.325L346.01,245.325z"/>
	</g>
	<path d="M650.465,292.767l0.072-1.998l2.875,0.085l-0.05,2L650.465,292.767z M650.6,288.81l0.095-3.956l2.8,0.05l-0.044,3.955
		L650.6,288.81z M650.727,282.898l0.033-3.957l2.727,0.007l0.018,3.956L650.727,282.898z M650.76,276.986l-0.032-3.957l2.653-0.04
		l0.082,3.957L650.76,276.986z M650.695,271.074l-0.098-3.955l2.577-0.082l0.147,3.953L650.695,271.074z M650.53,265.164
		l-0.17-3.952l2.502-0.123l0.221,3.95L650.53,265.164z M650.26,259.26l-0.24-3.95l2.423-0.164l0.29,3.946L650.26,259.26z
		 M649.88,253.36l-0.316-3.944l2.347-0.204l0.367,3.94L649.88,253.36z M649.39,247.47l-0.397-3.938l2.271-0.242l0.442,3.932
		L649.39,247.47z M648.778,241.59l-0.475-3.93l2.189-0.278l0.524,3.922L648.778,241.59z M648.047,235.724l-0.561-3.917l2.11-0.315
		l0.607,3.908L648.047,235.724z M647.188,229.875l-0.646-3.903l2.029-0.35l0.696,3.896L647.188,229.875z M646.199,224.048
		l-0.737-3.888l1.945-0.382l0.787,3.878L646.199,224.048z M645.073,218.245l-0.83-3.868l1.863-0.413l0.88,3.857L645.073,218.245z
		 M643.81,212.472l-0.93-3.847l1.781-0.44l0.977,3.833L643.81,212.472z M642.398,206.73l-1.028-3.82l1.696-0.468l1.077,3.808
		L642.398,206.73z M640.837,201.03l-1.133-3.79l1.613-0.493l1.18,3.776L640.837,201.03z M639.119,195.374l-1.236-3.758l1.527-0.513
		l1.285,3.742L639.119,195.374z M637.244,189.77l-1.347-3.722l1.443-0.532l1.394,3.703L637.244,189.77z M635.205,184.22l-1.46-3.678
		l1.358-0.548l1.504,3.66L635.205,184.22z M632.997,178.735l-1.571-3.63l1.27-0.56l1.618,3.61L632.997,178.735z M630.619,173.323
		l-1.689-3.578l1.184-0.568l1.735,3.555L630.619,173.323z M628.064,167.99l-1.808-3.518l1.1-0.575l1.852,3.497L628.064,167.99z
		 M625.331,162.746l-1.93-3.454l1.015-0.574l1.974,3.43L625.331,162.746z M622.42,157.6l-2.053-3.383l0.931-0.572l2.093,3.357
		L622.42,157.6z M619.322,152.56l-2.173-3.306l0.846-0.565l2.215,3.28L619.322,152.56z M616.043,147.637l-2.297-3.223l0.766-0.552
		l2.336,3.194L616.043,147.637z M612.579,142.84l-2.42-3.132l0.686-0.535l2.458,3.1L612.579,142.84z M608.933,138.18l-2.54-3.034
		l0.604-0.513l2.578,3L608.933,138.18z M605.104,133.666l-2.66-2.93l0.53-0.486l2.695,2.896L605.104,133.666z M601.094,129.31
		l-2.78-2.816l0.457-0.456l2.815,2.782L601.094,129.31z M596.906,125.124l-2.894-2.698l0.386-0.42l2.928,2.662L596.906,125.124z
		 M592.545,121.116l-3.009-2.57l0.32-0.38l3.04,2.533L592.545,121.116z M588.014,117.3l-3.12-2.436l0.258-0.334l3.15,2.396
		L588.014,117.3z M583.316,113.688l-3.226-2.293l0.199-0.285l3.255,2.252L583.316,113.688z M578.457,110.29l-3.329-2.138l0.145-0.23
		l3.358,2.097L578.457,110.29z M573.442,107.127l-3.433-1.972l0.096-0.173l3.458,1.93L573.442,107.127z M568.27,104.217l-3.53-1.783
		l0.056-0.112l3.555,1.74L568.27,104.217z M562.949,101.595l-3.638-1.56l0.021-0.047l3.656,1.515L562.949,101.595z M557.468,99.327
		l-1.891-0.64l1.898,0.617L557.468,99.327z M656.844,289.265l-4.953,1.915l-4.817-2.237l4.505,11.743L656.844,289.265z
		 M391.497,260.003l0.296-1.98l2.813,0.397l-0.263,1.983L391.497,260.003z M392.1,256.032l0.634-3.946l2.715,0.414l-0.572,3.957
		L392.1,256.032z M393.07,250.095l0.692-3.938l2.614,0.44l-0.631,3.947L393.07,250.095z M394.127,244.172l0.752-3.926l2.512,0.46
		l-0.69,3.94L394.127,244.172z M395.273,238.267l0.813-3.914l2.411,0.48l-0.75,3.927L395.273,238.267z M396.513,232.38l0.876-3.9
		l2.308,0.5l-0.812,3.913L396.513,232.38z M397.848,226.513l0.939-3.885l2.208,0.516l-0.88,3.9L397.848,226.513z M399.28,220.67
		l1.008-3.868l2.106,0.53l-0.947,3.885L399.28,220.67z M400.814,214.854l1.077-3.85l2.005,0.543l-1.016,3.866L400.814,214.854z
		 M402.451,209.065l1.15-3.83l1.9,0.555l-1.088,3.847L402.451,209.065z M404.199,203.31l1.221-3.808l1.8,0.562l-1.16,3.826
		L404.199,203.31z M406.057,197.588l1.297-3.78l1.696,0.565l-1.238,3.802L406.057,197.588z M408.028,191.905l1.376-3.754
		l1.594,0.572l-1.314,3.775L408.028,191.905z M410.119,186.266l1.455-3.723l1.49,0.57l-1.395,3.745L410.119,186.266z
		 M412.329,180.673l1.54-3.69l1.391,0.568l-1.48,3.714L412.329,180.673z M414.668,175.132l1.626-3.653l1.287,0.56l-1.565,3.68
		L414.668,175.132z M417.136,169.648l1.714-3.612l1.187,0.552l-1.655,3.64L417.136,169.648z M419.736,164.227l1.805-3.568
		l1.091,0.538l-1.75,3.596L419.736,164.227z M422.475,158.873l1.897-3.518l0.988,0.523l-1.84,3.55L422.475,158.873z
		 M425.354,153.596l1.996-3.464l0.89,0.503l-1.939,3.496L425.354,153.596z M428.38,148.4l2.095-3.404l0.793,0.48l-2.04,3.438
		L428.38,148.4z M431.556,143.298l2.198-3.34l0.696,0.45l-2.143,3.376L431.556,143.298z M434.886,138.296l2.304-3.27l0.604,0.42
		l-2.253,3.304L434.886,138.296z M438.377,133.404l2.412-3.188l0.514,0.382l-2.364,3.225L438.377,133.404z M442.032,128.635
		l2.527-3.1l0.422,0.34l-2.477,3.14L442.032,128.635z M445.857,124.003l2.646-3l0.338,0.293l-2.597,3.042L445.857,124.003z
		 M449.86,119.524l2.771-2.887l0.256,0.24l-2.724,2.932L449.86,119.524z M454.05,115.22l2.899-2.76l0.181,0.185l-2.857,2.804
		L454.05,115.22z M458.438,111.116l3.04-2.6l0.103,0.12l-2.994,2.65L458.438,111.116z M463.037,107.26l3.203-2.4l0.04,0.052
		l-3.165,2.45L463.037,107.26z M467.883,103.738l1.694-1.052l-1.68,1.08L467.883,103.738z M398.296,257.185l-5.12,1.408l-4.57-2.708
		l3.305,12.135L398.296,257.185z"/>
	<circle cx="654.062" cy="313.603" r="8.75"/>
	<path fill="#FFFFFF" d="M653.508,308.945v-0.73h1.063v0.714c0.252,0.062,0.49,0.11,0.723,0.187c0.865,0.29,1.369,0.953,1.42,1.865
		c0.01,0.243,0,0.487,0,0.738h-2.341c0-0.11,0.006-0.218,0-0.325c-0.013-0.244-0.018-0.488-0.046-0.73
		c-0.024-0.21-0.126-0.293-0.323-0.314c-0.193-0.023-0.353,0.058-0.412,0.24c-0.116,0.36-0.105,0.72,0.065,1.058
		c0.05,0.096,0.141,0.18,0.23,0.24c0.468,0.312,0.942,0.613,1.415,0.92c0.22,0.143,0.436,0.29,0.652,0.434
		c0.474,0.316,0.756,0.768,0.896,1.305c0.184,0.697,0.177,1.4-0.023,2.092c-0.254,0.872-0.859,1.388-1.722,1.625
		c-0.17,0.048-0.343,0.078-0.53,0.12v0.857h-1.066v-0.884c-0.157-0.032-0.308-0.054-0.453-0.092
		c-0.572-0.154-1.068-0.435-1.426-0.917c-0.221-0.3-0.318-0.65-0.385-1.01c-0.078-0.44-0.074-0.886-0.067-1.34h2.323
		c0,0.036,0.006,0.076,0.006,0.114c0.01,0.445,0.018,0.89,0.025,1.334c0.002,0.062,0.014,0.123,0.021,0.182
		c0.031,0.193,0.113,0.287,0.279,0.32c0.195,0.035,0.381-0.028,0.46-0.182c0.048-0.092,0.086-0.197,0.091-0.3
		c0.02-0.376,0.005-0.753-0.063-1.126c-0.04-0.214-0.154-0.384-0.315-0.52c-0.146-0.12-0.301-0.232-0.458-0.338
		c-0.442-0.3-0.9-0.584-1.334-0.896c-0.572-0.416-0.889-1-1.017-1.684c-0.096-0.5-0.08-1.003,0.085-1.488
		c0.23-0.666,0.721-1.063,1.368-1.276c0.23-0.075,0.476-0.114,0.71-0.17c0.048-0.01,0.095-0.015,0.15-0.025L653.508,308.945z"/>
	<circle cx="517.062" cy="425.603" r="8.75"/>
	<path fill="#FFFFFF" d="M516.508,420.944v-0.729h1.063v0.714c0.252,0.062,0.49,0.11,0.723,0.187c0.865,0.29,1.369,0.953,1.42,1.865
		c0.01,0.242,0,0.486,0,0.737h-2.341c0-0.109,0.006-0.218,0-0.325c-0.013-0.243-0.018-0.487-0.046-0.729
		c-0.024-0.21-0.126-0.293-0.323-0.314c-0.193-0.022-0.353,0.059-0.412,0.24c-0.116,0.36-0.105,0.72,0.065,1.058
		c0.05,0.097,0.141,0.181,0.23,0.24c0.468,0.312,0.942,0.613,1.415,0.92c0.22,0.144,0.436,0.29,0.652,0.435
		c0.474,0.315,0.756,0.768,0.896,1.305c0.184,0.697,0.177,1.4-0.023,2.092c-0.254,0.872-0.859,1.389-1.722,1.625
		c-0.17,0.048-0.343,0.078-0.53,0.12v0.857h-1.066v-0.885c-0.157-0.031-0.308-0.054-0.453-0.092
		c-0.572-0.153-1.068-0.435-1.426-0.917c-0.221-0.3-0.318-0.649-0.385-1.01c-0.078-0.44-0.074-0.886-0.067-1.34h2.323
		c0,0.036,0.006,0.076,0.006,0.114c0.01,0.444,0.018,0.89,0.025,1.334c0.002,0.062,0.014,0.123,0.021,0.182
		c0.031,0.193,0.113,0.287,0.279,0.32c0.195,0.035,0.381-0.028,0.46-0.183c0.048-0.092,0.086-0.196,0.091-0.3
		c0.02-0.376,0.005-0.753-0.063-1.126c-0.04-0.214-0.154-0.384-0.315-0.52c-0.146-0.12-0.301-0.232-0.458-0.338
		c-0.442-0.301-0.9-0.585-1.334-0.896c-0.572-0.416-0.889-1-1.017-1.684c-0.096-0.5-0.08-1.003,0.085-1.488
		c0.23-0.666,0.721-1.062,1.368-1.275c0.23-0.076,0.476-0.115,0.71-0.171c0.048-0.01,0.095-0.015,0.15-0.024L516.508,420.944z"/>
	<path fill="none" d="M597.577,378.28"/>
	<ellipse fill="#EAEAEA" cx="405.741" cy="339.602" rx="11.917" ry="3.968"/>
	<g>
		<path fill="#E95A78" d="M398.78,302.348c4.912,3.55,8.438,3.55,14.128,0.002c2.185,2.77,2.935,5.897,3.494,9.316
			c0.216,1.307,0.58,4.375,0.517,5.697c-0.15,3.13-0.809,3.231-1.636,3.798c-0.352,0.242-0.518,0.832-0.583,1.285
			c-0.529,3.742-1.27,7.478-1.456,11.24c-0.282,5.702-6.55,7.583-10.359,6.02c-2.605-1.072-4.193-2.883-4.497-5.83
			c-0.391-3.807-0.96-7.598-1.525-11.385c-0.084-0.566-0.052-1.377-0.854-1.61c0,0-1.561-0.638-1.561-3.355
			c-0.08-4.916,0.717-9.69,3.356-13.986C397.984,303.248,398.604,302.503,398.78,302.348L398.78,302.348z M414.066,294.762
			c-0.07,4.498-3.865,8.197-8.373,8.16c-4.552-0.035-8.233-3.86-8.183-8.498c0.05-4.52,3.804-8.158,8.372-8.113
			c4.611,0.044,8.26,3.81,8.184,8.452V294.762z"/>
	</g>
	<ellipse opacity="0.08" fill="#FFA800" enable-background="new    " cx="305.577" cy="342.841" rx="57" ry="34.845"/>
	
		<ellipse transform="matrix(0.1231 -0.9924 0.9924 0.1231 108.6594 745.0012)" opacity="0.08" fill="#00ACD0" enable-background="new    " cx="475.872" cy="311.018" rx="34.061" ry="51.715"/>
	
		<ellipse transform="matrix(0.1231 -0.9924 0.9924 0.1231 108.6594 745.0012)" fill="none" stroke="#000000" stroke-width="2" stroke-miterlimit="10" stroke-dasharray="4,2" cx="475.872" cy="311.018" rx="34.061" ry="51.715"/>
	
		<ellipse transform="matrix(0.2161 -0.9764 0.9764 0.2161 -160.8051 681.6172)" opacity="0.08" fill="#00D096" enable-background="new    " cx="344.074" cy="440.95" rx="25.49" ry="48.481"/>
	
		<ellipse transform="matrix(0.027 -0.9996 0.9996 0.027 71.1938 660.0907)" opacity="0.08" fill="#80529B" enable-background="new    " cx="374.662" cy="293.476" rx="11.339" ry="19.986"/>
	
		<ellipse transform="matrix(0.027 -0.9996 0.9996 0.027 71.1938 660.0907)" fill="none" stroke="#000000" stroke-width="2" stroke-miterlimit="10" stroke-dasharray="4,2" cx="374.662" cy="293.476" rx="11.339" ry="19.986"/>
	
		<ellipse transform="matrix(-0.5391 -0.8422 0.8422 -0.5391 567.9135 1127.0231)" opacity="0.08" fill="#E95A78" enable-background="new    " cx="592.309" cy="408.131" rx="33.177" ry="60.882"/>
	<ellipse fill="#EAEAEA" cx="303.789" cy="320.026" rx="9.487" ry="3.159"/>
	<g>
		<path fill="#C2C2C4" d="M298.25,290.366c3.909,2.825,6.716,2.825,11.245,0c1.74,2.206,2.337,4.696,2.784,7.42
			c0.17,1.038,0.46,3.48,0.41,4.534c-0.12,2.493-0.645,2.573-1.302,3.023c-0.28,0.19-0.414,0.662-0.465,1.023
			c-0.422,2.98-1.011,5.953-1.16,8.948c-0.226,4.54-5.214,6.038-8.248,4.792c-2.074-0.852-3.338-2.294-3.58-4.64
			c-0.31-3.032-0.764-6.05-1.215-9.065c-0.067-0.45-0.04-1.096-0.68-1.28c0,0-1.24-0.51-1.24-2.672
			c-0.064-3.914,0.57-7.715,2.67-11.135C297.615,291.084,298.108,290.489,298.25,290.366L298.25,290.366z M310.42,284.325
			c-0.058,3.582-3.078,6.526-6.667,6.497c-3.624-0.027-6.557-3.072-6.517-6.766c0.04-3.598,3.03-6.495,6.666-6.46
			C307.574,277.631,310.478,280.629,310.42,284.325L310.42,284.325z"/>
	</g>
	<g opacity="0.7">
		<ellipse fill="#FFA800" cx="303.789" cy="320.026" rx="9.487" ry="3.159"/>
		<g>
			<path fill="#FFA800" d="M298.25,290.366c3.909,2.825,6.716,2.825,11.245,0c1.74,2.206,2.337,4.696,2.784,7.42
				c0.17,1.038,0.46,3.48,0.41,4.534c-0.12,2.493-0.645,2.573-1.302,3.023c-0.28,0.19-0.414,0.662-0.465,1.023
				c-0.422,2.98-1.011,5.953-1.16,8.948c-0.226,4.54-5.214,6.038-8.248,4.792c-2.074-0.852-3.338-2.294-3.58-4.64
				c-0.31-3.032-0.764-6.05-1.215-9.065c-0.067-0.45-0.04-1.096-0.68-1.28c0,0-1.24-0.51-1.24-2.672
				c-0.064-3.914,0.57-7.715,2.67-11.135C297.615,291.084,298.108,290.489,298.25,290.366L298.25,290.366z M310.42,284.325
				c-0.058,3.582-3.078,6.526-6.667,6.497c-3.624-0.027-6.557-3.072-6.517-6.766c0.04-3.598,3.03-6.495,6.666-6.46
				C307.574,277.631,310.478,280.629,310.42,284.325L310.42,284.325z"/>
		</g>
	</g>
	<ellipse fill="#EAEAEA" cx="280.49" cy="363.218" rx="11.916" ry="3.968"/>
	<g>
		<path fill="#C2C2C4" d="M273.533,325.965c4.909,3.547,8.434,3.547,14.125,0c2.186,2.77,2.934,5.898,3.495,9.317
			c0.215,1.306,0.58,4.374,0.516,5.697c-0.15,3.13-0.809,3.23-1.634,3.797c-0.354,0.24-0.521,0.83-0.585,1.283
			c-0.53,3.742-1.271,7.48-1.456,11.24c-0.283,5.703-6.551,7.584-10.36,6.02c-2.606-1.07-4.193-2.882-4.496-5.83
			c-0.392-3.807-0.962-7.598-1.526-11.385c-0.084-0.566-0.052-1.377-0.854-1.61c0,0-1.558-0.638-1.56-3.354
			c-0.08-4.915,0.72-9.688,3.355-13.984C272.731,326.863,273.353,326.119,273.533,325.965L273.533,325.965z M288.816,318.377
			c-0.069,4.5-3.864,8.197-8.373,8.16c-4.553-0.035-8.232-3.86-8.184-8.497c0.05-4.52,3.803-8.158,8.372-8.114
			C285.241,309.969,288.891,313.736,288.816,318.377L288.816,318.377z"/>
	</g>
	<g opacity="0.7">
		<ellipse fill="#FFA800" cx="280.49" cy="363.218" rx="11.916" ry="3.968"/>
		<g>
			<path fill="#FFA800" d="M273.533,325.965c4.909,3.547,8.434,3.547,14.125,0c2.186,2.77,2.934,5.898,3.495,9.317
				c0.215,1.306,0.58,4.374,0.516,5.697c-0.15,3.13-0.809,3.23-1.634,3.797c-0.354,0.24-0.521,0.83-0.585,1.283
				c-0.53,3.742-1.271,7.48-1.456,11.24c-0.283,5.703-6.551,7.584-10.36,6.02c-2.606-1.07-4.193-2.882-4.496-5.83
				c-0.392-3.807-0.962-7.598-1.526-11.385c-0.084-0.566-0.052-1.377-0.854-1.61c0,0-1.558-0.638-1.56-3.354
				c-0.08-4.915,0.72-9.688,3.355-13.984C272.731,326.863,273.353,326.119,273.533,325.965L273.533,325.965z M288.816,318.377
				c-0.069,4.5-3.864,8.197-8.373,8.16c-4.553-0.035-8.232-3.86-8.184-8.497c0.05-4.52,3.803-8.158,8.372-8.114
				C285.241,309.969,288.891,313.736,288.816,318.377L288.816,318.377z"/>
		</g>
	</g>
	<ellipse fill="#EAEAEA" cx="504.523" cy="311.74" rx="9.488" ry="3.158"/>
	<g>
		<path fill="#C2C2C4" d="M498.98,282.08c3.91,2.824,6.718,2.824,11.25,0c1.737,2.205,2.334,4.695,2.78,7.418
			c0.173,1.04,0.462,3.482,0.41,4.536c-0.12,2.493-0.644,2.573-1.301,3.023c-0.279,0.192-0.413,0.66-0.465,1.022
			c-0.423,2.978-1.01,5.952-1.16,8.948c-0.225,4.54-5.214,6.037-8.247,4.792c-2.074-0.853-3.34-2.294-3.579-4.642
			c-0.313-3.03-0.767-6.05-1.217-9.062c-0.065-0.45-0.04-1.097-0.68-1.282c0,0-1.24-0.508-1.24-2.672
			c-0.064-3.912,0.57-7.714,2.67-11.134c0.146-0.23,0.639-0.823,0.78-0.947L498.98,282.08z M511.15,276.04
			c-0.055,3.58-3.076,6.525-6.665,6.497c-3.624-0.03-6.557-3.074-6.516-6.768c0.038-3.6,3.026-6.495,6.665-6.46
			C508.307,269.345,511.21,272.343,511.15,276.04L511.15,276.04z"/>
	</g>
	<g opacity="0.6">
		<ellipse fill="#00ACD0" cx="504.523" cy="311.74" rx="9.488" ry="3.158"/>
		<g>
			<path fill="#00ACD0" d="M498.98,282.08c3.91,2.824,6.718,2.824,11.25,0c1.737,2.205,2.334,4.695,2.78,7.418
				c0.173,1.04,0.462,3.482,0.41,4.536c-0.12,2.493-0.644,2.573-1.301,3.023c-0.279,0.192-0.413,0.66-0.465,1.022
				c-0.423,2.978-1.01,5.952-1.16,8.948c-0.225,4.54-5.214,6.037-8.247,4.792c-2.074-0.853-3.34-2.294-3.579-4.642
				c-0.313-3.03-0.767-6.05-1.217-9.062c-0.065-0.45-0.04-1.097-0.68-1.282c0,0-1.24-0.508-1.24-2.672
				c-0.064-3.912,0.57-7.714,2.67-11.134c0.146-0.23,0.639-0.823,0.78-0.947L498.98,282.08z M511.15,276.04
				c-0.055,3.58-3.076,6.525-6.665,6.497c-3.624-0.03-6.557-3.074-6.516-6.768c0.038-3.6,3.026-6.495,6.665-6.46
				C508.307,269.345,511.21,272.343,511.15,276.04L511.15,276.04z"/>
		</g>
	</g>
	<path d="M459.984,250.865l-0.327-1.972l2.74-0.485l0.37,1.965L459.984,250.865z M459.336,246.838l-0.577-4.057l2.617-0.4
		l0.665,4.042L459.336,246.838z M458.492,240.713l-0.462-4.07l2.496-0.312l0.55,4.06L458.492,240.713z M457.826,234.566l-0.34-4.084
		l2.368-0.222l0.43,4.074L457.826,234.566z M457.346,228.402l-0.213-4.09l2.239-0.142l0.303,4.086L457.346,228.402z
		 M457.058,222.228l-0.08-4.097l2.11-0.063l0.17,4.094L457.058,222.228z M456.975,216.047l0.06-4.097l1.977,0.008l0.03,4.098
		L456.975,216.047z M457.104,209.868l0.207-4.092l1.84,0.074l-0.12,4.095L457.104,209.868z M457.453,203.698l0.36-4.08l1.702,0.13
		l-0.272,4.09L457.453,203.698z M458.036,197.548l0.521-4.065l1.56,0.183l-0.43,4.074L458.036,197.548z M458.86,191.426l0.687-4.04
		l1.418,0.224l-0.596,4.054L458.86,191.426z M459.936,185.345l0.854-4.007l1.275,0.257l-0.766,4.025L459.936,185.345z
		 M461.268,179.316l1.03-3.965l1.133,0.282l-0.944,3.987L461.268,179.316z M462.865,173.354l1.212-3.914l0.99,0.295l-1.127,3.94
		L462.865,173.354z M464.736,167.476l1.398-3.853l0.846,0.297l-1.312,3.882L464.736,167.476z M466.888,161.695l1.588-3.778
		l0.706,0.288l-1.505,3.812L466.888,161.695z M469.325,156.032l1.782-3.69l0.57,0.267l-1.703,3.728L469.325,156.032z
		 M472.057,150.507l1.982-3.587l0.435,0.233l-1.904,3.63L472.057,150.507z M475.09,145.144l2.189-3.467l0.305,0.188l-2.113,3.514
		L475.09,145.144z M478.434,139.97l2.406-3.316l0.18,0.13l-2.332,3.368L478.434,139.97z M482.106,135.033l2.652-3.127l0.067,0.057
		l-2.583,3.184L482.106,135.033z M486.15,130.414l1.43-1.394l-1.397,1.425L486.15,130.414z M465.494,246.044l-4.399,2.972
		l-5.196-1.105l7.01,10.442L465.494,246.044z"/>
	<ellipse fill="#EAEAEA" cx="517.048" cy="378.218" rx="11.916" ry="3.968"/>
	<g>
		<path fill="#C2C2C4" d="M510.09,340.965c4.91,3.547,8.435,3.547,14.125,0c2.186,2.77,2.935,5.898,3.494,9.317
			c0.217,1.306,0.58,4.374,0.517,5.697c-0.15,3.13-0.808,3.23-1.634,3.797c-0.354,0.24-0.521,0.83-0.584,1.283
			c-0.53,3.742-1.271,7.48-1.457,11.24c-0.28,5.703-6.548,7.584-10.358,6.021c-2.606-1.07-4.192-2.883-4.497-5.83
			c-0.392-3.807-0.96-7.598-1.524-11.385c-0.084-0.566-0.053-1.377-0.854-1.61c0,0-1.56-0.638-1.56-3.354
			c-0.08-4.915,0.717-9.688,3.354-13.984c0.181-0.293,0.8-1.037,0.98-1.19L510.09,340.965z M525.375,333.377
			c-0.072,4.5-3.866,8.197-8.375,8.16c-4.553-0.035-8.231-3.86-8.182-8.497c0.05-4.52,3.804-8.158,8.37-8.114
			C521.803,324.969,525.448,328.736,525.375,333.377L525.375,333.377z"/>
	</g>
	<ellipse fill="#EAEAEA" cx="592.432" cy="382.812" rx="13.13" ry="4.372"/>
	<g>
		<path fill="#C2C2C4" d="M584.763,341.764c5.412,3.908,9.297,3.908,15.564,0c2.408,3.052,3.235,6.5,3.854,10.267
			c0.236,1.44,0.64,4.82,0.568,6.28c-0.169,3.45-0.894,3.56-1.804,4.185c-0.388,0.265-0.573,0.914-0.644,1.413
			c-0.583,4.124-1.397,8.24-1.604,12.386c-0.312,6.285-7.22,8.356-11.417,6.634c-2.872-1.18-4.62-3.176-4.954-6.423
			c-0.433-4.196-1.06-8.374-1.683-12.547c-0.094-0.624-0.058-1.517-0.94-1.774c0,0-1.718-0.702-1.72-3.696
			c-0.086-5.417,0.79-10.677,3.698-15.41C583.884,342.755,584.566,341.935,584.763,341.764L584.763,341.764z M601.606,333.402
			c-0.077,4.958-4.26,9.033-9.226,8.993c-5.019-0.04-9.074-4.253-9.021-9.364c0.057-4.979,4.193-8.988,9.228-8.94
			C597.671,324.139,601.687,328.289,601.606,333.402L601.606,333.402z"/>
	</g>
	<ellipse fill="#EAEAEA" cx="567.344" cy="432.813" rx="13.13" ry="4.372"/>
	<g>
		<path fill="#C2C2C4" d="M559.676,391.765c5.412,3.907,9.296,3.907,15.564,0c2.41,3.051,3.233,6.5,3.854,10.267
			c0.235,1.44,0.64,4.819,0.567,6.28c-0.17,3.449-0.89,3.56-1.8,4.185c-0.39,0.265-0.573,0.914-0.646,1.413
			c-0.584,4.124-1.4,8.24-1.604,12.386c-0.312,6.285-7.217,8.357-11.413,6.634c-2.874-1.18-4.624-3.176-4.958-6.423
			c-0.43-4.196-1.06-8.374-1.682-12.547c-0.093-0.624-0.058-1.517-0.94-1.774c0,0-1.718-0.701-1.72-3.695
			c-0.086-5.418,0.79-10.678,3.7-15.41C558.797,392.755,559.48,391.935,559.676,391.765L559.676,391.765z M576.52,383.401
			c-0.078,4.959-4.26,9.033-9.23,8.994c-5.013-0.041-9.069-4.254-9.015-9.364c0.054-4.978,4.193-8.988,9.226-8.94
			c5.082,0.049,9.1,4.198,9.02,9.312V383.401z"/>
	</g>
	<ellipse fill="#EAEAEA" cx="622.079" cy="408.812" rx="13.132" ry="4.372"/>
	<g>
		<path fill="#C2C2C4" d="M614.411,367.764c5.41,3.908,9.296,3.908,15.565,0c2.408,3.052,3.232,6.5,3.85,10.267
			c0.24,1.44,0.643,4.819,0.57,6.28c-0.167,3.449-0.89,3.56-1.802,4.185c-0.389,0.265-0.573,0.914-0.645,1.413
			c-0.583,4.124-1.396,8.24-1.602,12.386c-0.312,6.285-7.22,8.356-11.416,6.634c-2.873-1.18-4.62-3.176-4.956-6.423
			c-0.432-4.196-1.058-8.374-1.68-12.547c-0.096-0.624-0.061-1.517-0.94-1.774c0,0-1.72-0.701-1.72-3.695
			c-0.088-5.418,0.79-10.678,3.698-15.41C613.534,368.755,614.215,367.935,614.411,367.764L614.411,367.764z M631.255,359.402
			c-0.077,4.958-4.261,9.033-9.227,8.993c-5.02-0.04-9.075-4.253-9.02-9.364c0.056-4.978,4.191-8.988,9.226-8.94
			C627.318,350.139,631.334,354.289,631.255,359.402L631.255,359.402z"/>
	</g>
	<g opacity="0.6">
		<ellipse fill="#E95A78" cx="592.432" cy="382.812" rx="13.13" ry="4.372"/>
		<g>
			<path fill="#E95A78" d="M584.763,341.764c5.412,3.908,9.297,3.908,15.564,0c2.408,3.052,3.235,6.5,3.854,10.267
				c0.236,1.44,0.64,4.82,0.568,6.28c-0.169,3.45-0.894,3.56-1.804,4.185c-0.388,0.265-0.573,0.914-0.644,1.413
				c-0.583,4.124-1.397,8.24-1.604,12.386c-0.312,6.285-7.22,8.356-11.417,6.634c-2.872-1.18-4.62-3.176-4.954-6.423
				c-0.433-4.196-1.06-8.374-1.683-12.547c-0.094-0.624-0.058-1.517-0.94-1.774c0,0-1.718-0.702-1.72-3.696
				c-0.086-5.417,0.79-10.677,3.698-15.41C583.884,342.755,584.566,341.935,584.763,341.764L584.763,341.764z M601.606,333.402
				c-0.077,4.958-4.26,9.033-9.226,8.993c-5.019-0.04-9.074-4.253-9.021-9.364c0.057-4.979,4.193-8.988,9.228-8.94
				C597.671,324.139,601.687,328.289,601.606,333.402L601.606,333.402z"/>
		</g>
	</g>
	<g opacity="0.6">
		<ellipse fill="#E95A78" cx="567.344" cy="432.813" rx="13.13" ry="4.372"/>
		<g>
			<path fill="#E95A78" d="M559.676,391.765c5.412,3.907,9.296,3.907,15.564,0c2.41,3.051,3.233,6.5,3.854,10.267
				c0.235,1.44,0.64,4.819,0.567,6.28c-0.17,3.449-0.89,3.56-1.8,4.185c-0.39,0.265-0.573,0.914-0.646,1.413
				c-0.584,4.124-1.4,8.24-1.604,12.386c-0.312,6.285-7.217,8.357-11.413,6.634c-2.874-1.18-4.624-3.176-4.958-6.423
				c-0.43-4.196-1.06-8.374-1.682-12.547c-0.093-0.624-0.058-1.517-0.94-1.774c0,0-1.718-0.701-1.72-3.695
				c-0.086-5.418,0.79-10.678,3.7-15.41C558.797,392.755,559.48,391.935,559.676,391.765L559.676,391.765z M576.52,383.401
				c-0.078,4.959-4.26,9.033-9.23,8.994c-5.013-0.041-9.069-4.254-9.015-9.364c0.054-4.978,4.193-8.988,9.226-8.94
				c5.082,0.049,9.1,4.198,9.02,9.312V383.401z"/>
		</g>
	</g>
	<g opacity="0.6">
		<ellipse fill="#E95A78" cx="622.079" cy="408.812" rx="13.132" ry="4.372"/>
		<g>
			<path fill="#E95A78" d="M614.411,367.764c5.41,3.908,9.296,3.908,15.565,0c2.408,3.052,3.232,6.5,3.85,10.267
				c0.24,1.44,0.643,4.819,0.57,6.28c-0.167,3.449-0.89,3.56-1.802,4.185c-0.389,0.265-0.573,0.914-0.645,1.413
				c-0.583,4.124-1.396,8.24-1.602,12.386c-0.312,6.285-7.22,8.356-11.416,6.634c-2.873-1.18-4.62-3.176-4.956-6.423
				c-0.432-4.196-1.058-8.374-1.68-12.547c-0.096-0.624-0.061-1.517-0.94-1.774c0,0-1.72-0.701-1.72-3.695
				c-0.088-5.418,0.79-10.678,3.698-15.41C613.534,368.755,614.215,367.935,614.411,367.764L614.411,367.764z M631.255,359.402
				c-0.077,4.958-4.261,9.033-9.227,8.993c-5.02-0.04-9.075-4.253-9.02-9.364c0.056-4.978,4.191-8.988,9.226-8.94
				C627.318,350.139,631.334,354.289,631.255,359.402L631.255,359.402z"/>
		</g>
	</g>
	<ellipse fill="#EAEAEA" cx="363.079" cy="457.813" rx="13.132" ry="4.372"/>
	<g>
		<path fill="#C2C2C4" d="M355.411,416.765c5.41,3.907,9.296,3.907,15.565,0c2.408,3.051,3.232,6.499,3.85,10.267
			c0.24,1.439,0.643,4.819,0.57,6.279c-0.167,3.45-0.89,3.561-1.802,4.186c-0.389,0.265-0.573,0.914-0.645,1.413
			c-0.583,4.124-1.396,8.24-1.602,12.386c-0.312,6.285-7.22,8.357-11.416,6.634c-2.873-1.18-4.62-3.176-4.956-6.423
			c-0.432-4.196-1.058-8.374-1.68-12.547c-0.096-0.624-0.061-1.517-0.94-1.774c0,0-1.72-0.701-1.72-3.695
			c-0.088-5.417,0.79-10.678,3.698-15.41C354.534,417.755,355.215,416.935,355.411,416.765L355.411,416.765z M372.255,408.401
			c-0.077,4.959-4.261,9.033-9.227,8.994c-5.02-0.041-9.075-4.254-9.02-9.364c0.056-4.978,4.191-8.988,9.226-8.94
			c5.083,0.049,9.101,4.198,9.021,9.312V408.401z"/>
	</g>
	<ellipse fill="#EAEAEA" cx="322.432" cy="437.813" rx="13.13" ry="4.372"/>
	<g>
		<path fill="#C2C2C4" d="M314.763,396.765c5.412,3.907,9.297,3.907,15.564,0c2.408,3.051,3.235,6.5,3.854,10.267
			c0.236,1.44,0.64,4.819,0.568,6.28c-0.169,3.449-0.894,3.56-1.804,4.185c-0.388,0.265-0.573,0.914-0.644,1.413
			c-0.583,4.124-1.397,8.24-1.604,12.386c-0.312,6.285-7.22,8.357-11.417,6.634c-2.872-1.18-4.62-3.176-4.954-6.423
			c-0.433-4.196-1.06-8.374-1.683-12.547c-0.094-0.624-0.058-1.517-0.94-1.774c0,0-1.718-0.701-1.72-3.695
			c-0.086-5.418,0.79-10.678,3.698-15.41C313.884,397.755,314.566,396.935,314.763,396.765L314.763,396.765z M331.606,388.401
			c-0.077,4.959-4.26,9.033-9.226,8.994c-5.019-0.041-9.074-4.254-9.021-9.364c0.057-4.978,4.193-8.988,9.228-8.94
			c5.084,0.049,9.1,4.198,9.02,9.312L331.606,388.401z"/>
	</g>
	<g opacity="0.6">
		<ellipse fill="#00D096" cx="363.079" cy="457.813" rx="13.132" ry="4.372"/>
		<g>
			<path fill="#00D096" d="M355.411,416.765c5.41,3.907,9.296,3.907,15.565,0c2.408,3.051,3.232,6.499,3.85,10.267
				c0.24,1.439,0.643,4.819,0.57,6.279c-0.167,3.45-0.89,3.561-1.802,4.186c-0.389,0.265-0.573,0.914-0.645,1.413
				c-0.583,4.124-1.396,8.24-1.602,12.386c-0.312,6.285-7.22,8.357-11.416,6.634c-2.873-1.18-4.62-3.176-4.956-6.423
				c-0.432-4.196-1.058-8.374-1.68-12.547c-0.096-0.624-0.061-1.517-0.94-1.774c0,0-1.72-0.701-1.72-3.695
				c-0.088-5.417,0.79-10.678,3.698-15.41C354.534,417.755,355.215,416.935,355.411,416.765L355.411,416.765z M372.255,408.401
				c-0.077,4.959-4.261,9.033-9.227,8.994c-5.02-0.041-9.075-4.254-9.02-9.364c0.056-4.978,4.191-8.988,9.226-8.94
				c5.083,0.049,9.101,4.198,9.021,9.312V408.401z"/>
		</g>
	</g>
	<g opacity="0.6">
		<ellipse fill="#00D096" cx="322.432" cy="437.813" rx="13.13" ry="4.372"/>
		<g>
			<path fill="#00D096" d="M314.763,396.765c5.412,3.907,9.297,3.907,15.564,0c2.408,3.051,3.235,6.5,3.854,10.267
				c0.236,1.44,0.64,4.819,0.568,6.28c-0.169,3.449-0.894,3.56-1.804,4.185c-0.388,0.265-0.573,0.914-0.644,1.413
				c-0.583,4.124-1.397,8.24-1.604,12.386c-0.312,6.285-7.22,8.357-11.417,6.634c-2.872-1.18-4.62-3.176-4.954-6.423
				c-0.433-4.196-1.06-8.374-1.683-12.547c-0.094-0.624-0.058-1.517-0.94-1.774c0,0-1.718-0.701-1.72-3.695
				c-0.086-5.418,0.79-10.678,3.698-15.41C313.884,397.755,314.566,396.935,314.763,396.765L314.763,396.765z M331.606,388.401
				c-0.077,4.959-4.26,9.033-9.226,8.994c-5.019-0.041-9.074-4.254-9.021-9.364c0.057-4.978,4.193-8.988,9.228-8.94
				c5.084,0.049,9.1,4.198,9.02,9.312L331.606,388.401z"/>
		</g>
	</g>
	<g opacity="0.35">
		<ellipse fill="#EAEAEA" cx="546.379" cy="267.026" rx="9.486" ry="3.159"/>
		<g>
			<path fill="#C2C2C4" d="M540.84,237.366c3.908,2.825,6.715,2.825,11.245,0c1.739,2.206,2.337,4.696,2.781,7.42
				c0.172,1.038,0.463,3.48,0.41,4.534c-0.12,2.493-0.643,2.573-1.3,3.023c-0.28,0.19-0.413,0.662-0.465,1.023
				c-0.423,2.979-1.01,5.953-1.16,8.948c-0.225,4.54-5.214,6.038-8.248,4.792c-2.075-0.852-3.34-2.294-3.58-4.64
				c-0.312-3.032-0.766-6.05-1.215-9.065c-0.068-0.45-0.042-1.096-0.68-1.28c0,0-1.242-0.51-1.242-2.672
				c-0.064-3.914,0.569-7.715,2.672-11.135C540.201,238.084,540.694,237.489,540.84,237.366L540.84,237.366z M553.01,231.325
				c-0.061,3.582-3.08,6.526-6.668,6.497c-3.626-0.027-6.557-3.072-6.517-6.766c0.04-3.598,3.03-6.495,6.666-6.46
				C550.163,224.631,553.067,227.629,553.01,231.325L553.01,231.325z"/>
		</g>
	</g>
	<circle cx="390.062" cy="281.603" r="8.75"/>
	<path fill="#FFFFFF" d="M389.508,276.945v-0.73h1.063v0.714c0.252,0.062,0.49,0.11,0.723,0.187c0.865,0.29,1.369,0.953,1.42,1.865
		c0.01,0.243,0,0.487,0,0.738h-2.341c0-0.11,0.006-0.218,0-0.325c-0.013-0.244-0.018-0.488-0.046-0.73
		c-0.024-0.21-0.126-0.293-0.323-0.314c-0.193-0.023-0.353,0.058-0.412,0.24c-0.116,0.36-0.105,0.72,0.065,1.058
		c0.05,0.096,0.141,0.18,0.23,0.24c0.468,0.312,0.942,0.613,1.415,0.92c0.22,0.143,0.436,0.29,0.652,0.434
		c0.474,0.316,0.757,0.768,0.896,1.305c0.184,0.697,0.177,1.4-0.023,2.092c-0.254,0.872-0.859,1.388-1.722,1.625
		c-0.17,0.048-0.343,0.078-0.53,0.12v0.857h-1.066v-0.884c-0.157-0.032-0.308-0.054-0.453-0.092
		c-0.572-0.154-1.068-0.435-1.426-0.917c-0.221-0.3-0.318-0.65-0.385-1.01c-0.077-0.44-0.074-0.886-0.067-1.34h2.324
		c0,0.036,0.005,0.076,0.005,0.114c0.01,0.445,0.018,0.89,0.025,1.334c0.002,0.062,0.014,0.123,0.021,0.182
		c0.032,0.193,0.114,0.287,0.28,0.32c0.194,0.035,0.38-0.028,0.46-0.182c0.047-0.092,0.085-0.197,0.09-0.3
		c0.02-0.376,0.005-0.753-0.063-1.126c-0.04-0.214-0.153-0.384-0.315-0.52c-0.146-0.12-0.3-0.232-0.458-0.338
		c-0.442-0.3-0.9-0.584-1.334-0.896c-0.572-0.416-0.889-1-1.017-1.684c-0.096-0.5-0.08-1.003,0.085-1.488
		c0.23-0.666,0.721-1.063,1.368-1.276c0.23-0.075,0.476-0.114,0.71-0.17c0.048-0.01,0.095-0.015,0.15-0.025L389.508,276.945z"/>
	<circle cx="466.062" cy="273.603" r="8.75"/>
	<path fill="#FFFFFF" d="M465.508,268.945v-0.73h1.063v0.714c0.252,0.062,0.49,0.11,0.723,0.187c0.865,0.29,1.369,0.953,1.42,1.865
		c0.01,0.243,0,0.487,0,0.738h-2.341c0-0.11,0.006-0.218,0-0.325c-0.013-0.244-0.018-0.488-0.046-0.73
		c-0.024-0.21-0.126-0.293-0.323-0.314c-0.193-0.023-0.353,0.058-0.412,0.24c-0.116,0.36-0.105,0.72,0.065,1.058
		c0.05,0.096,0.141,0.18,0.23,0.24c0.468,0.312,0.942,0.613,1.415,0.92c0.22,0.143,0.436,0.29,0.652,0.434
		c0.474,0.316,0.757,0.768,0.896,1.305c0.184,0.697,0.177,1.4-0.023,2.092c-0.254,0.872-0.859,1.388-1.722,1.625
		c-0.17,0.048-0.343,0.078-0.53,0.12v0.857h-1.066v-0.884c-0.157-0.032-0.308-0.054-0.453-0.092
		c-0.572-0.154-1.068-0.435-1.426-0.917c-0.221-0.3-0.318-0.65-0.385-1.01c-0.077-0.44-0.074-0.886-0.067-1.34h2.324
		c0,0.036,0.005,0.076,0.005,0.114c0.01,0.445,0.018,0.89,0.025,1.334c0.002,0.062,0.014,0.123,0.021,0.182
		c0.032,0.193,0.114,0.287,0.28,0.32c0.194,0.035,0.38-0.028,0.46-0.182c0.047-0.092,0.085-0.197,0.09-0.3
		c0.02-0.376,0.005-0.753-0.063-1.126c-0.04-0.214-0.153-0.384-0.315-0.52c-0.146-0.12-0.3-0.232-0.458-0.338
		c-0.442-0.3-0.9-0.584-1.334-0.896c-0.572-0.416-0.889-1-1.017-1.684c-0.096-0.5-0.08-1.003,0.085-1.488
		c0.23-0.666,0.721-1.063,1.368-1.276c0.23-0.075,0.476-0.114,0.71-0.17c0.048-0.01,0.095-0.015,0.15-0.025L465.508,268.945z"/>
	<ellipse fill="#EAEAEA" cx="670.756" cy="326.026" rx="9.487" ry="3.159"/>
	<g>
		<path fill="#969696" d="M665.215,296.366c3.91,2.825,6.718,2.825,11.247,0c1.739,2.206,2.336,4.696,2.783,7.42
			c0.171,1.038,0.46,3.48,0.41,4.534c-0.12,2.493-0.644,2.573-1.302,3.023c-0.28,0.19-0.413,0.662-0.465,1.023
			c-0.423,2.98-1.012,5.953-1.16,8.948c-0.226,4.54-5.215,6.038-8.247,4.792c-2.076-0.852-3.34-2.294-3.58-4.64
			c-0.312-3.032-0.767-6.05-1.217-9.065c-0.066-0.45-0.04-1.096-0.68-1.28c0,0-1.24-0.51-1.24-2.672
			c-0.063-3.914,0.57-7.715,2.672-11.135C664.578,297.084,665.073,296.489,665.215,296.366L665.215,296.366z M677.386,290.325
			c-0.058,3.582-3.078,6.526-6.668,6.497c-3.623-0.027-6.557-3.072-6.515-6.766c0.038-3.598,3.028-6.495,6.665-6.46
			C674.54,283.631,677.443,286.629,677.386,290.325L677.386,290.325z"/>
	</g>
	<ellipse fill="#EAEAEA" cx="467.885" cy="337.218" rx="11.916" ry="3.968"/>
	<g>
		<path fill="#C2C2C4" d="M460.926,299.965c4.91,3.547,8.436,3.547,14.125,0c2.187,2.77,2.937,5.898,3.498,9.317
			c0.214,1.306,0.58,4.374,0.516,5.697c-0.152,3.13-0.81,3.23-1.636,3.797c-0.353,0.24-0.521,0.83-0.584,1.283
			c-0.53,3.742-1.271,7.48-1.455,11.24c-0.284,5.703-6.55,7.584-10.36,6.02c-2.606-1.07-4.193-2.882-4.497-5.83
			c-0.392-3.807-0.96-7.598-1.525-11.385c-0.085-0.566-0.054-1.377-0.854-1.61c0,0-1.56-0.638-1.56-3.354
			c-0.08-4.915,0.717-9.688,3.354-13.984C460.128,300.863,460.747,300.119,460.926,299.965L460.926,299.965z M476.21,292.377
			c-0.07,4.5-3.864,8.197-8.372,8.16c-4.554-0.035-8.234-3.86-8.185-8.497c0.05-4.52,3.806-8.158,8.372-8.114
			C472.639,283.969,476.283,287.736,476.21,292.377L476.21,292.377z"/>
	</g>
	<g opacity="0.6">
		<ellipse fill="#00ACD0" cx="467.885" cy="337.218" rx="11.916" ry="3.968"/>
		<g>
			<path fill="#00ACD0" d="M460.926,299.965c4.91,3.547,8.436,3.547,14.125,0c2.187,2.77,2.937,5.898,3.498,9.317
				c0.214,1.306,0.58,4.374,0.516,5.697c-0.152,3.13-0.81,3.23-1.636,3.797c-0.353,0.24-0.521,0.83-0.584,1.283
				c-0.53,3.742-1.271,7.48-1.455,11.24c-0.284,5.703-6.55,7.584-10.36,6.02c-2.606-1.07-4.193-2.882-4.497-5.83
				c-0.392-3.807-0.96-7.598-1.525-11.385c-0.085-0.566-0.054-1.377-0.854-1.61c0,0-1.56-0.638-1.56-3.354
				c-0.08-4.915,0.717-9.688,3.354-13.984C460.128,300.863,460.747,300.119,460.926,299.965L460.926,299.965z M476.21,292.377
				c-0.07,4.5-3.864,8.197-8.372,8.16c-4.554-0.035-8.234-3.86-8.185-8.497c0.05-4.52,3.806-8.158,8.372-8.114
				C472.639,283.969,476.283,287.736,476.21,292.377L476.21,292.377z"/>
		</g>
	</g>
	<ellipse fill="#EAEAEA" cx="450.756" cy="286.026" rx="9.487" ry="3.159"/>
	<g>
		<path fill="#C2C2C4" d="M445.215,256.366c3.91,2.825,6.718,2.825,11.247,0c1.739,2.206,2.336,4.696,2.783,7.42
			c0.171,1.038,0.46,3.48,0.41,4.534c-0.12,2.493-0.644,2.573-1.302,3.023c-0.28,0.19-0.413,0.662-0.465,1.023
			c-0.423,2.98-1.012,5.953-1.16,8.948c-0.226,4.54-5.215,6.038-8.247,4.792c-2.076-0.852-3.34-2.294-3.58-4.64
			c-0.312-3.032-0.767-6.05-1.217-9.065c-0.066-0.45-0.04-1.096-0.68-1.28c0,0-1.24-0.51-1.24-2.672
			c-0.063-3.914,0.57-7.715,2.672-11.135C444.578,257.084,445.073,256.489,445.215,256.366L445.215,256.366z M457.386,250.325
			c-0.058,3.582-3.078,6.526-6.668,6.497c-3.623-0.027-6.557-3.072-6.515-6.766c0.038-3.598,3.028-6.495,6.665-6.46
			C454.54,243.631,457.443,246.629,457.386,250.325L457.386,250.325z"/>
	</g>
	<g opacity="0.6">
		<ellipse fill="#00ACD0" cx="450.756" cy="286.026" rx="9.487" ry="3.159"/>
		<g>
			<path fill="#00ACD0" d="M445.215,256.366c3.91,2.825,6.718,2.825,11.247,0c1.739,2.206,2.336,4.696,2.783,7.42
				c0.171,1.038,0.46,3.48,0.41,4.534c-0.12,2.493-0.644,2.573-1.302,3.023c-0.28,0.19-0.413,0.662-0.465,1.023
				c-0.423,2.98-1.012,5.953-1.16,8.948c-0.226,4.54-5.215,6.038-8.247,4.792c-2.076-0.852-3.34-2.294-3.58-4.64
				c-0.312-3.032-0.767-6.05-1.217-9.065c-0.066-0.45-0.04-1.096-0.68-1.28c0,0-1.24-0.51-1.24-2.672
				c-0.063-3.914,0.57-7.715,2.672-11.135C444.578,257.084,445.073,256.489,445.215,256.366L445.215,256.366z M457.386,250.325
				c-0.058,3.582-3.078,6.526-6.668,6.497c-3.623-0.027-6.557-3.072-6.515-6.766c0.038-3.598,3.028-6.495,6.665-6.46
				C454.54,243.631,457.443,246.629,457.386,250.325L457.386,250.325z"/>
		</g>
	</g>
	<path d="M524.978,404.05l0.93-1.77l2.574,1.34l-0.913,1.777L524.978,404.05z M526.835,400.507l1.844-3.583l2.53,1.287l-1.809,3.603
		L526.835,400.507z M529.582,395.144l1.805-3.604l2.49,1.229l-1.767,3.623L529.582,395.144z M532.27,389.747l1.763-3.624l2.45,1.177
		l-1.725,3.641L532.27,389.747z M534.897,384.319l1.72-3.641l2.408,1.119l-1.682,3.662L534.897,384.319z M537.457,378.865
		l1.676-3.665l2.367,1.068l-1.641,3.68L537.457,378.865z M539.951,373.377l1.631-3.685l2.322,1.013l-1.592,3.702L539.951,373.377z
		 M542.377,367.86l1.582-3.707l2.279,0.96l-1.545,3.722L542.377,367.86z M544.73,362.31l1.533-3.726l2.237,0.906l-1.495,3.742
		L544.73,362.31z M547.01,356.73l1.479-3.746l2.194,0.854l-1.444,3.762L547.01,356.73z M549.213,351.12l1.43-3.766l2.146,0.8
		l-1.392,3.783L549.213,351.12z M551.336,345.48l1.374-3.788l2.102,0.75l-1.336,3.802L551.336,345.48z M553.378,339.81l1.316-3.81
		l2.056,0.7l-1.28,3.82L553.378,339.81z M555.334,334.108l1.26-3.827l2.007,0.65l-1.22,3.84L555.334,334.108z M557.202,328.378
		l1.198-3.847l1.96,0.6l-1.16,3.86L557.202,328.378z M558.98,322.62l1.135-3.867l1.91,0.55l-1.096,3.878L558.98,322.62z
		 M560.662,316.832l1.07-3.885l1.86,0.503l-1.03,3.895L560.662,316.832z M562.247,311.017l1.005-3.903l1.81,0.456l-0.965,3.912
		L562.247,311.017z M563.732,305.175l0.935-3.92l1.758,0.41l-0.896,3.93L563.732,305.175z M565.11,299.308l0.864-3.936l1.705,0.364
		l-0.823,3.945L565.11,299.308z M566.383,293.416l0.787-3.95l1.651,0.32l-0.747,3.958L566.383,293.416z M567.539,287.5l0.711-3.965
		l1.6,0.277l-0.67,3.974L567.539,287.5z M568.584,281.564l0.63-3.98l1.544,0.237l-0.59,3.988L568.584,281.564z M569.507,275.607
		l0.548-3.99l1.488,0.195l-0.509,3.998L569.507,275.607z M570.306,269.633l0.463-4.002l1.43,0.16l-0.423,4.006L570.306,269.633z
		 M570.977,263.643l0.375-4.012l1.374,0.122l-0.335,4.016L570.977,263.643z M571.516,257.64l0.283-4.02l1.313,0.086l-0.243,4.022
		L571.516,257.64z M571.916,251.624l0.19-4.025l1.257,0.052l-0.149,4.027L571.916,251.624z M572.18,245.6l0.092-4.028l1.197,0.021
		l-0.055,4.03L572.18,245.6z M572.295,239.572l-0.007-4.03l1.137-0.006l0.045,4.03L572.295,239.572z M572.262,233.543l-0.108-4.027
		l1.075-0.035l0.147,4.028L572.262,233.543z M572.074,227.517l-0.212-4.025l1.013-0.058l0.253,4.02L572.074,227.517z
		 M571.73,221.496l-0.32-4.017l0.95-0.082l0.36,4.014L571.73,221.496z M571.225,215.486l-0.43-4.006l0.886-0.1l0.47,4.002
		L571.225,215.486z M570.552,209.492l-0.544-3.992l0.822-0.116l0.586,3.987L570.552,209.492z M569.71,203.52l-0.66-3.975l0.76-0.13
		l0.7,3.968L569.71,203.52z M568.692,197.574l-0.778-3.954l0.695-0.14l0.818,3.946L568.692,197.574z M567.496,191.66l-0.899-3.928
		l0.632-0.147l0.938,3.918L567.496,191.66z M566.119,185.786l-1.023-3.897l0.567-0.154l1.063,3.887L566.119,185.786z
		 M564.556,179.957l-1.15-3.86l0.504-0.155l1.19,3.85L564.556,179.957z M562.802,174.183l-1.28-3.822l0.443-0.15l1.316,3.81
		L562.802,174.183z M560.854,168.47l-1.41-3.776l0.378-0.144l1.45,3.76L560.854,168.47z M558.706,162.826l-1.546-3.722l0.32-0.133
		l1.582,3.707L558.706,162.826z M556.356,157.265l-1.685-3.662l0.258-0.12l1.722,3.644L556.356,157.265z M553.795,151.795
		l-1.83-3.593l0.197-0.1l1.866,3.572L553.795,151.795z M551.015,146.43l-1.984-3.51l0.143-0.08l2.018,3.49L551.015,146.43z
		 M548.002,141.19l-2.146-3.41l0.085-0.054l2.183,3.388L548.002,141.19z M544.74,136.105l-2.34-3.285l0.033-0.023l2.372,3.26
		L544.74,136.105z M541.174,131.227l-1.274-1.537l1.29,1.523L541.174,131.227z M532.244,403.64l-5.296-0.399l-3.388-4.093
		l-0.984,12.539L532.244,403.64z"/>
	<ellipse fill="#EAEAEA" cx="496.921" cy="435.813" rx="13.13" ry="4.372"/>
	<g>
		<path fill="#00ACD0" d="M489.254,394.765c5.409,3.907,9.293,3.907,15.563,0c2.408,3.051,3.232,6.5,3.853,10.267
			c0.235,1.44,0.638,4.819,0.566,6.28c-0.165,3.449-0.89,3.56-1.8,4.185c-0.39,0.265-0.573,0.914-0.646,1.413
			c-0.584,4.124-1.396,8.24-1.604,12.386c-0.312,6.285-7.218,8.357-11.415,6.634c-2.873-1.18-4.62-3.176-4.955-6.423
			c-0.43-4.196-1.06-8.374-1.682-12.547c-0.092-0.624-0.058-1.517-0.94-1.774c0,0-1.718-0.701-1.72-3.695
			c-0.087-5.418,0.793-10.678,3.698-15.41C488.373,395.755,489.056,394.935,489.254,394.765L489.254,394.765z M506.096,386.401
			c-0.078,4.959-4.26,9.033-9.228,8.994c-5.02-0.041-9.072-4.254-9.02-9.364c0.056-4.978,4.192-8.988,9.227-8.94
			c5.08,0.049,9.101,4.198,9.021,9.312V386.401z"/>
	</g>
	<path fill="none" stroke="#969696" stroke-width="2" stroke-miterlimit="10" d="M244,409.94h-2"/>
	<path fill="none" stroke="#969696" stroke-width="2" stroke-miterlimit="10" stroke-dasharray="4,2" d="M240,409.94h-17"/>
	<path fill="none" stroke="#969696" stroke-width="2" stroke-miterlimit="10" d="M221.578,409.687h-2l0.007-2"/>
	<path fill="none" stroke="#969696" stroke-width="2" stroke-miterlimit="10" stroke-dasharray="4.0138,2.0069" d="M219.592,405.681
		l0.976-287.991"/>
	<path fill="none" stroke="#969696" stroke-width="2" stroke-miterlimit="10" d="M220.783,116.94l-0.204-2H223"/>
	<path fill="none" stroke="#969696" stroke-width="2" stroke-miterlimit="10" stroke-dasharray="4,2" d="M225,114.94h72"/>
	<path fill="none" stroke="#969696" stroke-width="2" stroke-miterlimit="10" d="M298,114.94h2"/>
	<path fill="#969696" d="M297.044,119.13l1.888-4.444l-1.888-4.444l10.533,4.444L297.044,119.13z"/>
	<ellipse fill="#EAEAEA" cx="374.789" cy="294.026" rx="9.487" ry="3.159"/>
	<g>
		<path fill="#C2C2C4" d="M369.25,264.366c3.909,2.825,6.716,2.825,11.245,0c1.74,2.206,2.337,4.696,2.784,7.42
			c0.17,1.038,0.46,3.48,0.41,4.534c-0.12,2.493-0.645,2.573-1.302,3.023c-0.28,0.19-0.414,0.662-0.465,1.023
			c-0.422,2.98-1.011,5.953-1.16,8.948c-0.226,4.54-5.214,6.038-8.248,4.792c-2.074-0.852-3.338-2.294-3.58-4.64
			c-0.31-3.032-0.764-6.05-1.215-9.065c-0.067-0.45-0.04-1.096-0.681-1.28c0,0-1.239-0.51-1.239-2.672
			c-0.064-3.914,0.569-7.715,2.67-11.135C368.614,265.084,369.108,264.489,369.25,264.366L369.25,264.366z M381.42,258.325
			c-0.058,3.582-3.078,6.526-6.667,6.497c-3.624-0.027-6.557-3.072-6.517-6.766c0.04-3.598,3.03-6.495,6.666-6.46
			C378.574,251.631,381.478,254.629,381.42,258.325L381.42,258.325z"/>
	</g>
	<g opacity="0.6">
		<ellipse fill="#80529B" cx="374.789" cy="294.026" rx="9.487" ry="3.159"/>
		<g>
			<path fill="#80529B" d="M369.25,264.366c3.909,2.825,6.716,2.825,11.245,0c1.74,2.206,2.337,4.696,2.784,7.42
				c0.17,1.038,0.46,3.48,0.41,4.534c-0.12,2.493-0.645,2.573-1.302,3.023c-0.28,0.19-0.414,0.662-0.465,1.023
				c-0.422,2.98-1.011,5.953-1.16,8.948c-0.226,4.54-5.214,6.038-8.248,4.792c-2.074-0.852-3.338-2.294-3.58-4.64
				c-0.31-3.032-0.764-6.05-1.215-9.065c-0.067-0.45-0.04-1.096-0.681-1.28c0,0-1.239-0.51-1.239-2.672
				c-0.064-3.914,0.569-7.715,2.67-11.135C368.614,265.084,369.108,264.489,369.25,264.366L369.25,264.366z M381.42,258.325
				c-0.058,3.582-3.078,6.526-6.667,6.497c-3.624-0.027-6.557-3.072-6.517-6.766c0.04-3.598,3.03-6.495,6.666-6.46
				C378.574,251.631,381.478,254.629,381.42,258.325L381.42,258.325z"/>
		</g>
	</g>
	<g opacity="0.6">
		<ellipse fill="#80529B" cx="374.789" cy="294.026" rx="9.487" ry="3.159"/>
		<g opacity="0.6">
			<path fill="#80529B" d="M369.25,264.366c3.909,2.825,6.716,2.825,11.245,0c1.74,2.206,2.337,4.696,2.783,7.42
				c0.17,1.038,0.46,3.48,0.41,4.534c-0.12,2.493-0.645,2.573-1.302,3.023c-0.28,0.19-0.414,0.662-0.465,1.023
				c-0.422,2.98-1.011,5.953-1.16,8.948c-0.226,4.54-5.214,6.038-8.248,4.792c-2.074-0.852-3.338-2.294-3.58-4.64
				c-0.311-3.032-0.764-6.05-1.215-9.065c-0.067-0.45-0.04-1.096-0.681-1.28c0,0-1.239-0.51-1.239-2.672
				c-0.064-3.914,0.569-7.715,2.67-11.135C368.612,265.084,369.107,264.489,369.25,264.366L369.25,264.366z M381.42,258.325
				c-0.058,3.582-3.078,6.526-6.667,6.497c-3.624-0.027-6.557-3.072-6.517-6.766c0.04-3.598,3.03-6.495,6.666-6.46
				C378.574,251.631,381.477,254.629,381.42,258.325L381.42,258.325z"/>
		</g>
	</g>
</g>
</svg>
