<svg xmlns="http://www.w3.org/2000/svg" width="889" height="742.939" viewBox="0 0 889 742.939"><g><path d="M292.78 606.677c-1.475 0-2.635.522-3.48 1.568s-1.267 2.488-1.267 4.33c0 1.926.406 3.383 1.22 4.37.812.99 1.988 1.483 3.528 1.483.667 0 1.312-.066 1.935-.2.623-.13 1.27-.3 1.944-.51v2.203c-1.233.467-2.63.7-4.19.7-2.3 0-4.064-.697-5.296-2.09-1.23-1.394-1.848-3.386-1.848-5.98 0-1.632.3-3.06.896-4.285.6-1.225 1.463-2.163 2.595-2.814s2.46-.977 3.985-.977c1.604 0 3.086.337 4.447 1.01l-.925 2.138c-.53-.25-1.09-.47-1.682-.66-.59-.19-1.21-.283-1.862-.283zM310.312 614.443c0 1.94-.498 3.455-1.493 4.544s-2.382 1.633-4.158 1.633c-1.11 0-2.09-.25-2.943-.752s-1.51-1.22-1.967-2.16-.688-2.025-.688-3.265c0-1.927.494-3.43 1.482-4.512s2.38-1.62 4.18-1.62c1.718 0 3.078.552 4.08 1.66 1.004 1.105 1.505 2.597 1.505 4.473zm-8.647 0c0 2.743 1.014 4.114 3.04 4.114 2.005 0 3.008-1.37 3.008-4.114 0-2.714-1.01-4.07-3.03-4.07-1.06 0-1.827.35-2.304 1.052-.477.702-.715 1.708-.715 3.018zM315.737 620.405h-2.524V603.69h2.524v16.715zM321.87 620.405h-2.523V603.69h2.524v16.715zM332.914 620.405l-.505-1.654h-.087c-.573.725-1.15 1.217-1.73 1.478-.58.262-1.324.393-2.233.393-1.167 0-2.08-.314-2.734-.944s-.982-1.52-.982-2.675c0-1.224.455-2.147 1.364-2.77s2.295-.963 4.157-1.02l2.052-.065v-.634c0-.758-.178-1.326-.532-1.7-.354-.378-.903-.565-1.648-.565-.608 0-1.192.09-1.75.27s-1.097.39-1.612.633l-.816-1.805c.644-.337 1.35-.593 2.115-.768.767-.176 1.49-.264 2.17-.264 1.51 0 2.65.33 3.42.99.772.658 1.156 1.692 1.156 3.103v8.003h-1.806zm-3.76-1.718c.917 0 1.652-.256 2.207-.768.557-.514.834-1.23.834-2.155v-1.03l-1.525.063c-1.19.043-2.055.242-2.596.596-.54.355-.81.897-.81 1.628 0 .53.156.94.472 1.23.316.29.788.435 1.418.435zM344.312 608.31c1.482 0 2.637.537 3.464 1.61s1.24 2.583 1.24 4.523c0 1.948-.418 3.464-1.256 4.55-.838 1.084-2.002 1.627-3.49 1.627-1.505 0-2.672-.54-3.503-1.622h-.172l-.462 1.407h-1.89V603.69h2.523v3.975c0 .294-.015.73-.043 1.31s-.05.95-.064 1.107h.106c.802-1.182 1.984-1.772 3.546-1.772zm-.656 2.062c-1.017 0-1.75.3-2.197.896-.448.6-.68 1.6-.693 3.003v.173c0 1.446.23 2.494.688 3.142.458.648 1.207.973 2.245.973.896 0 1.573-.354 2.035-1.063s.693-1.733.693-3.072c0-2.7-.924-4.05-2.772-4.05zM362.487 614.443c0 1.94-.498 3.455-1.493 4.544s-2.38 1.633-4.157 1.633c-1.11 0-2.09-.25-2.943-.752s-1.508-1.22-1.966-2.16-.688-2.025-.688-3.265c0-1.927.494-3.43 1.482-4.512s2.38-1.62 4.18-1.62c1.718 0 3.078.552 4.08 1.66 1.003 1.105 1.505 2.597 1.505 4.473zm-8.647 0c0 2.743 1.014 4.114 3.04 4.114 2.005 0 3.008-1.37 3.008-4.114 0-2.714-1.01-4.07-3.03-4.07-1.06 0-1.827.35-2.304 1.052-.476.702-.714 1.708-.714 3.018zM371.414 608.31c.51 0 .928.036 1.257.107l-.246 2.353c-.358-.086-.73-.13-1.117-.13-1.01 0-1.828.33-2.455.99-.626.658-.94 1.514-.94 2.566v6.21h-2.523v-11.882h1.976l.333 2.095h.128c.394-.71.907-1.272 1.54-1.688s1.316-.622 2.046-.622zM382.307 620.405l-.505-1.654h-.086c-.573.725-1.15 1.217-1.73 1.478-.58.262-1.324.393-2.233.393-1.167 0-2.08-.314-2.734-.944s-.983-1.52-.983-2.675c0-1.224.455-2.147 1.364-2.77s2.296-.963 4.158-1.02l2.052-.065v-.634c0-.758-.178-1.326-.532-1.7-.354-.378-.903-.565-1.648-.565-.608 0-1.192.09-1.75.27s-1.097.39-1.612.633l-.816-1.805c.645-.337 1.35-.593 2.116-.768.767-.176 1.49-.264 2.17-.264 1.51 0 2.65.33 3.42.99.772.658 1.156 1.692 1.156 3.103v8.003h-1.807zm-3.76-1.718c.917 0 1.652-.256 2.207-.768.556-.514.833-1.23.833-2.155v-1.03l-1.525.063c-1.188.043-2.054.242-2.595.596-.54.355-.81.897-.81 1.628 0 .53.156.94.472 1.23.314.29.787.435 1.417.435zM392.06 618.58c.617 0 1.232-.098 1.85-.29v1.9c-.28.122-.64.224-1.08.307-.44.082-.897.123-1.37.123-2.392 0-3.588-1.26-3.588-3.78v-6.403h-1.622v-1.117l1.74-.924.86-2.514h1.557v2.643h3.384v1.912h-3.383v6.36c0 .607.152 1.058.456 1.347.304.29.703.435 1.198.435zM396.132 605.377c0-.45.123-.8.37-1.042s.6-.365 1.06-.365c.443 0 .788.122 1.035.365s.37.59.37 1.042c0 .43-.123.77-.37 1.015-.247.248-.592.37-1.036.37-.457 0-.81-.122-1.058-.37-.247-.246-.37-.585-.37-1.015zm2.675 15.028h-2.524v-11.88h2.524v11.88zM405.123 620.405l-4.512-11.88h2.665l2.417 6.906c.415 1.16.666 2.1.752 2.815h.086c.064-.516.315-1.454.752-2.814l2.417-6.906h2.685l-4.533 11.88h-2.73zM419.378 620.62c-1.848 0-3.293-.54-4.335-1.617-1.042-1.077-1.562-2.562-1.562-4.452 0-1.94.484-3.465 1.45-4.575s2.296-1.665 3.986-1.665c1.568 0 2.808.477 3.717 1.43s1.364 2.262 1.364 3.93v1.365h-7.917c.036 1.153.348 2.04.935 2.658.587.62 1.414.93 2.48.93.703 0 1.356-.066 1.96-.2.606-.13 1.257-.352 1.95-.66v2.053c-.615.294-1.238.5-1.868.623s-1.35.18-2.16.18zm-.462-10.398c-.802 0-1.445.254-1.93.763s-.77 1.25-.863 2.224h5.393c-.015-.982-.25-1.726-.71-2.23-.457-.506-1.088-.758-1.89-.758zM445.62 612.402c0 2.593-.72 4.574-2.158 5.946-1.44 1.37-3.513 2.057-6.22 2.057h-4.394V604.7h4.855c2.5 0 4.443.673 5.833 2.02 1.39 1.346 2.085 3.24 2.085 5.682zm-2.706.086c0-3.76-1.758-5.64-5.274-5.64h-2.224v11.397h1.826c3.78 0 5.672-1.918 5.672-5.757zM453.914 620.62c-1.848 0-3.293-.54-4.335-1.617-1.043-1.077-1.563-2.562-1.563-4.452 0-1.94.483-3.465 1.45-4.575s2.295-1.665 3.985-1.665c1.568 0 2.808.477 3.717 1.43s1.363 2.262 1.363 3.93v1.365h-7.917c.036 1.153.348 2.04.935 2.658.588.62 1.415.93 2.482.93.702 0 1.355-.066 1.96-.2.605-.13 1.256-.352 1.95-.66v2.053c-.616.294-1.24.5-1.87.623s-1.348.18-2.158.18zm-.462-10.398c-.802 0-1.445.254-1.93.763s-.77 1.25-.863 2.224h5.392c-.015-.982-.25-1.726-.71-2.23-.457-.506-1.088-.758-1.89-.758zM466.192 620.62c-1.798 0-3.164-.524-4.1-1.574-.934-1.05-1.4-2.555-1.4-4.517 0-2 .488-3.535 1.466-4.61s2.39-1.61 4.238-1.61c1.253 0 2.38.232 3.384.698l-.763 2.03c-1.067-.415-1.948-.623-2.643-.623-2.056 0-3.083 1.364-3.083 4.093 0 1.332.257 2.333.77 3.003.512.67 1.262 1.005 2.25 1.005 1.124 0 2.188-.28 3.19-.838v2.202c-.45.264-.933.454-1.445.568-.51.114-1.132.172-1.863.172zM472.144 605.377c0-.45.123-.8.37-1.042s.6-.365 1.06-.365c.443 0 .788.122 1.035.365s.37.59.37 1.042c0 .43-.124.77-.37 1.015-.248.248-.593.37-1.037.37-.458 0-.812-.122-1.06-.37-.246-.246-.37-.585-.37-1.015zm2.674 15.028h-2.524v-11.88h2.524v11.88zM486.41 617.02c0 1.16-.424 2.05-1.27 2.67-.844.62-2.055.93-3.63.93-1.583 0-2.854-.24-3.813-.72v-2.18c1.396.644 2.696.966 3.9.966 1.553 0 2.33-.47 2.33-1.407 0-.302-.086-.553-.258-.753s-.456-.408-.85-.623-.94-.458-1.644-.73c-1.368-.53-2.294-1.06-2.777-1.59s-.726-1.218-.726-2.062c0-1.017.41-1.807 1.23-2.368.82-.562 1.935-.844 3.346-.844 1.396 0 2.718.283 3.964.85l-.816 1.9c-1.282-.53-2.36-.795-3.233-.795-1.332 0-1.998.38-1.998 1.14 0 .37.174.687.52.944.35.257 1.106.61 2.273 1.062.98.38 1.693.727 2.138 1.042s.773.68.988 1.09c.216.412.323.904.323 1.477zM488.987 605.377c0-.45.123-.8.37-1.042s.6-.365 1.06-.365c.443 0 .788.122 1.035.365s.37.59.37 1.042c0 .43-.123.77-.37 1.015-.247.248-.592.37-1.036.37-.458 0-.812-.122-1.06-.37-.246-.246-.37-.585-.37-1.015zm2.675 15.028h-2.524v-11.88h2.524v11.88zM505.81 614.443c0 1.94-.498 3.455-1.493 4.544s-2.38 1.633-4.157 1.633c-1.11 0-2.09-.25-2.943-.752s-1.508-1.22-1.966-2.16-.687-2.025-.687-3.265c0-1.927.494-3.43 1.482-4.512s2.38-1.62 4.18-1.62c1.718 0 3.078.552 4.08 1.66 1.003 1.105 1.505 2.597 1.505 4.473zm-8.648 0c0 2.743 1.014 4.114 3.04 4.114 2.005 0 3.008-1.37 3.008-4.114 0-2.714-1.01-4.07-3.03-4.07-1.06 0-1.827.35-2.304 1.052-.476.702-.714 1.708-.714 3.018zM519.162 620.405h-2.535V613.1c0-.917-.185-1.6-.554-2.052-.368-.45-.954-.677-1.756-.677-1.067 0-1.848.316-2.342.946s-.74 1.687-.74 3.17v5.918h-2.525v-11.88h1.977l.354 1.557h.13c.358-.564.866-1.002 1.525-1.31s1.39-.462 2.19-.462c2.85 0 4.276 1.45 4.276 4.35v7.747zM521.644 615.582v-2.148h5.52v2.148h-5.52zM536.812 620.405l-4.555-13.116h-.086c.123 1.947.184 3.773.184 5.478v7.638h-2.33V604.7h3.62l4.36 12.493h.064l4.49-12.493h3.63v15.705h-2.47v-7.767c0-.78.02-1.798.06-3.05.04-1.254.072-2.014.102-2.278h-.086l-4.716 13.095h-2.266zM557.49 620.405l-.505-1.654h-.086c-.574.725-1.15 1.217-1.73 1.478-.58.262-1.325.393-2.234.393-1.167 0-2.08-.314-2.734-.944s-.982-1.52-.982-2.675c0-1.224.455-2.147 1.364-2.77s2.295-.963 4.157-1.02l2.053-.065v-.634c0-.758-.178-1.326-.532-1.7-.353-.378-.902-.565-1.647-.565-.608 0-1.192.09-1.75.27s-1.097.39-1.612.633l-.815-1.805c.645-.337 1.35-.593 2.116-.768.768-.176 1.49-.264 2.17-.264 1.512 0 2.652.33 3.422.99.77.658 1.155 1.692 1.155 3.103v8.003h-1.807zm-3.76-1.718c.917 0 1.652-.256 2.207-.768.556-.514.833-1.23.833-2.155v-1.03l-1.525.063c-1.188.043-2.054.242-2.595.596-.54.355-.81.897-.81 1.628 0 .53.156.94.472 1.23.316.29.79.435 1.418.435zM565.257 614.132l1.43-1.783 3.587-3.825h2.91l-4.78 5.103 5.082 6.778h-2.965l-3.812-5.21-1.386 1.14v4.07h-2.503V603.69h2.502v8.153l-.13 2.288h.065zM575.247 605.377c0-.45.123-.8.37-1.042s.6-.365 1.06-.365c.443 0 .788.122 1.035.365s.37.59.37 1.042c0 .43-.123.77-.37 1.015-.247.248-.592.37-1.036.37-.458 0-.812-.122-1.06-.37-.246-.246-.37-.585-.37-1.015zm2.675 15.028h-2.524v-11.88h2.524v11.88zM591.983 620.405h-2.535V613.1c0-.917-.185-1.6-.554-2.052-.368-.45-.954-.677-1.756-.677-1.067 0-1.848.316-2.342.946s-.74 1.687-.74 3.17v5.918h-2.525v-11.88h1.978l.354 1.557h.13c.357-.564.865-1.002 1.524-1.31s1.39-.462 2.19-.462c2.85 0 4.276 1.45 4.276 4.35v7.747zM605.53 608.524v1.386l-2.03.376c.186.25.34.56.46.924s.184.752.184 1.16c0 1.225-.423 2.188-1.268 2.89s-2.01 1.053-3.49 1.053c-.38 0-.725-.028-1.032-.086-.544.337-.816.73-.816 1.182 0 .27.127.476.38.61.256.137.723.205 1.403.205h2.074c1.31 0 2.306.28 2.986.838.68.56 1.02 1.364 1.02 2.417 0 1.347-.555 2.385-1.664 3.115-1.11.73-2.714 1.096-4.812 1.096-1.618 0-2.854-.285-3.706-.858s-1.278-1.39-1.278-2.45c0-.73.23-1.344.692-1.84.462-.5 1.108-.845 1.94-1.038-.338-.144-.615-.374-.834-.693-.218-.317-.327-.652-.327-1.003 0-.444.126-.82.377-1.128s.623-.613 1.117-.914c-.616-.265-1.115-.696-1.5-1.295-.382-.597-.573-1.297-.573-2.1 0-1.288.407-2.287 1.22-2.996.813-.71 1.972-1.063 3.476-1.063.337 0 .69.024 1.058.07.37.047.646.096.833.146h4.112zm-9.336 13.73c0 .543.245.962.735 1.256.49.294 1.18.44 2.067.44 1.375 0 2.4-.197 3.072-.59s1.01-.918 1.01-1.57c0-.515-.186-.882-.555-1.1-.368-.22-1.054-.328-2.057-.328h-1.912c-.724 0-1.298.17-1.725.51-.423.34-.636.8-.636 1.38zm1.085-9.884c0 .745.19 1.317.573 1.72.384.4.934.6 1.65.6 1.46 0 2.19-.78 2.19-2.34 0-.774-.18-1.37-.543-1.79-.36-.418-.91-.628-1.648-.628-.73 0-1.284.208-1.66.623s-.563 1.02-.563 1.815zM210.148 648.585c0 1.917-.503 3.366-1.508 4.348s-2.48 1.473-4.43 1.473h-2.734v-11.422h3.086c1.823 0 3.21.477 4.16 1.43s1.426 2.343 1.426 4.17zm-.867.03c0-1.635-.414-2.865-1.245-3.69s-2.05-1.238-3.66-1.238h-2.102v10.016h1.89c3.412 0 5.118-1.696 5.118-5.087zM213.27 643.554c0-.5.163-.75.49-.75.162 0 .29.065.38.195s.137.314.137.554c0 .234-.046.42-.137.555s-.218.202-.38.202c-.327 0-.49-.253-.49-.758zm.88 10.85h-.772v-8.49h.773v8.49zM219.654 654.405l-3.28-8.492h.796l2.195 5.773c.292.74.51 1.386.656 1.938h.048c.214-.708.433-1.36.656-1.953l2.195-5.757h.796l-3.28 8.492h-.782zM229.37 654.562c-1.235 0-2.197-.38-2.888-1.14s-1.035-1.826-1.035-3.196c0-1.354.333-2.438 1-3.254s1.565-1.223 2.695-1.223c1 0 1.79.348 2.367 1.046s.866 1.646.866 2.844v.625h-6.117c.01 1.167.28 2.058.815 2.672s1.298.922 2.293.922c.484 0 .91-.035 1.277-.103s.832-.214 1.395-.438v.702c-.48.208-.922.35-1.328.426s-.854.114-1.343.114zm-.227-8.125c-.817 0-1.474.27-1.97.81s-.783 1.315-.866 2.33h5.25c0-.983-.214-1.753-.64-2.308s-1.02-.833-1.774-.833zM238.864 645.75c.36 0 .745.035 1.156.108l-.148.742c-.354-.09-.722-.133-1.102-.133-.724 0-1.317.308-1.78.922s-.696 1.39-.696 2.327v4.688h-.773v-8.492h.657l.078 1.53h.055c.35-.624.722-1.062 1.117-1.315s.875-.38 1.437-.38zM247.812 652.194c0 .76-.29 1.345-.867 1.754s-1.398.613-2.46.613c-1.137 0-2.037-.174-2.704-.522v-.836c.855.427 1.756.64 2.704.64.84 0 1.476-.14 1.91-.417s.652-.65.652-1.113c0-.427-.173-.786-.52-1.078s-.915-.578-1.707-.86c-.85-.307-1.446-.57-1.79-.792s-.603-.472-.777-.75-.262-.618-.262-1.02c0-.636.268-1.138.802-1.508s1.28-.555 2.238-.555c.917 0 1.786.17 2.61.515l-.29.703c-.833-.344-1.606-.516-2.32-.516-.692 0-1.242.114-1.648.344s-.61.547-.61.953c0 .44.158.796.474 1.06s.93.563 1.848.892c.766.276 1.323.524 1.672.746s.61.473.785.754.262.612.262.992zM254.23 654.562c-1.235 0-2.197-.38-2.888-1.14s-1.035-1.826-1.035-3.196c0-1.354.333-2.438 1-3.254s1.565-1.223 2.695-1.223c1 0 1.79.348 2.367 1.046s.866 1.646.866 2.844v.625h-6.117c.01 1.167.28 2.058.815 2.672s1.298.922 2.293.922c.484 0 .91-.035 1.277-.103s.832-.214 1.395-.438v.702c-.48.208-.922.35-1.328.426s-.853.114-1.343.114zm-.227-8.125c-.817 0-1.474.27-1.97.81s-.783 1.315-.866 2.33h5.25c0-.983-.214-1.753-.64-2.308s-1.02-.833-1.774-.833zM268.97 654.562c-1.307 0-2.26-.49-2.858-1.47h-.055l.023.657c.02.385.03.807.03 1.265v3.234h-.772v-12.337h.656l.148 1.21h.047c.582-.916 1.515-1.374 2.796-1.374 1.146 0 2.02.375 2.62 1.128s.903 1.848.903 3.285c0 1.396-.317 2.478-.95 3.246s-1.496 1.152-2.59 1.152zm-.015-.688c.87 0 1.543-.323 2.02-.97s.715-1.55.715-2.71c0-2.495-.9-3.742-2.703-3.742-.99 0-1.716.272-2.18.816s-.695 1.43-.695 2.66v.25c0 1.328.223 2.276.668 2.844s1.17.852 2.175.852zM279.09 654.562c-1.233 0-2.195-.38-2.886-1.14s-1.035-1.826-1.035-3.196c0-1.354.332-2.438 1-3.254s1.564-1.223 2.694-1.223c1 0 1.79.348 2.367 1.046s.868 1.646.868 2.844v.625h-6.117c.012 1.167.283 2.058.817 2.672s1.298.922 2.293.922c.484 0 .91-.035 1.277-.103s.832-.214 1.395-.438v.702c-.48.208-.922.35-1.328.426s-.854.114-1.343.114zm-.226-8.125c-.817 0-1.474.27-1.97.81s-.783 1.315-.866 2.33h5.25c0-.983-.214-1.753-.64-2.308s-1.02-.833-1.774-.833zM288.586 645.75c.36 0 .745.035 1.156.108l-.148.742c-.354-.09-.722-.133-1.102-.133-.724 0-1.317.308-1.78.922s-.696 1.39-.696 2.327v4.688h-.773v-8.492h.656l.077 1.53h.055c.35-.624.722-1.062 1.117-1.315s.873-.38 1.436-.38zM297.534 652.194c0 .76-.29 1.345-.867 1.754s-1.398.613-2.46.613c-1.137 0-2.037-.174-2.704-.522v-.836c.854.427 1.755.64 2.703.64.84 0 1.476-.14 1.91-.417s.652-.65.652-1.113c0-.427-.173-.786-.52-1.078s-.915-.578-1.707-.86c-.848-.307-1.444-.57-1.788-.792s-.603-.472-.777-.75-.262-.618-.262-1.02c0-.636.267-1.138.8-1.508s1.28-.555 2.24-.555c.916 0 1.785.17 2.608.515l-.288.703c-.833-.344-1.606-.516-2.32-.516-.692 0-1.242.114-1.648.344s-.61.547-.61.953c0 .44.158.796.474 1.06s.93.563 1.848.892c.766.276 1.323.524 1.672.746s.61.473.785.754.26.612.26.992zM304.154 654.562c-1.308 0-2.26-.49-2.86-1.47h-.054l.023.657c.02.385.03.807.03 1.265v3.234h-.772v-12.337h.657l.148 1.21h.047c.583-.916 1.516-1.374 2.797-1.374 1.145 0 2.02.375 2.62 1.128s.902 1.848.902 3.285c0 1.396-.316 2.478-.95 3.246s-1.494 1.152-2.588 1.152zm-.015-.688c.87 0 1.542-.323 2.02-.97s.714-1.55.714-2.71c0-2.495-.9-3.742-2.703-3.742-.988 0-1.715.272-2.18.816s-.694 1.43-.694 2.66v.25c0 1.328.223 2.276.668 2.844s1.17.852 2.175.852zM314.275 654.562c-1.234 0-2.196-.38-2.887-1.14s-1.035-1.826-1.035-3.196c0-1.354.333-2.438 1-3.254s1.565-1.223 2.695-1.223c1 0 1.79.348 2.367 1.046s.867 1.646.867 2.844v.625h-6.117c.01 1.167.282 2.058.816 2.672s1.3.922 2.294.922c.484 0 .91-.035 1.277-.103s.833-.214 1.396-.438v.702c-.48.208-.922.35-1.328.426s-.853.114-1.343.114zm-.226-8.125c-.818 0-1.475.27-1.97.81s-.784 1.315-.867 2.33h5.25c0-.983-.214-1.753-.64-2.308s-1.02-.833-1.774-.833zM323.817 654.562c-1.214 0-2.164-.383-2.852-1.148s-1.03-1.833-1.03-3.203c0-1.405.355-2.5 1.07-3.284s1.69-1.176 2.93-1.176c.733 0 1.437.128 2.108.383l-.21.688c-.735-.244-1.373-.366-1.915-.366-1.042 0-1.83.32-2.367.965s-.804 1.568-.804 2.776c0 1.146.27 2.043.805 2.69s1.287.974 2.25.974c.772 0 1.488-.138 2.15-.414v.72c-.542.263-1.253.396-2.133.396zM331.07 653.874c.49 0 .917-.042 1.28-.125v.624c-.374.125-.807.188-1.296.188-.75 0-1.304-.2-1.66-.602s-.535-1.03-.535-1.89v-5.485h-1.26v-.453l1.26-.352.39-1.922h.398v2.055h2.492v.672h-2.492v5.375c0 .65.114 1.133.344 1.445s.59.47 1.078.47zM334.878 643.554c0-.5.164-.75.492-.75.16 0 .288.065.38.195s.136.314.136.554c0 .234-.046.42-.137.555s-.22.202-.38.202c-.328 0-.492-.253-.492-.758zm.883 10.85h-.772v-8.49h.773v8.49zM341.264 654.405l-3.28-8.492h.796l2.195 5.773c.292.74.51 1.386.656 1.938h.048c.214-.708.433-1.36.656-1.953l2.195-5.757h.796l-3.28 8.492h-.782zM350.98 654.562c-1.235 0-2.197-.38-2.888-1.14s-1.035-1.826-1.035-3.196c0-1.354.333-2.438 1-3.254s1.565-1.223 2.695-1.223c1 0 1.79.348 2.367 1.046s.866 1.646.866 2.844v.625h-6.117c.01 1.167.28 2.058.815 2.672s1.298.922 2.293.922c.484 0 .91-.035 1.277-.103s.832-.214 1.395-.438v.702c-.48.208-.922.35-1.328.426s-.854.114-1.343.114zm-.228-8.125c-.817 0-1.474.27-1.97.81s-.783 1.315-.866 2.33h5.25c0-.983-.214-1.753-.64-2.308s-1.02-.833-1.774-.833zM362.396 652.194c0 .76-.29 1.345-.867 1.754s-1.4.613-2.462.613c-1.136 0-2.036-.174-2.703-.522v-.836c.854.427 1.755.64 2.703.64.84 0 1.476-.14 1.91-.417s.652-.65.652-1.113c0-.427-.173-.786-.52-1.078s-.915-.578-1.707-.86c-.85-.307-1.445-.57-1.79-.792s-.602-.472-.776-.75-.262-.618-.262-1.02c0-.636.267-1.138.8-1.508s1.28-.555 2.24-.555c.916 0 1.785.17 2.608.515l-.29.703c-.832-.344-1.605-.516-2.32-.516-.69 0-1.24.114-1.647.344s-.61.547-.61.953c0 .44.158.796.474 1.06s.93.563 1.848.892c.766.276 1.323.524 1.672.746s.61.473.785.754.26.612.26.992zM373.73 654.562c-1.215 0-2.165-.383-2.853-1.148s-1.03-1.833-1.03-3.203c0-1.405.355-2.5 1.07-3.284s1.69-1.176 2.93-1.176c.733 0 1.437.128 2.108.383l-.21.688c-.735-.244-1.373-.366-1.915-.366-1.042 0-1.83.32-2.367.965s-.805 1.568-.805 2.776c0 1.146.27 2.043.805 2.69s1.286.974 2.25.974c.77 0 1.487-.138 2.148-.414v.72c-.54.263-1.25.396-2.13.396zM385.764 650.147c0 1.386-.336 2.468-1.008 3.246s-1.6 1.168-2.78 1.168c-.746 0-1.402-.18-1.97-.538s-1.003-.875-1.305-1.547-.452-1.448-.452-2.328c0-1.386.336-2.465 1.008-3.238s1.594-1.16 2.766-1.16c1.167 0 2.082.39 2.746 1.175s.996 1.858.996 3.222zm-6.703 0c0 1.167.258 2.077.77 2.73s1.24.98 2.177.98 1.663-.327 2.176-.98.77-1.563.77-2.73c0-1.172-.26-2.08-.777-2.727s-1.246-.97-2.184-.97-1.66.322-2.168.966-.763 1.555-.763 2.73zM399.525 654.405v-5.57c0-.828-.16-1.433-.484-1.812s-.816-.57-1.483-.57c-.87 0-1.513.24-1.93.72s-.625 1.23-.625 2.257v4.977h-.79v-5.805c0-1.433-.655-2.148-1.968-2.148-.89 0-1.54.26-1.945.777s-.61 1.35-.61 2.49v4.687h-.773v-8.492h.64l.165 1.164h.047c.233-.423.566-.75 1-.98s.908-.35 1.43-.35c1.338 0 2.197.504 2.577 1.51h.03c.277-.485.648-.857 1.114-1.118s.997-.39 1.59-.39c.928 0 1.623.246 2.087.74s.695 1.282.695 2.36v5.555h-.767zM407.27 654.562c-1.233 0-2.195-.38-2.886-1.14s-1.035-1.826-1.035-3.196c0-1.354.332-2.438 1-3.254s1.564-1.223 2.694-1.223c1 0 1.79.348 2.367 1.046s.868 1.646.868 2.844v.625h-6.117c.012 1.167.283 2.058.817 2.672s1.298.922 2.293.922c.484 0 .91-.035 1.277-.103s.832-.214 1.395-.438v.702c-.48.208-.922.35-1.328.426s-.854.114-1.343.114zm-.226-8.125c-.817 0-1.474.27-1.97.81s-.783 1.315-.866 2.33h5.25c0-.983-.214-1.753-.64-2.308s-1.02-.833-1.774-.833zM420.62 653.874c.49 0 .917-.042 1.28-.125v.624c-.374.125-.807.188-1.296.188-.75 0-1.304-.2-1.66-.602s-.535-1.03-.535-1.89v-5.485h-1.26v-.453l1.26-.352.39-1.922h.398v2.055h2.492v.672h-2.492v5.375c0 .65.114 1.133.344 1.445s.59.47 1.078.47zM431.56 650.147c0 1.386-.335 2.468-1.007 3.246s-1.6 1.168-2.78 1.168c-.746 0-1.402-.18-1.97-.538s-1.003-.875-1.305-1.547-.453-1.448-.453-2.328c0-1.386.336-2.465 1.008-3.238s1.594-1.16 2.766-1.16c1.166 0 2.08.39 2.745 1.175s.996 1.858.996 3.222zm-6.703 0c0 1.167.257 2.077.77 2.73s1.238.98 2.176.98 1.663-.327 2.176-.98.77-1.563.77-2.73c0-1.172-.26-2.08-.778-2.727s-1.246-.97-2.184-.97-1.66.322-2.168.966-.763 1.555-.763 2.73zM441.338 645.913v.54l-1.758.108c.47.584.703 1.225.703 1.923 0 .817-.272 1.48-.816 1.988s-1.274.763-2.19.763c-.387 0-.657-.016-.813-.047-.308.16-.542.352-.703.57s-.24.45-.24.695c0 .272.102.47.308.595s.55.188 1.035.188h1.484c.922 0 1.628.187 2.117.56s.734.922.734 1.65c0 .897-.363 1.588-1.09 2.075s-1.762.73-3.105.73c-1.067 0-1.895-.206-2.48-.617s-.88-.983-.88-1.718c0-.583.182-1.067.544-1.453s.853-.65 1.473-.79c-.255-.11-.46-.265-.613-.465s-.23-.43-.23-.69c0-.568.362-1.068 1.086-1.5-.495-.204-.88-.523-1.156-.958s-.414-.934-.414-1.496c0-.848.27-1.53.81-2.042s1.266-.77 2.183-.77c.558 0 .99.055 1.297.164h2.715zm-6.875 9.93c0 1.167.867 1.75 2.602 1.75 2.23 0 3.344-.71 3.344-2.133 0-.51-.176-.88-.524-1.11s-.914-.343-1.695-.343h-1.39c-1.56 0-2.337.612-2.337 1.836zm.648-7.28c0 .655.2 1.164.6 1.526s.93.542 1.597.542c.708 0 1.25-.18 1.63-.54s.565-.88.565-1.56c0-.725-.194-1.268-.582-1.63s-.93-.543-1.63-.543c-.676 0-1.21.193-1.597.58s-.582.93-.582 1.622zM447.31 654.562c-1.234 0-2.196-.38-2.887-1.14s-1.035-1.826-1.035-3.196c0-1.354.333-2.438 1-3.254s1.565-1.223 2.695-1.223c1 0 1.79.348 2.367 1.046s.867 1.646.867 2.844v.625H444.2c.01 1.167.282 2.058.816 2.672s1.298.922 2.293.922c.483 0 .91-.035 1.276-.103s.832-.214 1.395-.438v.702c-.478.208-.92.35-1.327.426s-.854.114-1.343.114zm-.227-8.125c-.817 0-1.474.27-1.97.81s-.783 1.315-.866 2.33h5.25c0-.983-.214-1.753-.64-2.308s-1.02-.833-1.774-.833zM455.703 653.874c.49 0 .917-.042 1.28-.125v.624c-.374.125-.807.188-1.296.188-.75 0-1.304-.2-1.66-.602s-.535-1.03-.535-1.89v-5.485h-1.258v-.453l1.258-.352.39-1.922h.4v2.055h2.49v.672h-2.49v5.375c0 .65.113 1.133.343 1.445s.59.47 1.078.47zM465.542 654.405v-5.508c0-.854-.18-1.476-.54-1.863s-.916-.582-1.67-.582c-1.017 0-1.76.257-2.23.77s-.708 1.345-.708 2.496v4.688h-.773V642.25h.774v3.867l-.04 1.086h.056c.317-.51.72-.88 1.203-1.11s1.086-.343 1.805-.343c1.927 0 2.89 1.034 2.89 3.102v5.555h-.766zM473.287 654.562c-1.234 0-2.196-.38-2.887-1.14s-1.035-1.826-1.035-3.196c0-1.354.333-2.438 1-3.254s1.565-1.223 2.695-1.223c1 0 1.79.348 2.367 1.046s.867 1.646.867 2.844v.625h-6.117c.01 1.167.282 2.058.816 2.672s1.298.922 2.293.922c.484 0 .91-.035 1.277-.103s.832-.214 1.395-.438v.702c-.48.208-.922.35-1.328.426s-.854.114-1.343.114zm-.226-8.125c-.816 0-1.473.27-1.968.81s-.784 1.315-.867 2.33h5.25c0-.983-.214-1.753-.64-2.308s-1.02-.833-1.774-.833zM482.783 645.75c.36 0 .745.035 1.156.108l-.15.742c-.353-.09-.72-.133-1.1-.133-.725 0-1.318.308-1.782.922s-.695 1.39-.695 2.327v4.688h-.773v-8.492h.656l.078 1.53h.055c.348-.624.72-1.062 1.116-1.315s.875-.38 1.437-.38zM493.664 653.874c.49 0 .917-.042 1.28-.125v.624c-.374.125-.807.188-1.296.188-.75 0-1.304-.2-1.66-.602s-.535-1.03-.535-1.89v-5.485h-1.258v-.453l1.258-.352.39-1.922h.4v2.055h2.49v.672h-2.49v5.375c0 .65.113 1.133.343 1.445s.59.47 1.078.47zM504.604 650.147c0 1.386-.336 2.468-1.008 3.246s-1.6 1.168-2.78 1.168c-.746 0-1.402-.18-1.97-.538s-1.003-.875-1.305-1.547-.452-1.448-.452-2.328c0-1.386.336-2.465 1.008-3.238s1.594-1.16 2.766-1.16c1.167 0 2.082.39 2.746 1.175s.996 1.858.996 3.222zm-6.703 0c0 1.167.258 2.077.77 2.73s1.24.98 2.177.98 1.663-.327 2.176-.98.77-1.563.77-2.73c0-1.172-.26-2.08-.777-2.727s-1.246-.97-2.184-.97-1.66.322-2.168.966-.763 1.555-.763 2.73zM523.322 654.405v-5.57c0-.828-.16-1.433-.484-1.812s-.817-.57-1.484-.57c-.87 0-1.513.24-1.93.72s-.625 1.23-.625 2.257v4.977h-.79v-5.805c0-1.433-.656-2.148-1.97-2.148-.89 0-1.538.26-1.944.777s-.61 1.35-.61 2.49v4.687h-.772v-8.492h.64l.165 1.164h.046c.234-.423.567-.75 1-.98s.91-.35 1.43-.35c1.34 0 2.198.504 2.578 1.51h.03c.277-.485.648-.857 1.114-1.118s.996-.39 1.59-.39c.927 0 1.622.246 2.086.74s.695 1.282.695 2.36v5.555h-.768zM532.794 654.405l-.195-1.344h-.063c-.427.548-.866.935-1.316 1.16s-.982.34-1.597.34c-.833 0-1.48-.213-1.945-.64s-.695-1.02-.695-1.773c0-.828.345-1.472 1.035-1.93s1.688-.7 2.996-.727l1.617-.047v-.562c0-.807-.163-1.416-.49-1.827s-.857-.617-1.587-.617c-.786 0-1.602.22-2.445.656l-.29-.672c.934-.438 1.855-.656 2.767-.656.933 0 1.63.242 2.09.727s.69 1.24.69 2.267v5.648h-.57zm-3.125-.547c.905 0 1.62-.26 2.144-.777s.785-1.237.785-2.16v-.835l-1.485.062c-1.192.058-2.043.243-2.55.56s-.763.805-.763 1.472c0 .53.163.943.488 1.237s.785.44 1.38.44zM537.672 650.68l4.336-4.767h.938l-3.344 3.625 3.633 4.867h-.93l-3.227-4.29-1.39 1.267v3.023h-.774V642.25h.773v6.093l-.055 2.336h.04zM548.886 654.562c-1.234 0-2.196-.38-2.887-1.14s-1.036-1.826-1.036-3.196c0-1.354.333-2.438 1-3.254s1.565-1.223 2.695-1.223c1 0 1.788.348 2.366 1.046s.867 1.646.867 2.844v.625h-6.117c.01 1.167.282 2.058.816 2.672s1.298.922 2.293.922c.484 0 .91-.035 1.277-.103s.832-.214 1.395-.438v.702c-.48.208-.922.35-1.328.426s-.855.114-1.344.114zm-.227-8.125c-.818 0-1.475.27-1.97.81s-.784 1.315-.867 2.33h5.25c0-.983-.214-1.753-.64-2.308s-1.02-.833-1.774-.833zM563.104 645.75c.614 0 1.146.11 1.594.335s.85.606 1.203 1.148h.048c-.03-.656-.047-1.3-.047-1.93v-3.055h.767v12.156h-.508l-.196-1.297h-.064c-.646.97-1.573 1.453-2.78 1.453-1.173 0-2.068-.364-2.69-1.094s-.93-1.792-.93-3.188c0-1.47.31-2.59.923-3.367s1.51-1.16 2.68-1.16zm0 .702c-.927 0-1.624.325-2.09.977s-.7 1.596-.7 2.835c0 2.406.936 3.61 2.806 3.61.958 0 1.66-.28 2.11-.837s.67-1.477.67-2.758v-.133c0-1.312-.22-2.257-.66-2.832s-1.152-.863-2.136-.863zM573.747 654.562c-1.234 0-2.196-.38-2.887-1.14s-1.035-1.826-1.035-3.196c0-1.354.333-2.438 1-3.254s1.565-1.223 2.695-1.223c1 0 1.79.348 2.367 1.046s.867 1.646.867 2.844v.625h-6.117c.01 1.167.282 2.058.816 2.672s1.298.922 2.293.922c.484 0 .91-.035 1.277-.103s.832-.214 1.395-.438v.702c-.48.208-.922.35-1.328.426s-.854.114-1.343.114zm-.226-8.125c-.816 0-1.473.27-1.968.81s-.784 1.315-.867 2.33h5.25c0-.983-.214-1.753-.64-2.308s-1.02-.833-1.774-.833zM583.29 654.562c-1.215 0-2.165-.383-2.853-1.148s-1.03-1.833-1.03-3.203c0-1.405.355-2.5 1.07-3.284s1.69-1.176 2.93-1.176c.733 0 1.437.128 2.108.383l-.21.688c-.735-.244-1.373-.366-1.915-.366-1.042 0-1.83.32-2.367.965s-.805 1.568-.805 2.776c0 1.146.27 2.043.805 2.69s1.286.974 2.25.974c.77 0 1.487-.138 2.148-.414v.72c-.54.263-1.25.396-2.13.396zM588.19 643.554c0-.5.164-.75.492-.75.16 0 .288.065.38.195s.136.314.136.554c0 .234-.046.42-.137.555s-.217.202-.378.202c-.328 0-.492-.253-.492-.758zm.883 10.85h-.773v-8.49h.773v8.49zM597.982 652.194c0 .76-.29 1.345-.867 1.754s-1.398.613-2.46.613c-1.137 0-2.037-.174-2.704-.522v-.836c.855.427 1.756.64 2.704.64.84 0 1.476-.14 1.91-.417s.652-.65.652-1.113c0-.427-.173-.786-.52-1.078s-.915-.578-1.707-.86c-.85-.307-1.446-.57-1.79-.792s-.603-.472-.777-.75-.262-.618-.262-1.02c0-.636.268-1.138.802-1.508s1.28-.555 2.238-.555c.917 0 1.786.17 2.61.515l-.29.703c-.833-.344-1.606-.516-2.32-.516-.692 0-1.242.114-1.648.344s-.61.547-.61.953c0 .44.158.796.474 1.06s.93.563 1.848.892c.766.276 1.323.524 1.672.746s.61.473.785.754.262.612.262.992zM600.86 643.554c0-.5.165-.75.493-.75.16 0 .288.065.38.195s.136.314.136.554c0 .234-.047.42-.138.555s-.218.202-.38.202c-.327 0-.49-.253-.49-.758zm.884 10.85h-.773v-8.49h.774v8.49zM612.41 650.147c0 1.386-.335 2.468-1.007 3.246s-1.6 1.168-2.78 1.168c-.746 0-1.402-.18-1.97-.538s-1.003-.875-1.305-1.547-.453-1.448-.453-2.328c0-1.386.336-2.465 1.008-3.238s1.594-1.16 2.766-1.16c1.166 0 2.08.39 2.745 1.175s.996 1.858.996 3.222zm-6.702 0c0 1.167.257 2.077.77 2.73s1.238.98 2.176.98 1.663-.327 2.176-.98.77-1.563.77-2.73c0-1.172-.26-2.08-.777-2.727s-1.246-.97-2.184-.97-1.66.322-2.17.966-.762 1.555-.762 2.73zM621.484 654.405v-5.508c0-.854-.18-1.476-.54-1.863s-.916-.582-1.67-.582c-1.017 0-1.76.257-2.23.77s-.708 1.345-.708 2.496v4.688h-.773v-8.492h.656l.147 1.164h.047c.552-.886 1.534-1.328 2.945-1.328 1.926 0 2.89 1.034 2.89 3.102v5.555h-.766zM631.065 652.194c0 .76-.29 1.345-.867 1.754s-1.398.613-2.46.613c-1.137 0-2.037-.174-2.704-.522v-.836c.854.427 1.755.64 2.703.64.84 0 1.476-.14 1.91-.417s.652-.65.652-1.113c0-.427-.174-.786-.52-1.078s-.916-.578-1.708-.86c-.85-.307-1.445-.57-1.79-.792s-.602-.472-.776-.75-.262-.618-.262-1.02c0-.636.267-1.138.8-1.508s1.28-.555 2.24-.555c.916 0 1.785.17 2.608.515l-.29.703c-.832-.344-1.605-.516-2.32-.516-.69 0-1.24.114-1.647.344s-.61.547-.61.953c0 .44.158.796.474 1.06s.93.563 1.847.892c.766.276 1.323.524 1.672.746s.61.473.784.754.26.612.26.992zM646.033 650.147c0 1.386-.336 2.468-1.008 3.246s-1.6 1.168-2.78 1.168c-.746 0-1.402-.18-1.97-.538s-1.003-.875-1.305-1.547-.453-1.448-.453-2.328c0-1.386.336-2.465 1.008-3.238s1.594-1.16 2.766-1.16c1.168 0 2.083.39 2.747 1.175s.996 1.858.996 3.222zm-6.703 0c0 1.167.257 2.077.77 2.73s1.238.98 2.176.98 1.663-.327 2.176-.98.77-1.563.77-2.73c0-1.172-.26-2.08-.777-2.727s-1.246-.97-2.184-.97-1.66.322-2.167.966-.763 1.555-.763 2.73zM655.106 654.405v-5.508c0-.854-.18-1.476-.54-1.863s-.916-.582-1.67-.582c-1.017 0-1.76.257-2.23.77s-.708 1.345-.708 2.496v4.688h-.773v-8.492h.656l.15 1.164h.046c.552-.886 1.534-1.328 2.945-1.328 1.928 0 2.892 1.034 2.892 3.102v5.555h-.766zM660.195 654.405h-.773V642.25h.773v12.155zM663.73 643.554c0-.5.163-.75.49-.75.162 0 .29.065.38.195s.137.314.137.554c0 .234-.046.42-.137.555s-.218.202-.38.202c-.326 0-.49-.253-.49-.758zm.882 10.85h-.773v-8.49h.772v8.49zM674.178 654.405v-5.508c0-.854-.18-1.476-.54-1.863s-.916-.582-1.67-.582c-1.017 0-1.76.257-2.23.77s-.708 1.345-.708 2.496v4.688h-.773v-8.492h.656l.148 1.164h.048c.552-.886 1.534-1.328 2.945-1.328 1.927 0 2.89 1.034 2.89 3.102v5.555h-.765zM681.924 654.562c-1.234 0-2.196-.38-2.887-1.14s-1.035-1.826-1.035-3.196c0-1.354.333-2.438 1-3.254s1.565-1.223 2.695-1.223c1 0 1.79.348 2.367 1.046s.867 1.646.867 2.844v.625h-6.116c.01 1.167.282 2.058.816 2.672s1.298.922 2.293.922c.484 0 .91-.035 1.277-.103s.832-.214 1.395-.438v.702c-.48.208-.922.35-1.328.426s-.854.114-1.343.114zm-.227-8.125c-.817 0-1.474.27-1.97.81s-.783 1.315-.866 2.33h5.25c0-.983-.213-1.753-.64-2.308s-1.018-.833-1.773-.833zM688.958 652.546l.094.164c-.39 1.38-.844 2.633-1.36 3.758h-.507c.4-1.433.688-2.74.86-3.922h.913zM242.818 679.562c-1.234 0-2.196-.38-2.887-1.14s-1.034-1.826-1.034-3.196c0-1.354.333-2.438 1-3.254s1.565-1.223 2.695-1.223c1 0 1.79.348 2.368 1.046s.867 1.646.867 2.844v.625h-6.117c.01 1.167.282 2.058.816 2.672s1.298.922 2.293.922c.484 0 .91-.035 1.277-.103s.832-.214 1.395-.438v.702c-.48.208-.923.35-1.33.426s-.852.114-1.342.114zm-.226-8.125c-.817 0-1.474.27-1.97.81s-.783 1.315-.866 2.33h5.25c0-.983-.214-1.753-.64-2.308s-1.02-.833-1.774-.833zM254.892 679.405v-5.508c0-.854-.18-1.476-.54-1.863s-.916-.582-1.67-.582c-1.017 0-1.76.257-2.23.77s-.708 1.345-.708 2.496v4.688h-.773v-8.492h.657l.148 1.164h.047c.552-.886 1.534-1.328 2.945-1.328 1.927 0 2.89 1.034 2.89 3.102v5.555h-.765zM264.363 679.405l-.195-1.344h-.062c-.427.548-.866.935-1.316 1.16s-.983.34-1.598.34c-.833 0-1.48-.213-1.945-.64s-.695-1.02-.695-1.773c0-.828.345-1.472 1.035-1.93s1.688-.7 2.996-.727l1.617-.047v-.562c0-.807-.164-1.416-.492-1.827s-.856-.617-1.586-.617c-.786 0-1.602.22-2.445.656l-.29-.672c.934-.438 1.855-.656 2.767-.656.933 0 1.63.242 2.09.727s.69 1.24.69 2.267v5.648h-.57zm-3.125-.547c.906 0 1.62-.26 2.145-.777s.785-1.237.785-2.16v-.835l-1.484.062c-1.192.058-2.043.243-2.55.56s-.763.805-.763 1.472c0 .53.164.943.49 1.237s.785.44 1.378.44zM272.07 670.75c1.188 0 2.082.373 2.684 1.12s.902 1.84.902 3.277c0 1.41-.316 2.5-.95 3.266s-1.52 1.148-2.667 1.148c-.605 0-1.15-.124-1.634-.374s-.867-.604-1.148-1.062h-.07l-.22 1.28h-.483V667.25h.773v3.054c0 .458-.01.88-.03 1.266l-.024.664h.055c.322-.51.71-.886 1.167-1.125s1.003-.36 1.643-.36zm-.015.702c-1 0-1.716.286-2.148.86s-.648 1.518-.648 2.835v.133c0 1.28.225 2.2.675 2.758s1.152.836 2.105.836c.927 0 1.625-.324 2.094-.973s.703-1.57.703-2.77c0-2.45-.928-3.678-2.782-3.678zM279.58 679.405h-.772V667.25h.773v12.155zM283.115 668.554c0-.5.164-.75.492-.75.16 0 .288.065.38.195s.136.314.136.554c0 .234-.046.42-.137.555s-.218.202-.38.202c-.327 0-.49-.253-.49-.758zm.883 10.85h-.773v-8.49h.773v8.49zM293.563 679.405v-5.508c0-.854-.18-1.476-.54-1.863s-.916-.582-1.67-.582c-1.017 0-1.76.257-2.23.77s-.708 1.345-.708 2.496v4.688h-.773v-8.492h.656l.148 1.164h.047c.552-.886 1.534-1.328 2.945-1.328 1.927 0 2.89 1.034 2.89 3.102v5.555h-.765zM304.504 670.913v.54l-1.758.108c.47.584.703 1.225.703 1.923 0 .817-.273 1.48-.817 1.988s-1.274.763-2.19.763c-.387 0-.657-.016-.813-.047-.308.16-.542.352-.703.57s-.242.45-.242.695c0 .272.103.47.31.595s.55.188 1.034.188h1.483c.922 0 1.628.187 2.117.56s.734.922.734 1.65c0 .897-.363 1.588-1.09 2.075s-1.762.73-3.105.73c-1.068 0-1.896-.206-2.48-.617s-.88-.983-.88-1.718c0-.583.18-1.067.543-1.453s.853-.65 1.473-.79c-.255-.11-.46-.265-.613-.465s-.23-.43-.23-.69c0-.568.362-1.068 1.086-1.5-.496-.204-.88-.523-1.157-.958s-.414-.934-.414-1.496c0-.848.27-1.53.808-2.042s1.267-.77 2.184-.77c.558 0 .99.055 1.297.164h2.714zm-6.875 9.93c0 1.167.866 1.75 2.6 1.75 2.23 0 3.345-.71 3.345-2.133 0-.51-.175-.88-.523-1.11s-.914-.343-1.695-.343h-1.39c-1.56 0-2.338.612-2.338 1.836zm.647-7.28c0 .655.2 1.164.598 1.526s.93.542 1.598.542c.708 0 1.25-.18 1.63-.54s.565-.88.565-1.56c0-.725-.194-1.268-.582-1.63s-.93-.543-1.63-.543c-.676 0-1.21.193-1.597.58s-.583.93-.583 1.622zM317.27 677.194c0 .76-.29 1.345-.868 1.754s-1.398.613-2.46.613c-1.137 0-2.037-.174-2.704-.522v-.836c.854.427 1.755.64 2.703.64.84 0 1.477-.14 1.91-.417s.653-.65.653-1.113c0-.427-.173-.786-.52-1.078s-.915-.578-1.707-.86c-.85-.307-1.445-.57-1.79-.792s-.602-.472-.776-.75-.262-.618-.262-1.02c0-.636.267-1.138.8-1.508s1.28-.555 2.24-.555c.916 0 1.785.17 2.608.515l-.29.703c-.832-.344-1.605-.516-2.32-.516-.69 0-1.24.114-1.647.344s-.61.547-.61.953c0 .44.157.796.473 1.06s.93.563 1.848.892c.767.276 1.324.524 1.673.746s.61.473.785.754.26.612.26.992zM326.178 679.405v-5.508c0-.854-.18-1.476-.54-1.863s-.916-.582-1.67-.582c-1.017 0-1.76.257-2.23.77s-.708 1.345-.708 2.496v4.688h-.773V667.25h.773v3.867l-.04 1.086h.056c.317-.51.72-.88 1.203-1.11s1.085-.343 1.804-.343c1.927 0 2.89 1.034 2.89 3.102v5.555h-.766zM335.65 679.405l-.196-1.344h-.062c-.427.548-.866.935-1.316 1.16s-.983.34-1.598.34c-.833 0-1.48-.213-1.945-.64s-.695-1.02-.695-1.773c0-.828.345-1.472 1.035-1.93s1.688-.7 2.996-.727l1.616-.047v-.562c0-.807-.164-1.416-.492-1.827s-.856-.617-1.586-.617c-.786 0-1.602.22-2.445.656l-.29-.672c.934-.438 1.855-.656 2.767-.656.933 0 1.63.242 2.09.727s.69 1.24.69 2.267v5.648h-.57zm-3.126-.547c.906 0 1.62-.26 2.145-.777s.784-1.237.784-2.16v-.835l-1.484.062c-1.192.058-2.043.243-2.55.56s-.763.805-.763 1.472c0 .53.163.943.488 1.237s.786.44 1.38.44zM343.113 670.75c.36 0 .745.035 1.156.108l-.15.742c-.353-.09-.72-.133-1.1-.133-.725 0-1.318.308-1.782.922s-.695 1.39-.695 2.327v4.688h-.773v-8.492h.656l.078 1.53h.055c.348-.624.72-1.062 1.116-1.315s.875-.38 1.437-.38zM350.227 679.562c-1.234 0-2.196-.38-2.887-1.14s-1.035-1.826-1.035-3.196c0-1.354.333-2.438 1-3.254s1.565-1.223 2.695-1.223c1 0 1.79.348 2.367 1.046s.867 1.646.867 2.844v.625h-6.117c.01 1.167.282 2.058.816 2.672s1.298.922 2.293.922c.484 0 .91-.035 1.277-.103s.832-.214 1.395-.438v.702c-.48.208-.922.35-1.328.426s-.854.114-1.343.114zm-.227-8.125c-.817 0-1.474.27-1.97.81s-.783 1.315-.866 2.33h5.25c0-.983-.214-1.753-.64-2.308s-1.02-.833-1.774-.833zM359.487 670.75c.614 0 1.146.11 1.594.335s.85.606 1.204 1.148h.047c-.03-.656-.046-1.3-.046-1.93v-3.055h.766v12.156h-.508l-.195-1.297h-.062c-.646.97-1.573 1.453-2.78 1.453-1.173 0-2.068-.364-2.69-1.094s-.93-1.792-.93-3.188c0-1.47.31-2.59.923-3.367s1.507-1.16 2.68-1.16zm0 .702c-.927 0-1.624.325-2.09.977s-.7 1.596-.7 2.835c0 2.406.936 3.61 2.806 3.61.958 0 1.66-.28 2.11-.837s.67-1.477.67-2.758v-.133c0-1.312-.22-2.257-.66-2.832s-1.15-.863-2.136-.863zM372.33 670.913v5.5c0 .854.18 1.476.538 1.863s.917.582 1.672.582c1.01 0 1.754-.255 2.23-.766s.715-1.34.715-2.492v-4.688h.766v8.492h-.655l-.14-1.172h-.048c-.552.886-1.534 1.328-2.945 1.328-1.933 0-2.898-1.034-2.898-3.102v-5.547h.765zM387.816 679.405v-5.508c0-.854-.18-1.476-.54-1.863s-.916-.582-1.67-.582c-1.017 0-1.76.257-2.23.77s-.708 1.345-.708 2.496v4.688h-.773v-8.492h.656l.15 1.164h.046c.552-.886 1.534-1.328 2.945-1.328 1.928 0 2.892 1.034 2.892 3.102v5.555h-.766zM395.242 670.75c.614 0 1.146.11 1.594.335s.85.606 1.203 1.148h.046c-.03-.656-.047-1.3-.047-1.93v-3.055h.765v12.156h-.508l-.195-1.297h-.062c-.646.97-1.573 1.453-2.78 1.453-1.173 0-2.068-.364-2.69-1.094s-.93-1.792-.93-3.188c0-1.47.31-2.59.923-3.367s1.507-1.16 2.68-1.16zm0 .702c-.927 0-1.624.325-2.09.977s-.7 1.596-.7 2.835c0 2.406.936 3.61 2.806 3.61.958 0 1.66-.28 2.11-.837s.67-1.477.67-2.758v-.133c0-1.312-.22-2.257-.66-2.832s-1.15-.863-2.136-.863zM405.886 679.562c-1.234 0-2.196-.38-2.887-1.14s-1.036-1.826-1.036-3.196c0-1.354.333-2.438 1-3.254s1.565-1.223 2.695-1.223c1 0 1.788.348 2.366 1.046s.867 1.646.867 2.844v.625h-6.117c.01 1.167.282 2.058.816 2.672s1.298.922 2.293.922c.484 0 .91-.035 1.277-.103s.832-.214 1.395-.438v.702c-.48.208-.922.35-1.328.426s-.855.114-1.344.114zm-.227-8.125c-.818 0-1.475.27-1.97.81s-.784 1.315-.867 2.33h5.25c0-.983-.214-1.753-.64-2.308s-1.02-.833-1.774-.833zM415.38 670.75c.36 0 .746.035 1.157.108l-.148.742c-.355-.09-.723-.133-1.103-.133-.724 0-1.317.308-1.78.922s-.696 1.39-.696 2.327v4.688h-.772v-8.492h.656l.078 1.53h.055c.35-.624.722-1.062 1.117-1.315s.874-.38 1.437-.38zM424.33 677.194c0 .76-.29 1.345-.868 1.754s-1.398.613-2.46.613c-1.137 0-2.037-.174-2.704-.522v-.836c.854.427 1.755.64 2.703.64.84 0 1.477-.14 1.91-.417s.653-.65.653-1.113c0-.427-.173-.786-.52-1.078s-.915-.578-1.707-.86c-.85-.307-1.445-.57-1.79-.792s-.602-.472-.776-.75-.262-.618-.262-1.02c0-.636.267-1.138.8-1.508s1.28-.555 2.24-.555c.916 0 1.785.17 2.608.515l-.29.703c-.832-.344-1.605-.516-2.32-.516-.69 0-1.24.114-1.647.344s-.61.547-.61.953c0 .44.157.796.473 1.06s.93.563 1.848.892c.767.276 1.324.524 1.673.746s.61.473.785.754.26.612.26.992zM429.56 678.874c.488 0 .916-.042 1.28-.125v.624c-.375.125-.808.188-1.297.188-.75 0-1.304-.2-1.66-.602s-.535-1.03-.535-1.89v-5.485h-1.258v-.453l1.258-.352.39-1.922h.4v2.055h2.49v.672h-2.49v5.375c0 .65.113 1.133.343 1.445s.59.47 1.08.47zM438.633 679.405l-.195-1.344h-.062c-.427.548-.866.935-1.316 1.16s-.983.34-1.598.34c-.833 0-1.48-.213-1.945-.64s-.695-1.02-.695-1.773c0-.828.345-1.472 1.035-1.93s1.688-.7 2.996-.727l1.617-.047v-.562c0-.807-.164-1.416-.492-1.827s-.856-.617-1.586-.617c-.786 0-1.602.22-2.445.656l-.29-.672c.934-.438 1.855-.656 2.767-.656.933 0 1.63.242 2.09.727s.69 1.24.69 2.267v5.648h-.57zm-3.125-.547c.906 0 1.62-.26 2.145-.777s.785-1.237.785-2.16v-.835l-1.484.062c-1.192.058-2.043.243-2.55.56s-.763.805-.763 1.472c0 .53.164.943.49 1.237s.784.44 1.378.44zM448.675 679.405v-5.508c0-.854-.18-1.476-.54-1.863s-.916-.582-1.67-.582c-1.017 0-1.76.257-2.23.77s-.708 1.345-.708 2.496v4.688h-.773v-8.492h.656l.148 1.164h.047c.552-.886 1.534-1.328 2.945-1.328 1.927 0 2.89 1.034 2.89 3.102v5.555h-.765zM456.1 670.75c.614 0 1.146.11 1.594.335s.85.606 1.203 1.148h.047c-.03-.656-.047-1.3-.047-1.93v-3.055h.766v12.156h-.508l-.195-1.297h-.062c-.646.97-1.573 1.453-2.78 1.453-1.173 0-2.068-.364-2.69-1.094s-.93-1.792-.93-3.188c0-1.47.31-2.59.923-3.367s1.508-1.16 2.68-1.16zm0 .702c-.927 0-1.624.325-2.09.977s-.7 1.596-.7 2.835c0 2.406.936 3.61 2.806 3.61.958 0 1.66-.28 2.11-.837s.67-1.477.67-2.758v-.133c0-1.312-.22-2.257-.66-2.832s-1.152-.863-2.136-.863zM463.204 668.554c0-.5.164-.75.492-.75.16 0 .288.065.38.195s.136.314.136.554c0 .234-.046.42-.137.555s-.218.202-.38.202c-.327 0-.49-.253-.49-.758zm.883 10.85h-.773v-8.49h.773v8.49zM473.652 679.405v-5.508c0-.854-.18-1.476-.54-1.863s-.916-.582-1.67-.582c-1.017 0-1.76.257-2.23.77s-.708 1.345-.708 2.496v4.688h-.773v-8.492h.657l.148 1.164h.047c.552-.886 1.534-1.328 2.945-1.328 1.927 0 2.89 1.034 2.89 3.102v5.555h-.765zM484.594 670.913v.54l-1.758.108c.47.584.703 1.225.703 1.923 0 .817-.273 1.48-.817 1.988s-1.274.763-2.19.763c-.387 0-.657-.016-.813-.047-.308.16-.542.352-.703.57s-.242.45-.242.695c0 .272.103.47.31.595s.55.188 1.034.188h1.483c.922 0 1.628.187 2.117.56s.734.922.734 1.65c0 .897-.363 1.588-1.09 2.075s-1.762.73-3.105.73c-1.068 0-1.896-.206-2.48-.617s-.88-.983-.88-1.718c0-.583.18-1.067.543-1.453s.853-.65 1.473-.79c-.255-.11-.46-.265-.613-.465s-.23-.43-.23-.69c0-.568.362-1.068 1.086-1.5-.496-.204-.88-.523-1.157-.958s-.414-.934-.414-1.496c0-.848.27-1.53.808-2.042s1.267-.77 2.184-.77c.558 0 .99.055 1.297.164h2.714zm-6.875 9.93c0 1.167.866 1.75 2.6 1.75 2.23 0 3.345-.71 3.345-2.133 0-.51-.175-.88-.523-1.11s-.914-.343-1.695-.343h-1.39c-1.56 0-2.338.612-2.338 1.836zm.647-7.28c0 .655.2 1.164.598 1.526s.93.542 1.598.542c.708 0 1.25-.18 1.63-.54s.565-.88.565-1.56c0-.725-.194-1.268-.582-1.63s-.93-.543-1.63-.543c-.676 0-1.21.193-1.597.58s-.583.93-.583 1.622zM497.248 679.405l-.195-1.344h-.062c-.426.548-.865.935-1.315 1.16s-.983.34-1.598.34c-.833 0-1.48-.213-1.945-.64s-.695-1.02-.695-1.773c0-.828.345-1.472 1.035-1.93s1.688-.7 2.996-.727l1.617-.047v-.562c0-.807-.164-1.416-.492-1.827s-.856-.617-1.586-.617c-.786 0-1.602.22-2.445.656l-.29-.672c.934-.438 1.855-.656 2.767-.656.932 0 1.628.242 2.09.727s.69 1.24.69 2.267v5.648h-.572zm-3.125-.547c.906 0 1.62-.26 2.145-.777s.785-1.237.785-2.16v-.835l-1.484.062c-1.193.058-2.044.243-2.552.56s-.762.805-.762 1.472c0 .53.163.943.488 1.237s.785.44 1.38.44zM507.29 679.405v-5.508c0-.854-.18-1.476-.54-1.863s-.916-.582-1.67-.582c-1.017 0-1.76.257-2.23.77s-.708 1.345-.708 2.496v4.688h-.773v-8.492h.655l.148 1.164h.047c.552-.886 1.534-1.328 2.945-1.328 1.927 0 2.89 1.034 2.89 3.102v5.555h-.765zM514.715 670.75c.614 0 1.146.11 1.594.335s.848.606 1.202 1.148h.047c-.032-.656-.048-1.3-.048-1.93v-3.055h.766v12.156h-.508l-.195-1.297h-.062c-.646.97-1.573 1.453-2.78 1.453-1.173 0-2.068-.364-2.69-1.094s-.93-1.792-.93-3.188c0-1.47.31-2.59.923-3.367s1.507-1.16 2.68-1.16zm0 .702c-.927 0-1.624.325-2.09.977s-.7 1.596-.7 2.835c0 2.406.936 3.61 2.806 3.61.96 0 1.662-.28 2.11-.837s.672-1.477.672-2.758v-.133c0-1.312-.22-2.257-.66-2.832s-1.153-.863-2.137-.863zM530.276 679.562c-1.214 0-2.164-.383-2.852-1.148s-1.03-1.833-1.03-3.203c0-1.405.355-2.5 1.07-3.284s1.69-1.176 2.93-1.176c.733 0 1.437.128 2.108.383l-.21.688c-.735-.244-1.373-.366-1.915-.366-1.042 0-1.83.32-2.367.965s-.805 1.568-.805 2.776c0 1.146.27 2.043.805 2.69s1.286.974 2.25.974c.77 0 1.487-.138 2.148-.414v.72c-.54.263-1.252.396-2.132.396zM542.31 675.147c0 1.386-.335 2.468-1.007 3.246s-1.6 1.168-2.78 1.168c-.746 0-1.402-.18-1.97-.538s-1.003-.875-1.305-1.547-.453-1.448-.453-2.328c0-1.386.336-2.465 1.008-3.238s1.594-1.16 2.766-1.16c1.166 0 2.08.39 2.745 1.175s.996 1.858.996 3.222zm-6.703 0c0 1.167.257 2.077.77 2.73s1.238.98 2.176.98 1.663-.327 2.176-.98.77-1.563.77-2.73c0-1.172-.26-2.08-.778-2.727s-1.246-.97-2.184-.97-1.66.322-2.168.966-.763 1.555-.763 2.73zM546.235 679.405h-.773V667.25h.773v12.155zM550.652 679.405h-.773V667.25h.772v12.155zM557.727 679.562c-1.234 0-2.196-.38-2.887-1.14s-1.035-1.826-1.035-3.196c0-1.354.333-2.438 1-3.254s1.565-1.223 2.695-1.223c1 0 1.79.348 2.367 1.046s.867 1.646.867 2.844v.625h-6.117c.01 1.167.282 2.058.816 2.672s1.298.922 2.293.922c.484 0 .91-.035 1.277-.103s.832-.214 1.395-.438v.702c-.48.208-.922.35-1.328.426s-.854.114-1.343.114zm-.227-8.125c-.817 0-1.474.27-1.97.81s-.783 1.315-.866 2.33h5.25c0-.983-.214-1.753-.64-2.308s-1.02-.833-1.774-.833zM567.27 679.562c-1.215 0-2.165-.383-2.853-1.148s-1.03-1.833-1.03-3.203c0-1.405.355-2.5 1.07-3.284s1.69-1.176 2.93-1.176c.733 0 1.437.128 2.108.383l-.21.688c-.735-.244-1.373-.366-1.915-.366-1.042 0-1.83.32-2.367.965s-.805 1.568-.805 2.776c0 1.146.27 2.043.805 2.69s1.286.974 2.25.974c.77 0 1.487-.138 2.148-.414v.72c-.54.263-1.252.396-2.13.396zM574.52 678.874c.49 0 .918-.042 1.282-.125v.624c-.375.125-.808.188-1.297.188-.75 0-1.304-.2-1.66-.602s-.535-1.03-.535-1.89v-5.485h-1.258v-.453l1.258-.352.39-1.922h.4v2.055h2.49v.672h-2.49v5.375c0 .65.114 1.133.344 1.445s.588.47 1.077.47zM578.33 668.554c0-.5.163-.75.49-.75.162 0 .29.065.38.195s.137.314.137.554c0 .234-.046.42-.137.555s-.218.202-.38.202c-.327 0-.49-.253-.49-.758zm.882 10.85h-.773v-8.49h.772v8.49zM584.715 679.405l-3.28-8.492h.796l2.196 5.773c.292.74.51 1.386.656 1.938h.047c.213-.708.432-1.36.655-1.953l2.195-5.757h.797l-3.28 8.492h-.782zM594.43 679.562c-1.234 0-2.196-.38-2.887-1.14s-1.035-1.826-1.035-3.196c0-1.354.333-2.438 1-3.254s1.565-1.223 2.695-1.223c1 0 1.79.348 2.367 1.046s.867 1.646.867 2.844v.625h-6.117c.01 1.167.282 2.058.816 2.672s1.298.922 2.293.922c.483 0 .91-.035 1.276-.103s.832-.214 1.395-.438v.702c-.478.208-.92.35-1.327.426s-.854.114-1.343.114zm-.227-8.125c-.817 0-1.474.27-1.97.81s-.783 1.315-.866 2.33h5.25c0-.983-.214-1.753-.64-2.308s-1.02-.833-1.774-.833zM610.693 679.405l-.195-1.344h-.062c-.427.548-.866.935-1.316 1.16s-.983.34-1.598.34c-.833 0-1.48-.213-1.945-.64s-.695-1.02-.695-1.773c0-.828.345-1.472 1.035-1.93s1.688-.7 2.996-.727l1.617-.047v-.562c0-.807-.164-1.416-.492-1.827s-.856-.617-1.586-.617c-.786 0-1.602.22-2.445.656l-.29-.672c.934-.438 1.855-.656 2.767-.656.933 0 1.63.242 2.09.727s.69 1.24.69 2.267v5.648h-.57zm-3.125-.547c.906 0 1.62-.26 2.145-.777s.785-1.237.785-2.16v-.835l-1.484.062c-1.192.058-2.043.243-2.55.56s-.763.805-.763 1.472c0 .53.164.943.49 1.237s.785.44 1.378.44zM618.204 679.562c-1.214 0-2.164-.383-2.852-1.148s-1.03-1.833-1.03-3.203c0-1.405.355-2.5 1.07-3.284s1.69-1.176 2.93-1.176c.733 0 1.437.128 2.108.383l-.21.688c-.735-.244-1.373-.366-1.915-.366-1.042 0-1.83.32-2.367.965s-.805 1.568-.805 2.776c0 1.146.27 2.043.805 2.69s1.286.974 2.25.974c.77 0 1.487-.138 2.148-.414v.72c-.54.263-1.252.396-2.132.396zM625.457 678.874c.49 0 .917-.042 1.28-.125v.624c-.374.125-.807.188-1.296.188-.75 0-1.303-.2-1.66-.602s-.534-1.03-.534-1.89v-5.485h-1.258v-.453l1.258-.352.39-1.922h.4v2.055h2.49v.672h-2.49v5.375c0 .65.113 1.133.343 1.445s.588.47 1.077.47zM629.266 668.554c0-.5.164-.75.492-.75.16 0 .288.065.38.195s.136.314.136.554c0 .234-.046.42-.137.555s-.218.202-.38.202c-.327 0-.49-.253-.49-.758zm.882 10.85h-.773v-8.49h.773v8.49zM640.815 675.147c0 1.386-.336 2.468-1.008 3.246s-1.6 1.168-2.78 1.168c-.746 0-1.402-.18-1.97-.538s-1.003-.875-1.305-1.547-.453-1.448-.453-2.328c0-1.386.335-2.465 1.007-3.238s1.594-1.16 2.766-1.16c1.167 0 2.082.39 2.746 1.175s.995 1.858.995 3.222zm-6.703 0c0 1.167.257 2.077.77 2.73s1.238.98 2.176.98 1.663-.327 2.176-.98.77-1.563.77-2.73c0-1.172-.26-2.08-.777-2.727s-1.246-.97-2.184-.97-1.66.322-2.168.966-.763 1.555-.763 2.73zM649.89 679.405v-5.508c0-.854-.18-1.476-.54-1.863s-.917-.582-1.672-.582c-1.016 0-1.76.257-2.23.77s-.707 1.345-.707 2.496v4.688h-.772v-8.492h.656l.148 1.164h.047c.55-.886 1.533-1.328 2.944-1.328 1.927 0 2.89 1.034 2.89 3.102v5.555h-.765z"/><path fill="none" stroke="#424242" stroke-width="4" stroke-miterlimit="10" d="M431 708.94h29"/><g enable-background="new"><path fill="#D6D6D6" d="M623.715 303.97l-.207 4.284-38.79 13.422.205-4.284zM231.98 368.89l.21-4.284c.36-7.433 2.022-14.856 5.02-22.184 11.872-29.016 43.21-53.01 88.23-67.56 9.675-3.126 19.917-5.745 30.425-7.78 84.283-16.32 180.504 4.678 229.058 50.31l-.206 4.284c-48.557-45.633-144.777-66.63-229.06-50.31-10.507 2.035-20.75 4.653-30.423 7.778-45.02 14.55-76.358 38.545-88.232 67.562-2.996 7.327-4.66 14.75-5.022 22.185z"/><path fill="#EFEFEF" d="M249.607 418.838c-12.464-15.967-18.443-32.972-17.627-49.937l.21-4.283c-.708 14.66 3.66 29.35 12.902 43.374l-.05 1.064.05-1.063c4.628 7.022 10.478 13.877 17.522 20.478 54.1 50.69 161.895 74.21 256.326 55.92 11.77-2.278 23.217-5.202 34.05-8.7 65.577-21.19 102.376-59.647 104.317-100.51l-.206 4.285c-1.94 40.862-38.738 79.317-104.318 100.51-10.832 3.497-22.28 6.422-34.05 8.7-94.43 18.287-202.226-5.23-256.325-55.92-4.833-4.53-9.102-9.177-12.8-13.915-.213-.43-.44-.854-.658-1.28.218.426.445.85.657 1.28zm-.615-1.24l-.023-.043-.026-.045-.025-.05-.024-.046-.027-.05-.025-.05-.024-.05-.024-.048-.023-.048-.024-.048-.024-.045-.02-.045-.022-.042-.02-.04-.017-.04-.016-.034.017.035.018.037.02.04.02.043.02.045.024.045.023.048.023.048.025.05.025.048.024.05.026.05.023.047.024.05.025.045.022.044m-.397-.966v.025l.003.015v.016l.004.018.004.018.002.018.003.02.006.017.002.02.002.018.004.016v.017l.003.016v.025-.027l-.002-.015v-.016l-.005-.016-.002-.018-.002-.02-.005-.017-.002-.02-.002-.017-.004-.018-.003-.017-.002-.015-.003-.016V416.633m0-.003l-.1-.216-.103-.227-.105-.233-.11-.24-.11-.245-.113-.25-.114-.25-.114-.255-.113-.256-.113-.255-.113-.254-.112-.248-.108-.248-.11-.24-.103-.236-.1-.227.1.228.104.236.11.24.107.248.112.25.113.253.113.254.113.255.114.254.114.25.113.25.11.244.11.24.105.233.104.227.1.217m-1.745-3.874l-.074-.168-.085-.182-.092-.194-.1-.21-.106-.218-.113-.23-.117-.238-.122-.243-.123-.25-.13-.258-.128-.258-.133-.262-.13-.26-.133-.262-.13-.26-.13-.255.13.256.13.26.132.26.13.26.133.263.128.258.13.257.123.25.123.244.116.24.112.228.106.22.1.208.093.194.086.182.075.168"/><path fill="#D6D6D6" d="M658.514 375.38l-.208 4.282c-1.987 41.102-38.99 79.68-104.832 100.955-10.894 3.517-22.423 6.465-34.26 8.757-95.015 18.4-203.48-5.267-257.905-56.267-21.26-19.92-31.702-42.132-30.63-64.28l.207-4.283c-1.07 22.147 9.373 44.36 30.63 64.28 54.425 51 162.89 74.666 257.907 56.265 11.834-2.293 23.363-5.24 34.256-8.757 65.843-21.274 102.844-59.854 104.834-100.954zM624.11 302.95c66.065 61.91 34.31 139.54-70.43 173.383-10.894 3.518-22.423 6.464-34.257 8.756-95.02 18.4-203.482-5.267-257.906-56.267-28.44-26.648-37.525-57.403-25.575-86.612 11.942-29.2 43.493-53.35 88.812-67.995 9.744-3.145 20.045-5.783 30.63-7.832 84.663-16.396 181.296 4.61 230.04 49.947l38.685-13.38zm-71.12 172.738c103.94-33.59 135.584-110.548 70.725-171.72l-38.792 13.423c-48.554-45.63-144.774-66.63-229.058-50.31-10.508 2.036-20.75 4.655-30.424 7.78-45.02 14.55-76.358 38.545-88.23 67.56-11.865 29.017-2.85 59.576 25.405 86.047 54.1 50.69 161.895 74.21 256.326 55.92 11.77-2.278 23.218-5.2 34.05-8.7"/><path fill="#D6D6D6" d="M657.307 375.24l-.207 4.284c1.156-23.923-9.633-48.675-33.592-71.27l.207-4.286c23.96 22.598 34.75 47.35 33.592 71.272z"/><path fill="#fff" d="M355.865 267.082c84.283-16.322 180.504 4.678 228.76 49.875l39.09-12.988c64.857 61.17 33.217 138.13-70.725 171.718-10.832 3.498-22.28 6.422-34.05 8.7-94.43 18.29-202.226-5.23-256.325-55.92-28.255-26.47-37.27-57.03-25.407-86.046 11.874-29.017 43.212-53.01 88.235-67.56 9.672-3.126 19.914-5.745 30.422-7.78z"/></g><ellipse fill-rule="evenodd" clip-rule="evenodd" fill="#EAEAEA" cx="405.528" cy="339.602" rx="11.917" ry="3.968"/><g fill-rule="evenodd" clip-rule="evenodd" fill="#00D096"><path d="M398.568 302.348c4.91 3.55 8.436 3.55 14.127.002 2.184 2.77 2.934 5.897 3.494 9.316.215 1.307.58 4.375.515 5.697-.152 3.13-.81 3.232-1.635 3.798-.352.242-.518.832-.583 1.285-.53 3.742-1.27 7.478-1.456 11.24-.282 5.702-6.55 7.583-10.358 6.02-2.607-1.072-4.194-2.883-4.498-5.83-.39-3.807-.96-7.598-1.525-11.385-.085-.566-.054-1.377-.855-1.61 0 0-1.56-.638-1.56-3.355-.08-4.916.716-9.69 3.356-13.986.18-.292.8-1.037.978-1.192zM413.854 294.762c-.07 4.498-3.865 8.197-8.373 8.16-4.55-.035-8.233-3.86-8.182-8.498.05-4.52 3.804-8.158 8.372-8.113 4.61.044 8.258 3.81 8.184 8.452z"/></g><ellipse fill-rule="evenodd" clip-rule="evenodd" fill="#EAEAEA" cx="280.277" cy="363.218" rx="11.916" ry="3.968"/><g fill-rule="evenodd" clip-rule="evenodd" fill="#00ACD0"><path d="M273.318 325.965c4.91 3.547 8.434 3.547 14.126 0 2.186 2.77 2.934 5.898 3.496 9.317.214 1.306.58 4.374.515 5.697-.15 3.13-.808 3.23-1.634 3.797-.353.24-.52.83-.584 1.283-.53 3.742-1.268 7.48-1.455 11.24-.282 5.703-6.55 7.584-10.36 6.02-2.605-1.07-4.192-2.882-4.495-5.83-.392-3.807-.962-7.598-1.526-11.385-.085-.566-.053-1.377-.855-1.61 0 0-1.558-.638-1.56-3.354-.08-4.915.72-9.688 3.356-13.984.18-.293.8-1.037.978-1.19zM288.604 318.377c-.07 4.5-3.865 8.197-8.373 8.16-4.552-.035-8.232-3.86-8.183-8.497.05-4.52 3.804-8.158 8.373-8.114 4.61.043 8.258 3.81 8.184 8.45z"/></g><ellipse fill-rule="evenodd" clip-rule="evenodd" fill="#EAEAEA" cx="467.672" cy="337.218" rx="11.916" ry="3.968"/><g fill-rule="evenodd" clip-rule="evenodd" fill="#E95A78"><path d="M460.713 299.965c4.91 3.547 8.436 3.547 14.125 0 2.186 2.77 2.936 5.898 3.496 9.317.215 1.306.58 4.374.517 5.697-.15 3.13-.81 3.23-1.635 3.797-.352.24-.52.83-.584 1.283-.528 3.742-1.27 7.48-1.454 11.24-.283 5.703-6.55 7.584-10.36 6.02-2.606-1.07-4.193-2.882-4.496-5.83-.392-3.807-.96-7.598-1.526-11.385-.086-.566-.053-1.377-.854-1.61 0 0-1.56-.638-1.56-3.354-.08-4.915.716-9.688 3.355-13.984.18-.293.8-1.037.978-1.19zM475.998 292.377c-.07 4.5-3.865 8.197-8.373 8.16-4.553-.035-8.234-3.86-8.184-8.497.052-4.52 3.806-8.158 8.372-8.114 4.614.043 8.26 3.81 8.186 8.45z"/></g><ellipse fill-rule="evenodd" clip-rule="evenodd" fill="#EAEAEA" cx="516.834" cy="378.218" rx="11.916" ry="3.968"/><g fill-rule="evenodd" clip-rule="evenodd" fill="#80529B"><path d="M509.877 340.965c4.91 3.547 8.435 3.547 14.125 0 2.186 2.77 2.934 5.898 3.495 9.317.216 1.306.58 4.374.515 5.697-.15 3.13-.807 3.23-1.633 3.797-.355.24-.52.83-.585 1.283-.53 3.742-1.27 7.48-1.457 11.24-.282 5.703-6.55 7.584-10.36 6.02-2.606-1.07-4.192-2.882-4.497-5.83-.39-3.807-.96-7.598-1.524-11.385-.083-.566-.05-1.377-.853-1.61 0 0-1.56-.638-1.56-3.354-.08-4.915.717-9.688 3.355-13.984.18-.293.8-1.037.98-1.19zM525.162 333.377c-.072 4.5-3.867 8.197-8.374 8.16-4.554-.035-8.233-3.86-8.183-8.497.05-4.52 3.804-8.158 8.37-8.114 4.614.043 8.26 3.81 8.187 8.45z"/></g><ellipse fill-rule="evenodd" clip-rule="evenodd" fill="#EAEAEA" cx="384.269" cy="396.218" rx="11.917" ry="3.968"/><g fill-rule="evenodd" clip-rule="evenodd" fill="#4F4E4E"><path d="M377.31 358.965c4.91 3.547 8.437 3.547 14.126 0 2.186 2.77 2.934 5.898 3.496 9.317.215 1.306.58 4.374.516 5.697-.152 3.13-.81 3.23-1.635 3.797-.353.24-.52.83-.584 1.283-.53 3.742-1.27 7.48-1.458 11.24-.28 5.703-6.55 7.584-10.357 6.02-2.607-1.07-4.195-2.882-4.498-5.83-.39-3.807-.96-7.598-1.526-11.385-.083-.566-.05-1.377-.852-1.61 0 0-1.56-.638-1.56-3.354-.08-4.915.716-9.688 3.356-13.984.178-.293.797-1.037.976-1.19zM392.596 351.377c-.07 4.5-3.866 8.197-8.375 8.16-4.55-.035-8.232-3.86-8.18-8.497.048-4.52 3.804-8.158 8.37-8.114 4.613.043 8.258 3.81 8.186 8.45z"/></g><g opacity=".35"><ellipse fill-rule="evenodd" clip-rule="evenodd" fill="#EAEAEA" cx="200.269" cy="358.218" rx="11.917" ry="3.968"/><g fill-rule="evenodd" clip-rule="evenodd" fill="#C2C2C4"><path d="M193.31 320.965c4.91 3.547 8.437 3.547 14.126 0 2.186 2.77 2.934 5.898 3.496 9.317.215 1.306.58 4.374.516 5.697-.152 3.13-.81 3.23-1.635 3.797-.353.24-.52.83-.584 1.283-.53 3.742-1.27 7.48-1.458 11.24-.28 5.703-6.55 7.584-10.357 6.02-2.607-1.07-4.195-2.882-4.498-5.83-.39-3.807-.96-7.598-1.526-11.385-.083-.566-.05-1.377-.852-1.61 0 0-1.56-.638-1.56-3.354-.08-4.915.716-9.688 3.356-13.984.178-.293.797-1.037.976-1.19zM208.596 313.377c-.07 4.5-3.866 8.197-8.375 8.16-4.55-.035-8.232-3.86-8.18-8.497.048-4.52 3.804-8.158 8.37-8.114 4.613.043 8.258 3.81 8.186 8.45z"/></g></g><g opacity=".35"><ellipse fill-rule="evenodd" clip-rule="evenodd" fill="#EAEAEA" cx="242.137" cy="482.033" rx="13.131" ry="4.372"/><g fill-rule="evenodd" clip-rule="evenodd" fill="#C2C2C4"><path d="M234.467 440.982c5.412 3.91 9.297 3.91 15.568.002 2.406 3.052 3.232 6.498 3.85 10.266.238 1.44.64 4.82.566 6.277-.165 3.45-.887 3.562-1.798 4.186-.39.266-.57.915-.644 1.415-.585 4.123-1.398 8.24-1.604 12.386-.312 6.283-7.217 8.355-11.414 6.632-2.873-1.18-4.623-3.176-4.957-6.423-.432-4.195-1.058-8.372-1.682-12.545-.09-.624-.055-1.518-.938-1.775 0 0-1.72-.702-1.72-3.695-.087-5.417.79-10.68 3.7-15.412.197-.322.88-1.143 1.075-1.314zM251.31 432.623c-.077 4.956-4.26 9.032-9.226 8.992-5.016-.04-9.073-4.254-9.016-9.365.054-4.98 4.19-8.99 9.225-8.94 5.082.048 9.1 4.198 9.018 9.313z"/></g></g><ellipse fill-rule="evenodd" clip-rule="evenodd" fill="#EAEAEA" cx="432.867" cy="435.813" rx="13.131" ry="4.372"/><g fill-rule="evenodd" clip-rule="evenodd" fill="#FFA800"><path d="M425.2 394.764c5.41 3.908 9.294 3.908 15.563 0 2.41 3.052 3.233 6.5 3.852 10.267.238 1.44.64 4.82.568 6.28-.166 3.45-.89 3.56-1.8 4.185-.39.265-.575.914-.644 1.413-.586 4.124-1.4 8.24-1.605 12.386-.312 6.285-7.22 8.357-11.416 6.634-2.874-1.18-4.622-3.176-4.958-6.423-.43-4.196-1.057-8.374-1.68-12.547-.094-.624-.06-1.517-.94-1.774 0 0-1.72-.702-1.72-3.696-.088-5.417.79-10.677 3.7-15.41.198-.324.88-1.144 1.077-1.314zM442.042 386.402c-.077 4.958-4.26 9.033-9.226 8.993-5.018-.04-9.074-4.253-9.02-9.364.057-4.978 4.193-8.988 9.227-8.94 5.082.048 9.1 4.198 9.02 9.312z"/></g><ellipse fill-rule="evenodd" clip-rule="evenodd" fill="#EAEAEA" cx="362.867" cy="457.813" rx="13.131" ry="4.372"/><g fill-rule="evenodd" clip-rule="evenodd" fill="#00D096"><path d="M355.2 416.764c5.41 3.908 9.295 3.908 15.563 0 2.41 3.052 3.233 6.5 3.852 10.267.238 1.44.64 4.82.568 6.28-.166 3.45-.89 3.56-1.8 4.185-.39.265-.574.914-.644 1.413-.586 4.124-1.4 8.24-1.605 12.386-.312 6.285-7.22 8.357-11.416 6.634-2.874-1.18-4.622-3.176-4.958-6.423-.43-4.196-1.057-8.374-1.68-12.547-.094-.624-.058-1.517-.94-1.774 0 0-1.72-.702-1.72-3.696-.088-5.417.79-10.677 3.7-15.41.198-.324.878-1.144 1.077-1.314zM372.042 408.402c-.077 4.958-4.26 9.033-9.226 8.993-5.018-.04-9.074-4.253-9.02-9.364.057-4.978 4.193-8.988 9.227-8.94 5.083.048 9.1 4.198 9.02 9.312z"/></g><ellipse fill-rule="evenodd" clip-rule="evenodd" fill="#EAEAEA" cx="496.708" cy="435.813" rx="13.13" ry="4.372"/><g fill-rule="evenodd" clip-rule="evenodd" fill="#00ACD0"><path d="M489.04 394.764c5.41 3.908 9.294 3.908 15.565 0 2.408 3.052 3.232 6.5 3.852 10.267.236 1.44.638 4.82.567 6.28-.165 3.45-.89 3.56-1.8 4.185-.39.265-.573.914-.645 1.413-.585 4.124-1.397 8.24-1.605 12.386-.312 6.285-7.218 8.357-11.415 6.634-2.873-1.18-4.62-3.176-4.955-6.423-.43-4.196-1.06-8.374-1.682-12.547-.092-.624-.057-1.517-.94-1.774 0 0-1.718-.702-1.72-3.696-.088-5.417.793-10.677 3.698-15.41.2-.324.883-1.144 1.08-1.314zM505.883 386.402c-.078 4.958-4.26 9.033-9.227 8.993-5.018-.04-9.072-4.253-9.018-9.364.055-4.978 4.19-8.988 9.227-8.94 5.08.048 9.1 4.198 9.018 9.312z"/></g><g opacity=".35"><ellipse fill-rule="evenodd" clip-rule="evenodd" fill="#EAEAEA" cx="643.219" cy="488.813" rx="13.131" ry="4.372"/><g fill-rule="evenodd" clip-rule="evenodd" fill="#C2C2C4"><path d="M635.55 447.764c5.412 3.908 9.297 3.908 15.565 0 2.408 3.052 3.235 6.5 3.854 10.267.235 1.44.638 4.82.567 6.28-.168 3.45-.893 3.56-1.803 4.185-.388.265-.573.914-.644 1.413-.583 4.124-1.397 8.24-1.603 12.386-.312 6.285-7.22 8.357-11.417 6.634-2.872-1.18-4.62-3.176-4.954-6.423-.432-4.196-1.06-8.374-1.682-12.547-.094-.624-.058-1.517-.94-1.774 0 0-1.718-.702-1.72-3.696-.086-5.417.79-10.677 3.698-15.41.2-.324.882-1.144 1.078-1.314zM652.393 439.402c-.076 4.958-4.258 9.033-9.225 8.993-5.018-.04-9.074-4.253-9.02-9.364.057-4.978 4.193-8.988 9.227-8.94 5.083.048 9.1 4.198 9.018 9.312z"/></g></g><ellipse fill-rule="evenodd" clip-rule="evenodd" fill="#EAEAEA" cx="322.219" cy="437.813" rx="13.13" ry="4.372"/><g fill-rule="evenodd" clip-rule="evenodd" fill="#E95A78"><path d="M314.55 396.764c5.412 3.908 9.297 3.908 15.565 0 2.408 3.052 3.235 6.5 3.854 10.267.235 1.44.638 4.82.567 6.28-.168 3.45-.893 3.56-1.803 4.185-.388.265-.573.914-.644 1.413-.583 4.124-1.397 8.24-1.603 12.386-.312 6.285-7.22 8.357-11.417 6.634-2.872-1.18-4.62-3.176-4.954-6.423-.432-4.196-1.06-8.374-1.682-12.547-.094-.624-.058-1.517-.94-1.774 0 0-1.718-.702-1.72-3.696-.086-5.417.79-10.677 3.698-15.41.2-.324.882-1.144 1.078-1.314zM331.394 388.402c-.077 4.958-4.26 9.033-9.226 8.993-5.018-.04-9.074-4.253-9.02-9.364.057-4.978 4.193-8.988 9.227-8.94 5.083.048 9.1 4.198 9.02 9.312z"/></g><ellipse fill-rule="evenodd" clip-rule="evenodd" fill="#EAEAEA" cx="592.219" cy="382.813" rx="13.131" ry="4.372"/><g fill-rule="evenodd" clip-rule="evenodd" fill="#E95A78"><path d="M584.55 341.764c5.412 3.908 9.297 3.908 15.565 0 2.408 3.052 3.235 6.5 3.854 10.267.235 1.44.638 4.82.567 6.28-.168 3.45-.893 3.56-1.803 4.185-.388.265-.573.914-.644 1.413-.583 4.124-1.397 8.24-1.603 12.386-.312 6.285-7.22 8.357-11.417 6.634-2.872-1.18-4.62-3.176-4.954-6.423-.432-4.196-1.06-8.374-1.682-12.547-.094-.624-.058-1.517-.94-1.774 0 0-1.718-.702-1.72-3.696-.086-5.417.79-10.677 3.698-15.41.2-.324.882-1.144 1.078-1.314zM601.393 333.402c-.076 4.958-4.258 9.033-9.225 8.993-5.018-.04-9.074-4.253-9.02-9.364.057-4.978 4.193-8.988 9.227-8.94 5.083.048 9.1 4.198 9.018 9.312z"/></g><g fill-rule="evenodd" clip-rule="evenodd" fill="#F2F2F2"><path d="M515.136 513.97c.38-.773.624-1.658.675-2.67.188-3.76.926-7.497 1.456-11.24.064-.452.232-1.042.584-1.282.826-.566 1.483-.667 1.635-3.798.064-1.323-.3-4.392-.516-5.697-.563-3.42-1.312-6.548-3.497-9.317-5.69 3.547-9.214 3.547-14.125 0-.18.154-.798.898-.98 1.19-2.637 4.296-3.434 9.07-3.354 13.985 0 2.718 1.56 3.355 1.56 3.355.802.233.77 1.044.855 1.61.564 3.787 1.132 7.578 1.524 11.386.096.927.33 1.73.672 2.442-3.16.714-5.236 1.92-5.236 3.285 0 2.192 5.338 3.968 11.918 3.968 6.58 0 11.916-1.775 11.916-3.968 0-1.344-2.015-2.53-5.088-3.248zM508.26 480.538c4.508.036 8.303-3.662 8.373-8.16.073-4.643-3.572-8.41-8.184-8.452-4.57-.044-8.324 3.596-8.374 8.114-.05 4.638 3.63 8.462 8.184 8.498zM458.693 535.233c.417-.852.688-1.826.742-2.94.208-4.145 1.02-8.262 1.607-12.386.07-.5.254-1.148.643-1.413.91-.624 1.634-.735 1.8-4.186.07-1.458-.33-4.84-.567-6.278-.617-3.767-1.443-7.215-3.852-10.267-6.27 3.908-10.153 3.908-15.564 0-.197.17-.88.99-1.078 1.312-2.908 4.733-3.785 9.993-3.697 15.41 0 2.994 1.72 3.696 1.72 3.696.882.26.847 1.15.94 1.775.62 4.173 1.248 8.35 1.68 12.547.105 1.02.365 1.903.74 2.69-3.48.785-5.768 2.113-5.768 3.62 0 2.414 5.877 4.37 13.128 4.37 7.253 0 13.13-1.956 13.13-4.37 0-1.48-2.218-2.788-5.605-3.58zM451.117 498.396c4.968.04 9.146-4.035 9.23-8.993.08-5.114-3.94-9.265-9.022-9.312-5.034-.047-9.17 3.964-9.224 8.942-.055 5.11 4 9.324 9.017 9.364z"/></g><ellipse fill-rule="evenodd" clip-rule="evenodd" fill="#EAEAEA" cx="567.131" cy="432.813" rx="13.13" ry="4.372"/><g fill-rule="evenodd" clip-rule="evenodd" fill="#4F4E4E"><path d="M559.463 391.764c5.412 3.908 9.296 3.908 15.565 0 2.407 3.052 3.23 6.5 3.853 10.267.237 1.44.64 4.82.57 6.28-.17 3.45-.892 3.56-1.802 4.185-.39.265-.573.914-.645 1.413-.584 4.124-1.4 8.24-1.604 12.386-.313 6.285-7.218 8.357-11.414 6.634-2.873-1.18-4.623-3.176-4.957-6.423-.43-4.196-1.06-8.374-1.683-12.547-.093-.624-.058-1.517-.94-1.774 0 0-1.718-.702-1.72-3.696-.086-5.417.79-10.677 3.7-15.41.197-.324.88-1.144 1.076-1.314zM576.307 383.402c-.078 4.958-4.26 9.033-9.23 8.993-5.013-.04-9.07-4.253-9.015-9.364.055-4.978 4.193-8.988 9.225-8.94 5.082.048 9.1 4.198 9.02 9.312z"/></g><ellipse fill-rule="evenodd" clip-rule="evenodd" fill="#EAEAEA" cx="504.31" cy="311.74" rx="9.488" ry="3.158"/><g fill-rule="evenodd" clip-rule="evenodd" fill="#00D096"><path d="M498.768 282.08c3.91 2.824 6.717 2.824 11.248 0 1.74 2.205 2.336 4.695 2.783 7.418.17 1.04.46 3.482.41 4.536-.122 2.493-.646 2.573-1.302 3.023-.28.192-.414.66-.465 1.022-.424 2.978-1.012 5.952-1.16 8.948-.225 4.54-5.215 6.037-8.247 4.792-2.075-.853-3.34-2.294-3.58-4.642-.313-3.03-.767-6.05-1.216-9.063-.066-.45-.04-1.097-.68-1.282 0 0-1.24-.508-1.24-2.672-.065-3.912.57-7.714 2.672-11.134.142-.23.635-.823.776-.947zM510.938 276.04c-.055 3.58-3.076 6.525-6.665 6.497-3.624-.03-6.558-3.074-6.516-6.768.038-3.6 3.028-6.495 6.666-6.46 3.672.036 6.575 3.034 6.515 6.73z"/></g><g opacity=".35"><ellipse fill-rule="evenodd" clip-rule="evenodd" fill="#EAEAEA" cx="292.184" cy="251.026" rx="9.488" ry="3.159"/><g fill-rule="evenodd" clip-rule="evenodd" fill="#C2C2C4"><path d="M286.645 221.366c3.91 2.825 6.716 2.825 11.246 0 1.74 2.206 2.336 4.696 2.784 7.42.17 1.038.46 3.48.41 4.534-.12 2.493-.643 2.573-1.3 3.023-.282.19-.415.662-.468 1.023-.42 2.98-1.01 5.953-1.157 8.948-.227 4.54-5.217 6.038-8.25 4.792-2.076-.852-3.338-2.294-3.58-4.64-.312-3.032-.766-6.05-1.215-9.065-.068-.45-.04-1.096-.68-1.28 0 0-1.24-.51-1.242-2.672-.062-3.914.57-7.715 2.672-11.135.144-.23.635-.825.78-.947zM298.812 215.325c-.055 3.582-3.076 6.526-6.665 6.497-3.625-.027-6.556-3.072-6.517-6.766.04-3.598 3.03-6.495 6.666-6.46 3.673.035 6.576 3.033 6.516 6.73z"/></g></g><g opacity=".35"><ellipse fill-rule="evenodd" clip-rule="evenodd" fill="#EAEAEA" cx="484.416" cy="258.026" rx="9.488" ry="3.159"/><g fill-rule="evenodd" clip-rule="evenodd" fill="#C2C2C4"><path d="M478.877 228.366c3.908 2.825 6.714 2.825 11.246 0 1.738 2.206 2.335 4.696 2.783 7.42.17 1.038.46 3.48.41 4.534-.12 2.493-.645 2.573-1.302 3.023-.282.19-.413.662-.466 1.023-.422 2.98-1.01 5.953-1.158 8.948-.226 4.54-5.216 6.038-8.248 4.792-2.076-.852-3.34-2.294-3.58-4.64-.312-3.032-.766-6.05-1.216-9.065-.065-.45-.04-1.096-.68-1.28 0 0-1.24-.51-1.243-2.672-.062-3.914.573-7.715 2.674-11.135.143-.23.635-.825.78-.947zM491.045 222.325c-.055 3.582-3.078 6.526-6.666 6.497-3.626-.027-6.556-3.072-6.517-6.766.04-3.598 3.028-6.495 6.666-6.46 3.67.035 6.574 3.033 6.515 6.73z"/></g></g><ellipse fill-rule="evenodd" clip-rule="evenodd" fill="#EAEAEA" cx="303.577" cy="320.026" rx="9.487" ry="3.159"/><g fill-rule="evenodd" clip-rule="evenodd" fill="#E95A78"><path d="M298.037 290.366c3.91 2.825 6.715 2.825 11.246 0 1.74 2.206 2.336 4.696 2.783 7.42.17 1.038.462 3.48.41 4.534-.12 2.493-.644 2.573-1.3 3.023-.28.19-.415.662-.466 1.023-.422 2.98-1.01 5.953-1.16 8.948-.225 4.54-5.215 6.038-8.248 4.792-2.074-.852-3.338-2.294-3.58-4.64-.31-3.032-.764-6.05-1.215-9.065-.067-.45-.04-1.096-.68-1.28 0 0-1.24-.51-1.242-2.672-.062-3.914.572-7.715 2.673-11.135.142-.23.638-.825.78-.947zM310.207 284.325c-.057 3.582-3.078 6.526-6.667 6.497-3.624-.027-6.556-3.072-6.516-6.766.04-3.598 3.03-6.495 6.666-6.46 3.672.035 6.574 3.033 6.517 6.73z"/></g><ellipse fill-rule="evenodd" clip-rule="evenodd" fill="#EAEAEA" cx="339.166" cy="281.026" rx="9.487" ry="3.159"/><g fill-rule="evenodd" clip-rule="evenodd" fill="#80529B"><path d="M333.626 251.366c3.91 2.825 6.716 2.825 11.246 0 1.74 2.206 2.337 4.696 2.782 7.42.172 1.038.463 3.48.41 4.534-.12 2.493-.643 2.573-1.3 3.023-.28.19-.413.662-.466 1.023-.422 2.98-1.01 5.953-1.16 8.948-.225 4.54-5.213 6.038-8.247 4.792-2.074-.852-3.338-2.294-3.58-4.64-.31-3.032-.765-6.05-1.215-9.065-.066-.45-.04-1.096-.68-1.28 0 0-1.24-.51-1.24-2.672-.064-3.914.57-7.715 2.672-11.135.143-.23.635-.825.78-.947zM345.796 245.325c-.058 3.582-3.08 6.526-6.667 6.497-3.628-.027-6.556-3.072-6.517-6.766.04-3.598 3.03-6.495 6.666-6.46 3.67.035 6.574 3.033 6.516 6.73z"/></g><g opacity=".35"><ellipse fill-rule="evenodd" clip-rule="evenodd" fill="#EAEAEA" cx="238.166" cy="299.026" rx="9.487" ry="3.159"/><g fill-rule="evenodd" clip-rule="evenodd" fill="#C2C2C4"><path d="M232.626 269.366c3.91 2.825 6.716 2.825 11.246 0 1.74 2.206 2.337 4.696 2.782 7.42.172 1.038.463 3.48.41 4.534-.12 2.493-.643 2.573-1.3 3.023-.28.19-.413.662-.466 1.023-.422 2.98-1.01 5.953-1.16 8.948-.225 4.54-5.213 6.038-8.247 4.792-2.074-.852-3.338-2.294-3.58-4.64-.31-3.032-.765-6.05-1.215-9.065-.066-.45-.04-1.096-.68-1.28 0 0-1.24-.51-1.24-2.672-.064-3.914.57-7.715 2.672-11.135.143-.23.635-.825.78-.947zM244.796 263.325c-.058 3.582-3.08 6.526-6.667 6.497-3.628-.027-6.556-3.072-6.517-6.766.04-3.598 3.03-6.495 6.666-6.46 3.67.035 6.574 3.033 6.516 6.73z"/></g></g><g opacity=".35"><ellipse fill-rule="evenodd" clip-rule="evenodd" fill="#EAEAEA" cx="546.166" cy="267.026" rx="9.487" ry="3.159"/><g fill-rule="evenodd" clip-rule="evenodd" fill="#C2C2C4"><path d="M540.626 237.366c3.91 2.825 6.716 2.825 11.246 0 1.74 2.206 2.337 4.696 2.782 7.42.172 1.038.463 3.48.41 4.534-.12 2.493-.643 2.573-1.3 3.023-.28.19-.413.662-.466 1.023-.422 2.98-1.01 5.953-1.16 8.948-.225 4.54-5.213 6.038-8.247 4.792-2.074-.852-3.338-2.294-3.58-4.64-.31-3.032-.765-6.05-1.215-9.065-.066-.45-.04-1.096-.68-1.28 0 0-1.24-.51-1.24-2.672-.064-3.914.57-7.715 2.672-11.135.143-.23.635-.825.78-.947zM552.795 231.325c-.057 3.582-3.077 6.526-6.666 6.497-3.628-.027-6.556-3.072-6.517-6.766.04-3.598 3.03-6.495 6.666-6.46 3.67.035 6.574 3.033 6.515 6.73z"/></g></g><g opacity=".35"><ellipse fill-rule="evenodd" clip-rule="evenodd" fill="#EAEAEA" cx="508.306" cy="517.218" rx="11.917" ry="3.968"/><g fill-rule="evenodd" clip-rule="evenodd" fill="#C2C2C4"><path d="M501.348 479.965c4.91 3.547 8.436 3.547 14.125 0 2.186 2.77 2.934 5.898 3.496 9.317.214 1.306.58 4.374.515 5.697-.15 3.13-.81 3.23-1.635 3.797-.352.24-.52.83-.584 1.283-.53 3.742-1.27 7.48-1.455 11.24-.282 5.703-6.55 7.584-10.358 6.02-2.607-1.07-4.195-2.882-4.498-5.83-.393-3.807-.96-7.598-1.525-11.385-.086-.566-.054-1.377-.855-1.61 0 0-1.56-.638-1.56-3.354-.08-4.915.717-9.688 3.354-13.984.18-.293.798-1.037.978-1.19zM516.633 472.377c-.07 4.5-3.865 8.197-8.373 8.16-4.553-.035-8.234-3.86-8.184-8.497.05-4.52 3.805-8.158 8.373-8.114 4.61.043 8.256 3.81 8.183 8.45z"/></g></g><g opacity=".35"><ellipse fill-rule="evenodd" clip-rule="evenodd" fill="#EAEAEA" cx="451.169" cy="538.813" rx="13.13" ry="4.372"/><g fill-rule="evenodd" clip-rule="evenodd" fill="#C2C2C4"><path d="M443.502 497.764c5.41 3.908 9.295 3.908 15.564 0 2.408 3.052 3.234 6.5 3.852 10.267.238 1.44.64 4.82.568 6.28-.167 3.45-.89 3.56-1.8 4.185-.39.265-.573.914-.644 1.413-.587 4.124-1.4 8.24-1.607 12.386-.31 6.285-7.217 8.357-11.413 6.634-2.874-1.18-4.622-3.176-4.956-6.423-.432-4.196-1.06-8.374-1.68-12.547-.094-.624-.06-1.517-.94-1.774 0 0-1.72-.702-1.72-3.696-.088-5.417.79-10.677 3.697-15.41.198-.324.882-1.144 1.08-1.314zM460.346 489.402c-.082 4.958-4.26 9.033-9.23 8.993-5.017-.04-9.07-4.253-9.015-9.364.054-4.978 4.19-8.988 9.225-8.94 5.083.048 9.1 4.198 9.02 9.312z"/></g></g><ellipse fill-rule="evenodd" clip-rule="evenodd" fill="#EAEAEA" cx="450.543" cy="286.026" rx="9.488" ry="3.159"/><g fill-rule="evenodd" clip-rule="evenodd" fill="#4F4E4E"><path d="M445.002 256.366c3.91 2.825 6.717 2.825 11.247 0 1.74 2.206 2.335 4.696 2.783 7.42.17 1.038.46 3.48.41 4.534-.12 2.493-.645 2.573-1.303 3.023-.28.19-.412.662-.465 1.023-.42 2.98-1.01 5.953-1.16 8.948-.225 4.54-5.213 6.038-8.245 4.792-2.077-.852-3.34-2.294-3.58-4.64-.313-3.032-.767-6.05-1.217-9.065-.065-.45-.042-1.096-.68-1.28 0 0-1.24-.51-1.24-2.672-.063-3.914.57-7.715 2.673-11.135.14-.23.635-.825.776-.947zM457.173 250.325c-.056 3.582-3.078 6.526-6.67 6.497-3.62-.027-6.554-3.072-6.51-6.766.036-3.598 3.026-6.495 6.663-6.46 3.673.035 6.575 3.033 6.517 6.73z"/></g><ellipse fill-rule="evenodd" clip-rule="evenodd" fill="#EAEAEA" cx="327.306" cy="360.218" rx="11.917" ry="3.968"/><g fill-rule="evenodd" clip-rule="evenodd" fill="#FFA800"><path d="M320.348 322.965c4.91 3.547 8.436 3.547 14.125 0 2.186 2.77 2.934 5.898 3.496 9.317.214 1.306.58 4.374.515 5.697-.15 3.13-.808 3.23-1.635 3.797-.352.24-.52.83-.584 1.283-.53 3.742-1.27 7.48-1.455 11.24-.282 5.703-6.55 7.584-10.358 6.02-2.607-1.07-4.194-2.882-4.498-5.83-.392-3.807-.96-7.598-1.525-11.385-.086-.566-.054-1.377-.855-1.61 0 0-1.56-.638-1.56-3.354-.08-4.915.717-9.688 3.354-13.984.18-.293.798-1.037.978-1.19zM335.633 315.377c-.07 4.5-3.865 8.197-8.373 8.16-4.553-.035-8.234-3.86-8.184-8.497.05-4.52 3.805-8.158 8.373-8.114 4.61.043 8.256 3.81 8.183 8.45z"/></g><ellipse fill-rule="evenodd" clip-rule="evenodd" fill="#EAEAEA" cx="374.577" cy="294.026" rx="9.487" ry="3.159"/><g fill-rule="evenodd" clip-rule="evenodd" fill="#E95A78"><path d="M369.037 264.366c3.91 2.825 6.715 2.825 11.246 0 1.74 2.206 2.336 4.696 2.783 7.42.17 1.038.462 3.48.41 4.534-.12 2.493-.644 2.573-1.3 3.023-.28.19-.415.662-.466 1.023-.422 2.98-1.01 5.953-1.16 8.948-.225 4.54-5.215 6.038-8.248 4.792-2.074-.852-3.338-2.294-3.58-4.64-.31-3.032-.764-6.05-1.215-9.065-.067-.45-.04-1.096-.68-1.28 0 0-1.24-.51-1.242-2.672-.062-3.914.572-7.715 2.673-11.135.142-.23.638-.825.78-.947zM381.207 258.325c-.057 3.582-3.078 6.526-6.667 6.497-3.624-.027-6.556-3.072-6.516-6.766.04-3.598 3.028-6.495 6.666-6.46 3.672.035 6.574 3.033 6.517 6.73z"/></g><ellipse fill-rule="evenodd" clip-rule="evenodd" fill="#EAEAEA" cx="621.867" cy="408.813" rx="13.131" ry="4.372"/><g fill-rule="evenodd" clip-rule="evenodd" fill="#FFA800"><path d="M614.2 367.764c5.41 3.908 9.294 3.908 15.563 0 2.41 3.052 3.233 6.5 3.852 10.267.238 1.44.64 4.82.568 6.28-.166 3.45-.89 3.56-1.8 4.185-.39.265-.575.914-.644 1.413-.586 4.124-1.4 8.24-1.605 12.386-.312 6.285-7.22 8.357-11.416 6.634-2.874-1.18-4.622-3.176-4.958-6.423-.43-4.196-1.057-8.374-1.68-12.547-.094-.624-.06-1.517-.94-1.774 0 0-1.72-.702-1.72-3.696-.087-5.417.79-10.677 3.7-15.41.198-.324.88-1.144 1.077-1.314zM631.042 359.402c-.077 4.958-4.26 9.033-9.226 8.993-5.018-.04-9.074-4.253-9.02-9.364.057-4.978 4.193-8.988 9.227-8.94 5.082.048 9.1 4.198 9.02 9.312z"/></g><g fill="none" stroke="#00D096" stroke-miterlimit="10"><path d="M338.5 238.94v-2"/><path stroke-dasharray="4,2" d="M338.5 234.94v-85"/><path d="M338.5 148.94v-2"/></g><path fill-rule="evenodd" clip-rule="evenodd" fill="#F2F2F2" stroke="#00D096" stroke-miterlimit="10" d="M326.5 191.44h24v26h-24z"/><g fill="#00D096"><path d="M331.324 206.078c0 .893.006 1.786-.004 2.68-.004.25.074.328.334.377.766.143 1.525.32 2.273.527.598.166 1.164.447 1.764.594 2.058.5 4.155.53 6.253.4 1.025-.062 2.045-.236 2.95-.783.606-.365.98-.81.48-1.555-.162-.244-.104-.44.143-.618 1.13-.813 1.156-1.13.19-2.136-.17-.176-.183-.32.024-.465.1-.07.205-.136.295-.216.562-.504.48-1.482-.148-1.8-.578-.29-.578-.29-.38-.9.01-.038.024-.076.036-.115.24-.898-.084-1.432-1-1.572-.355-.055-.73-.04-1.09-.005-1.117.11-2.23.268-3.348.363-1.04.09-1.473-.39-1.254-1.415.106-.493.374-.95.538-1.436.23-.675.502-1.347.62-2.042.122-.71-.175-1.33-.802-1.74-.613-.398-1.12-.242-1.318.455-.53 1.875-1.645 3.396-2.912 4.815-.758.85-1.553 1.655-2.084 2.683-.242.47-.645.82-1.203.86-.325.025-.366.175-.362.442.012.87.004 1.734.006 2.6z"/><path fill-rule="evenodd" clip-rule="evenodd" d="M331.322 206.078c0-.867.008-1.732-.004-2.6-.004-.268.037-.417.36-.44.56-.042.962-.392 1.204-.862.53-1.027 1.326-1.834 2.084-2.683 1.268-1.42 2.38-2.94 2.912-4.815.197-.697.705-.854 1.318-.454.627.41.924 1.03.803 1.74-.12.694-.394 1.366-.622 2.04-.164.485-.432.943-.537 1.438-.218 1.025.214 1.504 1.255 1.415 1.12-.096 2.23-.253 3.348-.363.36-.035.734-.05 1.09.005.916.14 1.24.673 1 1.57l-.037.116c-.197.61-.197.61.38.9.63.316.712 1.295.15 1.8-.09.08-.196.144-.296.214-.207.145-.195.29-.025.465.967 1.006.94 1.322-.19 2.136-.245.18-.304.375-.142.62.502.743.127 1.188-.48 1.554-.905.547-1.925.72-2.95.783-2.098.13-4.195.1-6.252-.4-.6-.146-1.165-.428-1.763-.594-.748-.208-1.508-.385-2.273-.527-.26-.05-.338-.127-.334-.377.01-.896.004-1.79.002-2.682z"/></g><g fill="none" stroke="#00D096" stroke-miterlimit="10"><path d="M503.5 270.94v-2"/><path stroke-dasharray="4,2" d="M503.5 266.94v-117"/><path d="M503.5 148.94v-2"/></g><path fill-rule="evenodd" clip-rule="evenodd" fill="#F2F2F2" stroke="#00D096" stroke-miterlimit="10" d="M491.5 154.44h24v26h-24z"/><g fill="#00D096"><path d="M496.324 169.078c0 .893.006 1.786-.004 2.68-.004.25.074.328.334.377.766.143 1.525.32 2.273.527.598.166 1.164.447 1.764.594 2.058.5 4.155.53 6.253.4 1.025-.062 2.045-.236 2.95-.783.606-.365.98-.81.48-1.555-.162-.244-.104-.44.143-.618 1.13-.813 1.156-1.13.19-2.136-.17-.176-.183-.32.024-.465.1-.07.205-.136.295-.216.562-.504.48-1.482-.148-1.8-.578-.29-.578-.29-.38-.9.01-.038.024-.076.036-.115.24-.898-.084-1.432-1-1.572-.355-.055-.73-.04-1.09-.005-1.117.11-2.23.268-3.348.363-1.04.09-1.473-.39-1.254-1.415.106-.493.374-.95.538-1.436.23-.675.502-1.347.62-2.042.122-.71-.175-1.33-.802-1.74-.613-.398-1.12-.242-1.318.455-.53 1.875-1.645 3.396-2.912 4.815-.758.85-1.553 1.655-2.084 2.683-.242.47-.645.82-1.203.86-.325.025-.366.175-.362.442.012.87.004 1.734.006 2.6z"/><path fill-rule="evenodd" clip-rule="evenodd" d="M496.322 169.078c0-.867.008-1.732-.004-2.6-.004-.268.037-.417.36-.44.56-.042.962-.392 1.204-.862.53-1.027 1.326-1.834 2.084-2.683 1.268-1.42 2.38-2.94 2.912-4.815.197-.697.705-.854 1.318-.454.627.41.924 1.03.803 1.74-.12.694-.394 1.366-.622 2.04-.164.485-.432.943-.537 1.438-.218 1.025.214 1.504 1.255 1.415 1.12-.096 2.23-.253 3.348-.363.36-.035.734-.05 1.09.005.916.14 1.24.673 1 1.57l-.037.116c-.197.61-.197.61.38.9.63.316.712 1.295.15 1.8-.09.08-.196.144-.296.214-.207.145-.195.29-.025.465.967 1.006.94 1.322-.19 2.136-.245.18-.304.375-.142.62.502.743.127 1.188-.48 1.554-.905.547-1.925.72-2.95.783-2.098.13-4.195.1-6.252-.4-.6-.146-1.165-.428-1.763-.594-.748-.208-1.508-.385-2.273-.527-.26-.05-.338-.127-.334-.377.01-.896.004-1.79.002-2.682z"/></g><path fill="none" d="M527.365 332.186"/><g fill="none" stroke="#00D096" stroke-miterlimit="10"><path d="M564.5 145.94v2"/><path stroke-dasharray="4,2" d="M564.5 149.94v219"/><path d="M564.5 369.94v2"/></g><path fill-rule="evenodd" clip-rule="evenodd" fill="#F2F2F2" stroke="#00D096" stroke-miterlimit="10" d="M552.5 165.44h24v26h-24z"/><g fill="#00D096"><path d="M557.324 180.078c0 .893.006 1.786-.004 2.68-.004.25.074.328.334.377.766.143 1.525.32 2.273.527.598.166 1.164.447 1.764.594 2.058.5 4.155.53 6.253.4 1.025-.062 2.045-.236 2.95-.783.606-.365.98-.81.48-1.555-.162-.244-.104-.44.143-.618 1.13-.813 1.156-1.13.19-2.136-.17-.176-.183-.32.024-.465.1-.07.205-.136.295-.216.562-.504.48-1.482-.148-1.8-.578-.29-.578-.29-.38-.9.01-.038.024-.076.036-.115.24-.898-.084-1.432-1-1.572-.355-.055-.73-.04-1.09-.005-1.117.11-2.23.268-3.348.363-1.04.09-1.473-.39-1.254-1.415.106-.493.374-.95.538-1.436.23-.675.502-1.347.62-2.042.122-.71-.175-1.33-.802-1.74-.613-.398-1.12-.242-1.318.455-.53 1.875-1.645 3.396-2.912 4.815-.758.85-1.553 1.655-2.084 2.683-.242.47-.645.82-1.203.86-.325.025-.366.175-.362.442.012.87.004 1.734.006 2.6z"/><path fill-rule="evenodd" clip-rule="evenodd" d="M557.322 180.078c0-.867.008-1.732-.004-2.6-.004-.268.037-.417.36-.44.56-.042.962-.392 1.204-.862.53-1.027 1.326-1.834 2.084-2.683 1.268-1.42 2.38-2.94 2.912-4.815.197-.697.705-.854 1.318-.454.627.41.924 1.03.803 1.74-.12.694-.394 1.366-.622 2.04-.164.485-.432.943-.537 1.438-.218 1.025.214 1.504 1.255 1.415 1.12-.096 2.23-.253 3.348-.363.36-.035.734-.05 1.09.005.916.14 1.24.673 1 1.57l-.037.116c-.197.61-.197.61.38.9.63.316.712 1.295.15 1.8-.09.08-.196.144-.296.214-.207.145-.195.29-.025.465.967 1.006.94 1.322-.19 2.136-.245.18-.304.375-.142.62.502.743.127 1.188-.48 1.554-.905.547-1.925.72-2.95.783-2.098.13-4.195.1-6.252-.4-.6-.146-1.165-.428-1.763-.594-.748-.208-1.508-.385-2.273-.527-.26-.05-.338-.127-.334-.377.01-.896.004-1.79.002-2.682z"/></g><path fill-rule="evenodd" clip-rule="evenodd" fill="#F2F2F2" stroke="#00D096" stroke-miterlimit="10" d="M608.5 153.44h24v26h-24z"/><g fill="#00D096"><path d="M613.324 168.078c0 .893.006 1.786-.004 2.68-.004.25.074.328.334.377.766.143 1.525.32 2.273.527.598.166 1.164.447 1.764.594 2.058.5 4.155.53 6.253.4 1.025-.062 2.045-.236 2.95-.783.606-.365.98-.81.48-1.555-.162-.244-.104-.44.143-.618 1.13-.813 1.156-1.13.19-2.136-.17-.176-.183-.32.024-.465.1-.07.205-.136.295-.216.562-.504.48-1.482-.148-1.8-.578-.29-.578-.29-.38-.9.01-.038.024-.076.036-.115.24-.898-.084-1.432-1-1.572-.355-.055-.73-.04-1.09-.005-1.117.11-2.23.268-3.348.363-1.04.09-1.473-.39-1.254-1.415.106-.493.374-.95.538-1.436.23-.675.502-1.347.62-2.042.122-.71-.175-1.33-.802-1.74-.613-.398-1.12-.242-1.318.455-.53 1.875-1.645 3.396-2.912 4.815-.758.85-1.553 1.655-2.084 2.683-.242.47-.645.82-1.203.86-.325.025-.366.175-.362.442.012.87.004 1.734.006 2.6z"/><path fill-rule="evenodd" clip-rule="evenodd" d="M613.322 168.078c0-.867.008-1.732-.004-2.6-.004-.268.037-.417.36-.44.56-.042.962-.392 1.204-.862.53-1.027 1.326-1.834 2.084-2.683 1.268-1.42 2.38-2.94 2.912-4.815.197-.697.705-.854 1.318-.454.627.41.924 1.03.803 1.74-.12.694-.394 1.366-.622 2.04-.164.485-.432.943-.537 1.438-.218 1.025.214 1.504 1.255 1.415 1.12-.096 2.23-.253 3.348-.363.36-.035.734-.05 1.09.005.916.14 1.24.673 1 1.57l-.037.116c-.197.61-.197.61.38.9.63.316.712 1.295.15 1.8-.09.08-.196.144-.296.214-.207.145-.195.29-.025.465.967 1.006.94 1.322-.19 2.136-.245.18-.304.375-.142.62.502.743.127 1.188-.48 1.554-.905.547-1.925.72-2.95.783-2.098.13-4.195.1-6.252-.4-.6-.146-1.165-.428-1.763-.594-.748-.208-1.508-.385-2.273-.527-.26-.05-.338-.127-.334-.377.01-.896.004-1.79.002-2.682z"/></g><g fill="none" stroke="#00D096" stroke-miterlimit="10"><path d="M620.5 348.94v-2"/><path stroke-dasharray="4,2" d="M620.5 344.94v-233"/><path d="M620.865 111.186v-2h-2"/><path stroke-dasharray="4,2" d="M617 109.44h-44"/><path d="M572 109.44h-2"/></g><g fill="none" stroke="#FFA800" stroke-miterlimit="10"><path d="M591.5 323.94v-2"/><path stroke-dasharray="4,2" d="M591.5 319.94v-190"/><path d="M591.865 129.186v-2h-2"/><path stroke-dasharray="4,2" d="M588 127.44h-16"/><path d="M571 127.44h-2"/></g><g fill="none" stroke="#00D096" stroke-miterlimit="10"><path d="M374.5 250.94v-2"/><path stroke-dasharray="4,2" d="M374.5 246.94v-97"/><path d="M374.5 148.94v-2"/></g><path fill-rule="evenodd" clip-rule="evenodd" fill="#F2F2F2" stroke="#00D096" stroke-miterlimit="10" d="M362.5 155.44h24v26h-24z"/><g fill="#00D096"><path d="M367.324 170.078c0 .893.006 1.786-.004 2.68-.004.25.074.328.334.377.766.143 1.525.32 2.273.527.598.166 1.164.447 1.764.594 2.058.5 4.155.53 6.253.4 1.025-.062 2.045-.236 2.95-.783.606-.365.98-.81.48-1.555-.162-.244-.104-.44.143-.618 1.13-.813 1.156-1.13.19-2.136-.17-.176-.183-.32.024-.465.1-.07.205-.136.295-.216.562-.504.48-1.482-.148-1.8-.578-.29-.578-.29-.38-.9.01-.038.024-.076.036-.115.24-.898-.084-1.432-1-1.572-.355-.055-.73-.04-1.09-.005-1.117.11-2.23.268-3.348.363-1.04.09-1.473-.39-1.254-1.415.106-.493.374-.95.538-1.436.23-.675.502-1.347.62-2.042.122-.71-.175-1.33-.802-1.74-.613-.398-1.12-.242-1.318.455-.53 1.875-1.645 3.396-2.912 4.815-.758.85-1.553 1.655-2.084 2.683-.242.47-.645.82-1.203.86-.325.025-.366.175-.362.442.012.87.004 1.734.006 2.6z"/><path fill-rule="evenodd" clip-rule="evenodd" d="M367.322 170.078c0-.867.008-1.732-.004-2.6-.004-.268.037-.417.36-.44.56-.042.962-.392 1.204-.862.53-1.027 1.326-1.834 2.084-2.683 1.268-1.42 2.38-2.94 2.912-4.815.197-.697.705-.854 1.318-.454.627.41.924 1.03.803 1.74-.12.694-.394 1.366-.622 2.04-.164.485-.432.943-.537 1.438-.218 1.025.214 1.504 1.255 1.415 1.12-.096 2.23-.253 3.348-.363.36-.035.734-.05 1.09.005.916.14 1.24.673 1 1.57l-.037.116c-.197.61-.197.61.38.9.63.316.712 1.295.15 1.8-.09.08-.196.144-.296.214-.207.145-.195.29-.025.465.967 1.006.94 1.322-.19 2.136-.245.18-.304.375-.142.62.502.743.127 1.188-.48 1.554-.905.547-1.925.72-2.95.783-2.098.13-4.195.1-6.252-.4-.6-.146-1.165-.428-1.763-.594-.748-.208-1.508-.385-2.273-.527-.26-.05-.338-.127-.334-.377.01-.896.004-1.79.002-2.682z"/></g><g fill="none" stroke="#00D096" stroke-miterlimit="10"><path d="M450.5 243.94v-2"/><path stroke-dasharray="4,2" d="M450.5 239.94v-90"/><path d="M450.5 148.94v-2"/></g><path fill-rule="evenodd" clip-rule="evenodd" fill="#F2F2F2" stroke="#00D096" stroke-miterlimit="10" d="M438.5 172.44h24v26h-24z"/><g fill="#00D096"><path d="M443.324 187.078c0 .893.006 1.786-.004 2.68-.004.25.074.328.334.377.766.143 1.525.32 2.273.527.598.166 1.164.447 1.764.594 2.058.5 4.155.53 6.253.4 1.025-.062 2.045-.236 2.95-.783.606-.365.98-.81.48-1.555-.162-.244-.104-.44.143-.618 1.13-.813 1.156-1.13.19-2.136-.17-.176-.183-.32.024-.465.1-.07.205-.136.295-.216.562-.504.48-1.482-.148-1.8-.578-.29-.578-.29-.38-.9.01-.038.024-.076.036-.115.24-.898-.084-1.432-1-1.572-.355-.055-.73-.04-1.09-.005-1.117.11-2.23.268-3.348.363-1.04.09-1.473-.39-1.254-1.415.106-.493.374-.95.538-1.436.23-.675.502-1.347.62-2.042.122-.71-.175-1.33-.802-1.74-.613-.398-1.12-.242-1.318.455-.53 1.875-1.645 3.396-2.912 4.815-.758.85-1.553 1.655-2.084 2.683-.242.47-.645.82-1.203.86-.325.025-.366.175-.362.442.012.87.004 1.734.006 2.6z"/><path fill-rule="evenodd" clip-rule="evenodd" d="M443.322 187.078c0-.867.008-1.732-.004-2.6-.004-.268.037-.417.36-.44.56-.042.962-.392 1.204-.862.53-1.027 1.326-1.834 2.084-2.683 1.268-1.42 2.38-2.94 2.912-4.815.197-.697.705-.854 1.318-.454.627.41.924 1.03.803 1.74-.12.694-.394 1.366-.622 2.04-.164.485-.432.943-.537 1.438-.218 1.025.214 1.504 1.255 1.415 1.12-.096 2.23-.253 3.348-.363.36-.035.734-.05 1.09.005.916.14 1.24.673 1 1.57l-.037.116c-.197.61-.197.61.38.9.63.316.712 1.295.15 1.8-.09.08-.196.144-.296.214-.207.145-.195.29-.025.465.967 1.006.94 1.322-.19 2.136-.245.18-.304.375-.142.62.502.743.127 1.188-.48 1.554-.905.547-1.925.72-2.95.783-2.098.13-4.195.1-6.252-.4-.6-.146-1.165-.428-1.763-.594-.748-.208-1.508-.385-2.273-.527-.26-.05-.338-.127-.334-.377.01-.896.004-1.79.002-2.682z"/></g><g fill="none" stroke="#E95A78" stroke-miterlimit="10"><path d="M404.5 286.94v-2"/><path stroke-dasharray="4,2" d="M404.5 282.94v-133"/><path d="M404.5 148.94v-2"/></g><path fill-rule="evenodd" clip-rule="evenodd" fill="#F2F2F2" stroke="#E95A78" stroke-miterlimit="10" d="M392.5 190.44h24v26h-24z"/><g fill="#E95A78"><path d="M412.396 199.652c0-.895-.006-1.787.004-2.68.004-.25-.074-.33-.334-.378-.766-.144-1.525-.32-2.273-.528-.598-.166-1.164-.446-1.764-.592-2.058-.5-4.155-.53-6.253-.402-1.025.063-2.045.238-2.95.785-.606.365-.98.81-.48 1.555.162.242.104.44-.143.617-1.13.813-1.156 1.13-.19 2.136.17.176.183.32-.024.465-.1.07-.205.135-.295.216-.562.502-.48 1.48.148 1.798.578.292.578.292.38.9-.01.04-.024.077-.036.116-.24.898.084 1.432 1 1.572.355.055.73.04 1.09.004 1.117-.11 2.23-.268 3.348-.363 1.04-.09 1.473.39 1.254 1.416-.106.493-.374.95-.538 1.435-.23.674-.502 1.346-.62 2.043-.122.707.175 1.33.802 1.738.613.398 1.12.243 1.318-.453.53-1.877 1.645-3.396 2.912-4.816.758-.848 1.553-1.656 2.084-2.682.242-.47.645-.82 1.203-.862.325-.024.366-.173.362-.442-.01-.865-.004-1.732-.006-2.598z"/><path fill-rule="evenodd" clip-rule="evenodd" d="M412.398 199.652c0 .865-.008 1.732.004 2.598.004.27-.037.418-.36.442-.56.042-.962.392-1.204.862-.53 1.025-1.326 1.834-2.084 2.682-1.268 1.42-2.38 2.94-2.912 4.816-.197.696-.705.852-1.318.453-.627-.408-.924-1.03-.803-1.738.12-.697.394-1.37.622-2.043.164-.484.432-.94.537-1.436.218-1.026-.214-1.506-1.255-1.416-1.12.096-2.23.254-3.348.363-.36.035-.734.05-1.09-.004-.916-.14-1.24-.673-1-1.57l.037-.116c.197-.61.197-.61-.38-.9-.63-.317-.712-1.297-.15-1.8.09-.08.196-.145.296-.214.207-.146.195-.29.025-.465-.967-1.006-.94-1.322.19-2.137.245-.178.304-.375.142-.617-.502-.745-.127-1.188.48-1.554.905-.547 1.925-.722 2.95-.785 2.098-.128 4.195-.098 6.252.403.6.146 1.165.426 1.763.592.748.21 1.508.385 2.273.528.26.05.338.128.334.378-.01.895-.004 1.788-.002 2.682z"/></g><g fill="none" stroke="#00D096" stroke-miterlimit="10"><path d="M303.5 278.94v-2"/><path stroke-dasharray="3.9868,1.9934" d="M303.5 274.94V125.938"/><path d="M303.865 125.186v-2h2"/><path stroke-dasharray="5,2" d="M308 123.44h6"/><path d="M315 123.44h2"/></g><g fill="none" stroke="#FFA800" stroke-miterlimit="10"><path d="M316 108.44h-2"/><path stroke-dasharray="4,2" d="M312 108.44h-50"/><path d="M260.865 108.186h-2v2"/><path stroke-dasharray="3.9643,1.9821" d="M258.5 111.94v218.999"/><path d="M258.865 332.186v2h2"/><path stroke-dasharray="3,2" d="M262 334.44h5"/><path d="M267 334.44h2"/></g><path fill-rule="evenodd" clip-rule="evenodd" fill="#F2F2F2" stroke="#FFA800" stroke-miterlimit="10" d="M246.5 176.44h24v26h-24z"/><g fill-rule="evenodd" clip-rule="evenodd" fill="#FFA800"><path d="M261.168 184.454c-.068-1.4-.965-1.95-2.033-1.405-.21.108-.602.234-.68.124-.946-1.393-1.824-1.062-2.588.168-1.423-1.126-1.418-1.12-2.588.234-.137.157-.37.285-.555.277-1.4-.058-1.808.454-1.642 2.168.182 1.847.344 3.698.59 5.532.06.435.425.81.65 1.21.202-.416.567-.825.578-1.25.007-.203.002-.407-.005-.61.092-.036.176-.1.234-.218.066-.138.127-.277.19-.417.156.062.31.13.47.185.034.726.075 1.45.17 2.164.077.574.56 1.494.886 1.513.736.038.798-.853.78-1.597-.014-.522-.03-1.045-.047-1.567.13.033.264.065.395.1.21.077.416.167.622.255.038.65.074 1.302.117 1.952.054.777.19 1.73 1.007 1.475.366-.115.735-1.13.758-1.752.02-.567-.25-1.136-.263-1.704.027-.06-.218-.123-.218-.19v-.946c0-.428.67-.883.722-1.326.124-.09.344-.23.344-.395-.004-.334.157-1.87-.538-1.86.002-.016.04-.032.042-.05l.494-.006c.098.527.268 1.05.293 1.583.07 1.505.06 3.017.136 4.522.038.77.23 1.705 1.03 1.515.368-.09.848-1.02.852-1.57.016-2.706-.073-5.413-.204-8.113zm-8.145 3.208c.082.094.175.182.267.27l.165.152c-.12.122-.247.23-.35.377-.1.138-.184.285-.262.437-.02-.01-.044-.018-.066-.027-.008-.18-.018-.36-.017-.54.002-.225.13-.446.263-.668zm3.223 2.445c-.23-.082-.46-.158-.69-.235-.003-.064-.003-.13-.004-.194.094-.02.188-.05.283-.08h.65c.013.193.028.386.04.578-.092-.023-.185-.045-.28-.07zM261.73 189.777v-4.408c1.072 1.645 2.29 1.57 3.71 1.13.81-.252 1.812.08 2.628.488.787.395.864 1.557.133 2.092-.817.596-1.798 1.014-2.73 1.094-1.166.097-2.353-.23-3.74-.397z"/></g><path fill-rule="evenodd" clip-rule="evenodd" fill="#F2F2F2" stroke="#FFA800" stroke-miterlimit="10" d="M579.5 198.44h24v26h-24z"/><g fill-rule="evenodd" clip-rule="evenodd" fill="#FFA800"><path d="M593.63 206.858c-.068-1.4-.965-1.95-2.033-1.405-.21.11-.602.235-.68.125-.946-1.393-1.824-1.062-2.588.168-1.424-1.126-1.42-1.12-2.59.234-.135.157-.37.285-.553.277-1.4-.058-1.808.454-1.642 2.168.182 1.846.344 3.697.59 5.53.06.436.425.81.65 1.212.202-.417.567-.826.578-1.25.006-.204 0-.408-.006-.61.092-.037.176-.1.234-.22.068-.137.13-.276.19-.416.158.063.313.132.473.186.033.726.074 1.45.17 2.164.076.574.56 1.494.885 1.513.736.04.798-.852.78-1.596-.014-.522-.03-1.045-.047-1.567.133.033.266.065.397.1.21.077.416.167.622.255.037.65.073 1.3.116 1.95.054.778.19 1.73 1.007 1.476.365-.114.734-1.128.757-1.75.02-.568-.48-1.137-.494-1.705.027-.06-.448-.124-.448-.19v-.947c0-.428.9-.883.952-1.326.125-.09.462-.23.46-.395-.004-.334.216-1.87-.48-1.86.003-.016.068-.032.072-.05l.508-.006c.098.528.275 1.052.3 1.584.07 1.505.063 3.017.14 4.522.037.77.232 1.705 1.03 1.515.37-.088.85-1.018.854-1.57.015-2.704-.073-5.41-.204-8.112zm-8.145 3.208c.082.094.175.182.267.27l.165.152c-.12.122-.247.23-.35.377-.1.137-.184.284-.262.436-.02-.01-.044-.017-.066-.026-.01-.18-.02-.36-.018-.54.002-.224.13-.446.263-.668zm3.223 2.446c-.23-.082-.46-.158-.69-.235-.003-.064-.003-.13-.004-.194.094-.02.188-.05.283-.08h.65c.013.193.028.386.04.578l-.28-.068zM594.192 212.182v-4.408c1.072 1.646 2.29 1.572 3.71 1.13.81-.25 1.812.08 2.628.49.787.394.864 1.556.133 2.09-.818.597-1.8 1.015-2.73 1.095-1.167.096-2.354-.23-3.74-.398z"/></g><path fill-rule="evenodd" clip-rule="evenodd" fill="#fff" stroke="#D6D6D6" stroke-miterlimit="10" d="M569.5 134.255c0 6.313-4.604 12.185-11.363 12.185H325.613c-6.758 0-13.113-5.87-13.113-12.185V84.723c0-6.312 6.355-10.283 13.113-10.283h232.523c6.76 0 11.363 3.97 11.363 10.283v49.532z"/><path fill-rule="evenodd" clip-rule="evenodd" fill="#E95A78" d="M498.958 90.686l-13.25-40.776c4.505-1.465 8.514-2.1 13.25-2.1v42.876z"/><path fill-rule="evenodd" clip-rule="evenodd" fill="#FFA800" d="M498.958 90.686l-40.776 13.25c-7.317-22.52 5.007-46.71 27.527-54.025l13.248 40.776z"/><path fill-rule="evenodd" clip-rule="evenodd" fill="#00D096" d="M498.958 90.686V47.81c23.68 0 42.875 19.197 42.875 42.876 0 23.68-19.195 42.875-42.875 42.875-18.943 0-34.923-11.608-40.776-29.624l40.776-13.25z"/><g fill="#fff"><path d="M364.307 119.963zM364.32 119.764c0-.018-.004-.037-.008-.055l-.132.02.126-.06c0-.033-.008-.067-.012-.1-.006-.02-.014-.035-.02-.054l-.124.047.114-.09c-.01-.03-.02-.06-.03-.085-.01-.017-.02-.03-.043-.075-.014-.03-.03-.062-.053-.093-.006-.012-.014-.02-.037-.047-.023-.034-.053-.067-.082-.097-.007-.01-.017-.02-.035-.028-.034-.034-.074-.065-.113-.092-.008-.007-.02-.014-.037-.02-.043-.026-.084-.05-.133-.07-.013-.004-.024-.01-.054-.016-.043-.014-.083-.028-.132-.037-3.926-.693-7.11-2.115-9.467-4.224-.04-.035-.075-.07-.11-.106l-.09-.09c-.247-.228-.455-.435-.636-.63l-.06-.066-.035-.043c-.47-.488-1.002-1.26-1.104-1.408l-.063-.094c-1.066-1.605-1.73-3.425-1.98-5.405-.398-3.313.23-7.247 1.37-8.59.293-.35.49-.35.556-.35.066 0 .26 0 .556.342 1.12 1.323 1.74 5.26 1.352 8.6-.152 1.288-.484 2.52-.994 3.66l-.027.063.034.06c.342.617.965 1.226 1.215 1.46l.13.122.084-.16c.77-1.518 1.268-3.188 1.48-4.963.403-3.467-.17-8.217-1.82-10.165-.724-.845-1.49-1.022-2.01-1.022-.516 0-1.286.178-2.01 1.032-1.673 1.975-2.247 6.716-1.84 10.158.302 2.507 1.167 4.772 2.57 6.732-2.388 2.573-6.02 4.343-10.515 5.115-.527.09-.88.606-.796 1.15.077.485.48.84.953.84.053 0 .105-.005.16-.014 4.84-.835 8.806-2.754 11.474-5.558.018.017.034.03.05.048.038.034.077.07.112.106.215.22.472.477.748.727.035.032.072.062.105.09l.076.063c.32.28.65.545.983.788l.104.074c.373.27.775.538 1.21.804 2.24 1.355 4.888 2.304 7.875 2.822l.022-.134.02.14c.053.01.105.017.172.016.098-.003.2-.02.297-.058l.043-.014c.092-.037.178-.09.256-.156l-.088-.104.118.076c.077-.07.142-.15.19-.238l.014-.03c.055-.105.092-.207.105-.3.005-.01.005-.018.005-.018l.006-.073c.01-.04.012-.08.01-.123zm-.317-.5zm-.392-.28v-.002.002zM377.316 114.328h-4.753v-9.1c0-.25 0-.445-.122-.63-.126-.19-.407-.304-.743-.304-.322 0-.602.116-.73.305-.12.183-.12.38-.12.63v9.807c0 .575.257.832.833.832h5.636c.25 0 .44-.024.62-.144.174-.133.263-.348.263-.637 0-.348-.146-.53-.274-.626-.168-.114-.36-.136-.61-.136zM384.533 104.12c-3.544 0-5.926 2.415-5.926 6.013 0 3.578 2.363 5.98 5.877 5.98 3.542 0 5.927-2.417 5.927-6.015 0-3.576-2.362-5.977-5.877-5.977zm0 10.503c-2.605 0-4.155-1.69-4.155-4.524 0-2.812 1.533-4.488 4.106-4.488 2.602 0 4.156 1.69 4.156 4.52 0 2.81-1.536 4.49-4.107 4.49zM397.838 104.12c-3.542 0-5.924 2.415-5.924 6.013 0 3.578 2.36 5.98 5.873 5.98 3.546 0 5.93-2.417 5.93-6.015 0-3.576-2.363-5.977-5.88-5.977zm0 10.503c-2.604 0-4.158-1.69-4.158-4.524 0-2.812 1.54-4.488 4.107-4.488 2.605 0 4.16 1.69 4.16 4.52 0 2.81-1.535 4.49-4.11 4.49zM417.438 105.326c-.035-.44-.094-.646-.215-.787-.146-.177-.355-.263-.652-.263-.66 0-.874.424-1.1.874l-3.664 7.48-3.592-7.48c-.24-.494-.475-.873-1.085-.873-.368 0-.576.148-.66.234-.208.19-.242.487-.274.78l-.977 9.527c-.01.064-.012.117-.024.166-.014.084-.027.164-.027.28 0 .478.263.708.813.708.686 0 .813-.36.846-.716l.75-7.772 3.317 6.972c.21.44.396.753.856.753.506 0 .67-.345.862-.74l3.383-6.966.68 7.753c.04.484.328.72.885.72.555 0 .816-.214.816-.676 0-.11-.02-.362-.036-.532l-.906-9.44zM421.617 104.295c-.322 0-.6.116-.727.305-.123.184-.123.38-.123.63v9.808c0 .25 0 .447.123.63.13.192.404.306.744.306.322 0 .6-.116.728-.307.122-.182.122-.38.122-.63v-9.807c0-.25 0-.446-.122-.63-.127-.192-.41-.305-.745-.305zM430.765 104.12c-3.544 0-5.925 2.415-5.925 6.013 0 3.578 2.36 5.98 5.872 5.98 3.548 0 5.93-2.417 5.93-6.015 0-3.576-2.363-5.977-5.877-5.977zm0 10.503c-2.604 0-4.157-1.69-4.157-4.524 0-2.812 1.535-4.488 4.104-4.488 2.605 0 4.16 1.69 4.16 4.52 0 2.81-1.536 4.49-4.107 4.49z"/></g><g fill="#4F4E4E"><path d="M364.307 118.963zM364.32 118.764c0-.018-.004-.037-.008-.055l-.132.02.126-.06c0-.033-.008-.067-.012-.1-.006-.02-.014-.035-.02-.054l-.124.047.114-.09c-.01-.03-.02-.06-.03-.085-.01-.017-.02-.03-.043-.075-.014-.03-.03-.062-.053-.093-.006-.012-.014-.02-.037-.047-.023-.034-.053-.067-.082-.097-.007-.01-.017-.02-.035-.028-.034-.034-.074-.065-.113-.092-.008-.007-.02-.014-.037-.02-.043-.026-.084-.05-.133-.07-.013-.004-.024-.01-.054-.016-.043-.014-.083-.028-.132-.037-3.926-.693-7.11-2.115-9.467-4.224-.04-.035-.075-.07-.11-.106l-.09-.09c-.247-.228-.455-.435-.636-.63l-.06-.066-.035-.043c-.47-.488-1.002-1.26-1.104-1.408l-.063-.094c-1.066-1.605-1.73-3.425-1.98-5.405-.398-3.313.23-7.247 1.37-8.59.293-.35.49-.35.556-.35.066 0 .26 0 .556.342 1.12 1.323 1.74 5.26 1.352 8.6-.152 1.288-.484 2.52-.994 3.66l-.027.063.034.06c.342.617.965 1.226 1.215 1.46l.13.122.084-.16c.77-1.518 1.268-3.188 1.48-4.963.403-3.467-.17-8.217-1.82-10.165-.724-.845-1.49-1.022-2.01-1.022-.516 0-1.286.178-2.01 1.032-1.673 1.975-2.247 6.716-1.84 10.158.302 2.507 1.167 4.772 2.57 6.732-2.388 2.573-6.02 4.343-10.515 5.115-.527.09-.88.606-.796 1.15.077.485.48.84.953.84.053 0 .105-.005.16-.014 4.84-.835 8.806-2.754 11.474-5.558.018.017.034.03.05.048.038.034.077.07.112.106.215.22.472.477.748.727.035.032.072.062.105.09l.076.063c.32.28.65.545.983.788l.104.074c.373.27.775.538 1.21.804 2.24 1.355 4.888 2.304 7.875 2.822l.022-.134.02.14c.053.01.105.017.172.016.098-.003.2-.02.297-.058l.043-.014c.092-.037.178-.09.256-.156l-.088-.104.118.076c.077-.07.142-.15.19-.238l.014-.03c.055-.105.092-.207.105-.3.005-.01.005-.018.005-.018l.006-.073c.01-.04.012-.08.01-.123zm-.317-.5zm-.392-.28v-.002.002zM377.316 113.328h-4.753v-9.1c0-.25 0-.445-.122-.63-.126-.19-.407-.304-.743-.304-.322 0-.602.116-.73.305-.12.183-.12.38-.12.63v9.807c0 .575.257.832.833.832h5.636c.25 0 .44-.024.62-.144.174-.133.263-.348.263-.637 0-.348-.146-.53-.274-.626-.168-.114-.36-.136-.61-.136zM384.533 103.12c-3.544 0-5.926 2.415-5.926 6.013 0 3.578 2.363 5.98 5.877 5.98 3.542 0 5.927-2.417 5.927-6.015 0-3.576-2.362-5.977-5.877-5.977zm0 10.503c-2.605 0-4.155-1.69-4.155-4.524 0-2.812 1.533-4.488 4.106-4.488 2.602 0 4.156 1.69 4.156 4.52 0 2.81-1.536 4.49-4.107 4.49zM397.838 103.12c-3.542 0-5.924 2.415-5.924 6.013 0 3.578 2.36 5.98 5.873 5.98 3.546 0 5.93-2.417 5.93-6.015 0-3.576-2.363-5.977-5.88-5.977zm0 10.503c-2.604 0-4.158-1.69-4.158-4.524 0-2.812 1.54-4.488 4.107-4.488 2.605 0 4.16 1.69 4.16 4.52 0 2.81-1.535 4.49-4.11 4.49zM417.438 104.326c-.035-.44-.094-.646-.215-.787-.146-.177-.355-.263-.652-.263-.66 0-.874.424-1.1.874l-3.664 7.48-3.592-7.48c-.24-.494-.475-.873-1.085-.873-.368 0-.576.148-.66.234-.208.19-.242.487-.274.78l-.977 9.527c-.01.064-.012.117-.024.166-.014.084-.027.164-.027.28 0 .478.263.708.813.708.686 0 .813-.36.846-.716l.75-7.772 3.317 6.972c.21.44.396.753.856.753.506 0 .67-.345.862-.74l3.383-6.966.68 7.753c.04.484.328.72.885.72.555 0 .816-.214.816-.676 0-.11-.02-.362-.036-.532l-.906-9.44zM421.617 103.295c-.322 0-.6.116-.727.305-.123.184-.123.38-.123.63v9.808c0 .25 0 .447.123.63.13.192.404.306.744.306.322 0 .6-.116.728-.307.122-.182.122-.38.122-.63v-9.807c0-.25 0-.446-.122-.63-.127-.192-.41-.305-.745-.305zM430.765 103.12c-3.544 0-5.925 2.415-5.925 6.013 0 3.578 2.36 5.98 5.872 5.98 3.548 0 5.93-2.417 5.93-6.015 0-3.576-2.363-5.977-5.877-5.977zm0 10.503c-2.604 0-4.157-1.69-4.157-4.524 0-2.812 1.535-4.488 4.104-4.488 2.605 0 4.16 1.69 4.16 4.52 0 2.81-1.536 4.49-4.107 4.49z"/></g><path fill-rule="evenodd" clip-rule="evenodd" fill="#F2F2F2" stroke="#00D096" stroke-miterlimit="10" d="M291.5 154.44h24v26h-24z"/><g fill="#00D096"><path d="M296.324 169.078c0 .893.006 1.786-.004 2.68-.004.25.074.328.334.377.766.143 1.525.32 2.273.527.598.166 1.164.447 1.764.594 2.058.5 4.155.53 6.253.4 1.025-.062 2.045-.236 2.95-.783.606-.365.98-.81.48-1.555-.162-.244-.104-.44.143-.618 1.13-.813 1.156-1.13.19-2.136-.17-.176-.183-.32.024-.465.1-.07.205-.136.295-.216.562-.504.48-1.482-.148-1.8-.578-.29-.578-.29-.38-.9.01-.038.024-.076.036-.115.24-.898-.084-1.432-1-1.572-.355-.055-.73-.04-1.09-.005-1.117.11-2.23.268-3.348.363-1.04.09-1.473-.39-1.254-1.415.106-.493.374-.95.538-1.436.23-.675.502-1.347.62-2.042.122-.71-.175-1.33-.802-1.74-.613-.398-1.12-.242-1.318.455-.53 1.875-1.645 3.396-2.912 4.815-.758.85-1.553 1.655-2.084 2.683-.242.47-.645.82-1.203.86-.325.025-.366.175-.362.442.012.87.004 1.734.006 2.6z"/><path fill-rule="evenodd" clip-rule="evenodd" d="M296.322 169.078c0-.867.008-1.732-.004-2.6-.004-.268.037-.417.36-.44.56-.042.962-.392 1.204-.862.53-1.027 1.326-1.834 2.084-2.683 1.268-1.42 2.38-2.94 2.912-4.815.197-.697.705-.854 1.318-.454.627.41.924 1.03.803 1.74-.12.694-.394 1.366-.622 2.04-.164.485-.432.943-.537 1.438-.218 1.025.214 1.504 1.255 1.415 1.12-.096 2.23-.253 3.348-.363.36-.035.734-.05 1.09.005.916.14 1.24.673 1 1.57l-.037.116c-.197.61-.197.61.38.9.63.316.712 1.295.15 1.8-.09.08-.196.144-.296.214-.207.145-.195.29-.025.465.967 1.006.94 1.322-.19 2.136-.245.18-.304.375-.142.62.502.743.127 1.188-.48 1.554-.905.547-1.925.72-2.95.783-2.098.13-4.195.1-6.252-.4-.6-.146-1.165-.428-1.763-.594-.748-.208-1.508-.385-2.273-.527-.26-.05-.338-.127-.334-.377.01-.896.004-1.79.002-2.682z"/></g><g opacity=".35"><ellipse fill-rule="evenodd" clip-rule="evenodd" fill="#EAEAEA" cx="670.822" cy="325.026" rx="9.487" ry="3.159"/><g fill-rule="evenodd" clip-rule="evenodd" fill="#C2C2C4"><path d="M665.282 295.366c3.91 2.825 6.716 2.825 11.246 0 1.74 2.206 2.337 4.696 2.782 7.42.172 1.038.463 3.48.41 4.534-.12 2.493-.643 2.573-1.3 3.023-.28.19-.413.662-.466 1.023-.422 2.98-1.01 5.953-1.16 8.948-.225 4.54-5.213 6.038-8.247 4.792-2.075-.852-3.34-2.294-3.58-4.64-.312-3.032-.766-6.05-1.216-9.065-.065-.45-.04-1.096-.678-1.28 0 0-1.24-.51-1.24-2.672-.065-3.914.57-7.715 2.67-11.135.144-.23.637-.825.78-.947zM677.452 289.325c-.058 3.582-3.08 6.526-6.667 6.497-3.627-.027-6.555-3.072-6.516-6.766.038-3.598 3.028-6.495 6.665-6.46 3.672.035 6.576 3.033 6.517 6.73z"/></g></g></g></svg>