<?xml version="1.0" encoding="utf-8"?>
<!-- Generator: Adobe Illustrator 16.0.0, SVG Export Plug-In . SVG Version: 6.00 Build 0)  -->
<!DOCTYPE svg PUBLIC "-//W3C//DTD SVG 1.1//EN" "http://www.w3.org/Graphics/SVG/1.1/DTD/svg11.dtd">
<svg version="1.1" id="Layer_1" xmlns="http://www.w3.org/2000/svg" xmlns:xlink="http://www.w3.org/1999/xlink" x="0px" y="0px"
	 width="491.957px" height="495.375px" viewBox="188.352 47.81 491.957 495.375"
	 enable-background="new 188.352 47.81 491.957 495.375" xml:space="preserve">
<g>
	<g enable-background="new    ">
		<path fill="#D6D6D6" d="M623.715,303.97l-0.207,4.284l-38.79,13.422l0.205-4.284L623.715,303.97z M231.98,368.89l0.21-4.284
			c0.36-7.433,2.022-14.856,5.021-22.184c11.872-29.016,43.21-53.01,88.229-67.56c9.675-3.126,19.917-5.745,30.425-7.78
			c84.283-16.32,180.504,4.678,229.059,50.31l-0.206,4.284c-48.558-45.633-144.777-66.63-229.061-50.31
			c-10.507,2.035-20.75,4.653-30.423,7.778c-45.02,14.55-76.357,38.545-88.231,67.562
			C234.006,354.033,232.342,361.456,231.98,368.89L231.98,368.89z"/>
		<path fill="#EFEFEF" d="M249.607,418.838c-12.464-15.967-18.442-32.972-17.627-49.937l0.21-4.283
			c-0.708,14.66,3.66,29.35,12.902,43.374l-0.05,1.063l0.05-1.062c4.628,7.021,10.478,13.877,17.521,20.478
			c54.101,50.69,161.896,74.21,256.326,55.92c11.771-2.277,23.217-5.201,34.05-8.699c65.577-21.19,102.376-59.647,104.317-100.511
			l-0.206,4.285c-1.94,40.862-38.738,79.317-104.318,100.51c-10.832,3.497-22.279,6.423-34.05,8.7
			c-94.43,18.287-202.226-5.229-256.324-55.92c-4.833-4.53-9.103-9.177-12.801-13.915c-0.213-0.43-0.439-0.854-0.657-1.279
			c0.218,0.426,0.444,0.85,0.656,1.279V418.838z M248.992,417.599l-0.023-0.043l-0.026-0.046l-0.024-0.05l-0.024-0.046l-0.026-0.05
			l-0.025-0.051l-0.024-0.049l-0.023-0.049l-0.023-0.048l-0.023-0.048l-0.024-0.045l-0.02-0.045l-0.022-0.042l-0.02-0.04
			l-0.018-0.04l-0.016-0.034l0.017,0.035l0.019,0.037l0.02,0.039l0.021,0.043l0.02,0.046l0.024,0.045l0.022,0.048l0.023,0.048
			l0.024,0.05l0.025,0.049l0.024,0.05l0.025,0.05l0.023,0.047l0.023,0.05l0.025,0.046l0.021,0.043 M248.59,416.633v0.025
			l0.003,0.015v0.016l0.004,0.019l0.004,0.019l0.002,0.018l0.003,0.02l0.006,0.018l0.002,0.02l0.003,0.018l0.004,0.017v0.017
			l0.003,0.017v0.024v-0.026l-0.002-0.015v-0.017l-0.005-0.017l-0.003-0.018l-0.002-0.02l-0.005-0.018l-0.002-0.02l-0.002-0.018
			l-0.004-0.018l-0.003-0.018l-0.002-0.015l-0.003-0.016L248.59,416.633 M248.591,416.63l-0.101-0.216l-0.103-0.228l-0.104-0.232
			l-0.11-0.24l-0.11-0.244l-0.112-0.25l-0.114-0.25l-0.114-0.256l-0.113-0.256l-0.112-0.255l-0.113-0.254l-0.112-0.248l-0.107-0.248
			l-0.11-0.24l-0.104-0.235l-0.1-0.228l0.1,0.228l0.104,0.236l0.11,0.24l0.106,0.248l0.112,0.25l0.113,0.253l0.112,0.254
			l0.113,0.255l0.114,0.254l0.114,0.25l0.112,0.25l0.11,0.244l0.11,0.24l0.104,0.232l0.104,0.228L248.591,416.63 M246.847,412.755
			l-0.074-0.168l-0.085-0.182l-0.092-0.194l-0.1-0.21l-0.106-0.218l-0.113-0.229l-0.116-0.238l-0.122-0.244l-0.123-0.25l-0.13-0.258
			l-0.129-0.258l-0.133-0.262l-0.13-0.26l-0.133-0.262l-0.13-0.26l-0.13-0.256l0.13,0.256l0.13,0.26l0.132,0.261l0.13,0.26
			l0.133,0.263l0.129,0.258l0.13,0.258l0.123,0.25l0.123,0.244l0.115,0.24l0.112,0.228l0.106,0.22l0.1,0.208l0.093,0.194
			l0.086,0.182L246.847,412.755"/>
		<path fill="#D6D6D6" d="M658.514,375.38l-0.208,4.282c-1.987,41.103-38.99,79.68-104.832,100.955
			c-10.895,3.517-22.423,6.465-34.26,8.757c-95.016,18.4-203.48-5.267-257.905-56.267c-21.26-19.921-31.702-42.132-30.63-64.28
			l0.207-4.283c-1.07,22.146,9.373,44.359,30.63,64.28c54.425,51,162.89,74.666,257.907,56.265
			c11.834-2.293,23.362-5.24,34.256-8.757c65.843-21.274,102.844-59.854,104.834-100.954L658.514,375.38z M624.11,302.95
			c66.065,61.91,34.311,139.54-70.43,173.383c-10.895,3.518-22.423,6.464-34.257,8.756c-95.021,18.4-203.482-5.267-257.906-56.267
			c-28.439-26.648-37.524-57.403-25.575-86.612c11.942-29.2,43.493-53.35,88.812-67.995c9.743-3.145,20.045-5.783,30.63-7.832
			c84.663-16.396,181.296,4.61,230.04,49.947L624.11,302.95L624.11,302.95z M552.99,475.688
			c103.94-33.591,135.584-110.548,70.726-171.721l-38.792,13.423c-48.555-45.63-144.774-66.63-229.059-50.31
			c-10.508,2.036-20.75,4.655-30.424,7.78c-45.02,14.55-76.357,38.545-88.229,67.56c-11.865,29.017-2.851,59.576,25.404,86.047
			c54.101,50.69,161.896,74.21,256.326,55.92c11.771-2.277,23.218-5.2,34.05-8.7"/>
		<path fill="#D6D6D6" d="M657.307,375.24l-0.207,4.284c1.156-23.923-9.633-48.675-33.592-71.271l0.207-4.286
			C647.675,326.566,658.465,351.318,657.307,375.24z"/>
		<path fill="#FFFFFF" d="M355.865,267.082c84.283-16.322,180.504,4.678,228.761,49.875l39.09-12.988
			c64.856,61.17,33.217,138.13-70.726,171.719c-10.832,3.497-22.279,6.422-34.05,8.699c-94.43,18.29-202.226-5.229-256.324-55.92
			c-28.256-26.47-37.271-57.03-25.407-86.046c11.874-29.017,43.212-53.01,88.234-67.56
			C335.115,271.735,345.357,269.116,355.865,267.082L355.865,267.082z"/>
	</g>
	<ellipse fill="#EAEAEA" cx="405.528" cy="339.602" rx="11.917" ry="3.968"/>
	<g>
		<path fill="#00D096" d="M398.568,302.348c4.91,3.55,8.437,3.55,14.127,0.002c2.185,2.77,2.935,5.897,3.494,9.316
			c0.215,1.307,0.58,4.375,0.515,5.697c-0.151,3.13-0.81,3.231-1.635,3.798c-0.352,0.242-0.518,0.832-0.583,1.285
			c-0.53,3.742-1.27,7.478-1.456,11.24c-0.282,5.702-6.55,7.583-10.357,6.02c-2.607-1.072-4.194-2.883-4.498-5.83
			c-0.391-3.807-0.96-7.598-1.525-11.385c-0.085-0.566-0.054-1.377-0.854-1.61c0,0-1.561-0.638-1.561-3.355
			c-0.08-4.916,0.716-9.69,3.356-13.986C397.77,303.248,398.39,302.503,398.568,302.348z M413.854,294.762
			c-0.07,4.498-3.865,8.197-8.373,8.16c-4.55-0.035-8.233-3.86-8.182-8.498c0.05-4.52,3.804-8.158,8.372-8.113
			c4.609,0.044,8.258,3.81,8.184,8.452L413.854,294.762z"/>
	</g>
	<ellipse fill="#EAEAEA" cx="280.277" cy="363.218" rx="11.916" ry="3.968"/>
	<g>
		<path fill="#00ACD0" d="M273.318,325.965c4.91,3.547,8.435,3.547,14.126,0c2.187,2.77,2.935,5.898,3.496,9.317
			c0.214,1.306,0.58,4.374,0.516,5.697c-0.15,3.13-0.809,3.23-1.635,3.797c-0.353,0.24-0.52,0.83-0.584,1.283
			c-0.529,3.742-1.268,7.48-1.454,11.24c-0.282,5.703-6.551,7.584-10.36,6.02c-2.605-1.07-4.192-2.882-4.495-5.83
			c-0.392-3.807-0.962-7.598-1.526-11.385c-0.085-0.566-0.053-1.377-0.854-1.61c0,0-1.559-0.638-1.561-3.354
			c-0.079-4.915,0.721-9.688,3.356-13.984c0.18-0.293,0.8-1.037,0.978-1.19L273.318,325.965z M288.604,318.377
			c-0.069,4.5-3.865,8.197-8.373,8.16c-4.552-0.035-8.231-3.86-8.183-8.497c0.05-4.52,3.804-8.158,8.373-8.114
			C285.031,309.969,288.679,313.736,288.604,318.377L288.604,318.377z"/>
	</g>
	<ellipse fill="#EAEAEA" cx="467.672" cy="337.218" rx="11.916" ry="3.968"/>
	<g>
		<path fill="#E95A78" d="M460.713,299.965c4.909,3.547,8.436,3.547,14.125,0c2.186,2.77,2.936,5.898,3.496,9.317
			c0.215,1.306,0.579,4.374,0.517,5.697c-0.15,3.13-0.81,3.23-1.635,3.797c-0.353,0.24-0.521,0.83-0.584,1.283
			c-0.528,3.742-1.271,7.48-1.454,11.24c-0.283,5.703-6.55,7.584-10.36,6.02c-2.605-1.07-4.192-2.882-4.496-5.83
			c-0.392-3.807-0.96-7.598-1.525-11.385c-0.086-0.566-0.054-1.377-0.854-1.61c0,0-1.56-0.638-1.56-3.354
			c-0.08-4.915,0.716-9.688,3.354-13.984c0.18-0.293,0.8-1.037,0.979-1.19L460.713,299.965z M475.997,292.377
			c-0.069,4.5-3.864,8.197-8.372,8.16c-4.554-0.035-8.234-3.86-8.185-8.497c0.052-4.52,3.806-8.158,8.372-8.114
			C472.427,283.969,476.073,287.736,475.997,292.377L475.997,292.377z"/>
	</g>
	<ellipse fill="#EAEAEA" cx="516.834" cy="378.218" rx="11.916" ry="3.968"/>
	<g>
		<path fill="#80529B" d="M509.877,340.965c4.909,3.547,8.435,3.547,14.125,0c2.186,2.77,2.934,5.898,3.494,9.317
			c0.217,1.306,0.58,4.374,0.516,5.697c-0.15,3.13-0.808,3.23-1.633,3.797c-0.355,0.24-0.521,0.83-0.585,1.283
			c-0.53,3.742-1.271,7.48-1.457,11.24c-0.282,5.703-6.551,7.584-10.36,6.021c-2.606-1.07-4.192-2.883-4.497-5.83
			c-0.39-3.807-0.96-7.598-1.524-11.385c-0.082-0.566-0.05-1.377-0.853-1.61c0,0-1.56-0.638-1.56-3.354
			c-0.08-4.915,0.717-9.688,3.354-13.984C509.077,341.863,509.698,341.119,509.877,340.965L509.877,340.965z M525.161,333.377
			c-0.071,4.5-3.866,8.197-8.374,8.16c-4.554-0.035-8.232-3.86-8.183-8.497c0.05-4.52,3.804-8.158,8.37-8.114
			C521.589,324.969,525.235,328.736,525.161,333.377L525.161,333.377z"/>
	</g>
	<ellipse fill="#EAEAEA" cx="384.269" cy="396.218" rx="11.917" ry="3.968"/>
	<g>
		<path fill="#4F4E4E" d="M377.31,358.965c4.91,3.547,8.437,3.547,14.126,0c2.186,2.77,2.934,5.898,3.496,9.317
			c0.215,1.306,0.58,4.373,0.516,5.697c-0.151,3.129-0.81,3.229-1.635,3.797c-0.353,0.24-0.52,0.83-0.584,1.283
			c-0.53,3.741-1.27,7.479-1.458,11.239c-0.28,5.703-6.55,7.584-10.357,6.021c-2.606-1.07-4.194-2.883-4.498-5.83
			c-0.39-3.807-0.96-7.598-1.525-11.385c-0.083-0.566-0.05-1.377-0.853-1.61c0,0-1.56-0.638-1.56-3.354
			c-0.08-4.915,0.716-9.688,3.356-13.984C376.512,359.863,377.131,359.119,377.31,358.965L377.31,358.965z M392.596,351.377
			c-0.07,4.5-3.866,8.197-8.375,8.16c-4.55-0.035-8.232-3.86-8.18-8.497c0.048-4.52,3.804-8.158,8.369-8.114
			C389.024,342.969,392.669,346.736,392.596,351.377L392.596,351.377z"/>
	</g>
	<g opacity="0.35">
		<ellipse fill="#EAEAEA" cx="200.269" cy="358.218" rx="11.917" ry="3.968"/>
		<g>
			<path fill="#C2C2C4" d="M193.31,320.965c4.91,3.547,8.438,3.547,14.126,0c2.187,2.77,2.935,5.898,3.496,9.317
				c0.215,1.306,0.58,4.374,0.517,5.697c-0.152,3.13-0.811,3.23-1.636,3.797c-0.353,0.24-0.52,0.83-0.584,1.283
				c-0.529,3.742-1.27,7.48-1.458,11.24c-0.279,5.703-6.55,7.584-10.356,6.02c-2.607-1.07-4.195-2.882-4.498-5.83
				c-0.391-3.807-0.96-7.598-1.526-11.385c-0.083-0.566-0.05-1.377-0.852-1.61c0,0-1.561-0.638-1.561-3.354
				c-0.08-4.915,0.716-9.688,3.356-13.984C192.512,321.863,193.131,321.119,193.31,320.965L193.31,320.965z M208.596,313.377
				c-0.07,4.5-3.866,8.197-8.375,8.16c-4.55-0.035-8.232-3.86-8.18-8.497c0.048-4.52,3.804-8.158,8.37-8.114
				C205.024,304.969,208.669,308.736,208.596,313.377L208.596,313.377z"/>
		</g>
	</g>
	<g opacity="0.35">
		<ellipse fill="#EAEAEA" cx="242.137" cy="482.033" rx="13.131" ry="4.372"/>
		<g>
			<path fill="#C2C2C4" d="M234.467,440.982c5.412,3.909,9.297,3.909,15.568,0.002c2.405,3.052,3.231,6.498,3.85,10.266
				c0.238,1.44,0.64,4.82,0.566,6.277c-0.165,3.449-0.888,3.562-1.799,4.186c-0.39,0.266-0.569,0.915-0.644,1.415
				c-0.585,4.123-1.398,8.24-1.604,12.386c-0.312,6.283-7.217,8.355-11.413,6.633c-2.873-1.181-4.623-3.177-4.957-6.424
				c-0.433-4.194-1.059-8.372-1.683-12.545c-0.09-0.624-0.055-1.518-0.938-1.774c0,0-1.721-0.702-1.721-3.695
				c-0.087-5.417,0.79-10.68,3.7-15.412c0.197-0.322,0.88-1.143,1.075-1.313H234.467z M251.31,432.623
				c-0.077,4.956-4.26,9.032-9.226,8.992c-5.017-0.04-9.073-4.254-9.017-9.365c0.055-4.98,4.19-8.99,9.226-8.94
				C247.375,423.358,251.393,427.508,251.31,432.623L251.31,432.623z"/>
		</g>
	</g>
	<ellipse fill="#EAEAEA" cx="432.866" cy="435.813" rx="13.131" ry="4.372"/>
	<g>
		<path fill="#FFA800" d="M425.199,394.765c5.41,3.907,9.294,3.907,15.563,0c2.41,3.051,3.232,6.5,3.852,10.267
			c0.238,1.44,0.641,4.819,0.568,6.28c-0.166,3.449-0.89,3.56-1.8,4.185c-0.391,0.265-0.575,0.914-0.645,1.413
			c-0.586,4.124-1.399,8.24-1.604,12.386c-0.312,6.285-7.221,8.357-11.416,6.634c-2.874-1.18-4.622-3.176-4.958-6.423
			c-0.431-4.196-1.058-8.374-1.681-12.547c-0.094-0.624-0.06-1.517-0.939-1.774c0,0-1.72-0.701-1.72-3.695
			c-0.089-5.418,0.789-10.678,3.699-15.41c0.198-0.324,0.88-1.145,1.077-1.314H425.199z M442.041,386.401
			c-0.076,4.959-4.26,9.033-9.226,8.994c-5.018-0.041-9.074-4.254-9.02-9.364c0.057-4.978,4.192-8.988,9.227-8.94
			c5.082,0.049,9.1,4.198,9.021,9.312L442.041,386.401z"/>
	</g>
	<ellipse fill="#EAEAEA" cx="362.866" cy="457.813" rx="13.131" ry="4.372"/>
	<g>
		<path fill="#00D096" d="M355.199,416.765c5.41,3.907,9.295,3.907,15.563,0c2.41,3.051,3.232,6.499,3.852,10.267
			c0.238,1.439,0.641,4.819,0.568,6.279c-0.166,3.45-0.89,3.561-1.8,4.186c-0.391,0.265-0.574,0.914-0.645,1.413
			c-0.586,4.124-1.399,8.24-1.604,12.386c-0.312,6.285-7.221,8.357-11.416,6.634c-2.874-1.18-4.622-3.176-4.958-6.423
			c-0.431-4.196-1.058-8.374-1.681-12.547c-0.094-0.624-0.058-1.517-0.939-1.774c0,0-1.72-0.701-1.72-3.695
			c-0.089-5.417,0.789-10.678,3.699-15.41c0.198-0.324,0.878-1.145,1.077-1.314H355.199z M372.041,408.401
			c-0.076,4.959-4.26,9.033-9.226,8.994c-5.018-0.041-9.074-4.254-9.02-9.364c0.057-4.978,4.192-8.988,9.227-8.94
			c5.083,0.049,9.1,4.198,9.021,9.312L372.041,408.401z"/>
	</g>
	<ellipse fill="#EAEAEA" cx="496.707" cy="435.813" rx="13.131" ry="4.372"/>
	<g>
		<path fill="#00ACD0" d="M489.039,394.765c5.41,3.907,9.295,3.907,15.565,0c2.408,3.051,3.232,6.5,3.852,10.267
			c0.236,1.44,0.639,4.819,0.567,6.28c-0.165,3.449-0.89,3.56-1.8,4.185c-0.39,0.265-0.573,0.914-0.646,1.413
			c-0.585,4.124-1.396,8.24-1.604,12.386c-0.312,6.285-7.218,8.357-11.415,6.634c-2.873-1.18-4.62-3.176-4.955-6.423
			c-0.43-4.196-1.06-8.374-1.682-12.547c-0.093-0.624-0.058-1.517-0.94-1.774c0,0-1.718-0.701-1.72-3.695
			c-0.088-5.418,0.793-10.678,3.698-15.41C488.159,395.755,488.843,394.935,489.039,394.765L489.039,394.765z M505.883,386.401
			c-0.078,4.959-4.261,9.033-9.228,8.994c-5.018-0.041-9.071-4.254-9.018-9.364c0.055-4.978,4.189-8.988,9.227-8.94
			c5.08,0.049,9.101,4.198,9.019,9.312V386.401z"/>
	</g>
	<g opacity="0.35">
		<ellipse fill="#EAEAEA" cx="643.219" cy="488.813" rx="13.131" ry="4.372"/>
		<g>
			<path fill="#C2C2C4" d="M635.55,447.764c5.412,3.908,9.297,3.908,15.564,0c2.408,3.053,3.235,6.5,3.854,10.268
				c0.234,1.439,0.638,4.819,0.566,6.279c-0.168,3.45-0.893,3.561-1.803,4.186c-0.388,0.265-0.573,0.914-0.644,1.413
				c-0.583,4.124-1.397,8.24-1.604,12.386c-0.312,6.285-7.22,8.357-11.417,6.634c-2.872-1.18-4.62-3.176-4.954-6.423
				c-0.432-4.196-1.06-8.374-1.682-12.547c-0.094-0.624-0.058-1.517-0.94-1.774c0,0-1.718-0.701-1.72-3.695
				c-0.086-5.417,0.79-10.678,3.698-15.41C634.671,448.755,635.353,447.935,635.55,447.764L635.55,447.764z M652.393,439.402
				c-0.076,4.958-4.258,9.032-9.225,8.992c-5.019-0.039-9.074-4.253-9.021-9.363c0.057-4.979,4.193-8.988,9.228-8.94
				C648.457,430.139,652.475,434.289,652.393,439.402L652.393,439.402z"/>
		</g>
	</g>
	<ellipse fill="#EAEAEA" cx="322.219" cy="437.813" rx="13.13" ry="4.372"/>
	<g>
		<path fill="#E95A78" d="M314.55,396.765c5.412,3.907,9.297,3.907,15.564,0c2.408,3.051,3.235,6.5,3.854,10.267
			c0.234,1.44,0.638,4.819,0.566,6.28c-0.168,3.449-0.893,3.56-1.803,4.185c-0.388,0.265-0.573,0.914-0.644,1.413
			c-0.583,4.124-1.397,8.24-1.604,12.386c-0.312,6.285-7.22,8.357-11.417,6.634c-2.872-1.18-4.62-3.176-4.954-6.423
			c-0.432-4.196-1.06-8.374-1.682-12.547c-0.094-0.624-0.059-1.517-0.94-1.774c0,0-1.718-0.701-1.72-3.695
			c-0.086-5.418,0.79-10.678,3.698-15.41C313.671,397.755,314.353,396.935,314.55,396.765L314.55,396.765z M331.394,388.401
			c-0.077,4.959-4.26,9.033-9.226,8.994c-5.019-0.041-9.074-4.254-9.021-9.364c0.057-4.978,4.193-8.988,9.228-8.94
			c5.082,0.049,9.1,4.198,9.02,9.312L331.394,388.401z"/>
	</g>
	<ellipse fill="#EAEAEA" cx="592.219" cy="382.812" rx="13.131" ry="4.372"/>
	<g>
		<path fill="#E95A78" d="M584.55,341.764c5.412,3.908,9.297,3.908,15.564,0c2.408,3.052,3.235,6.5,3.854,10.267
			c0.234,1.44,0.638,4.82,0.566,6.28c-0.168,3.45-0.893,3.56-1.803,4.185c-0.388,0.265-0.573,0.914-0.644,1.413
			c-0.583,4.124-1.397,8.24-1.604,12.386c-0.312,6.285-7.22,8.356-11.417,6.634c-2.872-1.18-4.62-3.176-4.954-6.423
			c-0.432-4.196-1.06-8.374-1.682-12.547c-0.094-0.624-0.058-1.517-0.94-1.774c0,0-1.718-0.702-1.72-3.696
			c-0.086-5.417,0.79-10.677,3.698-15.41C583.671,342.755,584.353,341.935,584.55,341.764L584.55,341.764z M601.393,333.402
			c-0.076,4.958-4.258,9.033-9.225,8.993c-5.019-0.04-9.074-4.253-9.021-9.364c0.057-4.979,4.193-8.988,9.228-8.94
			C597.457,324.139,601.475,328.289,601.393,333.402L601.393,333.402z"/>
	</g>
	<g>
		<path fill="#F2F2F2" d="M515.136,513.97c0.38-0.772,0.624-1.658,0.675-2.67c0.188-3.76,0.926-7.497,1.456-11.24
			c0.063-0.451,0.231-1.042,0.584-1.281c0.826-0.566,1.482-0.667,1.635-3.799c0.064-1.322-0.3-4.392-0.516-5.696
			c-0.563-3.42-1.312-6.548-3.497-9.317c-5.69,3.547-9.214,3.547-14.125,0c-0.18,0.154-0.798,0.898-0.98,1.19
			c-2.637,4.296-3.434,9.069-3.354,13.984c0,2.719,1.56,3.355,1.56,3.355c0.802,0.232,0.771,1.044,0.855,1.609
			c0.563,3.787,1.132,7.578,1.523,11.387c0.097,0.927,0.33,1.729,0.672,2.441c-3.159,0.715-5.235,1.92-5.235,3.285
			c0,2.192,5.338,3.968,11.918,3.968s11.916-1.774,11.916-3.968C520.223,515.875,518.207,514.688,515.136,513.97L515.136,513.97z
			 M508.26,480.538c4.508,0.036,8.303-3.662,8.373-8.16c0.072-4.643-3.572-8.41-8.185-8.452c-4.569-0.044-8.323,3.597-8.374,8.114
			C500.025,476.678,503.704,480.502,508.26,480.538L508.26,480.538z M458.693,535.233c0.417-0.853,0.688-1.826,0.742-2.94
			c0.208-4.145,1.02-8.262,1.606-12.386c0.07-0.5,0.255-1.148,0.644-1.413c0.91-0.624,1.634-0.735,1.8-4.187
			c0.07-1.458-0.33-4.84-0.566-6.277c-0.617-3.768-1.443-7.215-3.853-10.268c-6.27,3.908-10.153,3.908-15.563,0
			c-0.197,0.17-0.881,0.99-1.078,1.312c-2.908,4.732-3.785,9.993-3.697,15.41c0,2.993,1.72,3.695,1.72,3.695
			c0.882,0.261,0.848,1.15,0.94,1.775c0.62,4.173,1.248,8.35,1.68,12.547c0.105,1.021,0.365,1.903,0.74,2.69
			c-3.48,0.784-5.769,2.112-5.769,3.619c0,2.414,5.878,4.37,13.128,4.37c7.254,0,13.131-1.956,13.131-4.37
			C464.297,537.333,462.078,536.025,458.693,535.233L458.693,535.233z M451.116,498.396c4.969,0.039,9.146-4.035,9.23-8.993
			c0.08-5.114-3.94-9.266-9.022-9.312c-5.033-0.047-9.17,3.964-9.224,8.942C442.046,494.143,446.101,498.357,451.116,498.396
			L451.116,498.396z"/>
	</g>
	<ellipse fill="#EAEAEA" cx="567.131" cy="432.813" rx="13.13" ry="4.372"/>
	<g>
		<path fill="#4F4E4E" d="M559.463,391.765c5.412,3.907,9.296,3.907,15.564,0c2.407,3.051,3.23,6.5,3.854,10.267
			c0.236,1.44,0.64,4.819,0.569,6.28c-0.17,3.449-0.892,3.56-1.802,4.185c-0.39,0.265-0.573,0.914-0.645,1.413
			c-0.584,4.124-1.4,8.24-1.604,12.386c-0.312,6.285-7.218,8.357-11.414,6.634c-2.873-1.18-4.623-3.176-4.957-6.423
			c-0.43-4.196-1.06-8.374-1.683-12.547c-0.093-0.624-0.059-1.517-0.94-1.774c0,0-1.718-0.701-1.72-3.695
			c-0.086-5.418,0.79-10.678,3.7-15.41C558.583,392.755,559.266,391.935,559.463,391.765L559.463,391.765z M576.307,383.401
			c-0.078,4.959-4.26,9.033-9.23,8.994c-5.013-0.041-9.069-4.254-9.015-9.364c0.055-4.978,4.193-8.988,9.225-8.94
			c5.082,0.049,9.101,4.198,9.021,9.312V383.401z"/>
	</g>
	<ellipse fill="#EAEAEA" cx="504.31" cy="311.74" rx="9.488" ry="3.158"/>
	<g>
		<path fill="#00D096" d="M498.768,282.08c3.91,2.824,6.717,2.824,11.248,0c1.74,2.205,2.336,4.695,2.783,7.418
			c0.17,1.04,0.46,3.482,0.41,4.536c-0.122,2.493-0.646,2.573-1.303,3.023c-0.279,0.192-0.414,0.66-0.465,1.022
			c-0.424,2.978-1.012,5.952-1.16,8.948c-0.225,4.54-5.215,6.037-8.247,4.792c-2.075-0.853-3.34-2.294-3.58-4.642
			c-0.312-3.03-0.767-6.05-1.216-9.062c-0.065-0.45-0.04-1.097-0.68-1.282c0,0-1.24-0.508-1.24-2.672
			c-0.064-3.912,0.57-7.714,2.672-11.134C498.133,282.796,498.626,282.203,498.768,282.08L498.768,282.08z M510.938,276.04
			c-0.055,3.58-3.076,6.525-6.665,6.497c-3.624-0.03-6.558-3.074-6.516-6.768c0.038-3.6,3.027-6.495,6.666-6.46
			C508.095,269.345,510.997,272.343,510.938,276.04L510.938,276.04z"/>
	</g>
	<g opacity="0.35">
		<ellipse fill="#EAEAEA" cx="292.184" cy="251.026" rx="9.488" ry="3.159"/>
		<g>
			<path fill="#C2C2C4" d="M286.645,221.366c3.91,2.825,6.716,2.825,11.246,0c1.74,2.206,2.336,4.696,2.784,7.42
				c0.17,1.038,0.46,3.48,0.41,4.534c-0.12,2.493-0.644,2.573-1.301,3.023c-0.281,0.19-0.415,0.662-0.468,1.023
				c-0.42,2.979-1.01,5.953-1.157,8.948c-0.227,4.54-5.217,6.038-8.249,4.792c-2.076-0.852-3.339-2.294-3.58-4.64
				c-0.312-3.032-0.767-6.05-1.215-9.065c-0.068-0.45-0.04-1.096-0.681-1.28c0,0-1.24-0.51-1.242-2.672
				c-0.062-3.914,0.57-7.715,2.673-11.135C286.009,222.084,286.5,221.489,286.645,221.366L286.645,221.366z M298.812,215.325
				c-0.055,3.582-3.076,6.526-6.665,6.497c-3.625-0.027-6.556-3.072-6.517-6.766c0.04-3.598,3.03-6.495,6.666-6.46
				C295.969,208.631,298.871,211.629,298.812,215.325L298.812,215.325z"/>
		</g>
	</g>
	<g opacity="0.35">
		<ellipse fill="#EAEAEA" cx="484.415" cy="258.026" rx="9.488" ry="3.159"/>
		<g>
			<path fill="#C2C2C4" d="M478.877,228.366c3.907,2.825,6.714,2.825,11.245,0c1.738,2.206,2.335,4.696,2.783,7.42
				c0.17,1.038,0.46,3.48,0.41,4.534c-0.12,2.493-0.645,2.573-1.302,3.023c-0.282,0.19-0.413,0.662-0.466,1.023
				c-0.422,2.979-1.011,5.953-1.158,8.948c-0.227,4.54-5.216,6.038-8.248,4.792c-2.076-0.852-3.34-2.294-3.58-4.64
				c-0.312-3.032-0.766-6.05-1.216-9.065c-0.065-0.45-0.04-1.096-0.68-1.28c0,0-1.24-0.51-1.243-2.672
				c-0.062-3.914,0.572-7.715,2.674-11.135C478.24,229.084,478.732,228.489,478.877,228.366L478.877,228.366z M491.045,222.325
				c-0.056,3.582-3.078,6.526-6.666,6.497c-3.626-0.027-6.557-3.072-6.518-6.766c0.04-3.598,3.028-6.495,6.666-6.46
				c3.67,0.035,6.574,3.033,6.516,6.73L491.045,222.325z"/>
		</g>
	</g>
	<ellipse fill="#EAEAEA" cx="303.576" cy="320.026" rx="9.487" ry="3.159"/>
	<g>
		<path fill="#E95A78" d="M298.036,290.366c3.91,2.825,6.716,2.825,11.246,0c1.74,2.206,2.336,4.696,2.783,7.42
			c0.17,1.038,0.462,3.48,0.41,4.534c-0.12,2.493-0.645,2.573-1.3,3.023c-0.28,0.19-0.415,0.662-0.466,1.023
			c-0.423,2.98-1.011,5.953-1.16,8.948c-0.226,4.54-5.215,6.038-8.248,4.792c-2.074-0.852-3.338-2.294-3.58-4.64
			c-0.31-3.032-0.764-6.05-1.215-9.065c-0.067-0.45-0.04-1.096-0.68-1.28c0,0-1.24-0.51-1.242-2.672
			c-0.062-3.914,0.572-7.715,2.673-11.135C297.4,291.084,297.896,290.489,298.036,290.366L298.036,290.366z M310.206,284.325
			c-0.057,3.582-3.077,6.526-6.667,6.497c-3.623-0.027-6.556-3.072-6.516-6.766c0.04-3.598,3.03-6.495,6.666-6.46
			C307.362,277.631,310.264,280.629,310.206,284.325L310.206,284.325z"/>
	</g>
	<ellipse fill="#EAEAEA" cx="339.165" cy="281.026" rx="9.487" ry="3.159"/>
	<g>
		<path fill="#80529B" d="M333.626,251.366c3.909,2.825,6.716,2.825,11.245,0c1.74,2.206,2.338,4.696,2.782,7.42
			c0.172,1.038,0.463,3.48,0.41,4.534c-0.12,2.493-0.643,2.573-1.3,3.023c-0.28,0.19-0.413,0.662-0.466,1.023
			c-0.422,2.98-1.011,5.953-1.16,8.948c-0.226,4.54-5.213,6.038-8.247,4.792c-2.074-0.852-3.338-2.294-3.58-4.64
			c-0.31-3.032-0.765-6.05-1.215-9.065c-0.066-0.45-0.04-1.096-0.68-1.28c0,0-1.24-0.51-1.24-2.672
			c-0.064-3.914,0.569-7.715,2.672-11.135c0.143-0.23,0.635-0.825,0.78-0.947L333.626,251.366z M345.796,245.325
			c-0.059,3.582-3.08,6.526-6.667,6.497c-3.628-0.027-6.557-3.072-6.518-6.766c0.04-3.598,3.03-6.495,6.666-6.46
			c3.67,0.035,6.574,3.033,6.517,6.73L345.796,245.325z"/>
	</g>
	<g opacity="0.35">
		<ellipse fill="#EAEAEA" cx="238.166" cy="299.026" rx="9.486" ry="3.159"/>
		<g>
			<path fill="#C2C2C4" d="M232.626,269.366c3.91,2.825,6.716,2.825,11.246,0c1.739,2.206,2.337,4.696,2.781,7.42
				c0.173,1.038,0.464,3.48,0.41,4.534c-0.12,2.493-0.643,2.573-1.3,3.023c-0.28,0.19-0.413,0.662-0.466,1.023
				c-0.422,2.98-1.01,5.953-1.16,8.948c-0.225,4.54-5.213,6.038-8.247,4.792c-2.074-0.852-3.338-2.294-3.58-4.64
				c-0.31-3.032-0.765-6.05-1.215-9.065c-0.066-0.45-0.04-1.096-0.68-1.28c0,0-1.24-0.51-1.24-2.672
				c-0.064-3.914,0.57-7.715,2.672-11.135c0.144-0.23,0.635-0.825,0.78-0.947L232.626,269.366z M244.796,263.325
				c-0.059,3.582-3.08,6.526-6.667,6.497c-3.628-0.027-6.557-3.072-6.518-6.766c0.04-3.598,3.03-6.495,6.666-6.46
				c3.67,0.035,6.574,3.033,6.517,6.73L244.796,263.325z"/>
		</g>
	</g>
	<g opacity="0.35">
		<ellipse fill="#EAEAEA" cx="546.166" cy="267.026" rx="9.486" ry="3.159"/>
		<g>
			<path fill="#C2C2C4" d="M540.625,237.366c3.91,2.825,6.717,2.825,11.246,0c1.74,2.206,2.337,4.696,2.782,7.42
				c0.172,1.038,0.463,3.48,0.41,4.534c-0.12,2.493-0.644,2.573-1.3,3.023c-0.28,0.19-0.413,0.662-0.466,1.023
				c-0.423,2.979-1.011,5.953-1.16,8.948c-0.226,4.54-5.213,6.038-8.247,4.792c-2.074-0.852-3.338-2.294-3.58-4.64
				c-0.311-3.032-0.766-6.05-1.215-9.065c-0.066-0.45-0.04-1.096-0.681-1.28c0,0-1.239-0.51-1.239-2.672
				c-0.064-3.914,0.569-7.715,2.672-11.135c0.143-0.23,0.635-0.825,0.779-0.947L540.625,237.366z M552.795,231.325
				c-0.058,3.582-3.077,6.526-6.666,6.497c-3.629-0.027-6.557-3.072-6.518-6.766c0.04-3.598,3.03-6.495,6.666-6.46
				c3.67,0.035,6.574,3.033,6.516,6.73L552.795,231.325z"/>
		</g>
	</g>
	<g opacity="0.35">
		<ellipse fill="#EAEAEA" cx="508.306" cy="517.218" rx="11.917" ry="3.968"/>
		<g>
			<path fill="#C2C2C4" d="M501.348,479.965c4.91,3.547,8.436,3.547,14.125,0c2.186,2.771,2.934,5.898,3.496,9.317
				c0.214,1.306,0.58,4.374,0.515,5.696c-0.149,3.131-0.81,3.23-1.635,3.798c-0.353,0.239-0.521,0.829-0.584,1.282
				c-0.53,3.742-1.271,7.48-1.455,11.24c-0.282,5.703-6.55,7.584-10.358,6.021c-2.606-1.07-4.194-2.883-4.498-5.83
				c-0.393-3.808-0.96-7.599-1.524-11.386c-0.086-0.565-0.054-1.377-0.855-1.609c0,0-1.56-0.638-1.56-3.354
				c-0.08-4.915,0.717-9.688,3.354-13.983c0.181-0.293,0.799-1.037,0.979-1.19L501.348,479.965z M516.633,472.377
				c-0.07,4.5-3.865,8.197-8.373,8.16c-4.554-0.035-8.234-3.86-8.185-8.497c0.051-4.521,3.806-8.158,8.373-8.114
				C513.059,463.969,516.704,467.736,516.633,472.377L516.633,472.377z"/>
		</g>
	</g>
	<g opacity="0.35">
		<ellipse fill="#EAEAEA" cx="451.169" cy="538.813" rx="13.13" ry="4.372"/>
		<g>
			<path fill="#C2C2C4" d="M443.502,497.764c5.409,3.908,9.295,3.908,15.563,0c2.408,3.053,3.234,6.5,3.853,10.268
				c0.237,1.439,0.64,4.819,0.567,6.279c-0.167,3.45-0.89,3.561-1.8,4.186c-0.39,0.265-0.573,0.914-0.645,1.413
				c-0.587,4.124-1.399,8.24-1.606,12.386c-0.31,6.285-7.217,8.357-11.413,6.634c-2.874-1.18-4.622-3.176-4.956-6.423
				c-0.432-4.195-1.06-8.374-1.68-12.547c-0.094-0.624-0.061-1.517-0.94-1.773c0,0-1.72-0.702-1.72-3.696
				c-0.088-5.417,0.79-10.677,3.697-15.41C442.62,498.755,443.305,497.936,443.502,497.764L443.502,497.764z M460.346,489.402
				c-0.082,4.958-4.26,9.032-9.23,8.992c-5.017-0.039-9.069-4.253-9.015-9.363c0.054-4.979,4.189-8.988,9.225-8.94
				C456.408,480.139,460.426,484.289,460.346,489.402L460.346,489.402z"/>
		</g>
	</g>
	<ellipse fill="#EAEAEA" cx="450.543" cy="286.026" rx="9.487" ry="3.159"/>
	<g>
		<path fill="#4F4E4E" d="M445.002,256.366c3.909,2.825,6.717,2.825,11.246,0c1.74,2.206,2.336,4.696,2.783,7.42
			c0.17,1.038,0.46,3.48,0.41,4.534c-0.12,2.493-0.645,2.573-1.303,3.023c-0.28,0.19-0.412,0.662-0.465,1.023
			c-0.42,2.98-1.011,5.953-1.16,8.948c-0.226,4.54-5.213,6.038-8.245,4.792c-2.077-0.852-3.34-2.294-3.58-4.64
			c-0.312-3.032-0.767-6.05-1.217-9.065c-0.065-0.45-0.042-1.096-0.68-1.28c0,0-1.24-0.51-1.24-2.672
			c-0.063-3.914,0.569-7.715,2.673-11.135C444.365,257.084,444.86,256.489,445.002,256.366L445.002,256.366z M457.173,250.325
			c-0.057,3.582-3.078,6.526-6.67,6.497c-3.62-0.027-6.555-3.072-6.511-6.766c0.036-3.598,3.026-6.495,6.663-6.46
			C454.328,243.631,457.231,246.629,457.173,250.325L457.173,250.325z"/>
	</g>
	<ellipse fill="#EAEAEA" cx="327.306" cy="360.218" rx="11.917" ry="3.968"/>
	<g>
		<path fill="#FFA800" d="M320.348,322.965c4.91,3.547,8.436,3.547,14.125,0c2.186,2.77,2.934,5.898,3.496,9.317
			c0.214,1.306,0.58,4.374,0.515,5.697c-0.149,3.13-0.808,3.23-1.635,3.797c-0.353,0.24-0.521,0.83-0.584,1.283
			c-0.53,3.742-1.271,7.48-1.455,11.24c-0.282,5.703-6.55,7.584-10.358,6.02c-2.606-1.07-4.193-2.882-4.498-5.83
			c-0.392-3.807-0.96-7.598-1.524-11.385c-0.086-0.566-0.054-1.377-0.855-1.61c0,0-1.56-0.638-1.56-3.354
			c-0.08-4.915,0.717-9.688,3.354-13.984c0.181-0.293,0.799-1.037,0.979-1.19L320.348,322.965z M335.633,315.377
			c-0.07,4.5-3.865,8.197-8.373,8.16c-4.554-0.035-8.234-3.86-8.185-8.497c0.051-4.52,3.806-8.158,8.373-8.114
			C332.059,306.969,335.704,310.736,335.633,315.377L335.633,315.377z"/>
	</g>
	<ellipse fill="#EAEAEA" cx="374.576" cy="294.026" rx="9.487" ry="3.159"/>
	<g>
		<path fill="#E95A78" d="M369.036,264.366c3.91,2.825,6.716,2.825,11.246,0c1.74,2.206,2.336,4.696,2.783,7.42
			c0.17,1.038,0.462,3.48,0.41,4.534c-0.12,2.493-0.645,2.573-1.3,3.023c-0.28,0.19-0.415,0.662-0.466,1.023
			c-0.423,2.98-1.011,5.953-1.16,8.948c-0.226,4.54-5.215,6.038-8.248,4.792c-2.074-0.852-3.338-2.294-3.58-4.64
			c-0.311-3.032-0.765-6.05-1.215-9.065c-0.067-0.45-0.04-1.096-0.681-1.28c0,0-1.239-0.51-1.241-2.672
			c-0.062-3.914,0.571-7.715,2.673-11.135C368.4,265.084,368.896,264.489,369.036,264.366L369.036,264.366z M381.206,258.325
			c-0.057,3.582-3.077,6.526-6.667,6.497c-3.623-0.027-6.556-3.072-6.516-6.766c0.04-3.598,3.028-6.495,6.666-6.46
			C378.362,251.631,381.264,254.629,381.206,258.325L381.206,258.325z"/>
	</g>
	<ellipse fill="#EAEAEA" cx="621.866" cy="408.812" rx="13.131" ry="4.372"/>
	<g>
		<path fill="#FFA800" d="M614.199,367.764c5.41,3.908,9.294,3.908,15.563,0c2.41,3.052,3.232,6.5,3.852,10.267
			c0.238,1.44,0.641,4.819,0.568,6.28c-0.166,3.449-0.89,3.56-1.8,4.185c-0.391,0.265-0.575,0.914-0.645,1.413
			c-0.586,4.124-1.399,8.24-1.604,12.386c-0.312,6.285-7.22,8.356-11.416,6.634c-2.874-1.18-4.622-3.176-4.958-6.423
			c-0.431-4.196-1.058-8.374-1.681-12.547c-0.094-0.624-0.06-1.517-0.939-1.774c0,0-1.72-0.701-1.72-3.695
			c-0.087-5.418,0.79-10.678,3.699-15.41c0.198-0.324,0.881-1.144,1.077-1.314L614.199,367.764z M631.041,359.402
			c-0.076,4.958-4.26,9.033-9.226,8.993c-5.018-0.04-9.074-4.253-9.02-9.364c0.057-4.978,4.192-8.988,9.227-8.94
			c5.082,0.048,9.1,4.198,9.021,9.312L631.041,359.402z"/>
	</g>
	<g>
		<path fill="none" stroke="#00D096" stroke-miterlimit="10" d="M338.5,238.94v-2"/>
		<path fill="none" stroke="#00D096" stroke-miterlimit="10" stroke-dasharray="4,2" d="M338.5,234.94v-85"/>
		<path fill="none" stroke="#00D096" stroke-miterlimit="10" d="M338.5,148.94v-2"/>
	</g>
	<path fill="#F2F2F2" stroke="#00D096" stroke-miterlimit="10" d="M326.5,191.44h24v26h-24V191.44z"/>
	<g>
		<path fill="#00D096" d="M331.323,206.078c0,0.893,0.006,1.786-0.004,2.68c-0.004,0.25,0.074,0.328,0.334,0.377
			c0.767,0.143,1.525,0.32,2.273,0.527c0.598,0.166,1.164,0.447,1.764,0.594c2.059,0.5,4.155,0.53,6.253,0.4
			c1.025-0.062,2.045-0.236,2.95-0.783c0.606-0.365,0.98-0.81,0.48-1.555c-0.162-0.244-0.104-0.44,0.143-0.618
			c1.13-0.813,1.156-1.13,0.19-2.136c-0.171-0.176-0.184-0.32,0.023-0.465c0.1-0.07,0.205-0.136,0.295-0.216
			c0.562-0.504,0.48-1.482-0.147-1.8c-0.578-0.29-0.578-0.29-0.38-0.9c0.01-0.038,0.023-0.076,0.035-0.115
			c0.24-0.898-0.084-1.432-1-1.572c-0.354-0.055-0.729-0.04-1.09-0.005c-1.117,0.11-2.229,0.268-3.348,0.363
			c-1.04,0.09-1.473-0.39-1.254-1.415c0.105-0.493,0.374-0.95,0.538-1.436c0.229-0.675,0.502-1.347,0.62-2.042
			c0.121-0.71-0.176-1.33-0.803-1.74c-0.612-0.397-1.12-0.242-1.317,0.455c-0.53,1.875-1.646,3.396-2.912,4.815
			c-0.758,0.85-1.553,1.655-2.084,2.683c-0.242,0.47-0.646,0.82-1.203,0.86c-0.325,0.025-0.366,0.175-0.362,0.442
			c0.012,0.87,0.004,1.734,0.006,2.6L331.323,206.078z"/>
		<path fill="#00D096" d="M331.322,206.078c0-0.867,0.008-1.732-0.004-2.6c-0.004-0.268,0.037-0.417,0.36-0.44
			c0.56-0.042,0.962-0.392,1.204-0.862c0.529-1.027,1.325-1.834,2.084-2.683c1.268-1.42,2.38-2.94,2.912-4.815
			c0.196-0.697,0.704-0.854,1.317-0.454c0.627,0.41,0.924,1.03,0.803,1.74c-0.119,0.694-0.394,1.366-0.621,2.04
			c-0.164,0.485-0.433,0.943-0.537,1.438c-0.219,1.025,0.214,1.504,1.255,1.415c1.12-0.096,2.229-0.253,3.348-0.363
			c0.36-0.035,0.734-0.05,1.09,0.005c0.916,0.14,1.24,0.673,1,1.57l-0.037,0.116c-0.196,0.61-0.196,0.61,0.381,0.9
			c0.63,0.316,0.712,1.295,0.149,1.8c-0.09,0.08-0.196,0.144-0.296,0.214c-0.207,0.145-0.195,0.29-0.025,0.465
			c0.968,1.006,0.94,1.322-0.189,2.136c-0.245,0.18-0.304,0.375-0.143,0.62c0.503,0.743,0.128,1.188-0.479,1.554
			c-0.905,0.547-1.925,0.72-2.95,0.783c-2.098,0.13-4.195,0.1-6.252-0.4c-0.6-0.146-1.165-0.428-1.763-0.594
			c-0.748-0.208-1.508-0.385-2.273-0.527c-0.26-0.05-0.338-0.127-0.334-0.377C331.33,207.863,331.324,206.969,331.322,206.078
			L331.322,206.078z"/>
	</g>
	<g>
		<path fill="none" stroke="#00D096" stroke-miterlimit="10" d="M503.5,270.94v-2"/>
		<path fill="none" stroke="#00D096" stroke-miterlimit="10" stroke-dasharray="4,2" d="M503.5,266.94v-117"/>
		<path fill="none" stroke="#00D096" stroke-miterlimit="10" d="M503.5,148.94v-2"/>
	</g>
	<path fill="#F2F2F2" stroke="#00D096" stroke-miterlimit="10" d="M491.5,154.44h24v26h-24V154.44z"/>
	<g>
		<path fill="#00D096" d="M496.323,169.078c0,0.893,0.006,1.786-0.004,2.68c-0.004,0.25,0.074,0.328,0.334,0.377
			c0.767,0.143,1.525,0.32,2.273,0.527c0.598,0.166,1.164,0.447,1.764,0.594c2.059,0.5,4.155,0.53,6.253,0.4
			c1.025-0.062,2.045-0.236,2.95-0.783c0.606-0.365,0.98-0.81,0.48-1.555c-0.162-0.244-0.104-0.44,0.143-0.618
			c1.13-0.813,1.156-1.13,0.19-2.136c-0.171-0.176-0.184-0.32,0.023-0.465c0.1-0.07,0.205-0.136,0.295-0.216
			c0.562-0.504,0.48-1.482-0.147-1.8c-0.578-0.29-0.578-0.29-0.38-0.9c0.01-0.038,0.023-0.076,0.035-0.115
			c0.24-0.898-0.084-1.432-1-1.572c-0.354-0.055-0.729-0.04-1.09-0.005c-1.117,0.11-2.229,0.268-3.348,0.363
			c-1.04,0.09-1.473-0.39-1.254-1.415c0.105-0.493,0.374-0.95,0.538-1.436c0.229-0.675,0.502-1.347,0.62-2.042
			c0.121-0.71-0.176-1.33-0.803-1.74c-0.612-0.397-1.12-0.242-1.317,0.455c-0.53,1.875-1.646,3.396-2.912,4.815
			c-0.758,0.85-1.553,1.655-2.084,2.683c-0.242,0.47-0.646,0.82-1.203,0.86c-0.325,0.025-0.366,0.175-0.362,0.442
			c0.012,0.87,0.004,1.734,0.006,2.6L496.323,169.078z"/>
		<path fill="#00D096" d="M496.322,169.078c0-0.867,0.008-1.732-0.004-2.6c-0.004-0.268,0.037-0.417,0.36-0.44
			c0.56-0.042,0.962-0.392,1.204-0.862c0.529-1.027,1.325-1.834,2.084-2.683c1.268-1.42,2.38-2.94,2.912-4.815
			c0.196-0.697,0.704-0.854,1.317-0.454c0.627,0.41,0.924,1.03,0.803,1.74c-0.119,0.694-0.394,1.366-0.621,2.04
			c-0.164,0.485-0.433,0.943-0.537,1.438c-0.219,1.025,0.214,1.504,1.255,1.415c1.12-0.096,2.229-0.253,3.348-0.363
			c0.36-0.035,0.734-0.05,1.09,0.005c0.916,0.14,1.24,0.673,1,1.57l-0.037,0.116c-0.196,0.61-0.196,0.61,0.381,0.9
			c0.63,0.316,0.712,1.295,0.149,1.8c-0.09,0.08-0.196,0.144-0.296,0.214c-0.207,0.145-0.195,0.29-0.025,0.465
			c0.968,1.006,0.94,1.322-0.189,2.136c-0.245,0.18-0.304,0.375-0.143,0.62c0.503,0.743,0.128,1.188-0.479,1.554
			c-0.905,0.547-1.925,0.72-2.95,0.783c-2.098,0.13-4.195,0.1-6.252-0.4c-0.6-0.146-1.165-0.428-1.763-0.594
			c-0.748-0.208-1.508-0.385-2.273-0.527c-0.26-0.05-0.338-0.127-0.334-0.377C496.33,170.863,496.324,169.969,496.322,169.078
			L496.322,169.078z"/>
	</g>
	<path fill="none" d="M527.365,332.186"/>
	<g>
		<path fill="none" stroke="#00D096" stroke-miterlimit="10" d="M564.5,145.94v2"/>
		<path fill="none" stroke="#00D096" stroke-miterlimit="10" stroke-dasharray="4,2" d="M564.5,149.94v219"/>
		<path fill="none" stroke="#00D096" stroke-miterlimit="10" d="M564.5,369.94v2"/>
	</g>
	<path fill="#F2F2F2" stroke="#00D096" stroke-miterlimit="10" d="M552.5,165.44h24v26h-24V165.44z"/>
	<g>
		<path fill="#00D096" d="M557.323,180.078c0,0.893,0.006,1.786-0.004,2.68c-0.004,0.25,0.074,0.328,0.334,0.377
			c0.767,0.143,1.525,0.32,2.273,0.527c0.598,0.166,1.164,0.447,1.764,0.594c2.058,0.5,4.155,0.53,6.253,0.4
			c1.025-0.062,2.045-0.236,2.95-0.783c0.605-0.365,0.979-0.81,0.479-1.555c-0.162-0.244-0.104-0.44,0.144-0.618
			c1.13-0.813,1.156-1.13,0.189-2.136c-0.17-0.176-0.183-0.32,0.024-0.465c0.1-0.07,0.205-0.136,0.295-0.216
			c0.562-0.504,0.48-1.482-0.148-1.8c-0.577-0.29-0.577-0.29-0.38-0.9c0.011-0.038,0.024-0.076,0.036-0.115
			c0.24-0.898-0.084-1.432-1-1.572c-0.354-0.055-0.729-0.04-1.09-0.005c-1.117,0.11-2.23,0.268-3.348,0.363
			c-1.04,0.09-1.474-0.39-1.254-1.415c0.105-0.493,0.373-0.95,0.537-1.436c0.23-0.675,0.502-1.347,0.62-2.042
			c0.122-0.71-0.175-1.33-0.802-1.74c-0.613-0.397-1.12-0.242-1.318,0.455c-0.529,1.875-1.645,3.396-2.911,4.815
			c-0.759,0.85-1.554,1.655-2.084,2.683c-0.242,0.47-0.646,0.82-1.203,0.86c-0.325,0.025-0.366,0.175-0.362,0.442
			c0.012,0.87,0.004,1.734,0.006,2.6L557.323,180.078z"/>
		<path fill="#00D096" d="M557.322,180.078c0-0.867,0.008-1.732-0.004-2.6c-0.004-0.268,0.037-0.417,0.36-0.44
			c0.56-0.042,0.962-0.392,1.204-0.862c0.529-1.027,1.325-1.834,2.084-2.683c1.268-1.42,2.38-2.94,2.911-4.815
			c0.197-0.697,0.705-0.854,1.318-0.454c0.627,0.41,0.924,1.03,0.803,1.74c-0.119,0.694-0.394,1.366-0.622,2.04
			c-0.163,0.485-0.432,0.943-0.536,1.438c-0.219,1.025,0.214,1.504,1.255,1.415c1.12-0.096,2.229-0.253,3.348-0.363
			c0.36-0.035,0.734-0.05,1.09,0.005c0.916,0.14,1.24,0.673,1,1.57l-0.037,0.116c-0.196,0.61-0.196,0.61,0.38,0.9
			c0.631,0.316,0.713,1.295,0.15,1.8c-0.09,0.08-0.196,0.144-0.296,0.214c-0.207,0.145-0.195,0.29-0.025,0.465
			c0.968,1.006,0.94,1.322-0.189,2.136c-0.245,0.18-0.304,0.375-0.143,0.62c0.502,0.743,0.127,1.188-0.479,1.554
			c-0.905,0.547-1.925,0.72-2.95,0.783c-2.098,0.13-4.195,0.1-6.252-0.4c-0.6-0.146-1.165-0.428-1.763-0.594
			c-0.748-0.208-1.508-0.385-2.273-0.527c-0.26-0.05-0.338-0.127-0.334-0.377C557.33,181.863,557.324,180.969,557.322,180.078
			L557.322,180.078z"/>
	</g>
	<path fill="#F2F2F2" stroke="#00D096" stroke-miterlimit="10" d="M608.5,153.44h24v26h-24V153.44z"/>
	<g>
		<path fill="#00D096" d="M613.323,168.078c0,0.893,0.006,1.786-0.004,2.68c-0.004,0.25,0.074,0.328,0.334,0.377
			c0.767,0.143,1.525,0.32,2.273,0.527c0.598,0.166,1.164,0.447,1.764,0.594c2.058,0.5,4.155,0.53,6.253,0.4
			c1.025-0.062,2.045-0.236,2.95-0.783c0.605-0.365,0.979-0.81,0.479-1.555c-0.162-0.244-0.104-0.44,0.144-0.618
			c1.13-0.813,1.156-1.13,0.189-2.136c-0.17-0.176-0.183-0.32,0.024-0.465c0.1-0.07,0.205-0.136,0.295-0.216
			c0.562-0.504,0.48-1.482-0.148-1.8c-0.577-0.29-0.577-0.29-0.38-0.9c0.011-0.038,0.024-0.076,0.036-0.115
			c0.24-0.898-0.084-1.432-1-1.572c-0.354-0.055-0.729-0.04-1.09-0.005c-1.117,0.11-2.23,0.268-3.348,0.363
			c-1.04,0.09-1.474-0.39-1.254-1.415c0.105-0.493,0.373-0.95,0.537-1.436c0.23-0.675,0.502-1.347,0.62-2.042
			c0.122-0.71-0.175-1.33-0.802-1.74c-0.613-0.397-1.12-0.242-1.318,0.455c-0.529,1.875-1.645,3.396-2.911,4.815
			c-0.759,0.85-1.554,1.655-2.084,2.683c-0.242,0.47-0.646,0.82-1.203,0.86c-0.325,0.025-0.366,0.175-0.362,0.442
			c0.012,0.87,0.004,1.734,0.006,2.6L613.323,168.078z"/>
		<path fill="#00D096" d="M613.322,168.078c0-0.867,0.008-1.732-0.004-2.6c-0.004-0.268,0.037-0.417,0.36-0.44
			c0.56-0.042,0.962-0.392,1.204-0.862c0.529-1.027,1.325-1.834,2.084-2.683c1.268-1.42,2.38-2.94,2.911-4.815
			c0.197-0.697,0.705-0.854,1.318-0.454c0.627,0.41,0.924,1.03,0.803,1.74c-0.119,0.694-0.394,1.366-0.622,2.04
			c-0.163,0.485-0.432,0.943-0.536,1.438c-0.219,1.025,0.214,1.504,1.255,1.415c1.12-0.096,2.229-0.253,3.348-0.363
			c0.36-0.035,0.734-0.05,1.09,0.005c0.916,0.14,1.24,0.673,1,1.57l-0.037,0.116c-0.196,0.61-0.196,0.61,0.38,0.9
			c0.631,0.316,0.713,1.295,0.15,1.8c-0.09,0.08-0.196,0.144-0.296,0.214c-0.207,0.145-0.195,0.29-0.025,0.465
			c0.968,1.006,0.94,1.322-0.189,2.136c-0.245,0.18-0.304,0.375-0.143,0.62c0.502,0.743,0.127,1.188-0.479,1.554
			c-0.905,0.547-1.925,0.72-2.95,0.783c-2.098,0.13-4.195,0.1-6.252-0.4c-0.6-0.146-1.165-0.428-1.763-0.594
			c-0.748-0.208-1.508-0.385-2.273-0.527c-0.26-0.05-0.338-0.127-0.334-0.377C613.33,169.863,613.324,168.969,613.322,168.078
			L613.322,168.078z"/>
	</g>
	<g>
		<path fill="none" stroke="#00D096" stroke-miterlimit="10" d="M620.5,348.94v-2"/>
		<path fill="none" stroke="#00D096" stroke-miterlimit="10" stroke-dasharray="4,2" d="M620.5,344.94v-233"/>
		<path fill="none" stroke="#00D096" stroke-miterlimit="10" d="M620.865,111.186v-2h-2"/>
		<path fill="none" stroke="#00D096" stroke-miterlimit="10" stroke-dasharray="4,2" d="M617,109.44h-44"/>
		<path fill="none" stroke="#00D096" stroke-miterlimit="10" d="M572,109.44h-2"/>
	</g>
	<g>
		<path fill="none" stroke="#FFA800" stroke-miterlimit="10" d="M591.5,323.94v-2"/>
		<path fill="none" stroke="#FFA800" stroke-miterlimit="10" stroke-dasharray="4,2" d="M591.5,319.94v-190"/>
		<path fill="none" stroke="#FFA800" stroke-miterlimit="10" d="M591.865,129.186v-2h-2"/>
		<path fill="none" stroke="#FFA800" stroke-miterlimit="10" stroke-dasharray="4,2" d="M588,127.44h-16"/>
		<path fill="none" stroke="#FFA800" stroke-miterlimit="10" d="M571,127.44h-2"/>
	</g>
	<g>
		<path fill="none" stroke="#00D096" stroke-miterlimit="10" d="M374.5,250.94v-2"/>
		<path fill="none" stroke="#00D096" stroke-miterlimit="10" stroke-dasharray="4,2" d="M374.5,246.94v-97"/>
		<path fill="none" stroke="#00D096" stroke-miterlimit="10" d="M374.5,148.94v-2"/>
	</g>
	<path fill="#F2F2F2" stroke="#00D096" stroke-miterlimit="10" d="M362.5,155.44h24v26h-24V155.44z"/>
	<g>
		<path fill="#00D096" d="M367.323,170.078c0,0.893,0.006,1.786-0.004,2.68c-0.004,0.25,0.074,0.328,0.334,0.377
			c0.767,0.143,1.525,0.32,2.273,0.527c0.598,0.166,1.164,0.447,1.764,0.594c2.059,0.5,4.155,0.53,6.253,0.4
			c1.025-0.062,2.045-0.236,2.95-0.783c0.606-0.365,0.98-0.81,0.48-1.555c-0.162-0.244-0.104-0.44,0.143-0.618
			c1.13-0.813,1.156-1.13,0.19-2.136c-0.171-0.176-0.184-0.32,0.023-0.465c0.1-0.07,0.205-0.136,0.295-0.216
			c0.562-0.504,0.48-1.482-0.147-1.8c-0.578-0.29-0.578-0.29-0.38-0.9c0.01-0.038,0.023-0.076,0.035-0.115
			c0.24-0.898-0.084-1.432-1-1.572c-0.354-0.055-0.729-0.04-1.09-0.005c-1.117,0.11-2.229,0.268-3.348,0.363
			c-1.04,0.09-1.473-0.39-1.254-1.415c0.105-0.493,0.374-0.95,0.538-1.436c0.229-0.675,0.502-1.347,0.62-2.042
			c0.121-0.71-0.176-1.33-0.803-1.74c-0.612-0.397-1.12-0.242-1.317,0.455c-0.53,1.875-1.646,3.396-2.912,4.815
			c-0.758,0.85-1.553,1.655-2.084,2.683c-0.242,0.47-0.646,0.82-1.203,0.86c-0.325,0.025-0.366,0.175-0.362,0.442
			c0.012,0.87,0.004,1.734,0.006,2.6L367.323,170.078z"/>
		<path fill="#00D096" d="M367.322,170.078c0-0.867,0.008-1.732-0.004-2.6c-0.004-0.268,0.037-0.417,0.36-0.44
			c0.56-0.042,0.962-0.392,1.204-0.862c0.529-1.027,1.325-1.834,2.084-2.683c1.268-1.42,2.38-2.94,2.912-4.815
			c0.196-0.697,0.704-0.854,1.317-0.454c0.627,0.41,0.924,1.03,0.803,1.74c-0.119,0.694-0.394,1.366-0.621,2.04
			c-0.164,0.485-0.433,0.943-0.537,1.438c-0.219,1.025,0.214,1.504,1.255,1.415c1.12-0.096,2.229-0.253,3.348-0.363
			c0.36-0.035,0.734-0.05,1.09,0.005c0.916,0.14,1.24,0.673,1,1.57l-0.037,0.116c-0.196,0.61-0.196,0.61,0.381,0.9
			c0.63,0.316,0.712,1.295,0.149,1.8c-0.09,0.08-0.196,0.144-0.296,0.214c-0.207,0.145-0.195,0.29-0.025,0.465
			c0.968,1.006,0.94,1.322-0.189,2.136c-0.245,0.18-0.304,0.375-0.143,0.62c0.503,0.743,0.128,1.188-0.479,1.554
			c-0.905,0.547-1.925,0.72-2.95,0.783c-2.098,0.13-4.195,0.1-6.252-0.4c-0.6-0.146-1.165-0.428-1.763-0.594
			c-0.748-0.208-1.508-0.385-2.273-0.527c-0.26-0.05-0.338-0.127-0.334-0.377C367.33,171.863,367.324,170.969,367.322,170.078
			L367.322,170.078z"/>
	</g>
	<g>
		<path fill="none" stroke="#00D096" stroke-miterlimit="10" d="M450.5,243.94v-2"/>
		<path fill="none" stroke="#00D096" stroke-miterlimit="10" stroke-dasharray="4,2" d="M450.5,239.94v-90"/>
		<path fill="none" stroke="#00D096" stroke-miterlimit="10" d="M450.5,148.94v-2"/>
	</g>
	<path fill="#F2F2F2" stroke="#00D096" stroke-miterlimit="10" d="M438.5,172.44h24v26h-24V172.44z"/>
	<g>
		<path fill="#00D096" d="M443.323,187.078c0,0.893,0.006,1.786-0.004,2.68c-0.004,0.25,0.074,0.328,0.334,0.377
			c0.767,0.143,1.525,0.32,2.273,0.527c0.598,0.166,1.164,0.447,1.764,0.594c2.059,0.5,4.155,0.53,6.253,0.4
			c1.025-0.062,2.045-0.236,2.95-0.783c0.606-0.365,0.98-0.81,0.48-1.555c-0.162-0.244-0.104-0.44,0.143-0.618
			c1.13-0.813,1.156-1.13,0.19-2.136c-0.171-0.176-0.184-0.32,0.023-0.465c0.1-0.07,0.205-0.136,0.295-0.216
			c0.562-0.504,0.48-1.482-0.147-1.8c-0.578-0.29-0.578-0.29-0.38-0.9c0.01-0.038,0.023-0.076,0.035-0.115
			c0.24-0.898-0.084-1.432-1-1.572c-0.354-0.055-0.729-0.04-1.09-0.005c-1.117,0.11-2.229,0.268-3.348,0.363
			c-1.04,0.09-1.473-0.39-1.254-1.415c0.105-0.493,0.374-0.95,0.538-1.436c0.229-0.675,0.502-1.347,0.62-2.042
			c0.121-0.71-0.176-1.33-0.803-1.74c-0.612-0.397-1.12-0.242-1.317,0.455c-0.53,1.875-1.646,3.396-2.912,4.815
			c-0.758,0.85-1.553,1.655-2.084,2.683c-0.242,0.47-0.646,0.82-1.203,0.86c-0.325,0.025-0.366,0.175-0.362,0.442
			c0.012,0.87,0.004,1.734,0.006,2.6L443.323,187.078z"/>
		<path fill="#00D096" d="M443.322,187.078c0-0.867,0.008-1.732-0.004-2.6c-0.004-0.268,0.037-0.417,0.36-0.44
			c0.56-0.042,0.962-0.392,1.204-0.862c0.529-1.027,1.325-1.834,2.084-2.683c1.268-1.42,2.38-2.94,2.912-4.815
			c0.196-0.697,0.704-0.854,1.317-0.454c0.627,0.41,0.924,1.03,0.803,1.74c-0.119,0.694-0.394,1.366-0.621,2.04
			c-0.164,0.485-0.433,0.943-0.537,1.438c-0.219,1.025,0.214,1.504,1.255,1.415c1.12-0.096,2.229-0.253,3.348-0.363
			c0.36-0.035,0.734-0.05,1.09,0.005c0.916,0.14,1.24,0.673,1,1.57l-0.037,0.116c-0.196,0.61-0.196,0.61,0.381,0.9
			c0.63,0.316,0.712,1.295,0.149,1.8c-0.09,0.08-0.196,0.144-0.296,0.214c-0.207,0.145-0.195,0.29-0.025,0.465
			c0.968,1.006,0.94,1.322-0.189,2.136c-0.245,0.18-0.304,0.375-0.143,0.62c0.503,0.743,0.128,1.188-0.479,1.554
			c-0.905,0.547-1.925,0.72-2.95,0.783c-2.098,0.13-4.195,0.1-6.252-0.4c-0.6-0.146-1.165-0.428-1.763-0.594
			c-0.748-0.208-1.508-0.385-2.273-0.527c-0.26-0.05-0.338-0.127-0.334-0.377C443.33,188.863,443.324,187.969,443.322,187.078
			L443.322,187.078z"/>
	</g>
	<g>
		<path fill="none" stroke="#E95A78" stroke-miterlimit="10" d="M404.5,286.94v-2"/>
		<path fill="none" stroke="#E95A78" stroke-miterlimit="10" stroke-dasharray="4,2" d="M404.5,282.94v-133"/>
		<path fill="none" stroke="#E95A78" stroke-miterlimit="10" d="M404.5,148.94v-2"/>
	</g>
	<path fill="#F2F2F2" stroke="#E95A78" stroke-miterlimit="10" d="M392.5,190.44h24v26h-24V190.44z"/>
	<g>
		<path fill="#E95A78" d="M412.396,199.652c0-0.895-0.006-1.787,0.004-2.68c0.004-0.25-0.074-0.33-0.334-0.378
			c-0.766-0.144-1.525-0.32-2.272-0.528c-0.599-0.166-1.164-0.446-1.765-0.592c-2.058-0.5-4.155-0.53-6.253-0.402
			c-1.025,0.062-2.045,0.238-2.95,0.785c-0.605,0.365-0.979,0.81-0.479,1.555c0.162,0.242,0.104,0.44-0.144,0.617
			c-1.13,0.813-1.155,1.13-0.189,2.136c0.17,0.176,0.183,0.32-0.024,0.465c-0.1,0.07-0.205,0.135-0.295,0.216
			c-0.562,0.502-0.479,1.48,0.148,1.798c0.578,0.292,0.578,0.292,0.38,0.9c-0.01,0.04-0.024,0.077-0.036,0.116
			c-0.24,0.898,0.084,1.432,1,1.572c0.354,0.055,0.729,0.04,1.09,0.004c1.117-0.11,2.23-0.268,3.348-0.363
			c1.04-0.09,1.474,0.39,1.254,1.416c-0.105,0.493-0.373,0.95-0.537,1.435c-0.23,0.674-0.502,1.346-0.62,2.043
			c-0.122,0.707,0.175,1.33,0.802,1.738c0.613,0.398,1.12,0.243,1.318-0.453c0.529-1.877,1.645-3.396,2.911-4.816
			c0.759-0.848,1.554-1.656,2.085-2.682c0.241-0.47,0.645-0.82,1.202-0.862c0.325-0.024,0.366-0.173,0.362-0.442
			C412.391,201.385,412.397,200.518,412.396,199.652L412.396,199.652z"/>
		<path fill="#E95A78" d="M412.398,199.652c0,0.865-0.008,1.732,0.004,2.598c0.004,0.27-0.037,0.418-0.359,0.442
			c-0.561,0.042-0.963,0.392-1.204,0.862c-0.53,1.025-1.326,1.834-2.084,2.682c-1.269,1.42-2.381,2.94-2.912,4.816
			c-0.197,0.696-0.705,0.852-1.318,0.453c-0.627-0.408-0.924-1.03-0.803-1.738c0.12-0.697,0.394-1.37,0.622-2.043
			c0.164-0.484,0.432-0.94,0.537-1.436c0.218-1.026-0.214-1.506-1.255-1.416c-1.12,0.096-2.23,0.254-3.349,0.363
			c-0.359,0.035-0.733,0.05-1.09-0.004c-0.916-0.14-1.24-0.673-1-1.57l0.037-0.116c0.197-0.61,0.197-0.61-0.38-0.9
			c-0.63-0.317-0.712-1.297-0.15-1.8c0.09-0.08,0.196-0.145,0.296-0.214c0.207-0.146,0.195-0.29,0.025-0.465
			c-0.967-1.006-0.94-1.322,0.189-2.137c0.245-0.178,0.305-0.375,0.143-0.617c-0.502-0.745-0.127-1.188,0.479-1.554
			c0.905-0.547,1.926-0.722,2.95-0.785c2.099-0.128,4.195-0.098,6.252,0.403c0.601,0.146,1.165,0.426,1.764,0.592
			c0.747,0.21,1.508,0.385,2.272,0.528c0.26,0.05,0.338,0.128,0.334,0.378c-0.01,0.895-0.004,1.788-0.002,2.682L412.398,199.652z"/>
	</g>
	<g>
		<path fill="none" stroke="#00D096" stroke-miterlimit="10" d="M303.5,278.94v-2"/>
		<path fill="none" stroke="#00D096" stroke-miterlimit="10" stroke-dasharray="3.9868,1.9934" d="M303.5,274.94V125.938"/>
		<path fill="none" stroke="#00D096" stroke-miterlimit="10" d="M303.865,125.186v-2h2"/>
		<path fill="none" stroke="#00D096" stroke-miterlimit="10" stroke-dasharray="5,2" d="M308,123.44h6"/>
		<path fill="none" stroke="#00D096" stroke-miterlimit="10" d="M315,123.44h2"/>
	</g>
	<g>
		<path fill="none" stroke="#FFA800" stroke-miterlimit="10" d="M316,108.44h-2"/>
		<path fill="none" stroke="#FFA800" stroke-miterlimit="10" stroke-dasharray="4,2" d="M312,108.44h-50"/>
		<path fill="none" stroke="#FFA800" stroke-miterlimit="10" d="M260.865,108.186h-2v2"/>
		<path fill="none" stroke="#FFA800" stroke-miterlimit="10" stroke-dasharray="3.9643,1.9821" d="M258.5,111.94v218.999"/>
		<path fill="none" stroke="#FFA800" stroke-miterlimit="10" d="M258.865,332.186v2h2"/>
		<path fill="none" stroke="#FFA800" stroke-miterlimit="10" stroke-dasharray="3,2" d="M262,334.44h5"/>
		<path fill="none" stroke="#FFA800" stroke-miterlimit="10" d="M267,334.44h2"/>
	</g>
	<path fill="#F2F2F2" stroke="#FFA800" stroke-miterlimit="10" d="M246.5,176.44h24v26h-24V176.44z"/>
	<g>
		<path fill="#FFA800" d="M261.168,184.454c-0.068-1.4-0.965-1.95-2.033-1.405c-0.21,0.108-0.602,0.234-0.68,0.124
			c-0.946-1.393-1.824-1.062-2.588,0.168c-1.424-1.126-1.418-1.12-2.589,0.234c-0.137,0.157-0.369,0.285-0.555,0.277
			c-1.399-0.058-1.808,0.454-1.642,2.168c0.182,1.847,0.344,3.698,0.59,5.532c0.06,0.435,0.425,0.81,0.649,1.21
			c0.202-0.416,0.567-0.825,0.578-1.25c0.008-0.203,0.002-0.407-0.005-0.61c0.092-0.036,0.176-0.1,0.234-0.218
			c0.065-0.138,0.127-0.277,0.189-0.417c0.156,0.062,0.311,0.13,0.471,0.185c0.034,0.726,0.074,1.45,0.17,2.164
			c0.077,0.574,0.56,1.494,0.886,1.513c0.736,0.038,0.798-0.853,0.78-1.597c-0.015-0.522-0.03-1.045-0.047-1.567
			c0.13,0.033,0.264,0.065,0.395,0.1c0.21,0.077,0.416,0.167,0.622,0.255c0.038,0.65,0.074,1.302,0.117,1.952
			c0.054,0.777,0.189,1.73,1.007,1.475c0.366-0.115,0.735-1.13,0.758-1.752c0.021-0.567-0.25-1.136-0.263-1.704
			c0.027-0.06-0.218-0.123-0.218-0.19v-0.946c0-0.428,0.67-0.883,0.722-1.326c0.124-0.09,0.344-0.23,0.344-0.395
			c-0.004-0.334,0.157-1.87-0.538-1.86c0.002-0.016,0.04-0.032,0.042-0.05l0.494-0.006c0.099,0.527,0.269,1.05,0.293,1.583
			c0.07,1.505,0.061,3.017,0.136,4.522c0.038,0.77,0.23,1.705,1.03,1.515c0.368-0.09,0.849-1.02,0.853-1.57
			C261.387,189.862,261.298,187.155,261.168,184.454L261.168,184.454z M253.023,187.662c0.082,0.094,0.175,0.182,0.268,0.27
			l0.165,0.152c-0.12,0.122-0.247,0.23-0.351,0.377c-0.1,0.138-0.184,0.285-0.262,0.437c-0.021-0.01-0.044-0.018-0.066-0.027
			c-0.008-0.18-0.018-0.36-0.017-0.54C252.762,188.106,252.89,187.885,253.023,187.662L253.023,187.662z M256.246,190.107
			c-0.23-0.082-0.46-0.158-0.69-0.235c-0.003-0.064-0.003-0.13-0.004-0.194c0.094-0.02,0.188-0.05,0.283-0.08h0.649
			c0.014,0.193,0.028,0.386,0.04,0.578C256.433,190.153,256.34,190.131,256.246,190.107L256.246,190.107z M261.73,189.777v-4.408
			c1.072,1.645,2.29,1.57,3.71,1.13c0.811-0.252,1.812,0.08,2.628,0.488c0.787,0.395,0.864,1.557,0.134,2.092
			c-0.817,0.596-1.799,1.014-2.73,1.094C264.305,190.27,263.118,189.943,261.73,189.777L261.73,189.777z"/>
	</g>
	<path fill="#F2F2F2" stroke="#FFA800" stroke-miterlimit="10" d="M579.5,198.44h24v26h-24V198.44z"/>
	<g>
		<path fill="#FFA800" d="M593.63,206.858c-0.068-1.4-0.966-1.95-2.033-1.405c-0.21,0.11-0.603,0.235-0.681,0.125
			c-0.945-1.393-1.823-1.062-2.588,0.168c-1.424-1.126-1.42-1.12-2.59,0.234c-0.135,0.157-0.37,0.285-0.553,0.277
			c-1.4-0.058-1.808,0.454-1.643,2.168c0.183,1.846,0.345,3.697,0.591,5.53c0.06,0.436,0.425,0.81,0.649,1.212
			c0.202-0.417,0.567-0.826,0.578-1.25c0.006-0.204,0-0.408-0.006-0.61c0.092-0.037,0.176-0.1,0.234-0.22
			c0.067-0.137,0.13-0.276,0.189-0.416c0.158,0.063,0.313,0.132,0.474,0.186c0.032,0.726,0.073,1.45,0.17,2.164
			c0.075,0.574,0.56,1.494,0.885,1.513c0.736,0.04,0.798-0.852,0.78-1.596c-0.015-0.522-0.03-1.045-0.047-1.567
			c0.133,0.033,0.266,0.065,0.396,0.1c0.21,0.077,0.416,0.167,0.622,0.255c0.037,0.65,0.073,1.3,0.116,1.95
			c0.054,0.778,0.189,1.73,1.007,1.476c0.365-0.114,0.734-1.128,0.757-1.75c0.021-0.568-0.479-1.137-0.494-1.705
			c0.027-0.06-0.447-0.124-0.447-0.19v-0.947c0-0.428,0.899-0.883,0.951-1.326c0.125-0.09,0.463-0.23,0.461-0.395
			c-0.005-0.334,0.216-1.87-0.48-1.86c0.003-0.016,0.068-0.032,0.072-0.05l0.508-0.006c0.098,0.528,0.275,1.052,0.3,1.584
			c0.07,1.505,0.063,3.017,0.14,4.522c0.037,0.77,0.232,1.705,1.03,1.515c0.37-0.088,0.851-1.018,0.854-1.57
			c0.015-2.704-0.073-5.41-0.204-8.112V206.858z M585.485,210.066c0.082,0.094,0.175,0.182,0.268,0.27l0.164,0.152
			c-0.119,0.122-0.246,0.23-0.35,0.377c-0.1,0.137-0.184,0.284-0.262,0.436c-0.021-0.01-0.044-0.017-0.066-0.026
			c-0.01-0.18-0.02-0.36-0.018-0.54C585.223,210.511,585.351,210.289,585.485,210.066L585.485,210.066z M588.707,212.512
			c-0.229-0.082-0.46-0.158-0.689-0.235c-0.003-0.064-0.003-0.13-0.004-0.194c0.094-0.02,0.188-0.05,0.283-0.08h0.649
			c0.014,0.193,0.028,0.386,0.04,0.578l-0.28-0.068L588.707,212.512z M594.192,212.182v-4.408c1.072,1.646,2.29,1.572,3.71,1.13
			c0.811-0.25,1.812,0.08,2.628,0.49c0.787,0.394,0.864,1.556,0.133,2.09c-0.817,0.597-1.8,1.015-2.729,1.095
			C596.766,212.675,595.578,212.349,594.192,212.182L594.192,212.182z"/>
	</g>
	<path fill="#FFFFFF" stroke="#D6D6D6" stroke-miterlimit="10" d="M569.5,134.255c0,6.313-4.604,12.185-11.363,12.185H325.613
		c-6.758,0-13.112-5.87-13.112-12.185V84.723c0-6.312,6.354-10.283,13.112-10.283h232.523c6.76,0,11.362,3.97,11.362,10.283v49.532
		H569.5z"/>
	<path fill="#E95A78" d="M498.957,90.686l-13.25-40.776c4.506-1.465,8.515-2.1,13.25-2.1V90.686z"/>
	<path fill="#FFA800" d="M498.957,90.686l-40.775,13.25c-7.317-22.52,5.007-46.71,27.527-54.025L498.957,90.686L498.957,90.686z"/>
	<path fill="#00D096" d="M498.957,90.686V47.81c23.681,0,42.875,19.197,42.875,42.876c0,23.68-19.194,42.875-42.875,42.875
		c-18.942,0-34.923-11.608-40.775-29.624L498.957,90.686L498.957,90.686z"/>
	<g>
		<path fill="#FFFFFF" d="M364.32,119.764c0-0.018-0.004-0.037-0.008-0.055l-0.132,0.02l0.126-0.06c0-0.033-0.008-0.067-0.012-0.1
			c-0.007-0.02-0.015-0.035-0.021-0.054l-0.124,0.047l0.114-0.09c-0.01-0.03-0.021-0.06-0.03-0.085
			c-0.01-0.017-0.02-0.03-0.043-0.075c-0.014-0.03-0.03-0.062-0.053-0.093c-0.006-0.012-0.014-0.02-0.037-0.047
			c-0.023-0.034-0.053-0.067-0.082-0.097c-0.007-0.01-0.017-0.02-0.035-0.028c-0.034-0.034-0.074-0.065-0.113-0.092
			c-0.008-0.007-0.02-0.014-0.036-0.02c-0.043-0.026-0.084-0.05-0.134-0.07c-0.013-0.004-0.023-0.01-0.054-0.016
			c-0.043-0.014-0.083-0.028-0.132-0.037c-3.926-0.693-7.11-2.115-9.467-4.224c-0.04-0.035-0.075-0.07-0.11-0.106l-0.09-0.09
			c-0.247-0.228-0.455-0.435-0.636-0.63l-0.061-0.066l-0.035-0.043c-0.47-0.488-1.002-1.26-1.104-1.408l-0.063-0.094
			c-1.065-1.605-1.729-3.425-1.979-5.405c-0.398-3.313,0.229-7.247,1.37-8.59c0.293-0.35,0.49-0.35,0.556-0.35
			c0.066,0,0.26,0,0.556,0.342c1.12,1.323,1.74,5.26,1.353,8.6c-0.152,1.288-0.484,2.52-0.994,3.66l-0.027,0.063l0.034,0.06
			c0.342,0.617,0.965,1.226,1.215,1.46l0.131,0.122l0.084-0.16c0.77-1.518,1.268-3.188,1.479-4.963
			c0.403-3.467-0.17-8.217-1.82-10.165c-0.724-0.845-1.489-1.022-2.01-1.022c-0.516,0-1.286,0.178-2.01,1.032
			c-1.673,1.975-2.247,6.716-1.84,10.158c0.302,2.507,1.167,4.772,2.569,6.732c-2.388,2.573-6.02,4.343-10.515,5.115
			c-0.527,0.09-0.88,0.606-0.796,1.15c0.077,0.485,0.479,0.84,0.953,0.84c0.053,0,0.104-0.005,0.16-0.014
			c4.84-0.835,8.806-2.754,11.474-5.558c0.018,0.017,0.034,0.03,0.05,0.048c0.038,0.034,0.077,0.07,0.112,0.106
			c0.215,0.22,0.472,0.477,0.748,0.727c0.035,0.032,0.072,0.062,0.104,0.09l0.076,0.063c0.32,0.28,0.65,0.545,0.983,0.788
			l0.104,0.074c0.373,0.27,0.775,0.538,1.21,0.804c2.24,1.355,4.889,2.304,7.875,2.822l0.022-0.134l0.02,0.14
			c0.054,0.01,0.105,0.017,0.172,0.016c0.099-0.003,0.2-0.02,0.298-0.058l0.043-0.014c0.092-0.037,0.178-0.09,0.256-0.156
			l-0.088-0.104l0.117,0.076c0.077-0.07,0.143-0.15,0.19-0.238l0.014-0.03c0.056-0.105,0.093-0.207,0.105-0.3
			c0.005-0.01,0.005-0.018,0.005-0.018l0.006-0.073c0.01-0.04,0.012-0.08,0.01-0.123H364.32z M363.611,118.984v-0.002V118.984z
			 M377.316,114.328h-4.753v-9.1c0-0.25,0-0.445-0.122-0.63c-0.126-0.19-0.407-0.304-0.743-0.304c-0.321,0-0.602,0.116-0.729,0.305
			c-0.12,0.183-0.12,0.38-0.12,0.63v9.807c0,0.575,0.257,0.832,0.833,0.832h5.636c0.25,0,0.44-0.024,0.62-0.144
			c0.174-0.133,0.263-0.348,0.263-0.637c0-0.348-0.146-0.53-0.273-0.626c-0.168-0.114-0.36-0.136-0.61-0.136V114.328z
			 M384.532,104.12c-3.544,0-5.926,2.415-5.926,6.013c0,3.578,2.363,5.98,5.877,5.98c3.542,0,5.927-2.417,5.927-6.015
			C390.41,106.522,388.049,104.121,384.532,104.12L384.532,104.12z M384.532,114.623c-2.604,0-4.154-1.69-4.154-4.524
			c0-2.812,1.532-4.488,4.105-4.488c2.603,0,4.156,1.69,4.156,4.52c0,2.81-1.536,4.49-4.107,4.49V114.623z M397.838,104.12
			c-3.542,0-5.925,2.415-5.925,6.013c0,3.578,2.36,5.98,5.873,5.98c3.546,0,5.931-2.417,5.931-6.015
			C403.717,106.522,401.354,104.121,397.838,104.12L397.838,104.12z M397.838,114.623c-2.604,0-4.158-1.69-4.158-4.524
			c0-2.812,1.54-4.488,4.106-4.488c2.605,0,4.16,1.69,4.16,4.52c0,2.81-1.535,4.49-4.109,4.49L397.838,114.623z M417.438,105.326
			c-0.035-0.44-0.094-0.646-0.215-0.787c-0.146-0.177-0.355-0.263-0.652-0.263c-0.66,0-0.874,0.424-1.1,0.874l-3.664,7.48
			l-3.592-7.48c-0.24-0.494-0.476-0.873-1.085-0.873c-0.368,0-0.576,0.148-0.66,0.234c-0.208,0.19-0.242,0.487-0.274,0.78
			l-0.977,9.527c-0.01,0.064-0.013,0.117-0.024,0.166c-0.014,0.084-0.026,0.164-0.026,0.28c0,0.478,0.263,0.708,0.812,0.708
			c0.686,0,0.813-0.36,0.846-0.716l0.75-7.772l3.317,6.972c0.21,0.44,0.396,0.753,0.855,0.753c0.507,0,0.671-0.345,0.862-0.74
			l3.383-6.966l0.681,7.753c0.04,0.484,0.328,0.72,0.885,0.72c0.555,0,0.815-0.214,0.815-0.676c0-0.11-0.02-0.362-0.035-0.532
			l-0.906-9.44L417.438,105.326z M421.616,104.295c-0.321,0-0.6,0.116-0.727,0.305c-0.123,0.184-0.123,0.38-0.123,0.63v9.808
			c0,0.25,0,0.447,0.123,0.63c0.13,0.192,0.404,0.306,0.744,0.306c0.321,0,0.6-0.116,0.728-0.307c0.122-0.182,0.122-0.38,0.122-0.63
			v-9.807c0-0.25,0-0.446-0.122-0.63C422.235,104.408,421.951,104.295,421.616,104.295z M430.765,104.12
			c-3.544,0-5.925,2.415-5.925,6.013c0,3.578,2.359,5.98,5.872,5.98c3.548,0,5.93-2.417,5.93-6.015
			C436.642,106.522,434.279,104.121,430.765,104.12L430.765,104.12z M430.765,114.623c-2.604,0-4.157-1.69-4.157-4.524
			c0-2.812,1.535-4.488,4.104-4.488c2.604,0,4.159,1.69,4.159,4.52c0,2.81-1.535,4.49-4.106,4.49V114.623z"/>
	</g>
	<g>
		<path fill="#4F4E4E" d="M364.32,118.764c0-0.018-0.004-0.037-0.008-0.055l-0.132,0.02l0.126-0.06c0-0.033-0.008-0.067-0.012-0.1
			c-0.007-0.02-0.015-0.035-0.021-0.054l-0.124,0.047l0.114-0.09c-0.01-0.03-0.021-0.06-0.03-0.085
			c-0.01-0.017-0.02-0.03-0.043-0.075c-0.014-0.03-0.03-0.062-0.053-0.093c-0.006-0.012-0.014-0.02-0.037-0.047
			c-0.023-0.034-0.053-0.067-0.082-0.097c-0.007-0.01-0.017-0.02-0.035-0.028c-0.034-0.034-0.074-0.065-0.113-0.092
			c-0.008-0.007-0.02-0.014-0.036-0.02c-0.043-0.026-0.084-0.05-0.134-0.07c-0.013-0.004-0.023-0.01-0.054-0.016
			c-0.043-0.014-0.083-0.028-0.132-0.037c-3.926-0.693-7.11-2.115-9.467-4.224c-0.04-0.035-0.075-0.07-0.11-0.106l-0.09-0.09
			c-0.247-0.228-0.455-0.435-0.636-0.63l-0.061-0.066l-0.035-0.043c-0.47-0.488-1.002-1.26-1.104-1.408l-0.063-0.094
			c-1.065-1.605-1.729-3.425-1.979-5.405c-0.398-3.313,0.229-7.247,1.37-8.59c0.293-0.35,0.49-0.35,0.556-0.35
			c0.066,0,0.26,0,0.556,0.342c1.12,1.323,1.74,5.26,1.353,8.6c-0.152,1.288-0.484,2.52-0.994,3.66l-0.027,0.063l0.034,0.06
			c0.342,0.617,0.965,1.226,1.215,1.46l0.131,0.122l0.084-0.16c0.77-1.518,1.268-3.188,1.479-4.963
			c0.403-3.467-0.17-8.217-1.82-10.165c-0.724-0.845-1.489-1.022-2.01-1.022c-0.516,0-1.286,0.178-2.01,1.032
			c-1.673,1.975-2.247,6.716-1.84,10.158c0.302,2.507,1.167,4.772,2.569,6.732c-2.388,2.573-6.02,4.343-10.515,5.115
			c-0.527,0.09-0.88,0.606-0.796,1.15c0.077,0.485,0.479,0.84,0.953,0.84c0.053,0,0.104-0.005,0.16-0.014
			c4.84-0.835,8.806-2.754,11.474-5.558c0.018,0.017,0.034,0.03,0.05,0.048c0.038,0.034,0.077,0.07,0.112,0.106
			c0.215,0.22,0.472,0.477,0.748,0.727c0.035,0.032,0.072,0.062,0.104,0.09l0.076,0.063c0.32,0.28,0.65,0.545,0.983,0.788
			l0.104,0.074c0.373,0.27,0.775,0.538,1.21,0.804c2.24,1.355,4.889,2.304,7.875,2.822l0.022-0.134l0.02,0.14
			c0.054,0.01,0.105,0.017,0.172,0.016c0.099-0.003,0.2-0.02,0.298-0.058l0.043-0.014c0.092-0.037,0.178-0.09,0.256-0.156
			l-0.088-0.104l0.117,0.076c0.077-0.07,0.143-0.15,0.19-0.238l0.014-0.03c0.056-0.105,0.093-0.207,0.105-0.3
			c0.005-0.01,0.005-0.018,0.005-0.018l0.006-0.073c0.01-0.04,0.012-0.08,0.01-0.123H364.32z M363.611,117.984v-0.002V117.984z
			 M377.316,113.328h-4.753v-9.1c0-0.25,0-0.445-0.122-0.63c-0.126-0.19-0.407-0.304-0.743-0.304c-0.321,0-0.602,0.116-0.729,0.305
			c-0.12,0.183-0.12,0.38-0.12,0.63v9.807c0,0.575,0.257,0.832,0.833,0.832h5.636c0.25,0,0.44-0.024,0.62-0.144
			c0.174-0.133,0.263-0.348,0.263-0.637c0-0.348-0.146-0.53-0.273-0.626c-0.168-0.114-0.36-0.136-0.61-0.136V113.328z
			 M384.532,103.12c-3.544,0-5.926,2.415-5.926,6.013c0,3.578,2.363,5.98,5.877,5.98c3.542,0,5.927-2.417,5.927-6.015
			C390.41,105.522,388.049,103.121,384.532,103.12L384.532,103.12z M384.532,113.623c-2.604,0-4.154-1.69-4.154-4.524
			c0-2.812,1.532-4.488,4.105-4.488c2.603,0,4.156,1.69,4.156,4.52c0,2.81-1.536,4.49-4.107,4.49V113.623z M397.838,103.12
			c-3.542,0-5.925,2.415-5.925,6.013c0,3.578,2.36,5.98,5.873,5.98c3.546,0,5.931-2.417,5.931-6.015
			C403.717,105.522,401.354,103.121,397.838,103.12L397.838,103.12z M397.838,113.623c-2.604,0-4.158-1.69-4.158-4.524
			c0-2.812,1.54-4.488,4.106-4.488c2.605,0,4.16,1.69,4.16,4.52c0,2.81-1.535,4.49-4.109,4.49L397.838,113.623z M417.438,104.326
			c-0.035-0.44-0.094-0.646-0.215-0.787c-0.146-0.177-0.355-0.263-0.652-0.263c-0.66,0-0.874,0.424-1.1,0.874l-3.664,7.48
			l-3.592-7.48c-0.24-0.494-0.476-0.873-1.085-0.873c-0.368,0-0.576,0.148-0.66,0.234c-0.208,0.19-0.242,0.487-0.274,0.78
			l-0.977,9.527c-0.01,0.064-0.013,0.117-0.024,0.166c-0.014,0.084-0.026,0.164-0.026,0.28c0,0.478,0.263,0.708,0.812,0.708
			c0.686,0,0.813-0.36,0.846-0.716l0.75-7.772l3.317,6.972c0.21,0.44,0.396,0.753,0.855,0.753c0.507,0,0.671-0.345,0.862-0.74
			l3.383-6.966l0.681,7.753c0.04,0.484,0.328,0.72,0.885,0.72c0.555,0,0.815-0.214,0.815-0.676c0-0.11-0.02-0.362-0.035-0.532
			l-0.906-9.44L417.438,104.326z M421.616,103.295c-0.321,0-0.6,0.116-0.727,0.305c-0.123,0.184-0.123,0.38-0.123,0.63v9.808
			c0,0.25,0,0.447,0.123,0.63c0.13,0.192,0.404,0.306,0.744,0.306c0.321,0,0.6-0.116,0.728-0.307c0.122-0.182,0.122-0.38,0.122-0.63
			v-9.807c0-0.25,0-0.446-0.122-0.63C422.235,103.408,421.951,103.295,421.616,103.295z M430.765,103.12
			c-3.544,0-5.925,2.415-5.925,6.013c0,3.578,2.359,5.98,5.872,5.98c3.548,0,5.93-2.417,5.93-6.015
			C436.642,105.522,434.279,103.121,430.765,103.12L430.765,103.12z M430.765,113.623c-2.604,0-4.157-1.69-4.157-4.524
			c0-2.812,1.535-4.488,4.104-4.488c2.604,0,4.159,1.69,4.159,4.52c0,2.81-1.535,4.49-4.106,4.49V113.623z"/>
	</g>
	<path fill="#F2F2F2" stroke="#00D096" stroke-miterlimit="10" d="M291.5,154.44h24v26h-24V154.44z"/>
	<g>
		<path fill="#00D096" d="M296.324,169.078c0,0.893,0.006,1.786-0.005,2.68c-0.004,0.25,0.074,0.328,0.334,0.377
			c0.767,0.143,1.525,0.32,2.273,0.527c0.598,0.166,1.164,0.447,1.764,0.594c2.059,0.5,4.155,0.53,6.253,0.4
			c1.025-0.062,2.045-0.236,2.95-0.783c0.606-0.365,0.98-0.81,0.48-1.555c-0.162-0.244-0.104-0.44,0.143-0.618
			c1.13-0.813,1.156-1.13,0.19-2.136c-0.171-0.176-0.184-0.32,0.023-0.465c0.1-0.07,0.205-0.136,0.295-0.216
			c0.562-0.504,0.48-1.482-0.147-1.8c-0.578-0.29-0.578-0.29-0.38-0.9c0.01-0.038,0.023-0.076,0.035-0.115
			c0.24-0.898-0.084-1.432-1-1.572c-0.354-0.055-0.729-0.04-1.09-0.005c-1.117,0.11-2.229,0.268-3.348,0.363
			c-1.04,0.09-1.473-0.39-1.254-1.415c0.105-0.493,0.374-0.95,0.538-1.436c0.229-0.675,0.502-1.347,0.62-2.042
			c0.121-0.71-0.176-1.33-0.803-1.74c-0.612-0.397-1.12-0.242-1.317,0.455c-0.53,1.875-1.646,3.396-2.912,4.815
			c-0.758,0.85-1.553,1.655-2.084,2.683c-0.242,0.47-0.645,0.82-1.203,0.86c-0.325,0.025-0.366,0.175-0.362,0.442
			c0.013,0.87,0.005,1.734,0.007,2.6L296.324,169.078z"/>
		<path fill="#00D096" d="M296.322,169.078c0-0.867,0.009-1.732-0.004-2.6c-0.004-0.268,0.037-0.417,0.36-0.44
			c0.56-0.042,0.962-0.392,1.204-0.862c0.529-1.027,1.325-1.834,2.084-2.683c1.268-1.42,2.38-2.94,2.912-4.815
			c0.196-0.697,0.704-0.854,1.317-0.454c0.627,0.41,0.924,1.03,0.803,1.74c-0.119,0.694-0.394,1.366-0.621,2.04
			c-0.164,0.485-0.433,0.943-0.537,1.438c-0.219,1.025,0.214,1.504,1.255,1.415c1.12-0.096,2.229-0.253,3.348-0.363
			c0.36-0.035,0.734-0.05,1.09,0.005c0.916,0.14,1.24,0.673,1,1.57l-0.037,0.116c-0.196,0.61-0.196,0.61,0.381,0.9
			c0.63,0.316,0.712,1.295,0.149,1.8c-0.09,0.08-0.196,0.144-0.296,0.214c-0.207,0.145-0.195,0.29-0.025,0.465
			c0.968,1.006,0.94,1.322-0.189,2.136c-0.245,0.18-0.304,0.375-0.143,0.62c0.503,0.743,0.128,1.188-0.479,1.554
			c-0.905,0.547-1.925,0.72-2.95,0.783c-2.098,0.13-4.195,0.1-6.252-0.4c-0.6-0.146-1.165-0.428-1.763-0.594
			c-0.748-0.208-1.508-0.385-2.273-0.527c-0.26-0.05-0.338-0.127-0.334-0.377C296.331,170.863,296.324,169.969,296.322,169.078
			L296.322,169.078z"/>
	</g>
	<g opacity="0.35">
		<ellipse fill="#EAEAEA" cx="670.822" cy="325.026" rx="9.487" ry="3.159"/>
		<g>
			<path fill="#C2C2C4" d="M665.281,295.366c3.91,2.825,6.716,2.825,11.246,0c1.74,2.206,2.337,4.696,2.782,7.42
				c0.172,1.038,0.463,3.48,0.41,4.534c-0.12,2.493-0.644,2.573-1.3,3.023c-0.28,0.19-0.413,0.662-0.467,1.023
				c-0.422,2.98-1.01,5.953-1.16,8.948c-0.225,4.54-5.213,6.038-8.246,4.792c-2.075-0.852-3.341-2.294-3.58-4.64
				c-0.312-3.032-0.767-6.05-1.217-9.065c-0.064-0.45-0.039-1.096-0.678-1.28c0,0-1.24-0.51-1.24-2.672
				c-0.064-3.914,0.57-7.715,2.67-11.135C664.647,296.084,665.14,295.489,665.281,295.366L665.281,295.366z M677.451,289.325
				c-0.058,3.582-3.08,6.526-6.667,6.497c-3.627-0.027-6.555-3.072-6.516-6.766c0.038-3.598,3.028-6.495,6.665-6.46
				C674.606,282.631,677.51,285.629,677.451,289.325L677.451,289.325z"/>
		</g>
	</g>
</g>
</svg>
