<?xml version="1.0" encoding="utf-8"?>
<!-- Generator: Adobe Illustrator 16.0.0, SVG Export Plug-In . SVG Version: 6.00 Build 0)  -->
<!DOCTYPE svg PUBLIC "-//W3C//DTD SVG 1.1//EN" "http://www.w3.org/Graphics/SVG/1.1/DTD/svg11.dtd">
<svg version="1.1" id="Layer_1" xmlns="http://www.w3.org/2000/svg" xmlns:xlink="http://www.w3.org/1999/xlink" x="0px" y="0px"
	 width="214.893px" height="113px" viewBox="0 0 214.893 113" enable-background="new 0 0 214.893 113" xml:space="preserve">
<circle fill="#E85B79" cx="6.87" cy="14.918" r="6.87"/>
<circle fill="#46BB90" cx="6.87" cy="42.317" r="6.87"/>
<circle fill="#FAA819" cx="6.87" cy="69.713" r="6.87"/>
<circle fill="#81539B" cx="6.87" cy="97.111" r="6.87"/>
<circle fill="#FAA819" cx="86.298" cy="14.918" r="6.87"/>
<circle fill="#504F4F" cx="86.298" cy="42.317" r="6.87"/>
<circle fill="#E85B79" cx="86.298" cy="69.713" r="6.87"/>
<circle fill="#02ACD0" cx="86.298" cy="97.111" r="6.87"/>
<circle fill="#46BB90" cx="126.328" cy="14.918" r="6.87"/>
<circle fill="#81539B" cx="126.328" cy="42.317" r="6.87"/>
<circle fill="#02ACD0" cx="126.328" cy="69.713" r="6.87"/>
<circle fill="#504F4F" cx="126.328" cy="97.111" r="6.87"/>
<path fill="#504F4F" d="M214.893,14.918c0,3.794-3.074,6.87-6.87,6.87c-3.794,0-6.868-3.076-6.868-6.87s3.073-6.87,6.866-6.87
	c3.796,0,6.87,3.076,6.87,6.87H214.893z"/>
<path fill="#FAA819" d="M214.893,42.317c0,3.794-3.074,6.87-6.87,6.87c-3.794,0-6.868-3.076-6.868-6.87
	c0-3.795,3.073-6.87,6.866-6.87c3.796,0,6.87,3.075,6.87,6.87H214.893z"/>
<path fill="#81539B" d="M214.893,69.712c0,3.795-3.074,6.871-6.87,6.871c-3.794,0-6.868-3.076-6.868-6.871
	c0-3.793,3.073-6.869,6.866-6.869c3.796,0,6.87,3.076,6.87,6.869H214.893z"/>
<path fill="#E85B79" d="M214.893,97.11c0,3.796-3.074,6.872-6.87,6.872c-3.794,0-6.868-3.076-6.868-6.87
	c0-3.795,3.073-6.87,6.866-6.87c3.796,0,6.87,3.075,6.87,6.87L214.893,97.11z"/>
<path fill="#FFFFFF" stroke="#D7D6D6" stroke-miterlimit="10" d="M24.086,0.5h44v109h-44V0.5z M145.086,0.5h45v112h-45V0.5z"/>
<path fill="none" stroke="#C2C2C4" stroke-width="2" stroke-miterlimit="10" d="M52.586,8v15 M39.586,8v15 M52.586,34v14 M39.586,34
	v14 M52.586,63v15 M39.586,63v15 M52.586,89v14 M39.586,89v14 M174.586,8v15 M161.586,8v15 M174.586,34v14 M161.586,34v14
	 M174.586,63v15 M161.586,63v15 M174.586,89v14 M161.586,89v14"/>
</svg>
