<?xml version="1.0" encoding="utf-8"?>
<!-- Generator: Adobe Illustrator 16.0.0, SVG Export Plug-In . SVG Version: 6.00 Build 0)  -->
<!DOCTYPE svg PUBLIC "-//W3C//DTD SVG 1.1//EN" "http://www.w3.org/Graphics/SVG/1.1/DTD/svg11.dtd">
<svg version="1.1" id="Layer_1" xmlns="http://www.w3.org/2000/svg" xmlns:xlink="http://www.w3.org/1999/xlink" x="0px" y="0px"
	 width="486.657px" height="179.687px" viewBox="0 0 486.657 179.687" enable-background="new 0 0 486.657 179.687"
	 xml:space="preserve">
<g>
	<path fill="#969696" d="M8.7,100.119v5.36H8.185l-2.38-2.278c-0.663-0.64-1.17-1.09-1.522-1.348
		c-0.352-0.259-0.688-0.447-1.008-0.568c-0.32-0.12-0.656-0.182-1.008-0.182c-0.512,0-0.928,0.168-1.248,0.504
		s-0.48,0.771-0.48,1.307c0,0.716,0.261,1.398,0.78,2.05l-0.405,0.317c-0.602-0.715-0.901-1.508-0.901-2.38
		c0-0.745,0.2-1.332,0.598-1.76c0.398-0.428,0.947-0.643,1.646-0.643c0.564,0,1.111,0.145,1.642,0.43
		c0.53,0.287,1.184,0.813,1.96,1.574l2.257,2.197h0.022v-4.58h0.562L8.7,100.119z M4.395,92.812c1.504,0,2.617,0.23,3.34,0.688
		c0.723,0.459,1.084,1.153,1.084,2.084c0,0.895-0.373,1.573-1.117,2.039c-0.744,0.467-1.846,0.697-3.307,0.697
		c-1.492,0-2.598-0.227-3.316-0.677C0.36,97.191,0,96.505,0,95.583c0-0.902,0.37-1.591,1.115-2.062
		C1.86,93.048,2.951,92.812,4.395,92.812L4.395,92.812z M4.395,97.687c1.328,0,2.31-0.174,2.943-0.52
		c0.633-0.347,0.953-0.877,0.953-1.584c0-0.738-0.327-1.275-0.983-1.613s-1.627-0.508-2.912-0.508c-1.266,0-2.228,0.17-2.883,0.508
		c-0.656,0.336-0.984,0.875-0.984,1.613s0.33,1.273,0.985,1.605s1.617,0.497,2.883,0.497L4.395,97.687z M8.7,87.847v0.574H2.461
		c-0.566,0-1.154-0.023-1.765-0.07c0.061,0.06,0.115,0.12,0.17,0.182c0.056,0.062,0.53,0.666,1.424,1.81l-0.416,0.335l-1.739-2.327
		v-0.504H8.7L8.7,87.847z M4.395,78.511c1.504,0,2.617,0.23,3.34,0.688s1.084,1.153,1.084,2.083c0,0.895-0.373,1.574-1.117,2.04
		s-1.846,0.696-3.307,0.696c-1.492,0-2.598-0.227-3.316-0.678C0.36,82.889,0,82.202,0,81.28c0-0.902,0.37-1.59,1.115-2.062
		S2.951,78.51,4.395,78.511L4.395,78.511z M4.395,83.386c1.328,0,2.31-0.174,2.943-0.52c0.633-0.346,0.953-0.876,0.953-1.583
		c0-0.738-0.327-1.276-0.983-1.614s-1.627-0.507-2.912-0.507c-1.266,0-2.228,0.17-2.883,0.507c-0.656,0.337-0.984,0.876-0.984,1.614
		c0,0.738,0.33,1.273,0.985,1.605s1.617,0.497,2.883,0.497L4.395,83.386z"/>
</g>
<path fill="none" stroke="#C2C2C4" stroke-miterlimit="10" d="M235.887,91.759h24"/>
<path fill="#C2C2C4" d="M256.873,95.202l1.574-3.703l-1.573-3.703l8.78,3.703L256.873,95.202z"/>
<path fill="#FFFFFF" d="M120.517,128.673c-22.813,4.164-44.692-10.967-48.854-33.764c-3.936-21.56,10.36-42.233,31.923-46.168
	c20.383-3.72,39.909,9.783,43.627,30.15v0.004l9.045-1.918c4.404,24.148-11.596,47.29-35.743,51.695H120.517z"/>
<g>
	<path fill="none" stroke="#FFFFFF" stroke-width="4" stroke-miterlimit="10" d="M155.03,67.433c0.238,0.62,0.465,1.244,0.68,1.877
		l0.003,0.004l1.874-0.698"/>
	<path fill="none" stroke="#FFFFFF" stroke-width="4" stroke-miterlimit="10" stroke-dasharray="3.3122,2.4841" d="M159.914,67.75
		l4.269-1.59"/>
	<path fill="none" stroke="#FFFFFF" stroke-width="4" stroke-miterlimit="10" d="M165.347,65.725l1.874-0.698
		c0.216,0.634,0.42,1.27,0.612,1.904"/>
	<path fill="none" stroke="#FFFFFF" stroke-width="4" stroke-miterlimit="10" stroke-dasharray="3.9799,2.9849" d="M168.629,69.808
		c7.36,29.472-8.989,60.152-38.263,70.119c-29.16,9.931-60.859-5.67-70.779-34.808C50.2,77.562,64.94,47.607,92.496,38.223
		c24.946-8.492,51.942,3.907,61.979,27.827"/>
</g>
<path fill="none" stroke="#FFFFFF" stroke-width="3" stroke-miterlimit="10" stroke-dasharray="8,11" d="M144.767,149.517
	c-35.07,18.297-78.356,4.685-96.636-30.363C30.838,86.008,43.698,45.11,76.844,27.819c31.34-16.346,69.967-4.198,86.305,27.113
	l0.002,0.004l13.77-7.688c19.362,37.123,4.969,82.903-32.154,102.266L144.767,149.517z"/>
<g>
	<path fill="none" stroke="#FFFFFF" stroke-miterlimit="10" d="M168.453,28.942c0.876,0.995,1.732,2.016,2.57,3.06v0.006
		l3.052-2.588 M183.771,21.197l3.05-2.587c0.838,1.047,1.65,2.105,2.44,3.173"/>
	<path fill="none" stroke="#FFFFFF" stroke-miterlimit="10" stroke-dasharray="8.0828,11.1139" d="M195.352,31.079
		c24.227,41.886,14.89,96.311-24.045,127.475c-40.561,32.469-99.79,25.896-132.23-14.637C8.389,105.587,14.597,49.62,52.931,18.938
		c33.724-26.994,81.836-23.79,111.718,5.96"/>
</g>
<circle fill="#504F4F" cx="110.999" cy="88.999" r="10.502"/>
<path fill="#FFFFFF" d="M414.322,155.569c-37.8,6.896-74.057-18.172-80.945-55.945c-6.52-35.725,17.17-69.979,52.893-76.5
	c33.774-6.162,66.13,16.21,72.29,49.96v0.005l14.986-3.178C480.846,109.923,454.333,148.269,414.322,155.569L414.322,155.569z"/>
<circle fill="#46BB90" cx="479.729" cy="122.043" r="6.929"/>
<circle fill="#FAA819" cx="428.817" cy="121.932" r="6.929"/>
<circle fill="#81539B" cx="343.978" cy="147.764" r="6.929"/>
<path fill="#46BB90" d="M333.003,89.267c-3.64-1.182-5.633-5.092-4.45-8.73c1.184-3.64,5.094-5.63,8.73-4.447
	c3.642,1.18,5.634,5.093,4.452,8.73C340.551,88.459,336.644,90.449,333.003,89.267L333.003,89.267z"/>
<circle fill="#46BB90" cx="478.409" cy="45.943" r="6.928"/>
<circle fill="#FAA819" cx="365.373" cy="73.637" r="6.929"/>
<circle fill="#02ACD0" cx="399.866" cy="138.699" r="6.929"/>
<circle fill="#02ACD0" cx="470.001" cy="158.816" r="6.929"/>
<circle fill="#504F4F" cx="301.542" cy="108.049" r="6.929"/>
<circle fill="#E85B79" cx="331.065" cy="37.297" r="6.929"/>
<path fill="none" stroke="#02ACD0" stroke-miterlimit="10" d="M469.339,159.102l-14.428-12.32"/>
<path fill="#02ACD0" d="M460.086,145.822l0.044,1l-4.926,0.207l0.567,4.897l-0.994,0.115l-0.688-5.967L460.086,145.822z"/>
<path fill="none" stroke="#46BB90" stroke-miterlimit="10" d="M481.036,43.755l-14.612,12.1"/>
<path fill="#46BB90" d="M466.366,50.592l0.995,0.13l-0.643,4.888l4.925,0.283l-0.061,1l-5.995-0.345L466.366,50.592z"/>
<path fill="none" stroke="#46BB90" stroke-miterlimit="10" d="M478.725,120.706l-18.519-4.133"/>
<path fill="#46BB90" d="M464.331,113.304l0.506,0.863l-4.255,2.488l2.793,4.064l-0.825,0.566l-3.399-4.949L464.331,113.304z"/>
<path fill="none" stroke="#504F4F" stroke-miterlimit="10" d="M298.868,108.689l18.25-5.187"/>
<path fill="#504F4F" d="M315.049,108.343l-0.855-0.519l2.556-4.216l-4.39-2.243l0.455-0.89l5.347,2.729L315.049,108.343z"/>
<path fill="none" stroke="#E85B79" stroke-miterlimit="10" d="M330.673,36.655l16.188,9.895"/>
<path fill="#E85B79" d="M341.901,48.312l-0.2-0.98l4.832-0.98l-1.33-4.75l0.963-0.267l1.62,5.783L341.901,48.312z"/>
<path fill="none" stroke="#81539B" stroke-miterlimit="10" d="M343.246,149.169l13.25-13.582"/>
<path fill="#81539B" d="M357.111,140.813l-1-0.023l0.118-4.928l-4.927,0.24l-0.048-1l5.998-0.29L357.111,140.813z"/>
<path fill="none" stroke="#D7D6D6" stroke-miterlimit="10" stroke-dasharray="4,3" d="M341.32,81.179l17.658-5.5 M371.833,51.989
	l-4.897,15.306 M371.223,78.315l17.754,10.408 M390.202,97.296l-13.47,11.631 M403.059,89.336l19.592-3.674 M422.65,85.662
	l2.45-0.613 M403.671,45.254l-7.96,39.183 M395.887,84.759h1 M396.324,37.907l-18.368,4.285 M409.794,40.967l9.795,9.184
	 M428.161,58.723l1.836,17.755 M435.506,84.438l21.431,8.569 M435.506,118.111l21.431-17.755 M428.773,115.05l1.838-25.101
	 M423.264,126.071l-16.53,8.57 M373.059,120.56l20.205,14.695 M355.916,135.866l12.245-16.529 M364.488,108.927l-23.266-20.815
	 M340.609,87.5l1.224-0.613 M465.509,56.274l-29.39,22.652 M398.773,96.069l1.224,0.613 M401.223,97.294l22.039,20.816"/>
<circle fill="#504F4F" cx="396.543" cy="91.744" r="6.929"/>
<circle fill="#E85B79" cx="461.475" cy="94.237" r="6.93"/>
<circle fill="#02ACD0" cx="371.398" cy="45.942" r="6.929"/>
<circle fill="#504F4F" cx="403.891" cy="39.396" r="6.928"/>
<circle fill="#81539B" cx="426.499" cy="53.054" r="6.928"/>
<circle fill="#46BB90" cx="429.658" cy="83.216" r="6.928"/>
<circle fill="#E85B79" cx="370.556" cy="113.522" r="6.929"/>
<path fill="none" stroke="#D7D6D6" stroke-miterlimit="10" stroke-dasharray="4,3" d="M455.1,146.274l-21.431-18.367"/>
</svg>
