<svg xmlns="http://www.w3.org/2000/svg" xmlns:xlink="http://www.w3.org/1999/xlink" width="889" height="742.939" viewBox="0 0 889 742.939"><g><path d="M195.618 417.525l-12.954-32.087h-.19c.127 1.965.19 3.978.19 6.037v26.05h-2.33v-34.75h3.756l12.312 30.566h.143l12.312-30.564h3.66v34.75h-2.448V391.19c0-1.838.095-3.74.284-5.704h-.19l-13 32.04h-1.546zM242.863 404.57c0 4.217-1.022 7.51-3.066 9.877-2.044 2.37-4.864 3.554-8.46 3.554-2.268 0-4.264-.546-5.99-1.64-1.728-1.093-3.05-2.662-3.97-4.706s-1.38-4.404-1.38-7.083c0-4.213 1.023-7.497 3.067-9.85 2.044-2.354 4.85-3.53 8.414-3.53 3.55 0 6.334 1.192 8.354 3.577 2.02 2.385 3.03 5.654 3.03 9.804zm-20.393 0c0 3.55.78 6.32 2.342 8.31 1.56 1.987 3.767 2.98 6.62 2.98s5.058-.993 6.618-2.98 2.342-4.76 2.342-8.31c0-3.563-.79-6.33-2.365-8.294-1.577-1.964-3.79-2.947-6.644-2.947-2.852 0-5.05.978-6.596 2.935s-2.317 4.726-2.317 8.306zM259.946 391.19c1.094 0 2.267.11 3.518.333l-.45 2.258c-1.08-.27-2.195-.403-3.353-.403-2.2 0-4.008.936-5.418 2.805-1.41 1.87-2.115 4.23-2.115 7.083v14.26h-2.353V391.69h1.996l.237 4.658h.167c1.062-1.9 2.194-3.236 3.398-4.005s2.663-1.153 4.374-1.153zM278.907 418c-3.755 0-6.683-1.155-8.782-3.47-2.1-2.312-3.15-5.554-3.15-9.72 0-4.12 1.015-7.42 3.044-9.9 2.026-2.48 4.76-3.72 8.198-3.72 3.043 0 5.443 1.062 7.202 3.185 1.76 2.124 2.638 5.008 2.638 8.65v1.903h-18.61c.032 3.55.86 6.26 2.484 8.128 1.624 1.87 3.95 2.805 6.976 2.805 1.474 0 2.77-.102 3.886-.308 1.117-.206 2.53-.65 4.243-1.33v2.138c-1.458.635-2.805 1.066-4.04 1.296-1.237.23-2.6.345-4.09.345zm-.69-24.718c-2.486 0-4.483.82-5.988 2.46-1.507 1.64-2.386 4.005-2.64 7.095h15.973c0-2.995-.65-5.336-1.95-7.023-1.3-1.688-3.097-2.532-5.395-2.532zM323.266 418c-3.978 0-6.877-1.488-8.7-4.468h-.166l.07 1.997c.063 1.172.096 2.454.096 3.85v9.84h-2.353v-37.53h1.996l.45 3.684h.143c1.774-2.788 4.61-4.183 8.51-4.183 3.485 0 6.144 1.146 7.974 3.436s2.745 5.62 2.745 9.994c0 4.247-.963 7.54-2.888 9.876s-4.55 3.505-7.878 3.505zm-.048-2.09c2.646 0 4.694-.983 6.145-2.948 1.45-1.965 2.175-4.714 2.175-8.247 0-7.59-2.742-11.386-8.224-11.386-3.01 0-5.222.827-6.632 2.483-1.41 1.655-2.115 4.354-2.115 8.093v.76c0 4.04.678 6.926 2.032 8.652 1.353 1.728 3.56 2.59 6.618 2.59zM351.377 418c-3.755 0-6.683-1.155-8.782-3.47-2.1-2.312-3.15-5.554-3.15-9.72 0-4.12 1.015-7.42 3.044-9.9 2.026-2.48 4.76-3.72 8.198-3.72 3.043 0 5.443 1.062 7.202 3.185 1.76 2.124 2.638 5.008 2.638 8.65v1.903h-18.61c.032 3.55.86 6.26 2.484 8.128 1.624 1.87 3.95 2.805 6.976 2.805 1.474 0 2.77-.102 3.886-.308 1.117-.206 2.53-.65 4.243-1.33v2.138c-1.458.635-2.805 1.066-4.04 1.296-1.238.23-2.6.345-4.09.345zm-.69-24.718c-2.486 0-4.483.82-5.988 2.46-1.507 1.64-2.386 4.005-2.64 7.095h15.973c0-2.995-.65-5.336-1.95-7.023-1.3-1.688-3.098-2.532-5.395-2.532zM388.782 404.57c0 4.217-1.022 7.51-3.066 9.877-2.044 2.37-4.864 3.554-8.46 3.554-2.268 0-4.264-.546-5.99-1.64-1.728-1.093-3.05-2.662-3.97-4.706s-1.38-4.404-1.38-7.083c0-4.213 1.023-7.497 3.067-9.85 2.044-2.354 4.85-3.53 8.414-3.53 3.55 0 6.334 1.192 8.354 3.577 2.02 2.385 3.032 5.654 3.032 9.804zm-20.393 0c0 3.55.78 6.32 2.34 8.31 1.562 1.987 3.768 2.98 6.62 2.98s5.06-.993 6.62-2.98 2.34-4.76 2.34-8.31c0-3.563-.788-6.33-2.364-8.294-1.577-1.964-3.79-2.947-6.644-2.947-2.852 0-5.05.978-6.596 2.935s-2.317 4.726-2.317 8.306zM406.745 418c-3.978 0-6.877-1.488-8.7-4.468h-.165l.07 1.997c.063 1.172.096 2.454.096 3.85v9.84h-2.353v-37.53h1.996l.45 3.684h.143c1.774-2.788 4.61-4.183 8.51-4.183 3.485 0 6.144 1.146 7.974 3.436s2.745 5.62 2.745 9.994c0 4.247-.963 7.54-2.888 9.876s-4.552 3.505-7.88 3.505zm-.048-2.09c2.646 0 4.694-.983 6.145-2.948 1.45-1.965 2.175-4.714 2.175-8.247 0-7.59-2.742-11.386-8.224-11.386-3.01 0-5.222.827-6.632 2.483-1.41 1.655-2.114 4.354-2.114 8.093v.76c0 4.04.678 6.926 2.032 8.652 1.355 1.728 3.562 2.59 6.62 2.59zM426.774 417.525h-2.353v-36.983h2.354v36.983zM445.617 418c-3.755 0-6.683-1.155-8.782-3.47-2.1-2.312-3.15-5.554-3.15-9.72 0-4.12 1.015-7.42 3.044-9.9 2.026-2.48 4.76-3.72 8.198-3.72 3.043 0 5.443 1.062 7.202 3.185 1.76 2.124 2.638 5.008 2.638 8.65v1.903h-18.61c.032 3.55.86 6.26 2.484 8.128 1.624 1.87 3.95 2.805 6.976 2.805 1.474 0 2.77-.102 3.886-.308 1.117-.206 2.53-.65 4.243-1.33v2.138c-1.458.635-2.805 1.066-4.04 1.296-1.237.23-2.6.345-4.09.345zm-.69-24.718c-2.486 0-4.483.82-5.988 2.46-1.507 1.64-2.386 4.005-2.64 7.095h15.973c0-2.995-.65-5.336-1.95-7.023-1.3-1.688-3.097-2.532-5.395-2.532zM498.604 417.525l-5.657-17.28c-.364-1.172-.832-2.89-1.402-5.157h-.143l-.5 1.76-1.068 3.446-5.752 17.23h-2.33l-7.392-25.835h2.52l4.136 14.973c.967 3.708 1.6 6.434 1.9 8.177h.144c.935-3.708 1.616-6.172 2.044-7.393l5.324-15.758h2.14l5.062 15.71c1.14 3.724 1.838 6.188 2.09 7.392h.145c.126-1.03.76-3.787 1.9-8.27l3.946-14.832h2.378l-7.012 25.836h-2.472zM534.274 404.57c0 4.217-1.022 7.51-3.066 9.877-2.044 2.37-4.864 3.554-8.46 3.554-2.268 0-4.264-.546-5.99-1.64-1.728-1.093-3.05-2.662-3.97-4.706s-1.38-4.404-1.38-7.083c0-4.213 1.023-7.497 3.067-9.85 2.044-2.354 4.85-3.53 8.414-3.53 3.548 0 6.333 1.192 8.353 3.577 2.02 2.385 3.03 5.654 3.03 9.804zm-20.393 0c0 3.55.78 6.32 2.343 8.31 1.56 1.987 3.767 2.98 6.62 2.98s5.058-.993 6.618-2.98 2.343-4.76 2.343-8.31c0-3.563-.79-6.33-2.365-8.294-1.577-1.964-3.79-2.947-6.644-2.947-2.852 0-5.05.978-6.596 2.935s-2.317 4.726-2.317 8.306zM551.357 391.19c1.094 0 2.267.11 3.518.333l-.45 2.258c-1.08-.27-2.195-.403-3.353-.403-2.202 0-4.01.936-5.42 2.805-1.41 1.87-2.114 4.23-2.114 7.083v14.26h-2.353V391.69h1.996l.238 4.658h.167c1.062-1.9 2.194-3.236 3.398-4.005s2.663-1.153 4.374-1.153zM562.19 406.188l13.19-14.498h2.854l-10.173 11.028 11.053 14.808h-2.828l-9.816-13.05-4.23 3.852v9.198h-2.354v-36.983h2.353v18.54l-.167 7.105h.117zM582.862 384.512c0-1.52.5-2.282 1.497-2.282.49 0 .874.198 1.152.595.276.396.415.96.415 1.688 0 .713-.14 1.275-.415 1.688-.278.413-.662.62-1.153.62-1-.003-1.498-.77-1.498-2.308zm2.686 33.013h-2.353V391.69h2.353v25.835zM611.973 417.525v-16.757c0-2.6-.547-4.488-1.64-5.668-1.094-1.18-2.79-1.77-5.087-1.77-3.09 0-5.352.78-6.785 2.34-1.434 1.562-2.15 4.093-2.15 7.595v14.26h-2.353V391.69h1.996l.45 3.54h.144c1.68-2.692 4.667-4.04 8.96-4.04 5.863 0 8.795 3.147 8.795 9.437v16.9h-2.33zM642.58 391.69v1.64l-5.348.332c1.427 1.774 2.14 3.724 2.14 5.847 0 2.487-.828 4.504-2.484 6.05-1.655 1.544-3.878 2.316-6.666 2.316-1.173 0-1.997-.048-2.473-.143-.936.49-1.648 1.07-2.14 1.734-.49.666-.737 1.37-.737 2.115 0 .824.313 1.427.94 1.807.625.38 1.675.57 3.148.57h4.517c2.805 0 4.95.566 6.44 1.698 1.49 1.134 2.234 2.81 2.234 5.027 0 2.726-1.103 4.83-3.314 6.31-2.21 1.482-5.36 2.224-9.447 2.224-3.25 0-5.765-.628-7.548-1.88-1.782-1.25-2.674-2.994-2.674-5.228 0-1.774.55-3.248 1.652-4.42 1.1-1.173 2.594-1.974 4.48-2.4-.777-.334-1.4-.805-1.866-1.415-.468-.61-.7-1.31-.7-2.104 0-1.727 1.1-3.248 3.303-4.563-1.506-.618-2.678-1.588-3.518-2.91s-1.26-2.842-1.26-4.553c0-2.583.82-4.654 2.46-6.216 1.64-1.56 3.853-2.34 6.643-2.34 1.695 0 3.01.166 3.945.5h8.272zm-20.915 30.208c0 3.55 2.638 5.324 7.914 5.324 6.78 0 10.172-2.163 10.172-6.488 0-1.554-.53-2.68-1.592-3.375-1.062-.698-2.78-1.047-5.158-1.047h-4.23c-4.74 0-7.107 1.862-7.107 5.585zm1.973-22.15c0 1.995.605 3.544 1.818 4.645 1.212 1.102 2.832 1.65 4.86 1.65 2.154 0 3.807-.545 4.955-1.64 1.15-1.092 1.725-2.677 1.725-4.753 0-2.202-.59-3.854-1.77-4.955-1.182-1.102-2.834-1.652-4.957-1.652-2.06 0-3.68.59-4.86 1.77-1.18 1.182-1.77 2.827-1.77 4.934zM681.406 404.57c0 4.217-1.022 7.51-3.066 9.877-2.044 2.37-4.864 3.554-8.46 3.554-2.268 0-4.264-.546-5.99-1.64-1.728-1.093-3.05-2.662-3.97-4.706s-1.38-4.404-1.38-7.083c0-4.213 1.023-7.497 3.067-9.85 2.044-2.354 4.85-3.53 8.414-3.53 3.55 0 6.335 1.192 8.355 3.577 2.02 2.385 3.03 5.654 3.03 9.804zm-20.393 0c0 3.55.78 6.32 2.342 8.31 1.56 1.987 3.767 2.98 6.62 2.98s5.058-.993 6.618-2.98 2.342-4.76 2.342-8.31c0-3.563-.79-6.33-2.365-8.294-1.577-1.964-3.79-2.947-6.644-2.947-2.852 0-5.05.978-6.596 2.935s-2.317 4.726-2.317 8.306zM706.332 417.525v-16.757c0-2.6-.547-4.488-1.64-5.668-1.094-1.18-2.79-1.77-5.087-1.77-3.09 0-5.352.78-6.785 2.34-1.435 1.562-2.15 4.093-2.15 7.595v14.26h-2.354V391.69h1.996l.45 3.54h.144c1.68-2.692 4.667-4.04 8.96-4.04 5.863 0 8.795 3.147 8.795 9.437v16.9h-2.328zM274.417 481.8c0 2.312-.88 4.092-2.64 5.335-1.758 1.244-4.254 1.866-7.486 1.866-3.453 0-6.194-.53-8.223-1.592v-2.543c2.6 1.3 5.34 1.95 8.224 1.95 2.553 0 4.49-.425 5.813-1.272s1.984-1.977 1.984-3.388c0-1.3-.526-2.393-1.58-3.28s-2.785-1.76-5.193-2.614c-2.583-.934-4.397-1.737-5.442-2.41-1.046-.675-1.835-1.435-2.365-2.283-.53-.847-.796-1.88-.796-3.102 0-1.933.813-3.462 2.437-4.587s3.895-1.688 6.81-1.688c2.79 0 5.435.522 7.938 1.568l-.88 2.14c-2.535-1.046-4.888-1.57-7.06-1.57-2.106 0-3.778.35-5.014 1.047-1.235.697-1.853 1.664-1.853 2.9 0 1.347.48 2.424 1.438 3.232.958.808 2.832 1.71 5.62 2.71 2.33.84 4.025 1.596 5.087 2.27 1.062.673 1.857 1.438 2.39 2.293s.795 1.863.795 3.02zM287.65 486.91c1.49 0 2.788-.128 3.897-.38v1.9c-1.14.38-2.456.57-3.945.57-2.28 0-3.966-.61-5.05-1.83-1.086-1.22-1.63-3.138-1.63-5.752v-16.686h-3.826v-1.38l3.827-1.068 1.188-5.847h1.213v6.25h7.582v2.045h-7.582v16.353c0 1.98.35 3.446 1.046 4.397.697.952 1.79 1.427 3.28 1.427zM298.935 462.69v16.73c0 2.6.546 4.49 1.64 5.67 1.094 1.18 2.79 1.77 5.086 1.77 3.075 0 5.337-.775 6.787-2.328s2.175-4.08 2.175-7.582v-14.26h2.33v25.835h-1.997l-.428-3.565h-.143c-1.68 2.694-4.667 4.04-8.96 4.04-5.88 0-8.818-3.145-8.818-9.436V462.69h2.33zM334.96 464.733h-6.084v23.792h-2.354v-23.792h-4.8v-1.38l4.8-.878v-1.997c0-3.17.582-5.494 1.747-6.976s3.068-2.223 5.715-2.223c1.427 0 2.853.213 4.278.642l-.546 2.044c-1.27-.396-2.528-.595-3.78-.595-1.838 0-3.14.544-3.91 1.63-.768 1.085-1.15 2.848-1.15 5.288v2.4h6.083v2.045zm14.594 0h-6.085v23.792h-2.354v-23.792h-4.8v-1.38l4.8-.878v-1.997c0-3.17.582-5.494 1.747-6.976 1.164-1.48 3.07-2.223 5.716-2.223 1.425 0 2.852.213 4.277.642l-.547 2.044c-1.268-.396-2.527-.595-3.78-.595-1.837 0-3.14.544-3.908 1.63-.77 1.085-1.153 2.848-1.153 5.288v2.4h6.084v2.045zM378.416 486.91c1.49 0 2.788-.128 3.897-.38v1.9c-1.14.38-2.456.57-3.945.57-2.28 0-3.966-.61-5.05-1.83-1.086-1.22-1.63-3.138-1.63-5.752v-16.686h-3.826v-1.38l3.827-1.068 1.187-5.847h1.212v6.25h7.58v2.045h-7.58v16.353c0 1.98.348 3.446 1.045 4.397.698.952 1.79 1.427 3.28 1.427zM405.672 488.525v-16.757c0-2.6-.547-4.488-1.64-5.668-1.094-1.18-2.79-1.77-5.087-1.77-3.09 0-5.352.78-6.785 2.34-1.435 1.562-2.15 4.093-2.15 7.595v14.26h-2.354v-36.982h2.353v11.766l-.12 3.303h.167c.966-1.553 2.187-2.678 3.66-3.375s3.304-1.046 5.49-1.046c5.862 0 8.794 3.146 8.794 9.436v16.9h-2.328zM431.812 488.525l-.595-4.088h-.19c-1.3 1.663-2.634 2.84-4.004 3.53-1.37.688-2.99 1.033-4.86 1.033-2.536 0-4.51-.65-5.92-1.95-1.41-1.298-2.114-3.097-2.114-5.395 0-2.52 1.05-4.476 3.148-5.87s5.138-2.132 9.115-2.21l4.92-.144v-1.71c0-2.456-.5-4.31-1.498-5.562-.998-1.25-2.606-1.877-4.824-1.877-2.392 0-4.872.666-7.438 1.997l-.88-2.044c2.837-1.33 5.642-1.996 8.414-1.996 2.836 0 4.956.736 6.358 2.21s2.104 3.77 2.104 6.893v17.185h-1.736zm-9.507-1.664c2.757 0 4.932-.787 6.523-2.363 1.593-1.577 2.39-3.768 2.39-6.572v-2.543l-4.517.19c-3.628.174-6.214.74-7.76 1.7s-2.316 2.45-2.316 4.48c0 1.615.495 2.87 1.485 3.766.99.896 2.388 1.343 4.195 1.343zM448.49 486.91c1.49 0 2.79-.128 3.898-.38v1.9c-1.14.38-2.456.57-3.945.57-2.28 0-3.966-.61-5.05-1.83-1.086-1.22-1.63-3.138-1.63-5.752v-16.686h-3.826v-1.38l3.827-1.068 1.188-5.847h1.212v6.25h7.582v2.045h-7.582v16.353c0 1.98.35 3.446 1.046 4.397.698.952 1.79 1.427 3.28 1.427zM502.408 488.525V471.58c0-2.52-.49-4.358-1.474-5.516-.982-1.156-2.487-1.735-4.516-1.735-2.646 0-4.604.728-5.87 2.186-1.27 1.458-1.902 3.748-1.902 6.87v15.14h-2.4v-17.66c0-4.357-1.996-6.536-5.99-6.536-2.71 0-4.682.79-5.918 2.365-1.235 1.577-1.854 4.1-1.854 7.57v14.26h-2.353V462.69h1.95l.498 3.54h.143c.715-1.282 1.73-2.276 3.044-2.98 1.314-.706 2.765-1.06 4.35-1.06 4.072 0 6.687 1.53 7.843 4.588h.096c.84-1.474 1.97-2.606 3.387-3.398s3.03-1.188 4.837-1.188c2.82 0 4.936.753 6.346 2.258 1.41 1.506 2.115 3.898 2.115 7.178v16.9h-2.33zM528.548 488.525l-.595-4.088h-.19c-1.3 1.663-2.634 2.84-4.004 3.53-1.372.688-2.992 1.033-4.86 1.033-2.537 0-4.51-.65-5.92-1.95-1.41-1.298-2.115-3.097-2.115-5.395 0-2.52 1.05-4.476 3.15-5.87s5.137-2.132 9.114-2.21l4.92-.144v-1.71c0-2.456-.5-4.31-1.5-5.562-.997-1.25-2.605-1.877-4.823-1.877-2.393 0-4.873.666-7.44 1.997l-.88-2.044c2.838-1.33 5.643-1.996 8.415-1.996 2.836 0 4.956.736 6.358 2.21s2.104 3.77 2.104 6.893v17.185h-1.736zm-9.507-1.664c2.758 0 4.933-.787 6.524-2.363 1.593-1.577 2.39-3.768 2.39-6.572v-2.543l-4.517.19c-3.63.174-6.215.74-7.76 1.7s-2.317 2.45-2.317 4.48c0 1.615.495 2.87 1.485 3.766.99.896 2.39 1.343 4.196 1.343zM545.228 486.91c1.49 0 2.788-.128 3.897-.38v1.9c-1.14.38-2.456.57-3.945.57-2.28 0-3.966-.61-5.05-1.83-1.086-1.22-1.63-3.138-1.63-5.752v-16.686h-3.826v-1.38l3.827-1.068 1.19-5.847h1.21v6.25h7.583v2.045H540.9v16.353c0 1.98.35 3.446 1.047 4.397.698.952 1.79 1.427 3.28 1.427zM561.29 486.91c1.488 0 2.787-.128 3.896-.38v1.9c-1.14.38-2.456.57-3.945.57-2.28 0-3.965-.61-5.05-1.83-1.085-1.22-1.628-3.138-1.628-5.752v-16.686h-3.827v-1.38l3.827-1.068 1.188-5.847h1.212v6.25h7.582v2.045h-7.582v16.353c0 1.98.35 3.446 1.046 4.397.698.952 1.79 1.427 3.28 1.427zM580.962 489c-3.755 0-6.683-1.155-8.782-3.47-2.1-2.312-3.15-5.554-3.15-9.72 0-4.12 1.015-7.42 3.044-9.9 2.027-2.48 4.76-3.72 8.2-3.72 3.042 0 5.442 1.062 7.2 3.185 1.76 2.124 2.64 5.008 2.64 8.65v1.903h-18.61c.03 3.55.858 6.26 2.483 8.128 1.624 1.87 3.95 2.805 6.976 2.805 1.474 0 2.77-.102 3.886-.308 1.116-.206 2.53-.65 4.242-1.33v2.138c-1.458.635-2.805 1.066-4.04 1.296-1.238.23-2.6.345-4.09.345zm-.69-24.718c-2.487 0-4.484.82-5.99 2.46-1.505 1.64-2.384 4.005-2.638 7.095h15.973c0-2.995-.65-5.336-1.95-7.023-1.3-1.688-3.097-2.532-5.395-2.532zM607.172 462.19c1.094 0 2.267.11 3.518.333l-.45 2.258c-1.08-.27-2.195-.403-3.353-.403-2.202 0-4.01.936-5.42 2.805-1.41 1.87-2.114 4.23-2.114 7.083v14.26H597V462.69h1.996l.237 4.658h.167c1.062-1.9 2.194-3.236 3.398-4.005s2.663-1.153 4.374-1.153zM631.72 481.8c0 2.312-.88 4.092-2.64 5.335-1.758 1.244-4.254 1.866-7.486 1.866-3.454 0-6.195-.53-8.224-1.592v-2.543c2.6 1.3 5.34 1.95 8.224 1.95 2.552 0 4.488-.425 5.812-1.272s1.984-1.977 1.984-3.388c0-1.3-.526-2.393-1.58-3.28s-2.785-1.76-5.193-2.614c-2.583-.934-4.397-1.737-5.442-2.41-1.046-.675-1.835-1.435-2.365-2.283-.53-.847-.796-1.88-.796-3.102 0-1.933.812-3.462 2.436-4.587s3.895-1.688 6.81-1.688c2.79 0 5.435.522 7.938 1.568l-.88 2.14c-2.535-1.046-4.888-1.57-7.06-1.57-2.106 0-3.778.35-5.014 1.047-1.236.697-1.854 1.664-1.854 2.9 0 1.347.48 2.424 1.438 3.232.958.808 2.832 1.71 5.62 2.71 2.33.84 4.025 1.596 5.087 2.27 1.062.673 1.857 1.438 2.39 2.293s.795 1.863.795 3.02z"/><defs><path id="a" d="M309.488 56.94H578.63V311.25H309.488z"/></defs><clipPath id="b"><use xlink:href="#a" overflow="visible"/></clipPath><path clip-path="url(#b)" d="M464.454 309.096c-71.41 13.03-139.906-34.33-152.928-105.698-12.313-67.49 32.44-132.217 99.932-144.53 63.803-11.64 124.937 30.63 136.57 94.395v.002l28.318-6.003c13.793 75.592-36.297 148.043-111.892 161.834z"/><path fill="#fff" d="M353.233 176.14c.237-1.86.626-3.583 1.166-5.157.54-1.57 1.24-2.91 2.096-4.007.86-1.092 1.865-1.76 3.02-2.005 1.113-.235 2.06-.01 2.844.68.782.683 1.326 1.758 1.633 3.228.315 1.513.285 2.942-.098 4.29-.385 1.346-1.045 2.573-1.983 3.685-.938 1.115-2.116 2.067-3.533 2.852-1.418.79-3.006 1.37-4.764 1.74l-.623.134c-.08-1.765 0-3.575.24-5.44zm-3.487 24.14c1.7.92 3.574 1.476 5.62 1.672 2.046.2 4.154.067 6.33-.394 2.426-.52 4.47-1.224 6.13-2.123s2.98-1.872 3.954-2.916c.978-1.05 1.645-2.11 1.997-3.185.357-1.072.444-2.04.262-2.906-.126-.604-.327-1.163-.602-1.677-.276-.512-.59-.916-.942-1.208-.357.833-.816 1.67-1.377 2.503-.564.84-1.232 1.627-2.01 2.36-.774.74-1.647 1.385-2.617 1.943-.97.562-2.033.963-3.19 1.205-2.59.555-4.682.213-6.28-1.02-1.597-1.226-2.686-3.232-3.266-6.006-.083-.397-.168-.836-.256-1.312-.088-.483-.145-.96-.174-1.443.448-.045.904-.12 1.365-.22.464-.1.892-.188 1.285-.273 3.052-.646 5.792-1.64 8.216-2.983 2.427-1.34 4.435-2.877 6.027-4.617 1.593-1.74 2.735-3.61 3.43-5.603.692-1.995.838-3.963.434-5.895-.555-2.66-1.922-4.525-4.104-5.61-2.183-1.083-4.973-1.26-8.372-.54-2.614.557-4.947 1.433-7.004 2.634-2.055 1.205-3.84 2.62-5.358 4.256-1.517 1.64-2.778 3.434-3.782 5.39-1.004 1.95-1.77 3.952-2.297 5.998-.525 2.047-.818 4.085-.875 6.116-.06 2.035.098 3.936.467 5.704.52 2.497 1.392 4.58 2.61 6.257 1.22 1.676 2.68 2.974 4.38 3.89zM408.223 221.11c-.127 1.71-.38 3.388-.76 5.036-.38 1.653-.893 3.152-1.54 4.508-.647 1.354-1.448 2.498-2.4 3.43-.95.932-2.062 1.533-3.335 1.804-.554.12-1.104.167-1.652.15-.546-.02-1.06-.072-1.54-.167-.476-.092-.913-.225-1.313-.397-.396-.167-.976-.338-1.228-.506l.022-13.398c0-11.136 5.592-16.565 7.773-16.895.748-.116 1.403-.066 1.995.268.59.337 1.104.837 1.545 1.502.438.658.818 1.434 1.14 2.33.318.897.58 1.827.785 2.807.28 1.35.468 2.85.56 4.5.09 1.645.072 3.325-.052 5.027zm8.193-17.724c-.833-1.505-1.813-2.706-2.945-3.613-1.13-.904-2.396-1.496-3.796-1.786-1.4-.286-2.875-.264-4.424.063-1.758.374-3.243.946-4.457 1.73-1.213.784-2.245 1.736-3.097 2.866-.85 1.133-1.57 2.416-2.163 3.855-.594 1.44-1.14 2.992-1.637 4.658l-.456-9.87-15.48 3.287v4.006l1.454-.338c.67-.143 1.25-.23 1.738-.26.486-.032.904.023 1.25.173.345.145.63.405.85.77.22.365.4.88.536 1.532.02.09.04.243.06.455.02.22.038.48.054.78.015.297.026.617.038.96.01.34.013.662.006.98l-.006 45.337 15.147-3.253.003-3.076s-1.33.232-1.817.263c-.49.033-.905-.024-1.252-.172-.342-.14-.623-.397-.846-.767-.223-.37-.402-.882-.537-1.527-.02-.093-.04-.252-.06-.46-.023-.217-.038-.478-.054-.775-.017-.3-.027-.62-.038-.962-.01-.34-.012-.663-.007-.977l-.002-7.117c1.034.316 2.036.545 3.335.572 1.3.03 2.665-.11 4.098-.413 2.453-.52 4.612-1.424 6.48-2.71 1.868-1.285 3.475-2.804 4.824-4.564 1.348-1.758 2.435-3.688 3.264-5.783.83-2.098 1.44-4.227 1.83-6.396.397-2.164.587-4.284.574-6.363-.01-2.078-.198-3.983-.56-5.704-.434-2.096-1.07-3.897-1.904-5.397zM504.006 196.31c.005 1.994-.184 4.008-.568 6.037-.386 2.027-.908 3.883-1.57 5.566-.662 1.69-1.453 3.104-2.372 4.25-.92 1.14-1.9 1.826-2.942 2.047-.554.12-1.095.107-1.62-.04-.524-.146-1.014-.464-1.472-.97-.453-.492-.874-1.187-1.268-2.08-.392-.888-.73-2.023-1.018-3.4-.28-1.327-.47-2.82-.572-4.478-.105-1.657-.093-3.357.033-5.114.13-1.756.385-3.476.77-5.165.384-1.688.91-3.235 1.583-4.646.67-1.406 1.505-2.59 2.5-3.56.993-.965 2.183-1.595 3.57-1.89.923-.195 1.83-.215 2.72-.065.89.152 1.635.514 2.24 1.093l-.014 12.414zm16.213 12.495c-.553.42-1.164.7-1.835.844-.738.158-1.402-.007-1.983-.488-.588-.484-1.003-1.322-1.252-2.513-.098-.47-.17-1.052-.224-1.764-.05-.7-.088-1.438-.116-2.202-.022-.756-.037-1.483-.035-2.164.004-.682.01-1.23.02-1.648V175.46s-3.908.34-7.155 3.4c0 0-1.31-.352-2.144-.477-.838-.128-1.718-.215-2.647-.26-.927-.048-1.887-.045-2.878.008-.993.05-1.95.175-2.875.37-2.406.514-4.54 1.387-6.407 2.618-1.866 1.238-3.486 2.71-4.857 4.41-1.37 1.702-2.5 3.583-3.384 5.646-.886 2.066-1.55 4.176-1.99 6.34-.442 2.16-.665 4.303-.666 6.437-.002 2.13.192 4.128.582 5.993.39 1.862.964 3.545 1.727 5.05.76 1.508 1.685 2.757 2.773 3.742 1.086.98 2.337 1.673 3.747 2.065 1.41.396 2.96.413 4.648.058 1.736-.37 3.208-.92 4.42-1.65 1.212-.728 2.245-1.657 3.14-2.747 3.398-4.15 4.31-8.93 4.31-8.93s.143 1.806.22 2.526c.08.73.198 1.46.355 2.21.388 1.86 1.318 3.142 2.793 3.842 1.474.7 3.263.823 5.368.372 1.27-.267 2.43-.65 3.47-1.154 1.042-.5 1.988-1.06 2.837-1.68.848-.613 1.603-1.262 2.262-1.92.658-.662 1.24-1.29 1.744-1.88l-2.162-2.54c-.655.578-1.257 1.08-1.81 1.5zM427.495 185.08c.407.503.896.882 1.472 1.15.576.267 1.217.422 1.924.453.71.032 1.454-.037 2.24-.203.855-.18 1.664-.477 2.425-.883.76-.404 1.408-.91 1.944-1.523s.918-1.325 1.146-2.14c.228-.82.24-1.714.036-2.697-.167-.788-.466-1.435-.897-1.938-.432-.51-.946-.892-1.544-1.153-.598-.257-1.255-.404-1.97-.42-.716-.015-1.456.054-2.22.212-.88.186-1.698.478-2.46.873-.767.393-1.398.89-1.898 1.494-.502.604-.856 1.313-1.06 2.122-.207.81-.2 1.74.02 2.79.157.744.438 1.366.843 1.86zM374.765 229.29c-.584-1.004-1.337-1.893-2.26-2.662-.92-.76-2.016-1.416-3.29-1.965-1.274-.544-2.746-.998-4.417-1.38-1.52-.332-2.84-.643-3.962-.93-1.123-.28-2.067-.615-2.833-.985-.766-.372-1.366-.816-1.8-1.332-.434-.517-.732-1.175-.9-1.968-.145-.693-.143-1.38.008-2.044.15-.665.44-1.28.866-1.844.424-.563.975-1.058 1.646-1.48.674-.424 1.47-.73 2.396-.93 1.018-.217 1.924-.152 2.72.19.797.344 1.497.865 2.102 1.56.605.702 1.1 1.516 1.488 2.44.388.932.68 1.87.88 2.826 2.52-.537 4.418-1.387 5.696-2.56 1.276-1.17 1.715-2.71 1.315-4.624-.18-.857-.58-1.654-1.2-2.372-.624-.72-1.515-1.28-2.673-1.68-1.157-.4-2.603-.61-4.333-.636-1.733-.016-3.787.224-6.17.73-2.498.53-4.68 1.267-6.548 2.212-1.866.942-3.39 2.06-4.572 3.344-1.18 1.284-1.994 2.7-2.44 4.262-.448 1.553-.49 3.204-.125 4.95.292 1.4.768 2.614 1.43 3.64.66 1.026 1.48 1.912 2.457 2.66.976.738 2.103 1.363 3.38 1.868 1.276.51 2.68.944 4.2 1.302 1.53.382 2.854.73 3.97 1.054 1.12.325 2.065.688 2.84 1.095.772.412 1.38.894 1.825 1.46.442.56.75 1.25.92 2.064.182.863.167 1.666-.04 2.402s-.565 1.396-1.072 1.976c-.506.587-1.15 1.09-1.93 1.508-.783.423-1.66.74-2.63.942-1.295.277-2.44.245-3.44-.09-1.003-.336-1.875-.896-2.615-1.676-.742-.777-1.364-1.723-1.86-2.833-.498-1.11-.883-2.308-1.15-3.588-.946.2-1.855.505-2.723.923-.866.415-1.602.94-2.207 1.563-.606.627-1.048 1.375-1.327 2.237-.278.863-.302 1.85-.067 2.968.26 1.238.808 2.277 1.648 3.122.84.842 1.916 1.48 3.226 1.904 1.308.435 2.826.644 4.552.64 1.727.004 3.606-.215 5.642-.646 2.845-.605 5.283-1.424 7.313-2.447 2.032-1.027 3.665-2.23 4.898-3.614 1.233-1.38 2.052-2.912 2.46-4.608.406-1.694.407-3.505.003-5.443-.28-1.323-.71-2.495-1.295-3.502zM423.868 185.267l-1.702-2.904c-.217.184-.424.35-.62.494-.558.408-1.202.692-1.943.85-.81.173-1.486.025-2.03-.445-.545-.467-1.125-1.27-1.345-2.322-.21-1-.368-2.207-.42-3.38-.05-1.167-.074-2.44-.07-3.8l-.004-7.997c-.016-.654-.02-1.343-.017-2.076s-.004-1.455-.022-2.185c-.02-.73-.06-1.44-.122-2.145-.062-.707-.156-1.36-.285-1.968-.228-1.098-.583-2.11-1.068-3.04-.486-.932-1.123-1.706-1.92-2.335-.793-.617-1.75-1.04-2.87-1.268-1.124-.226-2.438-.177-3.94.145-1.57.335-2.98.8-4.214 1.422-5.716 2.888-8.33 9.964-8.33 9.964l-.4-7.893-16.185 3.415v3.997l1.456-.325c.67-.14 1.25-.228 1.74-.258.487-.026.905.028 1.25.174.344.144.626.397.848.768.224.368.4.873.536 1.526.02.097.04.247.062.466.02.214.04.474.053.776.014.3.026.62.036.953.012.34.015.67.008.984l-.01 29.757 10.647-2.258v-17.737c0-10.71 4.284-15.883 5.447-16.957.724-.672 1.428-1.156 2.237-1.327.625-.135 1.154-.11 1.59.064.434.173.803.434 1.107.782.302.35.543.763.728 1.237.182.47.32.93.414 1.373.12.58.205 1.248.256 2.01.05.755.082 1.51.094 2.274.016.765.023 1.498.026 2.202.002.705.006 1.303.012 1.79l.04 5.905c-.004 3.796.208 6.72.637 8.773.48 2.303 1.586 3.95 3.314 4.934 1.726.984 3.952 1.187 6.683.607 1.294-.273 2.457-.667 3.484-1.175 1.028-.51 1.94-1.092 2.732-1.748.792-.654 1.484-1.353 2.078-2.1zM443.388 225.056c-.564.41-1.22.7-1.957.855-.787.17-1.454.014-1.997-.453-.546-.47-.93-1.23-1.146-2.273-.21-1.002-.34-2.088-.39-3.262-.052-1.166-.075-2.434-.07-3.798l.06-24.322-16.857 3.576v4.002l1.455-.33c.67-.145 1.25-.23 1.74-.262.486-.032.903.022 1.247.175.345.142.63.4.852.77.222.363.4.877.536 1.528.02.094.04.245.058.457.023.22.04.48.056.776.015.3.026.62.038.96.01.337.013.668.006.988l.01 13.906c-.016 1.9.033 3.58.145 5.04.113 1.46.275 2.706.488 3.73.486 2.307 1.59 3.954 3.316 4.937 1.73.98 3.957 1.185 6.685.605 1.295-.275 2.453-.662 3.47-1.175 1.016-.507 1.927-1.09 2.73-1.75.804-.656 1.503-1.36 2.095-2.103.594-.746 1.104-1.48 1.534-2.204l-2.206-2.053c-.7.713-1.33 1.272-1.896 1.683zM479.793 187.427c-2.04-5.83-10.75-6.347-15.63.804-3.24 4.743-3.135 8.917-3.135 8.917l-.298-10.182-15.974 3.378.024 3.993 1.43-.327c1.34-.28 2.34-.294 3-.03.656.256 1.08.833 1.264 1.72.11.512.177 1.104.21 1.778.032.675.057 1.218.07 1.632v30.045l10.692-2.272.12-12.946c.142-11.798 2.196-22.134 7.3-23.307 4-.918 4.946 6.32 4.946 6.32 5.98-1.42 6.814-7.143 5.98-9.523zM543.666 202.533c-.697.708-1.328 1.27-1.894 1.684-.564.41-1.22.7-1.958.854-.786.167-1.454.016-1.997-.454-.546-.472-.927-1.228-1.146-2.276-.21-1.002-.34-2.086-.39-3.258-.05-1.166-.075-2.433-.07-3.797l.002-39.513-16.92 3.595v3.997l1.622-.404c.67-.142 1.256-.226 1.757-.26.5-.034.923.024 1.268.167.345.152.627.405.848.77.224.365.4.878.537 1.532.02.092.04.243.062.465.018.206.036.468.053.77.014.295.02.62.02.96 0 .342-.004.67-.012.99l-.037 29.147c-.003 3.8.21 6.723.64 8.773.48 2.31 1.586 3.952 3.31 4.937 1.728.984 3.955 1.186 6.686.607 1.294-.273 2.457-.665 3.485-1.177 1.027-.514 1.94-1.095 2.732-1.75.79-.656 1.485-1.356 2.078-2.104.593-.746 1.103-1.483 1.53-2.202l-2.204-2.055z"/><path d="M244.622 549.658c-1.433 0-2.56.46-3.383 1.375-.824.917-1.235 2.172-1.235 3.766 0 1.63.388 2.895 1.164 3.796.775.9 1.885 1.352 3.327 1.352.958 0 1.84-.122 2.64-.367v.704c-.754.266-1.697.398-2.827.398-1.604 0-2.867-.518-3.79-1.555-.92-1.036-1.382-2.484-1.382-4.344 0-1.16.22-2.185.66-3.07.44-.885 1.073-1.568 1.898-2.05.825-.482 1.785-.724 2.88-.724 1.113 0 2.11.208 2.99.624l-.32.72c-.832-.417-1.707-.626-2.624-.626zM257.312 556.268c0 1.386-.336 2.468-1.008 3.246-.672.78-1.6 1.168-2.78 1.168-.746 0-1.402-.18-1.97-.54s-1.003-.874-1.305-1.546-.454-1.447-.454-2.328c0-1.385.336-2.465 1.008-3.238s1.594-1.16 2.766-1.16c1.167 0 2.082.393 2.746 1.176.664.783.996 1.857.996 3.222zm-6.703 0c0 1.167.256 2.077.77 2.73.512.654 1.237.98 2.175.98s1.663-.326 2.176-.98c.514-.653.77-1.563.77-2.73 0-1.172-.258-2.08-.776-2.727-.52-.645-1.246-.968-2.184-.968s-1.66.322-2.168.965c-.51.644-.763 1.554-.763 2.73zM261.237 560.525h-.773V548.37h.773v12.155zM265.655 560.525h-.773V548.37h.773v12.155zM274.455 560.525l-.195-1.344h-.062c-.427.548-.866.935-1.316 1.16s-.983.34-1.598.34c-.833 0-1.48-.212-1.945-.64-.465-.427-.696-1.018-.696-1.773 0-.828.345-1.47 1.035-1.93.69-.458 1.687-.7 2.995-.727l1.617-.047V555c0-.806-.164-1.415-.492-1.827-.328-.41-.856-.617-1.586-.617-.786 0-1.602.22-2.445.656l-.29-.672c.933-.438 1.854-.656 2.766-.656.933 0 1.63.242 2.09.727s.69 1.24.69 2.267v5.648h-.57zm-3.125-.546c.906 0 1.62-.26 2.145-.778.523-.518.785-1.238.785-2.16v-.836l-1.484.062c-1.192.058-2.043.244-2.55.56-.51.314-.763.806-.763 1.472 0 .53.163.944.488 1.238.326.294.786.44 1.38.44zM282.16 551.87c1.19 0 2.083.373 2.685 1.12.602.748.902 1.84.902 3.277 0 1.412-.316 2.5-.95 3.266s-1.52 1.148-2.667 1.148c-.604 0-1.148-.124-1.633-.374s-.867-.604-1.148-1.062h-.07l-.22 1.28h-.484V548.37h.773v3.054c0 .46-.012.88-.032 1.266l-.023.664h.055c.323-.51.712-.885 1.168-1.125.455-.24 1.003-.36 1.643-.36zm-.014.702c-1 0-1.716.287-2.148.86-.433.572-.648 1.518-.648 2.835v.133c0 1.28.226 2.2.676 2.758.45.558 1.152.836 2.105.836.928 0 1.626-.324 2.095-.973s.703-1.57.703-2.77c0-2.45-.928-3.678-2.782-3.678zM295.922 556.268c0 1.386-.336 2.468-1.008 3.246-.672.78-1.6 1.168-2.78 1.168-.746 0-1.402-.18-1.97-.54s-1.003-.874-1.305-1.546-.454-1.447-.454-2.328c0-1.385.336-2.465 1.008-3.238s1.594-1.16 2.766-1.16c1.167 0 2.082.393 2.746 1.176.664.783.996 1.857.996 3.222zm-6.703 0c0 1.167.256 2.077.77 2.73.512.654 1.237.98 2.175.98s1.663-.326 2.176-.98c.514-.653.77-1.563.77-2.73 0-1.172-.258-2.08-.776-2.727-.52-.645-1.246-.968-2.184-.968s-1.66.322-2.168.965c-.51.644-.763 1.554-.763 2.73zM302.417 551.87c.36 0 .745.036 1.156.108l-.148.742c-.354-.088-.722-.133-1.102-.133-.724 0-1.317.308-1.78.922-.465.614-.696 1.39-.696 2.327v4.688h-.773v-8.492h.656l.078 1.53h.055c.35-.624.722-1.062 1.117-1.315.395-.252.874-.38 1.437-.38zM311.257 560.525l-.195-1.344H311c-.427.548-.866.935-1.316 1.16s-.983.34-1.598.34c-.833 0-1.48-.212-1.945-.64-.463-.427-.694-1.018-.694-1.773 0-.828.345-1.47 1.035-1.93.69-.458 1.69-.7 2.997-.727l1.617-.047V555c0-.806-.164-1.415-.492-1.827-.328-.41-.856-.617-1.586-.617-.786 0-1.602.22-2.445.656l-.288-.672c.933-.438 1.854-.656 2.766-.656.933 0 1.63.242 2.09.727s.69 1.24.69 2.267v5.648h-.57zm-3.125-.546c.906 0 1.62-.26 2.145-.778.523-.518.785-1.238.785-2.16v-.836l-1.484.062c-1.192.058-2.043.244-2.55.56-.51.314-.763.806-.763 1.472 0 .53.163.944.488 1.238.325.294.785.44 1.38.44zM317.62 559.994c.488 0 .916-.04 1.28-.125v.624c-.375.125-.808.188-1.297.188-.75 0-1.304-.2-1.66-.602-.356-.4-.535-1.03-.535-1.89v-5.485h-1.258v-.453l1.258-.352.39-1.922h.4v2.055h2.49v.672h-2.49v5.375c0 .65.113 1.133.343 1.445s.59.47 1.08.47zM321.427 549.674c0-.5.164-.75.492-.75.16 0 .287.065.378.195.09.13.137.314.137.554 0 .234-.046.42-.137.555-.09.135-.218.202-.38.202-.327 0-.49-.252-.49-.758zm.883 10.85h-.773v-8.49h.773v8.49zM332.977 556.268c0 1.386-.336 2.468-1.008 3.246-.673.78-1.6 1.168-2.782 1.168-.745 0-1.4-.18-1.97-.54s-1.002-.874-1.304-1.546-.453-1.447-.453-2.328c0-1.385.337-2.465 1.01-3.238s1.593-1.16 2.765-1.16c1.167 0 2.082.393 2.746 1.176.665.783.997 1.857.997 3.222zm-6.704 0c0 1.167.257 2.077.77 2.73.513.654 1.238.98 2.176.98s1.662-.326 2.175-.98c.513-.653.77-1.563.77-2.73 0-1.172-.26-2.08-.777-2.727-.52-.645-1.246-.968-2.184-.968s-1.66.322-2.168.965c-.51.644-.763 1.554-.763 2.73zM342.05 560.525v-5.508c0-.854-.18-1.475-.54-1.863-.358-.388-.916-.582-1.67-.582-1.017 0-1.76.257-2.23.77-.473.514-.708 1.346-.708 2.496v4.688h-.773v-8.492h.655l.148 1.164h.047c.552-.885 1.534-1.328 2.945-1.328 1.927 0 2.89 1.034 2.89 3.102v5.555h-.765zM351.705 554.682c0-.463.105-.813.316-1.05.212-.237.508-.356.888-.356s.676.123.887.367c.21.245.316.592.316 1.04 0 .442-.105.788-.32 1.038s-.507.376-.882.376-.67-.122-.883-.367c-.213-.246-.32-.595-.32-1.048zM368.79 556.494h-4.642l-1.594 4.03h-.883l4.595-11.468h.508l4.5 11.47h-.898l-1.586-4.032zm-4.352-.72h4.086l-1.555-4.116c-.13-.322-.287-.77-.47-1.344-.14.5-.294.953-.46 1.36l-1.602 4.1zM374.167 552.033v5.5c0 .854.18 1.476.54 1.863.358.39.916.582 1.67.582 1.012 0 1.755-.255 2.23-.766.478-.51.716-1.34.716-2.492v-4.688h.766v8.492h-.657l-.14-1.172h-.048c-.552.886-1.534 1.328-2.945 1.328-1.933 0-2.898-1.033-2.898-3.102v-5.547h.765zM385.976 559.994c.49 0 .917-.04 1.28-.125v.624c-.374.125-.807.188-1.296.188-.75 0-1.304-.2-1.66-.602-.356-.4-.535-1.03-.535-1.89v-5.485h-1.258v-.453l1.258-.352.39-1.922h.4v2.055h2.49v.672h-2.49v5.375c0 .65.113 1.133.343 1.445s.588.47 1.078.47zM396.916 556.268c0 1.386-.336 2.468-1.008 3.246-.672.78-1.6 1.168-2.78 1.168-.746 0-1.402-.18-1.97-.54s-1.003-.874-1.305-1.546-.453-1.447-.453-2.328c0-1.385.336-2.465 1.008-3.238s1.594-1.16 2.766-1.16c1.167 0 2.082.393 2.746 1.176.664.783.996 1.857.996 3.222zm-6.703 0c0 1.167.257 2.077.77 2.73.513.654 1.238.98 2.176.98s1.662-.326 2.175-.98c.513-.653.77-1.563.77-2.73 0-1.172-.26-2.08-.777-2.727-.52-.645-1.246-.968-2.184-.968s-1.66.322-2.168.965c-.51.644-.763 1.554-.763 2.73zM405.99 560.525v-5.508c0-.854-.18-1.475-.54-1.863-.36-.388-.917-.582-1.672-.582-1.016 0-1.76.257-2.23.77-.472.514-.707 1.346-.707 2.496v4.688h-.772v-8.492h.656l.148 1.164h.047c.55-.885 1.533-1.328 2.944-1.328 1.927 0 2.89 1.034 2.89 3.102v5.555h-.765zM417.328 556.268c0 1.386-.336 2.468-1.008 3.246-.672.78-1.6 1.168-2.78 1.168-.746 0-1.402-.18-1.97-.54s-1.003-.874-1.305-1.546-.453-1.447-.453-2.328c0-1.385.336-2.465 1.008-3.238s1.594-1.16 2.766-1.16c1.167 0 2.082.393 2.746 1.176.664.783.996 1.857.996 3.222zm-6.703 0c0 1.167.257 2.077.77 2.73.513.654 1.238.98 2.176.98s1.664-.326 2.177-.98c.513-.653.77-1.563.77-2.73 0-1.172-.26-2.08-.777-2.727-.52-.645-1.246-.968-2.184-.968s-1.66.322-2.168.965c-.51.644-.763 1.554-.763 2.73zM431.09 560.525v-5.57c0-.828-.162-1.432-.485-1.812-.323-.38-.817-.57-1.484-.57-.87 0-1.512.24-1.93.72-.416.478-.624 1.23-.624 2.257v4.977h-.79v-5.805c0-1.432-.655-2.148-1.968-2.148-.89 0-1.54.26-1.945.777-.406.52-.61 1.35-.61 2.49v4.687h-.772v-8.492h.642l.164 1.164h.047c.234-.423.567-.75 1-.98.433-.232.91-.35 1.43-.35 1.34 0 2.198.504 2.578 1.51h.032c.276-.485.647-.857 1.113-1.118.466-.26.996-.39 1.59-.39.927 0 1.622.247 2.086.74.465.496.696 1.282.696 2.36v5.555h-.767zM433.983 552.033h.797l1.797 4.766c.547 1.463.894 2.45 1.04 2.96h.046c.22-.672.575-1.674 1.07-3.008l1.797-4.72h.797l-3.805 9.868c-.308.802-.565 1.344-.773 1.625s-.453.492-.73.633-.617.21-1.013.21c-.297 0-.628-.054-.992-.163v-.672c.302.083.628.125.977.125.266 0 .5-.062.703-.188s.387-.32.55-.582c.165-.264.355-.68.57-1.25s.356-.94.42-1.113l-3.252-8.492zM448.888 554.682c0-.463.105-.813.316-1.05.21-.237.507-.356.887-.356s.677.123.888.367c.21.245.316.592.316 1.04 0 .442-.106.788-.32 1.038s-.508.376-.883.376-.668-.122-.882-.367c-.214-.246-.32-.595-.32-1.048zM463.448 560.525h-.805v-10.672h-3.71v-.75h8.226v.75h-3.712v10.672zM472.804 551.87c.36 0 .745.036 1.156.108l-.148.742c-.354-.088-.722-.133-1.102-.133-.724 0-1.317.308-1.78.922-.465.614-.696 1.39-.696 2.327v4.688h-.773v-8.492h.657l.078 1.53h.055c.35-.624.722-1.062 1.117-1.315.395-.252.874-.38 1.437-.38zM481.643 560.525l-.195-1.344h-.062c-.427.548-.866.935-1.316 1.16s-.983.34-1.598.34c-.833 0-1.48-.212-1.945-.64-.464-.427-.695-1.018-.695-1.773 0-.828.345-1.47 1.035-1.93.69-.458 1.688-.7 2.996-.727l1.617-.047V555c0-.806-.164-1.415-.492-1.827-.328-.41-.856-.617-1.586-.617-.786 0-1.602.22-2.445.656l-.29-.672c.934-.438 1.855-.656 2.767-.656.933 0 1.63.242 2.09.727s.69 1.24.69 2.267v5.648h-.57zm-3.125-.546c.906 0 1.62-.26 2.145-.778.523-.518.785-1.238.785-2.16v-.836l-1.484.062c-1.192.058-2.043.244-2.55.56-.51.314-.763.806-.763 1.472 0 .53.164.944.49 1.238.324.294.784.44 1.378.44zM491.685 560.525v-5.508c0-.854-.18-1.475-.54-1.863-.358-.388-.916-.582-1.67-.582-1.017 0-1.76.257-2.23.77-.473.514-.708 1.346-.708 2.496v4.688h-.773v-8.492h.656l.148 1.164h.047c.552-.885 1.534-1.328 2.945-1.328 1.927 0 2.89 1.034 2.89 3.102v5.555h-.765zM501.266 558.314c0 .76-.29 1.346-.867 1.754-.58.41-1.4.613-2.462.613-1.136 0-2.036-.173-2.703-.522v-.836c.854.428 1.755.64 2.703.64.84 0 1.476-.138 1.91-.417.435-.278.652-.65.652-1.113 0-.427-.173-.786-.52-1.078-.347-.29-.915-.578-1.707-.86-.85-.306-1.445-.57-1.79-.792-.343-.22-.602-.47-.776-.75-.175-.278-.262-.618-.262-1.02 0-.635.267-1.138.8-1.508.535-.37 1.28-.555 2.24-.555.916 0 1.785.17 2.608.515l-.29.703c-.832-.344-1.605-.516-2.32-.516-.69 0-1.24.115-1.647.344-.406.23-.61.547-.61.953 0 .442.158.796.474 1.06s.93.563 1.848.892c.766.276 1.323.525 1.672.746.35.222.61.473.785.754s.26.613.26.992zM507.886 560.682c-1.308 0-2.26-.49-2.86-1.47h-.054l.023.657c.02.385.03.806.03 1.265v3.234h-.772v-12.337h.656l.147 1.21h.047c.583-.915 1.516-1.374 2.797-1.374 1.147 0 2.02.376 2.622 1.128.602.753.902 1.848.902 3.285 0 1.396-.316 2.48-.95 3.246-.63.768-1.495 1.152-2.588 1.152zm-.016-.688c.87 0 1.543-.322 2.02-.97.477-.645.715-1.548.715-2.71 0-2.494-.9-3.742-2.703-3.742-.99 0-1.716.272-2.18.816-.464.545-.695 1.432-.695 2.66v.25c0 1.328.223 2.276.668 2.844.445.57 1.17.852 2.175.852zM519.733 560.525l-.195-1.344h-.062c-.427.548-.866.935-1.316 1.16s-.983.34-1.598.34c-.833 0-1.48-.212-1.945-.64-.464-.427-.695-1.018-.695-1.773 0-.828.345-1.47 1.035-1.93.69-.458 1.688-.7 2.996-.727l1.617-.047V555c0-.806-.164-1.415-.492-1.827-.328-.41-.856-.617-1.586-.617-.786 0-1.602.22-2.445.656l-.29-.672c.934-.438 1.855-.656 2.767-.656.933 0 1.63.242 2.09.727s.69 1.24.69 2.267v5.648h-.57zm-3.125-.546c.906 0 1.62-.26 2.145-.778.523-.518.785-1.238.785-2.16v-.836l-1.484.062c-1.192.058-2.043.244-2.55.56-.51.314-.763.806-.763 1.472 0 .53.164.944.49 1.238.325.294.785.44 1.378.44zM527.197 551.87c.36 0 .745.036 1.156.108l-.148.742c-.354-.088-.722-.133-1.102-.133-.724 0-1.317.308-1.78.922-.465.614-.696 1.39-.696 2.327v4.688h-.773v-8.492h.656l.078 1.53h.055c.35-.624.722-1.062 1.117-1.315.395-.252.875-.38 1.437-.38zM534.31 560.682c-1.234 0-2.196-.38-2.887-1.14-.69-.76-1.035-1.826-1.035-3.196 0-1.354.333-2.438 1-3.254.667-.814 1.565-1.223 2.695-1.223 1 0 1.79.35 2.367 1.046.578.698.867 1.646.867 2.844v.625H531.2c.01 1.167.282 2.058.816 2.672.534.615 1.298.922 2.293.922.483 0 .91-.034 1.276-.103.367-.067.832-.213 1.395-.438v.702c-.478.21-.92.35-1.327.426s-.854.114-1.343.114zm-.227-8.125c-.817 0-1.474.27-1.97.81s-.783 1.315-.866 2.33h5.25c0-.983-.214-1.753-.64-2.308s-1.02-.833-1.774-.833zM546.383 560.525v-5.508c0-.854-.18-1.475-.54-1.863-.358-.388-.916-.582-1.67-.582-1.017 0-1.76.257-2.23.77-.473.514-.708 1.346-.708 2.496v4.688h-.773v-8.492h.656l.148 1.164h.047c.552-.885 1.534-1.328 2.945-1.328 1.927 0 2.89 1.034 2.89 3.102v5.555h-.765zM554.09 560.682c-1.215 0-2.165-.383-2.853-1.148s-1.03-1.833-1.03-3.203c0-1.405.355-2.5 1.07-3.284.713-.783 1.69-1.176 2.93-1.176.733 0 1.437.128 2.108.383l-.21.688c-.735-.243-1.373-.366-1.915-.366-1.042 0-1.83.322-2.367.965-.536.643-.805 1.568-.805 2.776 0 1.146.27 2.043.805 2.69s1.286.974 2.25.974c.77 0 1.487-.138 2.148-.414v.72c-.54.263-1.25.396-2.13.396zM557.68 552.033h.796l1.797 4.766c.547 1.463.894 2.45 1.04 2.96h.046c.218-.672.574-1.674 1.07-3.008l1.796-4.72h.797l-3.805 9.868c-.308.802-.565 1.344-.773 1.625s-.452.492-.73.633-.616.21-1.012.21c-.297 0-.628-.054-.992-.163v-.672c.303.083.63.125.978.125.266 0 .5-.062.703-.188s.388-.32.552-.582c.164-.264.354-.68.57-1.25s.355-.94.418-1.113l-3.25-8.492zM572.583 554.682c0-.463.105-.813.316-1.05.21-.237.506-.356.886-.356s.676.123.887.367c.21.245.316.592.316 1.04 0 .442-.107.788-.32 1.038s-.51.376-.884.376-.67-.122-.883-.367c-.214-.246-.32-.595-.32-1.048zM592.84 554.705c0 1.917-.504 3.366-1.51 4.348-1.004.982-2.48 1.473-4.43 1.473h-2.733v-11.422h3.086c1.823 0 3.21.477 4.16 1.43s1.426 2.343 1.426 4.17zm-.868.03c0-1.634-.415-2.864-1.246-3.69-.83-.825-2.05-1.238-3.66-1.238h-2.102v10.016h1.89c3.412 0 5.118-1.696 5.118-5.087zM595.96 549.674c0-.5.164-.75.492-.75.16 0 .288.065.38.195.09.13.136.314.136.554 0 .234-.046.42-.137.555-.09.135-.217.202-.378.202-.328 0-.492-.252-.492-.758zm.883 10.85h-.773v-8.49h.773v8.49zM602.346 560.525l-3.28-8.492h.796l2.195 5.773c.292.74.51 1.386.656 1.938h.047c.214-.708.433-1.36.656-1.953l2.195-5.757h.798l-3.28 8.492h-.782zM612.06 560.682c-1.234 0-2.196-.38-2.887-1.14-.69-.76-1.035-1.826-1.035-3.196 0-1.354.333-2.438 1-3.254.667-.814 1.565-1.223 2.695-1.223 1 0 1.79.35 2.367 1.046.578.698.867 1.646.867 2.844v.625h-6.117c.01 1.167.282 2.058.816 2.672.534.615 1.298.922 2.293.922.483 0 .91-.034 1.276-.103.367-.067.832-.213 1.395-.438v.702c-.478.21-.92.35-1.327.426s-.854.114-1.343.114zm-.227-8.125c-.817 0-1.474.27-1.97.81s-.783 1.315-.866 2.33h5.25c0-.983-.214-1.753-.64-2.308s-1.02-.833-1.774-.833zM621.555 551.87c.36 0 .745.036 1.156.108l-.147.742c-.354-.088-.722-.133-1.102-.133-.723 0-1.316.308-1.78.922-.464.614-.695 1.39-.695 2.327v4.688h-.773v-8.492h.656l.078 1.53H619c.35-.624.722-1.062 1.117-1.315.396-.252.875-.38 1.438-.38zM630.503 558.314c0 .76-.29 1.346-.867 1.754-.578.41-1.398.613-2.46.613-1.137 0-2.037-.173-2.704-.522v-.836c.854.428 1.755.64 2.703.64.84 0 1.476-.138 1.91-.417.435-.278.652-.65.652-1.113 0-.427-.173-.786-.52-1.078-.347-.29-.915-.578-1.707-.86-.85-.306-1.445-.57-1.79-.792-.343-.22-.602-.47-.776-.75-.175-.278-.262-.618-.262-1.02 0-.635.267-1.138.8-1.508.535-.37 1.28-.555 2.24-.555.916 0 1.785.17 2.608.515l-.29.703c-.832-.344-1.605-.516-2.32-.516-.69 0-1.24.115-1.647.344-.406.23-.61.547-.61.953 0 .442.158.796.474 1.06s.93.563 1.848.892c.766.276 1.323.525 1.672.746.35.222.61.473.785.754s.26.613.26.992zM633.382 549.674c0-.5.164-.75.492-.75.16 0 .288.065.38.195.09.13.136.314.136.554 0 .234-.046.42-.137.555-.09.135-.218.202-.38.202-.327 0-.49-.252-.49-.758zm.883 10.85h-.773v-8.49h.773v8.49zM640.15 559.994c.49 0 .917-.04 1.28-.125v.624c-.374.125-.807.188-1.296.188-.75 0-1.304-.2-1.66-.602-.356-.4-.535-1.03-.535-1.89v-5.485h-1.26v-.453l1.26-.352.39-1.922h.398v2.055h2.492v.672h-2.492v5.375c0 .65.114 1.133.344 1.445s.59.47 1.078.47zM642.646 552.033h.797l1.797 4.766c.547 1.463.894 2.45 1.04 2.96h.046c.22-.672.575-1.674 1.07-3.008l1.797-4.72h.797l-3.805 9.868c-.308.802-.565 1.344-.773 1.625s-.452.492-.73.633-.616.21-1.012.21c-.297 0-.628-.054-.992-.163v-.672c.302.083.628.125.977.125.266 0 .5-.062.703-.188s.387-.32.55-.582c.165-.264.355-.68.57-1.25s.356-.94.42-1.113l-3.252-8.492zM311.254 585.525h-6.242v-11.422h6.242v.734h-5.445v4.32h5.14v.734h-5.14v4.9h5.444v.735zM320.366 585.525v-5.508c0-.854-.18-1.475-.54-1.863-.358-.388-.916-.582-1.67-.582-1.017 0-1.76.257-2.23.77-.473.514-.708 1.346-.708 2.496v4.688h-.773v-8.492h.656l.15 1.164h.046c.552-.885 1.534-1.328 2.945-1.328 1.928 0 2.892 1.034 2.892 3.102v5.555h-.766zM326.924 584.994c.49 0 .917-.042 1.28-.125v.624c-.374.125-.807.188-1.296.188-.75 0-1.304-.2-1.66-.602s-.535-1.03-.535-1.89v-5.485h-1.258v-.453l1.258-.352.39-1.922h.4v2.055h2.49v.672h-2.49v5.375c0 .65.113 1.133.343 1.445s.59.47 1.078.47zM334.186 576.87c.36 0 .745.036 1.156.108l-.148.742c-.354-.088-.722-.133-1.102-.133-.724 0-1.317.308-1.78.922-.465.614-.696 1.39-.696 2.327v4.688h-.773v-8.492h.656l.077 1.53h.055c.35-.624.722-1.062 1.117-1.315.394-.252.873-.38 1.436-.38zM341.298 585.682c-1.234 0-2.196-.38-2.887-1.14s-1.034-1.826-1.034-3.196c0-1.354.333-2.438 1-3.254.667-.814 1.565-1.223 2.695-1.223 1 0 1.79.35 2.368 1.046.578.698.867 1.646.867 2.844v.625h-6.117c.01 1.167.282 2.058.816 2.672.534.615 1.298.922 2.293.922.484 0 .91-.035 1.277-.103s.832-.213 1.395-.438v.702c-.48.208-.923.35-1.33.426-.405.075-.853.114-1.342.114zm-.227-8.125c-.816 0-1.473.27-1.968.81s-.784 1.315-.867 2.33h5.25c0-.983-.214-1.753-.64-2.308s-1.02-.833-1.774-.833zM351.082 585.682c-1.308 0-2.26-.49-2.86-1.47h-.054l.023.657c.022.384.032.806.032 1.265v3.234h-.773v-12.337h.655l.148 1.21h.047c.583-.915 1.516-1.374 2.797-1.374 1.146 0 2.02.376 2.62 1.128.603.753.903 1.848.903 3.285 0 1.396-.316 2.48-.95 3.246s-1.494 1.152-2.588 1.152zm-.016-.688c.87 0 1.543-.322 2.02-.97.477-.645.715-1.548.715-2.71 0-2.494-.9-3.742-2.702-3.742-.99 0-1.716.272-2.18.816-.464.545-.695 1.432-.695 2.66v.25c0 1.328.223 2.276.668 2.844.446.57 1.172.852 2.176.852zM361.116 576.87c.36 0 .745.036 1.156.108l-.148.742c-.354-.088-.722-.133-1.102-.133-.724 0-1.317.308-1.78.922-.465.614-.696 1.39-.696 2.327v4.688h-.773v-8.492h.656l.077 1.53h.055c.35-.624.722-1.062 1.117-1.315.394-.252.874-.38 1.436-.38zM368.23 585.682c-1.235 0-2.197-.38-2.888-1.14s-1.035-1.826-1.035-3.196c0-1.354.333-2.438 1-3.254.667-.814 1.565-1.223 2.695-1.223 1 0 1.79.35 2.367 1.046.577.698.866 1.646.866 2.844v.625h-6.117c.01 1.167.28 2.058.815 2.672.534.615 1.298.922 2.293.922.484 0 .91-.035 1.277-.103s.832-.213 1.395-.438v.702c-.48.208-.922.35-1.328.426-.406.075-.854.114-1.343.114zm-.228-8.125c-.817 0-1.474.27-1.97.81s-.783 1.315-.866 2.33h5.25c0-.983-.214-1.753-.64-2.308s-1.02-.833-1.774-.833zM380.303 585.525v-5.508c0-.854-.18-1.475-.54-1.863-.358-.388-.916-.582-1.67-.582-1.017 0-1.76.257-2.23.77-.473.514-.708 1.346-.708 2.496v4.688h-.773v-8.492h.656l.148 1.164h.047c.552-.885 1.534-1.328 2.945-1.328 1.927 0 2.89 1.034 2.89 3.102v5.555h-.765zM388.048 585.682c-1.234 0-2.196-.38-2.887-1.14s-1.034-1.826-1.034-3.196c0-1.354.333-2.438 1-3.254.667-.814 1.565-1.223 2.695-1.223 1 0 1.79.35 2.368 1.046.578.698.867 1.646.867 2.844v.625h-6.117c.01 1.167.282 2.058.816 2.672.534.615 1.298.922 2.293.922.484 0 .91-.035 1.277-.103s.832-.213 1.395-.438v.702c-.48.208-.923.35-1.33.426-.405.075-.853.114-1.342.114zm-.227-8.125c-.816 0-1.473.27-1.968.81s-.784 1.315-.867 2.33h5.25c0-.983-.214-1.753-.64-2.308s-1.02-.833-1.774-.833zM394.87 577.033v5.5c0 .854.18 1.476.54 1.863.36.39.917.582 1.672.582 1.01 0 1.754-.255 2.23-.766.477-.51.715-1.34.715-2.492v-4.688h.766v8.492h-.656l-.14-1.172h-.048c-.553.885-1.535 1.328-2.946 1.328-1.933 0-2.898-1.033-2.898-3.102v-5.547h.765zM407.78 576.87c.36 0 .745.036 1.156.108l-.148.742c-.354-.088-.722-.133-1.102-.133-.724 0-1.317.308-1.78.922-.465.614-.696 1.39-.696 2.327v4.688h-.773v-8.492h.656l.078 1.53h.056c.35-.624.722-1.062 1.117-1.315.395-.252.875-.38 1.437-.38zM411.354 574.674c0-.5.164-.75.492-.75.16 0 .288.065.38.195.09.13.136.314.136.554 0 .234-.046.42-.137.555-.09.135-.218.202-.38.202-.327 0-.49-.252-.49-.758zm.882 10.85h-.773v-8.49h.773v8.49zM421.037 585.525l-.195-1.344h-.062c-.427.548-.866.935-1.316 1.16s-.983.34-1.598.34c-.833 0-1.48-.213-1.945-.64s-.694-1.018-.694-1.773c0-.828.345-1.47 1.035-1.93.69-.458 1.69-.7 2.997-.727l1.617-.047V580c0-.806-.164-1.415-.492-1.827-.328-.41-.856-.617-1.586-.617-.786 0-1.602.22-2.445.656l-.288-.672c.933-.438 1.854-.656 2.766-.656.933 0 1.63.242 2.09.727s.69 1.24.69 2.267v5.648h-.57zm-3.125-.546c.906 0 1.62-.26 2.145-.778.523-.518.785-1.238.785-2.16v-.836l-1.484.062c-1.192.058-2.043.244-2.55.56-.51.314-.763.806-.763 1.472 0 .53.163.944.488 1.238.325.294.785.44 1.38.44zM425.93 585.525h-.772V573.37h.773v12.155zM429.465 574.674c0-.5.164-.75.492-.75.16 0 .288.065.38.195.09.13.136.314.136.554 0 .234-.046.42-.137.555-.09.135-.218.202-.38.202-.327 0-.49-.252-.49-.758zm.883 10.85h-.773v-8.49h.773v8.49zM439.257 583.314c0 .76-.29 1.346-.867 1.754s-1.398.613-2.46.613c-1.137 0-2.037-.174-2.704-.522v-.836c.854.428 1.755.64 2.703.64.838 0 1.475-.138 1.91-.417.434-.278.65-.65.65-1.113 0-.427-.172-.786-.52-1.078-.346-.29-.914-.578-1.706-.86-.85-.306-1.445-.57-1.79-.792-.343-.22-.602-.47-.776-.75-.175-.278-.262-.618-.262-1.02 0-.635.267-1.138.8-1.508.535-.37 1.28-.555 2.24-.555.916 0 1.785.17 2.608.515l-.29.703c-.832-.344-1.605-.516-2.32-.516-.69 0-1.24.115-1.647.344-.406.23-.61.547-.61.953 0 .442.158.796.474 1.06s.932.563 1.85.892c.765.276 1.322.525 1.67.746.35.222.61.473.786.754s.26.613.26.992zM452.854 585.525v-5.57c0-.828-.16-1.432-.484-1.812-.323-.38-.817-.57-1.484-.57-.87 0-1.513.24-1.93.72-.417.478-.625 1.23-.625 2.257v4.977h-.788v-5.805c0-1.432-.656-2.148-1.97-2.148-.89 0-1.538.26-1.944.777-.406.52-.61 1.35-.61 2.49v4.687h-.772v-8.492h.64l.165 1.164h.048c.234-.423.567-.75 1-.98.433-.232.91-.35 1.43-.35 1.34 0 2.198.504 2.578 1.51h.03c.277-.485.648-.857 1.114-1.118.466-.26.996-.39 1.59-.39.927 0 1.622.247 2.086.74.464.496.695 1.282.695 2.36v5.555h-.766zM462.51 579.682c0-.463.104-.813.315-1.05.21-.237.507-.356.887-.356s.676.123.887.367c.21.245.315.592.315 1.04 0 .442-.106.788-.32 1.038s-.508.376-.883.376-.67-.122-.883-.367c-.215-.246-.32-.595-.32-1.048zM482.397 585.525h-.805l-6.766-10.14h-.062c.062 1.208.094 2.12.094 2.733v7.406h-.766v-11.422h.797l6.757 10.125h.047c-.047-.938-.07-1.828-.07-2.672v-7.453h.773v11.423zM493.26 581.268c0 1.386-.336 2.468-1.008 3.246s-1.6 1.168-2.78 1.168c-.746 0-1.402-.18-1.97-.54s-1.003-.874-1.305-1.546-.453-1.447-.453-2.328c0-1.385.336-2.465 1.008-3.238s1.594-1.16 2.766-1.16c1.167 0 2.082.393 2.746 1.176.664.783.996 1.857.996 3.222zm-6.703 0c0 1.167.257 2.077.77 2.73.513.654 1.238.98 2.176.98s1.663-.326 2.176-.98c.512-.653.77-1.563.77-2.73 0-1.172-.26-2.08-.778-2.727-.52-.645-1.246-.968-2.184-.968s-1.66.322-2.168.965c-.51.644-.763 1.554-.763 2.73zM502.334 585.525v-5.508c0-.854-.18-1.475-.54-1.863-.358-.388-.916-.582-1.67-.582-1.017 0-1.76.257-2.23.77-.473.514-.708 1.346-.708 2.496v4.688h-.773v-8.492h.656l.147 1.164h.047c.552-.885 1.534-1.328 2.945-1.328 1.926 0 2.89 1.034 2.89 3.102v5.555h-.766zM505.946 581.525v-.64h3.71v.64h-3.71zM518.52 585.525v-5.508c0-.854-.18-1.475-.54-1.863-.358-.388-.916-.582-1.67-.582-1.017 0-1.76.257-2.23.77-.473.514-.708 1.346-.708 2.496v4.688h-.773V573.37h.772v3.867l-.04 1.086h.056c.317-.51.72-.88 1.203-1.11.485-.228 1.087-.343 1.806-.343 1.927 0 2.89 1.034 2.89 3.102v5.555h-.766zM522.726 574.674c0-.5.164-.75.492-.75.16 0 .288.065.38.195.09.13.136.314.136.554 0 .234-.046.42-.137.555-.09.135-.218.202-.38.202-.327 0-.49-.252-.49-.758zm.882 10.85h-.773v-8.49h.773v8.49zM530.682 585.682c-1.234 0-2.196-.38-2.887-1.14s-1.035-1.826-1.035-3.196c0-1.354.333-2.438 1-3.254.667-.814 1.565-1.223 2.695-1.223 1 0 1.79.35 2.367 1.046.578.698.867 1.646.867 2.844v.625h-6.118c.01 1.167.282 2.058.816 2.672.534.615 1.298.922 2.293.922.485 0 .91-.035 1.278-.103s.832-.213 1.395-.438v.702c-.48.208-.922.35-1.328.426-.406.075-.854.114-1.343.114zm-.227-8.125c-.817 0-1.474.27-1.97.81s-.783 1.315-.866 2.33h5.25c0-.983-.215-1.753-.642-2.308s-1.018-.833-1.773-.833zM540.178 576.87c.36 0 .745.036 1.156.108l-.148.742c-.354-.088-.722-.133-1.102-.133-.724 0-1.317.308-1.78.922-.465.614-.696 1.39-.696 2.327v4.688h-.773v-8.492h.656l.08 1.53h.054c.35-.624.722-1.062 1.117-1.315.396-.252.875-.38 1.438-.38zM549.017 585.525l-.195-1.344h-.062c-.427.548-.866.935-1.316 1.16s-.983.34-1.598.34c-.833 0-1.48-.213-1.945-.64s-.694-1.018-.694-1.773c0-.828.345-1.47 1.035-1.93.69-.458 1.69-.7 2.997-.727l1.617-.047V580c0-.806-.164-1.415-.492-1.827-.328-.41-.856-.617-1.586-.617-.786 0-1.602.22-2.445.656l-.288-.672c.933-.438 1.854-.656 2.766-.656.933 0 1.63.242 2.09.727s.69 1.24.69 2.267v5.648h-.57zm-3.125-.546c.906 0 1.62-.26 2.145-.778.523-.518.785-1.238.785-2.16v-.836l-1.484.062c-1.192.058-2.043.244-2.55.56-.51.314-.763.806-.763 1.472 0 .53.163.944.488 1.238.325.294.785.44 1.38.44zM556.48 576.87c.36 0 .745.036 1.156.108l-.148.742c-.354-.088-.722-.133-1.102-.133-.724 0-1.317.308-1.78.922-.465.614-.696 1.39-.696 2.327v4.688h-.773v-8.492h.656l.078 1.53h.056c.35-.624.722-1.062 1.117-1.315.395-.252.875-.38 1.437-.38zM563.554 585.682c-1.214 0-2.164-.383-2.852-1.148s-1.03-1.833-1.03-3.203c0-1.405.355-2.5 1.07-3.284.713-.783 1.69-1.176 2.93-1.176.733 0 1.437.128 2.108.383l-.21.688c-.735-.243-1.373-.366-1.915-.366-1.042 0-1.83.322-2.367.965-.536.643-.805 1.568-.805 2.776 0 1.146.27 2.043.805 2.69s1.286.974 2.25.974c.77 0 1.487-.138 2.148-.414v.72c-.54.263-1.252.396-2.132.396zM574.486 585.525v-5.508c0-.854-.18-1.475-.54-1.863-.358-.388-.916-.582-1.67-.582-1.017 0-1.76.257-2.23.77-.473.514-.708 1.346-.708 2.496v4.688h-.773V573.37h.773v3.867l-.04 1.086h.056c.317-.51.72-.88 1.203-1.11.484-.228 1.086-.343 1.805-.343 1.927 0 2.89 1.034 2.89 3.102v5.555h-.766zM577.38 577.033h.798l1.797 4.766c.547 1.463.894 2.45 1.04 2.96h.046c.22-.672.576-1.674 1.07-3.008l1.798-4.72h.797l-3.805 9.868c-.308.8-.565 1.344-.773 1.625s-.452.492-.73.633-.616.21-1.012.21c-.297 0-.628-.054-.992-.163v-.672c.302.082.628.125.977.125.266 0 .5-.062.703-.188s.387-.32.55-.582c.165-.264.355-.68.57-1.25s.356-.94.42-1.113l-3.252-8.492z"/><path fill="#ccc" d="M495 657.776c0-4.88-3.957-8.837-8.838-8.837h-26.324c-4.88 0-8.838 3.955-8.838 8.836v26.326c0 4.88 3.957 8.837 8.838 8.837h26.324c4.88 0 8.838-3.957 8.838-8.838v-26.326z"/><path fill="none" stroke="#F2F2F2" stroke-width="2" stroke-miterlimit="10" d="M458 670.94h16"/><path fill="#F2F2F2" d="M471 675.143l14.31-3.835-14.31-3.835z"/><path fill="#E6E6E6" d="M494 654.776c0-4.88-3.957-8.837-8.838-8.837h-26.324c-4.88 0-8.838 3.955-8.838 8.836v26.326c0 4.88 3.957 8.837 8.838 8.837h26.324c4.88 0 8.838-3.957 8.838-8.838v-26.326z"/><path fill="none" stroke="#B3B3B3" stroke-width="2" stroke-miterlimit="10" d="M458 667.94h20"/><path fill="#B3B3B3" d="M473.838 673.195l2.077-4.887-2.077-4.888 11.588 4.888z"/><path fill="#ccc" d="M394 657.776c0-4.88 3.957-8.837 8.838-8.837h26.324c4.88 0 8.838 3.955 8.838 8.836v26.326c0 4.88-3.957 8.837-8.838 8.837h-26.324c-4.88 0-8.838-3.957-8.838-8.838v-26.326z"/><path fill="none" stroke="#F2F2F2" stroke-width="2" stroke-miterlimit="10" d="M429 670.94h-16"/><path fill="#F2F2F2" d="M416 667.473l-14.31 3.835 14.31 3.835z"/><path fill="#E6E6E6" d="M393 654.776c0-4.88 3.957-8.837 8.838-8.837h26.324c4.88 0 8.838 3.955 8.838 8.836v26.326c0 4.88-3.957 8.837-8.838 8.837h-26.324c-4.88 0-8.838-3.957-8.838-8.838v-26.326z"/><path fill="none" stroke="#B3B3B3" stroke-width="2" stroke-miterlimit="10" d="M429 667.94h-20"/><path fill="#B3B3B3" d="M413.162 663.42l-2.077 4.888 2.077 4.887-11.588-4.887z"/></g></svg>