<?xml version="1.0" encoding="utf-8"?>
<!-- Generator: Adobe Illustrator 16.0.0, SVG Export Plug-In . SVG Version: 6.00 Build 0)  -->
<!DOCTYPE svg PUBLIC "-//W3C//DTD SVG 1.1//EN" "http://www.w3.org/Graphics/SVG/1.1/DTD/svg11.dtd">
<svg version="1.1" id="Layer_1" xmlns="http://www.w3.org/2000/svg" xmlns:xlink="http://www.w3.org/1999/xlink" x="0px" y="0px"
	 width="269.143px" height="254.31px" viewBox="309.488 56.94 269.143 254.31"
	 enable-background="new 309.488 56.94 269.143 254.31" xml:space="preserve">
<g>
	<g>
		<defs>
			<rect id="SVGID_1_" x="309.488" y="56.94" width="269.143" height="254.31"/>
		</defs>
		<clipPath id="SVGID_2_">
			<use xlink:href="#SVGID_1_"  overflow="visible"/>
		</clipPath>
		<path clip-path="url(#SVGID_2_)" d="M464.453,309.096c-71.409,13.03-139.905-34.33-152.928-105.698
			c-12.312-67.49,32.44-132.217,99.932-144.53c63.804-11.64,124.938,30.63,136.57,94.395v0.002l28.318-6.003
			C590.139,222.854,540.049,295.305,464.453,309.096z"/>
	</g>
	<path fill="#FFFFFF" d="M353.233,176.14c0.237-1.86,0.626-3.583,1.166-5.157c0.54-1.57,1.24-2.91,2.096-4.007
		c0.86-1.092,1.865-1.76,3.021-2.005c1.113-0.235,2.06-0.01,2.844,0.68c0.782,0.683,1.326,1.758,1.633,3.228
		c0.315,1.513,0.285,2.942-0.098,4.29c-0.385,1.346-1.045,2.573-1.983,3.685c-0.938,1.115-2.115,2.067-3.532,2.852
		c-1.418,0.79-3.007,1.37-4.765,1.74l-0.623,0.134c-0.08-1.765,0-3.575,0.24-5.44H353.233z M349.745,200.28
		c1.7,0.92,3.574,1.476,5.62,1.672c2.046,0.2,4.154,0.067,6.33-0.394c2.426-0.52,4.47-1.224,6.13-2.123s2.98-1.872,3.954-2.916
		c0.979-1.05,1.646-2.11,1.997-3.185c0.357-1.072,0.444-2.04,0.262-2.906c-0.126-0.604-0.326-1.163-0.602-1.677
		c-0.276-0.512-0.59-0.916-0.942-1.208c-0.356,0.833-0.815,1.67-1.377,2.503c-0.563,0.84-1.231,1.627-2.01,2.36
		c-0.773,0.74-1.646,1.385-2.617,1.943c-0.97,0.562-2.033,0.963-3.189,1.205c-2.59,0.555-4.683,0.213-6.28-1.02
		c-1.597-1.226-2.686-3.232-3.266-6.006c-0.083-0.397-0.168-0.836-0.257-1.312c-0.088-0.483-0.145-0.96-0.174-1.443
		c0.448-0.045,0.904-0.12,1.365-0.22c0.464-0.1,0.892-0.188,1.285-0.272c3.052-0.646,5.792-1.64,8.216-2.983
		c2.427-1.34,4.435-2.877,6.027-4.617c1.593-1.74,2.734-3.61,3.43-5.603c0.692-1.995,0.838-3.963,0.434-5.895
		c-0.555-2.66-1.922-4.525-4.104-5.61c-2.183-1.083-4.973-1.26-8.372-0.54c-2.614,0.557-4.947,1.433-7.004,2.634
		c-2.055,1.205-3.84,2.62-5.358,4.256c-1.517,1.64-2.777,3.434-3.781,5.39c-1.005,1.95-1.771,3.952-2.298,5.998
		c-0.524,2.047-0.817,4.085-0.875,6.116c-0.06,2.035,0.099,3.936,0.468,5.704c0.52,2.497,1.392,4.58,2.609,6.257
		c1.221,1.676,2.681,2.974,4.38,3.89L349.745,200.28z M408.223,221.11c-0.127,1.71-0.38,3.388-0.76,5.036
		c-0.381,1.653-0.894,3.152-1.54,4.508c-0.647,1.354-1.448,2.498-2.4,3.43c-0.95,0.932-2.062,1.533-3.335,1.804
		c-0.554,0.12-1.104,0.167-1.652,0.15c-0.546-0.02-1.06-0.072-1.54-0.167c-0.476-0.092-0.913-0.225-1.312-0.397
		c-0.396-0.167-0.977-0.338-1.229-0.506l0.022-13.398c0-11.136,5.592-16.565,7.773-16.895c0.747-0.116,1.402-0.066,1.994,0.268
		c0.591,0.337,1.104,0.837,1.545,1.502c0.438,0.658,0.818,1.434,1.141,2.33c0.317,0.897,0.58,1.827,0.785,2.807
		c0.279,1.35,0.468,2.85,0.56,4.5C408.365,217.727,408.347,219.407,408.223,221.11L408.223,221.11z M416.415,203.386
		c-0.833-1.505-1.812-2.706-2.944-3.613c-1.13-0.904-2.396-1.496-3.796-1.786c-1.4-0.286-2.875-0.264-4.425,0.063
		c-1.758,0.374-3.242,0.946-4.456,1.73c-1.214,0.784-2.245,1.736-3.098,2.866c-0.85,1.133-1.569,2.416-2.163,3.855
		c-0.594,1.44-1.14,2.992-1.637,4.658l-0.456-9.87l-15.479,3.287v4.006l1.453-0.338c0.671-0.143,1.25-0.23,1.738-0.26
		c0.486-0.032,0.904,0.023,1.25,0.173c0.345,0.145,0.63,0.405,0.851,0.77c0.22,0.365,0.399,0.88,0.535,1.532
		c0.021,0.09,0.04,0.243,0.061,0.455c0.02,0.22,0.038,0.48,0.054,0.78c0.016,0.297,0.026,0.617,0.038,0.96
		c0.01,0.34,0.013,0.662,0.006,0.979l-0.006,45.337l15.147-3.253l0.003-3.076c0,0-1.33,0.232-1.817,0.263
		c-0.49,0.033-0.905-0.024-1.252-0.172c-0.342-0.14-0.623-0.397-0.846-0.767c-0.224-0.37-0.402-0.882-0.537-1.527
		c-0.021-0.093-0.04-0.252-0.061-0.46c-0.022-0.217-0.037-0.478-0.054-0.775c-0.017-0.3-0.027-0.62-0.038-0.962
		c-0.01-0.34-0.012-0.663-0.007-0.977l-0.002-7.117c1.034,0.316,2.036,0.545,3.335,0.572c1.3,0.03,2.665-0.11,4.098-0.413
		c2.453-0.52,4.612-1.424,6.48-2.71c1.868-1.285,3.475-2.804,4.824-4.564c1.348-1.758,2.435-3.688,3.264-5.783
		c0.83-2.098,1.44-4.227,1.83-6.396c0.396-2.164,0.587-4.284,0.574-6.363c-0.011-2.078-0.198-3.983-0.561-5.704
		c-0.434-2.096-1.069-3.897-1.903-5.397L416.415,203.386z M504.006,196.31c0.005,1.994-0.185,4.008-0.568,6.037
		c-0.386,2.027-0.908,3.883-1.57,5.566c-0.662,1.69-1.453,3.104-2.372,4.25c-0.92,1.14-1.899,1.826-2.941,2.047
		c-0.554,0.12-1.095,0.107-1.62-0.04c-0.524-0.146-1.014-0.464-1.472-0.97c-0.453-0.492-0.874-1.187-1.269-2.08
		c-0.392-0.888-0.729-2.023-1.018-3.4c-0.28-1.327-0.471-2.82-0.572-4.478c-0.105-1.657-0.093-3.357,0.033-5.114
		c0.13-1.756,0.385-3.476,0.77-5.165c0.385-1.688,0.91-3.235,1.583-4.646c0.67-1.406,1.505-2.59,2.5-3.56
		c0.993-0.965,2.184-1.595,3.57-1.89c0.923-0.195,1.83-0.215,2.72-0.065c0.891,0.152,1.635,0.514,2.24,1.093L504.006,196.31
		L504.006,196.31z M520.219,208.805c-0.553,0.42-1.164,0.7-1.835,0.844c-0.738,0.158-1.402-0.007-1.983-0.488
		c-0.588-0.484-1.003-1.322-1.252-2.513c-0.098-0.47-0.17-1.052-0.224-1.764c-0.05-0.7-0.088-1.438-0.116-2.202
		c-0.022-0.756-0.037-1.483-0.035-2.164c0.004-0.682,0.01-1.23,0.021-1.648v-23.41c0,0-3.908,0.34-7.155,3.4
		c0,0-1.311-0.352-2.145-0.477c-0.838-0.128-1.718-0.215-2.646-0.26c-0.927-0.048-1.887-0.045-2.878,0.008
		c-0.993,0.05-1.95,0.175-2.875,0.37c-2.406,0.514-4.54,1.387-6.407,2.618c-1.866,1.238-3.486,2.71-4.857,4.41
		c-1.369,1.702-2.5,3.583-3.384,5.646c-0.886,2.066-1.55,4.176-1.99,6.34c-0.441,2.16-0.665,4.303-0.665,6.437
		c-0.003,2.13,0.191,4.128,0.581,5.993c0.391,1.862,0.965,3.545,1.728,5.05c0.76,1.508,1.685,2.757,2.772,3.742
		c1.087,0.98,2.338,1.673,3.747,2.065c1.41,0.396,2.96,0.413,4.648,0.058c1.736-0.37,3.208-0.92,4.42-1.65
		c1.212-0.728,2.245-1.657,3.14-2.747c3.398-4.15,4.311-8.93,4.311-8.93s0.143,1.806,0.22,2.526c0.08,0.73,0.198,1.46,0.355,2.21
		c0.388,1.86,1.317,3.142,2.793,3.842c1.474,0.7,3.263,0.823,5.368,0.372c1.27-0.267,2.43-0.65,3.47-1.154
		c1.042-0.5,1.988-1.06,2.837-1.68c0.848-0.613,1.603-1.262,2.262-1.92c0.658-0.662,1.24-1.29,1.744-1.88l-2.162-2.54
		c-0.655,0.578-1.257,1.08-1.81,1.5L520.219,208.805z M427.494,185.08c0.407,0.503,0.896,0.882,1.473,1.15
		c0.576,0.267,1.217,0.422,1.924,0.453c0.71,0.032,1.454-0.037,2.24-0.203c0.854-0.18,1.664-0.477,2.425-0.883
		c0.76-0.404,1.408-0.91,1.943-1.523c0.536-0.613,0.919-1.325,1.146-2.14c0.228-0.82,0.24-1.714,0.036-2.697
		c-0.167-0.788-0.466-1.435-0.897-1.938c-0.432-0.51-0.945-0.892-1.544-1.153c-0.598-0.257-1.255-0.404-1.97-0.42
		c-0.716-0.015-1.456,0.054-2.22,0.212c-0.88,0.186-1.698,0.478-2.46,0.873c-0.768,0.393-1.398,0.89-1.898,1.494
		c-0.502,0.604-0.855,1.313-1.06,2.122c-0.207,0.81-0.2,1.74,0.02,2.79c0.157,0.744,0.438,1.366,0.843,1.86L427.494,185.08z
		 M374.765,229.29c-0.584-1.004-1.337-1.893-2.26-2.662c-0.92-0.76-2.017-1.416-3.29-1.965c-1.274-0.544-2.746-0.998-4.417-1.38
		c-1.521-0.332-2.841-0.643-3.962-0.93c-1.123-0.28-2.067-0.615-2.833-0.985c-0.767-0.372-1.366-0.816-1.801-1.332
		c-0.434-0.517-0.731-1.175-0.899-1.968c-0.146-0.693-0.144-1.38,0.008-2.044c0.15-0.665,0.44-1.28,0.866-1.844
		c0.424-0.563,0.975-1.058,1.646-1.48c0.674-0.424,1.471-0.73,2.396-0.93c1.018-0.217,1.924-0.152,2.72,0.19
		c0.797,0.344,1.497,0.865,2.102,1.56c0.605,0.702,1.101,1.516,1.488,2.44c0.388,0.932,0.681,1.87,0.88,2.826
		c2.521-0.537,4.418-1.387,5.696-2.56c1.276-1.17,1.715-2.71,1.315-4.624c-0.181-0.857-0.58-1.654-1.2-2.372
		c-0.624-0.72-1.516-1.28-2.673-1.68c-1.157-0.4-2.604-0.61-4.333-0.636c-1.733-0.016-3.787,0.224-6.17,0.73
		c-2.498,0.53-4.681,1.267-6.549,2.212c-1.865,0.942-3.39,2.06-4.571,3.344c-1.181,1.284-1.994,2.7-2.44,4.262
		c-0.448,1.553-0.49,3.204-0.125,4.95c0.292,1.4,0.769,2.614,1.43,3.64c0.66,1.026,1.48,1.912,2.457,2.66
		c0.977,0.738,2.104,1.363,3.38,1.868c1.276,0.51,2.681,0.944,4.2,1.302c1.53,0.382,2.854,0.73,3.971,1.054
		c1.119,0.325,2.064,0.688,2.84,1.095c0.771,0.412,1.38,0.894,1.825,1.46c0.441,0.56,0.75,1.25,0.92,2.064
		c0.182,0.863,0.167,1.666-0.04,2.402s-0.565,1.396-1.072,1.976c-0.506,0.587-1.15,1.09-1.93,1.508
		c-0.783,0.423-1.66,0.74-2.63,0.942c-1.296,0.277-2.44,0.245-3.44-0.09c-1.003-0.336-1.875-0.896-2.615-1.676
		c-0.742-0.777-1.364-1.723-1.859-2.833c-0.498-1.11-0.884-2.308-1.15-3.588c-0.946,0.2-1.855,0.505-2.723,0.923
		c-0.866,0.415-1.603,0.94-2.207,1.563c-0.606,0.627-1.048,1.375-1.327,2.237c-0.278,0.863-0.302,1.85-0.067,2.968
		c0.261,1.238,0.809,2.277,1.648,3.122c0.84,0.842,1.916,1.48,3.226,1.904c1.309,0.435,2.826,0.644,4.553,0.64
		c1.727,0.004,3.605-0.215,5.642-0.646c2.845-0.605,5.283-1.424,7.312-2.447c2.032-1.027,3.665-2.23,4.898-3.614
		c1.233-1.38,2.052-2.912,2.46-4.608c0.406-1.694,0.407-3.505,0.003-5.443c-0.28-1.323-0.71-2.495-1.295-3.502L374.765,229.29z
		 M423.867,185.267l-1.701-2.904c-0.218,0.184-0.425,0.35-0.62,0.494c-0.559,0.408-1.202,0.692-1.943,0.85
		c-0.81,0.173-1.486,0.025-2.03-0.445c-0.545-0.467-1.125-1.27-1.345-2.322c-0.21-1-0.368-2.207-0.42-3.38
		c-0.05-1.167-0.074-2.44-0.07-3.8l-0.004-7.997c-0.016-0.654-0.02-1.343-0.017-2.076s-0.004-1.455-0.022-2.185
		c-0.02-0.73-0.06-1.44-0.122-2.145c-0.062-0.707-0.156-1.36-0.285-1.968c-0.228-1.098-0.583-2.11-1.067-3.04
		c-0.486-0.932-1.123-1.706-1.92-2.335c-0.793-0.617-1.75-1.04-2.87-1.268c-1.124-0.226-2.438-0.177-3.94,0.145
		c-1.569,0.335-2.979,0.8-4.214,1.422c-5.716,2.888-8.33,9.964-8.33,9.964l-0.399-7.893l-16.186,3.415v3.997l1.456-0.325
		c0.67-0.14,1.25-0.228,1.74-0.258c0.487-0.026,0.905,0.028,1.25,0.174c0.344,0.144,0.626,0.397,0.848,0.768
		c0.225,0.368,0.4,0.873,0.536,1.526c0.021,0.097,0.04,0.247,0.062,0.466c0.02,0.214,0.04,0.474,0.053,0.776
		c0.014,0.3,0.026,0.62,0.036,0.953c0.012,0.34,0.015,0.67,0.008,0.984l-0.01,29.757l10.646-2.258v-17.737
		c0-10.71,4.284-15.883,5.447-16.957c0.724-0.672,1.428-1.156,2.237-1.327c0.625-0.135,1.153-0.11,1.59,0.064
		c0.434,0.173,0.803,0.434,1.106,0.782c0.303,0.35,0.543,0.763,0.729,1.237c0.182,0.47,0.32,0.93,0.414,1.373
		c0.12,0.58,0.205,1.248,0.256,2.01c0.05,0.755,0.082,1.51,0.094,2.274c0.017,0.765,0.023,1.498,0.026,2.202
		c0.002,0.705,0.006,1.303,0.012,1.79l0.04,5.905c-0.004,3.796,0.208,6.72,0.637,8.773c0.48,2.303,1.586,3.95,3.314,4.934
		c1.726,0.984,3.952,1.187,6.683,0.607c1.294-0.273,2.457-0.667,3.484-1.175c1.028-0.51,1.939-1.092,2.731-1.748
		c0.792-0.654,1.484-1.354,2.078-2.1L423.867,185.267z M443.388,225.056c-0.564,0.41-1.22,0.7-1.957,0.855
		c-0.787,0.17-1.454,0.014-1.997-0.453c-0.546-0.47-0.93-1.23-1.146-2.273c-0.21-1.002-0.34-2.088-0.39-3.262
		c-0.052-1.166-0.075-2.434-0.07-3.798l0.061-24.322l-16.857,3.576v4.002l1.455-0.33c0.67-0.145,1.25-0.23,1.74-0.262
		c0.486-0.032,0.903,0.022,1.247,0.175c0.345,0.142,0.63,0.4,0.852,0.77c0.223,0.363,0.4,0.877,0.536,1.528
		c0.021,0.094,0.04,0.245,0.059,0.457c0.022,0.22,0.04,0.48,0.056,0.776c0.015,0.3,0.025,0.62,0.038,0.96
		c0.01,0.337,0.013,0.668,0.006,0.988l0.01,13.906c-0.016,1.9,0.033,3.58,0.146,5.04s0.274,2.706,0.487,3.73
		c0.486,2.307,1.591,3.954,3.316,4.937c1.729,0.98,3.957,1.185,6.685,0.605c1.295-0.275,2.453-0.662,3.471-1.175
		c1.016-0.507,1.927-1.09,2.729-1.75c0.804-0.656,1.503-1.36,2.095-2.103c0.595-0.746,1.104-1.48,1.534-2.204l-2.206-2.053
		c-0.699,0.713-1.33,1.272-1.896,1.683L443.388,225.056z M479.793,187.427c-2.04-5.83-10.75-6.347-15.631,0.804
		c-3.239,4.743-3.135,8.917-3.135,8.917l-0.298-10.182l-15.974,3.378l0.023,3.993l1.43-0.327c1.341-0.28,2.341-0.294,3-0.03
		c0.656,0.256,1.08,0.833,1.265,1.72c0.109,0.512,0.177,1.104,0.21,1.778c0.032,0.675,0.057,1.218,0.07,1.632v30.045l10.691-2.272
		l0.12-12.946c0.142-11.798,2.196-22.134,7.3-23.307c4-0.918,4.946,6.32,4.946,6.32c5.979-1.42,6.813-7.143,5.979-9.523H479.793z
		 M543.666,202.533c-0.697,0.708-1.328,1.27-1.895,1.684c-0.564,0.41-1.22,0.7-1.958,0.854c-0.786,0.167-1.454,0.016-1.997-0.454
		c-0.546-0.472-0.927-1.228-1.146-2.276c-0.21-1.002-0.341-2.086-0.391-3.258c-0.05-1.166-0.075-2.433-0.069-3.797l0.002-39.513
		l-16.92,3.595v3.997l1.621-0.404c0.671-0.142,1.257-0.226,1.758-0.26c0.5-0.034,0.923,0.024,1.268,0.167
		c0.345,0.152,0.627,0.405,0.848,0.77c0.225,0.365,0.4,0.878,0.537,1.532c0.021,0.092,0.04,0.243,0.062,0.465
		c0.018,0.206,0.036,0.468,0.053,0.771c0.014,0.295,0.021,0.62,0.021,0.96c0,0.342-0.005,0.67-0.013,0.99l-0.037,29.147
		c-0.003,3.8,0.211,6.723,0.641,8.773c0.479,2.31,1.586,3.952,3.31,4.937c1.729,0.984,3.955,1.186,6.687,0.607
		c1.294-0.273,2.457-0.665,3.484-1.177c1.027-0.514,1.94-1.095,2.732-1.75c0.79-0.656,1.484-1.356,2.078-2.104
		c0.593-0.746,1.103-1.483,1.529-2.202l-2.203-2.055L543.666,202.533z"/>
</g>
</svg>
