<svg xmlns="http://www.w3.org/2000/svg" width="889" height="742.939" viewBox="0 0 889 742.939"><g><path d="M338.003 620.396h-2.567v-13.503h-4.62v-2.202h11.807v2.203h-4.62v13.503zM355.212 620.396h-2.535v-7.305c0-.916-.185-1.6-.554-2.05-.368-.452-.954-.678-1.756-.678-1.06 0-1.84.316-2.337.95-.497.634-.746 1.696-.746 3.186v5.897h-2.524V603.68h2.524v4.243c0 .68-.043 1.407-.13 2.18h.162c.344-.572.82-1.016 1.434-1.33s1.327-.474 2.144-.474c2.88 0 4.318 1.45 4.318 4.35v7.746zM363.913 620.61c-1.848 0-3.293-.54-4.335-1.617-1.042-1.077-1.562-2.562-1.562-4.452 0-1.94.483-3.465 1.45-4.575s2.295-1.665 3.985-1.665c1.57 0 2.81.477 3.718 1.43s1.364 2.262 1.364 3.93v1.365h-7.917c.036 1.153.348 2.04.935 2.658.587.62 1.414.93 2.48.93.703 0 1.356-.066 1.96-.2.606-.13 1.257-.352 1.95-.66v2.053c-.615.294-1.238.5-1.868.623s-1.35.18-2.16.18zm-.462-10.398c-.8 0-1.444.254-1.928.763s-.77 1.25-.864 2.224h5.393c-.014-.982-.25-1.726-.708-2.23-.458-.506-1.09-.758-1.89-.758zM386.268 620.396h-8.884V604.69h8.884v2.17h-6.316v4.275h5.92v2.148h-5.92v4.93h6.316v2.183zM399.846 620.396h-2.535v-7.305c0-.916-.184-1.6-.553-2.05-.368-.452-.954-.678-1.756-.678-1.066 0-1.847.315-2.34.945s-.742 1.687-.742 3.17v5.918h-2.524v-11.88h1.977l.355 1.557h.13c.357-.565.865-1.003 1.524-1.31s1.39-.463 2.19-.463c2.85 0 4.275 1.45 4.275 4.35v7.746zM411.34 617.012c0 1.16-.423 2.05-1.268 2.67-.845.62-2.056.93-3.63.93-1.584 0-2.855-.24-3.814-.72v-2.182c1.396.645 2.696.967 3.9.967 1.553 0 2.33-.47 2.33-1.407 0-.3-.086-.552-.258-.752s-.455-.408-.85-.623-.94-.458-1.643-.73c-1.368-.53-2.294-1.06-2.777-1.59s-.725-1.218-.725-2.062c0-1.017.41-1.807 1.23-2.368.82-.562 1.935-.844 3.346-.844 1.397 0 2.72.284 3.965.85l-.816 1.9c-1.283-.53-2.36-.794-3.234-.794-1.332 0-1.998.38-1.998 1.14 0 .37.174.687.52.944.35.258 1.106.612 2.273 1.063.982.38 1.694.727 2.14 1.042s.772.68.987 1.09c.215.41.323.903.323 1.477zM420.095 620.61c-1.504 0-2.67-.54-3.502-1.622h-.15c.1 1.003.15 1.61.15 1.826v4.866h-2.524v-17.166h2.04c.058.222.176.752.354 1.59h.13c.787-1.203 1.97-1.805 3.544-1.805 1.482 0 2.637.536 3.464 1.61s1.24 2.582 1.24 4.522-.42 3.455-1.262 4.544c-.84 1.09-2.003 1.634-3.485 1.634zm-.613-10.248c-1.003 0-1.735.294-2.197.88s-.692 1.526-.692 2.815v.376c0 1.446.23 2.494.688 3.142.46.648 1.208.973 2.246.973.874 0 1.547-.358 2.02-1.074s.71-1.736.71-3.062c0-1.332-.235-2.34-.705-3.024-.47-.684-1.158-1.026-2.068-1.026zM427.625 605.367c0-.45.123-.8.37-1.042s.6-.365 1.06-.365c.443 0 .788.122 1.035.365s.37.59.37 1.042c0 .43-.123.77-.37 1.015-.247.248-.592.37-1.036.37-.458 0-.812-.122-1.06-.37-.246-.246-.37-.585-.37-1.015zm2.675 15.03h-2.524v-11.882h2.524v11.88zM439.936 608.3c.51 0 .928.036 1.257.107l-.247 2.353c-.358-.086-.73-.13-1.117-.13-1.01 0-1.83.33-2.456.99-.626.658-.94 1.514-.94 2.566v6.21h-2.523v-11.882h1.978l.333 2.095h.13c.394-.71.907-1.272 1.54-1.688s1.315-.622 2.046-.622zM450.828 620.396l-.505-1.654h-.086c-.573.724-1.15 1.216-1.73 1.477-.58.26-1.324.392-2.233.392-1.167 0-2.08-.315-2.734-.945s-.982-1.52-.982-2.675c0-1.225.455-2.148 1.364-2.77s2.295-.964 4.157-1.022l2.05-.064v-.636c0-.76-.177-1.327-.53-1.702-.355-.377-.904-.564-1.65-.564-.607 0-1.19.09-1.75.27s-1.096.39-1.61.633l-.817-1.805c.645-.337 1.35-.593 2.116-.768.766-.176 1.488-.264 2.17-.264 1.51 0 2.65.33 3.42.988.77.66 1.155 1.693 1.155 3.104v8.003h-1.807zm-3.76-1.72c.917 0 1.652-.255 2.207-.767.556-.514.833-1.23.833-2.155v-1.03l-1.525.063c-1.188.043-2.054.242-2.595.596-.54.355-.81.897-.81 1.628 0 .53.156.94.472 1.23.316.29.788.435 1.418.435zM458.68 620.396h-2.523V603.68h2.524v16.716zM481.357 620.396h-3.147l-7.724-12.515h-.086l.054.7c.1 1.33.15 2.55.15 3.65v8.165h-2.33V604.69h3.114l7.702 12.45h.064c-.015-.165-.043-.765-.086-1.8-.043-1.034-.064-1.842-.064-2.422v-8.23h2.353v15.708zM490.424 620.61c-1.848 0-3.293-.54-4.335-1.617-1.043-1.077-1.563-2.562-1.563-4.452 0-1.94.483-3.465 1.45-4.575s2.295-1.665 3.985-1.665c1.568 0 2.808.477 3.717 1.43s1.363 2.262 1.363 3.93v1.365h-7.917c.036 1.153.348 2.04.935 2.658.588.62 1.415.93 2.482.93.702 0 1.355-.066 1.96-.2.605-.13 1.256-.352 1.95-.66v2.053c-.616.294-1.24.5-1.87.623s-1.35.18-2.158.18zm-.462-10.398c-.802 0-1.445.254-1.93.763s-.77 1.25-.863 2.224h5.392c-.015-.982-.25-1.726-.71-2.23-.457-.506-1.088-.758-1.89-.758zM502.337 618.57c.616 0 1.23-.098 1.848-.29v1.9c-.28.122-.64.224-1.08.307-.44.082-.896.123-1.37.123-2.39 0-3.587-1.26-3.587-3.78v-6.403h-1.622v-1.117l1.74-.924.86-2.514h1.557v2.643h3.384v1.912h-3.384v6.36c0 .607.152 1.058.456 1.347.303.29.703.435 1.197.435zM516.302 620.396l-1.536-5.543c-.187-.587-.522-1.95-1.01-4.093h-.097c-.416 1.934-.746 3.305-.99 4.114l-1.578 5.52H508.3l-3.33-11.88h2.577l1.515 5.854c.344 1.446.587 2.686.73 3.717h.064c.07-.522.18-1.122.327-1.8.147-.676.274-1.183.382-1.52l1.805-6.252h2.77l1.752 6.252c.107.35.24.888.402 1.61s.256 1.286.285 1.688h.085c.107-.88.357-2.112.752-3.695l1.536-5.854h2.535l-3.352 11.88h-2.834zM535.068 614.434c0 1.94-.498 3.455-1.493 4.544s-2.38 1.633-4.157 1.633c-1.11 0-2.09-.25-2.943-.75s-1.508-1.222-1.966-2.16-.69-2.026-.69-3.266c0-1.927.495-3.43 1.483-4.512s2.38-1.622 4.18-1.622c1.718 0 3.078.553 4.08 1.66 1.003 1.105 1.505 2.598 1.505 4.474zm-8.647 0c0 2.743 1.015 4.114 3.04 4.114 2.006 0 3.01-1.37 3.01-4.114 0-2.714-1.01-4.07-3.03-4.07-1.06 0-1.828.35-2.305 1.052-.476.7-.714 1.707-.714 3.018zM543.995 608.3c.51 0 .928.036 1.257.107l-.247 2.353c-.358-.086-.73-.13-1.117-.13-1.01 0-1.828.33-2.455.99-.626.658-.94 1.514-.94 2.566v6.21h-2.523v-11.882h1.977l.333 2.095h.13c.393-.71.906-1.272 1.54-1.688s1.315-.622 2.045-.622zM549.893 614.122l1.43-1.783 3.587-3.825h2.91l-4.78 5.103 5.082 6.778h-2.965l-3.813-5.21-1.386 1.14v4.07h-2.503V603.68h2.503v8.154l-.13 2.288h.065zM246.674 651.45c0 .953-.35 1.708-1.05 2.266s-1.633.836-2.794.836c-1.396 0-2.466-.153-3.21-.46v-.798c.822.35 1.87.523 3.147.523.938 0 1.68-.215 2.23-.645s.824-.993.824-1.69c0-.434-.09-.79-.272-1.075s-.48-.543-.89-.777-1.017-.487-1.813-.758c-1.167-.4-1.973-.835-2.418-1.3s-.668-1.088-.668-1.864c0-.854.334-1.55 1.003-2.09s1.53-.81 2.582-.81c1.073 0 2.08.204 3.023.61l-.29.688c-.947-.396-1.853-.594-2.718-.594-.844 0-1.516.195-2.016.586s-.75.922-.75 1.594c0 .422.077.77.23 1.04s.405.514.754.73.948.475 1.797.776c.89.308 1.56.605 2.008.895s.774.617.98.984.31.813.31 1.333zM256.716 650.138c0 1.386-.336 2.468-1.008 3.246s-1.6 1.168-2.78 1.168c-.746 0-1.402-.18-1.97-.54s-1.003-.874-1.305-1.546-.453-1.448-.453-2.328c0-1.386.336-2.465 1.008-3.238s1.594-1.16 2.766-1.16c1.167 0 2.082.392 2.746 1.176s.996 1.857.996 3.222zm-6.703 0c0 1.167.257 2.077.77 2.73s1.238.98 2.176.98 1.662-.327 2.175-.98.77-1.563.77-2.73c0-1.172-.26-2.08-.777-2.727s-1.246-.968-2.184-.968-1.66.32-2.168.965-.763 1.554-.763 2.73zM263.258 654.552c-1.214 0-2.164-.383-2.852-1.148s-1.03-1.833-1.03-3.203c0-1.405.355-2.5 1.07-3.284s1.69-1.176 2.93-1.176c.733 0 1.437.128 2.108.383l-.21.688c-.735-.244-1.373-.366-1.915-.366-1.043 0-1.832.32-2.368.965s-.805 1.568-.805 2.776c0 1.146.27 2.043.805 2.69s1.286.974 2.25.974c.77 0 1.487-.138 2.148-.414v.72c-.54.263-1.252.396-2.132.396zM268.16 643.544c0-.5.164-.75.492-.75.16 0 .288.065.38.195s.136.314.136.554c0 .234-.046.42-.137.555s-.217.202-.378.202c-.328 0-.492-.253-.492-.758zm.883 10.852h-.773v-8.492h.773v8.492zM277.843 654.396l-.195-1.344h-.062c-.427.547-.866.934-1.316 1.16s-.983.34-1.598.34c-.833 0-1.48-.214-1.945-.64s-.695-1.02-.695-1.774c0-.828.345-1.472 1.035-1.93s1.688-.7 2.996-.727l1.617-.046v-.562c0-.808-.164-1.417-.492-1.828s-.856-.617-1.586-.617c-.786 0-1.602.22-2.445.656l-.29-.672c.934-.437 1.855-.655 2.767-.655.933 0 1.63.242 2.09.727s.69 1.24.69 2.266v5.648h-.57zm-3.125-.547c.906 0 1.62-.26 2.145-.778s.785-1.238.785-2.16v-.836l-1.484.062c-1.192.058-2.043.243-2.55.56s-.763.805-.763 1.472c0 .53.164.944.49 1.238s.784.44 1.378.44zM282.736 654.396h-.773V642.24h.773v12.156zM294.766 654.552c-1.234 0-2.196-.38-2.887-1.14s-1.036-1.826-1.036-3.196c0-1.354.333-2.438 1-3.254s1.565-1.223 2.695-1.223c1 0 1.788.348 2.366 1.046s.867 1.646.867 2.844v.625h-6.117c.01 1.167.282 2.058.816 2.672s1.298.922 2.293.922c.484 0 .91-.035 1.277-.103s.832-.214 1.395-.438v.702c-.48.208-.922.35-1.328.426s-.855.114-1.344.114zm-.227-8.125c-.818 0-1.475.27-1.97.81s-.784 1.315-.867 2.33h5.25c0-.983-.214-1.753-.64-2.308s-1.02-.833-1.774-.833zM306.84 654.396v-5.508c0-.854-.18-1.476-.54-1.863s-.916-.582-1.67-.582c-1.017 0-1.76.257-2.23.77s-.708 1.345-.708 2.496v4.687h-.773v-8.492h.655l.148 1.164h.047c.552-.887 1.534-1.33 2.945-1.33 1.927 0 2.89 1.035 2.89 3.103v5.555h-.765zM313.397 653.864c.49 0 .917-.042 1.28-.125v.624c-.374.125-.807.188-1.296.188-.75 0-1.303-.2-1.66-.602s-.534-1.03-.534-1.89v-5.485h-1.258v-.453l1.258-.352.39-1.922h.4v2.055h2.49v.672h-2.49v5.375c0 .65.113 1.133.343 1.445s.588.47 1.077.47zM320.744 654.552c-1.234 0-2.196-.38-2.887-1.14s-1.035-1.826-1.035-3.196c0-1.354.333-2.438 1-3.254s1.565-1.223 2.695-1.223c1 0 1.79.348 2.367 1.046s.867 1.646.867 2.844v.625h-6.116c.01 1.167.282 2.058.816 2.672s1.298.922 2.293.922c.484 0 .91-.035 1.277-.103s.832-.214 1.395-.438v.702c-.48.208-.922.35-1.328.426s-.854.114-1.343.114zm-.226-8.125c-.817 0-1.474.27-1.97.81s-.783 1.315-.866 2.33h5.25c0-.983-.214-1.753-.64-2.308s-1.02-.833-1.774-.833zM330.24 645.74c.358 0 .744.035 1.155.108l-.148.742c-.354-.09-.722-.133-1.102-.133-.724 0-1.317.308-1.78.922s-.696 1.39-.696 2.327v4.688h-.774v-8.492h.656l.078 1.53h.055c.35-.624.722-1.062 1.117-1.315s.875-.38 1.437-.38zM337.555 654.552c-1.308 0-2.26-.49-2.86-1.47h-.054l.024.657c.02.385.03.807.03 1.265v3.234h-.772v-12.337h.656l.148 1.21h.047c.583-.916 1.516-1.374 2.797-1.374 1.146 0 2.02.375 2.62 1.128s.903 1.848.903 3.285c0 1.396-.316 2.478-.95 3.246s-1.495 1.152-2.588 1.152zm-.016-.688c.87 0 1.542-.323 2.02-.97s.714-1.55.714-2.71c0-2.495-.9-3.742-2.703-3.742-.988 0-1.715.272-2.18.816s-.694 1.43-.694 2.66v.25c0 1.328.223 2.276.668 2.844s1.17.852 2.175.852zM347.59 645.74c.36 0 .745.035 1.156.108l-.148.742c-.354-.09-.722-.133-1.102-.133-.724 0-1.317.308-1.78.922s-.696 1.39-.696 2.327v4.688h-.773v-8.492h.656l.078 1.53h.056c.35-.624.722-1.062 1.117-1.315s.874-.38 1.437-.38zM351.163 643.544c0-.5.164-.75.492-.75.16 0 .288.065.38.195s.136.314.136.554c0 .234-.045.42-.136.555s-.218.202-.38.202c-.327 0-.49-.253-.49-.758zm.883 10.852h-.773v-8.492h.773v8.492zM360.955 652.185c0 .76-.29 1.345-.867 1.754s-1.398.612-2.46.612c-1.137 0-2.037-.175-2.704-.523v-.837c.854.427 1.755.64 2.703.64.84 0 1.476-.14 1.91-.417s.652-.65.652-1.113c0-.427-.174-.786-.52-1.078s-.916-.578-1.708-.86c-.85-.307-1.445-.57-1.79-.792s-.602-.472-.776-.75-.262-.618-.262-1.02c0-.636.267-1.138.8-1.508s1.28-.555 2.24-.555c.916 0 1.785.172 2.608.516l-.29.703c-.832-.345-1.605-.517-2.32-.517-.69 0-1.24.114-1.647.344s-.61.547-.61.953c0 .442.158.797.474 1.062s.93.562 1.847.89c.766.277 1.323.525 1.672.747s.61.472.784.753.26.612.26.992zM367.372 654.552c-1.234 0-2.196-.38-2.887-1.14s-1.035-1.826-1.035-3.196c0-1.354.333-2.438 1-3.254s1.565-1.223 2.695-1.223c1 0 1.79.348 2.367 1.046s.867 1.646.867 2.844v.625h-6.118c.01 1.167.282 2.058.816 2.672s1.298.922 2.293.922c.485 0 .91-.035 1.278-.103s.832-.214 1.395-.438v.702c-.48.208-.922.35-1.328.426s-.854.114-1.343.114zm-.226-8.125c-.817 0-1.474.27-1.97.81s-.783 1.315-.866 2.33h5.25c0-.983-.214-1.753-.64-2.308s-1.02-.833-1.774-.833zM380.34 654.396l-3.28-8.492h.796l2.195 5.773c.293.74.512 1.386.657 1.938h.047c.214-.708.433-1.36.656-1.953l2.195-5.758h.797l-3.28 8.492h-.782zM390.054 654.552c-1.234 0-2.196-.38-2.887-1.14s-1.035-1.826-1.035-3.196c0-1.354.333-2.438 1-3.254s1.565-1.223 2.695-1.223c1 0 1.79.348 2.367 1.046s.867 1.646.867 2.844v.625h-6.116c.01 1.167.282 2.058.816 2.672s1.298.922 2.293.922c.484 0 .91-.035 1.277-.103s.832-.214 1.395-.438v.702c-.48.208-.922.35-1.328.426s-.854.114-1.343.114zm-.227-8.125c-.817 0-1.474.27-1.97.81s-.783 1.315-.866 2.33h5.25c0-.983-.213-1.753-.64-2.308s-1.018-.833-1.773-.833zM402.127 654.396v-5.508c0-.854-.18-1.476-.54-1.863s-.916-.582-1.67-.582c-1.017 0-1.76.257-2.23.77s-.708 1.345-.708 2.496v4.687h-.774v-8.492h.656l.148 1.164h.047c.552-.887 1.534-1.33 2.945-1.33 1.927 0 2.89 1.035 2.89 3.103v5.555h-.765zM408.685 653.864c.49 0 .917-.042 1.28-.125v.624c-.374.125-.807.188-1.296.188-.75 0-1.305-.2-1.66-.602s-.536-1.03-.536-1.89v-5.485h-1.258v-.453l1.258-.352.39-1.922h.4v2.055h2.49v.672h-2.49v5.375c0 .65.113 1.133.343 1.445s.588.47 1.078.47zM413.273 645.903v5.5c0 .854.18 1.476.54 1.863s.916.582 1.67.582c1.012 0 1.755-.255 2.23-.766s.716-1.34.716-2.492v-4.688h.765v8.492h-.656l-.142-1.172h-.047c-.55.886-1.533 1.328-2.944 1.328-1.933 0-2.898-1.034-2.898-3.102V645.9h.765zM426.184 645.74c.36 0 .745.035 1.156.108l-.148.742c-.354-.09-.722-.133-1.102-.133-.724 0-1.317.308-1.78.922s-.696 1.39-.696 2.327v4.688h-.773v-8.492h.657l.078 1.53h.055c.35-.624.722-1.062 1.117-1.315s.874-.38 1.437-.38zM433.296 654.552c-1.234 0-2.196-.38-2.887-1.14s-1.036-1.826-1.036-3.196c0-1.354.333-2.438 1-3.254s1.565-1.223 2.695-1.223c1 0 1.788.348 2.366 1.046s.867 1.646.867 2.844v.625h-6.117c.01 1.167.282 2.058.816 2.672s1.298.922 2.293.922c.484 0 .91-.035 1.277-.103s.832-.214 1.395-.438v.702c-.48.208-.922.35-1.328.426s-.855.114-1.344.114zm-.227-8.125c-.818 0-1.475.27-1.97.81s-.784 1.315-.867 2.33h5.25c0-.983-.214-1.753-.64-2.308s-1.02-.833-1.774-.833zM444.713 652.185c0 .76-.29 1.345-.867 1.754s-1.398.612-2.46.612c-1.137 0-2.037-.175-2.704-.523v-.837c.854.427 1.755.64 2.703.64.84 0 1.476-.14 1.91-.417s.652-.65.652-1.113c0-.427-.173-.786-.52-1.078s-.915-.578-1.707-.86c-.85-.307-1.445-.57-1.79-.792s-.602-.472-.776-.75-.262-.618-.262-1.02c0-.636.267-1.138.8-1.508s1.28-.555 2.24-.555c.916 0 1.785.172 2.608.516l-.29.703c-.832-.345-1.605-.517-2.32-.517-.69 0-1.24.114-1.647.344s-.61.547-.61.953c0 .442.158.797.474 1.062s.93.562 1.848.89c.766.277 1.323.525 1.672.747s.61.472.785.753.26.612.26.992zM457.812 654.396l-.195-1.344h-.062c-.427.547-.866.934-1.316 1.16s-.984.34-1.6.34c-.832 0-1.48-.214-1.944-.64s-.696-1.02-.696-1.774c0-.828.345-1.472 1.035-1.93s1.688-.7 2.996-.727l1.618-.046v-.562c0-.808-.164-1.417-.492-1.828s-.856-.617-1.586-.617c-.786 0-1.602.22-2.445.656l-.29-.672c.934-.437 1.855-.655 2.767-.655.933 0 1.63.242 2.09.727s.69 1.24.69 2.266v5.648h-.57zm-3.124-.547c.906 0 1.62-.26 2.145-.778s.785-1.238.785-2.16v-.836l-1.484.062c-1.192.058-2.043.243-2.55.56s-.763.805-.763 1.472c0 .53.164.944.49 1.238s.784.44 1.378.44zM467.855 654.396v-5.508c0-.854-.18-1.476-.54-1.863s-.916-.582-1.67-.582c-1.017 0-1.76.257-2.23.77s-.708 1.345-.708 2.496v4.687h-.773v-8.492h.656l.148 1.164h.047c.552-.887 1.534-1.33 2.945-1.33 1.927 0 2.89 1.035 2.89 3.103v5.555h-.765zM475.28 645.74c.614 0 1.146.11 1.594.335s.85.606 1.203 1.148h.047c-.03-.656-.047-1.3-.047-1.93v-3.055h.766v12.156h-.508l-.195-1.297h-.062c-.646.97-1.573 1.453-2.78 1.453-1.173 0-2.068-.364-2.69-1.094s-.93-1.792-.93-3.188c0-1.47.31-2.59.923-3.367s1.508-1.16 2.68-1.16zm0 .702c-.927 0-1.624.325-2.09.977s-.7 1.596-.7 2.835c0 2.406.936 3.61 2.806 3.61.958 0 1.66-.28 2.11-.837s.67-1.477.67-2.758v-.133c0-1.312-.22-2.257-.66-2.832s-1.15-.863-2.136-.863zM492.716 652.185c0 .76-.29 1.345-.867 1.754s-1.4.612-2.462.612c-1.136 0-2.036-.175-2.703-.523v-.837c.854.427 1.755.64 2.703.64.84 0 1.476-.14 1.91-.417s.652-.65.652-1.113c0-.427-.173-.786-.52-1.078s-.915-.578-1.707-.86c-.85-.307-1.445-.57-1.79-.792s-.602-.472-.776-.75-.262-.618-.262-1.02c0-.636.267-1.138.8-1.508s1.28-.555 2.24-.555c.916 0 1.785.172 2.608.516l-.29.703c-.832-.345-1.605-.517-2.32-.517-.69 0-1.24.114-1.647.344s-.61.547-.61.953c0 .442.158.797.474 1.062s.93.562 1.848.89c.766.277 1.323.525 1.672.747s.61.472.785.753.26.612.26.992zM502.727 650.138c0 1.386-.336 2.468-1.008 3.246s-1.6 1.168-2.782 1.168c-.745 0-1.4-.18-1.97-.54s-1.002-.874-1.304-1.546-.453-1.448-.453-2.328c0-1.386.337-2.465 1.01-3.238s1.593-1.16 2.765-1.16c1.167 0 2.082.392 2.746 1.176s.997 1.857.997 3.222zm-6.704 0c0 1.167.257 2.077.77 2.73s1.238.98 2.176.98 1.662-.327 2.175-.98.77-1.563.77-2.73c0-1.172-.26-2.08-.777-2.727s-1.246-.968-2.184-.968-1.66.32-2.168.965-.763 1.554-.763 2.73zM509.27 654.552c-1.214 0-2.164-.383-2.852-1.148s-1.03-1.833-1.03-3.203c0-1.405.355-2.5 1.07-3.284s1.69-1.176 2.93-1.176c.733 0 1.437.128 2.108.383l-.21.688c-.735-.244-1.373-.366-1.915-.366-1.04 0-1.83.32-2.366.965s-.805 1.568-.805 2.776c0 1.146.268 2.043.804 2.69s1.286.974 2.25.974c.77 0 1.487-.138 2.148-.414v.72c-.542.263-1.253.396-2.132.396zM514.17 643.544c0-.5.165-.75.493-.75.16 0 .288.065.38.195s.136.314.136.554c0 .234-.047.42-.138.555s-.218.202-.38.202c-.327 0-.49-.253-.49-.758zm.884 10.852h-.773v-8.492h.774v8.492zM523.854 654.396l-.195-1.344h-.063c-.427.547-.866.934-1.316 1.16s-.982.34-1.597.34c-.833 0-1.48-.214-1.945-.64s-.695-1.02-.695-1.774c0-.828.345-1.472 1.035-1.93s1.688-.7 2.996-.727l1.617-.046v-.562c0-.808-.163-1.417-.49-1.828s-.857-.617-1.587-.617c-.786 0-1.602.22-2.445.656l-.29-.672c.934-.437 1.855-.655 2.767-.655.933 0 1.63.242 2.09.727s.69 1.24.69 2.266v5.648h-.57zm-3.125-.547c.905 0 1.62-.26 2.144-.778s.785-1.238.785-2.16v-.836l-1.485.062c-1.192.058-2.043.243-2.55.56s-.763.805-.763 1.472c0 .53.163.944.488 1.238s.785.44 1.38.44zM528.747 654.396h-.773V642.24h.773v12.156zM540.777 654.552c-1.234 0-2.196-.38-2.887-1.14s-1.035-1.826-1.035-3.196c0-1.354.333-2.438 1-3.254s1.565-1.223 2.695-1.223c1 0 1.79.348 2.367 1.046s.867 1.646.867 2.844v.625h-6.117c.01 1.167.282 2.058.816 2.672s1.298.922 2.293.922c.484 0 .91-.035 1.277-.103s.832-.214 1.395-.438v.702c-.48.208-.922.35-1.328.426s-.853.114-1.343.114zm-.226-8.125c-.816 0-1.473.27-1.968.81s-.784 1.315-.867 2.33h5.25c0-.983-.214-1.753-.64-2.308s-1.02-.833-1.774-.833zM552.85 654.396v-5.508c0-.854-.18-1.476-.538-1.863s-.917-.582-1.672-.582c-1.016 0-1.76.257-2.23.77s-.707 1.345-.707 2.496v4.687h-.773v-8.492h.656l.148 1.164h.047c.553-.887 1.535-1.33 2.946-1.33 1.927 0 2.89 1.035 2.89 3.103v5.555h-.765zM559.408 653.864c.49 0 .917-.042 1.28-.125v.624c-.374.125-.807.188-1.296.188-.75 0-1.304-.2-1.66-.602s-.535-1.03-.535-1.89v-5.485h-1.258v-.453l1.257-.352.39-1.922h.4v2.055h2.49v.672h-2.49v5.375c0 .65.113 1.133.343 1.445s.59.47 1.078.47zM566.67 645.74c.358 0 .744.035 1.155.108l-.148.742c-.354-.09-.722-.133-1.102-.133-.724 0-1.317.308-1.78.922s-.696 1.39-.696 2.327v4.688h-.774v-8.492h.656l.078 1.53h.055c.35-.624.722-1.062 1.117-1.315s.874-.38 1.437-.38zM573.78 654.552c-1.233 0-2.195-.38-2.886-1.14s-1.035-1.826-1.035-3.196c0-1.354.332-2.438 1-3.254s1.564-1.223 2.694-1.223c1 0 1.79.348 2.367 1.046s.868 1.646.868 2.844v.625h-6.117c.012 1.167.283 2.058.817 2.672s1.298.922 2.293.922c.484 0 .91-.035 1.277-.103s.832-.214 1.395-.438v.702c-.48.208-.922.35-1.328.426s-.853.114-1.343.114zm-.225-8.125c-.817 0-1.474.27-1.97.81s-.783 1.315-.866 2.33h5.25c0-.983-.215-1.753-.642-2.308s-1.018-.833-1.773-.833zM583.566 654.552c-1.308 0-2.26-.49-2.86-1.47h-.054l.023.657c.02.385.03.807.03 1.265v3.234h-.772v-12.337h.656l.147 1.21h.047c.583-.916 1.516-1.374 2.797-1.374 1.147 0 2.02.375 2.622 1.128s.902 1.848.902 3.285c0 1.396-.316 2.478-.95 3.246s-1.494 1.152-2.588 1.152zm-.015-.688c.87 0 1.544-.323 2.02-.97s.716-1.55.716-2.71c0-2.495-.9-3.742-2.703-3.742-.99 0-1.716.272-2.18.816s-.695 1.43-.695 2.66v.25c0 1.328.223 2.276.668 2.844s1.17.852 2.175.852zM593.6 645.74c.36 0 .746.035 1.157.108l-.148.742c-.355-.09-.723-.133-1.103-.133-.724 0-1.317.308-1.78.922s-.696 1.39-.696 2.327v4.688h-.772v-8.492h.656l.078 1.53h.055c.35-.624.722-1.062 1.117-1.315s.874-.38 1.437-.38zM600.713 654.552c-1.234 0-2.196-.38-2.887-1.14s-1.035-1.826-1.035-3.196c0-1.354.334-2.438 1-3.254s1.566-1.223 2.696-1.223c1 0 1.79.348 2.367 1.046s.867 1.646.867 2.844v.625h-6.117c.01 1.167.282 2.058.816 2.672s1.297.922 2.292.922c.484 0 .91-.035 1.277-.103s.83-.214 1.394-.438v.702c-.48.208-.922.35-1.328.426s-.854.114-1.343.114zm-.227-8.125c-.817 0-1.474.27-1.97.81s-.783 1.315-.866 2.33h5.25c0-.983-.214-1.753-.64-2.308s-1.02-.833-1.774-.833zM612.786 654.396v-5.508c0-.854-.18-1.476-.54-1.863s-.916-.582-1.67-.582c-1.017 0-1.76.257-2.23.77s-.708 1.345-.708 2.496v4.687h-.773v-8.492h.656l.15 1.164h.046c.552-.887 1.534-1.33 2.945-1.33 1.928 0 2.892 1.035 2.892 3.103v5.555h-.766zM620.53 654.552c-1.233 0-2.195-.38-2.886-1.14s-1.035-1.826-1.035-3.196c0-1.354.332-2.438 1-3.254s1.564-1.223 2.694-1.223c1 0 1.79.348 2.367 1.046s.868 1.646.868 2.844v.625h-6.117c.012 1.167.283 2.058.817 2.672s1.298.922 2.293.922c.484 0 .91-.035 1.277-.103s.832-.214 1.395-.438v.702c-.48.208-.922.35-1.328.426s-.853.114-1.343.114zm-.225-8.125c-.817 0-1.474.27-1.97.81s-.783 1.315-.866 2.33h5.25c0-.983-.215-1.753-.642-2.308s-1.018-.833-1.773-.833zM627.355 645.903v5.5c0 .854.18 1.476.54 1.863s.916.582 1.67.582c1.012 0 1.755-.255 2.23-.766s.716-1.34.716-2.492v-4.688h.767v8.492h-.656l-.14-1.172h-.047c-.552.886-1.534 1.328-2.945 1.328-1.933 0-2.898-1.034-2.898-3.102V645.9h.765zM640.265 645.74c.36 0 .745.035 1.156.108l-.147.742c-.354-.09-.722-.133-1.102-.133-.723 0-1.316.308-1.78.922s-.695 1.39-.695 2.327v4.688h-.773v-8.492h.656l.078 1.53h.055c.35-.624.723-1.062 1.118-1.315s.874-.38 1.437-.38zM649.213 652.185c0 .76-.29 1.345-.867 1.754s-1.398.612-2.46.612c-1.137 0-2.037-.175-2.704-.523v-.837c.854.427 1.755.64 2.703.64.84 0 1.476-.14 1.91-.417s.652-.65.652-1.113c0-.427-.173-.786-.52-1.078s-.915-.578-1.707-.86c-.85-.307-1.445-.57-1.79-.792s-.602-.472-.776-.75-.262-.618-.262-1.02c0-.636.267-1.138.8-1.508s1.28-.555 2.24-.555c.916 0 1.785.172 2.608.516l-.29.703c-.832-.345-1.605-.517-2.32-.517-.69 0-1.24.114-1.647.344s-.61.547-.61.953c0 .442.158.797.474 1.062s.93.562 1.848.89c.766.277 1.323.525 1.672.747s.61.472.785.753.26.612.26.992zM266.46 679.396l-1.86-5.68c-.12-.386-.273-.95-.46-1.695h-.048l-.164.58-.352 1.132-1.89 5.664h-.767l-2.43-8.492h.827l1.36 4.922c.316 1.22.525 2.114.624 2.688h.048c.308-1.22.53-2.028.672-2.43l1.75-5.18h.703l1.664 5.164c.375 1.224.604 2.034.688 2.43h.047c.042-.34.25-1.245.625-2.72l1.297-4.874h.78l-2.304 8.492h-.81zM279.063 675.138c0 1.386-.336 2.468-1.008 3.246s-1.6 1.168-2.78 1.168c-.746 0-1.402-.18-1.97-.54s-1.003-.874-1.305-1.546-.453-1.448-.453-2.328c0-1.386.336-2.465 1.008-3.238s1.594-1.16 2.766-1.16c1.168 0 2.083.392 2.747 1.176s.996 1.857.996 3.222zm-6.703 0c0 1.167.257 2.077.77 2.73s1.238.98 2.176.98 1.663-.327 2.176-.98.77-1.563.77-2.73c0-1.172-.26-2.08-.777-2.727s-1.246-.968-2.184-.968-1.66.32-2.167.965-.763 1.554-.763 2.73zM285.56 670.74c.358 0 .744.035 1.155.108l-.148.742c-.354-.09-.722-.133-1.102-.133-.724 0-1.317.308-1.78.922s-.696 1.39-.696 2.327v4.688h-.774v-8.492h.656l.078 1.53h.055c.35-.624.722-1.062 1.117-1.315s.874-.38 1.437-.38zM290 675.67l4.336-4.767h.938l-3.344 3.625 3.633 4.867h-.93l-3.227-4.29-1.39 1.267v3.023h-.774V667.24h.773v6.093l-.055 2.336h.04zM297.675 668.544c0-.5.164-.75.492-.75.16 0 .288.065.38.195s.136.314.136.554c0 .234-.046.42-.137.555s-.218.202-.38.202c-.327 0-.49-.253-.49-.758zm.883 10.852h-.773v-8.492h.773v8.492zM308.123 679.396v-5.508c0-.854-.18-1.476-.54-1.863s-.916-.582-1.67-.582c-1.017 0-1.76.257-2.23.77s-.708 1.345-.708 2.496v4.687h-.773v-8.492h.656l.148 1.164h.047c.552-.887 1.534-1.33 2.945-1.33 1.927 0 2.89 1.035 2.89 3.103v5.555h-.765zM319.063 670.903v.54l-1.758.108c.47.584.703 1.225.703 1.923 0 .817-.272 1.48-.816 1.988s-1.274.763-2.19.763c-.387 0-.657-.016-.813-.047-.31.16-.543.352-.704.57s-.242.45-.242.695c0 .272.103.47.31.595s.55.188 1.034.188h1.484c.922 0 1.628.187 2.117.56s.733.922.733 1.65c0 .897-.363 1.588-1.09 2.075s-1.762.73-3.105.73c-1.067 0-1.895-.206-2.48-.617s-.88-.983-.88-1.718c0-.583.182-1.067.544-1.453s.853-.65 1.473-.79c-.255-.11-.46-.265-.613-.465s-.23-.43-.23-.69c0-.568.362-1.068 1.086-1.5-.495-.204-.88-.523-1.156-.958s-.414-.934-.414-1.496c0-.848.27-1.53.81-2.042s1.266-.77 2.183-.77c.56 0 .99.055 1.298.164h2.715zm-6.875 9.93c0 1.167.867 1.75 2.602 1.75 2.23 0 3.344-.71 3.344-2.133 0-.51-.175-.88-.523-1.11s-.913-.343-1.694-.343h-1.39c-1.56 0-2.338.612-2.338 1.836zm.65-7.28c0 .655.198 1.164.597 1.526s.93.542 1.598.542c.708 0 1.25-.18 1.63-.54s.565-.88.565-1.56c0-.725-.194-1.268-.582-1.63s-.93-.543-1.63-.543c-.676 0-1.21.193-1.597.58s-.583.93-.583 1.622zM328.805 678.864c.49 0 .917-.042 1.28-.125v.624c-.374.125-.807.188-1.296.188-.75 0-1.305-.2-1.66-.602s-.536-1.03-.536-1.89v-5.485h-1.258v-.453l1.258-.352.39-1.922h.4v2.055h2.49v.672h-2.49v5.375c0 .65.113 1.133.343 1.445s.588.47 1.078.47zM339.745 675.138c0 1.386-.336 2.468-1.008 3.246s-1.6 1.168-2.78 1.168c-.746 0-1.402-.18-1.97-.54s-1.003-.874-1.305-1.546-.453-1.448-.453-2.328c0-1.386.335-2.465 1.007-3.238s1.594-1.16 2.766-1.16c1.167 0 2.082.392 2.746 1.176s.995 1.857.995 3.222zm-6.703 0c0 1.167.257 2.077.77 2.73s1.238.98 2.176.98 1.663-.327 2.176-.98.77-1.563.77-2.73c0-1.172-.26-2.08-.777-2.727s-1.246-.968-2.184-.968-1.66.32-2.168.965-.763 1.554-.763 2.73zM349.52 670.903v.54l-1.757.108c.47.584.703 1.225.703 1.923 0 .817-.272 1.48-.816 1.988s-1.274.763-2.19.763c-.387 0-.657-.016-.813-.047-.308.16-.542.352-.703.57s-.242.45-.242.695c0 .272.103.47.31.595s.55.188 1.034.188h1.484c.922 0 1.628.187 2.117.56s.734.922.734 1.65c0 .897-.362 1.588-1.09 2.075s-1.76.73-3.104.73c-1.067 0-1.895-.206-2.48-.617s-.88-.983-.88-1.718c0-.583.182-1.067.544-1.453s.853-.65 1.473-.79c-.255-.11-.46-.265-.613-.465s-.23-.43-.23-.69c0-.568.362-1.068 1.086-1.5-.495-.204-.88-.523-1.156-.958s-.414-.934-.414-1.496c0-.848.27-1.53.81-2.042s1.266-.77 2.183-.77c.557 0 .988.055 1.296.164h2.715zm-6.874 9.93c0 1.167.867 1.75 2.602 1.75 2.23 0 3.344-.71 3.344-2.133 0-.51-.175-.88-.523-1.11s-.915-.343-1.696-.343h-1.39c-1.56 0-2.338.612-2.338 1.836zm.65-7.28c0 .655.198 1.164.597 1.526s.93.542 1.598.542c.71 0 1.252-.18 1.63-.54s.566-.88.566-1.56c0-.725-.194-1.268-.582-1.63s-.93-.543-1.63-.543c-.676 0-1.21.193-1.597.58s-.582.93-.582 1.622zM355.493 679.552c-1.234 0-2.196-.38-2.887-1.14s-1.035-1.826-1.035-3.196c0-1.354.334-2.438 1-3.254s1.566-1.223 2.696-1.223c1 0 1.79.348 2.367 1.046s.867 1.646.867 2.844v.625h-6.117c.01 1.167.282 2.058.816 2.672s1.297.922 2.292.922c.484 0 .91-.035 1.277-.103s.83-.214 1.394-.438v.702c-.48.208-.922.35-1.328.426s-.854.114-1.343.114zm-.226-8.125c-.817 0-1.474.27-1.97.81s-.783 1.315-.866 2.33h5.25c0-.983-.213-1.753-.64-2.308s-1.02-.833-1.773-.833zM363.887 678.864c.49 0 .917-.042 1.28-.125v.624c-.374.125-.807.188-1.296.188-.75 0-1.303-.2-1.66-.602s-.534-1.03-.534-1.89v-5.485h-1.258v-.453l1.258-.352.39-1.922h.4v2.055h2.49v.672h-2.49v5.375c0 .65.113 1.133.343 1.445s.587.47 1.077.47zM373.727 679.396v-5.508c0-.854-.18-1.476-.54-1.863s-.916-.582-1.67-.582c-1.017 0-1.76.257-2.23.77s-.708 1.345-.708 2.496v4.687h-.774V667.24h.773v3.868l-.04 1.086h.055c.317-.51.72-.88 1.203-1.11s1.086-.343 1.805-.343c1.927 0 2.89 1.035 2.89 3.103v5.555h-.766zM381.472 679.552c-1.234 0-2.196-.38-2.887-1.14s-1.035-1.826-1.035-3.196c0-1.354.333-2.438 1-3.254s1.565-1.223 2.695-1.223c1 0 1.79.348 2.367 1.046s.867 1.646.867 2.844v.625h-6.118c.01 1.167.282 2.058.816 2.672s1.298.922 2.293.922c.485 0 .91-.035 1.278-.103s.832-.214 1.395-.438v.702c-.48.208-.922.35-1.328.426s-.854.114-1.343.114zm-.227-8.125c-.817 0-1.474.27-1.97.81s-.783 1.315-.866 2.33h5.25c0-.983-.215-1.753-.642-2.308s-1.018-.833-1.773-.833zM390.967 670.74c.36 0 .745.035 1.156.108l-.148.742c-.354-.09-.722-.133-1.102-.133-.724 0-1.317.308-1.78.922s-.696 1.39-.696 2.327v4.688h-.773v-8.492h.656l.078 1.53h.055c.35-.624.722-1.062 1.117-1.315s.874-.38 1.437-.38zM406.395 679.396l-1.86-5.68c-.12-.386-.272-.95-.46-1.695h-.047l-.164.58-.352 1.132-1.89 5.664h-.767l-2.43-8.492h.828l1.36 4.922c.316 1.22.525 2.114.624 2.688h.047c.308-1.22.53-2.028.672-2.43l1.75-5.18h.703l1.663 5.164c.375 1.224.604 2.034.688 2.43h.048c.042-.34.25-1.245.625-2.72l1.297-4.874h.78l-2.304 8.492h-.81zM411.867 668.544c0-.5.164-.75.492-.75.16 0 .287.065.378.195s.137.314.137.554c0 .234-.046.42-.137.555s-.218.202-.38.202c-.327 0-.49-.253-.49-.758zm.883 10.852h-.773v-8.492h.773v8.492zM418.636 678.864c.49 0 .917-.042 1.28-.125v.624c-.374.125-.807.188-1.296.188-.75 0-1.304-.2-1.66-.602s-.535-1.03-.535-1.89v-5.485h-1.258v-.453l1.258-.352.39-1.922h.4v2.055h2.49v.672h-2.49v5.375c0 .65.113 1.133.343 1.445s.588.47 1.078.47zM428.475 679.396v-5.508c0-.854-.18-1.476-.54-1.863s-.916-.582-1.67-.582c-1.017 0-1.76.257-2.23.77s-.708 1.345-.708 2.496v4.687h-.773V667.24h.773v3.868l-.04 1.086h.056c.317-.51.72-.88 1.203-1.11s1.086-.343 1.805-.343c1.928 0 2.892 1.035 2.892 3.103v5.555h-.767zM443.012 677.185c0 .76-.29 1.345-.867 1.754s-1.398.612-2.46.612c-1.137 0-2.037-.175-2.704-.523v-.837c.855.427 1.756.64 2.704.64.84 0 1.476-.14 1.91-.417s.652-.65.652-1.113c0-.427-.173-.786-.52-1.078s-.915-.578-1.707-.86c-.85-.307-1.446-.57-1.79-.792s-.603-.472-.777-.75-.262-.618-.262-1.02c0-.636.268-1.138.802-1.508s1.28-.555 2.238-.555c.917 0 1.786.172 2.61.516l-.29.703c-.833-.345-1.606-.517-2.32-.517-.692 0-1.242.114-1.648.344s-.61.547-.61.953c0 .442.158.797.474 1.062s.93.562 1.848.89c.766.277 1.323.525 1.672.747s.61.472.785.753.262.612.262.992zM451.922 679.396v-5.508c0-.854-.18-1.476-.54-1.863s-.916-.582-1.67-.582c-1.017 0-1.76.257-2.23.77s-.708 1.345-.708 2.496v4.687H446V667.24h.773v3.868l-.04 1.086h.056c.316-.51.718-.88 1.202-1.11s1.086-.343 1.805-.343c1.927 0 2.89 1.035 2.89 3.103v5.555h-.765zM461.394 679.396l-.195-1.344h-.063c-.427.547-.866.934-1.316 1.16s-.982.34-1.597.34c-.833 0-1.48-.214-1.945-.64s-.695-1.02-.695-1.774c0-.828.345-1.472 1.035-1.93s1.688-.7 2.996-.727l1.617-.046v-.562c0-.808-.163-1.417-.49-1.828s-.857-.617-1.587-.617c-.786 0-1.602.22-2.445.656l-.29-.672c.934-.437 1.855-.655 2.767-.655.933 0 1.63.242 2.09.727s.69 1.24.69 2.266v5.648h-.57zm-3.125-.547c.905 0 1.62-.26 2.144-.778s.785-1.238.785-2.16v-.836l-1.485.062c-1.192.058-2.043.243-2.55.56s-.763.805-.763 1.472c0 .53.163.944.488 1.238s.785.44 1.38.44zM468.857 670.74c.36 0 .745.035 1.156.108l-.148.742c-.354-.09-.722-.133-1.102-.133-.724 0-1.317.308-1.78.922s-.696 1.39-.696 2.327v4.688h-.773v-8.492h.656l.078 1.53h.055c.35-.624.722-1.062 1.117-1.315s.875-.38 1.437-.38zM475.97 679.552c-1.234 0-2.196-.38-2.887-1.14s-1.035-1.826-1.035-3.196c0-1.354.333-2.438 1-3.254s1.565-1.223 2.695-1.223c1 0 1.79.348 2.367 1.046s.867 1.646.867 2.844v.625h-6.117c.01 1.167.282 2.058.816 2.672s1.298.922 2.293.922c.483 0 .91-.035 1.276-.103s.832-.214 1.395-.438v.702c-.478.208-.92.35-1.327.426s-.854.114-1.343.114zm-.227-8.125c-.817 0-1.474.27-1.97.81s-.783 1.315-.866 2.33h5.25c0-.983-.214-1.753-.64-2.308s-1.02-.833-1.774-.833zM485.23 670.74c.614 0 1.146.11 1.594.335s.85.606 1.203 1.148h.047c-.03-.656-.047-1.3-.047-1.93v-3.055h.766v12.156h-.508l-.195-1.297h-.062c-.646.97-1.573 1.453-2.78 1.453-1.173 0-2.068-.364-2.69-1.094s-.93-1.792-.93-3.188c0-1.47.31-2.59.923-3.367s1.51-1.16 2.68-1.16zm0 .702c-.927 0-1.624.325-2.09.977s-.7 1.596-.7 2.835c0 2.406.936 3.61 2.806 3.61.958 0 1.66-.28 2.11-.837s.67-1.477.67-2.758v-.133c0-1.312-.22-2.257-.66-2.832s-1.15-.863-2.136-.863zM499.26 679.396l-3.28-8.492h.797l2.195 5.773c.292.74.51 1.386.656 1.938h.047c.214-.708.433-1.36.656-1.953l2.196-5.758h.797l-3.28 8.492h-.782zM505.436 668.544c0-.5.164-.75.492-.75.16 0 .288.065.38.195s.136.314.136.554c0 .234-.046.42-.137.555s-.218.202-.38.202c-.327 0-.49-.253-.49-.758zm.882 10.852h-.773v-8.492h.773v8.492zM515.228 677.185c0 .76-.29 1.345-.867 1.754s-1.397.612-2.46.612c-1.136 0-2.036-.175-2.703-.523v-.837c.854.427 1.755.64 2.703.64.84 0 1.476-.14 1.91-.417s.652-.65.652-1.113c0-.427-.173-.786-.52-1.078s-.915-.578-1.707-.86c-.85-.307-1.445-.57-1.79-.792s-.602-.472-.776-.75-.263-.618-.263-1.02c0-.636.267-1.138.8-1.508s1.28-.555 2.24-.555c.916 0 1.785.172 2.608.516l-.29.703c-.832-.345-1.605-.517-2.32-.517-.69 0-1.24.114-1.647.344s-.61.547-.61.953c0 .442.158.797.474 1.062s.93.562 1.848.89c.766.277 1.323.525 1.672.747s.61.472.785.753.26.612.26.992zM518.105 668.544c0-.5.164-.75.492-.75.16 0 .288.065.38.195s.136.314.136.554c0 .234-.046.42-.137.555s-.218.202-.38.202c-.326 0-.49-.253-.49-.758zm.883 10.852h-.773v-8.492h.773v8.492zM529.656 675.138c0 1.386-.336 2.468-1.008 3.246s-1.6 1.168-2.78 1.168c-.746 0-1.402-.18-1.97-.54s-1.003-.874-1.305-1.546-.453-1.448-.453-2.328c0-1.386.336-2.465 1.008-3.238s1.594-1.16 2.766-1.16c1.167 0 2.082.392 2.746 1.176s.996 1.857.996 3.222zm-6.703 0c0 1.167.257 2.077.77 2.73s1.238.98 2.176.98 1.662-.327 2.175-.98.77-1.563.77-2.73c0-1.172-.26-2.08-.777-2.727s-1.246-.968-2.184-.968-1.66.32-2.168.965-.763 1.554-.763 2.73zM538.73 679.396v-5.508c0-.854-.18-1.476-.54-1.863s-.917-.582-1.672-.582c-1.016 0-1.76.257-2.23.77s-.707 1.345-.707 2.496v4.687h-.772v-8.492h.656l.148 1.164h.047c.55-.887 1.533-1.33 2.944-1.33 1.927 0 2.89 1.035 2.89 3.103v5.555h-.765zM553.157 679.396l-.195-1.344h-.062c-.427.547-.866.934-1.316 1.16s-.983.34-1.598.34c-.833 0-1.48-.214-1.945-.64s-.694-1.02-.694-1.774c0-.828.345-1.472 1.035-1.93s1.69-.7 2.997-.727l1.617-.046v-.562c0-.808-.164-1.417-.492-1.828s-.856-.617-1.586-.617c-.786 0-1.602.22-2.445.656l-.288-.672c.933-.437 1.854-.655 2.766-.655.933 0 1.63.242 2.09.727s.69 1.24.69 2.266v5.648h-.57zm-3.125-.547c.906 0 1.62-.26 2.145-.778s.785-1.238.785-2.16v-.836l-1.484.062c-1.192.058-2.043.243-2.55.56s-.763.805-.763 1.472c0 .53.163.944.488 1.238s.785.44 1.38.44zM563.2 679.396v-5.508c0-.854-.18-1.476-.54-1.863s-.917-.582-1.672-.582c-1.016 0-1.76.257-2.23.77s-.707 1.345-.707 2.496v4.687h-.772v-8.492h.656l.148 1.164h.047c.55-.887 1.533-1.33 2.944-1.33 1.927 0 2.89 1.035 2.89 3.103v5.555h-.765zM570.625 670.74c.614 0 1.146.11 1.594.335s.848.606 1.202 1.148h.047c-.032-.656-.048-1.3-.048-1.93v-3.055h.766v12.156h-.508l-.195-1.297h-.062c-.646.97-1.573 1.453-2.78 1.453-1.173 0-2.068-.364-2.69-1.094s-.93-1.792-.93-3.188c0-1.47.31-2.59.923-3.367s1.507-1.16 2.68-1.16zm0 .702c-.927 0-1.624.325-2.09.977s-.7 1.596-.7 2.835c0 2.406.936 3.61 2.806 3.61.96 0 1.662-.28 2.11-.837s.672-1.477.672-2.758v-.133c0-1.312-.22-2.257-.66-2.832s-1.153-.863-2.137-.863zM584.654 679.396l-3.28-8.492h.796l2.195 5.773c.292.74.51 1.386.656 1.938h.048c.214-.708.433-1.36.656-1.953l2.195-5.758h.796l-3.28 8.492h-.782zM596.095 679.396l-.195-1.344h-.062c-.427.547-.866.934-1.316 1.16s-.983.34-1.598.34c-.833 0-1.48-.214-1.945-.64s-.696-1.02-.696-1.774c0-.828.345-1.472 1.035-1.93s1.687-.7 2.995-.727l1.617-.046v-.562c0-.808-.164-1.417-.492-1.828s-.856-.617-1.586-.617c-.786 0-1.602.22-2.445.656l-.29-.672c.933-.437 1.854-.655 2.766-.655.933 0 1.63.242 2.09.727s.69 1.24.69 2.266v5.648h-.57zm-3.125-.547c.906 0 1.62-.26 2.145-.778s.785-1.238.785-2.16v-.836l-1.484.062c-1.192.058-2.043.243-2.55.56s-.763.805-.763 1.472c0 .53.163.944.488 1.238s.786.44 1.38.44zM600.988 679.396h-.773V667.24h.773v12.156zM605.305 670.903v5.5c0 .854.18 1.476.54 1.863s.916.582 1.67.582c1.012 0 1.755-.255 2.23-.766s.716-1.34.716-2.492v-4.688h.767v8.492h-.656l-.14-1.172h-.047c-.552.886-1.534 1.328-2.945 1.328-1.933 0-2.898-1.034-2.898-3.102V670.9h.765zM618.3 679.552c-1.234 0-2.196-.38-2.887-1.14s-1.035-1.826-1.035-3.196c0-1.354.333-2.438 1-3.254s1.565-1.223 2.695-1.223c1 0 1.79.348 2.367 1.046s.867 1.646.867 2.844v.625h-6.117c.01 1.167.282 2.058.816 2.672s1.298.922 2.293.922c.483 0 .91-.035 1.276-.103s.832-.214 1.395-.438v.702c-.478.208-.92.35-1.327.426s-.854.114-1.343.114zm-.227-8.125c-.817 0-1.474.27-1.97.81s-.783 1.315-.866 2.33h5.25c0-.983-.214-1.753-.64-2.308s-1.02-.833-1.774-.833zM629.717 677.185c0 .76-.29 1.345-.867 1.754s-1.398.612-2.46.612c-1.137 0-2.037-.175-2.704-.523v-.837c.854.427 1.755.64 2.703.64.838 0 1.475-.14 1.91-.417s.65-.65.65-1.113c0-.427-.172-.786-.52-1.078s-.914-.578-1.706-.86c-.85-.307-1.445-.57-1.79-.792s-.602-.472-.776-.75-.262-.618-.262-1.02c0-.636.267-1.138.8-1.508s1.28-.555 2.24-.555c.916 0 1.785.172 2.608.516l-.29.703c-.832-.345-1.605-.517-2.32-.517-.69 0-1.24.114-1.647.344s-.61.547-.61.953c0 .442.158.797.474 1.062s.932.562 1.85.89c.765.277 1.322.525 1.67.747s.61.472.786.753.26.612.26.992z"/><path fill="none" stroke="#424242" stroke-width="4" stroke-miterlimit="10" d="M430 708.94h29"/><g enable-background="new"><path fill="#D6D6D6" d="M623.89 303.96l-.208 4.284-38.79 13.422.205-4.284zM232.155 368.88l.208-4.284c.36-7.433 2.023-14.856 5.02-22.184 11.874-29.016 43.21-53.01 88.232-67.56 9.674-3.126 19.916-5.745 30.424-7.78 84.282-16.32 180.503 4.678 229.057 50.31l-.206 4.284c-48.556-45.633-144.776-66.63-229.058-50.31-10.508 2.035-20.75 4.653-30.424 7.778-45.02 14.55-76.358 38.545-88.23 67.562-2.998 7.327-4.662 14.75-5.023 22.185z"/><path fill="#EFEFEF" d="M249.78 418.828c-12.463-15.967-18.442-32.972-17.625-49.937l.208-4.283c-.707 14.66 3.66 29.35 12.903 43.374l-.05 1.064.05-1.063c4.628 7.022 10.478 13.877 17.522 20.478 54.1 50.69 161.895 74.21 256.326 55.92 11.77-2.278 23.217-5.202 34.048-8.7 65.58-21.19 102.378-59.647 104.32-100.51l-.207 4.285c-1.942 40.862-38.74 79.317-104.32 100.51-10.832 3.497-22.28 6.422-34.05 8.7-94.43 18.287-202.225-5.23-256.324-55.92-4.832-4.53-9.1-9.177-12.8-13.915-.212-.43-.438-.854-.658-1.28.22.427.446.85.66 1.28zm-.615-1.24l-.022-.043-.025-.045-.024-.05-.024-.046-.026-.05-.025-.05-.025-.05-.025-.048-.023-.048-.024-.048-.023-.045-.02-.045-.022-.042-.02-.04-.018-.04-.016-.034.016.035.018.037.02.04.02.043.022.045.023.045.024.048.023.048.025.05.024.048.024.05.026.05.024.047.024.05.025.045.022.044m-.396-.966v.025l.002.015v.016l.004.018.004.018.002.018.003.02.004.017.003.02.002.018.003.016v.017l.003.016.002.013v.012-.027l-.003-.015-.002-.016-.003-.016-.002-.018-.004-.02-.005-.017-.003-.02-.002-.017-.004-.018-.003-.017v-.015l-.004-.016V416.623m0-.003l-.1-.216-.104-.227-.105-.233-.11-.24-.108-.245-.114-.25-.114-.25-.114-.255-.113-.256-.113-.255-.113-.254-.11-.248-.11-.248-.108-.24-.104-.236-.1-.227.1.228.104.236.11.24.107.248.11.25.114.253.113.254.113.255.114.254.114.25.114.25.11.244.11.24.104.233.104.227.1.217m-1.746-3.874l-.075-.168-.086-.182-.093-.194-.098-.21-.107-.218-.113-.23-.116-.238-.122-.243-.124-.25-.13-.258-.13-.258-.13-.262-.13-.26-.133-.262-.13-.26-.13-.255.13.256.13.26.132.26.13.26.13.263.13.258.13.257.124.25.122.244.116.24.113.228.107.22.1.208.092.194.085.182.074.168"/><path fill="#D6D6D6" d="M658.688 375.37l-.208 4.282c-1.987 41.102-38.99 79.68-104.832 100.955-10.894 3.517-22.423 6.465-34.258 8.757-95.018 18.4-203.48-5.267-257.907-56.267-21.258-19.92-31.7-42.132-30.63-64.28l.208-4.283c-1.07 22.147 9.374 44.36 30.632 64.28 54.424 51 162.888 74.666 257.906 56.265 11.834-2.293 23.363-5.24 34.256-8.757 65.843-21.274 102.844-59.853 104.834-100.954zM624.283 302.94c66.066 61.91 34.31 139.54-70.43 173.383-10.893 3.518-22.422 6.464-34.256 8.756-95.02 18.4-203.482-5.267-257.906-56.267-28.44-26.648-37.525-57.403-25.574-86.612 11.944-29.2 43.494-53.35 88.812-67.995 9.744-3.145 20.045-5.783 30.63-7.832 84.663-16.396 181.296 4.61 230.04 49.947l38.685-13.38zm-71.12 172.74c103.943-33.59 135.585-110.55 70.727-171.72l-38.793 13.422c-48.554-45.632-144.774-66.63-229.058-50.31-10.51 2.035-20.75 4.654-30.425 7.78-45.02 14.55-76.358 38.544-88.232 67.56-11.864 29.016-2.85 59.575 25.406 86.046 54.1 50.69 161.894 74.21 256.325 55.92 11.77-2.278 23.217-5.202 34.048-8.7"/><path fill="#D6D6D6" d="M657.48 375.23l-.207 4.284c1.157-23.923-9.633-48.675-33.592-71.27l.21-4.286c23.958 22.6 34.75 47.35 33.59 71.272z"/><path fill="#fff" d="M356.04 267.072c84.282-16.322 180.503 4.678 228.758 49.875l39.092-12.988c64.856 61.17 33.217 138.13-70.727 171.718-10.83 3.498-22.278 6.422-34.048 8.7-94.432 18.29-202.226-5.23-256.326-55.92-28.256-26.47-37.272-57.03-25.408-86.046 11.875-29.017 43.212-53.01 88.235-67.56 9.672-3.125 19.914-5.745 30.422-7.78z"/></g><ellipse fill-rule="evenodd" clip-rule="evenodd" fill="#EAEAEA" cx="405.702" cy="339.592" rx="11.917" ry="3.968"/><g fill-rule="evenodd" clip-rule="evenodd" fill="#E95A78"><path d="M398.742 302.338c4.91 3.55 8.436 3.55 14.127.002 2.183 2.77 2.933 5.897 3.493 9.316.216 1.307.58 4.375.516 5.697-.152 3.13-.81 3.232-1.636 3.798-.352.242-.518.832-.583 1.285-.53 3.742-1.27 7.478-1.455 11.24-.283 5.702-6.55 7.583-10.36 6.02-2.605-1.072-4.193-2.883-4.497-5.83-.39-3.807-.96-7.598-1.525-11.385-.084-.566-.052-1.377-.854-1.61 0 0-1.56-.638-1.56-3.355-.08-4.916.716-9.69 3.355-13.986.18-.292.798-1.037.977-1.192zM414.027 294.752c-.07 4.498-3.865 8.197-8.373 8.16-4.552-.035-8.234-3.86-8.183-8.498.05-4.52 3.805-8.158 8.373-8.113 4.612.044 8.26 3.81 8.184 8.452z"/></g><ellipse fill-rule="evenodd" clip-rule="evenodd" fill="#EAEAEA" cx="508.48" cy="517.208" rx="11.917" ry="3.968"/><g fill-rule="evenodd" clip-rule="evenodd" fill="#00D096"><path d="M501.52 479.955c4.912 3.547 8.437 3.547 14.126 0 2.186 2.77 2.934 5.898 3.496 9.317.215 1.306.58 4.374.516 5.697-.15 3.13-.808 3.23-1.635 3.797-.352.24-.52.83-.584 1.283-.53 3.742-1.27 7.48-1.456 11.24-.283 5.703-6.55 7.584-10.36 6.02-2.606-1.07-4.193-2.882-4.497-5.83-.392-3.807-.96-7.598-1.525-11.385-.085-.566-.053-1.377-.854-1.61 0 0-1.56-.638-1.56-3.354-.08-4.915.717-9.688 3.355-13.984.18-.292.8-1.037.978-1.19zM516.807 472.367c-.07 4.5-3.865 8.197-8.373 8.16-4.553-.035-8.234-3.86-8.184-8.497.05-4.52 3.805-8.158 8.372-8.114 4.612.043 8.258 3.81 8.185 8.45z"/></g><ellipse fill-rule="evenodd" clip-rule="evenodd" fill="#EAEAEA" cx="384.443" cy="396.208" rx="11.917" ry="3.968"/><g fill-rule="evenodd" clip-rule="evenodd" fill="#4F4E4E"><path d="M377.483 358.955c4.91 3.547 8.437 3.547 14.126 0 2.185 2.77 2.933 5.898 3.495 9.317.215 1.306.58 4.374.516 5.697-.15 3.13-.808 3.23-1.634 3.797-.353.24-.52.83-.584 1.283-.53 3.742-1.27 7.48-1.457 11.24-.282 5.703-6.55 7.584-10.357 6.02-2.607-1.07-4.195-2.882-4.498-5.83-.39-3.807-.96-7.598-1.526-11.385-.084-.566-.052-1.377-.853-1.61 0 0-1.56-.638-1.56-3.354-.08-4.915.717-9.688 3.357-13.984.18-.292.8-1.037.976-1.19zM392.77 351.367c-.07 4.5-3.866 8.197-8.375 8.16-4.55-.035-8.233-3.86-8.182-8.497.05-4.52 3.805-8.158 8.37-8.114 4.614.043 8.26 3.81 8.187 8.45z"/></g><ellipse fill-rule="evenodd" clip-rule="evenodd" fill="#EAEAEA" cx="200.443" cy="358.208" rx="11.917" ry="3.968"/><g fill-rule="evenodd" clip-rule="evenodd" fill="#4F4E4E"><path d="M193.483 320.955c4.91 3.547 8.437 3.547 14.126 0 2.185 2.77 2.933 5.898 3.495 9.317.215 1.306.58 4.374.516 5.697-.15 3.13-.808 3.23-1.634 3.797-.353.24-.52.83-.584 1.283-.53 3.742-1.27 7.48-1.457 11.24-.282 5.703-6.55 7.584-10.357 6.02-2.607-1.07-4.195-2.882-4.498-5.83-.39-3.807-.96-7.598-1.526-11.385-.084-.566-.052-1.377-.853-1.61 0 0-1.56-.638-1.56-3.354-.08-4.915.717-9.688 3.357-13.984.18-.292.8-1.037.976-1.19zM208.77 313.367c-.07 4.5-3.866 8.197-8.375 8.16-4.55-.035-8.233-3.86-8.182-8.497.05-4.52 3.805-8.158 8.37-8.114 4.614.043 8.26 3.81 8.187 8.45z"/></g><ellipse fill-rule="evenodd" clip-rule="evenodd" fill="#EAEAEA" cx="242.311" cy="482.023" rx="13.131" ry="4.372"/><g fill-rule="evenodd" clip-rule="evenodd" fill="#E95A78"><path d="M234.642 440.973c5.412 3.91 9.296 3.91 15.567.002 2.405 3.052 3.23 6.498 3.85 10.266.237 1.44.638 4.82.566 6.278-.166 3.45-.89 3.562-1.8 4.186-.39.266-.57.915-.644 1.415-.585 4.122-1.398 8.238-1.604 12.385-.312 6.283-7.217 8.355-11.415 6.632-2.872-1.18-4.62-3.176-4.956-6.423-.43-4.195-1.058-8.372-1.68-12.545-.093-.625-.058-1.52-.94-1.776 0 0-1.72-.702-1.72-3.695-.088-5.418.79-10.68 3.7-15.413.196-.323.877-1.143 1.075-1.314zM251.484 432.613c-.077 4.956-4.26 9.032-9.226 8.992-5.017-.04-9.074-4.254-9.017-9.365.055-4.98 4.192-8.99 9.226-8.94 5.083.05 9.1 4.198 9.018 9.313z"/></g><ellipse fill-rule="evenodd" clip-rule="evenodd" fill="#EAEAEA" cx="433.041" cy="435.804" rx="13.131" ry="4.372"/><g fill-rule="evenodd" clip-rule="evenodd" fill="#FFA800"><path d="M425.373 394.754c5.41 3.908 9.296 3.908 15.565 0 2.408 3.052 3.232 6.5 3.85 10.267.24 1.44.642 4.82.57 6.28-.167 3.45-.89 3.56-1.802 4.185-.388.265-.573.914-.644 1.413-.584 4.124-1.397 8.24-1.603 12.386-.313 6.285-7.22 8.357-11.417 6.634-2.873-1.18-4.62-3.176-4.956-6.423-.432-4.196-1.058-8.374-1.68-12.547-.095-.624-.06-1.517-.94-1.774 0 0-1.72-.702-1.72-3.696-.088-5.417.79-10.677 3.698-15.41.2-.324.88-1.144 1.078-1.314zM442.216 386.393c-.077 4.958-4.26 9.033-9.226 8.993-5.018-.04-9.074-4.253-9.02-9.364.057-4.98 4.193-8.99 9.227-8.94 5.083.046 9.1 4.196 9.02 9.31z"/></g><ellipse fill-rule="evenodd" clip-rule="evenodd" fill="#EAEAEA" cx="496.882" cy="435.804" rx="13.13" ry="4.372"/><g fill-rule="evenodd" clip-rule="evenodd" fill="#00ACD0"><path d="M489.215 394.754c5.41 3.908 9.293 3.908 15.564 0 2.407 3.052 3.23 6.5 3.85 10.267.237 1.44.64 4.82.568 6.28-.165 3.45-.89 3.56-1.8 4.185-.39.265-.573.914-.645 1.413-.584 4.124-1.396 8.24-1.604 12.386-.313 6.285-7.22 8.357-11.416 6.634-2.873-1.18-4.62-3.176-4.955-6.423-.432-4.196-1.06-8.374-1.683-12.547-.092-.624-.057-1.517-.94-1.774 0 0-1.718-.702-1.72-3.696-.087-5.417.793-10.677 3.698-15.41.2-.324.882-1.144 1.08-1.314zM506.057 386.393c-.078 4.958-4.26 9.033-9.227 8.993-5.018-.04-9.072-4.253-9.018-9.364.055-4.98 4.19-8.99 9.226-8.94 5.08.046 9.1 4.196 9.02 9.31z"/></g><ellipse fill-rule="evenodd" clip-rule="evenodd" fill="#EAEAEA" cx="643.393" cy="488.804" rx="13.13" ry="4.372"/><g fill-rule="evenodd" clip-rule="evenodd" fill="#FFA800"><path d="M635.724 447.754c5.412 3.908 9.297 3.908 15.565 0 2.407 3.052 3.234 6.5 3.853 10.267.236 1.44.64 4.82.568 6.28-.167 3.45-.892 3.56-1.802 4.185-.388.265-.573.914-.644 1.413-.583 4.124-1.397 8.24-1.603 12.386-.31 6.285-7.218 8.357-11.416 6.634-2.872-1.18-4.62-3.176-4.954-6.423-.432-4.196-1.06-8.374-1.682-12.547-.094-.624-.058-1.517-.94-1.774 0 0-1.718-.702-1.72-3.696-.086-5.417.79-10.677 3.698-15.41.2-.324.882-1.144 1.078-1.314zM652.567 439.393c-.077 4.958-4.26 9.033-9.226 8.993-5.017-.04-9.073-4.253-9.018-9.364.056-4.98 4.192-8.99 9.226-8.94 5.084.046 9.1 4.196 9.02 9.31z"/></g><ellipse fill-rule="evenodd" clip-rule="evenodd" fill="#EAEAEA" cx="451.343" cy="538.804" rx="13.13" ry="4.372"/><g fill-rule="evenodd" clip-rule="evenodd" fill="#80529B"><path d="M443.676 497.754c5.41 3.908 9.295 3.908 15.564 0 2.408 3.052 3.234 6.5 3.852 10.267.238 1.44.64 4.82.568 6.28-.167 3.45-.89 3.56-1.8 4.185-.39.265-.573.914-.644 1.413-.587 4.124-1.4 8.24-1.606 12.386-.31 6.285-7.217 8.357-11.414 6.634-2.874-1.18-4.62-3.176-4.956-6.423-.43-4.196-1.06-8.374-1.68-12.547-.094-.624-.06-1.517-.94-1.774 0 0-1.72-.702-1.72-3.696-.088-5.417.79-10.677 3.697-15.41.198-.324.882-1.144 1.08-1.314zM460.52 489.393c-.08 4.958-4.26 9.033-9.23 8.993-5.017-.04-9.07-4.253-9.015-9.364.053-4.98 4.19-8.99 9.224-8.94 5.082.046 9.1 4.196 9.02 9.31z"/></g><ellipse fill-rule="evenodd" clip-rule="evenodd" fill="#EAEAEA" cx="292.358" cy="251.017" rx="9.488" ry="3.159"/><g fill-rule="evenodd" clip-rule="evenodd" fill="#00ACD0"><path d="M286.818 221.356c3.91 2.825 6.716 2.825 11.246 0 1.74 2.206 2.335 4.696 2.783 7.42.17 1.038.462 3.48.41 4.534-.12 2.493-.643 2.573-1.302 3.023-.28.19-.413.662-.465 1.023-.422 2.98-1.01 5.953-1.158 8.948-.226 4.54-5.216 6.038-8.248 4.792-2.076-.852-3.34-2.294-3.58-4.64-.313-3.032-.766-6.05-1.216-9.065-.067-.45-.042-1.096-.68-1.28 0 0-1.24-.51-1.242-2.672-.062-3.914.57-7.715 2.672-11.135.145-.23.637-.824.78-.947zM298.987 215.315c-.056 3.582-3.077 6.526-6.666 6.497-3.624-.027-6.555-3.072-6.515-6.766.04-3.598 3.03-6.495 6.665-6.46 3.674.035 6.576 3.033 6.517 6.73z"/></g><ellipse fill-rule="evenodd" clip-rule="evenodd" fill="#EAEAEA" cx="484.59" cy="258.017" rx="9.487" ry="3.159"/><g fill-rule="evenodd" clip-rule="evenodd" fill="#80529B"><path d="M479.05 228.356c3.91 2.825 6.715 2.825 11.247 0 1.74 2.206 2.335 4.696 2.783 7.42.17 1.038.46 3.48.41 4.534-.12 2.493-.644 2.573-1.302 3.023-.28.19-.413.662-.466 1.023-.42 2.98-1.01 5.953-1.158 8.948-.226 4.54-5.216 6.038-8.248 4.792-2.076-.852-3.34-2.294-3.58-4.64-.312-3.032-.766-6.05-1.216-9.065-.066-.45-.04-1.096-.68-1.28 0 0-1.24-.51-1.242-2.672-.063-3.914.572-7.715 2.673-11.135.143-.23.637-.824.78-.947zM491.22 222.315c-.057 3.582-3.078 6.526-6.667 6.497-3.625-.027-6.555-3.072-6.516-6.766.04-3.598 3.028-6.495 6.666-6.46 3.67.035 6.575 3.033 6.516 6.73z"/></g><ellipse fill-rule="evenodd" clip-rule="evenodd" fill="#EAEAEA" cx="339.34" cy="281.017" rx="9.487" ry="3.159"/><g fill-rule="evenodd" clip-rule="evenodd" fill="#E95A78"><path d="M333.8 251.356c3.91 2.825 6.716 2.825 11.246 0 1.74 2.206 2.337 4.696 2.782 7.42.172 1.038.463 3.48.41 4.534-.12 2.493-.643 2.573-1.3 3.023-.28.19-.413.662-.465 1.023-.423 2.98-1.01 5.953-1.16 8.948-.225 4.54-5.214 6.038-8.248 4.792-2.075-.852-3.34-2.294-3.58-4.64-.312-3.032-.766-6.05-1.215-9.065-.067-.45-.04-1.096-.68-1.28 0 0-1.24-.51-1.24-2.672-.065-3.914.57-7.715 2.67-11.135.144-.23.636-.824.78-.947zM345.97 245.315c-.058 3.582-3.078 6.526-6.667 6.497-3.626-.027-6.556-3.072-6.516-6.766.04-3.598 3.03-6.495 6.666-6.46 3.672.035 6.575 3.033 6.517 6.73z"/></g><ellipse fill-rule="evenodd" clip-rule="evenodd" fill="#EAEAEA" cx="238.34" cy="300.017" rx="9.487" ry="3.159"/><g fill-rule="evenodd" clip-rule="evenodd" fill="#00D096"><path d="M232.8 270.356c3.91 2.825 6.716 2.825 11.246 0 1.74 2.206 2.337 4.696 2.782 7.42.172 1.038.463 3.48.41 4.534-.12 2.493-.643 2.573-1.3 3.023-.28.19-.413.662-.465 1.023-.423 2.98-1.01 5.953-1.16 8.948-.225 4.54-5.214 6.038-8.248 4.792-2.075-.852-3.34-2.294-3.58-4.64-.312-3.032-.766-6.05-1.215-9.065-.067-.45-.04-1.096-.68-1.28 0 0-1.24-.51-1.24-2.672-.065-3.914.57-7.715 2.67-11.135.144-.23.636-.824.78-.947zM244.97 264.315c-.058 3.582-3.078 6.526-6.667 6.497-3.626-.027-6.556-3.072-6.516-6.766.04-3.598 3.03-6.495 6.666-6.46 3.672.035 6.575 3.033 6.517 6.73z"/></g><ellipse fill-rule="evenodd" clip-rule="evenodd" fill="#EAEAEA" cx="546.34" cy="267.017" rx="9.487" ry="3.159"/><g fill-rule="evenodd" clip-rule="evenodd" fill="#FFA800"><path d="M540.8 237.356c3.91 2.825 6.716 2.825 11.246 0 1.74 2.206 2.337 4.696 2.782 7.42.172 1.038.463 3.48.41 4.534-.12 2.493-.643 2.573-1.3 3.023-.28.19-.413.662-.465 1.023-.423 2.98-1.01 5.953-1.16 8.948-.225 4.54-5.214 6.038-8.248 4.792-2.075-.852-3.34-2.294-3.58-4.64-.312-3.032-.766-6.05-1.215-9.065-.067-.45-.04-1.096-.68-1.28 0 0-1.24-.51-1.24-2.672-.065-3.914.57-7.715 2.67-11.135.144-.23.636-.824.78-.947zM552.97 231.315c-.058 3.582-3.078 6.526-6.667 6.497-3.626-.027-6.556-3.072-6.516-6.766.04-3.598 3.03-6.495 6.666-6.46 3.672.035 6.575 3.033 6.517 6.73z"/></g><ellipse fill-rule="evenodd" clip-rule="evenodd" fill="#EAEAEA" cx="670.717" cy="327.017" rx="9.488" ry="3.159"/><g fill-rule="evenodd" clip-rule="evenodd" fill="#4F4E4E"><path d="M665.176 297.356c3.91 2.825 6.718 2.825 11.247 0 1.74 2.206 2.336 4.696 2.784 7.42.17 1.038.46 3.48.41 4.534-.12 2.493-.644 2.573-1.302 3.023-.28.19-.413.662-.465 1.023-.422 2.98-1.01 5.953-1.16 8.948-.225 4.54-5.214 6.038-8.246 4.792-2.076-.852-3.34-2.294-3.58-4.64-.313-3.032-.767-6.05-1.217-9.065-.066-.45-.04-1.096-.68-1.28 0 0-1.24-.51-1.24-2.672-.063-3.914.57-7.715 2.672-11.135.14-.23.635-.824.776-.947zM677.347 291.315c-.057 3.582-3.078 6.526-6.668 6.497-3.624-.027-6.557-3.072-6.515-6.766.038-3.598 3.028-6.495 6.665-6.46 3.673.035 6.575 3.033 6.517 6.73z"/></g><ellipse opacity=".2" fill="#FFA800" cx="305.539" cy="342.831" rx="57" ry="34.845"/><ellipse transform="matrix(.992 .123 -.123 .992 41.771 -56.084)" opacity=".2" fill="#00ACD0" cx="476.126" cy="311.018" rx="51.736" ry="34.075"/><ellipse transform="matrix(.976 .216 -.216 .976 103.546 -63.96)" opacity=".2" fill="#00D096" cx="344.039" cy="441.176" rx="48.5" ry="25.5"/><ellipse transform="matrix(1 .027 -.027 1 8.037 -9.981)" opacity=".2" fill="#80529B" cx="374.507" cy="293.335" rx="19.978" ry="11.335"/><ellipse transform="matrix(1 .027 -.027 1 8.037 -9.981)" fill="none" cx="374.507" cy="293.335" rx="19.978" ry="11.335"/><ellipse transform="matrix(.842 -.539 .539 .842 -126.441 384.007)" opacity=".2" fill="#E95A78" cx="592.463" cy="407.899" rx="60.898" ry="33.186"/><ellipse fill-rule="evenodd" clip-rule="evenodd" fill="#EAEAEA" cx="280.451" cy="363.208" rx="11.916" ry="3.968"/><g fill-rule="evenodd" clip-rule="evenodd" fill="#C2C2C4"><path d="M273.493 325.955c4.91 3.547 8.434 3.547 14.125 0 2.186 2.77 2.934 5.898 3.496 9.317.214 1.306.58 4.374.515 5.697-.15 3.13-.81 3.23-1.635 3.797-.354.24-.52.83-.585 1.283-.53 3.742-1.268 7.48-1.455 11.24-.283 5.703-6.55 7.584-10.36 6.02-2.606-1.07-4.193-2.882-4.496-5.83-.393-3.807-.963-7.598-1.527-11.385-.084-.566-.052-1.377-.854-1.61 0 0-1.56-.638-1.56-3.354-.08-4.915.718-9.688 3.355-13.984.178-.292.798-1.037.978-1.19zM288.777 318.367c-.07 4.5-3.865 8.197-8.373 8.16-4.553-.035-8.233-3.86-8.184-8.497.05-4.52 3.804-8.158 8.373-8.114 4.61.043 8.26 3.81 8.184 8.45z"/></g><ellipse fill-rule="evenodd" clip-rule="evenodd" fill="#EAEAEA" cx="303.751" cy="320.017" rx="9.487" ry="3.159"/><g fill-rule="evenodd" clip-rule="evenodd" fill="#C2C2C4"><path d="M298.21 290.356c3.91 2.825 6.717 2.825 11.247 0 1.74 2.206 2.337 4.696 2.784 7.42.17 1.038.462 3.48.41 4.534-.12 2.493-.644 2.573-1.3 3.023-.28.19-.415.662-.466 1.023-.422 2.98-1.01 5.953-1.16 8.948-.225 4.54-5.214 6.038-8.248 4.792-2.074-.852-3.338-2.294-3.58-4.64-.31-3.032-.764-6.05-1.215-9.065-.066-.45-.04-1.096-.68-1.28 0 0-1.24-.51-1.24-2.672-.063-3.914.57-7.715 2.672-11.135.143-.23.637-.824.78-.947zM310.38 284.315c-.056 3.582-3.077 6.526-6.666 6.497-3.624-.027-6.556-3.072-6.516-6.766.04-3.598 3.03-6.495 6.666-6.46 3.672.035 6.574 3.033 6.517 6.73z"/></g><ellipse fill-rule="evenodd" clip-rule="evenodd" fill="#EAEAEA" cx="327.48" cy="360.208" rx="11.917" ry="3.968"/><g fill-rule="evenodd" clip-rule="evenodd" fill="#C2C2C4"><path d="M320.52 322.955c4.912 3.547 8.437 3.547 14.126 0 2.186 2.77 2.934 5.898 3.496 9.317.215 1.306.58 4.374.516 5.697-.15 3.13-.808 3.23-1.635 3.797-.352.24-.52.83-.584 1.283-.53 3.742-1.27 7.48-1.456 11.24-.283 5.703-6.55 7.584-10.36 6.02-2.606-1.07-4.193-2.882-4.497-5.83-.392-3.807-.96-7.598-1.525-11.385-.085-.566-.053-1.377-.854-1.61 0 0-1.56-.638-1.56-3.354-.08-4.915.717-9.688 3.355-13.984.18-.292.8-1.037.978-1.19zM335.807 315.367c-.07 4.5-3.865 8.197-8.373 8.16-4.553-.035-8.234-3.86-8.184-8.497.05-4.52 3.805-8.158 8.372-8.114 4.612.043 8.258 3.81 8.185 8.45z"/></g><g opacity=".7"><ellipse fill-rule="evenodd" clip-rule="evenodd" fill="#FFA800" cx="280.451" cy="363.208" rx="11.916" ry="3.968"/><g fill-rule="evenodd" clip-rule="evenodd" fill="#FFA800"><path d="M273.493 325.955c4.91 3.547 8.434 3.547 14.125 0 2.186 2.77 2.934 5.898 3.496 9.317.214 1.306.58 4.374.515 5.697-.15 3.13-.81 3.23-1.635 3.797-.354.24-.52.83-.585 1.283-.53 3.742-1.268 7.48-1.455 11.24-.283 5.703-6.55 7.584-10.36 6.02-2.606-1.07-4.193-2.882-4.496-5.83-.393-3.807-.963-7.598-1.527-11.385-.084-.566-.052-1.377-.854-1.61 0 0-1.56-.638-1.56-3.354-.08-4.915.718-9.688 3.355-13.984.178-.292.798-1.037.978-1.19zM288.777 318.367c-.07 4.5-3.865 8.197-8.373 8.16-4.553-.035-8.233-3.86-8.184-8.497.05-4.52 3.804-8.158 8.373-8.114 4.61.043 8.26 3.81 8.184 8.45z"/></g></g><g opacity=".7"><ellipse fill-rule="evenodd" clip-rule="evenodd" fill="#FFA800" cx="303.751" cy="320.017" rx="9.487" ry="3.159"/><g fill-rule="evenodd" clip-rule="evenodd" fill="#FFA800"><path d="M298.21 290.356c3.91 2.825 6.717 2.825 11.247 0 1.74 2.206 2.337 4.696 2.784 7.42.17 1.038.462 3.48.41 4.534-.12 2.493-.644 2.573-1.3 3.023-.28.19-.415.662-.466 1.023-.422 2.98-1.01 5.953-1.16 8.948-.225 4.54-5.214 6.038-8.248 4.792-2.074-.852-3.338-2.294-3.58-4.64-.31-3.032-.764-6.05-1.215-9.065-.066-.45-.04-1.096-.68-1.28 0 0-1.24-.51-1.24-2.672-.063-3.914.57-7.715 2.672-11.135.143-.23.637-.824.78-.947zM310.38 284.315c-.056 3.582-3.077 6.526-6.666 6.497-3.624-.027-6.556-3.072-6.516-6.766.04-3.598 3.03-6.495 6.666-6.46 3.672.035 6.574 3.033 6.517 6.73z"/></g></g><g opacity=".7"><ellipse fill-rule="evenodd" clip-rule="evenodd" fill="#FFA800" cx="327.48" cy="360.208" rx="11.917" ry="3.968"/><g fill-rule="evenodd" clip-rule="evenodd" fill="#FFA800"><path d="M320.52 322.955c4.912 3.547 8.437 3.547 14.126 0 2.186 2.77 2.934 5.898 3.496 9.317.215 1.306.58 4.374.516 5.697-.15 3.13-.808 3.23-1.635 3.797-.352.24-.52.83-.584 1.283-.53 3.742-1.27 7.48-1.456 11.24-.283 5.703-6.55 7.584-10.36 6.02-2.606-1.07-4.193-2.882-4.497-5.83-.392-3.807-.96-7.598-1.525-11.385-.085-.566-.053-1.377-.854-1.61 0 0-1.56-.638-1.56-3.354-.08-4.915.717-9.688 3.355-13.984.18-.292.8-1.037.978-1.19zM335.807 315.367c-.07 4.5-3.865 8.197-8.373 8.16-4.553-.035-8.234-3.86-8.184-8.497.05-4.52 3.805-8.158 8.372-8.114 4.612.043 8.258 3.81 8.185 8.45z"/></g></g><ellipse fill-rule="evenodd" clip-rule="evenodd" fill="#EAEAEA" cx="363.041" cy="457.804" rx="13.131" ry="4.372"/><g fill-rule="evenodd" clip-rule="evenodd" fill="#C2C2C4"><path d="M355.373 416.754c5.41 3.908 9.296 3.908 15.565 0 2.408 3.052 3.232 6.5 3.85 10.267.24 1.44.642 4.82.57 6.28-.167 3.45-.89 3.56-1.802 4.185-.388.265-.573.914-.644 1.413-.584 4.124-1.397 8.24-1.603 12.386-.313 6.285-7.22 8.357-11.417 6.634-2.873-1.18-4.62-3.176-4.956-6.423-.432-4.196-1.058-8.374-1.68-12.547-.095-.624-.06-1.517-.94-1.774 0 0-1.72-.702-1.72-3.696-.088-5.417.79-10.677 3.698-15.41.2-.324.88-1.144 1.078-1.314zM372.216 408.393c-.077 4.958-4.26 9.033-9.226 8.993-5.018-.04-9.074-4.253-9.02-9.364.057-4.98 4.193-8.99 9.227-8.94 5.083.046 9.1 4.196 9.02 9.31z"/></g><ellipse fill-rule="evenodd" clip-rule="evenodd" fill="#EAEAEA" cx="322.393" cy="437.804" rx="13.13" ry="4.372"/><g fill-rule="evenodd" clip-rule="evenodd" fill="#C2C2C4"><path d="M314.724 396.754c5.412 3.908 9.297 3.908 15.565 0 2.407 3.052 3.234 6.5 3.853 10.267.236 1.44.64 4.82.568 6.28-.167 3.45-.892 3.56-1.802 4.185-.388.265-.573.914-.644 1.413-.583 4.124-1.397 8.24-1.603 12.386-.31 6.285-7.218 8.357-11.416 6.634-2.872-1.18-4.62-3.176-4.954-6.423-.432-4.196-1.06-8.374-1.682-12.547-.094-.624-.058-1.517-.94-1.774 0 0-1.718-.702-1.72-3.696-.086-5.417.79-10.677 3.698-15.41.2-.324.882-1.144 1.078-1.314zM331.567 388.393c-.077 4.958-4.26 9.033-9.226 8.993-5.017-.04-9.073-4.253-9.018-9.364.056-4.98 4.192-8.99 9.226-8.94 5.084.046 9.1 4.196 9.02 9.31z"/></g><g opacity=".6"><ellipse fill-rule="evenodd" clip-rule="evenodd" fill="#00D096" cx="363.041" cy="457.804" rx="13.131" ry="4.372"/><g fill-rule="evenodd" clip-rule="evenodd" fill="#00D096"><path d="M355.373 416.754c5.41 3.908 9.296 3.908 15.565 0 2.408 3.052 3.232 6.5 3.85 10.267.24 1.44.642 4.82.57 6.28-.167 3.45-.89 3.56-1.802 4.185-.388.265-.573.914-.644 1.413-.584 4.124-1.397 8.24-1.603 12.386-.313 6.285-7.22 8.357-11.417 6.634-2.873-1.18-4.62-3.176-4.956-6.423-.432-4.196-1.058-8.374-1.68-12.547-.095-.624-.06-1.517-.94-1.774 0 0-1.72-.702-1.72-3.696-.088-5.417.79-10.677 3.698-15.41.2-.324.88-1.144 1.078-1.314zM372.216 408.393c-.077 4.958-4.26 9.033-9.226 8.993-5.018-.04-9.074-4.253-9.02-9.364.057-4.98 4.193-8.99 9.227-8.94 5.083.046 9.1 4.196 9.02 9.31z"/></g></g><g opacity=".6"><ellipse fill-rule="evenodd" clip-rule="evenodd" fill="#00D096" cx="322.393" cy="437.804" rx="13.13" ry="4.372"/><g fill-rule="evenodd" clip-rule="evenodd" fill="#00D096"><path d="M314.724 396.754c5.412 3.908 9.297 3.908 15.565 0 2.407 3.052 3.234 6.5 3.853 10.267.236 1.44.64 4.82.568 6.28-.167 3.45-.892 3.56-1.802 4.185-.388.265-.573.914-.644 1.413-.583 4.124-1.397 8.24-1.603 12.386-.31 6.285-7.218 8.357-11.416 6.634-2.872-1.18-4.62-3.176-4.954-6.423-.432-4.196-1.06-8.374-1.682-12.547-.094-.624-.058-1.517-.94-1.774 0 0-1.718-.702-1.72-3.696-.086-5.417.79-10.677 3.698-15.41.2-.324.882-1.144 1.078-1.314zM331.567 388.393c-.077 4.958-4.26 9.033-9.226 8.993-5.017-.04-9.073-4.253-9.018-9.364.056-4.98 4.192-8.99 9.226-8.94 5.084.046 9.1 4.196 9.02 9.31z"/></g></g><ellipse fill-rule="evenodd" clip-rule="evenodd" fill="#EAEAEA" cx="592.393" cy="382.804" rx="13.13" ry="4.372"/><g fill-rule="evenodd" clip-rule="evenodd" fill="#C2C2C4"><path d="M584.724 341.754c5.412 3.908 9.297 3.908 15.565 0 2.407 3.052 3.234 6.5 3.853 10.267.236 1.44.64 4.82.568 6.28-.167 3.45-.892 3.56-1.802 4.185-.388.265-.573.914-.644 1.413-.583 4.124-1.397 8.24-1.603 12.386-.31 6.285-7.218 8.357-11.416 6.634-2.872-1.18-4.62-3.176-4.954-6.423-.432-4.196-1.06-8.374-1.682-12.547-.094-.624-.058-1.517-.94-1.774 0 0-1.718-.702-1.72-3.696-.086-5.417.79-10.677 3.698-15.41.2-.324.882-1.144 1.078-1.314zM601.567 333.393c-.077 4.958-4.26 9.033-9.226 8.993-5.017-.04-9.073-4.253-9.018-9.364.056-4.98 4.192-8.99 9.226-8.94 5.084.046 9.1 4.196 9.02 9.31z"/></g><ellipse fill-rule="evenodd" clip-rule="evenodd" fill="#EAEAEA" cx="567.305" cy="432.804" rx="13.13" ry="4.372"/><g fill-rule="evenodd" clip-rule="evenodd" fill="#C2C2C4"><path d="M559.637 391.754c5.412 3.908 9.296 3.908 15.565 0 2.408 3.052 3.232 6.5 3.853 10.267.236 1.44.64 4.82.568 6.28-.17 3.45-.89 3.56-1.8 4.185-.39.265-.574.914-.646 1.413-.584 4.124-1.4 8.24-1.604 12.386-.312 6.285-7.217 8.357-11.413 6.634-2.873-1.18-4.623-3.176-4.957-6.423-.43-4.196-1.06-8.374-1.682-12.547-.092-.624-.057-1.517-.94-1.774 0 0-1.717-.702-1.718-3.696-.087-5.417.79-10.677 3.7-15.41.196-.324.88-1.144 1.075-1.314zM576.48 383.393c-.078 4.958-4.26 9.033-9.23 8.993-5.013-.04-9.07-4.253-9.015-9.364.054-4.98 4.193-8.99 9.225-8.94 5.084.046 9.102 4.196 9.02 9.31z"/></g><ellipse fill-rule="evenodd" clip-rule="evenodd" fill="#EAEAEA" cx="622.041" cy="408.804" rx="13.131" ry="4.372"/><g fill-rule="evenodd" clip-rule="evenodd" fill="#C2C2C4"><path d="M614.373 367.754c5.41 3.908 9.296 3.908 15.565 0 2.408 3.052 3.232 6.5 3.85 10.267.24 1.44.642 4.82.57 6.28-.167 3.45-.89 3.56-1.802 4.185-.388.265-.573.914-.644 1.413-.584 4.124-1.397 8.24-1.603 12.386-.313 6.285-7.22 8.357-11.417 6.634-2.873-1.18-4.62-3.176-4.956-6.423-.432-4.196-1.058-8.374-1.68-12.547-.095-.624-.06-1.517-.94-1.774 0 0-1.72-.702-1.72-3.696-.088-5.417.79-10.677 3.698-15.41.2-.324.88-1.144 1.078-1.314zM631.216 359.393c-.077 4.958-4.26 9.033-9.226 8.993-5.018-.04-9.074-4.253-9.02-9.364.057-4.98 4.193-8.99 9.227-8.94 5.083.046 9.1 4.196 9.02 9.31z"/></g><g opacity=".6"><ellipse fill-rule="evenodd" clip-rule="evenodd" fill="#E95A78" cx="592.393" cy="382.804" rx="13.13" ry="4.372"/><g fill-rule="evenodd" clip-rule="evenodd" fill="#E95A78"><path d="M584.724 341.754c5.412 3.908 9.297 3.908 15.565 0 2.407 3.052 3.234 6.5 3.853 10.267.236 1.44.64 4.82.568 6.28-.167 3.45-.892 3.56-1.802 4.185-.388.265-.573.914-.644 1.413-.583 4.124-1.397 8.24-1.603 12.386-.31 6.285-7.218 8.357-11.416 6.634-2.872-1.18-4.62-3.176-4.954-6.423-.432-4.196-1.06-8.374-1.682-12.547-.094-.624-.058-1.517-.94-1.774 0 0-1.718-.702-1.72-3.696-.086-5.417.79-10.677 3.698-15.41.2-.324.882-1.144 1.078-1.314zM601.567 333.393c-.077 4.958-4.26 9.033-9.226 8.993-5.017-.04-9.073-4.253-9.018-9.364.056-4.98 4.192-8.99 9.226-8.94 5.084.046 9.1 4.196 9.02 9.31z"/></g></g><g opacity=".6"><ellipse fill-rule="evenodd" clip-rule="evenodd" fill="#E95A78" cx="567.305" cy="432.804" rx="13.13" ry="4.372"/><g fill-rule="evenodd" clip-rule="evenodd" fill="#E95A78"><path d="M559.637 391.754c5.412 3.908 9.296 3.908 15.565 0 2.408 3.052 3.232 6.5 3.853 10.267.236 1.44.64 4.82.568 6.28-.17 3.45-.89 3.56-1.8 4.185-.39.265-.574.914-.646 1.413-.584 4.124-1.4 8.24-1.604 12.386-.312 6.285-7.217 8.357-11.413 6.634-2.873-1.18-4.623-3.176-4.957-6.423-.43-4.196-1.06-8.374-1.682-12.547-.092-.624-.057-1.517-.94-1.774 0 0-1.717-.702-1.718-3.696-.087-5.417.79-10.677 3.7-15.41.196-.324.88-1.144 1.075-1.314zM576.48 383.393c-.078 4.958-4.26 9.033-9.23 8.993-5.013-.04-9.07-4.253-9.015-9.364.054-4.98 4.193-8.99 9.225-8.94 5.084.046 9.102 4.196 9.02 9.31z"/></g></g><g opacity=".6"><ellipse fill-rule="evenodd" clip-rule="evenodd" fill="#E95A78" cx="622.041" cy="408.804" rx="13.131" ry="4.372"/><g fill-rule="evenodd" clip-rule="evenodd" fill="#E95A78"><path d="M614.373 367.754c5.41 3.908 9.296 3.908 15.565 0 2.408 3.052 3.232 6.5 3.85 10.267.24 1.44.642 4.82.57 6.28-.167 3.45-.89 3.56-1.802 4.185-.388.265-.573.914-.644 1.413-.584 4.124-1.397 8.24-1.603 12.386-.313 6.285-7.22 8.357-11.417 6.634-2.873-1.18-4.62-3.176-4.956-6.423-.432-4.196-1.058-8.374-1.68-12.547-.095-.624-.06-1.517-.94-1.774 0 0-1.72-.702-1.72-3.696-.088-5.417.79-10.677 3.698-15.41.2-.324.88-1.144 1.078-1.314zM631.216 359.393c-.077 4.958-4.26 9.033-9.226 8.993-5.018-.04-9.074-4.253-9.02-9.364.057-4.98 4.193-8.99 9.227-8.94 5.083.046 9.1 4.196 9.02 9.31z"/></g></g><ellipse fill-rule="evenodd" clip-rule="evenodd" fill="#EAEAEA" cx="467.846" cy="337.208" rx="11.916" ry="3.968"/><g fill-rule="evenodd" clip-rule="evenodd" fill="#C2C2C4"><path d="M460.887 299.955c4.91 3.547 8.436 3.547 14.125 0 2.186 2.77 2.936 5.898 3.497 9.317.213 1.306.578 4.374.515 5.697-.152 3.13-.81 3.23-1.636 3.797-.353.24-.52.83-.585 1.283-.53 3.742-1.27 7.48-1.455 11.24-.283 5.703-6.55 7.584-10.36 6.02-2.606-1.07-4.193-2.882-4.496-5.83-.392-3.807-.96-7.598-1.526-11.385-.085-.566-.053-1.377-.854-1.61 0 0-1.56-.638-1.56-3.354-.08-4.915.717-9.688 3.355-13.984.18-.292.8-1.037.977-1.19zM476.172 292.367c-.07 4.5-3.865 8.197-8.373 8.16-4.554-.035-8.235-3.86-8.185-8.497.05-4.52 3.805-8.158 8.372-8.114 4.613.043 8.258 3.81 8.185 8.45z"/></g><ellipse fill-rule="evenodd" clip-rule="evenodd" fill="#EAEAEA" cx="504.484" cy="311.73" rx="9.488" ry="3.158"/><g fill-rule="evenodd" clip-rule="evenodd" fill="#C2C2C4"><path d="M498.942 282.07c3.91 2.824 6.717 2.824 11.248 0 1.738 2.205 2.335 4.695 2.782 7.418.172 1.04.46 3.482.41 4.536-.12 2.493-.644 2.573-1.302 3.023-.28.192-.412.66-.464 1.022-.423 2.978-1.01 5.952-1.16 8.948-.225 4.54-5.214 6.037-8.247 4.792-2.076-.853-3.34-2.294-3.582-4.642-.312-3.03-.765-6.05-1.215-9.063-.066-.45-.04-1.097-.68-1.282 0 0-1.24-.508-1.24-2.672-.065-3.912.57-7.714 2.67-11.134.145-.23.638-.823.78-.947zM511.112 276.03c-.056 3.58-3.077 6.525-6.666 6.497-3.624-.03-6.557-3.074-6.516-6.768.04-3.6 3.028-6.495 6.666-6.46 3.673.036 6.576 3.034 6.516 6.73z"/></g><ellipse fill-rule="evenodd" clip-rule="evenodd" fill="#EAEAEA" cx="450.717" cy="286.017" rx="9.488" ry="3.159"/><g fill-rule="evenodd" clip-rule="evenodd" fill="#C2C2C4"><path d="M445.176 256.356c3.91 2.825 6.718 2.825 11.247 0 1.74 2.206 2.336 4.696 2.784 7.42.17 1.038.46 3.48.41 4.534-.12 2.493-.644 2.573-1.302 3.023-.28.19-.413.662-.465 1.023-.422 2.98-1.01 5.953-1.16 8.948-.225 4.54-5.214 6.038-8.246 4.792-2.076-.852-3.34-2.294-3.58-4.64-.313-3.032-.767-6.05-1.217-9.065-.066-.45-.04-1.096-.68-1.28 0 0-1.24-.51-1.24-2.672-.063-3.914.57-7.715 2.672-11.135.14-.23.635-.824.776-.947zM457.347 250.315c-.057 3.582-3.078 6.526-6.668 6.497-3.624-.027-6.557-3.072-6.515-6.766.038-3.598 3.028-6.495 6.665-6.46 3.673.035 6.575 3.033 6.517 6.73z"/></g><g opacity=".6"><ellipse fill-rule="evenodd" clip-rule="evenodd" fill="#00ACD0" cx="467.846" cy="337.208" rx="11.916" ry="3.968"/><g fill-rule="evenodd" clip-rule="evenodd" fill="#00ACD0"><path d="M460.887 299.955c4.91 3.547 8.436 3.547 14.125 0 2.186 2.77 2.936 5.898 3.497 9.317.213 1.306.578 4.374.515 5.697-.152 3.13-.81 3.23-1.636 3.797-.353.24-.52.83-.585 1.283-.53 3.742-1.27 7.48-1.455 11.24-.283 5.703-6.55 7.584-10.36 6.02-2.606-1.07-4.193-2.882-4.496-5.83-.392-3.807-.96-7.598-1.526-11.385-.085-.566-.053-1.377-.854-1.61 0 0-1.56-.638-1.56-3.354-.08-4.915.717-9.688 3.355-13.984.18-.292.8-1.037.977-1.19zM476.172 292.367c-.07 4.5-3.865 8.197-8.373 8.16-4.554-.035-8.235-3.86-8.185-8.497.05-4.52 3.805-8.158 8.372-8.114 4.613.043 8.258 3.81 8.185 8.45z"/></g></g><g opacity=".6"><ellipse fill-rule="evenodd" clip-rule="evenodd" fill="#00ACD0" cx="504.484" cy="311.73" rx="9.488" ry="3.158"/><g fill-rule="evenodd" clip-rule="evenodd" fill="#00ACD0"><path d="M498.942 282.07c3.91 2.824 6.717 2.824 11.248 0 1.738 2.205 2.335 4.695 2.782 7.418.172 1.04.46 3.482.41 4.536-.12 2.493-.644 2.573-1.302 3.023-.28.192-.412.66-.464 1.022-.423 2.978-1.01 5.952-1.16 8.948-.225 4.54-5.214 6.037-8.247 4.792-2.076-.853-3.34-2.294-3.582-4.642-.312-3.03-.765-6.05-1.215-9.063-.066-.45-.04-1.097-.68-1.282 0 0-1.24-.508-1.24-2.672-.065-3.912.57-7.714 2.67-11.134.145-.23.638-.823.78-.947zM511.112 276.03c-.056 3.58-3.077 6.525-6.666 6.497-3.624-.03-6.557-3.074-6.516-6.768.04-3.6 3.028-6.495 6.666-6.46 3.673.036 6.576 3.034 6.516 6.73z"/></g></g><g opacity=".6"><ellipse fill-rule="evenodd" clip-rule="evenodd" fill="#00ACD0" cx="450.717" cy="286.017" rx="9.488" ry="3.159"/><g fill-rule="evenodd" clip-rule="evenodd" fill="#00ACD0"><path d="M445.176 256.356c3.91 2.825 6.718 2.825 11.247 0 1.74 2.206 2.336 4.696 2.784 7.42.17 1.038.46 3.48.41 4.534-.12 2.493-.644 2.573-1.302 3.023-.28.19-.413.662-.465 1.023-.422 2.98-1.01 5.953-1.16 8.948-.225 4.54-5.214 6.038-8.246 4.792-2.076-.852-3.34-2.294-3.58-4.64-.313-3.032-.767-6.05-1.217-9.065-.066-.45-.04-1.096-.68-1.28 0 0-1.24-.51-1.24-2.672-.063-3.914.57-7.715 2.672-11.135.14-.23.635-.824.776-.947zM457.347 250.315c-.057 3.582-3.078 6.526-6.668 6.497-3.624-.027-6.557-3.072-6.515-6.766.038-3.598 3.028-6.495 6.665-6.46 3.673.035 6.575 3.033 6.517 6.73z"/></g></g><ellipse fill-rule="evenodd" clip-rule="evenodd" fill="#EAEAEA" cx="517.009" cy="378.208" rx="11.916" ry="3.968"/><g fill-rule="evenodd" clip-rule="evenodd" fill="#80529B"><path d="M510.05 340.955c4.91 3.547 8.436 3.547 14.126 0 2.186 2.77 2.935 5.898 3.495 9.317.217 1.306.58 4.374.517 5.697-.15 3.13-.808 3.23-1.634 3.797-.354.24-.52.83-.584 1.283-.532 3.742-1.27 7.48-1.458 11.24-.282 5.703-6.55 7.584-10.36 6.02-2.606-1.07-4.192-2.882-4.496-5.83-.392-3.807-.96-7.598-1.525-11.385-.083-.566-.05-1.377-.853-1.61 0 0-1.56-.638-1.56-3.354-.08-4.915.717-9.688 3.355-13.984.18-.292.8-1.037.98-1.19zM525.336 333.367c-.072 4.5-3.866 8.197-8.374 8.16-4.554-.035-8.233-3.86-8.183-8.497.048-4.52 3.803-8.158 8.37-8.114 4.613.043 8.26 3.81 8.186 8.45z"/></g><ellipse fill-rule="evenodd" clip-rule="evenodd" fill="#EAEAEA" cx="374.751" cy="294.017" rx="9.487" ry="3.159"/><g fill-rule="evenodd" clip-rule="evenodd" fill="#C2C2C4"><path d="M369.21 264.356c3.91 2.825 6.717 2.825 11.247 0 1.74 2.206 2.337 4.696 2.784 7.42.17 1.038.462 3.48.41 4.534-.12 2.493-.644 2.573-1.3 3.023-.28.19-.415.662-.466 1.023-.422 2.98-1.01 5.953-1.16 8.948-.225 4.54-5.214 6.038-8.248 4.792-2.074-.852-3.338-2.294-3.58-4.64-.31-3.032-.764-6.05-1.215-9.065-.066-.45-.04-1.096-.68-1.28 0 0-1.24-.51-1.24-2.672-.063-3.914.57-7.715 2.672-11.135.143-.23.637-.824.78-.947zM381.38 258.315c-.056 3.582-3.077 6.526-6.666 6.497-3.624-.027-6.556-3.072-6.516-6.766.04-3.598 3.03-6.495 6.666-6.46 3.672.035 6.574 3.033 6.517 6.73z"/></g><g opacity=".6"><ellipse fill-rule="evenodd" clip-rule="evenodd" fill="#80529B" cx="374.751" cy="294.017" rx="9.487" ry="3.159"/><g fill-rule="evenodd" clip-rule="evenodd" fill="#80529B"><path d="M369.21 264.356c3.91 2.825 6.717 2.825 11.247 0 1.74 2.206 2.337 4.696 2.784 7.42.17 1.038.462 3.48.41 4.534-.12 2.493-.644 2.573-1.3 3.023-.28.19-.415.662-.466 1.023-.422 2.98-1.01 5.953-1.16 8.948-.225 4.54-5.214 6.038-8.248 4.792-2.074-.852-3.338-2.294-3.58-4.64-.31-3.032-.764-6.05-1.215-9.065-.066-.45-.04-1.096-.68-1.28 0 0-1.24-.51-1.24-2.672-.063-3.914.57-7.715 2.672-11.135.143-.23.637-.824.78-.947zM381.38 258.315c-.056 3.582-3.077 6.526-6.666 6.497-3.624-.027-6.556-3.072-6.516-6.766.04-3.598 3.03-6.495 6.666-6.46 3.672.035 6.574 3.033 6.517 6.73z"/></g></g><path fill="none" stroke="#C2C2C4" stroke-miterlimit="10" stroke-dasharray="4,3" d="M433.115 376.676s30-57 75.75 86.5"/><g fill="none" stroke="#C2C2C4" stroke-miterlimit="10" stroke-dasharray="4,3"><path d="M417.54 474.676M303.45 277.01c-40.334-70-64.334-20.668-64.334-20.668M328.116 306.01s31-31 56 36.666M403.04 281.676M339.116 238.01c11.25-42.5 26.667-29.334 35.667 13.666M280.116 309.676s19.244-40 41.667 69.334M200.45 303.676c5.666-22.334 52.666-39 79.666 6M450.865 242.926s37.5-136 115.75 130.75M496.115 376.926c.25 0-55.756-81.583-132.332 21.417M517.365 324.176s38-70 74.5-.75M242.783 422.676s17.333-69.666 78.333-44M643.115 429.926s-97.5-37-191.666 50.083M621.865 349.426c22.75-116.5 48.496-67.24 49-65M292.45 208.01s16.665-43.334 46.666 30.333M405.783 286.01s34.832-42.834 90.582 90.916M363.783 399.01s29.666-18.334 87.666 80.666M504.365 268.676s21.75-83.25 41.75-44.25"/></g></g></svg>